<?xml version="1.0" encoding="utf-8"?>
<!-- Generator: Adobe Illustrator 19.1.0, SVG Export Plug-In . SVG Version: 6.00 Build 0)  -->
<svg version="1.1" id="Layer_1" xmlns="http://www.w3.org/2000/svg" xmlns:xlink="http://www.w3.org/1999/xlink" x="0px" y="0px"
	 viewBox="274 -100 1000 600" style="enable-background:new 274 -100 1000 600;" xml:space="preserve">
<style type="text/css">
	.st0{fill:#231F20;}
	.st1{fill:#010101;}
	.st2{fill:#1A1722;}
	.st3{fill:#FFFFFF;}
	.st4{fill:#0E0A0B;}
	.st5{fill:#090A0A;}
	.st6{fill:none;}
	.st7{clip-path:url(#SVGID_2_);fill:#010101;}
	.st8{clip-path:url(#SVGID_4_);fill:#FFFFFF;}
	.st9{clip-path:url(#SVGID_6_);fill:#FFFFFF;}
	.st10{clip-path:url(#SVGID_8_);fill:#FFFFFF;}
	.st11{clip-path:url(#SVGID_10_);fill:#FFFFFF;}
	.st12{clip-path:url(#SVGID_12_);fill:#FFFFFF;}
	.st13{clip-path:url(#SVGID_14_);fill:#FFFFFF;}
	.st14{clip-path:url(#SVGID_16_);fill:#FFFFFF;}
	.st15{clip-path:url(#SVGID_18_);fill:#FFFFFF;}
	.st16{clip-path:url(#SVGID_20_);fill:#FFFFFF;}
	.st17{clip-path:url(#SVGID_22_);fill:#FFFFFF;}
	.st18{clip-path:url(#SVGID_24_);fill:#FFFFFF;}
	.st19{clip-path:url(#SVGID_26_);fill:#FFFFFF;}
	.st20{clip-path:url(#SVGID_28_);fill:#FFFFFF;}
	.st21{clip-path:url(#SVGID_30_);fill:#FFFFFF;}
	.st22{clip-path:url(#SVGID_32_);fill:#010101;}
	.st23{clip-path:url(#SVGID_34_);fill:#010101;}
	.st24{clip-path:url(#SVGID_36_);fill:#010101;}
	.st25{clip-path:url(#SVGID_38_);fill:#010101;}
	.st26{clip-path:url(#SVGID_40_);fill:#FFFFFF;}
	.st27{clip-path:url(#SVGID_42_);fill:#010101;}
	.st28{clip-path:url(#SVGID_44_);fill:#010101;}
	.st29{clip-path:url(#SVGID_46_);fill:#010101;}
	.st30{clip-path:url(#SVGID_48_);fill:#010101;}
	.st31{clip-path:url(#SVGID_50_);fill:#010101;}
	.st32{clip-path:url(#SVGID_52_);fill:#010101;}
	.st33{clip-path:url(#SVGID_54_);fill:#010101;}
	.st34{clip-path:url(#SVGID_56_);fill:#010101;}
	.st35{clip-path:url(#SVGID_58_);fill:#FFFFFF;}
	.st36{clip-path:url(#SVGID_60_);fill:#010101;}
	.st37{clip-path:url(#SVGID_62_);fill:#FFFFFF;}
	.st38{clip-path:url(#SVGID_64_);fill:#010101;}
	.st39{clip-path:url(#SVGID_66_);fill:#FFFFFF;}
	.st40{clip-path:url(#SVGID_68_);fill:#FFFFFF;}
</style>
<g>
	<path class="st0" d="M620,9.2l15.6-5.3c4.9-1.7,8.8-2.6,11.5-2.8c2.8-0.2,5.2,0.4,7.5,1.8c2.2,1.4,4.1,4.3,5.5,8.7
		c1,2.9,1.1,5.2,0.4,6.7c-0.7,1.5-2.6,3.2-5.6,4.9c3.8-0.5,6.7-0.2,8.5,0.9c1.8,1.1,3.3,3.4,4.4,6.6l1.6,4.7c1.2,3.4,1.5,6.1,1.2,8
		c-0.4,2-1.5,3.6-3.3,4.9c-1.8,1.3-5.9,3-12.2,5.1L637,59.5L620,9.2z M638.6,12.5l3.8,11.2c0.7-0.2,1.2-0.4,1.5-0.6
		c1.5-0.5,2.4-1.2,2.6-1.9c0.2-0.8-0.2-2.7-1.2-5.6c-0.5-1.6-1.1-2.6-1.6-3.1c-0.6-0.5-1.1-0.8-1.8-0.7
		C641.3,11.7,640.2,11.9,638.6,12.5z M645,31.4l4.8,14.1c2.2-0.8,3.5-1.6,3.9-2.3s0.3-2.1-0.4-4.1l-1.6-4.7
		c-0.7-2.2-1.4-3.4-2.1-3.6C648.9,30.5,647.4,30.7,645,31.4z"/>
	<path class="st0" d="M695.1-12.3l-4,35.7l4.4,18.7l-14.9,3.5l-4.4-18.7l-19-30.3L672-6.9c4.7,9.5,7.6,16,8.7,19.4
		c-0.4-5.7-0.5-12.9-0.3-21.4L695.1-12.3z"/>
	<polygon class="st0" points="330.5,301 344.3,253.7 362.8,259.1 357.2,278.5 374.7,283.6 379.7,266.3 397.3,271.4 392.2,288.7 
		431,300 422.8,328 	"/>
	<path class="st0" d="M378.2,179.6l57.9,27.9c6.6,3.2,11,5.6,13.5,7.4c2.4,1.8,4.4,4.6,6,8.4s2.2,8.1,1.7,12.8
		c-0.5,4.7-2.1,9.8-4.7,15.2c-2.9,6-6.3,10.9-10.3,14.7c-3.9,3.8-7.8,6.2-11.7,7.1c-3.8,1-7.4,0.9-10.6-0.1
		c-3.2-1.1-9.8-3.9-19.5-8.7l-51.2-24.7l12.7-26.2l64.9,31.4c3.8,1.8,6.3,2.8,7.6,2.8c1.3,0,2.3-0.7,3-2.1c0.8-1.7,0.7-3-0.2-4
		c-0.9-1-3.5-2.6-7.9-4.7L365.6,206L378.2,179.6z"/>
	<polygon class="st0" points="389,163 417.2,123.4 432.9,134.6 421.6,150.4 436.4,161 447,146.2 461.9,156.9 451.3,171.7 468.5,184 
		480.9,166.6 496.6,177.8 467.2,218.9 	"/>
	<polygon class="st0" points="448,89.8 503.8,142.7 516,129.9 529.9,143.1 497.6,177.1 427.9,110.9 	"/>
	<polygon class="st0" points="470,68.1 508,37.9 520,52.9 504.8,65 516.1,79.3 530.4,67.9 541.8,82.2 527.5,93.6 540.7,110.1 
		557.4,96.8 569.4,111.9 529.9,143.3 	"/>
	<path class="st0" d="M523.3,26.8l19.1-10.5c12.3-6.8,21-10.8,25.8-12.3c4.9-1.4,9.1-1.6,12.5-0.6c3.5,1,6.3,2.7,8.3,5.1
		c2.1,2.4,5.3,7.6,9.7,15.6l16.2,29.5c4.1,7.6,6.5,12.9,7.1,15.9s0.2,5.8-1.1,8.4c-1.3,2.6-3.3,5-6,7.2c-2.7,2.2-7.1,5-13.2,8.4
		l-32.2,17.7L523.3,26.8z M556.8,27.2l30.4,55.5c3.7-2,5.6-3.9,5.8-5.6c0.2-1.7-1.3-5.4-4.4-11l-18-32.8c-2.1-3.8-3.6-6.2-4.4-7.1
		c-0.9-0.9-2-1.4-3.2-1.3C561.6,24.9,559.6,25.7,556.8,27.2z"/>
	<polygon class="st0" points="738.5,-43.3 744.7,33.4 762.3,31.9 763.9,51.1 717.2,54.9 709.4,-40.9 	"/>
	<path class="st0" d="M825.3-40.6l8.1,97.2L803.7,54V36.7l-10.4-0.9L790,52.9l-30-2.7l23.3-94.4L825.3-40.6z M804.5,19.6
		c-0.5-11-0.8-24.5-0.8-40.6c-4.6,18.1-7.6,31.3-9.1,39.7L804.5,19.6z"/>
	<path class="st0" d="M911.2,16.4l-28-8l2.4-8.4c1.5-5.3,2.2-8.7,2-10.2s-1.2-2.5-3.2-3.1c-1.7-0.5-3.1-0.3-4,0.7s-2.1,3.8-3.4,8.5
		l-12.7,44.4c-1.2,4.1-1.7,7-1.4,8.5c0.2,1.5,1.3,2.5,3.2,3c2,0.6,3.6,0.2,4.8-1c1.2-1.3,2.3-4.1,3.6-8.4l3.1-11l-5.7-1.6l4-14
		l32.8,9.4l-14.2,49.6l-17.6-5l-0.7-7.4c-2.7,2.3-5.7,3.8-9.1,4.4c-3.3,0.6-6.9,0.3-10.9-0.8c-4.7-1.3-8.8-3.6-12.4-6.7
		c-3.5-3.1-6-6.5-7.3-10s-1.8-6.9-1.4-10.2c0.4-3.3,1.5-8.2,3.3-14.5l7.8-27.5c2.5-8.8,4.9-15.1,7.2-18.8c2.2-3.7,6.5-6.4,12.7-8.3
		c6.2-1.8,13.5-1.5,21.8,0.8c8.2,2.3,14.6,5.7,19.2,10.2c4.6,4.4,7.1,8.9,7.6,13.3c0.5,4.4-0.3,10.5-2.5,18L911.2,16.4z"/>
	<path class="st0" d="M1000.2,21l-29.6,57c-3.4,6.5-6,10.9-7.8,13.2c-1.8,2.4-4.7,4.3-8.5,5.8s-8.1,1.9-12.8,1.3
		c-4.7-0.6-9.7-2.3-15.1-5.1c-5.9-3.1-10.7-6.6-14.4-10.7c-3.7-4-5.9-8-6.8-11.9c-0.9-3.9-0.7-7.4,0.4-10.6
		c1.1-3.2,4.2-9.6,9.2-19.3L941-9.8l25.9,13.4l-33.2,64c-1.9,3.7-2.9,6.2-3,7.5s0.6,2.3,2.1,3c1.6,0.8,3,0.8,4.1-0.1
		c1.1-0.9,2.7-3.5,4.9-7.7l32.6-62.9L1000.2,21z"/>
	<polygon class="st0" points="1069.3,73.8 1009.1,148.8 989.2,132.8 1004.7,89.2 977.4,123.3 958.4,108.1 1018.5,33.1 1037.5,48.3 
		1023.2,92.3 1050.3,58.6 	"/>
	
		<rect x="1008.4" y="116.1" transform="matrix(-0.7333 0.6799 -0.6799 -0.7333 1920.0121 -491.9138)" class="st0" width="96.1" height="29.1"/>
	<polygon class="st0" points="1147.1,169.4 1131.4,180.5 1121.4,166.4 1058.7,210.9 1041.8,187.2 1104.5,142.7 1094.6,128.6 
		1110.3,117.5 	"/>
	<path class="st0" d="M1173.7,221.8l-78.7,57.7l-13.2-26.7l14.8-9.1l-4.6-9.3l-16.3,6.1l-13.4-27l92.7-29.4L1173.7,221.8z
		 M1111.5,235.5c9.1-6.2,20.5-13.5,34.2-21.9c-17.8,5.5-30.7,9.8-38.7,13L1111.5,235.5z"/>
	<path class="st0" d="M1174.9,317.7l-7.5-26l6.9-2c3.2-0.9,5.1-1.8,5.8-2.7c0.7-0.9,0.8-2.2,0.4-3.7c-0.5-1.7-1.4-2.8-2.9-3.3
		c-1.4-0.5-3.3-0.4-5.7,0.2c-3.1,0.9-5.3,2-6.6,3.5c-1.3,1.4-2.4,4.6-3.4,9.5c-2.8,14.3-5.7,23.6-8.9,28c-3.1,4.4-9.2,7.9-18.3,10.5
		c-6.6,1.9-11.7,2.4-15.3,1.5s-7.2-3.6-10.8-8.2c-3.6-4.5-6.4-10.2-8.3-17.1c-2.1-7.5-2.8-14.2-1.8-20.2c0.9-6,3-10.4,6.3-13.1
		s8.4-5.1,15.3-7.1l6.1-1.7l7.5,26l-11.2,3.2c-3.5,1-5.6,2-6.4,3s-0.9,2.5-0.4,4.3c0.5,1.9,1.6,3.1,3.1,3.6s3.5,0.5,6-0.2
		c5.4-1.6,8.8-3.4,9.9-5.7c1.2-2.3,2.7-7.4,4.6-15.5c2-8.1,3.5-13.5,4.7-16.3c1.1-2.8,3.1-5.4,5.8-7.7c2.7-2.4,6.6-4.3,11.5-5.7
		c7.1-2,12.6-2.5,16.4-1.3c3.9,1.2,7.4,3.8,10.6,8s5.7,9.6,7.6,16.2c2.1,7.3,2.9,13.8,2.3,19.5c-0.5,5.7-2.1,9.8-4.7,12.4
		c-2.6,2.5-7.6,4.9-14.9,7L1174.9,317.7z"/>
	<path class="st1" d="M1062.2,353.5c0.6-3.8,0.7-7.4,0.3-11c-0.1-1.9-0.3-4.1-0.7-6.5c-1.9-12.7-6.9-18.5-6.9-18.5
		c0.4,2.1-1.3,1.7-1.3,1.7c-0.8-6.1-5.3-9.9-5.3-9.9l0.2,2.1c-2.9-3.6-6.8-6.3-6.8-6.3l2.8,3.7c-4.7-4.3-9-6.5-10.5-5.7
		c-3.5,1.8,7,3.5,13.5,17.2c-0.8-1.4-2-3.1-3.5-4.2c0,0,3.8,5.5,5.7,12.9c0,0-0.8-1.9-2.1-2.1c0,0,3.9,5.4,4.6,14.3
		c0,1.2,0.1,2.4,0.1,3.6c0,1.1-0.1,2.3-0.3,3.6c-0.1,0.5-0.1,1-0.2,1.4c-5,25.6-52.3-2.8-52.3-2.8c-10.7-1.3-14.4,10.2-14.4,10.2
		c8.5,7.8,63.7,31.9,74.8,4.4c0.9-2.1,1.5-4.3,2-6.4C1061.9,355.1,1062,354.5,1062.2,353.5z"/>
	<path class="st1" d="M934.5,159.2c0.8,0.2,4.8,1.4,5.4,1.3c-0.7,0.9-0.7,1.2-0.7,1.5c1.3,0.2,6.6,0.3,7.8,1.4c-2.2-0.4-2.5,1-2.5,1
		l1.5,0.2l-1.5,2.1l2.4,0.6l-1.1,1.5"/>
	<path class="st1" d="M937.4,160.2c2.8,1.4,5.3,2.8,7.4,5c1.8,2,4.5,4.6,5,7.4c-3.1-4.6-3.7-2.1-5.2-4.2c-2.8-4.3-9.4-4.8-11.5-9.9
		C933.1,158.6,934.8,158.9,937.4,160.2z"/>
	<path class="st1" d="M1020.6,312.3c0,0,0.5-8.3-0.2-7.8c-0.2-1.4-0.4-1.3-0.4-1.3c-1.3-1.4-5.3-14.9-5.3-14.9s-1.1-11.8-2.8-11.4
		c5.5,6.3,7.8,6.7,7.8,6.7l-0.9,0.5l3.3,3.3l-1.6-0.5c-1-0.3-2-0.6-2.6-0.6c0.6,0.7,2.4,2.2,4,3.5l2.1,1.7l-3.7-1.5l3.4,3.5
		l-1.5-0.1l2.3,2.1l-1.6,0.8c0,0,0.7,0.8,1.4,1.8c0.4,0.6,0.8,1.3,1.3,1.5c-1,0.2-1.2,0.5-1.4,0.7c0.8,0.9,0.6,4.2,0.6,4.2
		S1021.9,302,1020.6,312.3z"/>
	<polygon class="st1" points="1083,403.8 444.9,403.8 439.7,398.6 1088.4,398.6 	"/>
	<polygon class="st1" points="1076.7,412.4 451.3,412.4 449.9,411.1 1078,411.1 	"/>
	<path d="M763.7,78.3c43.4,0,85.5,8.2,125.1,24.4c38.3,15.6,72.6,38,102.1,66.4s52.6,61.6,68.8,98.4c15.5,35.3,23.9,72.6,25,111
		h-642c1.2-38.4,9.6-75.7,25-111c16.2-36.9,39.3-70,68.8-98.4c29.5-28.5,63.8-50.8,102.1-66.4C678.2,86.5,720.3,78.3,763.7,78.3
		 M763.7,68.9c-182.6,0-330.6,142.9-330.6,319.1h661.2C1094.3,211.8,946.3,68.9,763.7,68.9z"/>
	<path class="st2" d="M603.4,198.4c0,0,16.2-4.2,31.2-2.8c15.1,1.4,26.7,8.3,26.7,8.3l-0.5,4.3c0,0-14.4-7.2-26.2-8.1
		s-31.1,3.6-31.1,3.6L603.4,198.4z"/>
	<path class="st3" d="M607.1,203.4c0,0,1.7-4.8-2.3-5s-22-1-22-1s-3.3,0-3.7,4.1C578.6,205.5,607.1,203.4,607.1,203.4z"/>
	<path class="st1" d="M607.1,203.4l0.6,0.2c0,0,0.4-1.1,0.4-2.3c0-0.7-0.1-1.5-0.6-2.2s-1.4-1.2-2.6-1.3c-4-0.2-22-1-22-1l0,0l0,0
		c-0.1,0-1,0-2,0.6s-2.1,1.8-2.4,4v0.2c0,0.4,0.2,0.8,0.5,1.1c0.5,0.5,1.2,0.8,2.1,1c1.3,0.4,3.1,0.6,5.1,0.7s4.2,0.2,6.5,0.2
		c7.2,0,14.5-0.5,14.5-0.5h0.4l0.1-0.4L607.1,203.4v-0.6c0,0-0.5,0-1.2,0.1c-2.4,0.2-7.8,0.5-13.2,0.5c-3.4,0-6.8-0.1-9.2-0.5
		c-1.2-0.2-2.2-0.4-2.9-0.7c-0.3-0.1-0.5-0.3-0.7-0.4c-0.1-0.1-0.1-0.2-0.1-0.2l0,0c0.2-1.9,1-2.7,1.8-3.1c0.4-0.2,0.7-0.3,1-0.4
		c0.1,0,0.2,0,0.3,0h0.1l0,0V198v0.1l0,0V198v0.1v-0.6v0.6c0,0,1.1,0.1,2.9,0.1c5.2,0.2,16.1,0.7,19.1,0.9c0.9,0.1,1.4,0.4,1.7,0.8
		c0.3,0.4,0.4,1,0.4,1.5s-0.1,1-0.2,1.3c0,0.2-0.1,0.3-0.1,0.4v0.1l0,0L607.1,203.4v-0.6V203.4z"/>
	<path class="st3" d="M675.3,206.8c0,0,0.1-2.4-3.6-2.9c-3.7-0.5-13.6-1.7-13.6-1.7s-1,1.2-0.7,4.2
		C657.5,209.4,675.3,206.8,675.3,206.8z"/>
	<path class="st1" d="M675.3,206.8h0.6v-0.1c0-0.2,0-1-0.6-1.7c-0.6-0.8-1.7-1.5-3.5-1.8c-1.9-0.2-5.3-0.7-8.2-1
		c-2.9-0.4-5.4-0.7-5.4-0.7h-0.3l-0.2,0.3c-0.1,0.1-0.9,1.2-0.9,3.6c0,0.3,0,0.6,0,1c0,0.3,0.1,0.5,0.3,0.7c0.2,0.3,0.6,0.6,1,0.7
		c0.6,0.2,1.3,0.4,2.2,0.5s1.8,0.1,2.9,0.1c5.3,0,12.4-1,12.4-1l0.5-0.1v-0.5H675.3l-0.1-0.6c0,0-0.4,0.1-1.2,0.2
		c-2.2,0.3-7.1,0.9-11,0.8c-1.5,0-2.9-0.1-3.9-0.3c-0.5-0.1-0.8-0.2-1-0.4c-0.1-0.1-0.2-0.1-0.2-0.2v-0.1c0-0.3,0-0.6,0-0.9
		c0-1.1,0.2-1.8,0.3-2.3c0.1-0.2,0.2-0.4,0.2-0.5l0.1-0.1l0,0l-0.2-0.2l0.2,0.2l0,0l-0.2-0.2l0.2,0.2L658,202l-0.1,0.6
		c0,0,9.9,1.3,13.6,1.7c1.6,0.2,2.4,0.8,2.7,1.3c0.4,0.5,0.4,1,0.4,1l0,0L675.3,206.8l-0.1-0.6L675.3,206.8z"/>
	<polygon class="st4" points="509.9,393.3 510.4,217.3 545.3,199.6 555.9,240.3 555.2,430.6 	"/>
	<polygon class="st3" points="555.8,239.7 546.1,200.3 713.9,209.9 729.4,242.8 	"/>
	<path class="st1" d="M546.9,200.9l166.6,9.5l14.9,31.7L556.2,239L546.9,200.9 M545.3,199.6l10,40.7l175.1,3.1l-16.1-34.1
		L545.3,199.6z"/>
	<polygon class="st4" points="555.3,240.3 554.5,429.3 567,432.4 721.9,385.9 728.4,376.4 730.3,243.4 	"/>
	<polygon class="st5" points="566.3,239.9 556.2,207.9 709.9,216.2 722.4,243.3 	"/>
	<polygon class="st3" points="566.9,239.6 558.5,212.9 707,219.4 716.8,242.3 	"/>
	<path class="st1" d="M559.3,213.6l147.2,6.4l9.3,21.7L567.3,239L559.3,213.6 M557.6,212.3l8.8,27.9l151.3,2.7l-10.4-24.1
		L557.6,212.3z"/>
	<path class="st3" d="M729.5,364.3c0,0-2.4,3-8.5,2.6c0,0-1.1-0.1-0.9,3.2c0.2,3.3,0.8,5.7-0.5,7.9s-9.6,2.4-9.6,2.4
		s-2.5,0.9-1.8,4.5s2.4,6.1,5.6,5.7c1.6-0.2,12.5-4,12.5-4s4.3-1.1,4.2-5c-0.1-3-0.5-17.2-0.5-17.2S730,364,729.5,364.3z"/>
	<path class="st1" d="M729.5,364.3L729,364l0.1,0.1L729,364l0,0l0.1,0.1L729,364c-0.1,0.1-2,2.4-6.8,2.4c-0.4,0-0.7,0-1.1,0l0,0
		c-0.1,0-0.2,0-0.4,0.1c-0.3,0.1-0.6,0.4-0.8,0.9s-0.3,1.1-0.3,2c0,0.3,0,0.6,0,0.9c0.1,1.7,0.3,3.2,0.3,4.4s-0.2,2.2-0.7,3.1
		c-0.1,0.2-0.3,0.3-0.6,0.5c-0.5,0.3-1.3,0.6-2.2,0.8c-1.4,0.3-2.9,0.5-4.2,0.6c-0.6,0.1-1.1,0.1-1.5,0.1s-0.6,0-0.6,0h-0.2
		c-0.1,0-0.6,0.2-1.2,0.8c-0.6,0.6-1.1,1.6-1.1,3c0,0.4,0,0.9,0.1,1.4c0.4,1.7,0.9,3.3,1.8,4.4c0.9,1.1,2.2,1.9,3.8,1.9
		c0.2,0,0.4,0,0.6,0c0.3,0,0.6-0.1,1.1-0.2c3.2-0.9,11.5-3.8,11.6-3.8l-0.2-0.6l0.1,0.6c0,0,1.2-0.3,2.3-1.1c0.6-0.4,1.2-1,1.6-1.7
		c0.5-0.7,0.8-1.6,0.8-2.7v-0.1l0,0c-0.1-3-0.5-17.2-0.5-17.2v-0.1c0,0,0-0.2-0.1-0.3s-0.1-0.2-0.3-0.3c-0.1-0.1-0.3-0.2-0.5-0.2
		c-0.3,0-0.5,0.1-0.7,0.2L729,364L729.5,364.3l0.3,0.5l0,0l0,0l-0.1-0.2v0.2h0.1l-0.1-0.2v0.2v-0.4l-0.2,0.3l0.2,0.1v-0.4l-0.2,0.3
		l0.2-0.2l-0.3,0.1l0.1,0.1l0.2-0.2l-0.3,0.1l0.2-0.1h-0.2v0.1l0.2-0.1h-0.2l0.6-0.1L729.5,364.3c-0.1,0.1-0.1,1,0,2.4
		c0.1,4.2,0.4,12.7,0.4,15l0,0v0.1c0,0.9-0.2,1.5-0.6,2.1c-0.5,0.8-1.3,1.4-2,1.8c-0.3,0.2-0.6,0.3-0.9,0.4c-0.1,0-0.2,0.1-0.3,0.1
		H726l0,0h-0.1c0,0-0.7,0.2-1.7,0.6c-1.6,0.5-4,1.3-6.1,2c-1.1,0.3-2.1,0.7-2.9,0.9c-0.8,0.2-1.4,0.4-1.7,0.4c-0.2,0-0.3,0-0.5,0
		c-1.2,0-2.1-0.5-2.8-1.4s-1.2-2.3-1.6-3.9c-0.1-0.4-0.1-0.8-0.1-1.1c0-1.1,0.4-1.8,0.8-2.2c0.2-0.2,0.4-0.3,0.5-0.4l0.2-0.1l0,0
		l0,0l0,0l0,0l0,0l0,0l-0.2-0.6v0.6c0,0,2.1-0.1,4.4-0.4c1.1-0.2,2.3-0.4,3.4-0.7c0.5-0.2,1-0.4,1.4-0.6c0.4-0.2,0.8-0.5,1-0.9
		c0.7-1.2,0.9-2.4,0.9-3.7c0-1.4-0.2-2.8-0.3-4.5c0-0.3,0-0.6,0-0.8c0-1.1,0.2-1.6,0.3-1.7l0.1-0.1l0,0l-0.1-0.2v0.2h0.1l-0.1-0.2
		v0.2V367v0.5l0,0V367v0.5c0.4,0,0.8,0,1.2,0c5.4,0,7.7-2.8,7.8-2.9L729.5,364.3l0.3,0.5L729.5,364.3z"/>
	<path class="st5" d="M607.2,226.1c1.1,4.1-2.1,7.5-7.1,7.6s-9.9-3-11-7.1c-1.1-4.1,2.1-7.5,7.1-7.6
		C601.2,218.8,606.1,222,607.2,226.1z"/>
	<path class="st3" d="M605.7,224c0.6,2.4-1.2,4.4-4.2,4.5c-2.9,0.1-5.8-1.8-6.4-4.2c-0.6-2.4,1.2-4.4,4.2-4.5
		C602.2,219.7,605.1,221.6,605.7,224z"/>
	<polygon class="st3" points="599.1,232.6 599.1,232.6 599.4,232.5 599.5,232.6 599.1,232.8 598.8,232.8 598.6,231.1 598.9,231.2 	
		"/>
	<path class="st3" d="M595.9,230.5l-0.1,0.1h-0.3c-0.7,0.1-1,0.1-1.2,0.3c-0.1,0.1-0.1,0.3,0.2,0.5c0.2,0.1,0.3,0.1,0.5,0.1v0.2
		c-0.2,0-0.4,0-0.6-0.2c-0.4-0.2-0.4-0.5-0.3-0.7c0.2-0.2,0.6-0.3,1.2-0.3h0.2l0,0l-0.8-0.5l0.1-0.1L595.9,230.5z"/>
	<path class="st3" d="M592.7,228.3c0-0.1,0-0.2-0.1-0.4c-0.2-0.3-0.4-0.3-0.6-0.3c-0.3,0.1-0.2,0.3-0.1,0.5l0.1,0.1h-0.2l-0.1-0.1
		c-0.1-0.2-0.3-0.3-0.5-0.3c-0.1,0-0.2,0.2-0.1,0.3c0.1,0.1,0.2,0.2,0.3,0.3l-0.1,0.1c-0.1-0.1-0.3-0.2-0.4-0.4
		c-0.2-0.3-0.1-0.5,0.2-0.6c0.2-0.1,0.4,0,0.6,0.2l0,0c-0.1-0.2,0-0.4,0.3-0.5c0.3-0.1,0.7,0.1,0.9,0.4c0.1,0.2,0.1,0.4,0.1,0.4
		L592.7,228.3z"/>
	<path class="st3" d="M592.2,224.7l-0.6-0.1l-0.1,0.7h-0.2l-1.2-1v-0.2l1.3,0.3v-0.2l0.2,0.1v0.2l0.6,0.1L592.2,224.7z M591.4,224.6
		l-0.7-0.2c-0.1,0-0.2-0.1-0.3-0.1l0,0c0.1,0.1,0.2,0.1,0.3,0.2l0.6,0.6l0,0L591.4,224.6z"/>
	<path class="st3" d="M592.7,221.1l-0.5,0.4l0.3,0.4l0.1-0.1c0.1-0.1,0.2-0.1,0.4-0.1c0.2,0,0.4,0,0.6,0.2c0.3,0.3,0.3,0.6,0,0.8
		c-0.2,0.1-0.3,0.2-0.4,0.2l-0.1-0.2c0.1,0,0.3-0.1,0.4-0.1c0.2-0.1,0.2-0.3,0-0.5s-0.5-0.2-0.7,0l-0.2,0.2l-0.6-0.7L592.7,221.1
		L592.7,221.1z"/>
	<path class="st3" d="M596.8,220h-0.2c-0.4,0.1-0.6,0.3-0.5,0.6l0,0c0.1-0.1,0.2-0.2,0.4-0.2c0.4,0,0.7,0.2,0.8,0.5
		c0.1,0.3-0.1,0.6-0.5,0.6c-0.4,0-0.8-0.2-0.9-0.7c-0.1-0.3,0-0.6,0.1-0.8c0.1-0.1,0.3-0.2,0.6-0.3h0.2V220z M597,221
		c-0.1-0.2-0.3-0.4-0.5-0.4s-0.3,0.1-0.3,0.2v0.1c0.1,0.3,0.3,0.5,0.6,0.5C596.9,221.4,597.1,221.2,597,221z"/>
	<polygon class="st3" points="601.7,221.1 601.6,221.2 600.1,222.1 599.8,222 601.3,221.1 601.3,221.1 600.4,220.7 600.5,220.6 	"/>
	<path class="st3" d="M603.9,223.8c0-0.2,0.1-0.3,0.2-0.4c0.3-0.1,0.6,0,0.8,0.3c0.2,0.3,0.1,0.5-0.1,0.6s-0.4,0.1-0.6-0.1l0,0
		c0.1,0.2,0,0.4-0.2,0.5c-0.3,0.1-0.7,0-0.9-0.3c-0.2-0.3-0.2-0.6,0.1-0.7C603.4,223.6,603.6,223.7,603.9,223.8L603.9,223.8z
		 M603.8,224.5c0.2-0.1,0.2-0.2,0.1-0.5c-0.2-0.2-0.4-0.2-0.6-0.1s-0.2,0.2-0.1,0.4C603.4,224.5,603.6,224.6,603.8,224.5z
		 M604.2,223.6c-0.2,0.1-0.2,0.2-0.1,0.4c0.1,0.1,0.3,0.2,0.5,0.1c0.1-0.1,0.2-0.2,0.1-0.4C604.6,223.6,604.4,223.6,604.2,223.6z"/>
	<path class="st3" d="M604.4,226.9v0.2c0,0.1,0.1,0.3,0.2,0.4c0.1,0.1,0.3,0.2,0.5,0.3l0,0c-0.1-0.1-0.2-0.3-0.2-0.4
		c0-0.3,0.3-0.4,0.6-0.4c0.4,0.1,0.7,0.3,0.7,0.7c0,0.3-0.4,0.5-0.9,0.4s-0.8-0.2-1-0.4c-0.2-0.1-0.2-0.3-0.3-0.5V227L604.4,226.9z
		 M605.6,227.1c-0.3,0-0.4,0.1-0.4,0.2s0.1,0.3,0.2,0.4h0.1c0.4,0.1,0.6,0,0.6-0.2C606.1,227.3,605.9,227.2,605.6,227.1z"/>
	<polygon class="st3" points="604.7,230.6 604.7,230.6 604.8,230.3 605,230.4 604.9,230.8 604.8,230.9 603.1,229.8 603.2,229.6 	"/>
	<path class="st3" d="M602.5,231.4c-0.5-0.5-0.6-0.8-0.2-1c0.3-0.2,0.8,0,1.2,0.4c0.5,0.5,0.5,0.8,0.2,1S603,231.8,602.5,231.4z
		 M603.3,230.9c-0.4-0.4-0.7-0.5-0.9-0.4c-0.2,0.1-0.1,0.4,0.3,0.8c0.3,0.3,0.7,0.5,0.9,0.4C603.8,231.5,603.7,231.2,603.3,230.9z"
		/>
	<path class="st5" d="M633,227.2c1,3.9-2,7.1-6.7,7.2s-9.4-2.9-10.4-6.7c-1-3.9,2-7.1,6.7-7.2C627.4,220.3,632,223.4,633,227.2z"/>
	<path class="st3" d="M631.1,225.2c0.6,2.3-1.2,4.2-4,4.2c-2.8,0.1-5.5-1.7-6.1-4s1.2-4.2,4-4.2C627.7,221.2,630.5,223,631.1,225.2z
		"/>
	<polygon class="st3" points="625.4,233.4 625.4,233.4 625.7,233.3 625.8,233.4 625.4,233.6 625.1,233.6 624.9,232 625.2,232 	"/>
	<path class="st3" d="M622.3,231.4l-0.1,0.1h-0.3c-0.7,0.1-1,0.1-1.1,0.3c-0.1,0.1-0.1,0.3,0.2,0.4c0.2,0.1,0.3,0.1,0.4,0.1v0.2
		c-0.2,0-0.4,0-0.6-0.1c-0.4-0.2-0.4-0.5-0.3-0.7c0.2-0.2,0.5-0.3,1.1-0.3h0.2l0,0L621,231l0.1-0.1L622.3,231.4z"/>
	<path class="st3" d="M619.4,229.3c0-0.1,0-0.2-0.1-0.4c-0.2-0.3-0.4-0.3-0.5-0.3c-0.2,0.1-0.2,0.3-0.1,0.5l0.1,0.1h-0.2l-0.1-0.1
		c-0.1-0.1-0.3-0.3-0.5-0.3c-0.1,0-0.2,0.1-0.1,0.3c0.1,0.1,0.2,0.2,0.3,0.3l-0.1,0.1c-0.1-0.1-0.3-0.2-0.4-0.4
		c-0.2-0.3-0.1-0.5,0.2-0.5c0.2,0,0.4,0,0.6,0.2l0,0c-0.1-0.2,0-0.4,0.2-0.5c0.3-0.1,0.6,0.1,0.9,0.4c0.1,0.2,0.1,0.3,0.1,0.4
		L619.4,229.3z"/>
	<path class="st3" d="M618.8,225.9l-0.5-0.1l-0.1,0.7H618l-1.1-1v-0.2l1.2,0.3v-0.2h0.2v0.2l0.5,0.1V225.9z M618.1,225.8l-0.7-0.2
		c-0.1,0-0.2-0.1-0.3-0.1l0,0c0.1,0.1,0.2,0.1,0.3,0.2l0.6,0.5l0,0L618.1,225.8z"/>
	<path class="st3" d="M619.3,222.5l-0.5,0.4l0.3,0.4l0.1-0.1c0.1-0.1,0.2-0.1,0.4-0.1c0.2,0,0.4,0,0.6,0.2c0.3,0.2,0.3,0.6,0,0.8
		c-0.1,0.1-0.3,0.2-0.4,0.2l-0.1-0.2c0.1,0,0.2,0,0.4-0.1c0.2-0.1,0.2-0.3,0-0.5s-0.4-0.2-0.7,0l-0.2,0.1l-0.6-0.7l0.6-0.5
		L619.3,222.5z"/>
	<path class="st3" d="M623.2,221.5H623c-0.4,0.1-0.5,0.3-0.5,0.6l0,0c0.1-0.1,0.2-0.2,0.4-0.2c0.3,0,0.6,0.2,0.7,0.5
		c0.1,0.3-0.1,0.6-0.5,0.6c-0.4,0-0.7-0.2-0.9-0.6c-0.1-0.3,0-0.6,0.1-0.7c0.1-0.1,0.3-0.2,0.5-0.3h0.2L623.2,221.5z M623.4,222.4
		c-0.1-0.2-0.3-0.4-0.5-0.3c-0.2,0-0.3,0.1-0.3,0.2v0.1c0.1,0.3,0.3,0.4,0.6,0.4C623.3,222.7,623.5,222.6,623.4,222.4z"/>
	<polygon class="st3" points="627.9,222.5 627.8,222.6 626.3,223.5 626.1,223.3 627.5,222.5 627.5,222.5 626.6,222.1 626.7,222 	"/>
	<path class="st3" d="M629.9,225.1c0-0.2,0.1-0.3,0.2-0.4c0.3-0.1,0.6,0,0.8,0.3c0.2,0.3,0.1,0.5-0.1,0.6c-0.1,0.1-0.3,0.1-0.6-0.1
		l0,0c0.1,0.2,0,0.4-0.2,0.5c-0.3,0.1-0.6,0-0.8-0.3c-0.2-0.3-0.2-0.6,0.1-0.7C629.5,224.9,629.7,224.9,629.9,225.1L629.9,225.1z
		 M629.9,225.7c0.2-0.1,0.2-0.2,0.1-0.5c-0.2-0.1-0.4-0.2-0.5-0.1c-0.2,0.1-0.2,0.2-0.1,0.4C629.5,225.7,629.7,225.8,629.9,225.7z
		 M630.3,224.9c-0.2,0.1-0.2,0.2-0.1,0.4c0.1,0.1,0.3,0.2,0.5,0.1c0.1,0,0.2-0.2,0.1-0.3C630.6,224.9,630.4,224.8,630.3,224.9z"/>
	<path class="st3" d="M630.4,228v0.2c0,0.1,0.1,0.2,0.2,0.4c0.1,0.1,0.3,0.2,0.5,0.3l0,0c-0.1-0.1-0.2-0.2-0.2-0.4
		c0-0.3,0.3-0.4,0.6-0.4c0.4,0.1,0.7,0.3,0.7,0.6c0,0.3-0.3,0.5-0.8,0.4c-0.4-0.1-0.7-0.2-0.9-0.4c-0.1-0.1-0.2-0.3-0.3-0.5V228
		H630.4z M631.5,228.2c-0.2,0-0.4,0.1-0.4,0.2s0.1,0.3,0.2,0.3h0.1c0.3,0.1,0.6,0,0.6-0.2C632,228.4,631.8,228.2,631.5,228.2z"/>
	<polygon class="st3" points="630.7,231.5 630.7,231.5 630.8,231.2 631,231.3 630.9,231.7 630.8,231.8 629.2,230.7 629.3,230.6 	"/>
	<path class="st3" d="M628.6,232.2c-0.5-0.4-0.5-0.8-0.2-1c0.3-0.2,0.7,0,1.2,0.4s0.5,0.8,0.2,1
		C629.5,232.8,629.1,232.6,628.6,232.2z M629.4,231.7c-0.4-0.3-0.7-0.5-0.8-0.4c-0.2,0.1-0.1,0.4,0.3,0.7c0.3,0.3,0.6,0.5,0.8,0.4
		C629.8,232.4,629.8,232.1,629.4,231.7z"/>
	<path class="st5" d="M651.9,227.7c1,3.7-1.9,6.8-6.5,7c-4.6,0.1-9.1-2.8-10.1-6.5s1.9-6.9,6.5-7C646.4,221,650.9,223.9,651.9,227.7
		z"/>
	<path class="st3" d="M650,225.7c0.6,2.2-1.1,4-3.8,4.1s-5.3-1.6-5.9-3.8c-0.6-2.2,1.1-4,3.8-4.1C646.8,221.8,649.5,223.5,650,225.7
		z"/>
	<polygon class="st3" points="644.5,233.6 644.5,233.6 644.8,233.5 644.9,233.6 644.5,233.8 644.3,233.8 644,232.3 644.3,232.3 	"/>
	<path class="st3" d="M641.5,231.7l-0.1,0.1h-0.3c-0.6,0-1,0.1-1.1,0.3c-0.1,0.1-0.1,0.3,0.2,0.4c0.1,0.1,0.3,0.1,0.4,0.1v0.2
		c-0.2,0-0.4,0-0.6-0.1c-0.4-0.2-0.4-0.5-0.2-0.6c0.2-0.2,0.5-0.3,1.1-0.3h0.2l0,0l-0.8-0.4l0.1-0.1L641.5,231.7z"/>
	<path class="st3" d="M638.7,229.7c0-0.1,0-0.2-0.1-0.4c-0.2-0.3-0.4-0.3-0.5-0.2c-0.2,0.1-0.2,0.3-0.1,0.5l0.1,0.1h-0.2l-0.1-0.1
		c-0.1-0.1-0.3-0.3-0.5-0.3c-0.1,0-0.2,0.1-0.1,0.3c0.1,0.1,0.2,0.2,0.3,0.3l-0.1,0.1c-0.1-0.1-0.3-0.2-0.4-0.3
		c-0.2-0.3,0-0.5,0.2-0.5c0.2,0,0.4,0,0.6,0.2l0,0c-0.1-0.2,0-0.4,0.2-0.4c0.3-0.1,0.6,0,0.8,0.4c0.1,0.2,0.1,0.3,0.1,0.4
		L638.7,229.7z"/>
	<path class="st3" d="M638.1,226.4l-0.5-0.1l-0.1,0.7h-0.2l-1.1-0.9v-0.2l1.2,0.3V226h0.2v0.2l0.5,0.1V226.4z M637.4,226.2l-0.6-0.2
		c-0.1,0-0.2-0.1-0.3-0.1l0,0c0.1,0.1,0.2,0.1,0.3,0.2l0.6,0.5l0,0V226.2z"/>
	<path class="st3" d="M638.6,223.1l-0.5,0.4l0.3,0.3l0.1-0.1c0.1-0.1,0.2-0.1,0.4-0.1c0.2,0,0.4,0,0.5,0.2c0.3,0.2,0.3,0.6,0,0.8
		c-0.1,0.1-0.3,0.1-0.4,0.2l-0.1-0.2c0.1,0,0.2,0,0.4-0.1s0.2-0.3,0-0.5s-0.4-0.2-0.7,0l-0.2,0.1l-0.6-0.6l0.6-0.4L638.6,223.1z"/>
	<path class="st3" d="M642.4,222.1h-0.2c-0.4,0.1-0.5,0.3-0.5,0.6l0,0c0.1-0.1,0.2-0.2,0.4-0.2c0.3,0,0.6,0.2,0.7,0.5
		s-0.1,0.5-0.5,0.6c-0.4,0-0.7-0.2-0.8-0.6c-0.1-0.3,0-0.5,0.1-0.7c0.1-0.1,0.3-0.2,0.5-0.3h0.2L642.4,222.1z M642.6,223
		c-0.1-0.2-0.3-0.3-0.5-0.3c-0.1,0-0.3,0.1-0.3,0.2v0.1c0.1,0.2,0.3,0.4,0.5,0.4C642.5,223.3,642.6,223.2,642.6,223z"/>
	<polygon class="st3" points="646.9,223.1 646.8,223.2 645.4,224 645.2,223.9 646.5,223.1 646.6,223.1 645.7,222.7 645.8,222.6 	"/>
	<path class="st3" d="M648.9,225.6c0-0.2,0-0.3,0.2-0.4c0.3-0.1,0.6,0,0.8,0.3s0.1,0.5-0.1,0.6c-0.1,0.1-0.3,0.1-0.6-0.1l0,0
		c0.1,0.2,0,0.4-0.2,0.4c-0.3,0.1-0.6,0-0.8-0.3s-0.2-0.5,0.1-0.6C648.4,225.4,648.7,225.4,648.9,225.6L648.9,225.6z M648.8,226.2
		c0.2-0.1,0.2-0.2,0.1-0.4c-0.2-0.1-0.4-0.2-0.5-0.1c-0.2,0.1-0.2,0.2-0.1,0.4C648.5,226.2,648.7,226.3,648.8,226.2z M649.2,225.4
		c-0.2,0.1-0.2,0.2-0.1,0.4c0.1,0.1,0.3,0.2,0.5,0.1c0.1-0.1,0.2-0.2,0.1-0.3C649.5,225.4,649.3,225.3,649.2,225.4z"/>
	<path class="st3" d="M649.3,228.4v0.2c0,0.1,0.1,0.2,0.2,0.3c0.1,0.1,0.3,0.2,0.5,0.3l0,0c-0.1-0.1-0.2-0.2-0.2-0.4
		c0-0.3,0.3-0.4,0.6-0.4c0.4,0.1,0.7,0.3,0.7,0.6c0,0.3-0.3,0.4-0.8,0.4c-0.4-0.1-0.7-0.2-0.9-0.4c-0.1-0.1-0.2-0.3-0.2-0.5v-0.2
		L649.3,228.4z M650.4,228.6c-0.2,0-0.4,0.1-0.4,0.2s0.1,0.3,0.2,0.3h0.1c0.3,0,0.6,0,0.6-0.2C650.9,228.8,650.7,228.6,650.4,228.6z
		"/>
	<polygon class="st3" points="649.7,231.8 649.7,231.8 649.7,231.5 649.9,231.6 649.8,231.9 649.7,232.1 648.1,231 648.3,230.9 	"/>
	<path class="st3" d="M647.6,232.5c-0.4-0.4-0.5-0.8-0.2-1s0.7,0,1.1,0.4c0.4,0.4,0.5,0.8,0.2,1C648.5,233,648.1,232.9,647.6,232.5z
		 M648.4,232c-0.3-0.3-0.6-0.4-0.8-0.3s-0.1,0.4,0.3,0.7c0.3,0.3,0.6,0.5,0.8,0.3C648.8,232.6,648.7,232.4,648.4,232z"/>
	<path class="st5" d="M671.1,228.2c1,3.7-1.9,6.8-6.4,6.9s-8.9-2.8-9.9-6.4c-1-3.7,1.9-6.8,6.4-6.9
		C665.7,221.6,670.2,224.5,671.1,228.2z"/>
	<path class="st3" d="M669.7,226.3c0.6,2.2-1.1,4-3.8,4c-2.6,0.1-5.3-1.6-5.8-3.8c-0.6-2.2,1.1-4,3.8-4
		C666.5,222.5,669.1,224.1,669.7,226.3z"/>
	<polygon class="st3" points="663.8,234.1 663.8,234.1 664.1,234 664.2,234.1 663.8,234.3 663.6,234.3 663.4,232.8 663.6,232.8 	"/>
	<path class="st3" d="M660.9,232.1L660.9,232.1l-0.3,0.1c-0.6,0-0.9,0.1-1.1,0.3c-0.1,0.1-0.1,0.3,0.2,0.4c0.2,0.1,0.3,0.1,0.4,0.1
		v0.2c-0.2,0-0.4,0-0.6-0.1c-0.4-0.2-0.4-0.5-0.2-0.6c0.2-0.2,0.5-0.3,1-0.3h0.2l0,0l-0.7-0.4l0.1-0.1L660.9,232.1z"/>
	<path class="st3" d="M658.1,230.2c0-0.1,0-0.2-0.1-0.3c-0.1-0.2-0.4-0.3-0.5-0.2c-0.2,0.1-0.2,0.3-0.1,0.5l0.1,0.1h-0.2l-0.1-0.1
		c-0.1-0.1-0.3-0.3-0.5-0.2c-0.1,0-0.2,0.1-0.1,0.3c0.1,0.1,0.2,0.2,0.3,0.3l-0.1,0.1c-0.1-0.1-0.3-0.2-0.4-0.3
		c-0.2-0.3,0-0.5,0.2-0.5s0.4,0,0.6,0.2l0,0c-0.1-0.2,0-0.4,0.2-0.4c0.3-0.1,0.6,0,0.8,0.4c0.1,0.2,0.1,0.3,0.1,0.4L658.1,230.2z"/>
	<path class="st3" d="M657.6,227l-0.5-0.1l-0.1,0.7h-0.2l-1.1-0.9v-0.2l1.2,0.3v-0.2h0.2v0.2l0.5,0.1L657.6,227z M656.9,226.8
		l-0.6-0.2c-0.1,0-0.2,0-0.3-0.1l0,0c0.1,0.1,0.2,0.1,0.3,0.2l0.6,0.5l0,0V226.8z"/>
	<path class="st3" d="M658,223.7l-0.5,0.4l0.3,0.3l0.1-0.1c0.1-0.1,0.2-0.1,0.3-0.1c0.2,0,0.4,0,0.5,0.2c0.3,0.2,0.3,0.5,0,0.7
		c-0.1,0.1-0.3,0.1-0.4,0.2l-0.1-0.2c0.1,0,0.2,0,0.3-0.1c0.2-0.1,0.2-0.3,0-0.5s-0.4-0.2-0.7,0l-0.2,0.1L657,224l0.6-0.4L658,223.7
		z"/>
	<path class="st3" d="M661.8,222.7h-0.2c-0.4,0.1-0.5,0.3-0.5,0.6l0,0c0.1-0.1,0.2-0.2,0.4-0.2c0.3,0,0.6,0.2,0.7,0.5
		c0.1,0.3-0.1,0.5-0.5,0.6c-0.4,0-0.7-0.2-0.8-0.6c-0.1-0.3,0-0.5,0.1-0.7c0.1-0.1,0.3-0.2,0.5-0.2L661.8,222.7L661.8,222.7z
		 M661.9,223.6c-0.1-0.2-0.3-0.3-0.5-0.3c-0.1,0-0.3,0.1-0.3,0.2v0.1c0.1,0.2,0.3,0.4,0.5,0.4C661.9,223.9,662,223.8,661.9,223.6z"
		/>
	<polygon class="st3" points="666.2,223.7 666.1,223.8 664.7,224.6 664.5,224.5 665.9,223.7 665.9,223.7 665,223.3 665.1,223.2 	"/>
	<path class="st3" d="M668.2,226.1c0-0.2,0-0.3,0.2-0.4s0.6,0,0.7,0.3c0.2,0.3,0.1,0.5-0.1,0.5c-0.1,0.1-0.3,0.1-0.5-0.1l0,0
		c0.1,0.2,0,0.4-0.2,0.4c-0.3,0.1-0.6,0-0.8-0.3s-0.2-0.5,0.1-0.6C667.7,226,667.9,226,668.2,226.1L668.2,226.1z M668.1,226.8
		c0.2-0.1,0.2-0.2,0.1-0.4c-0.2-0.1-0.4-0.2-0.5-0.1c-0.2,0.1-0.2,0.2-0.1,0.4C667.7,226.8,667.9,226.8,668.1,226.8z M668.5,226
		c-0.2,0.1-0.2,0.2-0.1,0.4c0.1,0.1,0.3,0.2,0.4,0.1c0.1,0,0.2-0.2,0.1-0.3C668.8,225.9,668.6,225.9,668.5,226z"/>
	<path class="st3" d="M668.6,228.9v0.2c0,0.1,0.1,0.2,0.2,0.3c0.1,0.1,0.3,0.2,0.5,0.3l0,0c-0.1-0.1-0.2-0.2-0.2-0.4
		c0-0.3,0.3-0.4,0.6-0.3c0.4,0.1,0.7,0.3,0.7,0.6c0,0.3-0.3,0.4-0.8,0.4c-0.4-0.1-0.7-0.2-0.9-0.4c-0.1-0.1-0.2-0.3-0.2-0.5v-0.2
		H668.6z M669.7,229.1c-0.2,0-0.4,0.1-0.4,0.2s0.1,0.2,0.2,0.3h0.1c0.3,0,0.6,0,0.6-0.2C670.1,229.3,670,229.2,669.7,229.1z"/>
	<polygon class="st3" points="668.9,232.3 668.9,232.3 669,232 669.2,232.1 669.1,232.4 669,232.6 667.4,231.5 667.6,231.4 	"/>
	<path class="st3" d="M666.9,233c-0.4-0.4-0.5-0.8-0.2-0.9c0.3-0.2,0.7,0,1.1,0.4c0.4,0.4,0.5,0.8,0.2,0.9
		C667.8,233.5,667.3,233.4,666.9,233z M667.7,232.5c-0.3-0.3-0.6-0.4-0.8-0.3s-0.1,0.4,0.3,0.7c0.3,0.3,0.6,0.5,0.8,0.3
		C668.1,233.1,668,232.8,667.7,232.5z"/>
	<path class="st5" d="M689.2,229.4c0.8,3.4-1.7,6.2-5.6,6.3c-3.9,0.1-7.8-2.5-8.6-5.9s1.7-6.2,5.6-6.3
		C684.5,223.4,688.3,226,689.2,229.4z"/>
	<path class="st3" d="M688,227.7c0.5,2-1,3.7-3.3,3.7c-2.3,0.1-4.6-1.5-5.1-3.5s1-3.7,3.3-3.7C685.3,224.1,687.5,225.7,688,227.7z"
		/>
	<polygon class="st3" points="682.8,234.8 682.8,234.8 683.1,234.7 683.1,234.9 682.8,235 682.6,235 682.4,233.6 682.6,233.6 	"/>
	<path class="st3" d="M680.3,233.1L680.3,233.1l-0.3,0.1c-0.6,0-0.8,0.1-0.9,0.2c-0.1,0.1-0.1,0.3,0.1,0.4c0.1,0.1,0.3,0.1,0.4,0.1
		v0.1c-0.1,0-0.3,0-0.5-0.1c-0.3-0.2-0.3-0.4-0.2-0.6s0.5-0.2,0.9-0.3h0.2l0,0l-0.6-0.4l0.1-0.1L680.3,233.1z"/>
	<path class="st3" d="M677.8,231.3c0-0.1,0-0.2-0.1-0.3c-0.1-0.2-0.3-0.3-0.4-0.2c-0.2,0.1-0.2,0.2-0.1,0.4l0.1,0.1h-0.1l-0.1-0.1
		c-0.1-0.1-0.2-0.3-0.4-0.2c-0.1,0-0.2,0.1-0.1,0.3c0.1,0.1,0.2,0.2,0.2,0.2l-0.1,0.1c-0.1-0.1-0.2-0.2-0.3-0.3
		c-0.1-0.3,0-0.4,0.1-0.5c0.2,0,0.3,0,0.5,0.1l0,0c-0.1-0.2,0-0.3,0.2-0.4s0.5,0,0.7,0.4c0.1,0.2,0.1,0.3,0.1,0.4H677.8z"/>
	<path class="st3" d="M677.4,228.3l-0.4-0.1l-0.1,0.6h-0.1l-0.9-0.9v-0.2l1,0.3v-0.2h0.2v0.2l0.4,0.1L677.4,228.3z M676.8,228.1
		l-0.5-0.1l-0.3-0.1l0,0l0.2,0.2l0.5,0.5l0,0L676.8,228.1z"/>
	<path class="st3" d="M677.8,225.3l-0.4,0.3l0.3,0.3l0.1-0.1c0.1-0.1,0.2-0.1,0.3-0.1s0.3,0,0.5,0.2s0.2,0.5,0,0.7
		c-0.1,0.1-0.3,0.1-0.3,0.1l-0.1-0.1c0.1,0,0.2,0,0.3-0.1s0.2-0.3,0-0.4s-0.4-0.2-0.6,0l-0.1,0.1l-0.5-0.6l0.5-0.4V225.3z"/>
	<path class="st3" d="M681,224.4h-0.2c-0.3,0.1-0.4,0.3-0.4,0.5l0,0c0.1-0.1,0.2-0.2,0.3-0.2c0.3,0,0.5,0.2,0.6,0.4
		c0.1,0.3-0.1,0.5-0.4,0.5c-0.3,0-0.6-0.2-0.7-0.6c-0.1-0.3,0-0.5,0.1-0.6s0.3-0.2,0.5-0.2h0.2L681,224.4z M681.2,225.2
		c-0.1-0.2-0.2-0.3-0.4-0.3c-0.1,0-0.2,0.1-0.3,0.2v0.1c0.1,0.2,0.2,0.4,0.5,0.4C681.1,225.5,681.2,225.4,681.2,225.2z"/>
	<polygon class="st3" points="684.9,225.3 684.8,225.4 683.6,226.1 683.4,226 684.6,225.3 684.6,225.3 683.8,224.9 683.9,224.8 	"/>
	<path class="st3" d="M686.6,227.5c0-0.2,0-0.3,0.2-0.3c0.2-0.1,0.5,0,0.6,0.2c0.2,0.2,0.1,0.4-0.1,0.5c-0.1,0-0.3,0-0.5-0.1l0,0
		c0,0.2,0,0.3-0.2,0.4s-0.5,0-0.7-0.3s-0.1-0.5,0.1-0.6C686.2,227.4,686.4,227.4,686.6,227.5L686.6,227.5z M686.5,228.1
		c0.2-0.1,0.2-0.2,0.1-0.4c-0.2-0.1-0.3-0.2-0.4-0.1c-0.1,0-0.2,0.2-0.1,0.4C686.2,228.1,686.4,228.2,686.5,228.1z M686.9,227.4
		c-0.1,0.1-0.1,0.2-0.1,0.3c0.1,0.1,0.3,0.1,0.4,0.1c0.1,0,0.2-0.2,0.1-0.3C687.1,227.4,687,227.3,686.9,227.4z"/>
	<path class="st3" d="M687,230.1v0.1c0,0.1,0.1,0.2,0.2,0.3c0.1,0.1,0.2,0.2,0.4,0.2l0,0c-0.1-0.1-0.2-0.2-0.2-0.4
		c0-0.2,0.2-0.4,0.5-0.3c0.3,0,0.6,0.3,0.6,0.6c0,0.3-0.3,0.4-0.7,0.3s-0.6-0.2-0.8-0.4c-0.1-0.1-0.2-0.3-0.2-0.4v-0.2L687,230.1z
		 M687.9,230.3c-0.2,0-0.3,0-0.3,0.2c0,0.1,0.1,0.2,0.2,0.3h0.1c0.3,0,0.5,0,0.5-0.2C688.3,230.5,688.1,230.3,687.9,230.3z"/>
	<polygon class="st3" points="687.2,233.2 687.2,233.2 687.3,232.9 687.4,233 687.4,233.3 687.3,233.4 685.9,232.5 686.1,232.4 	"/>
	<path class="st3" d="M685.5,233.8c-0.4-0.4-0.4-0.7-0.2-0.9c0.2-0.1,0.6,0,1,0.3c0.4,0.4,0.4,0.7,0.2,0.9
		C686.2,234.3,685.9,234.2,685.5,233.8z M686.1,233.4c-0.3-0.3-0.6-0.4-0.7-0.3c-0.2,0.1-0.1,0.3,0.2,0.6c0.3,0.3,0.5,0.4,0.7,0.3
		S686.4,233.7,686.1,233.4z"/>
	<path class="st5" d="M574.4,225.6c0.2,2.2-1.4,3.7-3.6,3.5c-2.2-0.3-4.2-2.3-4.4-4.5c-0.2-2.2,1.4-3.7,3.6-3.5
		C572.2,221.4,574.1,223.4,574.4,225.6z"/>
	<path class="st3" d="M573.8,225.5c0.2,1.9-1.2,3.2-3.1,3c-1.9-0.3-3.6-2-3.8-3.9c-0.2-1.9,1.2-3.2,3.1-3
		C571.9,221.9,573.6,223.7,573.8,225.5z"/>
	<path class="st5" d="M572.3,225c0.1,1.1-0.7,1.9-1.7,1.7c-1-0.1-2-1.1-2.1-2.2c-0.1-1.1,0.7-1.9,1.7-1.7
		C571.3,222.9,572.2,223.9,572.3,225z"/>
	<path class="st5" d="M704.8,229.8c0.2,1.7-1.1,2.9-2.8,2.7c-1.7-0.2-3.3-1.8-3.5-3.5s1.1-2.9,2.8-2.7
		C703.1,226.5,704.6,228.1,704.8,229.8z"/>
	<path class="st3" d="M704.4,229.7c0.2,1.5-0.9,2.5-2.4,2.3s-2.8-1.6-3-3c-0.2-1.5,0.9-2.5,2.4-2.3
		C702.9,226.9,704.2,228.3,704.4,229.7z"/>
	<path class="st5" d="M703.2,229.3c0.1,0.9-0.5,1.5-1.3,1.4s-1.5-0.9-1.6-1.8s0.5-1.5,1.3-1.4S703.1,228.4,703.2,229.3z"/>
	<path class="st5" d="M585.2,226c0.4,2.2-1.2,3.8-3.4,3.6c-2.2-0.2-4.3-2.1-4.7-4.3c-0.4-2.2,1.2-3.8,3.4-3.6
		C582.7,221.9,584.8,223.8,585.2,226z"/>
	<path class="st3" d="M584.6,225.9c0.3,1.9-1,3.3-2.9,3.1c-1.9-0.1-3.7-1.8-4-3.7c-0.3-1.9,1-3.3,2.9-3.1
		C582.5,222.4,584.3,224,584.6,225.9z"/>
	<path class="st5" d="M583.1,225.4c0.2,1.1-0.6,1.9-1.6,1.8s-2-1-2.2-2.1s0.6-1.9,1.6-1.8S582.9,224.3,583.1,225.4z"/>
	<line class="st6" x1="607.7" y1="214.8" x2="617.5" y2="241.9"/>
	<path class="st1" d="M607.1,215l9.8,27.2c0.1,0.3,0.5,0.5,0.8,0.4c0.3-0.1,0.5-0.5,0.4-0.8l-9.8-27.2c-0.1-0.3-0.5-0.5-0.8-0.4
		C607.2,214.3,607,214.7,607.1,215"/>
	<line class="st6" x1="687.5" y1="217.9" x2="697.9" y2="244"/>
	<path class="st1" d="M686.9,218.1l10.4,26.1c0.1,0.3,0.5,0.5,0.8,0.3c0.3-0.1,0.5-0.5,0.3-0.8l-10.4-26c-0.1-0.3-0.5-0.5-0.8-0.3
		C686.9,217.5,686.8,217.8,686.9,218.1"/>
	<polygon class="st3" points="566.3,240.5 566.4,421.4 720.2,378.5 722.2,242.9 	"/>
	<path class="st1" d="M566.3,240.5h-0.6l0.1,180.9c0,0.2,0.1,0.4,0.2,0.5c0.2,0.1,0.3,0.2,0.5,0.1l153.8-42.9
		c0.3-0.1,0.4-0.3,0.4-0.6l2-135.7c0-0.3-0.3-0.6-0.6-0.6l-155.9-2.4c-0.2,0-0.3,0.1-0.4,0.2s-0.2,0.3-0.2,0.4h0.7v0.6l155.3,2.4
		l-2,134.6L567,420.6V240.5H566.3v0.6V240.5z"/>
	<path class="st4" d="M568.9,244.6V244l151.5,1v1.1l-1.8,130.7l-148.9,41l-0.8,0.2V244.6z M719.4,246.2l-148.1,0.3l0.1,168.8
		l146-39.3L719.4,246.2z"/>
	<path class="st3" d="M546,412.6l9.2,7.8l0.7,0.5c0,0,3.9,2.6,11.3,0.3c0,0,4.9-1.2,4.9,3.4c0,4.6,2.1,7.3-0.1,8.2
		s-8.5,4.3-13.3,1.3s-7.4-5.9-7.4-5.9l-5.4-5.1L546,412.6z"/>
	<path class="st4" d="M546,412.6l-0.4,0.5l9.2,7.8l0,0l0.7,0.5l0,0c0.1,0.1,2.1,1.4,5.8,1.4c1.7,0,3.7-0.3,6-1l-0.2-0.6l0.1,0.6l0,0
		c0.1,0,0.6-0.1,1.2-0.1c0.7,0,1.4,0.1,2,0.5c0.3,0.2,0.5,0.5,0.7,0.8c0.2,0.4,0.3,0.9,0.3,1.6c0,1.6,0.2,2.9,0.5,4
		c0.2,1.1,0.5,2,0.4,2.6c0,0.3-0.1,0.5-0.1,0.6c-0.1,0.1-0.2,0.3-0.5,0.4c-0.8,0.3-2.1,1-3.6,1.5s-3.3,1-5,1c-1.4,0-2.9-0.3-4.2-1.1
		c-2.3-1.5-4.2-2.9-5.4-4c-0.6-0.5-1.1-1-1.4-1.3c-0.2-0.2-0.3-0.3-0.4-0.4l-0.1-0.1l0,0l0,0l-5.2-4.9v-10.3H546l-0.4,0.5L546,412.6
		h-0.6v10.6c0,0.2,0.1,0.3,0.2,0.4l5.4,5.1l0.4-0.4l-0.4,0.4c0,0,2.7,2.9,7.5,6c1.5,1,3.2,1.3,4.8,1.3c1.9,0,3.8-0.5,5.4-1.1
		c1.6-0.6,2.9-1.2,3.7-1.5c0.5-0.2,0.9-0.5,1.1-0.9s0.3-0.8,0.3-1.3c0-0.8-0.2-1.8-0.5-2.9c-0.2-1.1-0.4-2.4-0.4-3.8
		c0-0.8-0.1-1.5-0.4-2.1c-0.4-0.9-1.1-1.4-1.8-1.7s-1.4-0.4-2-0.4c-0.9,0-1.5,0.2-1.5,0.2l0,0c-2.2,0.7-4.1,0.9-5.6,0.9
		c-1.7,0-3-0.3-3.9-0.6c-0.4-0.1-0.7-0.3-1-0.4c-0.1-0.1-0.2-0.1-0.2-0.1l0,0l0,0l-0.1,0.1l0.1-0.1l0,0l-0.1,0.1l0.1-0.1l-0.3,0.5
		l0.4-0.5l-0.7-0.5l-9.1-7.8c-0.2-0.2-0.4-0.2-0.6-0.1c-0.2,0.1-0.4,0.3-0.4,0.6L546,412.6z"/>
	<path class="st3" d="M710.8,302.3c0,0,1-7.1,1-21.2c0-14.2-0.8-27.7-0.8-27.7"/>
	<path class="st1" d="M711.1,302.3c0,0,1-7.1,1-21.3c0-14.2-0.8-27.7-0.8-27.7c0-0.2-0.2-0.3-0.3-0.3c-0.2,0-0.3,0.2-0.3,0.3
		c0,0,0.1,0.8,0.1,2.3c0.2,4.5,0.7,14.8,0.7,25.4c0,7.1-0.2,12.4-0.5,15.9c-0.1,1.8-0.2,3.1-0.3,4s-0.1,1.3-0.1,1.3
		c0,0.2,0.1,0.3,0.3,0.3C710.9,302.6,711.1,302.5,711.1,302.3z"/>
	<path class="st3" d="M704.5,253.2c0,0,0.7,11.9,0.7,24s-0.8,18.4-0.8,18.4"/>
	<path class="st1" d="M704.2,253.2c0,0,0,0.7,0.1,2c0.2,3.9,0.6,12.9,0.6,22c0,6.1-0.2,10.7-0.4,13.8c-0.1,1.5-0.2,2.7-0.3,3.5
		s-0.1,1.2-0.1,1.2c0,0.2,0.1,0.4,0.3,0.4s0.4-0.1,0.4-0.3c0,0,0.8-6.3,0.8-18.5c0-12.1-0.7-24.1-0.7-24.1c0-0.2-0.2-0.3-0.4-0.3
		C704.3,252.8,704.2,253,704.2,253.2z"/>
	<path class="st3" d="M698.2,253c0,0,0.6,10.3,0.6,20.4s-0.7,15.6-0.7,15.6"/>
	<path class="st1" d="M697.8,253.1c0,0,0,0.6,0.1,1.8c0.2,3.4,0.5,11,0.5,18.6c0,5-0.2,9-0.3,11.6c-0.1,1.3-0.2,2.3-0.2,3
		c-0.1,0.7-0.1,1-0.1,1c0,0.2,0.1,0.4,0.3,0.4s0.4-0.1,0.4-0.3c0,0,0.7-5.6,0.7-15.7s-0.6-20.4-0.6-20.4c0-0.2-0.2-0.4-0.4-0.4
		C697.9,252.7,697.8,252.8,697.8,253.1z"/>
	<path class="st3" d="M691.8,252.9c0,0,0.5,8.6,0.5,16.7s-0.5,12.8-0.5,12.8"/>
	<path class="st1" d="M691.3,252.9c0,0,0,0.5,0.1,1.5c0.1,2.8,0.4,9.2,0.4,15.2c0,4-0.1,7.2-0.3,9.4c-0.1,1.1-0.1,1.9-0.2,2.5
		c-0.1,0.6-0.1,0.9-0.1,0.9c0,0.2,0.1,0.5,0.4,0.5c0.2,0,0.5-0.1,0.5-0.4c0,0,0.6-4.8,0.6-12.9s-0.5-16.7-0.5-16.7
		c0-0.2-0.2-0.4-0.5-0.4C691.5,252.5,691.3,252.7,691.3,252.9z"/>
	<path class="st3" d="M685.4,252.8c0,0,0.4,7,0.4,13c0,6.1-0.4,10-0.4,10"/>
	<path class="st1" d="M684.9,252.8c0,0,0.1,1.7,0.2,4.2c0.1,2.5,0.2,5.8,0.2,8.8s-0.1,5.5-0.2,7.3c-0.1,0.9-0.1,1.6-0.1,2
		c0,0.5-0.1,0.7-0.1,0.7c0,0.3,0.2,0.5,0.4,0.5c0.3,0,0.5-0.2,0.5-0.4c0,0,0.4-4,0.4-10.1s-0.4-13.1-0.4-13.1c0-0.3-0.2-0.5-0.5-0.5
		C685.1,252.3,684.9,252.5,684.9,252.8z"/>
	<path class="st3" d="M679,252.6c0,0,0.2,5.3,0.2,9.4c0,4-0.3,7.2-0.3,7.2"/>
	<path class="st1" d="M678.5,252.6c0,0,0.1,1.3,0.1,3.2s0.1,4.2,0.1,6.2s-0.1,3.8-0.1,5.1c0,0.6-0.1,1.2-0.1,1.5c0,0.4,0,0.6,0,0.6
		c0,0.3,0.2,0.5,0.5,0.6c0.3,0,0.5-0.2,0.6-0.5c0,0,0.3-3.2,0.3-7.3c0-4.1-0.2-9.4-0.2-9.4c0-0.3-0.3-0.5-0.5-0.5
		S678.5,252.4,678.5,252.6L678.5,252.6z"/>
	<path class="st3" d="M672.6,252.5c0,0,0.1,3.7,0.1,5.7s-0.1,4.4-0.1,4.4"/>
	<path class="st1" d="M672.1,252.5c0,0,0,0.9,0.1,2.1c0,1.2,0.1,2.6,0.1,3.6s0,2.1-0.1,3c0,0.9-0.1,1.5-0.1,1.5
		c0,0.3,0.2,0.6,0.5,0.6s0.6-0.2,0.6-0.5c0,0,0.1-2.4,0.1-4.5c0-2-0.1-5.7-0.1-5.7c0-0.3-0.3-0.6-0.6-0.5
		C672.3,251.9,672.1,252.2,672.1,252.5z"/>
	<line class="st6" x1="666.3" y1="252.4" x2="666.3" y2="256"/>
	<path class="st1" d="M665.7,252.4v3.7c0,0.3,0.3,0.6,0.6,0.6s0.6-0.3,0.6-0.6v-3.7c0-0.3-0.3-0.6-0.6-0.6
		C665.9,251.7,665.7,252,665.7,252.4"/>
	<path class="st1" d="M714,259.4c0,0-7.4-4.8-13.5-7c-0.2-0.1-0.3,0-0.4,0.2c-0.1,0.2,0,0.3,0.2,0.4c3,1.1,6.3,2.8,8.9,4.3
		c1.3,0.7,2.4,1.4,3.2,1.9s1.2,0.8,1.2,0.8c0.1,0.1,0.3,0,0.4-0.1C714.2,259.7,714.1,259.5,714,259.4z"/>
	<path class="st1" d="M713.7,266.6c0,0-11-10-20.6-14.5c-0.2-0.1-0.4,0-0.5,0.2s0,0.4,0.2,0.5c4.7,2.2,9.8,5.8,13.8,8.9
		c2,1.5,3.6,2.9,4.8,3.9c0.6,0.5,1.1,0.9,1.4,1.2c0.3,0.3,0.5,0.4,0.5,0.4c0.1,0.1,0.4,0.1,0.5,0C713.9,267,713.9,266.8,713.7,266.6
		L713.7,266.6z"/>
	<path class="st1" d="M713.5,273.8c0,0-14.6-15.3-27.7-22.1c-0.2-0.1-0.5,0-0.6,0.2s0,0.5,0.2,0.6c6.5,3.3,13.4,8.8,18.6,13.4
		c2.6,2.3,4.9,4.4,6.4,6c0.8,0.8,1.4,1.4,1.8,1.8c0.4,0.4,0.6,0.7,0.6,0.7c0.2,0.2,0.4,0.2,0.6,0C713.6,274.3,713.6,274,713.5,273.8
		z"/>
	<path class="st1" d="M713.2,281c0,0-18.2-20.5-34.9-29.6c-0.2-0.1-0.5,0-0.7,0.2c-0.1,0.2,0,0.5,0.2,0.7c8.2,4.4,16.9,11.8,23.5,18
		c3.3,3.1,6.1,6,8,8c1,1,1.8,1.9,2.3,2.4c0.5,0.6,0.8,0.9,0.8,0.9c0.2,0.2,0.5,0.2,0.7,0C713.4,281.5,713.4,281.2,713.2,281z"/>
	<path class="st1" d="M713,288.2c0,0-5.5-6.5-13.4-14.3c-8-7.9-18.5-17.1-28.6-22.8c-0.3-0.1-0.6-0.1-0.7,0.2
		c-0.1,0.3-0.1,0.6,0.2,0.7c10,5.6,20.4,14.8,28.3,22.6c4,3.9,7.3,7.5,9.7,10.1c1.2,1.3,2.1,2.3,2.7,3.1c0.6,0.7,1,1.1,1,1.1
		c0.2,0.2,0.5,0.3,0.8,0.1C713.1,288.8,713.2,288.4,713,288.2z"/>
	<path class="st1" d="M712.7,295.4c0,0-6.4-7.8-15.7-17.2c-9.3-9.5-21.6-20.6-33.4-27.4c-0.3-0.2-0.7-0.1-0.8,0.2
		c-0.2,0.3-0.1,0.7,0.2,0.8c11.7,6.7,23.9,17.8,33.2,27.2c4.6,4.7,8.5,9,11.3,12.1c1.4,1.6,2.5,2.8,3.2,3.7c0.7,0.9,1.1,1.3,1.1,1.4
		c0.2,0.3,0.6,0.3,0.9,0.1C712.9,296,712.9,295.6,712.7,295.4z"/>
	<path class="st3" d="M579.7,332.3c0,0-0.7,17.8-0.4,32c0.2,14.2,1.3,27.7,1.3,27.7"/>
	<path class="st1" d="M579.1,332.3c0,0-0.5,13-0.5,25.6c0,2.2,0,4.3,0,6.4c0.2,14.2,1.3,27.7,1.3,27.7c0,0.3,0.3,0.6,0.7,0.6
		c0.3,0,0.6-0.3,0.6-0.7c0,0-0.1-0.8-0.2-2.3c-0.3-4.5-0.9-14.7-1.1-25.3c0-2.1,0-4.2,0-6.4c0-6.3,0.1-12.7,0.2-17.5
		c0.1-2.4,0.1-4.4,0.2-5.8c0-1.4,0.1-2.2,0.1-2.2c0-0.3-0.2-0.6-0.6-0.6C579.4,331.7,579.1,332,579.1,332.3z"/>
	<path class="st3" d="M586.7,390.7c0,0-1-12.3-1.2-24.8c-0.2-12.6,0.4-28.6,0.4-28.6"/>
	<path class="st1" d="M587.3,390.6c0,0-0.1-0.8-0.2-2.1c-0.3-4-0.9-13.3-1-22.7c0-1.9,0-3.9,0-5.9c0-5.6,0.1-11.3,0.2-15.6
		c0.1-2.1,0.1-3.9,0.1-5.2c0-1.3,0.1-2,0.1-2c0-0.3-0.2-0.6-0.6-0.6c-0.3,0-0.6,0.2-0.6,0.6c0,0-0.4,11.6-0.4,22.8c0,2,0,4,0,5.9
		c0.2,12.6,1.2,24.9,1.2,24.9c0,0.3,0.3,0.6,0.6,0.5C587.1,391.2,587.3,390.9,587.3,390.6z"/>
	<path class="st3" d="M593,389.4c0,0-0.9-11-1-22c-0.2-11,0.3-25.3,0.3-25.3"/>
	<path class="st1" d="M593.5,389.3c0,0-0.1-0.7-0.1-1.9c-0.2-3.6-0.8-11.8-0.9-20.1c0-1.8,0-3.6,0-5.5c0-4.9,0.1-9.8,0.2-13.6
		c0-1.9,0.1-3.4,0.1-4.5s0.1-1.7,0.1-1.7c0-0.3-0.2-0.5-0.5-0.6c-0.3,0-0.5,0.2-0.6,0.5c0,0-0.3,10.1-0.3,19.9c0,1.9,0,3.7,0,5.5
		c0.2,11,1,22,1,22c0,0.3,0.3,0.5,0.6,0.5C593.3,389.9,593.5,389.6,593.5,389.3z"/>
	<path class="st3" d="M599.2,388.1c0,0-0.8-9.7-0.9-19.1c-0.1-9.4,0.2-22,0.2-22"/>
	<path class="st1" d="M599.7,388c0,0,0-0.6-0.1-1.7c-0.2-3.2-0.7-10.4-0.8-17.4c0-1.6,0-3.3,0-5.1c0-4.2,0.1-8.4,0.1-11.6
		c0-1.6,0.1-2.9,0.1-3.9c0-0.9,0-1.5,0-1.5c0-0.3-0.2-0.5-0.5-0.5c-0.3,0-0.5,0.2-0.5,0.5c0,0-0.2,8.6-0.2,17c0,1.7,0,3.5,0,5.1
		c0.2,9.5,0.9,19.1,0.9,19.1c0,0.3,0.3,0.5,0.5,0.5C599.5,388.6,599.7,388.3,599.7,388z"/>
	<path class="st3" d="M605.5,386.8c0,0-0.7-8.4-0.8-16.2c-0.1-7.9,0.1-18.7,0.1-18.7"/>
	<path class="st1" d="M605.9,386.8c0,0,0-0.5-0.1-1.4c-0.2-2.7-0.6-8.9-0.7-14.8c0-1.5,0-3.1,0-4.7c0-3.4,0-6.9,0.1-9.6
		c0-2.6,0.1-4.4,0.1-4.4c0-0.3-0.2-0.5-0.5-0.5s-0.5,0.2-0.5,0.5c0,0-0.2,7.1-0.2,14c0,1.6,0,3.2,0,4.8c0.1,7.9,0.8,16.3,0.8,16.3
		c0,0.3,0.2,0.5,0.5,0.4C605.8,387.2,605.9,387,605.9,386.8z"/>
	<path class="st3" d="M611.7,385.5c0,0-0.6-7.1-0.7-13.4c-0.1-6.3,0.1-15.4,0.1-15.4"/>
	<path class="st1" d="M612.1,385.5c0,0,0-0.4-0.1-1.2c-0.2-2.3-0.5-7.4-0.6-12.1c0-1.5,0-3.1,0-4.7c0-2.7,0-5.3,0-7.3s0-3.3,0-3.3
		c0-0.2-0.2-0.4-0.4-0.4c-0.2,0-0.4,0.2-0.4,0.4c0,0-0.1,5.4-0.1,10.7c0,1.6,0,3.2,0,4.7c0.1,6.3,0.7,13.4,0.7,13.4
		c0,0.2,0.2,0.4,0.5,0.4C612,385.9,612.2,385.7,612.1,385.5L612.1,385.5z"/>
	<path class="st3" d="M617.9,384.2c0,0-0.5-5.8-0.6-10.5s0-12.1,0-12.1"/>
	<path class="st1" d="M618.3,384.2c0,0-0.1-1.4-0.3-3.5c-0.1-2-0.3-4.7-0.3-7c0-1.8,0-3.9,0-5.8c0-1.7,0-3.2,0-4.4
		c0-1.1,0-1.9,0-1.9c0-0.2-0.2-0.4-0.4-0.4c-0.2,0-0.4,0.2-0.4,0.4c0,0,0,2.9,0,6.2c0,2,0,4.1,0,5.9c0.1,4.7,0.6,10.5,0.6,10.5
		c0,0.2,0.2,0.4,0.4,0.4C618.2,384.6,618.4,384.4,618.3,384.2z"/>
	<path class="st3" d="M624.2,382.9c0,0-0.4-4.5-0.4-7.7c0-3.1-0.1-8.8-0.1-8.8"/>
	<path class="st1" d="M624.5,382.9c0,0-0.1-1.1-0.2-2.6s-0.2-3.4-0.2-5s0-3.8-0.1-5.6c0-1.8,0-3.2,0-3.2c0-0.2-0.2-0.4-0.4-0.4
		c-0.2,0-0.4,0.2-0.4,0.4c0,0,0,5.6,0.1,8.8s0.4,7.7,0.4,7.7c0,0.2,0.2,0.4,0.4,0.3C624.4,383.3,624.6,383.1,624.5,382.9z"/>
	<path class="st3" d="M630.4,381.6c0,0-0.3-3.2-0.3-4.8s-0.2-5.5-0.2-5.5"/>
	<path class="st1" d="M630.7,381.6c0,0-0.1-0.8-0.2-1.8s-0.2-2.2-0.2-3c0-1.6-0.2-5.5-0.2-5.5c0-0.2-0.2-0.3-0.3-0.3
		c-0.2,0-0.3,0.2-0.3,0.3c0,0,0,1,0.1,2.1c0,1.2,0.1,2.5,0.1,3.3c0,1.6,0.3,4.8,0.3,4.8c0,0.2,0.2,0.3,0.4,0.3
		C630.6,381.9,630.8,381.8,630.7,381.6z"/>
	<line class="st6" x1="636.6" y1="380.3" x2="636.2" y2="376.2"/>
	<path class="st1" d="M636.9,380.3l-0.4-4.1c0-0.2-0.2-0.3-0.3-0.3c-0.2,0-0.3,0.2-0.3,0.3l0.4,4.1c0,0.2,0.2,0.3,0.3,0.3
		C636.8,380.6,637,380.4,636.9,380.3"/>
	<path class="st1" d="M577.2,386.2c0,0,7.5,4.7,13.7,6.8c0.3,0.1,0.7-0.1,0.8-0.4c0.1-0.3-0.1-0.7-0.4-0.8c-3-1-6.3-2.7-8.9-4.1
		c-1.3-0.7-2.4-1.4-3.2-1.8c-0.4-0.2-0.7-0.4-0.9-0.6c-0.2-0.1-0.3-0.2-0.3-0.2c-0.3-0.2-0.7-0.1-0.8,0.2
		C576.8,385.6,576.9,386,577.2,386.2z"/>
	<path class="st1" d="M577.3,378.5c0,0,12.4,8.2,21.5,12.2c0.3,0.1,0.6,0,0.7-0.3s0-0.6-0.3-0.7c-4.5-2-9.8-5-14-7.5
		c-2.1-1.3-3.9-2.4-5.2-3.2c-0.7-0.4-1.2-0.7-1.5-1c-0.4-0.2-0.5-0.4-0.5-0.4c-0.3-0.2-0.6-0.1-0.8,0.2
		C576.9,378,577,378.3,577.3,378.5z"/>
	<path class="st1" d="M577.4,370.9c0,0,17.4,11.7,29.4,17.5c0.3,0.1,0.6,0,0.7-0.2c0.1-0.3,0-0.6-0.2-0.7
		c-5.9-2.9-13.3-7.2-19.1-10.9c-2.9-1.8-5.5-3.5-7.3-4.6c-0.9-0.6-1.6-1.1-2.1-1.4c-0.5-0.3-0.8-0.5-0.8-0.5
		c-0.2-0.2-0.5-0.1-0.7,0.1C577.1,370.4,577.1,370.7,577.4,370.9z"/>
	<path class="st1" d="M577.5,363.2c0,0,22.3,15.2,37.2,22.8c0.2,0.1,0.5,0,0.6-0.2c0.1-0.2,0-0.5-0.2-0.6
		c-7.4-3.8-16.7-9.5-24.1-14.2c-3.7-2.4-7-4.5-9.3-6c-1.2-0.8-2.1-1.4-2.7-1.8c-0.6-0.4-1-0.7-1-0.7c-0.2-0.1-0.5-0.1-0.6,0.1
		C577.2,362.8,577.3,363.1,577.5,363.2L577.5,363.2z"/>
	<path class="st1" d="M577.6,355.6c0,0,27.2,18.7,45.1,28.1c0.2,0.1,0.4,0,0.5-0.2s0-0.4-0.2-0.5c-8.9-4.7-20.2-11.7-29.2-17.6
		c-4.5-2.9-8.5-5.5-11.3-7.4c-1.4-0.9-2.5-1.7-3.3-2.2S578,355,578,355c-0.2-0.1-0.4-0.1-0.6,0.1
		C577.3,355.2,577.4,355.4,577.6,355.6z"/>
	<path class="st1" d="M577.7,347.9c0,0,32.1,22.1,53,33.5c0.2,0.1,0.4,0,0.5-0.1c0.1-0.2,0-0.4-0.1-0.5c-10.4-5.6-23.6-14-34.3-20.9
		c-5.3-3.5-10-6.6-13.3-8.8c-1.7-1.1-3-2-3.9-2.7c-0.9-0.6-1.4-1-1.4-1c-0.2-0.1-0.4-0.1-0.5,0.1
		C577.5,347.6,577.5,347.8,577.7,347.9z"/>
	<path class="st1" d="M577.8,340.3c0,0,37,25.6,60.8,38.8c0.1,0.1,0.3,0,0.4-0.1c0.1-0.1,0-0.3-0.1-0.4
		c-11.9-6.6-27.1-16.3-39.3-24.3c-6.1-4-11.5-7.6-15.3-10.2c-1.9-1.3-3.5-2.4-4.5-3.1c-1.1-0.7-1.6-1.1-1.6-1.1
		c-0.1-0.1-0.3-0.1-0.4,0.1C577.6,340,577.6,340.2,577.8,340.3z"/>
	<path class="st3" d="M849.9,221.6c-2,1.9-9,9.8-5.7,18.1c3.3,8.3,1.7,26.3,0.4,34s-0.2,17.6-0.2,19.5s2.7,55.7-7.3,67.2
		c0,0-3.3,7.5-6.7,9.2c-3.4,1.6-10.1,7.3-16,11.4c0,0-8.8,3.7-10.9,9.7l2.5,1.2l-2.1,3.7c0,0,5.9,2.4,10.1,1.2c4.2-1.2,8-1.2,8-1.2
		l-0.8,2c0,0,8,0.4,12.2-3.7c4.2-4.1,6.7-1.2,6.7-1.2l-0.4-2.8c0,0,5.1-7.7,7.2-10.2c2.1-2.4,5.1-8.1,5.1-11c0-2.8,6.3-4.5,8.8-5.7
		s-1.3-1.6-1.3-1.6s1.7-16,3.1-27c1.4-11,11.9-39,13.6-49.6c0,0,4.2,20.3,27.8,28.8c0,0,4.2,11.4,15.6,15
		c11.4,3.7,13.9,13.4,13.9,13.4s-11.8,2.8-21.9,4.9c-10.1,2-14.3,10.2-14.3,14.6c0,4.5,18.5,2.8,18.5,2.8s31.1-8.1,34.1-7.7
		c2.9,0.4,7.2,1.2,7.6,4.5c0.4,3.2,5.9,6.9,10.5,6.9s17.3,0.4,17.3,0.4l8.4,0.4c0,0,25.2-1.1,26-6.2c0.4-2.1,4.4-4.6,3-13.4
		c-1.4-8.9-2.8-20.8-2.5-28.8c0.5-13.9,2.2-31.4-6.3-37.8c0,0-11.8-16.2-13.9-24.4c-2.1-8.1-11.4-15.8-11.4-23.2
		c0-7.3-29.9-42.3-34.5-45.9c-4.6-3.7-17.9-23.9-31.4-33.8c-9.2-6.8-28.9-11-44.2-13.8c-7.2-1.3-14.1-0.8-18.1-0.9"/>
	<path class="st1" d="M851.4,194c0.3,5.2,52.3-40.2,52.1-38.7c-6.4,70.1-61,67.4-60.7,70.6c0.4,3.8,1.4,8.9,3,13.1
		c3.5,8.7,1.7,25.6,0.3,33.4c-0.8,4.8-1.2,22.7-1.2,23.3c0,1.7,4,53.2-6.4,65.6c-0.5,1.1-2.3,4.8-4.6,7.5c-0.9,1,4.2,0.1,3.2,0.6
		c-0.5,0.3-7.2,2.4-8,2.9c-1.8,1.2-5.5,2.1-7.9,4c-2.4,1.8-4.8,3.6-7.2,5.3c-0.1,0.1-0.2,0.1-0.4,0.2c-2,0.8-7.1,3.6-9.2,7.2
		l2.2,1.3c0.5,0.2,0.8,0.6,1,1.1s0.1,1-0.2,1.4l-1,1.8c2,0.6,4.8,1.1,6.8,0.5c4.4-1.3,8.4-1.3,8.5-1.3c0.6,0,1.2,0.3,1.6,0.8
		c0.2,0.3,0.3,0.7,0.3,1.1c2.6-0.3,6.1-1,8.1-3c1.9-1.8,3.8-2.8,5.8-2.7c0-0.4,0.1-0.7,0.3-1s5.1-7.9,7.3-10.3
		c2-2.3,4.6-7.5,4.6-9.8c0-3.4,10.3-12.6,9.7-26.7c-0.1-2.7,0.6-5.3,0.9-7.7c1.3-10.6,12.5-41.4,5.8-70c0-0.1,1.1,0.7,2.3,1.6
		c1.4,1,3.1,2.2,3.6,2.5c0.8,0.5,2.5,1.4,2.5,1.4l1.7,0.2c0,0,3.9,1.5,3.4,1.2c-1-0.6-1.2,1.4-2.6,2.1c0,0,2.8,0.6,3.4,0.9
		c0.7,0.5,1.2,0.6,1.8,0.9c1.3,0.8,3.1,1.4,3.2,1.5c0.1,0.2-1.2,36.5,21.6,44.7c0.5,0.2,0.9,0.6,1.1,1.1c0,0.1,1.4,1.4,11.7,4.7
		c12.2,3.9-6.5-21.3,26.6-29.9c15.2-3.9,12.8,17.8,12.4,17.9c-0.1,0-2.4,18.7,6.8,38.6c0.9,2,18.9,13.1,19.5,13.1l8.3,0.4
		c11.9-0.5,20.6-4,21.3-5.9c0.2-0.9,0.6-1.7,1.2-2.6c1.2-1.9,4.1-2.7,4.7-9c0.7-7.1-1.3-19.9-1-28.9c0.5-13.1,0.8-30.5-7.2-36.5
		c-0.2-0.1-0.3-0.2-0.4-0.4c-0.5-0.7-9.1-16.6-11.3-24.9c-0.9-3.4-8.2-14.2-12.9-23.7s-30.8-52.2-34-57.3c-5.7-9-21.4-18.8-29.9-25
		c-8.5-6.3-16.1-10.5-32-13.4c-5.3-1-24.6,3-28.5,3.1c-1.3,0-2.4,0-3.4,0s-1.9-0.9-1.9-1.9s0.9-1.8,1.9-1.8c0.9,0,2,0,3.3,0
		c4-0.1,22.4-3.1,28.1-2.1c7.8,1.4,15,4.7,21.8,7.6c0.7,0.3,1.3,0.6,2,0.9c6.9,3.1,11.9,7.3,16.2,10.5c8.9,6.6,17.9,13.1,24.2,21.3
		c3.3,4.3,30,49,34.5,58s11.7,18.7,12.7,22.7c1.9,7.2,10.6,21.6,12,23.6c7,7.6,11,32,11.7,44.9c0.4,8.6,0,15.5-0.7,22.5
		c-0.7,7.1-2.7,10.7-4,12.8c-0.3,0.5-0.7,1.1-0.7,1.3c-1,5.7-17.8,7.3-27.8,7.7h-0.2l-8.4-0.4c-0.1,0-12.6-0.4-17.2-0.4
		c-5.6,0-11.9-4.3-12.4-8.5c-0.2-1.5-2-2.3-5.9-2.9c-2.3-0.1-20.9,4.4-33.4,7.7c-0.1,0-0.2,0-0.3,0.1c-2.6,0.2-15.7,1.2-19.3-2
		c-0.8-0.7-1.2-1.6-1.2-2.6c0-5.5,4.9-14.2,15.8-16.4c7.5-1.5,16-3.5,19.8-4.4c-1.3-2.7-5.1,1.9-12.6-0.5
		c-10.4-3.4-30.1-20.7-41.2-51.2c-3.5,12.9-11.4,35.5-12.7,45.4c-1,8.3-1.1,21.6-2.5,25.5c0.9,0.4,2.3,1.4,1.6,1.8
		c-2.1,1.2-3.3,3.4-4.2,3.7c-1.4,0.5-5.5,2.1-5.5,3.1c0,3.5-3.3,9.6-5.5,12.1c-1.7,1.9-5.4,7.6-6.6,9.4l0.3,2.2
		c0.1,0.8-0.3,1.6-1.1,1.9c-0.8,0.3-1.7,0.1-2.2-0.5c0,0-0.4-0.3-0.9-0.3c-0.8,0-1.9,0.6-3,1.6c-4,3.9-10.7,4.2-12.9,4.2
		c-0.4,0-0.7,0-0.7,0c-0.6,0-1.2-0.3-1.5-0.8c-0.2-0.3-0.3-0.6-0.3-1c-1.3,0.2-3,0.4-4.7,0.9c-4.8,1.4-11.1-1.2-11.4-1.3
		c-0.5-0.2-0.9-0.6-1-1.1c-0.2-0.5-0.1-1,0.1-1.5l1.1-2l-0.8-0.4c-0.8-0.4-1.2-1.3-1-2.2c2.2-6.3,10.4-10.1,11.8-10.8
		c2.2-1.6,4.6-3.3,6.9-5.1c3.8-2.8,7-5.3,9.2-6.3c1.9-0.9,4.5-5.4,5.8-8.2c0.1-0.2,0.2-0.3,0.3-0.5c9.3-10.8,7.9-60.4,8.1-63.6
		c0-1.1-2-19.4-1.2-23.8c1.2-7.2,3.1-23.3-0.1-31.5c-3.7-9.3-4.9-24.3-3.1-26.2c-0.2-1.9,1.8,4.7,1.5-1.1c-0.1-1.8,0.6-4.5,0.4-7.5
		c-0.1-1.8-1.4-3.6-1.1-5.5L851.4,194z"/>
	<polygon class="st1" points="908.3,322.3 903.8,306.2 902.4,273.9 886.6,270.5 880.5,279.5 889.3,306.2 902.4,328.2 	"/>
	<path class="st1" d="M865.6,311.8c0,0-1-20-4.5-33.5c-1.8-6.7-0.5-4.5-4.7-16.2s-1.2-10.9-1.2-10.9l-0.1,1.3l-0.1,1.1l1,0.1l1,1
		l1.3,2.4l1.4,0.4l0.2,1.6l2.4,0.9l-0.6,1.2l1.7,0.7l-1.1,0.7l4.8,0.7l4.1,10.1l-0.6,31.3L865.6,311.8z"/>
	<path class="st1" d="M852.6,250.8c6.5,0,9.8,4.5,15.5,6.1c0.1-3-0.1-5.7,0.9-8.2c0.8-2.1,1.8-0.1,2.9,2c1.6,3.2,7.5,6,10.5,7.5
		c5.1,2.4,17,6,17,6s4.4,3.7,3.7,7.3c-0.5,1.4-1,3.1-2,5.1c-1.6,3.3-1,2.4-3.7,0.3c-2.3-1.8-3.2-3.4-6.9-2.6c-0.1,2.1,0,4.3-0.1,6.4
		c-3.3,0.4-6.5-1.4-10-1.1c-0.1,2.4,3.6,7.9,4.8,10.4c1.9,4.2,10.3,25,13.6,27.7c-4.2,0.1-13.3-21.8-15.3-24.9
		c-3.5-5.4-6.8-11.2-9.7-16.8c-3.1-5.9-9.1-9.3-13.4-13.7c-2.6-2.5-6.1-7.8-7-11"/>
	<path class="st3" d="M865.6,259.7c0,0,6.7,6.8,5.8,9.1l2.4-1.3c0,0,3,2.6,2.2,5.3c0,0,2.3-0.2,2.1-1.9l2.9,3.2l0.7-1l1.5,1.4
		l1.3-1.6l1.8,1.7c0,0-0.4-2.1,0.6-2.9l-1.6-8.5L865.6,259.7z"/>
	<path class="st3" d="M900.7,257.1l0.3,1.7c0.1,0.7,0,0.9-1.1,1.6c0,0-1.9,2.1-2.2,2.6c-0.3,0.6-0.8,3.1-0.8,3.1
		c0.1-1.3-1.5-0.6-1.5-0.6c-0.2,2.6-1,3.8-1,3.6c0-0.2-0.8-2.7-0.8-2.7l-0.4,2.2l-1.3-0.6c0.2,1.7-1,3.7-1,3.7l-0.7-2.2
		c-0.2,1.6-1.5,3-1.5,3c0.1-1.3-0.2-2.3-0.2-2.3c-0.9,0.2-1.8,1.3-2.7,1.5c-0.7,0.1-2.1-0.5-2.2-1.3c-0.1-0.5,0.5-1.5,0.2-2
		c-0.2-0.3-0.7-0.5-1-0.7c-0.5-0.4-0.7-0.9-1.1-1.1c-0.5-0.3-1.2-0.3-2-0.1c-0.4,0.1-6.7,2.3-7.3,0.1c0-0.2,0-0.4,0-0.5
		c0.2-0.5,0.8-0.8,0.8-1.2c0-0.3-1.1-0.9-2-1.5c-0.3-0.2-0.5-0.4-0.7-0.7c-0.3-0.4-0.4-0.4-1.7-0.2c0,0-5.1-3.9-5.7-4.6
		c-6-7.3,1.2-3.4,1-4.1c-0.1-0.5-0.2-1.2-0.2-1.2l-0.2-0.9c-1.3,0.2-1.5,0.3-2.3,0.3c-1.4,0-2.7-0.5-2.9-1.6
		c-0.1-0.4,0.2-0.7,0.8-1.1c1.3-0.9,4.1-2,4.1-2s5.4,0.9,18.1-3.1c4.6-1.5,9.3-3.5,13-5.3c6.5-3.1,9.8-5.6,3.7-3.3l-0.5,0.2l1.3,5.7
		l3.5-0.6C904.1,240.3,900.7,257.1,900.7,257.1z"/>
	<path class="st3" d="M941,225.1c4.1,0-3.9,4-3.9,8.1s4.7,5.5,3,24.6c-1.8,19.2,1.8,26.9-2.4,46.8s-9.8,52.7-9.8,59.7
		s2.7,15.1,3.1,18.4c0.4,3.3-3.8,4.1-5,5.9c-1.1,1.8-3.1,12.2-1.1,18.4c1.9,6.3-1.1,12.5-1.1,12.5s-0.4,7-1.5,10.3s-6.5,6.6-8.8,6.6
		s-2.7,2.9-2.7,2.9s-8.4-1.5-10.7,0s-1.1-3.7-3.4-3.7c-2.3,0-9.2,3.3-10.3,1.1s-1.1-15.1,1.9-16.9c3.1-1.8,10.3-15.1,11.1-19.2
		c0.2-1,3.2-6.8,5-16.2c2-10.4,2.8-24.9,4.2-36.8c2.2-19.3-5.4-35.3-4.5-44c2.1-18.9-6.1-46.2-6.8-49"/>
	<path class="st1" d="M899.3,441.5c0.5,0,1.1-0.1,1.8-0.6c0.9-0.6,5.3-0.4,9.3,0.3c0.5,0.1,1,0,1.5-0.3c0.4-0.3,0.7-0.8,0.8-1.2
		c0-0.3,0.3-1.3,0.8-1.3c3.3,0,9.2-4,10.6-7.9c1.1-3.1,1.5-9,1.6-10.5c0.6-1.5,2.9-7.4,1.1-13.5c-1.8-5.8,0.1-15.6,1-17
		c0.2-0.3,0.9-0.7,1.5-1.1c1.2-0.8,5.8-3.5,5.8-3.5s-2-1.6-2.1-2.4c-0.1-1.2-0.5-2.8-1-4.8c-0.9-3.8-2.1-8.9-2.1-13.4
		s3.8-20.8,7.4-36.5c1.8-7.9,0.9-16.1,2.3-22.8c2.6-12.5-0.3-23.1-0.1-30.4c0.3-13.6-0.9-20.5-1.2-25.6c-0.1-1.7-0.9-2.7-1.1-3.6
		c-1.6-10.5,5-12.6,3.8-20.2c-1.2-7.7-6.8,8.5-7.6,20.2c-0.1,1.6,0.6,3.1,1.3,4.9c1.5,3.8,3.6,42,1.1,53.9
		c-1.4,6.6-0.5,14.8-2.3,22.7c-3.9,16.7-7.5,32.4-7.5,37.3s1.2,10.3,2.2,14.2c0.4,1.8,0.8,3.4,0.9,4.4c0.1,0.9-0.4,1.4-2.1,2.5
		c-1,0.6-2,1.3-2.6,2.3c-1.4,2.3-3.4,13.1-1.3,19.9c1.7,5.5-1,11.2-1,11.2c-0.1,0.2-0.2,0.4-0.2,0.7c-0.1,1.9-0.6,7.3-1.4,9.8
		c-0.9,2.6-5.5,5.4-7,5.4c-2,0-3.3,1.2-4,2.7c-2.6-0.4-6.8-0.8-9.3,0c-0.3-1.2-1-3.5-3.5-3.5c-1.1,0-2.4,0.4-4.1,0.9
		c-1.2,0.4-3.7,1.1-4.6,1c-0.8-2.5-1.7-13.1,0.1-14.3c3.6-2.2,11.1-16.1,11.9-20.4c0-0.1,0.3-0.8,0.5-1.3c1-2.5,4.3-7.7,5.7-14.9
		c1.3-7.1,2.2-16,3-24.7c0.4-4.1,0.8-8.4,1.2-12.3c2.1-18.7-5.5-34.4-4.5-43.9c1.9-17.7-5.3-43.9-6.6-48.6c-0.1-0.4-0.2-0.8-0.3-1
		c-0.2-1-1.4-6.5-2.4-6.3c-0.3,0.1-0.3,3.5,0,7.2c0.8,8.6,6.8,36.6,5.5,48.2c-1,9.3,6.6,25.6,4.5,44c-0.4,3.9-0.8,8.2-1.2,12.4
		c-0.8,8.6-1.6,17.4-2.9,24.3c-1.3,6.9-3.3,11.8-4.3,14.2c-0.4,1-0.6,1.6-0.7,2c-0.2,0.8-0.4,2.3-1,3.7c-0.3,0.7-0.9,1.3-1.3,2.1
		c-2.5,5.1-6.3,11.2-7.9,12.2c-4.3,2.6-3.8,16.9-2.6,19.3c1.5,2.8,5.5,1.7,9,0.6c0.9-0.3,1.9-0.6,2.6-0.7c0.1,0.3,0.2,0.6,0.2,0.8
		c0.3,1.1,0.6,2.4,2,2.9C898.6,441.4,898.9,441.5,899.3,441.5z"/>
	<path class="st3" d="M1015.7,348.7c-0.7,2.5,4.3,8.8,5.1,9.3c0,0,12.7,9,10.2,19.2s-18.1,13-23.6,14.6s-13.9,12.6-15.6,14.6
		c-1.7,2-10.5,4.1-10.5,4.1s-0.8-2-2.1-2.4s-9.4,0.8-10.9,0s0.8-4.5,0.8-4.5l-5.9,0.4c0,0,0.4-7.3,5-15.8s18.9-9.7,25.7-11
		c6.7-1.2,5.1-4.9,5.1-7.3c0-2.4-1.5-4.2-1.5-4.2c-3.3-1.5-10-2.6-21.6-9.5c-19.6-11.8-16.2-36.2-15.7-50.2
		c0.4-13.9,24.9-3.4,40.2-1.3"/>
	<path class="st1" d="M981.3,412.2c0.1,0,0.3,0,0.4,0c2.2-0.5,9.6-2.4,11.6-4.7c0.2-0.2,0.4-0.5,0.7-0.8c6.4-7.9,11.1-12.3,14-13.2
		c0.6-0.2,1.4-0.4,2.3-0.6c7-1.9,20.1-5.3,22.6-15.3c2.8-11.2-10.4-20.7-10.9-21.1c-1.1-1-4.6-6-4.4-7.3c0.3-1-0.3-2-1.3-2.2
		c-1-0.3,2.5,11.9,3.5,12.5c0.1,0.1,12.9,8.4,10.7,17.2c-2,7.9-16.3,8.2-22.6,9.8c-0.9,0.2-1.7,0.5-2.4,0.7
		c-4.9,1.5-9.6,11.3-14.5,17.3c-0.3,0.3-0.5,0.6-0.6,0.8c-0.6,0.7-4.2,2.1-8.1,3.1c-0.5-0.8-1.4-1.7-2.5-2c-0.8-0.3-2.1-0.2-5.2,0
		c-1.3,0.1-3.6,0.2-4.8,0.2c0.2-0.6,0.6-1.3,0.9-1.9c0.4-0.6,0.4-1.3,0-1.9c-0.4-0.6-5.3-0.6-5.3-0.6c0.5-2.7-0.1-9.5,2.9-14.9
		c3.6-6.7,16.3-8,23.5-9.1c1-0.2,2.2-0.8,3.1-1c7.4-1.3,6.4-3.7,6.2-6c0-0.4-0.1-0.7-0.1-1.1c0-3-1.7-5.1-1.9-5.3s-0.4-0.4-0.7-0.5
		c-0.9-0.4-2.1-0.8-3.5-1.2c-3.8-1.2-9.6-3.1-18-8.2c-16.7-10-15.7-29.7-15-44c0.1-1.6,0.2-3.1,0.2-4.5c-0.2-6.6,9.7-8.5,20.1-3.3
		c3,1.5,3.3,0.7,1.9-0.2c-8.2-5.1-17.8-6.9-22.5-3.5c-2.1,1.5-3.2,3.8-3.2,6.8c0,1.4-0.1,2.9-0.2,4.5c-0.7,14.4-3.6,41.4,15,52.6
		c8.8,5.3,24,5.6,24,6.9c0,0.4,0,0.9,0.1,1.4c0.2,2.2,0.3,3.4-3.6,4.1c-0.8,0.1-1.7,0.3-2.7,0.4c-7.4,1.2-19.8,3.2-24.3,11.5
		c-4.8,8.8-5.2,16.3-5.3,16.6c0,0.5,0.2,1,0.6,1.4c0.4,0.4,0.9,0.6,1.5,0.5c0,0,2.4,1.4,2.6,2.2c0.2,0.7,0.7,1.4,1.4,1.7
		c1.2,0.6,3.3,0.5,7.5,0.3c1.4-0.1,4.5,0.7,4.7,1.2C979.8,411.8,980.5,412.2,981.3,412.2z"/>
	<path class="st1" d="M968,305.3c-4.3,3.3-2.1,13.7-2.5,18.2c-0.3,3.4-0.5,7.1,2,9.7c1.3-1.2,0-4.2-0.2-5.7
		c-0.5-2.9-0.3-6.2-0.1-9.1c0.1-2.1,0-4.3,0.2-6.5c0-0.5,0.1-1,0.2-1.5c0.2-1.4,0.5-2.5,1.4-3.6c0.7-0.9,1.5-0.7,1.3-2.1
		c-0.3,0.2-0.9,0.4-1.1,0.7"/>
	<path class="st1" d="M900.4,433.8c4.8,0.3,3.3-7,7.1-8.1c-2.9,0.7-3.1,8.4-3.9,10.8"/>
	<path class="st1" d="M889.4,433.8c4.8,0.3,3.2-7,7.1-8.1c-2.9,0.7-3.1,8.4-3.9,10.8"/>
	<path class="st1" d="M967.4,402.5c2.6-0.7,3.8-0.2,5.7-1.9c1.1-0.9,1.2-2.6,2.5-3.5c0.1-0.2,0.1-0.2,0,0c-0.9,1.6-1.6,3.9-2.5,5.3
		c-1.4,1.9-3.4,2.6-4,5.1"/>
	<path class="st1" d="M975.9,406.4c6.1,0.3,5.9-8.8,10.8-8.2c-3.6,3.8-4.7,4.7-4.7,10.5"/>
	<path class="st1" d="M810.6,395.6c0.8-3.7,1.6-6.5,3.9-9.4c-1.8,0.8-3.4,3.1-3.6,5.4c-2.8,0.1-3.2,2.4-5.5,3.4"/>
	<path class="st1" d="M816.9,396.3c0.8-3.7,1.6-6.5,3.9-9.4c-1.8,0.8-3.4,3.1-3.6,5.4c-2.8,0.1-3.2,2.4-5.5,3.4"/>
	<path class="st1" d="M819.4,394.3c1.2,0.2,2.7,0,3.9-0.1c0.4-2.2,3.1-4.3,4.5-5.7c-0.5,3-3.2,5.2-4,8.1"/>
	<path class="st1" d="M1026.9,369.4c1.5-0.1,0.1,2.6,0,3.8c-0.2,2.1-1.6,3.6-3,5.1c-0.7,0.8-1.1,1.3-2.2,1.7c-1,0.4-2,0.5-2.9,0.9
		c-1.2,0.5-1,3.1-3.5,1.5s5.5-3.1,6.2-3.7c0.8-0.8,1.4-1.2,2.3-1.9c1.4-1.1,1.1-2.8,1.8-4.3C1026.1,371.4,1025.4,369.5,1026.9,369.4
		z"/>
	<path class="st3" d="M936.3,295.3c0,0,2.2,7.4,4.5,8l-3.7,0.6c0,0,1.7,5,4.3,5.8c0,0-2.9,0.3-4-0.8l0.9,3.9h-1.1l1.4,1.9h-3.1
		l1.1,3.1c0,0-2.2-2.2-3.4-1.9"/>
	<path class="st1" d="M871.8,292.3c0,0,1.3,7.1,3.5,7.7l-3.5,0.7c0,0,0.7,5.5,2.6,6.2c0,0-2.1,0.5-2.4-0.2l0.8,4.7h-1.1l0.2,2.1
		l-1.8,0.2l1.1,3.7c0,0-2.1-2.7-3.2-2.3"/>
	<path class="st1" d="M978.2,301c0,0,2.4,1.5,2.8,3c0,0,0.7-0.7,0.7-1.5c0,0,3,1.6,3.4,4.3c0,0,1.4-0.6,0.9-1.9l-5.8-3.6L978.2,301z
		"/>
	<path class="st1" d="M856.7,255c0,0-1.4,0-1.5,0.4l0.8-1.5l-1,0.6c0,0-0.3-1.3,0.2-1.8c0,0-0.6,0.1-1.2,0.1c0,0,1-0.7,1-1.4
		c0,0-2,0.5-2.7-0.6c0,0,2.7,0.8,3.3,0.1c0,0,0.1,1.2-0.3,1.4c0,0,1-0.5,0.9,0c-0.2,0.5-0.7,1.2-0.7,1.2l1.7-0.4l-0.8,1.2l1.1,0.1
		c0,0-0.5,0.5,0.4,1.6"/>
	<path class="st1" d="M928.7,163.6c4.3,3.7,7.1,10.1,5.9,12.2c-0.8,1.4-2.2-3.7-5.4-9.2c-1.7-2.9-4.9-5.9-6.5-8.2
		c-0.4-0.6,2,0.2,3.3,1.5C927.3,161.3,927.7,162.8,928.7,163.6z"/>
	<path class="st1" d="M942.3,243.4c-0.2,8.6,5.6,15.2,6.3,23.5c0.4,4.1,0.3,8.6-0.4,12.7c-0.6,3.6-3.3,4.7-2.5,10.7
		s3.6-9.8,4.3-13.7c0.8-4.1,0.8-9.5,0-13.7c-0.9-4.9-2.6-9-4.6-13.4c-1.8-4.1-0.2-6.9-1.4-12.8C942.9,230.8,942.3,243.4,942.3,243.4
		z"/>
	<path class="st3" d="M932.1,160.4c0.7,0.2,4.4,1.3,4.9,1.2c-0.7,0.8-0.7,1.1-0.7,1.4c1.2,0.2,6,0.3,7.1,1.3c-2-0.4-2.3,0.9-2.3,0.9
		l1.3,0.2l-1.4,1.9l2.2,0.5l-1,1.3"/>
	<path class="st1" d="M925.6,160.2c0.6,0.2,3.8,1.4,4.2,1.2c-0.6,0.8-0.6,1.1-0.6,1.4c1,0.2,3,0.5,4.4,0.9c-1.7,0.6-0.3,1.4-0.3,1.4
		l1.1,0.2l-1.2,1.9c0,0,1.1-0.6,1.9,0.5c-1.5-0.2-1.4,3.8-1.4,3.8"/>
	<path class="st3" d="M934.8,161.3c2.6,1.3,4.9,2.5,6.8,4.6c1.6,1.8,2.9,4.6,3.3,7.2c0.4,2.5-0.6,6.6,1.5,8.1
		c-1-1.8-1.8-3.3-2.1-5.5c-0.4-2.5-1.5-4.9-2.8-6.9c-2.6-3.9-8.6-4.4-10.5-9C931,159.8,932.5,160.1,934.8,161.3z"/>
	<path class="st1" d="M915.8,156.7c0.7-0.8,0.9,2.3,1.2,3.5c0.6,2,1.1,4.8,0.8,6.8c-0.3,1.5-0.8,2.9-0.8,4.5c0,1.1,0.2,2-0.1,3
		c-0.2,0.9-1,1.7-1,2.7c0,0.9,1.1,0.4,0.3,2.5s-0.8-1.8-0.9-2.7c-0.1-1.1,0.4-2,0.5-3c0-0.4-0.2-0.8-0.3-1.2c-0.1-0.7-0.1-1,0-1.8
		c0.2-1.3,0.1-2.5,0.2-3.8c0.1-1.4,0.4-2.9,0.6-4.3c0.1-1.3-0.2-2.2-0.5-3.4C915.6,157.6,915.1,157.5,915.8,156.7z"/>
	<path class="st3" d="M1018.3,309.1c0,0-0.8-8.3-1.4-7.7c-0.4-1.4-0.6-1.2-0.6-1.2c-1.5-1.2-7.5-13.9-7.5-13.9s-2.9-11.5-4.5-10.8
		c6.4,5.4,8.7,5.5,8.7,5.5l-0.8,0.7l3.7,2.7l-1.6-0.2c-1.1-0.2-2.1-0.2-2.7-0.2c0.7,0.6,2.7,1.9,4.4,2.9l2.3,1.3l-3.9-0.9l3.9,3
		l-1.5,0.1l2.6,1.8l-1.4,1c0,0,0.8,0.7,1.7,1.5c0.5,0.5,1,1.2,1.6,1.3c-1,0.4-1.1,0.7-1.2,0.9c0.9,0.7,1.2,4,1.2,4
		S1018.1,298.7,1018.3,309.1z"/>
	<path class="st1" d="M1000.5,281.8c3.5,0.6,6.6,4.9,8.3,7.8c0.8,1.3,0.9,2.9,1.7,4.1c0.7,1.1,2.4,1.9,2.8,3.1
		c-2.2-1.7-4.8-4.1-6.1-6.6c-0.8-1.6-1.7-3.5-2.7-5c-0.8-1.1-3.9-2.6-3.9-3.3"/>
	<path class="st1" d="M1004.8,284.3c0.4,0.3,2.4,1.8,2.8,1.9c-0.6,0.4-0.6,0.6-0.7,0.8c0.7,0.4,3.6,1.5,4.1,2.5
		c-1.2-0.7-1.6,0.1-1.6,0.1l0.8,0.4l-1.3,0.9l1.3,0.8l-0.9,0.7"/>
	<path class="st1" d="M966.5,322c-0.2,0.4-1.1,2.9-1.4,3.1c0.7,0,0.9,0.2,1,0.3c-0.4,0.7-2.3,3.2-2.2,4.2c0.6-1.2,1.4-0.8,1.4-0.8
		l-0.4,0.8l1.6,0.1c0,0-1.2,0.4-0.6,1.4c0.8-1,2,1.5,2,1.5"/>
	<path class="st1" d="M840.8,229.4c-0.1,0.8-0.5,5-0.9,5.5c1.1-0.3,1.4-0.2,1.7-0.1c-0.3,1.3-2.2,6.2-1.6,7.7
		c0.5-2.2,1.9-1.9,1.9-1.9l-0.3,1.4l2.5-0.6l-0.4,2.5l1.8-0.5"/>
	<path class="st1" d="M840.8,231.7c0.2,3.2,0.5,6,1.9,8.8c1.1,2.4,3.5,4.9,5.9,6.4c2.3,1.4-1.5-3.2-2.9-5.3
		c-2.9-4.3-0.9-10.5-4.8-14.4C840.9,227.2,840.6,228.8,840.8,231.7z"/>
	<path class="st3" d="M842.8,227.7c-0.1,0.7-0.5,4.6-0.8,5c1-0.3,1.3-0.2,1.5-0.1c-0.3,1.1-2,5.7-1.5,7c0.4-2,1.7-1.8,1.7-1.8
		l-0.3,1.3l2.3-0.6l-0.4,2.3l1.6-0.4"/>
	<path class="st3" d="M842.8,229.8c0.2,2.9,0.5,5.5,1.7,8c1,2.2,3.2,4.4,5.4,5.8c2.1,1.3,8.2,1.2,8.7,3.7c-1.3-1.6-4.2-2.1-6.1-3.3
		c-2.1-1.4-4-3.2-5.3-5.2c-2.7-3.9-0.8-9.6-4.3-13.1C842.9,225.6,842.7,227.2,842.8,229.8z"/>
	<path class="st1" d="M928.8,282.1c1.3-4.3,1.3,2.6,1.6,4.1c0.5,1.9,0.9,4,1.2,6c0.5,3.3,0.6,8.1-0.4,11.3c-0.8,2.5-1.9,4.6-2.3,7.2
		c-0.3,1.8-0.1,3.4-0.8,5c-0.6,1.4-1.6,8.6-1.8,10.2c-0.2,1.4-1.3-5-1.2-6.6c0.1-1.8,1.2-3.2,1.5-4.9c0.1-0.7-0.1-1.4-0.1-2.1
		c0-1.2,0.1-1.7,0.5-3c0.6-2.1,0.8-4.2,1.3-6.2c0.5-2.3,1.4-4.6,2-6.9c0.5-2.1,0.2-3.6,0-5.8C929.9,287.6,927.5,286.4,928.8,282.1z"
		/>
	<path class="st1" d="M859.3,295.5c1.3-3.9,1.3,2.4,1.6,3.7c0.5,1.8,0.9,3.7,1.2,5.5c0.5,3,0.6,7.4-0.4,10.4
		c-0.8,2.3-1.9,4.2-2.3,6.6c-0.3,1.6-0.1,3.1-0.8,4.5c-0.6,1.3-1.6,7.9-1.8,9.4c-0.2,1.2-1.3-4.5-1.2-6c0.1-1.6,1.2-2.9,1.5-4.4
		c0.1-0.6-0.1-1.3-0.1-1.9c0-1.1,0.1-1.6,0.5-2.7c0.6-1.9,0.8-3.8,1.3-5.7c0.5-2.1,1.4-4.2,2-6.3c0.5-1.9,0.2-3.3,0-5.3
		C860.3,300.5,857.9,299.4,859.3,295.5z"/>
	<path class="st1" d="M923.1,370.7c0,0,0.2,0.5,0.4,1.3c0.8,2.7,2.4,8.7,1.8,9.8c-0.7,1.5-1.5-0.4-3.3,3c-1.8,3.3-2.6,10.7-2.6,17.4
		s-1.8,4.8-1.8,4.8s-0.4-10.7-0.4-14.4s4.1-7.4,4.8-11.5C922.8,377,920.5,369.9,923.1,370.7z"/>
	<path class="st3" d="M904,318.8c-1.3-6.2-2.4-11.4-2-15.4c1.3-11.7-4.7-39.6-5.5-48.2l-7.7-2c0,0,8.9,19.7,8.9,24.9
		c0,5.2,1.3,9,2.1,13.4c0.7,4.5,1.5,19.4,1.8,20.4C901.7,312.5,904.6,321.6,904,318.8z"/>
	<path class="st3" d="M958.1,308.2c0.7-1.4,0.2-3.1,0.2-4.5c0.1-3,1.2-6.7,3.2-8.2c0,0-6.4,0-6.8,7.4c-0.4,7.4,0.9,19.6,0.9,23.5
		c0,1.9,5.2,15.2,3,4.6C956.9,322.5,955.8,313.1,958.1,308.2z"/>
	<path class="st1" d="M963.6,298c-0.4,0.2-2.7,1.4-3.1,1.3c0.5,0.5,0.5,0.7,0.5,0.9c-0.7,0.3-3.9,0.9-4.5,1.7
		c1.3-0.5,1.6,0.4,1.6,0.4l-0.8,0.3l1.1,1.1l-1.4,0.6l1.6,0.9"/>
	<path class="st1" d="M845.6,222.3c0,0-2.7,1.5-3.9,2.5c-0.6,0.5-0.8,0.8-0.7,1.2c0.3,1,1.6,1.4,3,1.2c0.8-0.1,1-0.1,2.2-0.5
		l5.6-1.6l0.3,0.9c0,0-2.3,0.3-5,2.8c5.8-0.8,4.4,1.9,4.4,1.9l-4.2,1.2l3.2,0.4c0.2,0.6-3.4,0.6-3.8,2.3c3.3-1.2,3.5,1.8,3.5,1.8
		c1.2-0.4,3.6,0.1,3.9,0.5c0.2,0.2,0.5,0.5,0.8,0.6c0.9,0.5,2.1,1,2.1,1.3s-0.3,0-0.7,1.8c2.8-1.9,6.9-0.8,7.3-0.9
		c0.7-0.2,1.4-0.4,2-0.1c0.4,0.2,0.7,0.7,1.3,1c0.4,0.2,0.9,0.3,1.1,0.6c0.4,0.5-0.1,1.5,0,2c0.2,0.9,1.6,1.3,2.3,1.1
		c0.9-0.3,1.7-1.5,2.5-1.8c1.1-0.4,1.8,0.8,3.3,1.3c1.3,0.5,0.9,5.7,1.5,6.1c0.6,0.5,3.8,13.2,5.5,10.4c1.7-2.7-2.7-8.1-1.9-8.6
		c1.9-1.3,0.4-4.1-0.8-6.7c0,0,0.9-9.3,0-9.3c-1.1,0,0.2,1.2-0.3,1.6c-0.2,0.2-0.9,0.3-0.9,0.3s0.3,1.1,0.3,1.7
		c0,0.7-0.8,1.5-1.5,1.1c-0.1,0-0.5-1.7-0.4-2.4c0.1-0.9,0.9-1.6,0.7-2c-0.4-0.5-2.7-1.5-2.7-1.5s6.9-3.6,7.9-6.4
		c-4.8,3-7,2.5-7.4,2.5c-0.3,0-0.6-0.1-1-0.3c-1.2-0.5-3.4-1.8-3.4-1.8s9-0.9,13.6-3c-5.4-1.7-0.7-3.4-0.7-3.4s-1.5-2.7,2.3-3.2
		c-1.5-2.3-5.1-0.3-7.4,0.4c-1.2,0.4-2.2,0.5-3.9,0.4c-1.8-0.1-4.4-0.5-4.4-0.5s6-2.1,6.9-2c0.2,0,0.4,0.1,0.6,0.1
		c0.7,0.1,2.4-0.8,3.9-1.6c0.4-0.2,4.4-1.8,4.6-2.9c-3.9,2-6.7-0.4-6.7-0.4l-1.9-5.5l0.5-0.2c5.8-2.9,2.7-0.1-3.4,3.7
		c-3.5,2.2-8,4.7-12.4,6.6C851.1,222.7,845.6,222.3,845.6,222.3z"/>
	<path class="st1" d="M1035.9,360.6c0,0-8.8-2.5-9.6-15.7c-0.8-14.1-4.1,10.5-4.1,10.5l1.4,6L1035.9,360.6z"/>
	<path class="st1" d="M911.8,182.2c-1.4-2.5-0.1-5.2,0.6-8.2c0.5-2.1,0.9-4.7,0.4-6.6c-1.3-5.2-2.3-5.1-2.1-10
		c0.1-1.6,0.8-6.4,0-8.1c-0.2-0.4-0.8-0.9-0.9-0.8c-0.1,0.1-0.5,1-0.6,1.4c-0.2,0.8-0.2,1.7-0.3,2.6c-0.1,1.2-0.8,4.3-1.3,5.7
		c-0.8,2.3-1.5,4.7-0.8,7.1c0.3,1.1,2.4,4.6,2.5,5.2c0.1,0.7,0.1,1.5,0,2.4c-0.2,1.3-0.8,5.6-0.4,7.4c0,0-1,4.5-2.9,6.3
		c-2,1.8-0.1,2.9,3.1,1.5c3.2-1.4,2.8-5.1,2.8-5.1"/>
	<path class="st3" d="M746.6,230.3c22.1,10.2,72.7-28,100-88C864.5,103,866.3,39.6,837,25.5c-20.5-9.8-65.1,35.2-86.9,88.9
		C734.2,153.6,724.9,220.2,746.6,230.3z"/>
	<path class="st1" d="M806.7,219.7c24.2-6.1,64.9-5,85-33.2s6.3-58.2,4.2-59.5c-22.8-14.2-60.6,11.4-80.8,39.6
		c-10.1,14.2-25.6,42.8-22.9,57.5C792.3,224.1,797.9,221.9,806.7,219.7z"/>
	<g>
		<g>
			<defs>
				<polygon id="SVGID_1_" points="860.4,80.8 853,33.6 761.3,81.8 731.2,169.3 832.8,210.1 884.4,187.4 905,149.7 884.6,118.4 				
					"/>
			</defs>
			<clipPath id="SVGID_2_">
				<use xlink:href="#SVGID_1_"  style="overflow:visible;"/>
			</clipPath>
			<path class="st7" d="M911.1,142.5c2.9,0.8,2.6-0.8,6.8,1.8c0.7,0.4,14.1,10.9,14.4,8.6c0,0.2,0.9-3.5,0.9-3.5
				c0.7-0.3-1.4-0.4-1.8-0.8c-0.1-0.1-4.6-2.6-5-2.8c-2.2-1.2-5.7-2-6.3-2.6c-1-0.8-3.9-1.4-4.6-1.9c-1.4-1-6.3-1.8-8.4-2.3
				c-1.1-0.2-5.1-1.1-5.3-1.4c-0.3-0.4-0.3-0.9-0.6-1.4c-0.7-1.2-1.9-2.1-3.3-1.9c-0.4,0.1-0.9,0.2-1.2,0.3
				c-1.3,0.2-5.3,1.6-6.7,0.6c-0.8-0.6-3-2.1-3.5-2.9c-0.3-0.6-0.4-1.4-0.8-2c-1-1.6-2.4-1.2-3.7-1.1c-0.5,0-11.3-5.3-11.6-5.7
				c-0.5-0.8-0.8-2.4-1.5-4c-0.8-1.7-3.2-5.4-4.8-6.6c-0.7-0.5-1.6-1-2.2-1.4c-0.3-0.2-0.6-0.5-0.8-0.7c-0.6-0.7-2.8-6.1-4.3-9.4
				c-1.4-3.1-4.7-8.6-6.6-10.3c-2.5-2.2-7.6-5.7-7.9-6.2c-0.6-1-1.4-3.9-1.1-4.4c0.2-0.4,2.5-2.1,3.4-3.3c0.2-0.3,0.4-0.6,0.4-1
				c0-0.7-0.4-1.7-0.2-2c0.3-0.5,6.6,2,6.9,2.1c1.3,0.8,3.8,3.1,5.8,4.6c3.3,2.5,6.1,3.4,9.9,3.1c1.5-0.1,5.5-0.8,6.3-2.3
				s-1.7-2.7-3.2-3.6c-4.4-2.6-11.6-13.1-13.8-15c-1.3-1.1-3.3-2.3-5.2-3.5c-4.8-2.9-10.9-6.5-15.7-6.3c-3.1,0.2-11.3,4-14,6.3
				c-1.1,1-2.5,2.3-3.2,2.7c-1.2,0.6-3.4,1-4.3,1.5c-0.8,0.5-1.9,1.8-2.6,3.2c-0.4,0.8-0.6,1.6-1,2c-0.3,0.3-1.2,0.6-2.1,0.9
				c-1.1,0.4-5,2.8-7.1,4.4c-2.6,1.9-5.1,3.8-7.1,5.7c-3,2.9-7.6,8.5-10.6,11.4c-2.3,2.2-11.5,8.9-14.9,12c-1.4,1.2-3.6,3.7-4.2,4.8
				c-2.2,3.4-6.8,14.7-7.1,17.4c-0.4,2.7-1.1,6.3-1.4,6.6c-0.4,0.5-1,0.7-1.6,1.3c-1.5,1.5-2.9,4.6-3.2,5.9
				c-1,3.5-0.8,14.8-0.3,18.3c0.8,5.9,2.5,8.3,7.9,10.6c3.5,1.4,10.3,3.1,11.4,3.6c1.5,0.7,5.9,3.6,8.8,5.5c0.6,0.4,0.7,0.4,1.2,0.7
				c0.4,0.2,0.7,0.2,1.2,0.3c2.2,0.4,6.5,0.7,8.1-0.6c1-0.8,1.8-3.6,1.4-4.9c-0.4-1.2-1.6-3.2-1.5-3.5c0.1-0.4,0.6-0.6,0.8-1
				c0.4-0.7,0.1-1.7-0.2-2.6c-0.7-1.6-2.1-4.2-2.1-4.2s1.8,1.6,3.1,2.7c3.8,3,7.2,3,12.8,5.7c2.9,1.4,6.1,3.5,8,4.2
				c1.4,0.5,3.1,1.1,3.5,1.5c0.4,0.3,2.5,5,2.6,5.8c0.2,1.3,0.3,1.9,1.8,3.5c2.1,2.2,2.7,2.3,3.1,4.9c0.1,0.9,0.2,1.8,0.6,2.7
				c0.3,0.9,0.9,1.6,1.1,2.4c0.2,0.7,0.2,1.6,0.4,2.3c0.3,1,1.8,2.8,2.7,3.5c1.5,1.1,4.2,2.5,4.3,2.8c0,0.2-0.1,0.4-0.1,0.7
				c0,0.4,1.4,2.9,2,4.6c0.2,0.8,1.5,1.8,1.5,2.9c0.1,2.5,1.7,7,3.1,9.2c0.7,1.1,6.7,1.5,6.5,1.4c-0.2-0.2-0.5-0.2-0.8-0.5
				c-0.4-0.4-0.4-1.3-0.8-2c-0.2-0.4-0.5-0.6-0.8-0.8c-0.4-0.1-0.5-0.1-0.4-0.6c0.1-0.4,0.3-0.6,0.3-0.9s3.5-7.8,7.5-8.8
				c1.8-0.5,4.2-1.1,4.5-1c0.5,0.1,1.2,0.8,2,1.3s1.6,0.6,2.7,0.5c0.7,0,1.9-0.4,3.2-1c0.2-0.1,2.5-2.3,5.5-5.1l0.3-0.2l10.1-4.1
				l1.7-1.5c3-2.5,6-4.6,9-7.3l3.9-7.6c4.9-5.7,6.9-10.4,10.9-19c0.4-0.9,2.6-10.2,2.6-10.9c-0.2-1.8-2.9-11.8-2.9-11.8
				S908.8,141.8,911.1,142.5z"/>
		</g>
		<g>
			<defs>
				<polygon id="SVGID_3_" points="860.4,80.8 853,33.6 761.3,81.8 731.2,169.3 832.8,210.1 884.4,187.4 905,149.7 884.6,118.4 				
					"/>
			</defs>
			<clipPath id="SVGID_4_">
				<use xlink:href="#SVGID_3_"  style="overflow:visible;"/>
			</clipPath>
			<path class="st8" d="M791.9,90.1c0.2,0.5-1.4,2.2-1.6,2.3c-0.5,0.7-1.2,1.5-1.5,1.6c-0.1,0-0.2,0-0.3,0.1
				c-0.5,0.2-2.9,2.5-2.9,2.5s1.3-0.4,2.2-0.7c0.8-0.3,1.3-0.6,1.8-1c1-0.8,2.3-2.5,3.5-1.8c0.3,0.2,0.4,0.4,0.3,0.7
				c-0.1,0.4-0.7,1.3-0.7,1.3s0.8,0.1,1.1,0.2c0.3,0.1,0.4,0.2,0.5,0.6c0.1,0.2,0,0.3-0.6,0.7l-5.9,4.4c0,0,1.4,0.1,2.1,0.1
				c0.2,0,0.4,0,0.5-0.1c0.2-0.1,0.3-0.1,0.8-0.6l2.2-2.2l0.6,0.6c0.3,0.3,0.3,0.4-0.1,1c-0.3,0.6-0.6,1-1.1,1.5
				c-0.7,0.7-1.8,1.5-1.8,1.5s1.3-0.1,1.6,0.1c0.2,0.1,0,0.6,0.1,1.1c0.1,0.4,0.7,1,0.8,1c0.4,0,0.6-0.6,0.5-0.9s-0.5-0.7-0.5-0.7
				s0.3-0.2,0.4-0.3c0.1-0.3-0.8-0.6-0.2-0.8c0.4-0.2,2.2,1.1,2.2,1.1c1.2,0.9,2.6,1.9,1.9,2.9c-0.3,0.5-0.5,0.7-0.9,0.6
				s-0.8-0.5-1.2-0.6c-0.3-0.1-1.4,0.6-2.2,0.7s-1.4-0.3-1.9,0.1c-0.3,0.3-0.5,1.1-0.8,1.4s-1.1,0.3-1.4,0c-0.2-0.2-0.2-0.8-0.5-0.9
				c-0.2-0.1-0.4,0-0.7,0s-0.6-0.2-0.8-0.2c-0.3,0-0.6,0.2-0.9,0.5c-0.2,0.2-2.4,2.8-3.3,2c-0.1-0.1-0.1-0.1-0.1-0.2
				c0-0.3,0.1-0.6,0.1-0.7c-0.1-0.2-0.8-0.1-1.3-0.1c-0.2,0-0.4-0.1-0.5-0.1c-0.2-0.1-0.3-0.1-0.8,0.4l-2.2,1.9
				c-0.5,0.4-0.6,0.5-1,0.5c-0.9-0.1-0.9-0.2-0.6-0.9c0.1-0.4,0.3-0.9,0.6-1.3c0.3-0.5,0.4-0.6,0.1-0.9L777,108l1.7-1.5
				c0,0-1.5,0.3-2,0.4c-0.3,0-0.3,0-0.6-0.3c-0.2-0.2-0.4-0.5-0.4-0.5l2.3-2l-0.3-0.4l-2.3,2c-0.5,0.4-0.6,0.5-1,0.7
				c-0.6,0.4-1.4,0.5-1.7,0.1c-0.1-0.2-0.1-0.4,0-0.7c0.3-0.7,1.3-2,1.3-2s-1.3,0.5-2.2,0.9c-4.6,2.2-7.4,9.9-8.8,14.2
				c-0.2,0.6-2.3,7.1-2.1,8.7c0.1,1,0.7,2.5,0.7,3.2c0,0.8-0.3,1.7-0.2,1.9c0.1,0.2,0.5,0.2,0.8,0.7s0.6,1.6,0.6,1.6
				s0.3-2.5,0.8-3.6c0.3-0.7,0.6-1.1,0.6-1.7c0.1-1-0.2-1.2,0.1-1.9c0.2-0.4,0.5-0.7,0.6-1.1c0.2-0.6,0.1-1.3,0.2-1.9
				c0.1-0.7,0.6-1.5,1.3-1.7c0.5-0.1,1.2,0,1.2,0s-0.2,1.2-0.6,1.9c-0.3,0.7-0.8,0.8-1,1.2c-0.1,0.4,0.2,1.1,0.2,1.8
				c0,0.5-0.7,1.5-1,2.4c-0.4,1.1-0.5,4.5,0,6c0.2,0.6,0.6,1.4,0.6,1.4s0.2-1.6,0.6-2.9c0.5-1.8,2.3-4.9,2.4-5.5
				c0.1-1.3,0-2.5,1.3-3c0.3-0.1,1,0,1.1,0.2s-0.7,2.1-1,2.6c-0.2,0.2-0.4,0.4-0.4,0.6c0,0.1,0.1,0.3,0.1,0.5c0,0.3-0.3,1.1-0.6,1.3
				c-0.2,0.1-0.4,0.1-0.5,0.2c-0.1,0.2,0.2,0.9,0.3,1.6c0.1,0.5-0.3,1.4-0.5,2.1c-0.2,0.6-0.3,1.5-0.1,2.3c0.1,0.7,0.3,1.7,0.3,1.7
				s0.1-0.2,0.2-0.3c0.3-0.5,0.5-2.1,0.8-2.9c0.3-0.6,1.2-1.4,1.3-1.4c0.2,0,0.6,0.4,0.7,0.8c0.1,0.3,0.1,0.5,0,1.1
				c-0.2,0.8-0.5,2.1-0.5,2.1s0.9-0.4,1.5-0.4c0.7-0.1,0.9,0.3,0.9,0.9c0,0.7-0.2,1.4-0.1,2.1c0.2,2,2,3.7,1.7,4.9
				c-0.1,0.2-0.3,0.4-0.5,0.4c-0.4,0-1.2-0.4-1.2-0.4s-0.5,1.7-0.4,2.3c0,0.2,0.2,0.3,0.5,0.4c0.6,0.1,1.5,0.4,1.8,0.2
				c0.5-0.2,1.6-1.2,1.6-1.2l2.9,3.5c0.4,0.5,0.5,0.6,1,1.1c1.1,1.1,1.4,1.1,2.5,1.5c0.3,0.1,0.9,0.2,1.1,0.1
				c0.2-0.1,0.3-0.3,0.3-0.3s-1.2-0.3-1.8-0.5c-1-0.3-2.1-1.4-2.1-2.5c0-0.8,0.1-1.1-0.3-1.2c-0.1,0-0.2,0-0.4,0
				c-0.3,0-1.3-0.6-1.6-1c-0.4-0.4-0.9-1.8-1.2-3c-0.2-0.9,0.6-12.7,0.9-13c0.5-0.5,1-0.9,1-0.9s0.5,0.4,0.7,0.8
				c0.2,0.3,0,1.5,0,2.3c0,0.2,0.3,1.4,0.6,1.4c0.1,0,0.1-0.1,0.2-0.3c1-2.8,0.2-3.7,1.2-5.3c0.7-1.2,3.1-3.4,4.4-3.8
				c0.7-0.2,1.5,0,2.2-0.2c0.6-0.1,1.9-1.1,2.8-1.8c1.4-0.9,2.2-1,3.8-1.4c1.3-0.3,3.2-0.6,3.5-0.4s0.5,0.6,0.6,1.3
				c0.2,0.8,0.1,1.7,0.3,2.4c0.2,0.7,1.9,3.4,2.2,3.7c0.4,0.4,0.9,0.5,1.3,0.9c0.4,0.4,1.3,2.2,2,3.5c0.4,0.8,1.1,1.6,1.6,1.9
				c0.6,0.4,1.5,0.8,1.8,1.2c0.3,0.4,0.9,2.4,0.9,2.7c0,0.5-0.7,1.2-0.9,1.9c-0.2,1,0.7,2.8,1.7,3.4c0.9,0.5,2,0.8,1.9,1.3
				c0,0.2-1.2,1.3-1.6,1.4c-0.6,0.2-1.8-0.3-2.4-0.9c-1.2-1.1-1-1.8-2.2-1.6c-1.8,0.3-2.3,0.9-3.5,1.8c-0.7,0.6-4.7,2.1-5.6,2.8
				c-0.7,0.6-1.3,1.3-2,1.7c-0.4,0.2-0.8,0.4-1.2,0.5c-0.1,0-0.2,0.1-0.4,0.1s-0.3,0-1-0.1c-1.4-0.2-3.7-0.5-4.1-0.4
				c-0.9,0.3-1.9,0.9-1.9,0.9s1,0.1,1.7,0.3c0.5,0.1,0.9,0.2,1.2,0.4c0.5,0.3,0.7,0.3,1.3,0.3l12.2,0.8c0.7,0,0.8,0,1.4,0
				c0.4-0.1,0.8-0.2,1.2-0.4c0.9-0.4,1.8-0.8,2.1-1.1c0.4-0.5,0.5-1.7,0.9-2.2c0.6-0.7,1.7-1.6,1.7-1.6s0.4,0.4,0.7,0.7
				c0.2,0.3,0.3,0.7,0.2,1c-0.1,0.8-0.5,2-0.6,3.1c-0.2,2.9,1.3,7.8,3.1,9.7c0.5,0.5,0.9,0.9,1.6,1.2c0.8,0.4,1.8,0.6,2.7,1
				c2,1,5.7,4.8,7.2,6.3c0.5,0.5,0.5,0.5,0.6,0.7c0.1,0.7-0.9,1.6-1.2,1.8c-0.4,0.2-1.8,0.7-2.2,0.7c-0.7,0-2.3-0.5-2,0.3
				c0.1,0.2,0.3,0.4,0.4,0.6c2.1,2,6.9,5,10,4.9c1.2,0,2.4-0.5,3.7-0.6c4.4-0.6,5.6,0.4,8.2-1.7c1.2-0.9,4-4.2,4.7-5.8
				c0.7-1.8,1.1-6.5,0.2-8.1c-0.8-1.4-4.4-3.2-5.8-3.6c-1.4-0.3-3.1-0.4-3.9-0.7c-1.3-0.5-4.1-2.6-4.7-3.3c-1-1-1.7-2.2-2.7-3.3
				c-1.9-2.1-3.9-3.1-4.4-5.4c-0.3-1.3-0.6-3.5-0.9-3.8c-0.1-0.1-0.2-0.2-0.3-0.2c-0.8-0.3-2.1-0.4-3-0.8c-0.4-0.2-1.7-1.6-2.1-2.3
				c-2.7-4.1-1.1-4.1,1.6-0.9c0.6,0.7,1.3,1.5,1.6,1.7s2.3,0,2.6,0.2c0.5,0.3,2.6,2.9,2.6,2.9s-0.3-1.9-0.1-2.4
				c0.1-0.3,0.3-0.4,0.4-0.5c0.2-0.2,0.3-0.4,0.5-0.4s0.8,1.1,1.5,1.6c0.7,0.6,5.5,1,6.8,1.1c0.3,0,0.5,0,0.9-0.3
				c0.5-0.3,1.3-1.1,1.3-1.1l-0.8-0.9c-0.4-0.4-0.4-0.5-0.6-0.8c-0.6-0.9-0.4-1.5,0.3-2.1c0.3-0.2,0.4-0.2,1,0.2l2.7,1.5
				c0,0-1.1-2-1.1-2.5c0-0.3,0.3-1.2,0.5-1.3c0.2-0.1,0.5-0.1,0.8,0c0.8,0.3,1.7,0.8,2.4,0.9c0.5,0.1,2.4-0.6,3.6-0.8
				c2.2-0.3,4.7,1,5.9,2.7c1.8,2.6,1,4.1,0.6,6.8c-0.1,0.3-0.1,4.8,0.5,6c0.7,1.6,3.2,2.1,4.8,1.9c0.9-0.1,4-1.3,6.1-2
				c5.7-1.8,8.3-1.1,10.6-6.5c1.8-4.3,2.1-8.9-0.5-12.6c-1.1-1.5-5.2-5.7-5.2-5.7s-1.3,0.9-2.1,1.3c-1.9,0.9-3.6-0.3-5.5-1.7
				c-2.7-2-7.7-6.5-11.9-5.9c-0.5,0.1-0.9,0.2-1.5,0.3c-0.3,0.1-0.6,0.1-0.8,0.2c-0.4,0.2-0.5,0.2-1.2,0.2c-3.1,0.1-8.3,0.2-9.3,0.4
				c-2.4,0.6-6.1,1.8-6.5,1.7c-0.4-0.1-0.8-0.3-1-0.8s-0.2-1.2-0.4-1.6c-0.4-0.8-2.2-1.2-3-1.8c-0.6-0.4-0.8-1-0.3-1.7
				c0.6-1,2.3,0.7,3,1.1c1,0.6,3.9,1.4,5.4,1.2c0.4,0,0.5-0.2,0.4-0.6c-0.5-1.4-4.5-4.5-5.7-5c-1.7-0.8-3.1-1.1-2.4-2.3
				c0.5-0.8,1.6-0.4,2.7,0c1.4,0.6,4.8,2.9,6.9,4c4,2.1,7.3,1.3,13.7,1.5c0.6,0,1.2,0.1,1.8,0.2c0.5,0.1,1,0.3,1.2,0.5l0.1,0.1
				c0.2,0.2,1.8,0.7,2.8,0.9c0.8,0.2,2.5,1,3.2,1.5c1.6,1.2,4.1,3.5,4.1,3.5s0.5-0.3,0.8-0.7c0.2-0.2,0.3-1.4,0.2-2.1
				c-0.6-3.6,0.1-4.5-2.7-7.7c-0.5-0.6-1.1-1.1-1.6-1.8c-1-1.2-3.2-5.9-4.5-7.6c-1-1.3-4.2-4.5-5.7-5.3c-1.9-1.1-2.7-1-3.5-2.7
				c-0.6-1.3-0.8-3.2-1.4-4.7c-0.8-2.1-2.4-4.5-4.1-5.8c-2.2-1.8-2.8-1.8-4.3-3.7c-2.2-3-4.1-6.9-7.4-8c-1-0.3-5.3-0.5-8.3-0.9
				c-1.4-0.2-5.4-1.2-6.3-1.6c-0.7-0.3-1.2-0.7-1.8-0.8c-0.2,0-0.5,0-0.9,0.1c-14.3,3.5-17.9,10.1-23.8,17.5l-0.2,0.2l0.1,0.3
				l1.4-1.2c0.5-0.4,0.6-0.5,0.7-0.5C791.2,89.6,791.9,89.9,791.9,90.1z"/>
		</g>
		<g>
			<defs>
				<polygon id="SVGID_5_" points="860.4,80.8 853,33.6 761.3,81.8 731.2,169.3 832.8,210.1 884.4,187.4 905,149.7 884.6,118.4 				
					"/>
			</defs>
			<clipPath id="SVGID_6_">
				<use xlink:href="#SVGID_5_"  style="overflow:visible;"/>
			</clipPath>
			<path class="st9" d="M790.8,145.3c0.4,0,0.6-0.2,0.7-0.4c0,0-1.4-2.7,0.5-7.2c0.4-0.9,1.1-1.8,2.3-2.9c0.6-0.6,1.4-1,2.4-1.3
				c0.3-0.1,0.6-0.2,0.8-0.3l0.2-0.2c0,0-1.3,0.2-2.3,0.5c-0.7,0.2-2,1.2-2.6,1.9c-0.1,0.1-0.2,0.3-0.4,0.4c-1.7,2.3-2.6,6.7-1.8,9
				C790.6,145.2,790.7,145.3,790.8,145.3z"/>
		</g>
		<g>
			<defs>
				<polygon id="SVGID_7_" points="860.4,80.8 853,33.6 761.3,81.8 731.2,169.3 832.8,210.1 884.4,187.4 905,149.7 884.6,118.4 				
					"/>
			</defs>
			<clipPath id="SVGID_8_">
				<use xlink:href="#SVGID_7_"  style="overflow:visible;"/>
			</clipPath>
			<path class="st10" d="M796,142.7c2.1-1,3.5-2.9,4.6-4.7c0.5-1,0.8-2.5,0.5-3.2l-0.6-0.3c-0.4-0.3-1-0.4-1.7-0.5
				c-0.5-0.1-1.2,0-1.5,0.2l-0.4,0.2l0.1,0.1c0,0,2.5,0.4,2.3,3.1c0,0.4-0.2,0.8-0.3,1.2c-0.5,1-1.6,2.1-2.3,2.3h-0.2l-0.4,0.1v-0.4
				c0-0.3,0-0.6,0.1-0.9c0-0.5-0.5-1.1-1-1.1c-0.3,0-0.6,0-0.9,0.1l-0.2,0.1c-0.6,1.6-0.8,3.1-0.5,4.7
				C793.7,143.7,795,143.2,796,142.7z"/>
		</g>
		<g>
			<defs>
				<polygon id="SVGID_9_" points="860.4,80.8 853,33.6 761.3,81.8 731.2,169.3 832.8,210.1 884.4,187.4 905,149.7 884.6,118.4 				
					"/>
			</defs>
			<clipPath id="SVGID_10_">
				<use xlink:href="#SVGID_9_"  style="overflow:visible;"/>
			</clipPath>
			<path class="st11" d="M782.5,159.5c-0.3-0.6-0.4-0.7-0.4-0.9c0.1-0.9-0.2-0.9-0.8-0.7c-1.6,0.5-1.7,0.8-3.2,0.4
				c-2.2-0.6-4.5-1.9-5.7-3.5c-0.6-0.9-1-1.9-1.6-2.9c-1-1.6-2.7-3.2-3.5-4.6c-0.7-1.2-1-2.4-1.7-3.6c-1.5-2.3-2.8-2.6-3.6-4.9
				c-0.5-1.3-0.6-3.2-1-4.1c-0.2-0.5-1.5-2-1.8-2c-1.1-0.1-0.9,4.2-0.6,5.9c0.6,3.4,4.3,10.6,5.5,12.4c0.8,1.3,5.6,6.3,8.6,9.2
				c1.8,1.7,2.1,1.9,3.5,2c1,0,4.4,0.9,5.2,1.2c1.6,0.8,5.1,3.2,5.1,3.2L782.5,159.5z"/>
		</g>
		<g>
			<defs>
				<polygon id="SVGID_11_" points="860.4,80.8 853,33.6 761.3,81.8 731.2,169.3 832.8,210.1 884.4,187.4 905,149.7 884.6,118.4 
									"/>
			</defs>
			<clipPath id="SVGID_12_">
				<use xlink:href="#SVGID_11_"  style="overflow:visible;"/>
			</clipPath>
			<path class="st12" d="M756.1,143.7c0.2,0,0.4,0.2,0.4,0.5c0.9,2.9,4.1,10.3,6.7,13c1.9,1.9,6.4,5.3,6.5,5.7
				c0.1,0.3,0.1,1.2-0.4,1.2c-0.6,0-1.6-0.8-1.7-0.4c-0.1,0.2,0.1,0.9,0.1,1.2c-0.1,0.3-0.6,0.2-0.9,0.1c-0.8-0.2-2.7-1.6-3.1-1.7
				c-0.2,0-1.2,0.8-1.4,1.2c-0.7,1.3-0.7,1.9,1,2.5c4.3,1.6,5.5,0.5,8.8,2.5c2.6,1.6,8.1,5.3,8.8,5.5c0.3,0.1,0.6,0.1,0.6,0.1
				s-2.4-2-4-2.9c-1.2-0.7-2-0.9-2.9-1.7c-0.6-0.5-1-1.1-1.5-1.4c-0.8-0.5-3-1.1-3.3-1.4c-0.2-0.3-0.5-1.3-0.4-1.5
				c0.1-0.1,0.1-0.1,0.3-0.2c0.7-0.2,7.8,0.1,8.3-0.1c0.1,0,0.2-0.1,0.2-0.2c0-0.2-1.1-0.5-2-0.9c-3.4-1.4-8.5-6.6-10.5-8.7
				c-3.2-3.3-4.6-4.8-6.6-9.6c-1-2.4-2-5.4-2.7-6.5c-0.1-0.1-0.2-0.2-0.2-0.3c-0.2-0.1-0.3,0.1-0.5,0.4c-0.2,0.5-0.4,3.8-0.4,3.8
				S755.8,143.7,756.1,143.7z"/>
		</g>
		<g>
			<defs>
				<polygon id="SVGID_13_" points="860.4,80.8 853,33.6 761.3,81.8 731.2,169.3 832.8,210.1 884.4,187.4 905,149.7 884.6,118.4 
									"/>
			</defs>
			<clipPath id="SVGID_14_">
				<use xlink:href="#SVGID_13_"  style="overflow:visible;"/>
			</clipPath>
			<path class="st13" d="M755.8,157c0.1-0.5-0.3-2-0.3-2.8c0-0.4,0.1-0.7,0.3-1c0.3-0.4,0.7-0.6,0.9-1c0.1-0.4-0.7-5.3-1.1-5.7
				c-0.2-0.2-0.4-0.3-0.4-0.3s-0.7,2.8-0.9,4.1c-0.1,0.5-0.1,0.8-0.1,1.2c0.1,1.9,0.9,7.1,0.9,7.1S755.6,157.8,755.8,157z"/>
		</g>
		<g>
			<defs>
				<polygon id="SVGID_15_" points="860.4,80.8 853,33.6 761.3,81.8 731.2,169.3 832.8,210.1 884.4,187.4 905,149.7 884.6,118.4 
									"/>
			</defs>
			<clipPath id="SVGID_16_">
				<use xlink:href="#SVGID_15_"  style="overflow:visible;"/>
			</clipPath>
			<path class="st14" d="M856,198.5c-0.3-0.1-3.9,0.8-5.3,1.4c-0.5,0.2-6.9,0.3-7.7,0.1c-1.8-0.5-4.2-1.1-4.8-1.1
				c-0.1,0-0.3,0-0.3,0.1s0.1,0.2,0.3,0.3c3,1.8,9.8,1.9,12.5,1.8c1.6-0.1,6.1-0.8,6.7-1.1C857.7,199.8,856.4,198.7,856,198.5z"/>
		</g>
		<g>
			<defs>
				<polygon id="SVGID_17_" points="860.4,80.8 853,33.6 761.3,81.8 731.2,169.3 832.8,210.1 884.4,187.4 905,149.7 884.6,118.4 
									"/>
			</defs>
			<clipPath id="SVGID_18_">
				<use xlink:href="#SVGID_17_"  style="overflow:visible;"/>
			</clipPath>
			<path class="st15" d="M852.1,194.6c-0.5-0.5-0.6-0.5-1.3-0.4c-7.9,1.5-10.4,1.1-17.8-1.8c-0.7-0.3-0.7-0.3-0.8-0.2
				c-0.3,0.3-0.3,0.3,0.6,0.8c4.6,2.6,5.8,3.3,11.3,4.4c1,0.2,6.4,0.2,7.3,0c0.7-0.2,1.4-0.4,2-0.5c0.5-0.1,0.5-0.7,0.1-1.1
				L852.1,194.6z"/>
		</g>
		<g>
			<defs>
				<polygon id="SVGID_19_" points="860.4,80.8 853,33.6 761.3,81.8 731.2,169.3 832.8,210.1 884.4,187.4 905,149.7 884.6,118.4 
									"/>
			</defs>
			<clipPath id="SVGID_20_">
				<use xlink:href="#SVGID_19_"  style="overflow:visible;"/>
			</clipPath>
			<path class="st16" d="M848.8,190.6c-0.4-0.2-1.3-0.1-1.8,0c-2,0.6-4.4,0.6-7.1,0.2c-2.2-0.3-5.6-1.4-6.4-1.4
				c-0.2,0-0.4,0-0.4,0.1s0.1,0.2,0.3,0.3c3.9,2.5,10.2,2.9,13.9,2.7c0.9,0,2.8-0.5,3-0.7C850.3,191.7,849.2,190.8,848.8,190.6z"/>
		</g>
		<g>
			<defs>
				<polygon id="SVGID_21_" points="860.4,80.8 853,33.6 761.3,81.8 731.2,169.3 832.8,210.1 884.4,187.4 905,149.7 884.6,118.4 
									"/>
			</defs>
			<clipPath id="SVGID_22_">
				<use xlink:href="#SVGID_21_"  style="overflow:visible;"/>
			</clipPath>
			<path class="st17" d="M866.8,191.2l1.6,1.7c0,0,2.1-1.4,4.3-2.9c8.8-6.2,16.1-14.6,18.6-19.9c1.9-4.1,4.9-10.8,5.5-12.5
				c0.6-1.9,1.8-6.8,1.4-9.6c-0.2-1.5-0.5-3-0.7-4.4c-0.1-1-1.1-4.4-1.8-6.2c-0.2-0.6-2.5,1.9-3.7,1.3c-0.7-0.4-1.5-0.7-2.1-1
				s-0.7,0.4-0.2,1.4c0.3,0.7,0.7,1.5,0.9,2.2c1.7,4.2,0.5,11.5-1.2,15.6c-3.3,8.1-8.8,14-16.2,20.4c-4.2,3.6-10.2,8.3-10.2,8.3
				s1.5,2.3,2,2.7c0.1,0.1,1.9-1.1,3.8-2.5c1.6-1.1,5-3.9,6.8-5.5c2.9-2.7,6-5.2,6-5.2s0.8,0.6,1.1,0.8c0.1,0.1,0.1,0.2,0,0.4
				c-0.3,0.3-0.8,0.9-1.4,1.7c-1.3,1.6-5.5,5.6-8.2,7.9L866.8,191.2z"/>
		</g>
		<g>
			<defs>
				<polygon id="SVGID_23_" points="860.4,80.8 853,33.6 761.3,81.8 731.2,169.3 832.8,210.1 884.4,187.4 905,149.7 884.6,118.4 
									"/>
			</defs>
			<clipPath id="SVGID_24_">
				<use xlink:href="#SVGID_23_"  style="overflow:visible;"/>
			</clipPath>
			<path class="st18" d="M860.4,182.3l1.4,1.5c0,0,8.7-7.3,13.8-12.1c6.8-6.3,9.8-11.1,11.8-19.4c0.6-2.6,1.2-4.5,1.3-6.2
				c0-0.7-1.1-8.7-1-2c0,1.5-0.9,5.7-1.9,8.5c-0.9,2.6-2,5.3-2.5,6.3c-0.7,1.4-3.7,5.6-6,8.5c-1.1,1.4-5.4,5.4-8.4,7.9L860.4,182.3z
				"/>
		</g>
		<g>
			<defs>
				<polygon id="SVGID_25_" points="860.4,80.8 853,33.6 761.3,81.8 731.2,169.3 832.8,210.1 884.4,187.4 905,149.7 884.6,118.4 
									"/>
			</defs>
			<clipPath id="SVGID_26_">
				<use xlink:href="#SVGID_25_"  style="overflow:visible;"/>
			</clipPath>
			<path class="st19" d="M879.8,192.5c2.7-2,10.5-13.2,13.3-17.6c2.2-3.5,8.3-18.9,9.3-22.3c0.3-1.2,0.4-2,0.1-3.2
				c-1.5-4.9-2.3-8.6-2.7-10.4c-0.8-3-2.1-3.7-1.5-1.4c0.4,1.7,1.2,4.5,1.6,6.6c0.7,3.2,1,6.7,0.7,8.5c-0.3,2-5.6,14.8-8.7,20.6
				c-2.3,4.3-10.4,12.5-16.3,16.6l-0.2,0.1c-2.5,1.8-5.5,3.7-6.1,4.4c-0.1,0.1-0.1,0.1,0,0.4c0.1,0.4,0.5,1.4,0.5,1.4
				S876.1,195.3,879.8,192.5z"/>
		</g>
		<g>
			<defs>
				<polygon id="SVGID_27_" points="860.4,80.8 853,33.6 761.3,81.8 731.2,169.3 832.8,210.1 884.4,187.4 905,149.7 884.6,118.4 
									"/>
			</defs>
			<clipPath id="SVGID_28_">
				<use xlink:href="#SVGID_27_"  style="overflow:visible;"/>
			</clipPath>
			<path class="st20" d="M851.9,171.6c0.1,0.2,5.7-5.2,7.9-6.7c1-0.7,5.5-2.7,6.3-4.6c0.2-0.5-1.3-0.5-2.2-0.4
				c-2.4,0.2-7.8,1.3-8.1,1.5s-2.8,4.7-3.6,6.9c-0.2,0.5-0.3,1.2-0.4,1.6C851.8,170.3,851.8,171.3,851.9,171.6z"/>
		</g>
		<g>
			<defs>
				<polygon id="SVGID_29_" points="860.4,80.8 853,33.6 761.3,81.8 731.2,169.3 832.8,210.1 884.4,187.4 905,149.7 884.6,118.4 
									"/>
			</defs>
			<clipPath id="SVGID_30_">
				<use xlink:href="#SVGID_29_"  style="overflow:visible;"/>
			</clipPath>
			<path class="st21" d="M876,164.3c0.4,0.2,0.2,0.5,0.4,1.1c0,0.1,0.1,0.2,0.2,0.2c0.2,0,2.6-3.3,3.5-4.8c0.8-1.4,1.3-2.4,1.9-3.6
				c3.8-8.1,4.6-13.7,1.2-22.1c-0.9-2.4-1.7-3.2-4.1-4.5c-2.5-1.3-7.1-3.4-7.1-3.4s4,3.8,5.5,5.7c0.8,0.9,1.2,1.7,1.6,2.7
				c0.4,1,0.5,1.4,1.1,2c0.9,0.9,1.6,1.1,1.7,2.2c0.1,1.1-0.1,3-0.4,3.8c-0.7,1.7-1.7,4-1.8,4.7c-0.1,0.5,0.1,0.4,0.7,0.7
				c0.7,0.4,0.9,1.8,0.8,2.1c0,0.5-2.1,4.5-2.8,5.4c-0.1,0.1-2.5,2.8-2.1,3.3c0.1,0.2,0.5,0.2,0.6,0.3c0.1,0.1,0,0.3-0.2,0.6
				c-0.6,1-1.9,3.2-1.9,3.2S875.7,164.1,876,164.3z"/>
		</g>
		<g>
			<defs>
				<polygon id="SVGID_31_" points="860.4,80.8 853,33.6 761.3,81.8 731.2,169.3 832.8,210.1 884.4,187.4 905,149.7 884.6,118.4 
									"/>
			</defs>
			<clipPath id="SVGID_32_">
				<use xlink:href="#SVGID_31_"  style="overflow:visible;"/>
			</clipPath>
			<path class="st22" d="M823.9,111.7c1.4,0.3,4,0.5,6.5,0.6c0.7,0,1.5-0.1,1.7-0.3c0.1-0.1,0.2-0.1,0.3-0.1c0.9,0,1.7-0.1,2.4-0.2
				c0.6-0.1,1.6-0.3,2.3-0.7c0.7-0.3,1.7-1.2,2.2-1.8c0.6-0.9,1.1-2,1.1-2.7c0.1-2-0.6-4.4-0.7-4.3c0.1-0.1,0.6-0.5,0.9-0.7
				c0.7-0.5,2-1.2,2-1.4c0.1-0.2,0-0.4-0.1-0.5c-0.6-0.4-1.8,0.3-2.9,0.6c-1.3,0.5-7.3,1.4-7.3,1.4s0.2-0.2,0.4-0.3
				c0.4-0.3,0.9-0.4,1.4-0.5c1.2-0.2,2.5-0.5,2.5-1.2c0-0.2-0.3-0.6-0.6-0.6c-0.3-0.1-0.8,0-1.3,0.1c-3.1,0.5-6.8,1.9-9.3,4.5
				c-1.3,1.3-3.5,4.3-3.5,4.3s1.2,0.7,1.8,0.8c0.7,0.1,1.7-0.2,1.7-0.2c-0.6,1.1-1.4,2-2.4,2.8C823.1,111.2,823.4,111.6,823.9,111.7
				z M830,106c0-0.2,0.2-0.3,0.3-0.3c0.2,0.1,0.7,1.5,1.3,2.2c0.3,0.3,1,0.7,1.5,0.7c1.4,0.2,2.9,0,3.9-0.9c0.7-0.6,0.9-1.5,0.9-1.8
				v-0.1l-0.8,0.1c-0.5,0.1-1.2,0.2-1.8,0c-0.3-0.1-0.5-0.4-0.7-0.8c-0.3-0.6-0.5-1.1-0.5-1.5c1.3-0.5,2.5-0.8,4-0.9
				c0.2,0.6,0.7,2.1,0.8,2.7c0,2.5-1.4,4.6-4,4.9c-1.7,0.2-3.3-0.6-4.4-2.6C830.1,107.3,829.9,106.3,830,106z"/>
		</g>
		<g>
			<defs>
				<polygon id="SVGID_33_" points="860.4,80.8 853,33.6 761.3,81.8 731.2,169.3 832.8,210.1 884.4,187.4 905,149.7 884.6,118.4 
									"/>
			</defs>
			<clipPath id="SVGID_34_">
				<use xlink:href="#SVGID_33_"  style="overflow:visible;"/>
			</clipPath>
			<path class="st23" d="M807,111.2l3.1,1.5l7.2,2.5c0.8,0.3,1-0.4-0.2-1.1l-6-3.2l-2.9-1.4c-0.6-0.3-0.7-0.3-0.8-0.4h-0.2
				c-0.5,0-1,0.5-0.9,1.5C806.3,110.8,806.4,110.9,807,111.2z"/>
		</g>
		<g>
			<defs>
				<polygon id="SVGID_35_" points="860.4,80.8 853,33.6 761.3,81.8 731.2,169.3 832.8,210.1 884.4,187.4 905,149.7 884.6,118.4 
									"/>
			</defs>
			<clipPath id="SVGID_36_">
				<use xlink:href="#SVGID_35_"  style="overflow:visible;"/>
			</clipPath>
			<path class="st24" d="M804,113.7c1.4,1.4,3.2,3.1,4.8,4.7l6.6,6.2c1.5,1.4,1.3,0.1,1-0.2l-6-7.2l-4.6-4.8
				c-0.5-0.5-0.6-0.6-0.8-0.7s-0.4-0.2-0.6-0.2c-0.5-0.1-1.1,0.5-1,1.5C803.4,113.1,803.5,113.2,804,113.7z"/>
		</g>
		<g>
			<defs>
				<polygon id="SVGID_37_" points="860.4,80.8 853,33.6 761.3,81.8 731.2,169.3 832.8,210.1 884.4,187.4 905,149.7 884.6,118.4 
									"/>
			</defs>
			<clipPath id="SVGID_38_">
				<use xlink:href="#SVGID_37_"  style="overflow:visible;"/>
			</clipPath>
			<path class="st25" d="M808.8,124.8l-3.4-6.3c-0.9-1.3-1.8-2.6-2.6-3.8c-0.7-1.1-1.1-1.6-1.8-1.6c-1,0.1-1.5,0.6-1.5,0.8
				c0,0.2,1,1.8,2.3,3.8l6.3,7.7C808.9,126.4,809.4,125.9,808.8,124.8z"/>
		</g>
		<g>
			<defs>
				<polygon id="SVGID_39_" points="860.4,80.8 853,33.6 761.3,81.8 731.2,169.3 832.8,210.1 884.4,187.4 905,149.7 884.6,118.4 
									"/>
			</defs>
			<clipPath id="SVGID_40_">
				<use xlink:href="#SVGID_39_"  style="overflow:visible;"/>
			</clipPath>
			<path class="st26" d="M825.5,71.2l0.7,0.7c0,0-1,0.7-1.2,1c-0.1,0.3,0.3,0.5,0.7,0.6c0.5,0.2,2,0.2,2.2,0.1
				c0.2-0.2,0.2-1.1,0.5-1.6c0.7-1.2,2.5-1.2,3.9-0.9c1.5,0.4,2.8,0.9,4.2,0.8c0.6,0,1.3-0.2,2-0.3c1.6-0.3,6.4-0.4,7.5-0.3
				c2.5,0.3,5.6,1.7,7.7,3.1c4.6,3.2,5.5,5.5,9.7,6.3c0.8,0.2,4.7,1,5.6,0.8c0.1,0,0.3-0.1,0.3-0.1s-2.1-1.1-3.8-2.1
				c-1.6-1-7.1-5.7-8.6-7.8c-1-1.3-3.6-7-4.3-7.7c-1.3-1.4-11.4-7.2-12.9-7.6c-1.4-0.3-3.9-0.3-6.2-0.1c-0.4,0-0.8,0.1-1.1,0.2
				c-0.4,0.2-0.9,0.5-1.3,0.8c-0.2,0.1-0.5,0.2-0.7,0.3c-0.6,0.2-1.1,0.3-1.7,0.4c-0.8,0.2-8.7,6.5-9.8,7c-2.5,1.1-3.8,0.9-4.8,3.1
				c-0.4,0.9-0.3,2.8,0.7,3.3c0.4,0.2,1.1,0.3,1.6,0.5c1.4,0.4,0.4,0,0.1-1.7c-0.1-0.4,0.4-0.9,1.1-1c0.2,0,0.3,0,0.9,0.2
				L825.5,71.2z"/>
		</g>
		<g>
			<defs>
				<polygon id="SVGID_41_" points="860.4,80.8 853,33.6 761.3,81.8 731.2,169.3 832.8,210.1 884.4,187.4 905,149.7 884.6,118.4 
									"/>
			</defs>
			<clipPath id="SVGID_42_">
				<use xlink:href="#SVGID_41_"  style="overflow:visible;"/>
			</clipPath>
			<path class="st27" d="M843.4,59.9c-3.6-1.7-7.1-2.5-9.5-2c-2.3,0.4-9.1,3.2-10.7,5.4c-0.8,1.1-5.3,3.4-4.7,4.2
				c0.3,0.3,6.6,1.9,7.7,2.2c0.9,0.3,3.9-1.2,4.8-1c0.4,0.1,1.3,0.1,2.3,0.1c6.5,0,15.2,1.2,17.2,2.5c0.8,0.5,7,4.7,7.9,5.3
				c1.8,1.2,4.4,2.9,5,3.1l-4.8-4.1l-3.5-3.8C852.4,67.3,851.5,63.7,843.4,59.9z"/>
		</g>
		<g>
			<defs>
				<polygon id="SVGID_43_" points="860.4,80.8 853,33.6 761.3,81.8 731.2,169.3 832.8,210.1 884.4,187.4 905,149.7 884.6,118.4 
									"/>
			</defs>
			<clipPath id="SVGID_44_">
				<use xlink:href="#SVGID_43_"  style="overflow:visible;"/>
			</clipPath>
			<path class="st28" d="M808.9,98.2c0.7-0.8,2.1-2.2,2.3-2.1c0.1,0,0.2,0.2,0.3,0.2c0.9,0.5,3.5-1.1,3.8-1.4c0.5-0.5,0.7-1,1-1.5
				c0.8-1.2,2.7-3.3,4.2-3.9c1.4-0.6,2.7-1.3,2.7-1.5s0-0.4-0.1-0.6c-0.6-1-4.4-0.5-7.8,1c-1.2,0.5-2.3,1.1-3.4,1.8
				c-1.3,0.8-3.6,2.8-4.5,4.1c-1,1.3-3.7,4.6-2.7,5.7c0.1,0.1,0.3,0.3,0.5,0.5c0.3,0.2,0.9,0.1,1.2-0.4l1.1-1.6l0.6,0.1
				C808.3,98.8,808.4,98.7,808.9,98.2z"/>
		</g>
		<g>
			<defs>
				<polygon id="SVGID_45_" points="860.4,80.8 853,33.6 761.3,81.8 731.2,169.3 832.8,210.1 884.4,187.4 905,149.7 884.6,118.4 
									"/>
			</defs>
			<clipPath id="SVGID_46_">
				<use xlink:href="#SVGID_45_"  style="overflow:visible;"/>
			</clipPath>
			<path class="st29" d="M811.8,81.7c-1.3,0.1-3.6,1.4-4.4,1.9c-1.7,1-6,4.5-6.5,7c-0.1,0.4,0.1,0.7,0.6,1.1
				c1.3,0.8,1.9-1.4,3.4-2.4c0.6-0.4,1.6-0.6,2.4-0.9c0.5-0.2,0.9-0.5,1.2-0.8c0.5-0.6,0.7-1.2,0-1.5c-0.3-0.1-0.6-0.2-0.6-0.3
				c0,0,0.1-0.1,0.3-0.3c2.1-1.6,4.3-3.4,4.2-3.6l-0.2-0.2C812.4,81.7,812.1,81.7,811.8,81.7z"/>
		</g>
		<g>
			<defs>
				<polygon id="SVGID_47_" points="860.4,80.8 853,33.6 761.3,81.8 731.2,169.3 832.8,210.1 884.4,187.4 905,149.7 884.6,118.4 
									"/>
			</defs>
			<clipPath id="SVGID_48_">
				<use xlink:href="#SVGID_47_"  style="overflow:visible;"/>
			</clipPath>
			<path class="st30" d="M827.4,97c0.7-0.4,2.5-0.8,3.2-1.2c0.3-0.2,0.5-0.4,0.4-0.8c-0.4-1.6-3.9-0.1-5.1,0.3
				c-2.3,0.8-8.5,3.7-8.9,6.1c-0.1,0.5,0.1,2.8,0.5,3.2c0.7,0.7,3.3,0.3,3.9-0.6c0.2-0.4,0.3-0.9,0.5-1.3c0.5-0.9,2.6-1.4,3.6-2.2
				l0.3-0.2c0.3-0.3,0.5-0.8,0.3-1l-0.5-0.5C825.6,98.7,826.6,97.6,827.4,97z"/>
		</g>
		<g>
			<defs>
				<polygon id="SVGID_49_" points="860.4,80.8 853,33.6 761.3,81.8 731.2,169.3 832.8,210.1 884.4,187.4 905,149.7 884.6,118.4 
									"/>
			</defs>
			<clipPath id="SVGID_50_">
				<use xlink:href="#SVGID_49_"  style="overflow:visible;"/>
			</clipPath>
			<path class="st31" d="M848.2,106.1c0.2,0.2,0.4,0.4,0.5,0.6c0.9,1.1,2.5,4.4,2.6,5.3c0.1,0.4,0.1,0.7,0,0.8
				c-0.3,0.2-1.1-0.7-1.7-1.3c-0.8-0.7-1.6-1.2-2.2-1.5c-0.7-0.3-0.9,0-1,0.7c0,0.3,0,0.4,0.5,0.9c1.3,1.4,3.3,3.6,4.6,3.9
				c1.1,0.2,1.9-0.2,2.4-0.9c0.4-0.5,0.6-1.8,0.2-2.6c-0.6-1.6-1.8-4.1-2.2-4.6c-0.7-0.9-1.5-1.8-2.2-2.6
				C849.2,104.5,844.3,101.7,848.2,106.1z"/>
		</g>
		<g>
			<defs>
				<polygon id="SVGID_51_" points="860.4,80.8 853,33.6 761.3,81.8 731.2,169.3 832.8,210.1 884.4,187.4 905,149.7 884.6,118.4 
									"/>
			</defs>
			<clipPath id="SVGID_52_">
				<use xlink:href="#SVGID_51_"  style="overflow:visible;"/>
			</clipPath>
			<path class="st32" d="M827.1,82.6c0.4,0.1,0.8,0.2,1.1,0.3c0.9,0.3,2.4,1.5,3.2,2.2c1.7,1.5,3.7,4.5,4.4,6.9
				c0.6,1.9,1.2,4.2,1.5,4.4c0.4,0.3,2.5,0.6,3.6,1.2c0.3,0.1,0.6,0.3,0.9,0.6c0.5,0.5,1.1,1.1,1.6,1.3c0.5,0.3,1.5-0.1,1.5-1.1
				c0-0.7-0.9-2.5-1-2.6c-0.4-0.5-2-1.1-2.7-1.6c-0.9-0.6-0.8-1.2-1.3-3c-0.2-0.6-2-3.5-2.7-4.3c-1.1-1.2-5.9-5.3-6.7-5.6
				c-0.7-0.3-1.4-0.5-2.3-0.7C827.2,80.5,826.2,82.4,827.1,82.6z"/>
		</g>
		<g>
			<defs>
				<polygon id="SVGID_53_" points="860.4,80.8 853,33.6 761.3,81.8 731.2,169.3 832.8,210.1 884.4,187.4 905,149.7 884.6,118.4 
									"/>
			</defs>
			<clipPath id="SVGID_54_">
				<use xlink:href="#SVGID_53_"  style="overflow:visible;"/>
			</clipPath>
			<path class="st33" d="M859.9,151.7c-0.2,0.3-0.3,0.8-0.2,0.9c0.1,0.2,0.9,0.4,1.3,0.3c0.8-0.1,1.1-0.7,1.9-1.3
				c0.5-0.4,2.6-1.2,4-1.6c1-0.3,3-1.4,3.5-1.8c0.7-0.7,2.3-3.3,2.9-4.7c1.2-3.1,1.2-6.9-0.3-9.4c-1.4-2.3-2.2-1.6-4.5-0.8
				c-2.7,0.9-4.8-1.3-7.3-2.8c-1.8-1.1-4-2.2-5.9-2.1c-5.2,0.2-5.4,1.4-9.9-0.1c-1.5-0.5-5.6-2.6-7.4-2c-0.4,0.1-1.1,0.7-1,0.9
				c0,0.2,0.7,0.8,1.1,1c0.7,0.5,1.5,0.7,2.3,1c1,0.4,3.7,2,4.7,2.9c1.8,1.5,3.8,2.9,6.2,2.7c1.1-0.1,5-1.6,5.6-1.6s1.4,0.3,2.2,0.7
				c1.1,0.5,4.9,2.3,6.6,2.4c1.9,0,2.2-0.4,2.6,1.4c0.8,2.7,0.5,5.9-1.8,8.7c-0.4,0.5-0.6,0.6-1.1,1l-4.9,3.7
				C860.1,151.4,860,151.4,859.9,151.7z"/>
		</g>
		<g>
			<defs>
				<polygon id="SVGID_55_" points="860.4,80.8 853,33.6 761.3,81.8 731.2,169.3 832.8,210.1 884.4,187.4 905,149.7 884.6,118.4 
									"/>
			</defs>
			<clipPath id="SVGID_56_">
				<use xlink:href="#SVGID_55_"  style="overflow:visible;"/>
			</clipPath>
			<path class="st34" d="M815.1,143.5c-0.6,0.3-0.3,1.5,0.1,2.3c0.6,1.3,2,3.3,2.5,4.5c0.4,1.2,0.4,2.5,0.8,3.7
				c0.4,1.3,1.5,2.8,2.1,4.4c0.6,1.5,0.7,3,1.2,4.5c0.4,1.1,1,2.2,1.6,3.3c3.7,6.1,6.2,8.4,12.9,9.9c1.3,0.3,1.6,0.2,3.1-0.4
				c2.5-1.1,4.4-2.2,5-4.6c0.4-1.6,0.1-4.5-0.2-4.7c-0.2-0.1-2.1,0.5-2.5,0.8c-0.5,0.4-0.9,0.9-1.4,1.2c-2.7,1.6-8.5-0.5-10.7-2
				c-2.6-1.8-7.4-8.3-8.5-11.5c-1.7-5-0.6-6.5-5-11.1C816,143.4,815.4,143.3,815.1,143.5z"/>
		</g>
		<g>
			<defs>
				<polygon id="SVGID_57_" points="860.4,80.8 853,33.6 761.3,81.8 731.2,169.3 832.8,210.1 884.4,187.4 905,149.7 884.6,118.4 
									"/>
			</defs>
			<clipPath id="SVGID_58_">
				<use xlink:href="#SVGID_57_"  style="overflow:visible;"/>
			</clipPath>
			<path class="st35" d="M843.5,152.1c0.4,0.6,1,2.7,0.7,3.7c-0.2,0.5-0.4,0.7,0,1.1c0.3,0.3,3.2,1.2,3.2,1.2s-0.9-2.2-1-3
				c-0.1-1.1,0.9-2.1,2-2.2c0.7-0.1,3.8,0.6,3.8,0.6s-0.2-1-0.2-2c0-0.8,1-4.2,1.1-5.4c0.1-2.3-1.1-4.7-3.7-5.2
				c-0.3-0.1-0.7-0.1-1.1,0.1c-0.3,0.1-0.4,0.2-0.9,0.6c-1.4,1-3.7,2.7-4.1,3.3c-0.3,0.5-0.5,0.9-0.8,1.4c-0.3,0.4-3,1.8-4.7,3
				c-0.6,0.4-2.5,2.7-2.7,3.2c-0.7,1.9-0.6,3.8,1.1,4.8c0.5,0.3,2.2,0.6,2.5,0.5c0.9-0.5-0.4-1.1-1.1-1.6c-1.6-1.1-0.9-3.1,0.8-4.1
				c1.1-0.7,3.7-1.8,3.7-1.8S842.9,151.3,843.5,152.1z"/>
		</g>
		<g>
			<defs>
				<polygon id="SVGID_59_" points="860.4,80.8 853,33.6 761.3,81.8 731.2,169.3 832.8,210.1 884.4,187.4 905,149.7 884.6,118.4 
									"/>
			</defs>
			<clipPath id="SVGID_60_">
				<use xlink:href="#SVGID_59_"  style="overflow:visible;"/>
			</clipPath>
			<path class="st36" d="M850,145c-1.1-0.8-2.2-0.6-3.1,0c-2.2,1.6-3.5,3.7-1.1,5.6c1.3,1,3.9,1.6,4.9-0.4
				C851.5,148.8,851.1,145.9,850,145z"/>
		</g>
		<g>
			<defs>
				<polygon id="SVGID_61_" points="860.4,80.8 853,33.6 761.3,81.8 731.2,169.3 832.8,210.1 884.4,187.4 905,149.7 884.6,118.4 
									"/>
			</defs>
			<clipPath id="SVGID_62_">
				<use xlink:href="#SVGID_61_"  style="overflow:visible;"/>
			</clipPath>
			<path class="st37" d="M851.2,188c0.5,0.2,11.3,12.8,11.3,13.1c-0.1,1.3-0.4,2,2.1,2.2c2.8,0.2,5.4-1.8,8.4-4.2
				c2.3-1.9,2.4-3.8,0.8-6.2c-1.6-2.4-8.8-12.4-12.8-12.1c-2.2,0.2-11.1,5.3-11.5,5.6c-0.2,0.1-0.4,0.2-0.5,0.5c0,0.1,0,0.3,0,0.3
				C849.4,187.4,850.3,187.6,851.2,188z"/>
		</g>
		<g>
			<defs>
				<polygon id="SVGID_63_" points="860.4,80.8 853,33.6 761.3,81.8 731.2,169.3 832.8,210.1 884.4,187.4 905,149.7 884.6,118.4 
									"/>
			</defs>
			<clipPath id="SVGID_64_">
				<use xlink:href="#SVGID_63_"  style="overflow:visible;"/>
			</clipPath>
			<path class="st38" d="M849.1,190.3c0.8,1.4,4.8,7,8,11.1c0.4,0.5,0.7,1,0.7,1.1c0,0.2,0,0.3,0,0.5c0.3,1.6,2,0.7,3.1,0.1
				c2.9-1.6,6.3-3,4.9-5.9c-0.6-1.3-1.3-2.6-2.1-3.8c-0.4-0.6-4.1-6.6-5.6-7.6c-2.3-1.6-7.7,0.2-10.2,2.1c-0.7,0.6-0.4,0.5,0.3,0.8
				L849.1,190.3z"/>
		</g>
		<g>
			<defs>
				<polygon id="SVGID_65_" points="860.4,80.8 853,33.6 761.3,81.8 731.2,169.3 832.8,210.1 884.4,187.4 905,149.7 884.6,118.4 
									"/>
			</defs>
			<clipPath id="SVGID_66_">
				<use xlink:href="#SVGID_65_"  style="overflow:visible;"/>
			</clipPath>
			<path class="st39" d="M856.3,189.5c0,0-0.2-0.3-0.4-0.5c-0.9-0.9-2.3-0.1-3.6,0.5c-0.7,0.4-0.6,0.6,0,1.6
				c0.4,0.6,0.9,1.4,1.3,2.2c0.4,0.6,2.6,3.6,4.4,5.8c0.1,0.1,0.2,0.3,0.3,0.4c0.8,1.6,0.6,2.1,1.6,1.8c1.5-0.5,2.6-1,2.4-2.1
				c-0.1-0.6-2.2-4.2-3-4.4c-0.4-0.1-1.4,0.4-2,0.4c-1.5,0-3.3-2.2-2.9-3.7c0.1-0.2,0.2-0.5,0.4-0.7c0.2-0.3,0.3-0.4,0.7-0.7
				L856.3,189.5z"/>
		</g>
		<g>
			<defs>
				<polygon id="SVGID_67_" points="860.4,80.8 853,33.6 761.3,81.8 731.2,169.3 832.8,210.1 884.4,187.4 905,149.7 884.6,118.4 
									"/>
			</defs>
			<clipPath id="SVGID_68_">
				<use xlink:href="#SVGID_67_"  style="overflow:visible;"/>
			</clipPath>
			<path class="st40" d="M852.1,203.8c-0.3-0.9-2.1-0.1-4.4,0.3c-2.3,0.4-8.9-0.1-10.6-0.7c-1-0.3-2.1-0.9-2.7-0.9
				c-0.1,0-0.3,0-0.3,0.1s0.1,0.2,0.3,0.3c1.4,1,6.1,2.2,7.9,2.4c2,0.3,6.9,0.4,9.3-0.3C852.2,204.8,852.3,204.1,852.1,203.8z"/>
		</g>
	</g>
	<path class="st3" d="M904.4,141.4L856.3,51c0,0,12.7,46.5-11.9,97.8c-25.5,53-74.4,80.6-74.4,80.6l74.9-15.4
		C844.9,214,900.4,203.3,904.4,141.4z"/>
	<path class="st1" d="M904.4,141.4l1.1-0.6L852.1,40.7l2.9,10.7v0.1c0.3,1.3,3.2,12.9,3.2,30.1c0,17.8-3.1,41.7-15.1,66.7
		c-12.6,26.3-31.1,46.3-46.5,59.8c-7.7,6.7-14.5,11.8-19.5,15.2c-2.5,1.7-4.5,3-5.8,3.8c-0.7,0.4-1.2,0.7-1.6,1
		c-0.2,0.1-0.3,0.2-0.4,0.2l-0.1,0.1l-6.9,3.9l82.7-17l-0.2-1.2l0.2,1.2c0.1,0,14.1-2.7,28.7-13.3c7.3-5.3,14.7-12.5,20.6-22.4
		c5.9-9.9,10.2-22.4,11.2-38v-0.4l-0.2-0.3L904.4,141.4l-1.2-0.1c-1,15.3-5.2,27.4-10.9,36.9c-8.5,14.3-20.4,23-30.3,28
		c-4.9,2.5-9.3,4.2-12.4,5.2c-1.6,0.5-2.8,0.8-3.7,1.1c-0.4,0.1-0.8,0.2-1,0.2c-0.1,0-0.2,0-0.2,0.1h-0.1l0,0l-74.9,15.4l0.2,1.2
		l0.6,1.1c0.1,0,12.4-7,27.9-20.5c15.5-13.6,34.2-33.8,47.1-60.6c12.2-25.4,15.3-49.7,15.3-67.8c0-18.7-3.3-30.8-3.3-30.9l-1.2,0.3
		l-1.1,0.6l48.2,90.3L904.4,141.4l-1.2-0.1L904.4,141.4z"/>
	<path class="st1" d="M754.8,233.8L754.8,233.8c-3.3,0-6.3-0.6-8.9-1.8c-13.5-6.3-14.8-30-13.5-48.8c1.6-22.4,7.7-49,16-69.4
		c9.4-23.1,23.8-46.4,39.7-64c15.8-17.5,31.3-27.5,42.6-27.5c2.6,0,5,0.5,7.2,1.5c32,15.3,28.5,81.9,11.5,119.2
		C824.6,197.3,780,233.8,754.8,233.8z M830.7,26c-21.4,0-57.1,33-79.9,89.1c-8.1,20.1-14.2,46.3-15.7,68.3
		c-1.7,24.6,3.4,41.1,12.3,45.2c2.1,1,4.6,1.5,7.4,1.5c20.7,0,66.6-36.9,90.2-88.6c8.8-19.3,13.7-45,12.7-67
		c-1.1-24.4-8.7-41.2-21.5-47.3C834.6,26.4,832.7,26,830.7,26z"/>
	<polygon class="st1" points="843.2,151.8 895.8,186.6 841.5,154.6 	"/>
	<path class="st3" d="M858.2,157c0.2,1.2,1.4,2.1,2.7,2s2.3-1.2,2.1-2.5c-0.2-1.2-1.4-2.1-2.7-2C859,154.7,858.1,155.8,858.2,157z"
		/>
	<path class="st1" d="M858.2,157l-0.6,0.1c0.1,0.7,0.5,1.4,1.1,1.8s1.3,0.7,2,0.7c0.1,0,0.2,0,0.3,0c1.5-0.1,2.7-1.3,2.7-2.8
		c0-0.1,0-0.3,0-0.4c-0.1-0.7-0.5-1.4-1.1-1.8s-1.3-0.7-2-0.7c-0.1,0-0.2,0-0.3,0c-1.5,0.1-2.7,1.3-2.7,2.8c0,0.1,0,0.3,0,0.4
		L858.2,157l0.6-0.1v-0.2c0-0.8,0.6-1.4,1.5-1.5h0.2c0.5,0,0.9,0.2,1.2,0.4c0.3,0.3,0.5,0.6,0.6,1v0.2c0,0.8-0.6,1.4-1.5,1.5h-0.2
		c-0.5,0-0.9-0.2-1.2-0.4c-0.3-0.3-0.5-0.6-0.6-1L858.2,157z"/>
	<path class="st3" d="M882.7,173.4c0.1,1.1,1.1,1.8,2.2,1.7c1.1-0.1,1.8-1.1,1.7-2.1c-0.1-1.1-1.1-1.8-2.2-1.7
		C883.3,171.3,882.5,172.3,882.7,173.4z"/>
	<path class="st1" d="M882.7,173.4l-0.5,0.1c0.2,1.3,1.3,2.2,2.5,2.2c0.1,0,0.2,0,0.3,0c1.3-0.1,2.2-1.2,2.2-2.4c0-0.1,0-0.2,0-0.3
		l0,0c-0.2-1.3-1.3-2.2-2.5-2.2c-0.1,0-0.2,0-0.3,0c-1.3,0.1-2.2,1.2-2.2,2.4c0,0.1,0,0.2,0,0.3L882.7,173.4l0.5-0.1v-0.2
		c0-0.7,0.5-1.3,1.2-1.4h0.2c0.7,0,1.4,0.6,1.5,1.3l0,0v0.2c0,0.7-0.5,1.3-1.2,1.4h-0.2c-0.7,0-1.4-0.6-1.5-1.3L882.7,173.4z"/>
</g>
</svg>
