<?xml version="1.0" encoding="utf-8"?>
<!-- Generator: Adobe Illustrator 19.2.0, SVG Export Plug-In . SVG Version: 6.00 Build 0)  -->
<svg version="1.1" id="Layer_1" xmlns="http://www.w3.org/2000/svg" xmlns:xlink="http://www.w3.org/1999/xlink" x="0px" y="0px"
	 viewBox="0 0 25 25" style="enable-background:new 0 0 25 25;" xml:space="preserve">
<style type="text/css">
	.st0{fill:#FFFFFF;}
</style>
<path class="st0" d="M21.9,6.6c-0.7,0.3-1.5,0.5-2.3,0.6C20.4,6.7,21.1,6,21.4,5c-0.8,0.5-1.6,0.8-2.6,1c-0.7-0.8-1.8-1.3-2.9-1.3
	c-2.2,0-4,1.8-4,4c0,0.3,0,0.6,0.1,0.9C8.6,9.5,5.6,7.9,3.6,5.5C3.2,6.1,3,6.7,3,7.5c0,1.4,0.7,2.6,1.8,3.4c-0.7,0-1.3-0.2-1.8-0.5
	c0,0,0,0,0,0.1c0,2,1.4,3.6,3.2,4c-0.3,0.1-0.7,0.1-1.1,0.1c-0.3,0-0.5,0-0.8-0.1c0.5,1.6,2,2.8,3.8,2.8c-1.4,1.1-3.1,1.7-5,1.7
	c-0.3,0-0.6,0-1-0.1C4,20,6.1,20.7,8.4,20.7c7.4,0,11.5-6.2,11.5-11.5c0-0.2,0-0.3,0-0.5C20.7,8.1,21.4,7.4,21.9,6.6z"/>
</svg>
