<?xml version="1.0" encoding="utf-8"?>
<!-- Generator: Adobe Illustrator 19.2.0, SVG Export Plug-In . SVG Version: 6.00 Build 0)  -->
<svg version="1.1" id="Layer_1" xmlns="http://www.w3.org/2000/svg" xmlns:xlink="http://www.w3.org/1999/xlink" x="0px" y="0px"
	 viewBox="0 0 25 25" style="enable-background:new 0 0 25 25;" xml:space="preserve">
<style type="text/css">
	.st0{fill:#FFFFFF;}
</style>
<path id="White_2_" class="st0" d="M20.1,3.5H4.6c-0.5,0-1,0.4-1,1V20c0,0.5,0.4,1,1,1h8.4v-6.8h-2.3v-2.6h2.3V9.6
	c0-2.3,1.4-3.5,3.4-3.5c1,0,1.8,0.1,2,0.1v2.4l-1.4,0c-1.1,0-1.3,0.5-1.3,1.3v1.7h2.6l-0.3,2.6h-2.3v6.8h4.4c0.5,0,1-0.4,1-1V4.5
	C21.1,3.9,20.6,3.5,20.1,3.5z"/>
</svg>
