<?xml version="1.0" encoding="utf-8"?>
<!-- Generator: Adobe Illustrator 19.1.0, SVG Export Plug-In . SVG Version: 6.00 Build 0)  -->
<svg version="1.1" id="Layer_1" xmlns="http://www.w3.org/2000/svg" xmlns:xlink="http://www.w3.org/1999/xlink" x="0px" y="0px"
	 viewBox="0 0 30.7 25.1" enable-background="new 0 0 30.7 25.1" xml:space="preserve">
<g>
	<g>
		<defs>
			<polyline id="SVGID_1_" points="0.2,0.2 29.7,0.2 29.7,24.9 0.2,24.9 			"/>
		</defs>
		<clipPath id="SVGID_2_">
			<use xlink:href="#SVGID_1_"  overflow="visible"/>
		</clipPath>
		<g clip-path="url(#SVGID_2_)">
			<defs>
				<rect id="SVGID_3_" x="-552.8" y="-384.1" width="1440" height="1024"/>
			</defs>
			<clipPath id="SVGID_4_">
				<use xlink:href="#SVGID_3_"  overflow="visible"/>
			</clipPath>
			<g clip-path="url(#SVGID_4_)" enable-background="new    ">
				<g>
					<defs>
						<rect id="SVGID_5_" x="7.2" y="-0.1" width="23" height="18"/>
					</defs>
					<clipPath id="SVGID_6_">
						<use xlink:href="#SVGID_5_"  overflow="visible"/>
					</clipPath>
					<g clip-path="url(#SVGID_6_)">
						<defs>
							<path id="SVGID_7_" d="M7.8,17.1c0,0,3.2-7.3,11.9-6.9l0.1,5l9.9-7.8l-9.9-7.2l-0.1,5.1C19.7,5.3,8.8,3.6,7.8,17.1"/>
						</defs>
						<clipPath id="SVGID_8_">
							<use xlink:href="#SVGID_7_"  overflow="visible"/>
						</clipPath>
						<g clip-path="url(#SVGID_8_)">
							<defs>
								<rect id="SVGID_9_" x="0.2" y="-0.1" width="30" height="25"/>
							</defs>
							<clipPath id="SVGID_10_">
								<use xlink:href="#SVGID_9_"  overflow="visible"/>
							</clipPath>
							<rect x="2.8" y="-4.8" clip-path="url(#SVGID_10_)" fill="#4A8DCB" width="31.9" height="26.8"/>
						</g>
					</g>
				</g>
			</g>
		</g>
	</g>
	<g>
		<defs>
			<polygon id="SVGID_11_" points="22.3,15.9 22.3,15.9 22.3,16 			"/>
		</defs>
		<clipPath id="SVGID_12_">
			<use xlink:href="#SVGID_11_"  overflow="visible"/>
		</clipPath>
		<g clip-path="url(#SVGID_12_)">
			<defs>
				<rect id="SVGID_13_" x="-552.8" y="-384.1" width="1440" height="1024"/>
			</defs>
			<clipPath id="SVGID_14_">
				<use xlink:href="#SVGID_13_"  overflow="visible"/>
			</clipPath>
			<rect x="17.3" y="10.9" clip-path="url(#SVGID_14_)" fill="#2FB2E7" width="10" height="10"/>
		</g>
	</g>
	<g>
		<defs>
			<rect id="SVGID_15_" x="0.2" y="0.2" width="29.5" height="24.6"/>
		</defs>
		<clipPath id="SVGID_16_">
			<use xlink:href="#SVGID_15_"  overflow="visible"/>
		</clipPath>
		<g clip-path="url(#SVGID_16_)">
			<defs>
				<rect id="SVGID_17_" x="-552.8" y="-384.1" width="1440" height="1024"/>
			</defs>
			<clipPath id="SVGID_18_">
				<use xlink:href="#SVGID_17_"  overflow="visible"/>
			</clipPath>
			<g clip-path="url(#SVGID_18_)" enable-background="new    ">
				<g>
					<defs>
						<rect id="SVGID_19_" x="0.2" y="4.9" width="25" height="20"/>
					</defs>
					<clipPath id="SVGID_20_">
						<use xlink:href="#SVGID_19_"  overflow="visible"/>
					</clipPath>
					<g clip-path="url(#SVGID_20_)">
						<defs>
							<polygon id="SVGID_21_" points="22.3,18.1 22.3,22.1 2.9,22.1 2.9,8 6.1,8 9.1,5.3 9.1,5.3 0.2,5.3 0.2,24.9 25.1,24.9 
								25.1,16.4 							"/>
						</defs>
						<clipPath id="SVGID_22_">
							<use xlink:href="#SVGID_21_"  overflow="visible"/>
						</clipPath>
						<g clip-path="url(#SVGID_22_)">
							<defs>
								<rect id="SVGID_23_" x="0.2" y="-0.1" width="30" height="25"/>
							</defs>
							<clipPath id="SVGID_24_">
								<use xlink:href="#SVGID_23_"  overflow="visible"/>
							</clipPath>
							<rect x="-4.8" y="0.3" clip-path="url(#SVGID_24_)" fill="#4A8DCB" width="34.9" height="29.6"/>
						</g>
					</g>
				</g>
			</g>
		</g>
	</g>
</g>
</svg>
