<?xml version="1.0" encoding="utf-8"?>
<!-- Generator: Adobe Illustrator 19.2.0, SVG Export Plug-In . SVG Version: 6.00 Build 0)  -->
<svg version="1.1" id="Layer_1" xmlns="http://www.w3.org/2000/svg" xmlns:xlink="http://www.w3.org/1999/xlink" x="0px" y="0px"
	 viewBox="0 0 200 200" style="enable-background:new 0 0 200 200;" xml:space="preserve">
<style type="text/css">
	.st0{fill:#1A1621;}
	.st1{fill:#FFFFFF;}
	.st2{fill:#0D090A;}
	.st3{fill:#090A0B;}
	.st4{fill:#231F20;}
	.st5{fill:#5994CE;}
	.st6{fill:#DBDBDA;}
	.st7{clip-path:url(#SVGID_2_);}
</style>
<g>
	<g>
		<g>
			<path d="M31.3,50.5c0,0.1,0,0.2,0,0.3c0,0,0,0.1,0,0.3c-0.6-0.2-1.3-0.2-2.1,0c-0.8,0.2-2.1,1-4.1,2.4c-2,1.4-3.2,2.5-3.4,3.1
				c-0.1,0.2-0.3,0.9-0.5,1.9c-0.1,0.5-0.2,0.9-0.3,1.2c0.3,0,0.5,0,0.6-0.1c0.3-0.1,0.8-0.3,1.4-0.6c0.6-0.3,1-0.5,1.4-0.6
				c0.5-0.1,0.8-0.2,1-0.2c0.4,0,0.7,0,1,0.2c-0.5,0.3-1.5,0.8-2.8,1.5c-0.9,0.5-1.8,1.1-2.6,1.8c-0.4,0.4-0.7,1-0.8,1.9
				c0,0.4-0.1,1.2-0.2,2.3c-0.1,0.8-0.4,1.3-1,1.4l-0.1-0.3c-0.1-0.4,0-1.3,0.2-2.5c0.1-0.6,0.4-1.8,0.8-3.5
				c0.3-1.3,0.4-2.1,0.3-2.4c0-0.2-0.1-0.3-0.3-0.4c-0.4-0.3-0.7-0.4-0.7-0.5l0-0.3L19,57c1-0.5,2.2-1.2,3.5-2.2l3.3-2.6
				c1.1-0.9,2.4-1.5,3.8-1.9C30.4,50,31,50.1,31.3,50.5z"/>
		</g>
		<g>
			<path d="M34.6,55.6c0.1,0.4,0,0.9-0.3,1.6c-0.2,0.4-0.5,1.1-1,2.2c-0.3,0.8-0.4,1.5-0.3,2c0.1,0.3,0.3,0.4,0.7,0.3
				c0.1,0,0.2,0,0.2-0.1l0.1,0c0.1,0,0.3-0.1,0.5-0.1l0.3,0.2c0,0-0.3,0.2-0.7,0.4c-0.3,0.2-0.5,0.3-0.7,0.3c-0.4,0.1-0.7,0.1-0.9,0
				c-0.2-0.1-0.3-0.4-0.5-0.8L32,61.2c0-0.1-0.1-0.2-0.1-0.3c-0.6,0.6-1,1.1-1.2,1.3c-1.1,1-2,1.7-2.9,2c-1,0.3-1.6,0.2-1.7-0.3
				c-0.1-0.4,0.1-1.2,0.7-2.6c0.4-0.9,0.8-1.8,1.3-2.6c0.6-1,1-1.6,1.2-1.6c0.2-0.1,0.3,0,0.4,0.2c0.1,0.3-0.1,0.9-0.6,1.9
				c-0.2,0.4-0.5,1.1-1,2c-0.4,0.9-0.7,1.6-0.7,2.1l0.2,0.1c0.1,0,0.2,0,0.3-0.1c0.1,0,0.2-0.1,0.3-0.1c0.3-0.1,0.6-0.3,0.9-0.5
				c0.2-0.1,0.5-0.4,0.8-0.7c0.9-0.7,1.6-1.4,2-2c0.2-0.3,0.5-0.9,0.8-1.7c0.1-0.4,0.4-1,0.7-2c0.2-0.6,0.5-1,0.7-1.1
				c0.1,0,0.3,0,0.4,0L34.6,55.6z"/>
		</g>
		<g>
			<path d="M43.2,58.6c-0.2,0.4-0.8,0.9-1.9,1.4c-0.7,0.3-1.5,0.6-2.3,0.9c-1.7,0.5-2.7,0.2-2.9-0.7c-0.3-1.2,0.2-2.4,1.7-3.8
				c0.5-0.5,1.1-0.9,1.7-1.3c0.7,0,1.1,0,1.4,0c0.5,0,0.8,0.3,1,0.9c0.2,0.5-0.1,1-0.7,1.5c-0.5,0.4-1,0.7-1.6,0.9
				c-0.9,0.3-1.6,0.3-2.1,0.1c-0.4,0.4-0.6,0.8-0.5,1.1c0.2,0.7,0.9,0.8,2.1,0.5c0.4-0.1,1-0.3,1.5-0.5C41.9,59,42.8,58.7,43.2,58.6
				z M40.8,56.2c-0.4-0.2-0.8-0.3-1.2-0.2c-0.3,0.1-0.6,0.2-0.8,0.4c0,0-0.2,0.2-0.6,0.6c0.4,0.4,0.9,0.5,1.4,0.4
				C40.2,57.3,40.6,56.8,40.8,56.2z"/>
		</g>
		<g>
			<path d="M46.9,48.2c0,0.1-0.1,0.8-0.4,2.2l-0.9,4.1c-0.4,1.7-0.6,2.7-0.6,3l0,1c-0.1,0.4-0.2,0.7-0.5,0.8c-0.1,0-0.3,0.1-0.5,0
				l-0.2-0.2c0-0.5,0.1-1.4,0.4-2.7l1-3.7c0.4-1.4,0.6-2.6,0.6-3.4c0-0.2,0-0.5,0-1c0-0.3,0.2-0.6,0.4-0.8c0.2,0,0.3,0,0.5,0.2
				C46.7,47.9,46.8,48,46.9,48.2z"/>
		</g>
		<g>
			<path d="M54.5,55.1c-0.2,0.4-0.8,0.9-1.9,1.4c-0.7,0.3-1.5,0.6-2.3,0.9c-1.7,0.5-2.7,0.2-2.9-0.7c-0.3-1.2,0.2-2.4,1.7-3.8
				c0.5-0.5,1.1-0.9,1.7-1.3c0.7,0,1.1,0,1.4,0c0.5,0,0.8,0.3,1,0.9c0.2,0.5-0.1,1-0.7,1.5c-0.5,0.4-1,0.7-1.6,0.9
				c-0.9,0.3-1.6,0.3-2.1,0.1c-0.4,0.4-0.6,0.8-0.5,1.1c0.2,0.7,0.9,0.8,2.1,0.5c0.4-0.1,1-0.3,1.5-0.5
				C53.3,55.5,54.1,55.2,54.5,55.1z M52.1,52.7c-0.4-0.2-0.8-0.3-1.2-0.2c-0.3,0.1-0.6,0.2-0.8,0.4c0,0-0.2,0.2-0.6,0.6
				c0.4,0.4,0.9,0.5,1.4,0.4C51.5,53.8,51.9,53.4,52.1,52.7z"/>
		</g>
		<g>
			<path d="M60.8,44.5c0,0.4,0,1.2-0.1,2.2l-0.4,3.1c-0.2,1.3-0.2,2.2-0.2,2.7c0.5-0.1,0.8-0.1,0.9,0c0,0.3-0.2,0.6-0.4,1.1
				c-0.3,0.5-0.5,0.8-0.7,0.8c-0.2,0-0.4,0.1-0.7,0.1c-0.3,0.1-0.5,0.1-0.7,0.1c-0.2,0.1-0.4,0.1-0.8,0.3c-0.3,0.1-0.6,0.2-0.8,0.3
				c-1.3,0.4-2.1,0.2-2.3-0.5c-0.3-0.9,0-1.8,0.7-2.8c0.7-0.9,1.5-1.5,2.4-1.8c0.3-0.1,0.6-0.1,0.9-0.1c0.1,0,0.3,0.1,0.8,0.2
				l0.1-0.2l-0.1-0.3l0.1-0.2c-0.1-0.3-0.1-1.2,0.1-2.8c0.2-1.6,0.3-2.4,0.5-2.5c0.2,0,0.4,0,0.6,0.1L60.8,44.5z M59.1,51.8
				c-0.2-0.8-0.7-1.1-1.4-0.9c-0.5,0.1-1.1,0.5-1.6,1.2c-0.6,0.7-0.9,1.3-0.7,1.8c0.1,0.5,0.9,0.6,2.2,0.2
				C58.9,53.7,59.4,53,59.1,51.8z"/>
		</g>
		<g>
			<path d="M74.5,38.1c0,0.7-0.1,1.5-0.5,2.4c-0.2,0.5-0.6,1.3-1.1,2.6c-0.4,0.9-0.6,1.7-0.5,2.3l2.1-0.2c1,0,1.5,0.4,1.7,1
				c0.3,0.9-0.3,2-1.5,3.4c-1.2,1.2-2.2,2-3.1,2.2c-0.4,0.1-1.2,0.1-2.6,0l-0.1-0.3c0-0.1,0-0.4,0.1-0.6c0.2-0.5,0.5-1.2,1-2.1
				l1-2.1c0.4-0.9,0.7-1.6,0.9-1.9c0.3-0.7,0.5-1.4,0.7-2c0.1-0.6,0.4-1.5,0.7-3C73.2,38.8,73.7,38.3,74.5,38.1z M75.3,46.4
				c-0.1-0.3-0.4-0.5-0.9-0.6c-0.4,0-0.7,0-1.2,0.1c-0.9,0.3-1.7,0.9-2.3,1.8c-0.6,0.9-0.8,1.9-0.5,2.8c0.1,0.4,0.4,0.6,0.9,0.4
				c0.8-0.2,1.6-0.8,2.6-1.9C75,48,75.4,47.1,75.3,46.4z"/>
		</g>
		<g>
			<path d="M83.2,41.5c0.1,0.4,0,1-0.4,1.9c-0.2,0.5-0.6,1.3-1.1,2.5c-0.4,0.9-0.5,1.6-0.4,2.1c0,0.1,0.1,0.2,0.2,0.3
				c-0.7,0.4-1.2,1.2-1.6,2.4l-1.3,4c-0.1,0-0.5-0.1-0.9-0.2c0.1-0.4,0.3-1,0.6-1.9c0.2-0.4,0.5-1.1,0.8-1.9
				c0.3-0.7,0.4-1.2,0.4-1.4c-0.1-0.3-0.4-0.4-0.8-0.2l-0.3,0.1c-0.5,0.1-0.9-0.2-1.3-0.9c-0.3-0.4-0.5-1-0.7-1.6
				c-0.2-0.7-0.4-1.5-0.5-2.5c0.6-0.2,1,0.2,1.3,1.2c0.1,0.2,0.1,0.4,0.2,0.8c0.1,0.4,0.1,0.6,0.2,0.8c0.3,1.2,1,1.7,2.1,1.4
				c0.3-0.1,0.7-0.7,1-1.7c0.1-0.3,0.4-1.4,0.9-3.2c0.4-1.3,0.7-2.1,0.9-2.5c0.1,0,0.2,0.1,0.4,0.2C83.1,41.4,83.2,41.5,83.2,41.5z"
				/>
		</g>
	</g>
	<g>
		<g>
			<path d="M74.5,138c-1.6-0.8-3.7-1.2-6.2-1.2c-2.5,0-4.6,0.5-6.2,1.4c-1.6,1-2.6,2-2.9,3.2c-0.3,1.2-0.5,3-0.5,5.5v7.9
				c0,0.7,0,1.4,0,1.9l-3.6-19.4H42.8l-3.5,21.3h-5.1v-21.3h-8.5v26.6h12.8h0.9h7.9l0.5-4.8h3l0.5,4.8H60l-0.7-3.6
				c0.2,0.4,0.5,0.8,0.8,1.2c0.6,0.8,1.6,1.5,2.8,2.1c1.2,0.6,2.6,0.8,4,0.8c1.2,0,2.2-0.2,3.1-0.6c0.9-0.4,1.6-1,2.2-1.9l0.8,1.9
				h5.4v-14.3h-10v4.1h1.7v3.1c0,1.2-0.1,2.1-0.3,2.5c-0.2,0.4-0.6,0.6-1.3,0.6c-0.6,0-0.9-0.2-1.1-0.6c-0.2-0.4-0.3-1.2-0.3-2.4
				v-12.8c0-1.4,0.1-2.2,0.3-2.5c0.2-0.3,0.5-0.5,1.1-0.5c0.6,0,1,0.2,1.1,0.6c0.2,0.4,0.2,1.3,0.2,2.9v2.4h8.5v-1.2
				c0-2.2-0.3-3.8-0.8-5C77.2,139.8,76.2,138.8,74.5,138 M47.7,154.4c0.2-2.3,0.7-6.1,1.6-11.2c0.4,4.4,0.9,8.2,1.3,11.2H47.7z"/>
		</g>
		<g>
			<path d="M89.9,156.9c0,1.3-0.1,2.2-0.2,2.5c-0.2,0.4-0.5,0.5-1,0.5c-0.5,0-0.8-0.2-0.9-0.5c-0.2-0.3-0.2-1.1-0.2-2.2v-20h-8.5
				V153c0,3,0.1,5,0.2,5.9c0.1,0.9,0.6,1.8,1.3,2.7c0.7,0.8,1.9,1.5,3.4,2.1c1.5,0.5,3.2,0.8,5.2,0.8c1.8,0,3.3-0.2,4.6-0.7
				c1.3-0.4,2.4-1.1,3.2-2c0.8-0.9,1.3-1.7,1.4-2.5c0.2-0.8,0.2-2.2,0.2-4.3v-17.8h-8.5V156.9z"/>
		</g>
		<g>
			<polygon points="110.9,149.2 106.1,137.3 98.9,137.3 98.9,163.9 106.1,163.9 106.1,151.8 110.5,163.9 118,163.9 118,137.3 
				110.9,137.3 			"/>
		</g>
		<g>
			<rect x="118.5" y="137.3" width="8.5" height="26.6"/>
		</g>
		<g>
			<path d="M180.2,151.4c-1-1.2-3.4-2.7-7.2-4.5c-1.3-0.6-2.1-1.2-2.4-1.6c-0.3-0.4-0.4-1.1-0.4-2c0-0.7,0.1-1.2,0.4-1.5
				c0.3-0.3,0.7-0.5,1.2-0.5c0.5,0,0.8,0.1,1,0.4c0.2,0.3,0.3,0.8,0.3,1.8v2h7.9v-1.1c0-2.1-0.3-3.6-0.8-4.5
				c-0.5-0.9-1.5-1.6-3.1-2.2c-1.6-0.6-3.5-0.9-5.7-0.9c-2,0-3.8,0.3-5.2,0.8c-1.4,0.5-2.5,1.3-3.1,2.2c-0.6,0.9-1,2.4-1,4.5
				c0,1.4,0.2,2.6,0.7,3.5c0.5,0.9,1,1.6,1.7,2.1c0.7,0.5,2.1,1.3,4.2,2.5c2.1,1.1,3.5,1.9,4,2.4c0.5,0.5,0.8,1.5,0.8,3.1
				c0,0.7-0.1,1.3-0.4,1.6c-0.3,0.4-0.7,0.5-1.3,0.5c-0.6,0-1-0.1-1.2-0.4c-0.2-0.3-0.3-0.9-0.3-1.9v-3.2h-7.9v1.7
				c0,0.1,0,0.1,0,0.2l-3.5-19h-12.3l-0.6,3.6v-3.6h-18.6v5.3h5.1v21.3h8.5v-21.3h4.8l-3.5,21.3h8.8l0.5-4.8h3l0.5,4.8h8.7l-0.5-3
				c0.5,1,1.6,1.8,3.1,2.5c1.6,0.7,3.6,1,5.8,1c2.1,0,3.9-0.3,5.5-0.9c1.6-0.6,2.6-1.4,3.2-2.3c0.5-0.9,0.8-2.3,0.8-4.2
				C181.7,154.5,181.2,152.6,180.2,151.4 M151.5,154.4c0.2-2.3,0.8-6.1,1.6-11.2c0.4,4.4,0.9,8.2,1.3,11.2H151.5z"/>
		</g>
		<g>
			<path d="M25.7,164.8h4.7c1.5,0,2.6,0.1,3.4,0.2c0.8,0.1,1.4,0.4,1.9,0.8c0.5,0.4,0.7,1.1,0.7,2c0,0.6-0.2,1-0.5,1.3
				c-0.3,0.2-1,0.4-2,0.6c1.1,0.1,1.8,0.4,2.2,0.7c0.4,0.3,0.6,0.8,0.6,1.5v1c0,0.7-0.1,1.2-0.4,1.6c-0.3,0.3-0.7,0.6-1.3,0.7
				c-0.6,0.1-1.9,0.2-3.8,0.2h-5.5V164.8z M30.4,166.5v2.3c0.2,0,0.4,0,0.5,0c0.5,0,0.8-0.1,0.9-0.2c0.1-0.1,0.2-0.5,0.2-1.1
				c0-0.3-0.1-0.6-0.2-0.7c-0.1-0.1-0.2-0.2-0.4-0.2C31.3,166.6,30.9,166.5,30.4,166.5 M30.4,170.5v2.9c0.7,0,1.1-0.1,1.3-0.2
				c0.2-0.1,0.3-0.4,0.3-0.8v-1c0-0.4-0.1-0.7-0.2-0.8C31.6,170.6,31.2,170.5,30.4,170.5"/>
		</g>
		<g>
			<path d="M36.8,164.8h3.4c2.2,0,3.8,0,4.6,0.1c0.8,0.1,1.4,0.4,1.9,0.8c0.5,0.4,0.7,1.1,0.7,1.9c0,0.8-0.2,1.4-0.5,1.6
				c-0.4,0.3-1,0.4-2.1,0.5c0.9,0.1,1.6,0.3,1.9,0.5c0.3,0.2,0.5,0.4,0.6,0.6c0.1,0.2,0.1,0.7,0.1,1.5v2.8H43v-3.5
				c0-0.6-0.1-0.9-0.2-1c-0.2-0.1-0.6-0.2-1.2-0.2v4.7h-4.8V164.8z M41.6,166.5v2.3c0.5,0,0.9,0,1.1-0.1c0.2-0.1,0.3-0.4,0.3-0.8
				v-0.6c0-0.3-0.1-0.5-0.3-0.6C42.5,166.6,42.1,166.5,41.6,166.5"/>
		</g>
		<g>
			<polygon points="47.8,164.8 55.7,164.8 55.7,166.8 52.5,166.8 52.5,168.8 55.5,168.8 55.5,170.8 52.5,170.8 52.5,173.1 56,173.1 
				56,175.2 47.8,175.2 			"/>
		</g>
		<g>
			<path d="M73.8,164.8l-2.1,10.4h-5.9c-0.5-1.6-1-3.4-1.4-5.5c-0.2,0.9-0.6,2.7-1.3,5.5h-5.9L55,164.8h4.6l0.5,3.6l0.5,3.5
				c0.2-1.8,0.6-4.2,1.3-7.2h4.9c0.1,0.3,0.2,1.5,0.5,3.4l0.5,4c0.3-2.5,0.7-5,1.3-7.4H73.8z"/>
		</g>
		<g>
			<rect x="73.2" y="164.8" width="4.8" height="10.4"/>
		</g>
		<g>
			<polygon points="89,164.8 89,175.2 84.8,175.2 82.4,170.5 82.4,175.2 78.4,175.2 78.4,164.8 82.4,164.8 85,169.5 85,164.8 			"/>
		</g>
		<g>
			<path d="M100.3,168.6h-4.8v-1c0-0.6,0-1-0.1-1.1c-0.1-0.2-0.3-0.2-0.6-0.2c-0.3,0-0.5,0.1-0.6,0.2c-0.1,0.1-0.2,0.5-0.2,1v5
				c0,0.5,0.1,0.8,0.2,0.9c0.1,0.1,0.3,0.2,0.6,0.2c0.3,0,0.6-0.1,0.7-0.3c0.1-0.2,0.2-0.5,0.2-1v-1.2h-1v-1.6h5.6v5.6h-3l-0.4-0.7
				c-0.3,0.3-0.7,0.6-1.2,0.7c-0.5,0.2-1.1,0.2-1.7,0.2c-0.8,0-1.5-0.1-2.2-0.3c-0.7-0.2-1.2-0.5-1.6-0.8c-0.4-0.3-0.6-0.7-0.7-1
				c-0.1-0.4-0.1-0.9-0.1-1.6v-3.1c0-1,0.1-1.7,0.3-2.2c0.2-0.5,0.7-0.9,1.6-1.2c0.9-0.4,2-0.6,3.5-0.6c1.4,0,2.5,0.2,3.5,0.5
				c0.9,0.3,1.5,0.7,1.8,1.2c0.3,0.4,0.4,1.1,0.4,2V168.6z"/>
		</g>
		<g>
			<path d="M114.3,169.3h-4.8v-1.8c0-0.5-0.1-0.9-0.2-1c-0.1-0.1-0.3-0.2-0.7-0.2c-0.4,0-0.6,0.1-0.7,0.2c-0.1,0.2-0.2,0.5-0.2,1
				v4.9c0,0.5,0.1,0.8,0.2,1c0.1,0.2,0.3,0.2,0.7,0.2c0.4,0,0.6-0.1,0.7-0.2c0.1-0.2,0.2-0.5,0.2-1.1V171h4.8v0.4
				c0,1.1-0.1,1.8-0.4,2.3c-0.3,0.5-0.9,0.8-1.8,1.2c-0.9,0.3-2,0.5-3.4,0.5c-1.4,0-2.5-0.1-3.4-0.4c-0.9-0.3-1.5-0.7-1.8-1.2
				c-0.3-0.5-0.4-1.3-0.4-2.3v-3c0-0.8,0-1.3,0.1-1.7c0.1-0.4,0.4-0.7,0.8-1.1c0.4-0.3,1.1-0.6,1.9-0.8c0.8-0.2,1.7-0.3,2.7-0.3
				c1.4,0,2.6,0.2,3.5,0.5c0.9,0.3,1.5,0.7,1.8,1.2c0.3,0.5,0.4,1.2,0.4,2.2V169.3z"/>
		</g>
		<g>
			<path d="M125.4,170.9c0,1,0,1.8-0.1,2.2c-0.1,0.4-0.4,0.8-0.8,1.2c-0.5,0.4-1.1,0.6-1.8,0.8c-0.8,0.2-1.7,0.3-2.7,0.3
				c-1,0-1.9-0.1-2.6-0.3c-0.8-0.2-1.4-0.5-1.9-0.8c-0.5-0.4-0.8-0.8-0.8-1.2c-0.1-0.4-0.1-1.2-0.1-2.3v-1.8c0-1.1,0-1.8,0.1-2.2
				c0.1-0.4,0.4-0.8,0.8-1.2c0.5-0.4,1.1-0.6,1.8-0.8c0.8-0.2,1.7-0.3,2.7-0.3c1,0,1.9,0.1,2.6,0.3c0.8,0.2,1.4,0.5,1.9,0.8
				c0.5,0.4,0.8,0.8,0.8,1.2c0.1,0.4,0.1,1.2,0.1,2.3V170.9z M120.6,167.4c0-0.5,0-0.8-0.1-0.9c-0.1-0.1-0.3-0.2-0.6-0.2
				c-0.2,0-0.4,0.1-0.6,0.2c-0.1,0.1-0.2,0.4-0.2,1v4.9c0,0.6,0,1,0.1,1.1c0.1,0.1,0.3,0.2,0.6,0.2c0.3,0,0.5-0.1,0.6-0.2
				c0.1-0.2,0.1-0.6,0.1-1.2V167.4z"/>
		</g>
		<g>
			<path d="M140.3,164.8v10.4h-4.2l0-7l-1.7,7h-2.9l-1.7-6.9l0,6.9h-4.2v-10.4h6.1c0.2,0.6,0.4,1.4,0.6,2.2l0.7,2.7l1.1-4.9H140.3z"
				/>
		</g>
		<g>
			<path d="M140.7,164.8h4.8c1.3,0,2.3,0.1,3,0.2c0.7,0.1,1.2,0.3,1.6,0.5c0.3,0.2,0.6,0.5,0.7,0.8c0.1,0.3,0.2,0.8,0.2,1.4v0.9
				c0,0.7-0.1,1.2-0.4,1.5c-0.2,0.3-0.7,0.5-1.3,0.7c-0.6,0.2-1.5,0.2-2.5,0.2h-1.3v4.2h-4.8V164.8z M145.5,166.5v2.7
				c0.1,0,0.3,0,0.3,0c0.4,0,0.7-0.1,0.9-0.2c0.2-0.1,0.3-0.4,0.3-0.8v-0.9c0-0.4-0.1-0.6-0.3-0.7
				C146.5,166.6,146.1,166.5,145.5,166.5"/>
		</g>
		<g>
			<path d="M158.5,164.8l2.7,10.4h-4.9l-0.3-1.9h-1.7l-0.3,1.9h-4.9l2.4-10.4H158.5z M155.9,171.5c-0.2-1.2-0.5-2.7-0.7-4.4
				c-0.5,2-0.8,3.5-0.9,4.4H155.9z"/>
		</g>
		<g>
			<polygon points="171.1,164.8 171.1,175.2 166.9,175.2 164.5,170.5 164.5,175.2 160.5,175.2 160.5,164.8 164.5,164.8 167.1,169.5 
				167.1,164.8 			"/>
		</g>
		<g>
			<path d="M181.6,164.8l-3.5,6.7v3.8h-4.4v-3.8l-3.3-6.7h4.4c0.7,2,1.1,3.4,1.1,4.1c0.3-1.1,0.7-2.5,1.3-4.1H181.6z"/>
		</g>
	</g>
	<g>
		<g>
			<g>
				<path class="st0" d="M56.3,72.4c0,0,4.6-1.2,8.9-0.8c4.3,0.4,7.6,2.4,7.6,2.4l-0.1,1.2c0,0-4.1-2.1-7.5-2.3
					c-3.4-0.3-8.9,1-8.9,1L56.3,72.4z"/>
			</g>
		</g>
		<g>
			<g>
				<path class="st1" d="M57.3,73.8c0,0,0.5-1.4-0.7-1.4c-1.1-0.1-6.3-0.3-6.3-0.3s-0.9,0-1.1,1.2C49.2,74.4,57.3,73.8,57.3,73.8z"
					/>
			</g>
			<g>
				<path d="M53.3,74.1c-1.8,0-3.5-0.1-4-0.6c-0.1-0.1-0.1-0.3-0.1-0.4c0.2-1.3,1.2-1.3,1.2-1.3c0.1,0,5.2,0.2,6.3,0.3
					c0.3,0,0.6,0.1,0.8,0.4c0.3,0.5,0.1,1.2,0.1,1.3l0,0.1l-0.1,0C57,74,55.1,74.1,53.3,74.1z M50.4,72.2c0,0-0.8,0-0.9,1
					c0,0,0,0,0,0.1c0.6,0.6,4.9,0.5,7.7,0.3c0.1-0.2,0.1-0.6,0-0.9c-0.1-0.1-0.3-0.2-0.5-0.2C55.5,72.5,50.4,72.2,50.4,72.2z"/>
			</g>
		</g>
		<g>
			<g>
				<path class="st1" d="M76.8,74.8c0,0,0-0.7-1-0.8c-1.1-0.1-3.9-0.5-3.9-0.5s-0.3,0.3-0.2,1.2C71.7,75.5,76.8,74.8,76.8,74.8z"/>
			</g>
			<g>
				<path d="M73.3,75.2c-0.8,0-1.4-0.1-1.7-0.3c-0.1-0.1-0.2-0.2-0.2-0.3c-0.1-0.9,0.2-1.3,0.2-1.3l0.1-0.1l0.1,0
					c0,0,2.8,0.4,3.9,0.5c1.2,0.2,1.2,1,1.2,1l0,0.1l-0.1,0C76.5,75,74.8,75.2,73.3,75.2z M72,73.6c-0.1,0.1-0.2,0.4-0.1,1
					c0,0,0,0,0,0.1c0.5,0.4,3.1,0.2,4.7-0.1c-0.1-0.2-0.3-0.4-0.9-0.5C74.8,74,72.5,73.7,72,73.6z"/>
			</g>
		</g>
		<g>
			<g>
				<polygon class="st2" points="29.6,128 29.7,77.8 39.7,72.7 42.7,84.3 42.5,138.7 				"/>
			</g>
		</g>
		<g>
			<g>
				<g>
					<polygon class="st1" points="42.7,84.2 39.9,72.9 87.8,75.6 92.2,85 					"/>
				</g>
			</g>
			<g>
				<g>
					<path d="M40.1,73.1l47.6,2.7l4.3,9L42.8,84L40.1,73.1 M39.7,72.7l2.9,11.6l50,0.9l-4.6-9.7L39.7,72.7L39.7,72.7z"/>
				</g>
			</g>
		</g>
		<g>
			<g>
				<polygon class="st2" points="42.5,84.3 42.3,138.3 45.9,139.2 90.1,125.9 92,123.2 92.5,85.2 				"/>
			</g>
		</g>
		<g>
			<g>
				<polygon class="st3" points="45.7,84.2 42.8,75.1 86.7,77.4 90.2,85.2 				"/>
			</g>
		</g>
		<g>
			<g>
				<g>
					<polygon class="st1" points="45.8,84.1 43.4,76.5 85.8,78.3 88.6,84.9 					"/>
				</g>
			</g>
			<g>
				<g>
					<path d="M43.7,76.7l42.1,1.8l2.7,6.2l-42.4-0.8L43.7,76.7 M43.2,76.3l2.5,8l43.2,0.8l-3-6.9L43.2,76.3L43.2,76.3z"/>
				</g>
			</g>
		</g>
		<g>
			<g>
				<path class="st1" d="M92.3,119.8c0,0-0.7,0.9-2.4,0.7c0,0-0.3,0-0.2,0.9c0.1,0.9,0.2,1.6-0.1,2.2c-0.4,0.6-2.7,0.7-2.7,0.7
					s-0.7,0.3-0.5,1.3c0.2,1,0.7,1.7,1.6,1.6c0.5-0.1,3.6-1.1,3.6-1.1s1.2-0.3,1.2-1.4c0-0.8-0.1-4.9-0.1-4.9S92.4,119.7,92.3,119.8
					z"/>
			</g>
			<g>
				<path d="M87.7,127.5c-0.6,0-1.3-0.3-1.6-1.8c-0.2-0.9,0.3-1.4,0.6-1.5c0,0,0,0,0.1,0c0.9,0,2.4-0.2,2.6-0.6
					c0.3-0.5,0.2-0.9,0.2-1.6c0-0.2,0-0.3,0-0.5c0-0.5,0-0.8,0.2-1c0.1-0.1,0.2-0.1,0.2-0.1c1.6,0.1,2.2-0.6,2.3-0.7c0,0,0,0,0,0
					c0.1-0.1,0.2-0.1,0.3,0c0.1,0,0.1,0.1,0.2,0.2c0,0.1,0.1,4.1,0.1,4.9c0,1-0.9,1.5-1.3,1.6c-0.3,0.1-3.1,1.1-3.6,1.1
					C87.8,127.5,87.7,127.5,87.7,127.5z M86.8,124.5c-0.1,0.1-0.5,0.3-0.4,1.1c0.2,1.1,0.7,1.6,1.4,1.5c0.4,0,2.7-0.8,3.5-1.1
					c0.1,0,1.1-0.3,1.1-1.3c0-0.7-0.1-3.9-0.1-4.7c-0.3,0.3-1,0.8-2.4,0.7c0,0-0.1,0.2-0.1,0.7c0,0.2,0,0.4,0,0.5
					c0.1,0.7,0.1,1.3-0.2,1.8C89.2,124.4,87.3,124.5,86.8,124.5z"/>
			</g>
		</g>
		<g>
			<g>
				<path class="st3" d="M57.3,80.3c0.3,1.2-0.6,2.1-2,2.2c-1.4,0-2.8-0.9-3.1-2c-0.3-1.2,0.6-2.1,2-2.2
					C55.6,78.2,57,79.1,57.3,80.3z"/>
			</g>
		</g>
		<g>
			<g>
				<path class="st1" d="M56.9,79.7c0.2,0.7-0.4,1.3-1.2,1.3c-0.8,0-1.7-0.5-1.8-1.2c-0.2-0.7,0.4-1.3,1.2-1.3
					C55.9,78.5,56.7,79,56.9,79.7z"/>
			</g>
		</g>
		<g>
			<g>
				<path class="st1" d="M55,82.1L55,82.1L55,82.1l0.1,0L55,82.1L55,82.1l-0.1-0.4l0.1,0L55,82.1z"/>
			</g>
		</g>
		<g>
			<g>
				<path class="st1" d="M54.1,81.5L54.1,81.5l-0.1,0c-0.2,0-0.3,0-0.3,0.1c0,0,0,0.1,0,0.1c0,0,0.1,0,0.1,0l0,0c-0.1,0-0.1,0-0.2,0
					c-0.1-0.1-0.1-0.1-0.1-0.2c0.1-0.1,0.2-0.1,0.3-0.1l0.1,0v0l-0.2-0.1l0,0L54.1,81.5z"/>
			</g>
		</g>
		<g>
			<g>
				<path class="st1" d="M53.2,80.9c0,0,0-0.1,0-0.1c0-0.1-0.1-0.1-0.2-0.1c-0.1,0-0.1,0.1,0,0.1l0,0l-0.1,0l0,0
					c0,0-0.1-0.1-0.2-0.1c0,0-0.1,0,0,0.1c0,0,0.1,0.1,0.1,0.1l0,0c0,0-0.1-0.1-0.1-0.1c-0.1-0.1,0-0.1,0-0.2c0.1,0,0.1,0,0.2,0h0
					c0-0.1,0-0.1,0.1-0.1c0.1,0,0.2,0,0.3,0.1C53.3,80.8,53.3,80.9,53.2,80.9L53.2,80.9z"/>
			</g>
		</g>
		<g>
			<g>
				<path class="st1" d="M53.1,79.9l-0.2,0l0,0.2l-0.1,0l-0.3-0.3l0-0.1l0.4,0.1l0-0.1l0.1,0l0,0.1L53.1,79.9L53.1,79.9z M52.8,79.8
					l-0.2,0c0,0-0.1,0-0.1,0l0,0c0,0,0.1,0,0.1,0.1l0.2,0.2h0L52.8,79.8z"/>
			</g>
		</g>
		<g>
			<g>
				<path class="st1" d="M53.2,78.8L53,79l0.1,0.1c0,0,0,0,0,0c0,0,0.1,0,0.1,0c0.1,0,0.1,0,0.2,0.1c0.1,0.1,0.1,0.2,0,0.2
					c0,0-0.1,0-0.1,0.1l0,0c0,0,0.1,0,0.1,0c0,0,0.1-0.1,0-0.1c-0.1,0-0.1-0.1-0.2,0c0,0,0,0-0.1,0L53,78.9L53.2,78.8L53.2,78.8z"/>
			</g>
		</g>
		<g>
			<g>
				<path class="st1" d="M54.4,78.5C54.4,78.5,54.3,78.5,54.4,78.5c-0.2,0-0.2,0.1-0.2,0.2h0c0,0,0.1-0.1,0.1-0.1
					c0.1,0,0.2,0.1,0.2,0.1c0,0.1,0,0.2-0.1,0.2c-0.1,0-0.2-0.1-0.3-0.2c0-0.1,0-0.2,0-0.2C54.2,78.5,54.2,78.5,54.4,78.5
					C54.3,78.5,54.4,78.5,54.4,78.5L54.4,78.5z M54.4,78.8c0-0.1-0.1-0.1-0.1-0.1c0,0-0.1,0-0.1,0.1c0,0,0,0,0,0
					c0,0.1,0.1,0.1,0.2,0.1C54.4,78.9,54.5,78.9,54.4,78.8z"/>
			</g>
		</g>
		<g>
			<g>
				<path class="st1" d="M55.8,78.8L55.8,78.8l-0.5,0.3l-0.1,0l0.4-0.2l0,0l-0.3-0.1l0,0L55.8,78.8z"/>
			</g>
		</g>
		<g>
			<g>
				<path class="st1" d="M56.4,79.6c0-0.1,0-0.1,0.1-0.1c0.1,0,0.2,0,0.2,0.1c0.1,0.1,0,0.1,0,0.2c0,0-0.1,0-0.2,0l0,0
					c0,0.1,0,0.1-0.1,0.1c-0.1,0-0.2,0-0.3-0.1c-0.1-0.1-0.1-0.2,0-0.2C56.3,79.6,56.3,79.6,56.4,79.6L56.4,79.6z M56.4,79.8
					c0.1,0,0.1-0.1,0-0.1c-0.1,0-0.1-0.1-0.2,0c-0.1,0-0.1,0.1,0,0.1C56.3,79.8,56.3,79.8,56.4,79.8z M56.5,79.6c0,0-0.1,0.1,0,0.1
					c0,0,0.1,0,0.1,0c0,0,0.1-0.1,0-0.1C56.6,79.6,56.5,79.5,56.5,79.6z"/>
			</g>
		</g>
		<g>
			<g>
				<path class="st1" d="M56.6,81.7L56.6,81.7L56.6,81.7L56.6,81.7L56.6,81.7L56.6,81.7l-0.5-0.3l0,0L56.6,81.7z"/>
			</g>
		</g>
		<g>
			<g>
				<path class="st1" d="M56.3,81.9L56.3,81.9L56.3,81.9L56.3,81.9L56.3,81.9L56.3,81.9l-0.4-0.3l0.1,0L56.3,81.9z"/>
			</g>
		</g>
		<g>
			<g>
				<path class="st1" d="M57.1,80.4L57.1,80.4L57.1,80.4L57.1,80.4L57.1,80.4L57.1,80.4l-0.5,0l0-0.1L57.1,80.4z"/>
			</g>
		</g>
		<g>
			<g>
				<path class="st1" d="M56.6,80.9c-0.2-0.1-0.3-0.1-0.2-0.2c0-0.1,0.2-0.1,0.4-0.1c0.2,0,0.2,0.1,0.2,0.2
					C56.9,80.9,56.8,81,56.6,80.9z M56.8,80.7c-0.1,0-0.2,0-0.3,0c0,0.1,0,0.1,0.2,0.1c0.1,0,0.2,0,0.3,0
					C57,80.8,56.9,80.7,56.8,80.7z"/>
			</g>
		</g>
		<g>
			<g>
				<path class="st3" d="M64.7,80.6c0.3,1.1-0.6,2-1.9,2.1c-1.4,0-2.7-0.8-3-1.9c-0.3-1.1,0.6-2,1.9-2.1
					C63.1,78.6,64.4,79.5,64.7,80.6z"/>
			</g>
		</g>
		<g>
			<g>
				<path class="st1" d="M64.2,80c0.2,0.6-0.3,1.2-1.1,1.2c-0.8,0-1.6-0.5-1.7-1.1c-0.2-0.6,0.3-1.2,1.1-1.2
					C63.2,78.9,64,79.4,64.2,80z"/>
			</g>
		</g>
		<g>
			<g>
				<path class="st3" d="M70.1,80.7c0.3,1.1-0.6,2-1.9,2c-1.3,0-2.6-0.8-2.9-1.9c-0.3-1.1,0.6-2,1.9-2
					C68.6,78.8,69.8,79.7,70.1,80.7z"/>
			</g>
		</g>
		<g>
			<g>
				<path class="st1" d="M69.6,80.2c0.2,0.6-0.3,1.2-1.1,1.2c-0.8,0-1.5-0.5-1.7-1.1c-0.2-0.6,0.3-1.1,1.1-1.2
					C68.7,79.1,69.4,79.5,69.6,80.2z"/>
			</g>
		</g>
		<g>
			<g>
				<path class="st3" d="M75.6,80.9c0.3,1.1-0.5,1.9-1.8,2c-1.3,0-2.6-0.8-2.8-1.8c-0.3-1,0.5-1.9,1.8-2
					C74.1,79,75.3,79.8,75.6,80.9z"/>
			</g>
		</g>
		<g>
			<g>
				<path class="st1" d="M75.2,80.3c0.2,0.6-0.3,1.1-1.1,1.2c-0.8,0-1.5-0.5-1.7-1.1c-0.2-0.6,0.3-1.1,1.1-1.2
					C74.3,79.2,75,79.7,75.2,80.3z"/>
			</g>
		</g>
		<g>
			<g>
				<path class="st3" d="M80.8,81.2c0.2,1-0.5,1.8-1.6,1.8c-1.1,0-2.2-0.7-2.5-1.7c-0.2-1,0.5-1.8,1.6-1.8
					C79.4,79.5,80.5,80.3,80.8,81.2z"/>
			</g>
		</g>
		<g>
			<g>
				<path class="st1" d="M80.4,80.7c0.1,0.6-0.3,1-0.9,1.1c-0.7,0-1.3-0.4-1.4-1c-0.1-0.6,0.3-1,0.9-1.1
					C79.6,79.7,80.3,80.2,80.4,80.7z"/>
			</g>
		</g>
		<g>
			<g>
				<g>
					<path class="st3" d="M48,80.1c0.1,0.6-0.4,1.1-1,1c-0.6-0.1-1.2-0.7-1.3-1.3c-0.1-0.6,0.4-1.1,1-1C47.3,78.9,47.9,79.5,48,80.1
						z"/>
				</g>
			</g>
			<g>
				<g>
					<path class="st1" d="M47.8,80.1c0.1,0.5-0.3,0.9-0.9,0.8c-0.5-0.1-1-0.6-1.1-1.1c-0.1-0.5,0.3-0.9,0.9-0.8
						C47.3,79.1,47.8,79.6,47.8,80.1z"/>
				</g>
			</g>
			<g>
				<g>
					<path class="st3" d="M47.4,80c0,0.3-0.2,0.5-0.5,0.5c-0.3,0-0.6-0.3-0.6-0.6c0-0.3,0.2-0.5,0.5-0.5
						C47.1,79.4,47.4,79.6,47.4,80z"/>
				</g>
			</g>
		</g>
		<g>
			<g>
				<g>
					<path class="st3" d="M85.2,81.3c0,0.5-0.3,0.8-0.8,0.8c-0.5-0.1-0.9-0.5-1-1c0-0.5,0.3-0.8,0.8-0.8
						C84.7,80.4,85.2,80.8,85.2,81.3z"/>
				</g>
			</g>
			<g>
				<g>
					<path class="st1" d="M85.1,81.3c0,0.4-0.3,0.7-0.7,0.7c-0.4-0.1-0.8-0.4-0.8-0.9c0-0.4,0.3-0.7,0.7-0.7
						C84.7,80.5,85.1,80.9,85.1,81.3z"/>
				</g>
			</g>
			<g>
				<g>
					<path class="st3" d="M84.8,81.2c0,0.2-0.1,0.4-0.4,0.4c-0.2,0-0.4-0.3-0.5-0.5c0-0.2,0.1-0.4,0.4-0.4
						C84.5,80.7,84.7,80.9,84.8,81.2z"/>
				</g>
			</g>
		</g>
		<g>
			<g>
				<g>
					<path class="st3" d="M51.1,80.2c0.1,0.6-0.3,1.1-1,1c-0.6,0-1.2-0.6-1.3-1.2c-0.1-0.6,0.3-1.1,1-1C50.4,79.1,51,79.6,51.1,80.2
						z"/>
				</g>
			</g>
			<g>
				<g>
					<path class="st1" d="M50.9,80.2c0.1,0.5-0.3,0.9-0.8,0.9c-0.5,0-1.1-0.5-1.1-1c-0.1-0.5,0.3-0.9,0.8-0.9
						C50.3,79.2,50.8,79.7,50.9,80.2z"/>
				</g>
			</g>
			<g>
				<g>
					<path class="st3" d="M50.5,80.1c0,0.3-0.2,0.5-0.5,0.5c-0.3,0-0.6-0.3-0.6-0.6c0-0.3,0.2-0.5,0.5-0.5
						C50.1,79.5,50.4,79.8,50.5,80.1z"/>
				</g>
			</g>
		</g>
		<g>
			<g>
				<line class="st1" x1="57.5" y1="77" x2="60.3" y2="84.8"/>
			</g>
			<g>
				<path d="M60.3,85c-0.1,0-0.1,0-0.2-0.1l-2.8-7.8c0-0.1,0-0.2,0.1-0.2c0.1,0,0.2,0,0.2,0.1l2.8,7.8C60.5,84.8,60.5,84.9,60.3,85
					C60.3,85,60.3,85,60.3,85z"/>
			</g>
		</g>
		<g>
			<g>
				<line class="st1" x1="80.3" y1="77.9" x2="83.2" y2="85.4"/>
			</g>
			<g>
				<path d="M83.2,85.6c-0.1,0-0.1,0-0.2-0.1l-3-7.4c0-0.1,0-0.2,0.1-0.2c0.1,0,0.2,0,0.2,0.1l3,7.4C83.4,85.4,83.4,85.5,83.2,85.6
					C83.3,85.6,83.3,85.6,83.2,85.6z"/>
			</g>
		</g>
		<g>
			<g>
				<polygon class="st1" points="45.7,84.4 45.7,136.1 89.6,123.8 90.2,85.1 				"/>
			</g>
			<g>
				<path d="M45.7,136.2c0,0-0.1,0-0.1,0c0,0-0.1-0.1-0.1-0.1l0-51.7c0,0,0-0.1,0.1-0.1c0,0,0.1-0.1,0.1,0l44.5,0.7
					c0.1,0,0.2,0.1,0.2,0.2l-0.6,38.7c0,0.1-0.1,0.1-0.1,0.2L45.7,136.2C45.7,136.2,45.7,136.2,45.7,136.2z M45.9,84.6l0,51.3
					l43.6-12.2L90,85.2L45.9,84.6z"/>
			</g>
		</g>
		<g>
			<g>
				<g>
					<path class="st2" d="M46.4,85.6v-0.2l43.3,0.3l0,0.3l-0.5,37.3L46.6,135l-0.2,0.1L46.4,85.6z M89.4,86l-42.3,0.1l0,48.2
						l41.7-11.2L89.4,86z"/>
				</g>
			</g>
		</g>
		<g>
			<g>
				<path class="st1" d="M39.9,133.5l2.6,2.2l0.2,0.2c0,0,1.1,0.7,3.2,0.1c0,0,1.4-0.3,1.4,1c0,1.3,0.6,2.1,0,2.4
					c-0.6,0.3-2.4,1.2-3.8,0.4c-1.4-0.9-2.1-1.7-2.1-1.7l-1.5-1.5L39.9,133.5z"/>
			</g>
			<g>
				<path class="st2" d="M44.8,140.2c-0.5,0-0.9-0.1-1.4-0.4c-1.4-0.9-2.1-1.7-2.1-1.7l-1.5-1.4c0,0-0.1-0.1-0.1-0.1l0-3
					c0-0.1,0-0.1,0.1-0.2c0.1,0,0.1,0,0.2,0l2.6,2.2l0.2,0.1c0,0,1.1,0.7,3.1,0.1c0,0,0.8-0.2,1.2,0.2c0.3,0.2,0.4,0.5,0.4,0.9
					c0,0.5,0.1,0.9,0.2,1.3c0.1,0.6,0.2,1-0.3,1.3c-0.1,0-0.1,0.1-0.2,0.1C46.6,139.8,45.7,140.2,44.8,140.2z M40,136.5l1.5,1.4
					c0,0,0.8,0.8,2.1,1.7c1.1,0.7,2.7,0,3.4-0.3c0.1,0,0.2-0.1,0.2-0.1c0.2-0.1,0.2-0.3,0.1-0.9c-0.1-0.4-0.2-0.8-0.2-1.3
					c0-0.3-0.1-0.5-0.3-0.7c-0.3-0.3-0.9-0.1-0.9-0.1c-2.2,0.7-3.3-0.1-3.4-0.1l-0.2-0.2l-2.3-2L40,136.5z"/>
			</g>
		</g>
		<g>
			<g>
				<path class="st1" d="M86.9,102c0,0,0.3-2,0.3-6.1c0-4-0.2-7.9-0.2-7.9"/>
				<path d="M86.9,102.1C86.9,102.1,86.9,102.1,86.9,102.1C86.9,102.1,86.8,102.1,86.9,102.1c-0.1-0.1,0.2-2.2,0.2-6.2
					c0-4-0.2-7.9-0.2-7.9c0,0,0-0.1,0.1-0.1c0,0,0.1,0,0.1,0.1c0,0,0.2,3.9,0.2,7.9C87.3,100,87,102,86.9,102.1
					C87,102.1,87,102.1,86.9,102.1z"/>
			</g>
			<g>
				<path class="st1" d="M85.2,88c0,0,0.2,3.4,0.2,6.9c0,3.5-0.2,5.3-0.2,5.3"/>
				<path d="M85.1,100.2C85.1,100.2,85.1,100.2,85.1,100.2c-0.1,0-0.1-0.1-0.1-0.1c0,0,0.2-1.8,0.2-5.2c0-3.4-0.2-6.8-0.2-6.9
					c0-0.1,0-0.1,0.1-0.1c0.1,0,0.1,0,0.1,0.1c0,0,0.2,3.5,0.2,6.9C85.5,98.3,85.2,100.1,85.1,100.2
					C85.2,100.2,85.2,100.2,85.1,100.2z"/>
			</g>
			<g>
				<path class="st1" d="M83.3,88c0,0,0.2,2.9,0.2,5.8c0,2.9-0.2,4.5-0.2,4.5"/>
				<path d="M83.3,98.4C83.3,98.4,83.3,98.4,83.3,98.4c-0.1,0-0.1-0.1-0.1-0.1c0,0,0.2-1.6,0.2-4.4c0-2.9-0.2-5.8-0.2-5.8
					c0-0.1,0-0.1,0.1-0.1c0.1,0,0.1,0,0.1,0.1c0,0,0.2,3,0.2,5.8c0,2.9-0.2,4.5-0.2,4.5C83.4,98.3,83.4,98.4,83.3,98.4z"/>
			</g>
			<g>
				<path class="st1" d="M81.5,87.9c0,0,0.1,2.5,0.1,4.8c0,2.3-0.2,3.6-0.2,3.6"/>
				<path d="M81.5,96.5C81.5,96.5,81.5,96.5,81.5,96.5c-0.1,0-0.1-0.1-0.1-0.1c0,0,0.2-1.4,0.2-3.6c0-2.3-0.1-4.8-0.1-4.8
					c0-0.1,0-0.1,0.1-0.1c0.1,0,0.1,0,0.1,0.1c0,0,0.1,2.5,0.1,4.8c0,2.3-0.2,3.6-0.2,3.7C81.6,96.4,81.5,96.5,81.5,96.5z"/>
			</g>
			<g>
				<path class="st1" d="M79.7,87.9c0,0,0.1,2,0.1,3.8c0,1.7-0.1,2.8-0.1,2.8"/>
				<path d="M79.7,94.6C79.7,94.6,79.7,94.6,79.7,94.6c-0.1,0-0.1-0.1-0.1-0.2c0,0,0.1-1.1,0.1-2.8c0-1.7-0.1-3.7-0.1-3.7
					c0-0.1,0.1-0.1,0.1-0.1c0.1,0,0.1,0.1,0.1,0.1c0,0,0.1,2,0.1,3.8c0,1.7-0.1,2.8-0.1,2.9C79.8,94.6,79.7,94.6,79.7,94.6z"/>
			</g>
			<g>
				<path class="st1" d="M77.9,87.9c0,0,0.1,1.6,0.1,2.7c0,1.2-0.1,2-0.1,2"/>
				<path d="M77.9,92.7C77.8,92.7,77.8,92.7,77.9,92.7c-0.1,0-0.2-0.1-0.1-0.2c0,0,0.1-0.9,0.1-2c0-1.1-0.1-2.7-0.1-2.7
					c0-0.1,0.1-0.2,0.1-0.2c0.1,0,0.2,0.1,0.2,0.1c0,0,0.1,1.6,0.1,2.7c0,1.1-0.1,2-0.1,2C78,92.7,77.9,92.7,77.9,92.7z"/>
			</g>
			<g>
				<path class="st1" d="M76,87.8c0,0,0,1.1,0,1.7c0,0.6,0,1.2,0,1.2"/>
				<path d="M76,90.9C76,90.9,76,90.9,76,90.9c-0.1,0-0.2-0.1-0.2-0.2c0,0,0-0.7,0-1.2c0-0.6,0-1.7,0-1.7c0-0.1,0.1-0.2,0.2-0.2
					c0.1,0,0.2,0.1,0.2,0.2c0,0,0,1.1,0,1.7c0,0.6,0,1.2,0,1.2C76.2,90.8,76.1,90.9,76,90.9z"/>
			</g>
			<g>
				<line class="st1" x1="74.2" y1="87.8" x2="74.2" y2="88.8"/>
				<path d="M74.2,89C74.2,89,74.2,89,74.2,89c-0.1,0-0.2-0.1-0.2-0.2l0-1.1c0-0.1,0.1-0.2,0.2-0.2c0,0,0,0,0,0
					c0.1,0,0.2,0.1,0.2,0.2l0,1.1C74.4,88.9,74.3,89,74.2,89z"/>
			</g>
		</g>
		<g>
			<g>
				<path d="M87.8,90C87.8,90,87.8,90,87.8,90c-0.1,0-2.2-1.4-3.9-2c0,0-0.1-0.1-0.1-0.1c0,0,0.1-0.1,0.1-0.1c1.7,0.6,3.8,2,3.9,2
					C87.9,89.8,87.9,89.9,87.8,90C87.9,89.9,87.8,90,87.8,90z"/>
			</g>
			<g>
				<path d="M87.7,92C87.7,92,87.7,92,87.7,92c-0.1-0.1-3.2-2.9-5.9-4.1c-0.1,0-0.1-0.1-0.1-0.1c0-0.1,0.1-0.1,0.1-0.1
					c2.7,1.3,5.9,4.1,5.9,4.2C87.8,91.9,87.8,92,87.7,92C87.8,92,87.7,92,87.7,92z"/>
			</g>
			<g>
				<path d="M87.6,94.1C87.6,94.1,87.6,94.1,87.6,94.1c-0.1-0.1-4.3-4.4-7.9-6.3c-0.1,0-0.1-0.1-0.1-0.2c0-0.1,0.1-0.1,0.2-0.1
					c3.7,1.9,7.9,6.3,7.9,6.3C87.8,94,87.8,94,87.6,94.1C87.7,94.1,87.6,94.1,87.6,94.1z"/>
			</g>
			<g>
				<path d="M87.5,96.2c0,0-0.1,0-0.1,0c-0.1-0.1-5.2-5.9-9.9-8.4c-0.1,0-0.1-0.1-0.1-0.2c0-0.1,0.1-0.1,0.2-0.1
					c4.7,2.5,9.9,8.4,10,8.4C87.7,96,87.7,96.1,87.5,96.2C87.6,96.2,87.6,96.2,87.5,96.2z"/>
			</g>
			<g>
				<path d="M87.4,98.3c0,0-0.1,0-0.1-0.1c-0.1-0.1-6.3-7.4-11.9-10.5c-0.1,0-0.1-0.1-0.1-0.2c0-0.1,0.1-0.1,0.2-0.1
					c5.7,3.2,11.9,10.5,12,10.6c0.1,0.1,0,0.2,0,0.2C87.5,98.3,87.5,98.3,87.4,98.3z"/>
			</g>
			<g>
				<path d="M87.3,100.3c-0.1,0-0.1,0-0.1-0.1c-0.1-0.1-7.3-8.9-13.9-12.7c-0.1,0-0.1-0.2-0.1-0.2c0-0.1,0.2-0.1,0.2-0.1
					c6.7,3.8,14,12.7,14,12.7c0.1,0.1,0,0.2,0,0.2C87.4,100.3,87.4,100.3,87.3,100.3z"/>
			</g>
		</g>
		<g>
			<g>
				<path class="st1" d="M49.5,110.6c0,0-0.2,5.1-0.1,9.1c0.1,4,0.4,7.9,0.4,7.9"/>
				<path d="M49.7,127.8c-0.1,0-0.2-0.1-0.2-0.2c0,0-0.3-3.9-0.4-7.9c-0.1-4,0.1-9.1,0.1-9.1c0-0.1,0.1-0.2,0.2-0.2
					c0.1,0,0.2,0.1,0.2,0.2c0,0.1-0.2,5.1-0.1,9.1c0.1,4,0.4,7.9,0.4,7.9C49.9,127.7,49.8,127.8,49.7,127.8
					C49.7,127.8,49.7,127.8,49.7,127.8z"/>
			</g>
			<g>
				<path class="st1" d="M51.5,127.3c0,0-0.3-3.5-0.3-7.1c-0.1-3.6,0.1-8.2,0.1-8.2"/>
				<path d="M51.5,127.4c-0.1,0-0.2-0.1-0.2-0.2c0,0-0.3-3.5-0.3-7.1c-0.1-3.6,0.1-8.1,0.1-8.2c0-0.1,0.1-0.2,0.2-0.2
					c0.1,0,0.2,0.1,0.2,0.2c0,0-0.2,4.6-0.1,8.2c0.1,3.5,0.3,7,0.3,7.1C51.7,127.4,51.6,127.4,51.5,127.4
					C51.5,127.4,51.5,127.4,51.5,127.4z"/>
			</g>
			<g>
				<path class="st1" d="M53.3,126.9c0,0-0.2-3.1-0.3-6.3c0-3.1,0.1-7.2,0.1-7.2"/>
				<path d="M53.3,127.1c-0.1,0-0.1-0.1-0.2-0.1c0,0-0.2-3.2-0.3-6.3c0-3.1,0.1-7.2,0.1-7.2c0-0.1,0.1-0.2,0.2-0.1
					c0.1,0,0.2,0.1,0.1,0.2c0,0-0.1,4.1-0.1,7.2c0,3.1,0.3,6.2,0.3,6.3C53.5,127,53.4,127.1,53.3,127.1
					C53.3,127.1,53.3,127.1,53.3,127.1z"/>
			</g>
			<g>
				<path class="st1" d="M55.1,126.5c0,0-0.2-2.8-0.3-5.4c0-2.7,0.1-6.3,0.1-6.3"/>
				<path d="M55.1,126.7c-0.1,0-0.1-0.1-0.1-0.1c0,0-0.2-2.8-0.3-5.5c0-2.7,0.1-6.3,0.1-6.3c0-0.1,0.1-0.1,0.1-0.1
					c0.1,0,0.1,0.1,0.1,0.1c0,0-0.1,3.6-0.1,6.3c0,2.7,0.3,5.4,0.3,5.4C55.2,126.6,55.2,126.7,55.1,126.7
					C55.1,126.7,55.1,126.7,55.1,126.7z"/>
			</g>
			<g>
				<path class="st1" d="M56.9,126.2c0,0-0.2-2.4-0.2-4.6c0-2.2,0-5.4,0-5.4"/>
				<path d="M56.9,126.3c-0.1,0-0.1-0.1-0.1-0.1c0,0-0.2-2.4-0.2-4.6c0-2.2,0-5.3,0-5.4c0-0.1,0.1-0.1,0.1-0.1c0,0,0,0,0,0
					c0.1,0,0.1,0.1,0.1,0.1c0,0-0.1,3.1,0,5.4c0,2.2,0.2,4.6,0.2,4.6C57,126.2,56.9,126.3,56.9,126.3
					C56.9,126.3,56.9,126.3,56.9,126.3z"/>
			</g>
			<g>
				<path class="st1" d="M58.6,125.8c0,0-0.2-2-0.2-3.8c0-1.8,0-4.4,0-4.4"/>
				<path d="M58.6,125.9c-0.1,0-0.1,0-0.1-0.1c0,0-0.2-2-0.2-3.8c0-1.8,0-4.4,0-4.4c0-0.1,0.1-0.1,0.1-0.1c0,0,0,0,0,0
					c0.1,0,0.1,0.1,0.1,0.1c0,0,0,2.6,0,4.4c0,1.8,0.2,3.8,0.2,3.8C58.8,125.9,58.7,125.9,58.6,125.9
					C58.6,125.9,58.6,125.9,58.6,125.9z"/>
			</g>
			<g>
				<path class="st1" d="M60.4,125.4c0,0-0.1-1.6-0.2-3c0-1.3,0-3.5,0-3.5"/>
				<path d="M60.4,125.5c-0.1,0-0.1,0-0.1-0.1c0,0-0.1-1.7-0.2-3c0-1.3,0-3.5,0-3.5c0-0.1,0.1-0.1,0.1-0.1c0,0,0,0,0,0
					c0.1,0,0.1,0.1,0.1,0.1c0,0,0,2.1,0,3.5c0,1.3,0.2,3,0.2,3C60.5,125.5,60.5,125.5,60.4,125.5C60.4,125.5,60.4,125.5,60.4,125.5z
					"/>
			</g>
			<g>
				<path class="st1" d="M62.2,125.1c0,0-0.1-1.3-0.1-2.2c0-0.9,0-2.5,0-2.5"/>
				<path d="M62.2,125.2c-0.1,0-0.1,0-0.1-0.1c0,0-0.1-1.3-0.1-2.2c0-0.9,0-2.5,0-2.5l0.2,0c0,0,0,1.6,0,2.5c0,0.9,0.1,2.1,0.1,2.2
					C62.3,125.1,62.3,125.2,62.2,125.2C62.2,125.2,62.2,125.2,62.2,125.2z"/>
			</g>
			<g>
				<path class="st1" d="M64,124.7c0,0-0.1-0.9-0.1-1.3c0-0.4,0-1.6,0-1.6"/>
				<path d="M64,124.8C63.9,124.8,63.9,124.7,64,124.8c-0.1-0.1-0.2-1-0.2-1.4c0-0.4,0-1.6,0-1.6c0-0.1,0-0.1,0.1-0.1
					c0.1,0,0.1,0,0.1,0.1c0,0,0,1.1,0,1.6c0,0.4,0.1,1.3,0.1,1.3C64.1,124.7,64,124.8,64,124.8C64,124.8,64,124.8,64,124.8z"/>
			</g>
			<g>
				<line class="st1" x1="65.8" y1="124.3" x2="65.6" y2="123.2"/>
				<path d="M65.8,124.4C65.7,124.4,65.7,124.4,65.8,124.4l-0.2-1.2c0,0,0-0.1,0.1-0.1c0,0,0.1,0,0.1,0.1L65.8,124.4
					C65.9,124.4,65.8,124.4,65.8,124.4C65.8,124.4,65.8,124.4,65.8,124.4z"/>
			</g>
		</g>
		<g>
			<g>
				<path d="M52.7,127.9C52.7,127.9,52.7,127.9,52.7,127.9c-1.8-0.6-3.9-1.9-4-2c-0.1-0.1-0.1-0.2-0.1-0.2c0.1-0.1,0.2-0.1,0.2-0.1
					c0,0,2.1,1.3,3.8,1.9c0.1,0,0.1,0.1,0.1,0.2C52.9,127.9,52.8,127.9,52.7,127.9z"/>
			</g>
			<g>
				<path d="M55,127.3C55,127.3,55,127.3,55,127.3c-2.6-1.1-6.2-3.5-6.2-3.5c-0.1,0-0.1-0.1,0-0.2c0-0.1,0.1-0.1,0.2,0
					c0,0,3.6,2.3,6.1,3.4c0.1,0,0.1,0.1,0.1,0.2C55.1,127.2,55.1,127.3,55,127.3z"/>
			</g>
			<g>
				<path d="M57.3,126.6C57.3,126.6,57.2,126.6,57.3,126.6c-3.4-1.7-8.4-5-8.4-5c-0.1,0-0.1-0.1,0-0.2c0-0.1,0.1-0.1,0.2,0
					c0,0,5,3.3,8.3,5c0.1,0,0.1,0.1,0.1,0.2C57.4,126.6,57.3,126.6,57.3,126.6z"/>
			</g>
			<g>
				<path d="M59.6,126C59.5,126,59.5,126,59.6,126c-4.3-2.2-10.6-6.5-10.7-6.5c-0.1,0-0.1-0.1,0-0.2c0-0.1,0.1-0.1,0.2,0
					c0.1,0,6.4,4.3,10.6,6.5c0.1,0,0.1,0.1,0.1,0.2C59.6,125.9,59.6,126,59.6,126z"/>
			</g>
			<g>
				<path d="M61.8,125.3C61.8,125.3,61.8,125.3,61.8,125.3c-5.1-2.7-12.9-8-12.9-8c-0.1,0-0.1-0.1,0-0.2c0-0.1,0.1-0.1,0.2,0
					c0.1,0.1,7.8,5.4,12.9,8c0.1,0,0.1,0.1,0,0.2C61.9,125.3,61.9,125.3,61.8,125.3z"/>
			</g>
			<g>
				<path d="M64.1,124.6C64.1,124.6,64.1,124.6,64.1,124.6c-5.9-3.2-15.1-9.5-15.2-9.6c0,0-0.1-0.1,0-0.1c0,0,0.1-0.1,0.1,0
					c0.1,0.1,9.2,6.4,15.1,9.5C64.2,124.5,64.2,124.5,64.1,124.6C64.2,124.6,64.1,124.6,64.1,124.6z"/>
			</g>
			<g>
				<path d="M66.4,124C66.4,124,66.3,124,66.4,124c-6.8-3.7-17.3-11-17.4-11.1c0,0,0-0.1,0-0.1c0,0,0.1,0,0.1,0
					c0.1,0.1,10.6,7.4,17.4,11.1C66.5,123.8,66.5,123.9,66.4,124C66.4,124,66.4,124,66.4,124z"/>
			</g>
		</g>
		<g>
			<g>
				<g>
					<path class="st1" d="M62.5,82.3L62.5,82.3L62.5,82.3l0.1,0L62.5,82.3L62.5,82.3l-0.1-0.4l0.1,0L62.5,82.3z"/>
				</g>
			</g>
			<g>
				<g>
					<path class="st1" d="M61.7,81.7L61.7,81.7l-0.1,0c-0.2,0-0.3,0-0.3,0.1c0,0,0,0.1,0,0.1c0,0,0.1,0,0.1,0l0,0c0,0-0.1,0-0.2,0
						c-0.1-0.1-0.1-0.1-0.1-0.2c0-0.1,0.2-0.1,0.3-0.1l0.1,0v0l-0.2-0.1l0,0L61.7,81.7z"/>
				</g>
			</g>
			<g>
				<g>
					<path class="st1" d="M60.8,81.1c0,0,0-0.1,0-0.1c0-0.1-0.1-0.1-0.2-0.1c-0.1,0-0.1,0.1,0,0.1l0,0l-0.1,0l0,0
						c0,0-0.1-0.1-0.1-0.1c0,0-0.1,0,0,0.1c0,0,0.1,0.1,0.1,0.1l0,0c0,0-0.1-0.1-0.1-0.1c-0.1-0.1,0-0.1,0-0.2c0.1,0,0.1,0,0.2,0h0
						c0-0.1,0-0.1,0.1-0.1c0.1,0,0.2,0,0.2,0.1C60.9,81.1,60.9,81.1,60.8,81.1L60.8,81.1z"/>
				</g>
			</g>
			<g>
				<g>
					<path class="st1" d="M60.6,80.2l-0.2,0l0,0.2l-0.1,0L60.1,80l0-0.1l0.4,0.1l0-0.1l0.1,0l0,0.1L60.6,80.2L60.6,80.2z M60.4,80.1
						l-0.2,0c0,0-0.1,0-0.1,0l0,0c0,0,0.1,0,0.1,0.1l0.2,0.2h0L60.4,80.1z"/>
				</g>
			</g>
			<g>
				<g>
					<path class="st1" d="M60.8,79.2l-0.1,0.1l0.1,0.1c0,0,0,0,0,0c0,0,0.1,0,0.1,0c0,0,0.1,0,0.2,0.1c0.1,0.1,0.1,0.2,0,0.2
						c0,0-0.1,0-0.1,0l0,0c0,0,0.1,0,0.1,0c0,0,0.1-0.1,0-0.1c-0.1,0-0.1-0.1-0.2,0c0,0,0,0,0,0l-0.2-0.2L60.8,79.2L60.8,79.2z"/>
				</g>
			</g>
			<g>
				<g>
					<path class="st1" d="M61.9,78.9C61.9,78.9,61.9,78.9,61.9,78.9c-0.2,0-0.2,0.1-0.2,0.2h0c0,0,0.1-0.1,0.1-0.1
						c0.1,0,0.2,0.1,0.2,0.1c0,0.1,0,0.2-0.1,0.2c-0.1,0-0.2-0.1-0.3-0.2c0-0.1,0-0.2,0-0.2C61.7,78.9,61.8,78.8,61.9,78.9
						C61.9,78.8,61.9,78.8,61.9,78.9L61.9,78.9z M62,79.1c0-0.1-0.1-0.1-0.1-0.1c0,0-0.1,0-0.1,0.1c0,0,0,0,0,0
						c0,0.1,0.1,0.1,0.2,0.1C62,79.2,62,79.2,62,79.1z"/>
				</g>
			</g>
			<g>
				<g>
					<path class="st1" d="M63.3,79.2L63.3,79.2l-0.4,0.3l-0.1,0l0.4-0.2L63.3,79.2l-0.4-0.1l0,0L63.3,79.2z"/>
				</g>
			</g>
			<g>
				<g>
					<path class="st1" d="M63.9,79.9c0-0.1,0-0.1,0.1-0.1c0.1,0,0.2,0,0.2,0.1c0.1,0.1,0,0.1,0,0.2c0,0-0.1,0-0.2,0l0,0
						c0,0.1,0,0.1-0.1,0.1c-0.1,0-0.2,0-0.2-0.1c-0.1-0.1-0.1-0.2,0-0.2C63.7,79.9,63.8,79.9,63.9,79.9L63.9,79.9z M63.9,80.1
						c0.1,0,0.1-0.1,0-0.1c-0.1,0-0.1-0.1-0.2,0c0,0-0.1,0.1,0,0.1C63.7,80.1,63.8,80.1,63.9,80.1z M64,79.9c0,0,0,0.1,0,0.1
						c0,0,0.1,0,0.1,0c0,0,0.1-0.1,0-0.1C64.1,79.9,64,79.8,64,79.9z"/>
				</g>
			</g>
			<g>
				<g>
					<path class="st1" d="M64,81.9L64,81.9L64,81.9L64,81.9L64,81.9L64,81.9l-0.4-0.3l0,0L64,81.9z"/>
				</g>
			</g>
			<g>
				<g>
					<path class="st1" d="M63.8,82.1L63.8,82.1L63.8,82.1L63.8,82.1L63.8,82.1L63.8,82.1l-0.4-0.3l0,0L63.8,82.1z"/>
				</g>
			</g>
			<g>
				<g>
					<path class="st1" d="M64.5,80.7L64.5,80.7L64.5,80.7L64.5,80.7L64.5,80.7L64.5,80.7l-0.5,0l0-0.1L64.5,80.7z"/>
				</g>
			</g>
			<g>
				<g>
					<path class="st1" d="M64.1,81.2c-0.2,0-0.2-0.1-0.2-0.2c0-0.1,0.2-0.1,0.4-0.1c0.2,0,0.2,0.1,0.2,0.2
						C64.4,81.2,64.3,81.2,64.1,81.2z M64.2,80.9c-0.1,0-0.2,0-0.3,0c0,0.1,0,0.1,0.2,0.1c0.1,0,0.2,0,0.3,0
						C64.4,81,64.4,81,64.2,80.9z"/>
				</g>
			</g>
		</g>
		<g>
			<g>
				<g>
					<path class="st1" d="M68,82.4L68,82.4L68,82.4l0.1,0L68,82.4L68,82.4L67.8,82l0.1,0L68,82.4z"/>
				</g>
			</g>
			<g>
				<g>
					<path class="st1" d="M67.1,81.8L67.1,81.8L67.1,81.8c-0.3,0-0.4,0.1-0.4,0.1c0,0,0,0.1,0,0.1c0,0,0.1,0,0.1,0l0,0
						c0,0-0.1,0-0.2,0c-0.1-0.1-0.1-0.1-0.1-0.2c0-0.1,0.2-0.1,0.3-0.1l0.1,0v0l-0.2-0.1l0,0L67.1,81.8z"/>
				</g>
			</g>
			<g>
				<g>
					<path class="st1" d="M66.3,81.2c0,0,0-0.1,0-0.1c0-0.1-0.1-0.1-0.2-0.1c-0.1,0-0.1,0.1,0,0.1l0,0l0,0l0,0c0,0-0.1-0.1-0.1-0.1
						c0,0-0.1,0,0,0.1c0,0,0.1,0.1,0.1,0.1l0,0c0,0-0.1-0.1-0.1-0.1c0-0.1,0-0.1,0-0.2c0.1,0,0.1,0,0.2,0h0c0-0.1,0-0.1,0.1-0.1
						c0.1,0,0.2,0,0.2,0.1C66.4,81.2,66.4,81.2,66.3,81.2L66.3,81.2z"/>
				</g>
			</g>
			<g>
				<g>
					<path class="st1" d="M66.1,80.3l-0.1,0l0,0.2l0,0l-0.3-0.3l0-0.1l0.3,0.1l0-0.1l0.1,0l0,0.1L66.1,80.3L66.1,80.3z M65.9,80.2
						l-0.2,0c0,0-0.1,0-0.1,0l0,0c0,0,0.1,0,0.1,0.1l0.2,0.1h0L65.9,80.2z"/>
				</g>
			</g>
			<g>
				<g>
					<path class="st1" d="M66.3,79.3l-0.1,0.1l0.1,0.1c0,0,0,0,0,0c0,0,0.1,0,0.1,0c0,0,0.1,0,0.2,0c0.1,0.1,0.1,0.2,0,0.2
						c0,0-0.1,0-0.1,0l0,0c0,0,0.1,0,0.1,0c0,0,0.1-0.1,0-0.1c-0.1,0-0.1-0.1-0.2,0c0,0,0,0,0,0L66,79.4L66.3,79.3L66.3,79.3z"/>
				</g>
			</g>
			<g>
				<g>
					<path class="st1" d="M67.4,79C67.3,79,67.3,79,67.4,79c-0.2,0-0.2,0.1-0.2,0.2h0c0,0,0.1-0.1,0.1-0.1c0.1,0,0.2,0,0.2,0.1
						c0,0.1,0,0.2-0.1,0.2c-0.1,0-0.2-0.1-0.2-0.2c0-0.1,0-0.2,0-0.2C67.2,79,67.2,79,67.4,79C67.3,79,67.3,79,67.4,79L67.4,79z
						 M67.4,79.3c0-0.1-0.1-0.1-0.1-0.1c0,0-0.1,0-0.1,0.1c0,0,0,0,0,0c0,0.1,0.1,0.1,0.2,0.1C67.4,79.4,67.4,79.4,67.4,79.3z"/>
				</g>
			</g>
			<g>
				<g>
					<path class="st1" d="M68.7,79.3L68.7,79.3l-0.4,0.3l-0.1,0L68.7,79.3L68.7,79.3l-0.3-0.1l0,0L68.7,79.3z"/>
				</g>
			</g>
			<g>
				<g>
					<path class="st1" d="M69.2,80c0-0.1,0-0.1,0.1-0.1c0.1,0,0.2,0,0.2,0.1c0.1,0.1,0,0.1,0,0.2c0,0-0.1,0-0.2,0l0,0
						c0,0.1,0,0.1-0.1,0.1c-0.1,0-0.2,0-0.2-0.1c-0.1-0.1,0-0.2,0-0.2C69.1,80,69.2,80,69.2,80L69.2,80z M69.2,80.2
						c0.1,0,0.1-0.1,0-0.1c-0.1,0-0.1-0.1-0.1,0c0,0-0.1,0.1,0,0.1C69.1,80.2,69.2,80.3,69.2,80.2z M69.3,80c0,0,0,0.1,0,0.1
						c0,0,0.1,0,0.1,0c0,0,0.1,0,0-0.1C69.4,80,69.4,80,69.3,80z"/>
				</g>
			</g>
			<g>
				<g>
					<path class="st1" d="M69.4,81.9L69.4,81.9L69.4,81.9L69.4,81.9L69.4,81.9L69.4,81.9L69,81.7l0,0L69.4,81.9z"/>
				</g>
			</g>
			<g>
				<g>
					<path class="st1" d="M69.1,82.2L69.1,82.2L69.1,82.2L69.1,82.2L69.1,82.2L69.1,82.2l-0.4-0.3l0,0L69.1,82.2z"/>
				</g>
			</g>
			<g>
				<g>
					<path class="st1" d="M69.9,80.8L69.9,80.8L69.9,80.8L69.9,80.8L69.9,80.8L69.9,80.8l-0.5,0l0-0.1L69.9,80.8z"/>
				</g>
			</g>
			<g>
				<g>
					<path class="st1" d="M69.5,81.3c-0.2,0-0.2-0.1-0.2-0.2c0-0.1,0.2-0.1,0.3-0.1c0.2,0,0.2,0.1,0.2,0.2
						C69.7,81.3,69.6,81.3,69.5,81.3z M69.6,81c-0.1,0-0.2,0-0.3,0c0,0.1,0,0.1,0.2,0.1c0.1,0,0.2,0,0.3,0
						C69.8,81.1,69.7,81.1,69.6,81z"/>
				</g>
			</g>
		</g>
		<g>
			<g>
				<g>
					<path class="st1" d="M73.5,82.5L73.5,82.5L73.5,82.5l0.1,0L73.5,82.5L73.5,82.5l-0.1-0.4l0.1,0L73.5,82.5z"/>
				</g>
			</g>
			<g>
				<g>
					<path class="st1" d="M72.7,81.9L72.7,81.9L72.7,81.9c-0.3,0-0.4,0.1-0.4,0.1c0,0,0,0.1,0,0.1c0,0,0.1,0,0.1,0l0,0
						c0,0-0.1,0-0.2,0c-0.1-0.1-0.1-0.1-0.1-0.2c0-0.1,0.1-0.1,0.3-0.1l0.1,0v0l-0.2-0.1l0,0L72.7,81.9z"/>
				</g>
			</g>
			<g>
				<g>
					<path class="st1" d="M71.9,81.4C71.9,81.3,71.9,81.3,71.9,81.4c-0.1-0.2-0.1-0.2-0.2-0.2c-0.1,0-0.1,0.1,0,0.1l0,0l0,0l0,0
						c0,0-0.1-0.1-0.1-0.1c0,0-0.1,0,0,0.1c0,0,0.1,0.1,0.1,0.1l0,0c0,0-0.1-0.1-0.1-0.1c0-0.1,0-0.1,0-0.1c0,0,0.1,0,0.2,0h0
						c0-0.1,0-0.1,0.1-0.1c0.1,0,0.2,0,0.2,0.1C72,81.3,72,81.3,71.9,81.4L71.9,81.4z"/>
				</g>
			</g>
			<g>
				<g>
					<path class="st1" d="M71.8,80.4l-0.1,0l0,0.2l0,0l-0.3-0.3l0-0.1l0.3,0.1l0-0.1l0.1,0l0,0.1L71.8,80.4L71.8,80.4z M71.6,80.4
						l-0.2,0c0,0-0.1,0-0.1,0l0,0c0,0,0,0,0.1,0.1l0.2,0.1h0L71.6,80.4z"/>
				</g>
			</g>
			<g>
				<g>
					<path class="st1" d="M71.9,79.5l-0.1,0.1l0.1,0.1c0,0,0,0,0,0c0,0,0.1,0,0.1,0c0,0,0.1,0,0.2,0c0.1,0.1,0.1,0.2,0,0.2
						c0,0-0.1,0-0.1,0l0,0c0,0,0.1,0,0.1,0c0,0,0.1-0.1,0-0.1c-0.1,0-0.1-0.1-0.2,0c0,0,0,0,0,0l-0.2-0.2L71.9,79.5L71.9,79.5z"/>
				</g>
			</g>
			<g>
				<g>
					<path class="st1" d="M73,79.2C72.9,79.2,72.9,79.2,73,79.2c-0.2,0-0.2,0.1-0.2,0.2h0c0,0,0.1-0.1,0.1-0.1c0.1,0,0.2,0,0.2,0.1
						c0,0.1,0,0.2-0.1,0.2c-0.1,0-0.2-0.1-0.2-0.2c0-0.1,0-0.2,0-0.2C72.8,79.2,72.8,79.2,73,79.2C72.9,79.2,72.9,79.2,73,79.2
						L73,79.2z M73,79.5c0-0.1-0.1-0.1-0.1-0.1c0,0-0.1,0-0.1,0.1c0,0,0,0,0,0c0,0.1,0.1,0.1,0.2,0.1C73,79.6,73,79.5,73,79.5z"/>
				</g>
			</g>
			<g>
				<g>
					<path class="st1" d="M74.2,79.5L74.2,79.5l-0.4,0.3l-0.1,0L74.2,79.5L74.2,79.5l-0.3-0.1l0,0L74.2,79.5z"/>
				</g>
			</g>
			<g>
				<g>
					<path class="st1" d="M74.8,80.2c0-0.1,0-0.1,0.1-0.1c0.1,0,0.2,0,0.2,0.1c0.1,0.1,0,0.1,0,0.2c0,0-0.1,0-0.2,0l0,0
						c0,0.1,0,0.1-0.1,0.1c-0.1,0-0.2,0-0.2-0.1c-0.1-0.1,0-0.2,0-0.2C74.7,80.2,74.7,80.2,74.8,80.2L74.8,80.2z M74.8,80.4
						c0.1,0,0.1-0.1,0-0.1c-0.1,0-0.1-0.1-0.1,0c0,0-0.1,0.1,0,0.1C74.7,80.4,74.7,80.4,74.8,80.4z M74.9,80.2c0,0,0,0.1,0,0.1
						c0,0,0.1,0,0.1,0c0,0,0.1,0,0-0.1C75,80.1,74.9,80.1,74.9,80.2z"/>
				</g>
			</g>
			<g>
				<g>
					<path class="st1" d="M74.9,82L74.9,82L74.9,82L74.9,82L74.9,82L74.9,82l-0.4-0.2l0,0L74.9,82z"/>
				</g>
			</g>
			<g>
				<g>
					<path class="st1" d="M74.7,82.3L74.7,82.3L74.7,82.3L74.7,82.3L74.7,82.3L74.7,82.3L74.3,82l0,0L74.7,82.3z"/>
				</g>
			</g>
			<g>
				<g>
					<path class="st1" d="M75.4,80.9L75.4,80.9L75.4,80.9L75.4,80.9L75.4,80.9L75.4,80.9l-0.5,0l0-0.1L75.4,80.9z"/>
				</g>
			</g>
			<g>
				<g>
					<path class="st1" d="M75,81.4c-0.2,0-0.2-0.1-0.2-0.2c0-0.1,0.2-0.1,0.3-0.1c0.2,0,0.2,0.1,0.2,0.2
						C75.3,81.4,75.1,81.4,75,81.4z M75.1,81.2c-0.1,0-0.2,0-0.2,0c0,0.1,0,0.1,0.2,0.1c0.1,0,0.2,0,0.2,0
						C75.3,81.2,75.2,81.2,75.1,81.2z"/>
				</g>
			</g>
		</g>
		<g>
			<g>
				<g>
					<path class="st1" d="M79,82.7L79,82.7L79,82.7L79,82.7L79,82.7L79,82.7l-0.1-0.4l0.1,0L79,82.7z"/>
				</g>
			</g>
			<g>
				<g>
					<path class="st1" d="M78.3,82.2L78.3,82.2L78.3,82.2c-0.2,0-0.3,0.1-0.3,0.1c0,0,0,0.1,0,0.1c0,0,0.1,0,0.1,0l0,0
						c0,0-0.1,0-0.1,0c-0.1-0.1-0.1-0.1-0.1-0.2c0-0.1,0.1-0.1,0.2-0.1L78.3,82.2L78.3,82.2L78,82.1l0,0L78.3,82.2z"/>
				</g>
			</g>
			<g>
				<g>
					<path class="st1" d="M77.7,81.7C77.7,81.7,77.6,81.6,77.7,81.7c-0.1-0.2-0.1-0.2-0.1-0.2c-0.1,0-0.1,0.1,0,0.1l0,0l0,0l0,0
						c0,0-0.1-0.1-0.1-0.1c0,0,0,0,0,0.1c0,0,0,0.1,0.1,0.1l0,0c0,0-0.1,0-0.1-0.1c0-0.1,0-0.1,0-0.1c0,0,0.1,0,0.1,0h0
						c0,0,0-0.1,0.1-0.1c0.1,0,0.1,0,0.2,0.1C77.7,81.6,77.7,81.7,77.7,81.7L77.7,81.7z"/>
				</g>
			</g>
			<g>
				<g>
					<path class="st1" d="M77.5,80.8l-0.1,0l0,0.2l0,0l-0.3-0.2l0-0.1l0.3,0.1l0-0.1l0,0l0,0.1L77.5,80.8L77.5,80.8z M77.4,80.8
						l-0.1,0c0,0,0,0-0.1,0l0,0c0,0,0,0,0.1,0l0.1,0.1h0L77.4,80.8z"/>
				</g>
			</g>
			<g>
				<g>
					<path class="st1" d="M77.6,80l-0.1,0.1l0.1,0.1c0,0,0,0,0,0c0,0,0.1,0,0.1,0c0,0,0.1,0,0.1,0c0.1,0.1,0.1,0.1,0,0.2
						c0,0-0.1,0-0.1,0l0,0c0,0,0.1,0,0.1,0c0,0,0-0.1,0-0.1c0,0-0.1,0-0.2,0c0,0,0,0,0,0L77.4,80L77.6,80L77.6,80z"/>
				</g>
			</g>
			<g>
				<g>
					<path class="st1" d="M78.5,79.7C78.5,79.7,78.5,79.7,78.5,79.7c-0.1,0-0.2,0.1-0.2,0.2h0c0,0,0,0,0.1-0.1c0.1,0,0.1,0,0.2,0.1
						c0,0.1,0,0.1-0.1,0.1c-0.1,0-0.2-0.1-0.2-0.2c0-0.1,0-0.1,0-0.2C78.4,79.7,78.4,79.7,78.5,79.7C78.5,79.7,78.5,79.7,78.5,79.7
						L78.5,79.7z M78.6,79.9c0-0.1-0.1-0.1-0.1-0.1c0,0-0.1,0-0.1,0.1c0,0,0,0,0,0C78.4,80,78.4,80,78.6,79.9
						C78.6,80,78.6,80,78.6,79.9z"/>
				</g>
			</g>
			<g>
				<g>
					<path class="st1" d="M79.6,80L79.6,80l-0.3,0.3l-0.1,0L79.6,80L79.6,80l-0.3-0.1l0,0L79.6,80z"/>
				</g>
			</g>
			<g>
				<g>
					<path class="st1" d="M80,80.6C80,80.6,80.1,80.5,80,80.6c0.1-0.1,0.2-0.1,0.2,0c0,0.1,0,0.1,0,0.1C80.2,80.8,80.2,80.8,80,80.6
						L80,80.6c0.1,0.2,0.1,0.2,0,0.2c-0.1,0-0.1,0-0.2-0.1c-0.1-0.1,0-0.1,0-0.2C79.9,80.6,80,80.6,80,80.6L80,80.6z M80,80.8
						c0,0,0-0.1,0-0.1c0,0-0.1,0-0.1,0c0,0-0.1,0.1,0,0.1C80,80.8,80,80.8,80,80.8z M80.1,80.6C80.1,80.6,80.1,80.6,80.1,80.6
						c0,0.1,0.1,0.1,0.1,0.1c0,0,0.1,0,0-0.1C80.2,80.6,80.2,80.6,80.1,80.6z"/>
				</g>
			</g>
			<g>
				<g>
					<path class="st1" d="M80.2,82.3L80.2,82.3L80.2,82.3L80.2,82.3L80.2,82.3L80.2,82.3l-0.3-0.2l0,0L80.2,82.3z"/>
				</g>
			</g>
			<g>
				<g>
					<path class="st1" d="M80,82.6L80,82.6L80,82.6L80,82.6L80,82.6L80,82.6l-0.3-0.3l0,0L80,82.6z"/>
				</g>
			</g>
			<g>
				<g>
					<path class="st1" d="M80.6,81.3L80.6,81.3L80.6,81.3L80.6,81.3L80.6,81.3L80.6,81.3l-0.4,0l0-0.1L80.6,81.3z"/>
				</g>
			</g>
			<g>
				<g>
					<path class="st1" d="M80.2,81.7c-0.1,0-0.2-0.1-0.2-0.2c0-0.1,0.1-0.1,0.3-0.1c0.1,0,0.2,0.1,0.1,0.2
						C80.5,81.7,80.4,81.8,80.2,81.7z M80.3,81.5c-0.1,0-0.2,0-0.2,0c0,0,0,0.1,0.1,0.1c0.1,0,0.2,0,0.2,0
						C80.5,81.6,80.4,81.6,80.3,81.5z"/>
				</g>
			</g>
		</g>
	</g>
	<g>
		<path d="M119.2,78.9"/>
	</g>
	<g>
		<path class="st1" d="M176.2,116.6c0.2-1.1,0.2-2.1,0.1-3.1c0-0.6-0.1-1.2-0.2-1.9c-0.5-3.6-2-5.3-2-5.3c0.1,0.6-0.4,0.5-0.4,0.5
			c-0.2-1.7-1.5-2.8-1.5-2.8l0.1,0.6c-0.8-1-2-1.8-2-1.8l0.8,1.1c-1.4-1.2-2.6-1.8-3-1.6c-1,0.5,2,1,3.9,4.9c-0.2-0.4-0.6-0.9-1-1.2
			c0,0,1.1,1.6,1.6,3.7c0,0-0.2-0.5-0.6-0.6c0,0,1.1,1.5,1.3,4.1c0,0.3,0,0.7,0,1c0,0.3,0,0.7-0.1,1c0,0.2,0,0.3,0,0.4
			c-1.4,7.3-15-0.8-15-0.8c-3.1-0.4-4.1,2.9-4.1,2.9c2.4,2.2,18.2,9.1,21.4,1.3c0.2-0.6,0.4-1.2,0.6-1.8
			C176.1,117.1,176.1,116.9,176.2,116.6z"/>
		<path class="st4" d="M168.8,122.8c-5.8,0-13.1-3.4-14.8-5l-0.1-0.1l0-0.1c0,0,1.1-3.4,4.3-3l0,0l0,0c0.1,0.1,8.8,5.3,12.9,3.5
			c1-0.4,1.6-1.3,1.9-2.6c0-0.1,0-0.2,0-0.4c0-0.3,0.1-0.6,0.1-1c0-0.3,0-0.7,0-1c-0.2-2.5-1.3-4-1.3-4l-0.2-0.3l0.3,0
			c0.1,0,0.2,0,0.2,0.1c-0.6-1.7-1.4-3-1.4-3l-0.4-0.6l0.6,0.4c0,0,0,0,0,0c-0.9-1.3-1.9-2.1-2.6-2.6c-0.5-0.4-0.7-0.6-0.7-0.8
			c0-0.2,0.2-0.3,0.3-0.3c0.4-0.2,1.2,0.1,2.3,0.9l-0.6-0.8l0.7,0.5c0,0,0.9,0.6,1.7,1.5l0-0.5l0.3,0.2c0.1,0,1.3,1.1,1.6,2.8
			c0,0,0.1,0,0.1,0c0,0,0.1-0.1,0-0.3l-0.1-0.5l0.3,0.4c0.1,0.1,1.4,1.7,2,5.4c0.1,0.6,0.2,1.3,0.2,1.9c0.1,1.1,0.1,2.1-0.1,3.2
			c0,0.3-0.1,0.5-0.1,0.5c-0.1,0.6-0.3,1.3-0.6,1.8c-0.7,1.8-2.2,3-4.3,3.5C170.5,122.7,169.7,122.8,168.8,122.8z M154.2,117.7
			c2.1,1.8,11.3,5.9,17,4.6c2-0.5,3.4-1.6,4.1-3.3c0.2-0.6,0.4-1.2,0.6-1.8c0-0.1,0.1-0.2,0.1-0.5l0,0c0.2-1,0.2-2.1,0.1-3.1
			c0-0.6-0.1-1.2-0.2-1.8c-0.4-2.7-1.3-4.3-1.7-4.9c0,0-0.1,0.1-0.1,0.1c-0.2,0.2-0.4,0.1-0.4,0.1l-0.1,0l0-0.1
			c-0.1-1.2-0.8-2.1-1.2-2.5l0.1,0.7l-0.3-0.4c-0.4-0.4-0.8-0.8-1.1-1.1l0.2,0.2L171,104c-1.4-1.3-2.5-1.8-2.8-1.6
			c-0.1,0.1-0.1,0.1-0.1,0.1c0,0.1,0.3,0.3,0.6,0.6c0.9,0.7,2.3,1.8,3.4,4.1l-0.3,0.1c0,0,0,0,0,0c0.3,0.6,0.7,1.5,0.9,2.4l-0.2,0.1
			c0.3,0.7,0.8,1.9,0.9,3.4c0,0.4,0,0.7,0,1.1c0,0.4,0,0.7-0.1,1c0,0.2,0,0.3,0,0.4c-0.3,1.4-1,2.3-2.1,2.8c-1.8,0.8-4.5,0.4-8.2-1
			c-2.6-1-4.7-2.3-4.9-2.4c-1.2-0.1-2.2,0.3-3.1,1.3C154.6,116.8,154.3,117.5,154.2,117.7z"/>
	</g>
	<g>
		<g>
			<path d="M139.6,61c0.2,0.1,1.4,0.4,1.5,0.4c-0.2,0.3-0.2,0.3-0.2,0.4c0.4,0.1,1.9,0.1,2.2,0.4c-0.6-0.1-0.7,0.3-0.7,0.3l0.4,0.1
				l-0.4,0.6l0.7,0.2l-0.3,0.4"/>
		</g>
		<g>
			<path d="M140.4,61.3c0.8,0.4,1.5,0.8,2.1,1.4c0.5,0.6,1.3,1.3,1.4,2.1c-0.9-1.3-1.1-0.6-1.5-1.2c-0.8-1.2-2.7-1.4-3.3-2.8
				C139.2,60.8,139.7,60.9,140.4,61.3z"/>
		</g>
	</g>
	<g>
		<path d="M164.3,104.9c0,0,0.1-2.4-0.1-2.2c-0.1-0.4-0.1-0.4-0.1-0.4c-0.4-0.4-1.5-4.3-1.5-4.3s-0.3-3.4-0.8-3.2
			c1.6,1.8,2.2,1.9,2.2,1.9l-0.3,0.2l0.9,0.9l-0.4-0.1c-0.3-0.1-0.6-0.2-0.7-0.2c0.2,0.2,0.7,0.6,1.1,1l0.6,0.5l-1.1-0.4l1,1l-0.4,0
			l0.7,0.6l-0.4,0.2c0,0,0.2,0.2,0.4,0.5c0.1,0.2,0.2,0.4,0.4,0.4c-0.3,0.1-0.3,0.1-0.4,0.2c0.2,0.2,0.2,1.2,0.2,1.2
			S164.6,101.9,164.3,104.9z"/>
	</g>
	<g>
		<g>
			<path class="st1" d="M115.4,78.9c-0.6,0.5-2.6,2.8-1.6,5.2c0.9,2.4,0.5,7.5,0.1,9.7c-0.4,2.2-0.1,5-0.1,5.6
				c0,0.5,0.8,15.9-2.1,19.2c0,0-1,2.2-1.9,2.6c-1,0.5-2.9,2.1-4.6,3.3c0,0-2.5,1-3.1,2.8l0.7,0.3l-0.6,1c0,0,1.7,0.7,2.9,0.3
				c1.2-0.3,2.3-0.3,2.3-0.3l-0.2,0.6c0,0,2.3,0.1,3.5-1c1.2-1.2,1.9-0.3,1.9-0.3l-0.1-0.8c0,0,1.4-2.2,2-2.9
				c0.6-0.7,1.4-2.3,1.4-3.1c0-0.8,1.8-1.3,2.5-1.6c0.7-0.3-0.4-0.5-0.4-0.5s0.5-4.6,0.9-7.7c0.4-3.1,3.4-11.2,3.9-14.2
				c0,0,1.2,5.8,8,8.3c0,0,1.2,3.3,4.5,4.3c3.3,1,4,3.8,4,3.8s-3.4,0.8-6.3,1.4c-2.9,0.6-4.1,2.9-4.1,4.2c0,1.3,5.3,0.8,5.3,0.8
				s8.9-2.3,9.8-2.2c0.8,0.1,2,0.3,2.2,1.3c0.1,0.9,1.7,2,3,2c1.3,0,4.9,0.1,4.9,0.1l2.4,0.1c0,0,7.2-0.3,7.5-1.8
				c0.1-0.6,1.3-1.3,0.9-3.8c-0.4-2.5-0.8-6-0.7-8.2c0.1-4,0.6-9-1.8-10.8c0,0-3.4-4.7-4-7c-0.6-2.3-2.6-4.6-3.3-6.6
				c-0.4-1.3-6.8-11.9-7.6-13.4c-2.4-4.5-5.2-6.2-9.1-9.1c-2.6-1.9-8-5.1-12.4-5.9c-2-0.4-6.5,1.4-7.6,1.4"/>
		</g>
		<g>
			<path class="st4" d="M115.8,71c0.1,1.5,15-11.5,14.9-11.1c-1.8,20.1-17.5,19.3-17.4,20.2c0.1,1.1,0.4,2.5,0.9,3.7
				c1,2.5,0.5,7.3,0.1,9.6c-0.2,1.4-0.3,6.5-0.3,6.7c0,0.5,1.1,15.2-1.8,18.8c-0.1,0.3-0.7,1.4-1.3,2.1c-0.3,0.3,1.2,0,0.9,0.2
				c-0.2,0.1-2.1,0.7-2.3,0.8c-0.5,0.3-1.6,0.6-2.3,1.1c-0.7,0.5-1.4,1-2.1,1.5c0,0-0.1,0-0.1,0.1c-0.6,0.2-2,1-2.6,2.1l0.6,0.4
				c0.1,0.1,0.2,0.2,0.3,0.3c0,0.1,0,0.3,0,0.4l-0.3,0.5c0.6,0.2,1.4,0.3,1.9,0.1c1.3-0.4,2.4-0.4,2.4-0.4c0.2,0,0.3,0.1,0.4,0.2
				c0.1,0.1,0.1,0.2,0.1,0.3c0.7-0.1,1.7-0.3,2.3-0.9c0.5-0.5,1.1-0.8,1.6-0.8c0-0.1,0-0.2,0.1-0.3c0.1-0.1,1.5-2.2,2.1-3
				c0.6-0.7,1.3-2.2,1.3-2.8c0-1,3-3.6,2.8-7.7c0-0.8,0.2-1.5,0.3-2.2c0.4-3,3.6-11.8,1.7-20c0,0,0.3,0.2,0.7,0.4
				c0.4,0.3,0.9,0.6,1,0.7c0.2,0.1,0.7,0.4,0.7,0.4l0.5,0.1c0,0,1.1,0.4,1,0.3c-0.3-0.2-0.3,0.4-0.7,0.6c0,0,0.8,0.2,1,0.3
				c0.2,0.1,0.3,0.2,0.5,0.3c0.4,0.2,0.9,0.4,0.9,0.4c0,0.1-0.3,10.4,6.2,12.8c0.1,0.1,0.3,0.2,0.3,0.3c0,0,0.4,0.4,3.3,1.3
				c3.5,1.1-1.9-6.1,7.6-8.6c4.3-1.1,3.7,5.1,3.5,5.1c0,0-0.7,5.4,1.9,11.1c0.3,0.6,5.4,3.7,5.6,3.8l2.4,0.1
				c3.4-0.2,5.9-1.1,6.1-1.7c0-0.3,0.2-0.5,0.3-0.7c0.3-0.5,1.2-0.8,1.3-2.6c0.2-2-0.4-5.7-0.3-8.3c0.1-3.8,0.2-8.7-2.1-10.5
				c0,0-0.1-0.1-0.1-0.1c-0.1-0.2-2.6-4.7-3.2-7.1c-0.3-1-2.3-4.1-3.7-6.8c-1.4-2.7-8.8-14.9-9.7-16.4c-1.6-2.6-6.1-5.4-8.6-7.2
				c-2.4-1.8-4.6-3-9.2-3.8c-1.5-0.3-7.1,0.9-8.2,0.9c-0.4,0-0.7,0-1,0c-0.3,0-0.5-0.2-0.5-0.5c0-0.3,0.3-0.5,0.6-0.5
				c0.3,0,0.6,0,0.9,0c1.2,0,6.4-0.9,8-0.6c2.2,0.4,4.3,1.3,6.3,2.2c0.2,0.1,0.4,0.2,0.6,0.3c2,0.9,3.4,2.1,4.6,3
				c2.5,1.9,5.1,3.7,6.9,6.1c0.9,1.2,8.6,14,9.9,16.6c1.3,2.6,3.3,5.4,3.6,6.5c0.5,2.1,3,6.2,3.4,6.7c2,2.2,3.1,9.1,3.3,12.9
				c0.1,2.5,0,4.4-0.2,6.4c-0.2,2-0.8,3.1-1.1,3.7c-0.1,0.1-0.2,0.3-0.2,0.4c-0.3,1.6-5.1,2.1-8,2.2c0,0,0,0-0.1,0l-2.4-0.1
				c0,0-3.6-0.1-4.9-0.1c-1.6,0-3.4-1.2-3.5-2.4c-0.1-0.4-0.6-0.7-1.7-0.8c-0.6,0-6,1.3-9.6,2.2c0,0-0.1,0-0.1,0
				c-0.7,0.1-4.5,0.3-5.5-0.6c-0.2-0.2-0.4-0.5-0.4-0.7c0-1.6,1.4-4.1,4.5-4.7c2.1-0.4,4.6-1,5.7-1.3c-0.4-0.8-1.5,0.5-3.6-0.1
				c-3-1-8.6-5.9-11.8-14.7c-1,3.7-3.3,10.2-3.6,13c-0.3,2.4-0.3,6.2-0.7,7.3c0.3,0.1,0.7,0.4,0.4,0.5c-0.6,0.4-1,1-1.2,1.1
				c-0.4,0.2-1.6,0.6-1.6,0.9c0,1-0.9,2.8-1.6,3.5c-0.5,0.6-1.6,2.2-1.9,2.7l0.1,0.6c0,0.2-0.1,0.5-0.3,0.6c-0.2,0.1-0.5,0-0.6-0.1
				c0,0-0.1-0.1-0.3-0.1c-0.2,0-0.5,0.2-0.9,0.5c-1.1,1.1-3.1,1.2-3.7,1.2c-0.1,0-0.2,0-0.2,0c-0.2,0-0.3-0.1-0.4-0.2
				c-0.1-0.1-0.1-0.2-0.1-0.3c-0.4,0-0.9,0.1-1.4,0.3c-1.4,0.4-3.2-0.3-3.3-0.4c-0.1-0.1-0.3-0.2-0.3-0.3c0-0.1,0-0.3,0-0.4l0.3-0.6
				l-0.2-0.1c-0.2-0.1-0.4-0.4-0.3-0.6c0.6-1.8,3-2.9,3.4-3.1c0.6-0.4,1.3-1,2-1.5c1.1-0.8,2-1.5,2.6-1.8c0.5-0.3,1.3-1.5,1.7-2.4
				c0,0,0-0.1,0.1-0.1c2.7-3.1,2.3-17.3,2.3-18.2c0-0.3-0.6-5.6-0.3-6.8c0.4-2.1,0.9-6.7,0-9c-1.1-2.7-1.4-6.9-0.9-7.5
				c-0.1-0.5,0.5,1.4,0.4-0.3c0-0.5,0.2-1.3,0.1-2.1c0-0.5-0.4-1-0.3-1.6L115.8,71z"/>
			<path class="st1" d="M107.3,129.9c-0.1,0-0.2,0-0.2,0c-0.2,0-0.4-0.1-0.5-0.3c0-0.1-0.1-0.1-0.1-0.2c-0.4,0.1-0.8,0.1-1.2,0.2
				c-1.5,0.4-3.3-0.4-3.4-0.4c-0.2-0.1-0.3-0.2-0.4-0.4c-0.1-0.2,0-0.4,0-0.5l0.3-0.4l-0.1,0c-0.3-0.1-0.5-0.5-0.3-0.8
				c0.6-1.8,2.9-2.9,3.4-3.2c0.6-0.4,1.3-0.9,1.9-1.4l0.1-0.1c1.1-0.8,2-1.5,2.6-1.8c0.5-0.2,1.2-1.4,1.6-2.3c0-0.1,0.1-0.1,0.1-0.2
				c1.5-1.8,2.3-7.5,2.3-17.1c0-0.5,0-0.9,0-1c0-0.1,0-0.4-0.1-0.8c-0.1-1.6-0.5-5-0.3-6c0.1-0.6,1-6.3,0-8.9
				c-0.9-2.2-1.5-6.7-0.9-7.6c0-0.1,0-0.2,0.1-0.2c0.1,0,0.2,0.1,0.3,0.2c0,0,0,0.1,0,0.1c0-0.1,0-0.2,0-0.4c0-0.2,0-0.5,0-0.8
				c0-0.4,0.1-0.9,0.1-1.3c0-0.2-0.1-0.4-0.1-0.6c-0.1-0.3-0.2-0.7-0.2-1l0-0.1l3.5-1.9l0,0.2c0,0,0,0,0,0c0.9,0,7.5-5.5,10.8-8.1
				c3.9-3.2,3.9-3.2,4-3.1l0.1,0l0,0.1c-0.6,7.1-3.1,12.4-7.2,15.8c-3.4,2.8-7,3.6-8.9,4.1c-0.5,0.1-1.1,0.2-1.2,0.3
				c0.1,0.6,0.3,2.2,0.9,3.7c1.2,3,0.2,9,0.1,9.6c-0.2,1.1-0.3,4.9-0.3,6.2c0,0.3,0,0.4,0,0.4c0,0,0,0.2,0,0.4
				c0.6,9.7-0.1,16.3-1.9,18.4c-0.2,0.4-0.6,1.3-1.3,2.1c0.1,0,0.3,0,0.4,0c0.3,0,0.4,0,0.5,0.1c0,0,0,0.1-0.1,0.2
				c-0.1,0-0.3,0.1-0.7,0.2c-0.5,0.2-1.5,0.5-1.6,0.6c-0.2,0.2-0.6,0.3-0.9,0.4c-0.5,0.2-1,0.4-1.4,0.7c-0.6,0.5-1.4,1-2.1,1.5
				c0,0-0.1,0.1-0.1,0.1c-0.5,0.2-1.8,0.9-2.5,1.9l0.5,0.3c0.2,0.1,0.3,0.2,0.3,0.4c0.1,0.2,0,0.4-0.1,0.5l-0.2,0.3
				c0.5,0.1,1.2,0.2,1.7,0.1c1.3-0.4,2.4-0.4,2.5-0.4c0.2,0,0.4,0.1,0.6,0.3c0.1,0.1,0.1,0.2,0.1,0.3c0.6-0.1,1.5-0.3,2.1-0.8
				c0.5-0.5,1.1-0.8,1.6-0.8c0-0.1,0-0.2,0.1-0.2c0.2-0.2,1.5-2.3,2.1-3c0.5-0.6,1.3-2.1,1.3-2.7c0-0.4,0.3-0.8,0.7-1.5
				c0.9-1.4,2.2-3.4,2.1-6.1c0-0.5,0.1-1.1,0.2-1.6c0-0.2,0.1-0.5,0.1-0.7c0.1-0.7,0.3-1.7,0.6-2.9c0.9-4,2.5-10.8,1.1-17.1l0-0.1
				L120,91c0.1-0.1,0.1-0.1,0.8,0.4l0.4,0.3c0.3,0.2,0.6,0.4,0.7,0.5c0.2,0.1,0.6,0.3,0.7,0.4l0.5,0.1c0.3,0.1,0.6,0.2,0.8,0.3
				c0.1,0,0.1,0,0.2,0l0.1,0.1l0,0.1c0,0.1-0.1,0.1-0.3,0.1c0,0-0.1,0.1-0.1,0.2c0,0.1-0.1,0.1-0.2,0.2c0.3,0.1,0.6,0.1,0.7,0.2
				c0.1,0.1,0.2,0.1,0.3,0.1c0.1,0,0.1,0.1,0.2,0.1c0.2,0.1,0.5,0.3,0.7,0.3c0.2,0.1,0.2,0.1,0.2,0.1c0,0,0,0,0,0.2
				c0.1,9.6,4.7,12,6.1,12.5c0.2,0.1,0.3,0.2,0.4,0.4c0.1,0.1,0.6,0.4,3.3,1.3c0.4,0.1,0.7,0.1,0.9,0c0.3-0.2,0.3-0.8,0.4-1.5
				c0.1-2.1,0.3-5.5,6.3-7.1c1.2-0.3,2.1-0.1,2.8,0.6c1.3,1.3,1.1,4.2,1,4.7c0,0,0,0,0,0.1c0,0.4-0.6,5.5,1.9,10.9
				c0.2,0.5,5.1,3.5,5.5,3.7l2.4,0.1c3.3-0.1,5.7-1.1,6-1.6c0.1-0.3,0.2-0.5,0.3-0.8c0.1-0.2,0.2-0.3,0.4-0.4c0.4-0.4,0.8-0.8,1-2.1
				c0.1-1.1,0-2.6-0.1-4.2c-0.1-1.4-0.2-2.9-0.2-4.1c0.1-3.2,0.3-8.6-2-10.3c-0.1,0-0.1-0.1-0.1-0.1c-0.2-0.2-2.6-4.8-3.2-7.2
				c-0.1-0.5-0.8-1.6-1.6-2.9c-0.7-1.2-1.5-2.5-2.1-3.8c-1.4-2.8-8.9-15-9.7-16.4c-1.3-2-4.4-4.2-6.8-5.9c-0.6-0.4-1.2-0.8-1.7-1.2
				c-2.5-1.8-4.7-3-9.1-3.8c-0.9-0.2-3.6,0.2-5.6,0.6c-1.2,0.2-2.1,0.3-2.5,0.3l-0.1,0c-0.3,0-0.6,0-0.9,0c-0.2,0-0.4-0.1-0.5-0.2
				c-0.1-0.1-0.2-0.3-0.2-0.5c0-0.2,0.1-0.3,0.2-0.5c0.1-0.1,0.3-0.2,0.5-0.2c0.3,0,0.6,0,0.9,0l0,0c0.4,0,1.2-0.1,2.2-0.2
				c2-0.2,4.8-0.6,5.8-0.4c2.1,0.4,4.1,1.2,5.9,2l0.3,0.2c0.2,0.1,0.4,0.2,0.6,0.3c1.7,0.8,2.9,1.7,4,2.6c0.2,0.2,0.4,0.3,0.6,0.5
				l0.3,0.3c2.4,1.8,4.9,3.6,6.6,5.9c0.9,1.2,8.6,14,9.9,16.6c0.6,1.2,1.4,2.4,2,3.5c0.8,1.3,1.5,2.4,1.6,3c0.5,2,3,6.1,3.4,6.7
				c1.9,2.1,3.2,9,3.4,12.9c0.1,2.4,0,4.3-0.2,6.5c-0.2,2.2-0.9,3.3-1.2,3.7c-0.1,0.1-0.2,0.3-0.2,0.3c-0.3,1.6-4.6,2.2-8.1,2.3
				c0,0,0,0-0.1,0l-2.4-0.1c0,0-3.6-0.1-4.9-0.1c-1.7,0-3.5-1.3-3.7-2.6c0-0.3-0.5-0.6-1.6-0.7c0,0,0,0,0,0c-0.6,0-5.5,1.1-9.5,2.2
				c0,0-0.1,0-0.1,0c-1.1,0.1-4.6,0.3-5.6-0.6c-0.3-0.2-0.4-0.5-0.4-0.9c0-1.6,1.4-4.2,4.6-4.8c2.1-0.4,4.3-0.9,5.4-1.2
				c-0.1-0.1-0.3,0-0.7,0.1c-0.6,0.2-1.5,0.4-2.7,0c-2.8-0.9-8.4-5.6-11.7-14.3c-0.3,1.1-0.7,2.5-1.2,4c-1,3.1-2.1,6.7-2.3,8.6
				c-0.1,0.9-0.2,2.1-0.3,3.3c-0.1,1.6-0.2,3.2-0.4,3.9c0.2,0.1,0.5,0.3,0.5,0.5c0,0.1,0,0.2-0.1,0.2c-0.3,0.2-0.6,0.5-0.8,0.7
				c-0.2,0.2-0.3,0.3-0.4,0.4c-1.3,0.5-1.5,0.7-1.5,0.8c0,1-1,2.8-1.6,3.6c-0.4,0.5-1.4,2-1.9,2.6l0.1,0.6c0,0.3-0.1,0.6-0.4,0.7
				c-0.3,0.1-0.6,0.1-0.8-0.2c0,0-0.1,0-0.2,0c-0.2,0-0.5,0.1-0.8,0.4C110,129.8,108.1,129.9,107.3,129.9z M106.8,129.1v0.2
				c0,0.1,0,0.1,0.1,0.2c0.1,0.1,0.2,0.2,0.3,0.2c0,0,0.1,0,0.2,0c0.6,0,2.5-0.1,3.6-1.2c0.4-0.4,0.7-0.5,1-0.5
				c0.2,0,0.3,0.1,0.3,0.1c0.1,0.1,0.3,0.2,0.5,0.1c0.2-0.1,0.3-0.2,0.2-0.4l-0.1-0.7l0,0c0.4-0.6,1.4-2.2,1.9-2.7
				c0.6-0.7,1.5-2.5,1.5-3.4c0-0.2,0.3-0.5,1.7-1c0.1,0,0.2-0.2,0.3-0.3c0.2-0.2,0.5-0.5,0.8-0.7c-0.1-0.1-0.2-0.2-0.4-0.3l-0.1-0.1
				l0-0.1c0.2-0.7,0.3-2.3,0.4-4c0.1-1.1,0.2-2.3,0.3-3.3c0.2-1.9,1.3-5.5,2.3-8.7c0.5-1.6,1-3.1,1.3-4.4l0.1-0.4l0.2,0.4
				c3.2,8.9,8.9,13.7,11.7,14.6c1.1,0.4,1.9,0.1,2.5,0c0.5-0.1,0.9-0.2,1.2,0.2l0.1,0.2l-0.2,0c-1,0.2-3.5,0.8-5.7,1.3
				c-3,0.6-4.4,3-4.4,4.6c0,0.2,0.1,0.5,0.3,0.6c0.8,0.7,3.4,0.7,5.4,0.6c0,0,0,0,0.1,0c3.4-0.9,8.8-2.2,9.6-2.2c0,0,0,0,0,0
				c1.2,0.2,1.8,0.5,1.8,1c0.1,1.1,1.9,2.3,3.4,2.3c1.3,0,4.9,0.1,4.9,0.1l2.4,0.1c0,0,0,0,0,0c4.8-0.2,7.6-1,7.8-2.1
				c0-0.1,0.1-0.2,0.2-0.4c0.5-0.8,0.9-1.8,1.1-3.6c0.2-2.1,0.3-4.1,0.2-6.4c-0.2-3.9-1.4-10.7-3.3-12.8c-0.4-0.5-2.9-4.7-3.5-6.8
				c-0.2-0.6-0.8-1.7-1.6-2.9c-0.7-1.1-1.4-2.3-2-3.5c-1.3-2.7-9-15.4-9.9-16.6c-1.7-2.2-4.2-4-6.6-5.8l-0.3-0.3
				c-0.2-0.1-0.4-0.3-0.6-0.5c-1.1-0.8-2.4-1.8-4-2.5c-0.2-0.1-0.4-0.2-0.6-0.3l-0.3-0.2c-1.9-0.8-3.8-1.6-5.9-2
				c-1.1-0.2-3.8,0.1-5.8,0.4c-1,0.1-1.9,0.2-2.2,0.2l0,0c-0.3,0-0.6,0-0.9,0c-0.1,0-0.2,0-0.3,0.1c-0.1,0.1-0.1,0.2-0.1,0.3
				c0,0.1,0,0.2,0.1,0.3c0.1,0.1,0.2,0.1,0.3,0.1c0.2,0,0.5,0,0.8,0l0.1,0c0.4,0,1.4-0.2,2.5-0.3c2.1-0.3,4.7-0.7,5.7-0.6
				c4.5,0.8,6.7,2,9.2,3.9c0.5,0.4,1.1,0.8,1.7,1.2c2.5,1.7,5.6,3.9,6.9,6c0.8,1.3,8.4,13.6,9.8,16.4c0.6,1.3,1.4,2.6,2.1,3.8
				c0.8,1.4,1.5,2.5,1.6,3c0.6,2.3,3,6.8,3.2,7.1c0,0,0,0.1,0.1,0.1c2.4,1.8,2.2,7.1,2.1,10.6c0,1.2,0.1,2.7,0.2,4.1
				c0.1,1.6,0.2,3.1,0.1,4.2c-0.1,1.4-0.7,1.9-1,2.3c-0.1,0.1-0.3,0.2-0.3,0.4c-0.1,0.2-0.3,0.4-0.3,0.7l0,0
				c-0.2,0.6-2.8,1.6-6.2,1.8l-2.4-0.1c-0.3,0-5.4-3.3-5.7-3.8c-2.7-5.9-2-11.1-1.9-11.2l0,0c0.1-0.4,0.3-3-0.8-4.3
				c-0.6-0.7-1.5-0.9-2.6-0.6c-5.8,1.5-5.9,4.7-6,6.8c0,0.8-0.1,1.5-0.5,1.7c-0.3,0.2-0.6,0.2-1.2,0c-2.1-0.7-3.4-1.2-3.4-1.4
				c0-0.1-0.1-0.2-0.2-0.2c-5.6-2-6.2-9.6-6.3-12.8c0,0,0,0,0-0.1c0,0-0.1,0-0.1,0c-0.2-0.1-0.5-0.2-0.8-0.4c-0.1,0-0.1-0.1-0.2-0.1
				c-0.1,0-0.2-0.1-0.3-0.2c-0.1-0.1-0.5-0.2-0.9-0.2l-0.4-0.1l0.4-0.2c0.1-0.1,0.2-0.2,0.3-0.3c0,0,0-0.1,0.1-0.1
				c-0.1-0.1-0.3-0.1-0.6-0.2l-0.5-0.1c0,0-0.5-0.3-0.7-0.4c-0.1-0.1-0.4-0.3-0.7-0.5l-0.4-0.3c-0.1-0.1-0.2-0.2-0.4-0.3
				c1.4,6.3-0.2,12.9-1.1,16.9c-0.3,1.2-0.5,2.2-0.6,2.9c0,0.2-0.1,0.5-0.1,0.7c-0.1,0.5-0.2,1-0.2,1.5c0.1,2.8-1.2,4.9-2.1,6.3
				c-0.4,0.6-0.7,1.1-0.7,1.4c0,0.7-0.8,2.2-1.4,2.9c-0.6,0.7-1.9,2.7-2.1,2.9c0,0.1-0.1,0.1-0.1,0.2l0,0.2l-0.2,0
				c-0.5,0-1,0.2-1.5,0.7c-0.7,0.7-1.8,0.8-2.4,0.9l-0.2,0l0-0.2c0-0.1,0-0.2-0.1-0.2c-0.1-0.1-0.2-0.2-0.3-0.2c0,0-1.2,0-2.4,0.4
				c-0.7,0.2-1.6,0-2-0.1l-0.2,0l0.4-0.7c0.1-0.1,0.1-0.2,0-0.3c0-0.1-0.1-0.2-0.2-0.2l-0.8-0.4l0.1-0.1c0.6-1.1,2-1.9,2.7-2.1
				c0,0,0.1,0,0.1,0c0.7-0.5,1.4-1,2-1.5c0.4-0.3,1-0.5,1.4-0.7c0.3-0.1,0.6-0.3,0.8-0.4c0.1-0.1,0.8-0.3,1.6-0.6
				c-0.2,0-0.3-0.1-0.3-0.1c0,0,0-0.1,0-0.2c0.6-0.7,1.2-1.8,1.3-2.1l0,0c1.7-2.1,2.4-8.5,1.8-18.2c0-0.2,0-0.4,0-0.4
				c0,0,0-0.2,0-0.4c0-1.3,0.1-5.1,0.3-6.2c0.4-2.4,0.9-7.1-0.1-9.5c-0.6-1.5-0.8-3.1-0.9-3.8c0-0.3,0.4-0.4,1.4-0.6
				c1.9-0.4,5.5-1.2,8.8-4c4-3.3,6.4-8.5,7.1-15.4c-0.5,0.4-2.1,1.6-3.6,2.9c-6.5,5.4-10.1,8.2-11,8.2c0,0-0.1,0-0.1,0
				c0,0,0,0-0.1,0l-3,1.6c0,0.3,0.1,0.5,0.2,0.8c0.1,0.2,0.1,0.4,0.2,0.7c0,0.5,0,1-0.1,1.4c0,0.3-0.1,0.6,0,0.8
				c0,0.6,0,0.8-0.2,0.9c-0.2,0-0.3-0.1-0.4-0.3c-0.3,0.8-0.1,4.6,1,7.2c1.1,2.7,0.2,8.4,0,9.1c-0.2,1,0.1,4.3,0.3,5.9
				c0,0.5,0.1,0.8,0.1,0.8c0,0.1,0,0.5,0,1c0,3.6,0,14.6-2.4,17.3c0,0,0,0.1-0.1,0.1c-0.3,0.8-1.1,2.1-1.7,2.4
				c-0.6,0.3-1.5,1-2.6,1.8l-0.1,0.1c-0.6,0.5-1.3,1-1.9,1.4l0,0c-0.4,0.2-2.7,1.3-3.3,3c-0.1,0.2,0,0.4,0.2,0.5l0.4,0.2l-0.4,0.7
				c-0.1,0.1-0.1,0.2,0,0.3c0,0.1,0.1,0.2,0.2,0.2c0,0,1.8,0.8,3.2,0.4c0.4-0.1,0.9-0.2,1.4-0.3L106.8,129.1z M146.6,105.5
				C146.6,105.5,146.6,105.5,146.6,105.5L146.6,105.5z M116,71L116,71L116,71z"/>
		</g>
	</g>
	<g>
		<polygon points="132.1,107.7 130.8,103.1 130.4,93.9 125.9,92.9 124.2,95.5 126.7,103.1 130.4,109.4 		"/>
	</g>
	<g>
		<path d="M119.9,104.7c0,0-0.3-5.7-1.3-9.6c-0.5-1.9-0.1-1.3-1.3-4.6c-1.2-3.3-0.3-3.1-0.3-3.1l0,0.4l0,0.3l0.3,0l0.3,0.3l0.4,0.7
			l0.4,0.1l0.1,0.5l0.7,0.3l-0.2,0.3l0.5,0.2l-0.3,0.2l1.4,0.2l1.2,2.9l-0.2,8.9L119.9,104.7z"/>
	</g>
	<g>
		<path d="M116.2,87.2c1.9,0,2.8,1.3,4.4,1.7c0-0.9,0-1.6,0.3-2.4c0.2-0.6,0.5,0,0.8,0.6c0.5,0.9,2.1,1.7,3,2.1
			c1.5,0.7,4.9,1.7,4.9,1.7s1.2,1.1,1.1,2.1c-0.2,0.4-0.3,0.9-0.6,1.4c-0.5,1-0.3,0.7-1.1,0.1c-0.7-0.5-0.9-1-2-0.8
			c0,0.6,0,1.2,0,1.8c-0.9,0.1-1.9-0.4-2.9-0.3c0,0.7,1,2.3,1.4,3c0.5,1.2,3,7.2,3.9,7.9c-1.2,0-3.8-6.2-4.4-7.1
			c-1-1.5-1.9-3.2-2.8-4.8c-0.9-1.7-2.6-2.7-3.8-3.9c-0.7-0.7-1.8-2.2-2-3.1"/>
	</g>
	<g>
		<g>
			<path class="st1" d="M119.9,89.8c0,0,1.9,1.9,1.7,2.6l0.7-0.4c0,0,0.9,0.7,0.6,1.5c0,0,0.7-0.1,0.6-0.5l0.8,0.9l0.2-0.3l0.4,0.4
				l0.4-0.5l0.5,0.5c0,0-0.1-0.6,0.2-0.8l-0.5-2.4L119.9,89.8z"/>
		</g>
		<g>
			<path class="st1" d="M129.9,89.1l0.1,0.5c0,0.2,0,0.3-0.3,0.4c0,0-0.5,0.6-0.6,0.7c-0.1,0.2-0.2,0.9-0.2,0.9
				c0-0.4-0.4-0.2-0.4-0.2c0,0.7-0.3,1.1-0.3,1c0-0.1-0.2-0.8-0.2-0.8l-0.1,0.6l-0.4-0.2c0,0.5-0.3,1.1-0.3,1.1l-0.2-0.6
				c-0.1,0.5-0.4,0.9-0.4,0.9c0-0.4,0-0.7,0-0.7c-0.3,0.1-0.5,0.4-0.8,0.4c-0.2,0-0.6-0.1-0.6-0.4c0-0.1,0.2-0.4,0.1-0.6
				c-0.1-0.1-0.2-0.1-0.3-0.2c-0.1-0.1-0.2-0.2-0.3-0.3c-0.1-0.1-0.4-0.1-0.6,0c-0.1,0-1.9,0.7-2.1,0c0,0,0-0.1,0-0.2
				c0.1-0.1,0.2-0.2,0.2-0.3c0-0.1-0.3-0.3-0.6-0.4c-0.1-0.1-0.1-0.1-0.2-0.2c-0.1-0.1-0.1-0.1-0.5,0c0,0-1.5-1.1-1.6-1.3
				c-1.7-2.1,0.3-1,0.3-1.2c0-0.1-0.1-0.3-0.1-0.3l-0.1-0.3c-0.4,0.1-0.4,0.1-0.7,0.1c-0.4,0-0.8-0.2-0.8-0.4c0-0.1,0.1-0.2,0.2-0.3
				c0.4-0.2,1.2-0.6,1.2-0.6s1.5,0.3,5.2-0.9c1.3-0.4,2.7-1,3.7-1.5c1.9-0.9,2.8-1.6,1.1-0.9l-0.1,0.1l0.4,1.6l1-0.2
				C130.9,84.2,129.9,89.1,129.9,89.1z"/>
		</g>
	</g>
	<g>
		<g>
			<path class="st1" d="M141.5,79.9c1.2,0-1.1,1.2-1.1,2.3c0,1.2,1.4,1.6,0.9,7c-0.5,5.5,0.5,7.7-0.7,13.4
				c-1.2,5.7-2.8,15.1-2.8,17.1c0,2,0.8,4.3,0.9,5.3c0.1,0.9-1.1,1.2-1.4,1.7c-0.3,0.5-0.9,3.5-0.3,5.3c0.5,1.8-0.3,3.6-0.3,3.6
				s-0.1,2-0.4,3c-0.3,0.9-1.9,1.9-2.5,1.9c-0.7,0-0.8,0.8-0.8,0.8s-2.4-0.4-3.1,0c-0.7,0.4-0.3-1.1-1-1.1c-0.7,0-2.6,0.9-2.9,0.3
				c-0.3-0.6-0.3-4.3,0.5-4.8c0.9-0.5,2.9-4.3,3.2-5.5c0.1-0.3,0.9-2,1.4-4.6c0.6-3,0.8-7.1,1.2-10.5c0.6-5.5-1.6-10.1-1.3-12.6
				c0.6-5.4-1.8-13.2-1.9-14"/>
		</g>
		<g>
			<path d="M129.5,141.8c0.1,0,0.3,0,0.5-0.2c0.2-0.2,1.5-0.1,2.7,0.1c0.1,0,0.3,0,0.4-0.1c0.1-0.1,0.2-0.2,0.2-0.4
				c0-0.1,0.1-0.4,0.2-0.4c0.9,0,2.6-1.1,3-2.3c0.3-0.9,0.4-2.6,0.5-3c0.2-0.4,0.8-2.1,0.3-3.9c-0.5-1.7,0-4.5,0.3-4.9
				c0.1-0.1,0.3-0.2,0.4-0.3c0.3-0.2,1.7-1,1.7-1s-0.6-0.4-0.6-0.7c0-0.3-0.1-0.8-0.3-1.4c-0.2-1.1-0.6-2.6-0.6-3.8
				c0-1.3,1.1-5.9,2.1-10.5c0.5-2.3,0.3-4.6,0.7-6.5c0.8-3.6-0.1-6.6,0-8.7c0.1-3.9-0.2-5.9-0.3-7.3c0-0.5-0.3-0.8-0.3-1
				c-0.5-3,1.4-3.6,1.1-5.8c-0.3-2.2-2,2.4-2.2,5.8c0,0.5,0.2,0.9,0.4,1.4c0.4,1.1,1,12,0.3,15.4c-0.4,1.9-0.1,4.2-0.7,6.5
				c-1.1,4.8-2.1,9.3-2.1,10.7c0,1.4,0.4,2.9,0.6,4.1c0.1,0.5,0.2,1,0.3,1.3c0,0.3-0.1,0.4-0.6,0.7c-0.3,0.2-0.6,0.4-0.7,0.7
				c-0.4,0.7-1,3.8-0.4,5.7c0.5,1.6-0.3,3.2-0.3,3.2c0,0.1,0,0.1-0.1,0.2c0,0.5-0.2,2.1-0.4,2.8c-0.3,0.7-1.6,1.5-2,1.5
				c-0.6,0-0.9,0.3-1.1,0.8c-0.7-0.1-1.9-0.2-2.7,0c-0.1-0.4-0.3-1-1-1c-0.3,0-0.7,0.1-1.2,0.3c-0.4,0.1-1.1,0.3-1.3,0.3
				c-0.2-0.7-0.5-3.8,0-4.1c1-0.6,3.2-4.6,3.4-5.8c0,0,0.1-0.2,0.1-0.4c0.3-0.7,1.2-2.2,1.6-4.3c0.4-2,0.6-4.6,0.9-7.1
				c0.1-1.2,0.2-2.4,0.4-3.5c0.6-5.4-1.6-9.8-1.3-12.6c0.6-5.1-1.5-12.6-1.9-13.9c0-0.1-0.1-0.2-0.1-0.3c-0.1-0.3-0.4-1.8-0.7-1.8
				c-0.1,0-0.1,1,0,2.1c0.2,2.5,1.9,10.5,1.6,13.8c-0.3,2.7,1.9,7.3,1.3,12.6c-0.1,1.1-0.2,2.4-0.4,3.5c-0.2,2.5-0.5,5-0.8,7
				c-0.4,2-0.9,3.4-1.2,4.1c-0.1,0.3-0.2,0.4-0.2,0.6c0,0.2-0.1,0.7-0.3,1.1c-0.1,0.2-0.3,0.4-0.4,0.6c-0.7,1.5-1.8,3.2-2.3,3.5
				c-1.2,0.7-1.1,4.8-0.7,5.5c0.4,0.8,1.6,0.5,2.6,0.2c0.3-0.1,0.6-0.2,0.7-0.2c0,0.1,0.1,0.2,0.1,0.2c0.1,0.3,0.2,0.7,0.6,0.8
				C129.4,141.8,129.4,141.8,129.5,141.8z"/>
		</g>
	</g>
	<g>
		<g>
			<path class="st1" d="M162.9,115.3c-0.2,0.7,1.2,2.5,1.4,2.7c0,0,3.6,2.6,2.9,5.5c-0.7,2.9-5.2,3.7-6.7,4.2
				c-1.6,0.5-4,3.6-4.5,4.2c-0.5,0.6-3,1.2-3,1.2s-0.2-0.6-0.6-0.7c-0.4-0.1-2.7,0.2-3.1,0c-0.4-0.2,0.2-1.3,0.2-1.3l-1.7,0.1
				c0,0,0.1-2.1,1.4-4.5c1.3-2.4,5.4-2.8,7.3-3.1c1.9-0.3,1.4-1.4,1.4-2.1c0-0.7-0.4-1.2-0.4-1.2c-0.9-0.4-2.9-0.7-6.2-2.7
				c-5.6-3.4-4.6-10.4-4.5-14.4c0.1-4,7.1-1,11.5-0.4"/>
		</g>
		<g>
			<path d="M153,133.5c0,0,0.1,0,0.1,0c0.6-0.1,2.8-0.7,3.3-1.3c0-0.1,0.1-0.1,0.2-0.2c1.8-2.3,3.2-3.5,4-3.8
				c0.2-0.1,0.4-0.1,0.7-0.2c2-0.5,5.7-1.5,6.5-4.4c0.8-3.2-3-5.9-3.1-6c-0.3-0.3-1.3-1.7-1.2-2.1c0.1-0.3-0.1-0.6-0.4-0.6
				c-0.3-0.1,0.7,3.4,1,3.6c0,0,3.7,2.4,3.1,4.9c-0.6,2.3-4.7,2.3-6.5,2.8c-0.3,0.1-0.5,0.1-0.7,0.2c-1.4,0.4-2.8,3.2-4.1,4.9
				c-0.1,0.1-0.1,0.2-0.2,0.2c-0.2,0.2-1.2,0.6-2.3,0.9c-0.2-0.2-0.4-0.5-0.7-0.6c-0.2-0.1-0.6-0.1-1.5,0c-0.4,0-1,0.1-1.4,0.1
				c0.1-0.2,0.2-0.4,0.3-0.6c0.1-0.2,0.1-0.4,0-0.5c-0.1-0.2-1.5-0.2-1.5-0.2c0.1-0.8,0-2.7,0.8-4.3c1-1.9,4.7-2.3,6.7-2.6
				c0.3,0,0.6-0.2,0.9-0.3c2.1-0.4,1.8-1.1,1.8-1.7c0-0.1,0-0.2,0-0.3c0-0.9-0.5-1.5-0.5-1.5c-0.1-0.1-0.1-0.1-0.2-0.1
				c-0.3-0.1-0.6-0.2-1-0.4c-1.1-0.4-2.7-0.9-5.1-2.3c-4.8-2.9-4.5-8.5-4.3-12.6c0-0.5,0.1-0.9,0.1-1.3c-0.1-1.9,2.8-2.4,5.8-0.9
				c0.9,0.4,1,0.2,0.5-0.1c-2.3-1.5-5.1-2-6.4-1c-0.6,0.4-0.9,1.1-0.9,2c0,0.4,0,0.8-0.1,1.3c-0.2,4.1-1,11.9,4.3,15.1
				c2.5,1.5,6.9,1.6,6.9,2c0,0.1,0,0.3,0,0.4c0.1,0.6,0.1,1-1,1.2c-0.2,0-0.5,0.1-0.8,0.1c-2.1,0.3-5.7,0.9-7,3.3
				c-1.4,2.5-1.5,4.7-1.5,4.7c0,0.1,0,0.3,0.2,0.4c0.1,0.1,0.3,0.2,0.4,0.1c0,0,0.7,0.4,0.8,0.6c0.1,0.2,0.2,0.4,0.4,0.5
				c0.3,0.2,0.9,0.2,2.1,0.1c0.4,0,1.3,0.2,1.3,0.3C152.6,133.3,152.8,133.5,153,133.5z"/>
		</g>
	</g>
	<g>
		<path d="M149.2,102.8c-1.2,0.9-0.6,3.9-0.7,5.2c-0.1,1-0.2,2,0.6,2.8c0.4-0.4,0-1.2-0.1-1.6c-0.1-0.8-0.1-1.8,0-2.6
			c0-0.6,0-1.2,0-1.9c0-0.1,0-0.3,0-0.4c0.1-0.4,0.2-0.7,0.4-1c0.2-0.2,0.4-0.2,0.4-0.6c-0.1,0.1-0.2,0.1-0.3,0.2"/>
	</g>
	<g>
		<path d="M129.9,139.6c1.4,0.1,0.9-2,2-2.3c-0.8,0.2-0.9,2.4-1.1,3.1"/>
	</g>
	<g>
		<path d="M126.7,139.6c1.4,0.1,0.9-2,2-2.3c-0.8,0.2-0.9,2.4-1.1,3.1"/>
	</g>
	<g>
		<path d="M149,130.7c0.7-0.2,1.1-0.1,1.6-0.5c0.3-0.3,0.3-0.7,0.7-1c0,0,0-0.1,0,0c-0.3,0.5-0.4,1.1-0.7,1.5
			c-0.4,0.6-1,0.7-1.2,1.5"/>
	</g>
	<g>
		<path d="M151.5,131.8c1.8,0.1,1.7-2.5,3.1-2.3c-1,1.1-1.4,1.4-1.3,3"/>
	</g>
	<g>
		<path d="M104.1,128.7c0.2-1.1,0.5-1.9,1.1-2.7c-0.5,0.2-1,0.9-1,1.6c-0.8,0-0.9,0.7-1.6,1"/>
	</g>
	<g>
		<path d="M106,128.9c0.2-1.1,0.5-1.9,1.1-2.7c-0.5,0.2-1,0.9-1,1.6c-0.8,0-0.9,0.7-1.6,1"/>
	</g>
	<g>
		<path d="M106.7,128.3c0.4,0,0.8,0,1.1,0c0.1-0.6,0.9-1.2,1.3-1.6c-0.1,0.9-0.9,1.5-1.1,2.3"/>
	</g>
	<g>
		<path d="M166.1,121.2c0.4,0,0,0.7,0,1.1c-0.1,0.6-0.5,1-0.9,1.4c-0.2,0.2-0.3,0.4-0.6,0.5c-0.3,0.1-0.6,0.2-0.8,0.3
			c-0.3,0.1-0.3,0.9-1,0.4c-0.7-0.5,1.6-0.9,1.8-1.1c0.2-0.2,0.4-0.3,0.6-0.5c0.4-0.3,0.3-0.8,0.5-1.2
			C165.8,121.8,165.6,121.2,166.1,121.2z"/>
	</g>
	<g>
		<path class="st1" d="M140.1,100c0,0,0.6,2.1,1.3,2.3l-1.1,0.2c0,0,0.5,1.4,1.2,1.7c0,0-0.8,0.1-1.1-0.2l0.2,1.1h-0.3l0.4,0.6h-0.9
			l0.3,0.9c0,0-0.6-0.6-1-0.6"/>
	</g>
	<g>
		<path d="M121.7,99.1c0,0,0.4,2,1,2.2l-1,0.2c0,0,0.2,1.6,0.8,1.8c0,0-0.6,0.1-0.7,0l0.2,1.4h-0.3l0.1,0.6l-0.5,0.1l0.3,1.1
			c0,0-0.6-0.8-0.9-0.7"/>
	</g>
	<g>
		<path d="M152.1,101.6c0,0,0.7,0.4,0.8,0.9c0,0,0.2-0.2,0.2-0.4c0,0,0.9,0.5,1,1.2c0,0,0.4-0.2,0.3-0.5l-1.7-1L152.1,101.6z"/>
	</g>
	<g>
		<path d="M117.3,88.4c0,0-0.4,0-0.4,0.1l0.2-0.4l-0.3,0.2c0,0-0.1-0.4,0-0.5c0,0-0.2,0-0.3,0c0,0,0.3-0.2,0.3-0.4
			c0,0-0.6,0.1-0.8-0.2c0,0,0.8,0.2,0.9,0c0,0,0,0.3-0.1,0.4c0,0,0.3-0.1,0.3,0c0,0.1-0.2,0.4-0.2,0.4l0.5-0.1l-0.2,0.3l0.3,0
			c0,0-0.1,0.1,0.1,0.5"/>
	</g>
	<g>
		<path d="M138,62.3c1.2,1.1,2,2.9,1.7,3.5c-0.2,0.4-0.6-1.1-1.6-2.6c-0.5-0.8-1.4-1.7-1.9-2.3c-0.1-0.2,0.6,0,1,0.4
			C137.6,61.6,137.7,62.1,138,62.3z"/>
	</g>
	<g>
		<path d="M141.8,85.1c-0.1,2.4,1.6,4.4,1.8,6.7c0.1,1.2,0.1,2.5-0.1,3.6c-0.2,1-0.9,1.3-0.7,3.1c0.2,1.7,1-2.8,1.2-3.9
			c0.2-1.2,0.2-2.7,0-3.9c-0.3-1.4-0.8-2.6-1.3-3.8c-0.5-1.2-0.1-2-0.4-3.7C142,81.5,141.8,85.1,141.8,85.1z"/>
	</g>
	<g>
		<path class="st1" d="M139.4,60.7c0.2,0.1,1.5,0.4,1.7,0.4c-0.2,0.3-0.2,0.4-0.2,0.5c0.4,0.1,2,0.1,2.4,0.4
			c-0.7-0.1-0.8,0.3-0.8,0.3l0.4,0.1l-0.5,0.6l0.8,0.2l-0.3,0.5"/>
	</g>
	<g>
		<path d="M137.1,61.3c0.2,0.1,1.1,0.4,1.2,0.3c-0.2,0.2-0.2,0.3-0.2,0.4c0.3,0.1,0.9,0.1,1.2,0.3c-0.5,0.2-0.1,0.4-0.1,0.4l0.3,0.1
			l-0.3,0.6c0,0,0.3-0.2,0.5,0.2c-0.4,0-0.4,1.1-0.4,1.1"/>
	</g>
	<g>
		<path class="st1" d="M139.8,62c0.7,0.4,1.4,0.7,1.9,1.3c0.5,0.5,0.8,1.3,1,2.1c0.1,0.7-0.2,1.9,0.4,2.3c-0.3-0.5-0.5-0.9-0.6-1.6
			c-0.1-0.7-0.4-1.4-0.8-2c-0.7-1.1-2.5-1.3-3-2.6C138.7,61.6,139.1,61.7,139.8,62z"/>
	</g>
	<g>
		<path d="M134.3,60.3c0.2-0.2,0.3,0.7,0.4,1c0.2,0.6,0.3,1.4,0.2,1.9c-0.1,0.4-0.2,0.8-0.2,1.3c0,0.3,0.1,0.6,0,0.9
			c-0.1,0.3-0.3,0.5-0.3,0.8c0,0.3,0.3,0.1,0.1,0.7c-0.2,0.6-0.2-0.5-0.3-0.8c0-0.3,0.1-0.6,0.1-0.9c0-0.1-0.1-0.2-0.1-0.4
			c0-0.2,0-0.3,0-0.5c0.1-0.4,0-0.7,0.1-1.1c0-0.4,0.1-0.8,0.2-1.2c0-0.4,0-0.6-0.1-1C134.2,60.6,134.1,60.5,134.3,60.3z"/>
	</g>
	<g>
		<path class="st5" d="M164.7,102.1"/>
	</g>
	<g>
		<path class="st1" d="M164.5,104.5c0,0-0.3-2.9-0.5-2.7c-0.2-0.5-0.2-0.4-0.2-0.4c-0.5-0.4-2.6-4.8-2.6-4.8s-1-4-1.6-3.7
			c2.2,1.9,3,1.9,3,1.9l-0.3,0.2l1.3,0.9l-0.6-0.1c-0.4-0.1-0.7-0.1-0.9-0.1c0.2,0.2,0.9,0.6,1.5,1l0.8,0.5l-1.4-0.3l1.3,1l-0.5,0
			l0.9,0.6l-0.5,0.3c0,0,0.3,0.2,0.6,0.5c0.2,0.2,0.4,0.4,0.5,0.4c-0.3,0.1-0.4,0.2-0.4,0.3c0.3,0.2,0.4,1.4,0.4,1.4
			S164.4,100.9,164.5,104.5z"/>
	</g>
	<g>
		<path d="M158.5,96.1c1,0.2,1.9,1.4,2.4,2.2c0.2,0.4,0.3,0.8,0.5,1.2c0.2,0.3,0.7,0.5,0.8,0.9c-0.6-0.5-1.4-1.2-1.8-1.9
			c-0.2-0.5-0.5-1-0.8-1.4C159.4,96.8,158.5,96.3,158.5,96.1"/>
	</g>
	<g>
		<path d="M159.7,96.8c0.1,0.1,0.7,0.5,0.8,0.5c-0.2,0.1-0.2,0.2-0.2,0.2c0.2,0.1,1,0.4,1.2,0.7c-0.3-0.2-0.5,0-0.5,0l0.2,0.1
			l-0.4,0.3l0.4,0.2l-0.3,0.2"/>
	</g>
	<g>
		<path d="M148.8,107.6c-0.1,0.1-0.3,0.8-0.4,0.9c0.2,0,0.2,0,0.3,0.1c-0.1,0.2-0.6,0.9-0.6,1.2c0.2-0.4,0.4-0.2,0.4-0.2l-0.1,0.2
			l0.4,0c0,0-0.3,0.1-0.2,0.4c0.2-0.3,0.6,0.4,0.6,0.4"/>
	</g>
	<g>
		<g>
			<path d="M112.8,81.1c0,0.2-0.1,1.4-0.2,1.6c0.3-0.1,0.4-0.1,0.5,0c-0.1,0.4-0.6,1.8-0.5,2.2c0.1-0.6,0.5-0.6,0.5-0.6l-0.1,0.4
				l0.7-0.2l-0.1,0.7l0.5-0.1"/>
		</g>
		<g>
			<path d="M112.8,81.8c0.1,0.9,0.1,1.7,0.5,2.5c0.3,0.7,1,1.4,1.7,1.8c0.7,0.4-0.4-0.9-0.8-1.5c-0.8-1.2-0.3-3-1.4-4.1
				C112.8,80.5,112.7,81,112.8,81.8z"/>
		</g>
	</g>
	<g>
		<g>
			<path class="st1" d="M113.4,80.6c0,0.2-0.1,1.3-0.2,1.4c0.3-0.1,0.4-0.1,0.4,0c-0.1,0.3-0.6,1.6-0.4,2c0.1-0.6,0.5-0.5,0.5-0.5
				l-0.1,0.4l0.6-0.2l-0.1,0.6l0.5-0.1"/>
		</g>
		<g>
			<path class="st1" d="M113.4,81.2c0.1,0.8,0.1,1.6,0.5,2.3c0.3,0.6,0.9,1.3,1.5,1.7c0.6,0.4,2.3,0.4,2.5,1
				c-0.4-0.5-1.2-0.6-1.8-0.9c-0.6-0.4-1.1-0.9-1.5-1.5c-0.8-1.1-0.2-2.7-1.2-3.8C113.4,80,113.3,80.5,113.4,81.2z"/>
		</g>
	</g>
	<g>
		<path d="M138,96.2c0.4-1.2,0.4,0.8,0.5,1.2c0.1,0.6,0.3,1.1,0.3,1.7c0.1,1,0.2,2.3-0.1,3.2c-0.2,0.7-0.5,1.3-0.7,2.1
			c-0.1,0.5,0,1-0.2,1.4c-0.2,0.4-0.5,2.5-0.5,2.9c-0.1,0.4-0.4-1.4-0.3-1.9c0-0.5,0.3-0.9,0.4-1.4c0-0.2,0-0.4,0-0.6
			c0-0.3,0-0.5,0.1-0.8c0.2-0.6,0.2-1.2,0.4-1.8c0.1-0.7,0.4-1.3,0.6-2c0.2-0.6,0.1-1,0-1.6C138.3,97.8,137.6,97.4,138,96.2z"/>
	</g>
	<g>
		<path d="M118.1,100c0.4-1.1,0.4,0.7,0.5,1.1c0.1,0.5,0.3,1,0.3,1.6c0.1,0.9,0.2,2.1-0.1,3c-0.2,0.6-0.5,1.2-0.7,1.9
			c-0.1,0.5,0,0.9-0.2,1.3c-0.2,0.4-0.5,2.3-0.5,2.7c-0.1,0.4-0.4-1.3-0.3-1.7c0-0.5,0.3-0.8,0.4-1.3c0-0.2,0-0.4,0-0.5
			c0-0.3,0-0.5,0.1-0.8c0.2-0.5,0.2-1.1,0.4-1.6c0.1-0.6,0.4-1.2,0.6-1.8c0.2-0.5,0.1-1,0-1.5C118.4,101.5,117.7,101.2,118.1,100z"
			/>
	</g>
	<g>
		<path d="M136.4,121.6c0,0,0,0.1,0.1,0.4c0.2,0.8,0.7,2.5,0.5,2.8c-0.2,0.4-0.4-0.1-1,0.8c-0.5,1-0.7,3.1-0.7,5s-0.5,1.4-0.5,1.4
			s-0.1-3.1-0.1-4.1c0-1.1,1.2-2.1,1.4-3.3C136.3,123.4,135.6,121.3,136.4,121.6z"/>
	</g>
	<g>
		<path class="st1" d="M130.9,106.7c-0.4-1.8-0.7-3.3-0.6-4.4c0.4-3.3-1.4-11.3-1.6-13.8l-2.2-0.6c0,0,2.5,5.6,2.5,7.1
			c0,1.5,0.4,2.6,0.6,3.8c0.2,1.3,0.4,5.6,0.5,5.8C130.2,104.9,131.1,107.5,130.9,106.7z"/>
	</g>
	<g>
		<path class="st1" d="M146.4,103.7c0.2-0.4,0-0.9,0.1-1.3c0-0.9,0.3-1.9,0.9-2.4c0,0-1.8,0-1.9,2.1c-0.1,2.1,0.2,5.6,0.2,6.7
			c0,0.5,1.5,4.4,0.9,1.3C146,107.8,145.7,105.1,146.4,103.7z"/>
	</g>
	<g>
		<path d="M147.9,100.7c-0.1,0.1-0.8,0.4-0.9,0.4c0.1,0.1,0.1,0.2,0.2,0.3c-0.2,0.1-1.1,0.2-1.3,0.5c0.4-0.1,0.4,0.1,0.4,0.1
			l-0.2,0.1l0.3,0.3l-0.4,0.2l0.5,0.3"/>
	</g>
	<g>
		<path d="M114.2,79.4c0,0-0.8,0.4-1.1,0.7c-0.2,0.1-0.2,0.2-0.2,0.3c0.1,0.3,0.5,0.4,0.9,0.4c0.2,0,0.3,0,0.6-0.1l1.6-0.5l0.1,0.3
			c0,0-0.7,0.1-1.4,0.8c1.7-0.2,1.2,0.6,1.2,0.6l-1.2,0.4l0.9,0.1c0,0.2-1,0.2-1.1,0.7c0.9-0.3,1,0.5,1,0.5c0.4-0.1,1,0,1.1,0.1
			c0.1,0.1,0.1,0.1,0.2,0.2c0.3,0.1,0.6,0.3,0.6,0.4c0,0.1-0.1,0-0.2,0.5c0.8-0.5,2-0.2,2.1-0.3c0.2-0.1,0.4-0.1,0.6,0
			c0.1,0.1,0.2,0.2,0.4,0.3c0.1,0.1,0.3,0.1,0.3,0.2c0.1,0.1,0,0.4,0,0.6c0.1,0.2,0.5,0.4,0.7,0.3c0.2-0.1,0.5-0.4,0.7-0.5
			c0.3-0.1,0.5,0.2,0.9,0.4c0.4,0.1,0.3,1.6,0.4,1.7c0.2,0.1,1.1,3.8,1.6,3c0.5-0.8-0.8-2.3-0.5-2.5c0.6-0.4,0.1-1.2-0.2-1.9
			c0,0,0.3-2.7,0-2.7c-0.3,0,0,0.3-0.1,0.5c-0.1,0.1-0.3,0.1-0.3,0.1s0.1,0.3,0.1,0.5c0,0.2-0.2,0.4-0.4,0.3c0,0-0.2-0.5-0.1-0.7
			c0-0.3,0.2-0.5,0.2-0.6c-0.1-0.2-0.8-0.4-0.8-0.4s2-1,2.3-1.8c-1.4,0.9-2,0.7-2.1,0.7c-0.1,0-0.2,0-0.3-0.1c-0.3-0.1-1-0.5-1-0.5
			s2.6-0.3,3.9-0.9c-1.6-0.5-0.2-1-0.2-1s-0.4-0.8,0.7-0.9c-0.4-0.7-1.5-0.1-2.1,0.1c-0.3,0.1-0.6,0.1-1.1,0.1
			c-0.5,0-1.3-0.1-1.3-0.1s1.7-0.6,2-0.6c0.1,0,0.1,0,0.2,0c0.2,0,0.7-0.2,1.1-0.4c0.1-0.1,1.3-0.5,1.3-0.8
			c-1.1,0.6-1.9-0.1-1.9-0.1l-0.5-1.6l0.1-0.1c1.6-0.8,0.8,0-1,1c-1,0.6-2.3,1.3-3.5,1.9C115.7,79.5,114.2,79.4,114.2,79.4z"/>
	</g>
	<g>
		<path d="M168.6,118.7c0,0-2.5-0.7-2.7-4.5c-0.2-4-1.2,3-1.2,3l0.4,1.7L168.6,118.7z"/>
	</g>
	<g>
		<path d="M133.1,67.6c-0.4-0.7,0-1.5,0.2-2.3c0.1-0.6,0.3-1.3,0.1-1.9c-0.4-1.5-0.7-1.5-0.6-2.9c0-0.5,0.2-1.8,0-2.3
			c-0.1-0.1-0.2-0.3-0.3-0.2c0,0-0.1,0.3-0.2,0.4c-0.1,0.2-0.1,0.5-0.1,0.8c0,0.3-0.2,1.2-0.4,1.6c-0.2,0.7-0.4,1.3-0.2,2
			c0.1,0.3,0.7,1.3,0.7,1.5c0,0.2,0,0.4,0,0.7c0,0.4-0.2,1.6-0.1,2.1c0,0-0.3,1.3-0.8,1.8c-0.6,0.5,0,0.8,0.9,0.4
			c0.9-0.4,0.8-1.5,0.8-1.5"/>
	</g>
	<g>
		<path class="st6" d="M85.8,81.4c6.3,2.9,20.8-8,28.6-25.2c5.1-11.2,5.7-29.4-2.8-33.4c-5.9-2.8-18.6,10.1-24.9,25.5
			C82.3,59.4,79.6,78.5,85.8,81.4z"/>
		<path d="M88.2,82.2c-0.9,0-1.8-0.2-2.5-0.5c-6.5-3-3.8-22.2,0.8-33.6c4.7-11.6,13.8-22.8,20.6-25.5c1.9-0.7,3.5-0.8,4.7-0.2
			c4,1.9,6.3,7,6.7,14.3c0.3,6.5-1.1,13.8-3.7,19.6C108.5,70.1,98.6,79,92,81.4C90.6,81.9,89.3,82.2,88.2,82.2z M109.9,22.7
			c-0.8,0-1.6,0.2-2.5,0.5c-6.7,2.6-15.6,13.6-20.2,25.1c-4.6,11.3-7.1,30-1.2,32.7l0,0c1.4,0.7,3.4,0.6,5.7-0.3
			c6.5-2.4,16.2-11.2,22.4-24.7c2.5-5.6,3.9-12.9,3.7-19.3c-0.3-7-2.5-11.9-6.3-13.7C111.1,22.8,110.5,22.7,109.9,22.7z"/>
	</g>
	<g>
		<path d="M103,78.4c6.9-1.7,18.6-1.4,24.3-9.5c5.8-8.1,1.8-16.7,1.2-17c-6.5-4.1-17.4,3.3-23.1,11.3c-2.9,4.1-7.3,12.3-6.6,16.5
			C98.9,79.6,100.5,79,103,78.4z"/>
	</g>
	<g>
		<defs>
			<polygon id="SVGID_1_" points="119.3,38.6 116.3,25.1 90,38.9 81.4,63.9 110.5,75.6 125.3,69.1 131.2,58.3 125.3,49.3 			"/>
		</defs>
		<clipPath id="SVGID_2_">
			<use xlink:href="#SVGID_1_"  style="overflow:visible;"/>
		</clipPath>
		<g class="st7">
			<g>
				<path d="M132.9,56.2c0.8,0.2,0.8-0.2,1.9,0.5c0.2,0.1,4,3.1,4.1,2.5c0,0.1,0.3-1,0.3-1c0.2-0.1-0.4-0.1-0.5-0.2
					c0,0-1.3-0.7-1.4-0.8c-0.6-0.3-1.6-0.6-1.8-0.7c-0.3-0.2-1.1-0.4-1.3-0.5c-0.4-0.3-1.8-0.5-2.4-0.6c-0.3-0.1-1.5-0.3-1.5-0.4
					c-0.1-0.1-0.1-0.2-0.2-0.4c-0.2-0.3-0.5-0.6-0.9-0.5c-0.1,0-0.3,0.1-0.4,0.1c-0.4,0-1.5,0.5-1.9,0.2c-0.2-0.2-0.9-0.6-1-0.8
					c-0.1-0.2-0.1-0.4-0.2-0.6c-0.3-0.5-0.7-0.3-1.1-0.3c-0.1,0-3.2-1.5-3.3-1.6c-0.1-0.2-0.2-0.7-0.4-1.1c-0.2-0.5-0.9-1.6-1.4-1.9
					c-0.2-0.2-0.5-0.3-0.6-0.4c-0.1-0.1-0.2-0.1-0.2-0.2c-0.2-0.2-0.8-1.7-1.2-2.7c-0.4-0.9-1.3-2.5-1.9-2.9
					c-0.7-0.6-2.2-1.6-2.3-1.8c-0.2-0.3-0.4-1.1-0.3-1.3c0-0.1,0.7-0.6,1-0.9c0.1-0.1,0.1-0.2,0.1-0.3c0-0.2-0.1-0.5-0.1-0.6
					c0.1-0.1,1.9,0.6,2,0.6c0.4,0.2,1.1,0.9,1.7,1.3c0.9,0.7,1.7,1,2.8,0.9c0.4,0,1.6-0.2,1.8-0.7c0.2-0.4-0.5-0.8-0.9-1
					c-1.3-0.7-3.3-3.7-4-4.3c-0.4-0.3-0.9-0.7-1.5-1c-1.4-0.8-3.1-1.9-4.5-1.8c-0.9,0-3.2,1.1-4,1.8c-0.3,0.3-0.7,0.7-0.9,0.8
					c-0.4,0.2-1,0.3-1.2,0.4c-0.2,0.1-0.6,0.5-0.7,0.9c-0.1,0.2-0.2,0.5-0.3,0.6c-0.1,0.1-0.4,0.2-0.6,0.3c-0.3,0.1-1.4,0.8-2,1.3
					c-0.8,0.6-1.5,1.1-2,1.6c-0.9,0.8-2.2,2.4-3,3.2c-0.7,0.6-3.3,2.6-4.3,3.4c-0.4,0.4-1,1.1-1.2,1.4c-0.6,1-1.9,4.2-2,5
					c-0.1,0.8-0.3,1.8-0.4,1.9c-0.1,0.1-0.3,0.2-0.5,0.4c-0.4,0.4-0.8,1.3-0.9,1.7c-0.3,1-0.2,4.2-0.1,5.2c0.2,1.7,0.7,2.4,2.3,3
					c1,0.4,2.9,0.9,3.3,1c0.4,0.2,1.7,1,2.5,1.6c0.2,0.1,0.2,0.1,0.3,0.2c0.1,0,0.2,0.1,0.3,0.1c0.6,0.1,1.9,0.2,2.3-0.2
					c0.3-0.2,0.5-1,0.4-1.4c-0.1-0.4-0.4-0.9-0.4-1c0-0.1,0.2-0.2,0.2-0.3c0.1-0.2,0-0.5-0.1-0.8c-0.2-0.5-0.6-1.2-0.6-1.2
					s0.5,0.5,0.9,0.8c1.1,0.9,2.1,0.9,3.7,1.6c0.8,0.4,1.8,1,2.3,1.2c0.4,0.2,0.9,0.3,1,0.4c0.1,0.1,0.7,1.4,0.8,1.6
					c0.1,0.4,0.1,0.5,0.5,1c0.6,0.6,0.8,0.7,0.9,1.4c0,0.2,0.1,0.5,0.2,0.8c0.1,0.2,0.3,0.4,0.3,0.7c0.1,0.2,0,0.5,0.1,0.7
					c0.1,0.3,0.5,0.8,0.8,1c0.4,0.3,1.2,0.7,1.2,0.8c0,0.1,0,0.1,0,0.2c0,0.1,0.4,0.8,0.6,1.3c0.1,0.2,0.4,0.5,0.4,0.8
					c0,0.7,0.5,2,0.9,2.6c0.2,0.3,1.9,0.4,1.9,0.4c-0.1,0-0.2-0.1-0.2-0.1c-0.1-0.1-0.1-0.4-0.2-0.6c-0.1-0.1-0.1-0.2-0.2-0.2
					c-0.1,0-0.1,0-0.1-0.2c0-0.1,0.1-0.2,0.1-0.3c0-0.1,1-2.2,2.2-2.5c0.5-0.1,1.2-0.3,1.3-0.3c0.2,0,0.3,0.2,0.6,0.4
					c0.2,0.1,0.5,0.2,0.8,0.1c0.2,0,0.5-0.1,0.9-0.3c0.1,0,0.7-0.7,1.6-1.4l0.1-0.1l2.9-1.2l0.5-0.4c0.9-0.7,1.7-1.3,2.6-2.1
					l1.1-2.2c1.4-1.6,2-3,3.1-5.4c0.1-0.3,0.8-2.9,0.7-3.1c-0.1-0.5-0.8-3.4-0.8-3.4S132.3,56.1,132.9,56.2z"/>
			</g>
			<g>
				<path class="st1" d="M98.8,41.2c0,0.2-0.4,0.6-0.4,0.7c-0.2,0.2-0.3,0.4-0.4,0.5c0,0-0.1,0-0.1,0c-0.1,0-0.8,0.7-0.8,0.7
					s0.4-0.1,0.6-0.2c0.2-0.1,0.4-0.2,0.5-0.3c0.3-0.2,0.6-0.7,1-0.5c0.1,0,0.1,0.1,0.1,0.2c0,0.1-0.2,0.4-0.2,0.4s0.2,0,0.3,0.1
					c0.1,0,0.1,0,0.2,0.2c0,0.1,0,0.1-0.2,0.2l-1.7,1.3c0,0,0.4,0,0.6,0c0.1,0,0.1,0,0.2,0c0.1,0,0.1,0,0.2-0.2l0.6-0.6l0.2,0.2
					c0.1,0.1,0.1,0.1,0,0.3c-0.1,0.2-0.2,0.3-0.3,0.4c-0.2,0.2-0.5,0.4-0.5,0.4s0.4,0,0.5,0c0.1,0,0,0.2,0,0.3
					c0,0.1,0.2,0.3,0.2,0.3c0.1,0,0.2-0.2,0.1-0.2c0-0.1-0.2-0.2-0.2-0.2s0.1-0.1,0.1-0.1c0-0.1-0.2-0.2-0.1-0.2
					c0.1-0.1,0.6,0.3,0.6,0.3c0.3,0.3,0.7,0.6,0.5,0.8c-0.1,0.1-0.2,0.2-0.3,0.2c-0.1,0-0.2-0.2-0.4-0.2c-0.1,0-0.4,0.2-0.6,0.2
					c-0.2,0-0.4-0.1-0.5,0c-0.1,0.1-0.1,0.3-0.2,0.4c-0.1,0.1-0.3,0.1-0.4,0c0-0.1,0-0.2-0.1-0.3c0,0-0.1,0-0.2,0
					c-0.1,0-0.2-0.1-0.2-0.1c-0.1,0-0.2,0.1-0.3,0.1c-0.1,0-0.7,0.8-0.9,0.6c0,0,0,0,0-0.1c0-0.1,0-0.2,0-0.2c0,0-0.2,0-0.4,0
					c-0.1,0-0.1,0-0.2,0c-0.1,0-0.1,0-0.2,0.1l-0.6,0.6c-0.1,0.1-0.2,0.1-0.3,0.1c-0.3,0-0.3,0-0.2-0.3c0-0.1,0.1-0.3,0.2-0.4
					c0.1-0.1,0.1-0.2,0-0.2l-0.1-0.2l0.5-0.4c0,0-0.4,0.1-0.6,0.1c-0.1,0-0.1,0-0.2-0.1c0-0.1-0.1-0.1-0.1-0.1l0.7-0.6L94.7,45
					L94,45.6c-0.2,0.1-0.2,0.1-0.3,0.2c-0.2,0.1-0.4,0.1-0.5,0c0,0,0-0.1,0-0.2c0.1-0.2,0.4-0.6,0.4-0.6s-0.4,0.1-0.6,0.3
					c-1.3,0.6-2.1,2.8-2.5,4.1c-0.1,0.2-0.7,2-0.6,2.5c0,0.3,0.2,0.7,0.2,0.9c0,0.2-0.1,0.5,0,0.5c0,0.1,0.2,0.1,0.2,0.2
					c0.1,0.2,0.2,0.5,0.2,0.5s0.1-0.7,0.2-1c0.1-0.2,0.2-0.3,0.2-0.5c0-0.3-0.1-0.3,0-0.5c0.1-0.1,0.1-0.2,0.2-0.3
					c0.1-0.2,0-0.4,0.1-0.5c0-0.2,0.2-0.4,0.4-0.5c0.1,0,0.3,0,0.3,0s-0.1,0.4-0.2,0.6c-0.1,0.2-0.2,0.2-0.3,0.3
					c0,0.1,0.1,0.3,0.1,0.5c0,0.1-0.2,0.4-0.3,0.7C91,53,91,54,91.2,54.4c0.1,0.2,0.2,0.4,0.2,0.4s0.1-0.5,0.2-0.8
					c0.2-0.5,0.7-1.4,0.7-1.6c0-0.4,0-0.7,0.4-0.9c0.1,0,0.3,0,0.3,0.1c0,0.1-0.2,0.6-0.3,0.7c-0.1,0.1-0.1,0.1-0.1,0.2
					c0,0,0,0.1,0,0.1c0,0.1-0.1,0.3-0.2,0.4c-0.1,0-0.1,0-0.1,0.1c0,0,0.1,0.3,0.1,0.5c0,0.1-0.1,0.4-0.1,0.6
					c-0.1,0.2-0.1,0.4,0,0.7c0,0.2,0.1,0.5,0.1,0.5s0,0,0.1-0.1c0.1-0.2,0.1-0.6,0.2-0.8c0.1-0.2,0.3-0.4,0.4-0.4
					c0.1,0,0.2,0.1,0.2,0.2c0,0.1,0,0.2,0,0.3c0,0.2-0.1,0.6-0.1,0.6s0.3-0.1,0.4-0.1c0.2,0,0.2,0.1,0.2,0.3c0,0.2-0.1,0.4,0,0.6
					c0.1,0.6,0.6,1.1,0.5,1.4c0,0.1-0.1,0.1-0.1,0.1c-0.1,0-0.3-0.1-0.3-0.1s-0.1,0.5-0.1,0.7c0,0.1,0.1,0.1,0.1,0.1
					c0.2,0,0.4,0.1,0.5,0.1c0.2-0.1,0.5-0.3,0.5-0.3l0.8,1c0.1,0.1,0.2,0.2,0.3,0.3c0.3,0.3,0.4,0.3,0.7,0.4c0.1,0,0.2,0.1,0.3,0
					c0,0,0.1-0.1,0.1-0.1s-0.3-0.1-0.5-0.1c-0.3-0.1-0.6-0.4-0.6-0.7c0-0.2,0-0.3-0.1-0.3c0,0-0.1,0-0.1,0c-0.1,0-0.4-0.2-0.5-0.3
					c-0.1-0.1-0.3-0.5-0.3-0.9c-0.1-0.2,0.2-3.6,0.2-3.7c0.1-0.1,0.3-0.3,0.3-0.3s0.1,0.1,0.2,0.2c0,0.1,0,0.4,0,0.7
					c0,0.1,0.1,0.4,0.2,0.4c0,0,0,0,0.1-0.1c0.3-0.8,0.1-1.1,0.3-1.5c0.2-0.4,0.9-1,1.3-1.1c0.2-0.1,0.4,0,0.6-0.1
					c0.2,0,0.5-0.3,0.8-0.5c0.4-0.3,0.6-0.3,1.1-0.4c0.4-0.1,0.9-0.2,1-0.1c0.1,0,0.1,0.2,0.2,0.4c0.1,0.2,0,0.5,0.1,0.7
					c0.1,0.2,0.6,1,0.6,1.1c0.1,0.1,0.3,0.2,0.4,0.3c0.1,0.1,0.4,0.6,0.6,1c0.1,0.2,0.3,0.5,0.5,0.6c0.2,0.1,0.4,0.2,0.5,0.3
					c0.1,0.1,0.3,0.7,0.3,0.8c0,0.1-0.2,0.4-0.2,0.5c-0.1,0.3,0.2,0.8,0.5,1c0.2,0.2,0.6,0.2,0.5,0.4c0,0.1-0.4,0.4-0.5,0.4
					c-0.2,0-0.5-0.1-0.7-0.3c-0.4-0.3-0.3-0.5-0.6-0.5c-0.5,0.1-0.7,0.2-1,0.5c-0.2,0.2-1.4,0.6-1.6,0.8c-0.2,0.2-0.4,0.4-0.6,0.5
					c-0.1,0.1-0.2,0.1-0.3,0.2c0,0-0.1,0-0.1,0c-0.1,0-0.1,0-0.3,0c-0.4-0.1-1-0.1-1.2-0.1c-0.3,0.1-0.6,0.3-0.6,0.3s0.3,0,0.5,0.1
					c0.2,0,0.2,0.1,0.4,0.1c0.1,0.1,0.2,0.1,0.4,0.1l3.5,0.2c0.2,0,0.2,0,0.4,0c0.1,0,0.2-0.1,0.3-0.1c0.3-0.1,0.5-0.2,0.6-0.3
					c0.1-0.1,0.1-0.5,0.2-0.6c0.2-0.2,0.5-0.5,0.5-0.5s0.1,0.1,0.2,0.2c0.1,0.1,0.1,0.2,0.1,0.3c0,0.2-0.1,0.6-0.2,0.9
					c0,0.8,0.4,2.2,0.9,2.8c0.1,0.1,0.3,0.2,0.4,0.3c0.2,0.1,0.5,0.2,0.8,0.3c0.6,0.3,1.6,1.4,2.1,1.8c0.1,0.1,0.2,0.2,0.2,0.2
					c0,0.2-0.2,0.5-0.4,0.5c-0.1,0.1-0.5,0.2-0.6,0.2c-0.2,0-0.7-0.1-0.6,0.1c0,0.1,0.1,0.1,0.1,0.2c0.6,0.6,2,1.4,2.9,1.4
					c0.3,0,0.7-0.1,1.1-0.2c1.2-0.2,1.6,0.1,2.4-0.5c0.3-0.3,1.1-1.2,1.3-1.7c0.2-0.5,0.3-1.9,0.1-2.3c-0.2-0.4-1.3-0.9-1.7-1
					c-0.4-0.1-0.9-0.1-1.1-0.2c-0.4-0.1-1.2-0.7-1.3-0.9c-0.3-0.3-0.5-0.6-0.8-0.9c-0.5-0.6-1.1-0.9-1.3-1.5c-0.1-0.4-0.2-1-0.2-1.1
					c0,0-0.1,0-0.1-0.1c-0.2-0.1-0.6-0.1-0.9-0.2c-0.1-0.1-0.5-0.5-0.6-0.7c-0.8-1.2-0.3-1.2,0.5-0.2c0.2,0.2,0.4,0.4,0.5,0.5
					c0.1,0.1,0.7,0,0.7,0.1c0.2,0.1,0.7,0.8,0.7,0.8s-0.1-0.6,0-0.7c0-0.1,0.1-0.1,0.1-0.1c0.1-0.1,0.1-0.1,0.1-0.1
					c0.1,0,0.2,0.3,0.4,0.5c0.2,0.2,1.6,0.3,2,0.3c0.1,0,0.1,0,0.3-0.1c0.1-0.1,0.4-0.3,0.4-0.3l-0.2-0.3c-0.1-0.1-0.1-0.1-0.2-0.2
					c-0.2-0.3-0.1-0.4,0.1-0.6c0.1-0.1,0.1-0.1,0.3,0l0.8,0.4c0,0-0.3-0.6-0.3-0.7c0-0.1,0.1-0.3,0.1-0.4c0.1,0,0.1,0,0.2,0
					c0.2,0.1,0.5,0.2,0.7,0.3c0.2,0,0.7-0.2,1-0.2c0.6-0.1,1.3,0.3,1.7,0.8c0.5,0.8,0.3,1.2,0.2,2c0,0.1,0,1.4,0.1,1.7
					c0.2,0.5,0.9,0.6,1.4,0.5c0.3,0,1.1-0.4,1.7-0.6c1.6-0.5,2.4-0.3,3-1.9c0.5-1.2,0.6-2.6-0.1-3.6c-0.3-0.4-1.5-1.6-1.5-1.6
					s-0.4,0.2-0.6,0.4c-0.5,0.3-1-0.1-1.6-0.5c-0.8-0.6-2.2-1.9-3.4-1.7c-0.1,0-0.3,0.1-0.4,0.1c-0.1,0-0.2,0-0.2,0.1
					c-0.1,0-0.1,0.1-0.3,0.1c-0.9,0-2.4,0-2.7,0.1c-0.7,0.2-1.7,0.5-1.9,0.5c-0.1,0-0.2-0.1-0.3-0.2c-0.1-0.1-0.1-0.3-0.1-0.5
					c-0.1-0.2-0.6-0.4-0.9-0.5c-0.2-0.1-0.2-0.3-0.1-0.5c0.2-0.3,0.7,0.2,0.9,0.3c0.3,0.2,1.1,0.4,1.5,0.3c0.1,0,0.1-0.1,0.1-0.2
					c-0.1-0.4-1.3-1.3-1.6-1.4c-0.5-0.2-0.9-0.3-0.7-0.7c0.1-0.2,0.5-0.1,0.8,0c0.4,0.2,1.4,0.8,2,1.2c1.1,0.6,2.1,0.4,3.9,0.4
					c0.2,0,0.3,0,0.5,0.1c0.1,0,0.3,0.1,0.3,0.2c0,0,0,0,0,0c0.1,0.1,0.5,0.2,0.8,0.3c0.2,0,0.7,0.3,0.9,0.4c0.5,0.4,1.2,1,1.2,1
					s0.2-0.1,0.2-0.2c0.1-0.1,0.1-0.4,0-0.6c-0.2-1,0-1.3-0.8-2.2c-0.2-0.2-0.3-0.3-0.5-0.5c-0.3-0.3-0.9-1.7-1.3-2.2
					c-0.3-0.4-1.2-1.3-1.6-1.5c-0.5-0.3-0.8-0.3-1-0.8c-0.2-0.4-0.2-0.9-0.4-1.4c-0.2-0.6-0.7-1.3-1.2-1.7c-0.6-0.5-0.8-0.5-1.2-1.1
					c-0.6-0.9-1.2-2-2.1-2.3c-0.3-0.1-1.5-0.2-2.4-0.3c-0.4,0-1.6-0.3-1.8-0.5c-0.2-0.1-0.3-0.2-0.5-0.2c-0.1,0-0.1,0-0.2,0
					c-4.1,1-5.1,2.9-6.8,5l0,0.1l0,0.1l0.4-0.3c0.1-0.1,0.2-0.1,0.2-0.1C98.6,41.1,98.8,41.2,98.8,41.2z"/>
			</g>
			<g>
				<path class="st1" d="M98.5,57.1c0.1,0,0.2,0,0.2-0.1c0,0-0.4-0.8,0.1-2.1c0.1-0.3,0.3-0.5,0.7-0.8c0.2-0.2,0.4-0.3,0.7-0.4
					c0.1,0,0.2,0,0.2-0.1c0,0,0,0,0.1,0c0,0-0.4,0.1-0.7,0.2c-0.2,0.1-0.6,0.3-0.8,0.5c0,0-0.1,0.1-0.1,0.1
					C98.4,55,98.2,56.3,98.5,57.1C98.4,57,98.4,57.1,98.5,57.1z"/>
			</g>
			<g>
				<path class="st1" d="M100,56.3c0.6-0.3,1-0.8,1.3-1.3c0.2-0.3,0.2-0.7,0.2-0.9l-0.2-0.1c-0.1-0.1-0.3-0.1-0.5-0.1
					c-0.2,0-0.3,0-0.4,0.1l-0.1,0.1l0,0c0,0,0.7,0.1,0.7,0.9c0,0.1,0,0.2-0.1,0.3c-0.1,0.3-0.5,0.6-0.7,0.6c0,0,0,0,0,0l-0.1,0
					l0-0.1c0-0.1,0-0.2,0-0.3c0-0.1-0.1-0.3-0.3-0.3c-0.1,0-0.2,0-0.2,0l-0.1,0c-0.2,0.5-0.2,0.9-0.2,1.4
					C99.3,56.6,99.7,56.4,100,56.3z"/>
			</g>
			<g>
				<path class="st1" d="M96.1,61.1C96,61,96,60.9,96,60.9c0-0.3-0.1-0.3-0.2-0.2c-0.5,0.1-0.5,0.2-0.9,0.1c-0.6-0.2-1.3-0.5-1.6-1
					c-0.2-0.3-0.3-0.6-0.4-0.8c-0.3-0.5-0.8-0.9-1-1.3c-0.2-0.3-0.3-0.7-0.5-1c-0.4-0.7-0.8-0.8-1-1.4c-0.1-0.4-0.2-0.9-0.3-1.2
					c-0.1-0.1-0.4-0.6-0.5-0.6c-0.3,0-0.3,1.2-0.2,1.7c0.2,1,1.2,3,1.6,3.6c0.2,0.4,1.6,1.8,2.5,2.6c0.5,0.5,0.6,0.6,1,0.6
					c0.3,0,1.3,0.2,1.5,0.4c0.5,0.2,1.5,0.9,1.5,0.9L96.1,61.1z"/>
			</g>
			<g>
				<path class="st1" d="M88.6,56.6c0.1,0,0.1,0.1,0.1,0.1c0.3,0.8,1.2,3,1.9,3.7c0.5,0.5,1.8,1.5,1.9,1.6c0,0.1,0,0.3-0.1,0.3
					c-0.2,0-0.5-0.2-0.5-0.1c0,0.1,0,0.3,0,0.3c0,0.1-0.2,0.1-0.3,0c-0.2-0.1-0.8-0.5-0.9-0.5c-0.1,0-0.3,0.2-0.4,0.4
					c-0.2,0.4-0.2,0.5,0.3,0.7c1.2,0.4,1.6,0.2,2.5,0.7c0.7,0.4,2.3,1.5,2.5,1.6c0.1,0,0.2,0,0.2,0s-0.7-0.6-1.1-0.8
					c-0.3-0.2-0.6-0.2-0.8-0.5c-0.2-0.1-0.3-0.3-0.4-0.4c-0.2-0.2-0.9-0.3-1-0.4c-0.1-0.1-0.2-0.4-0.1-0.4c0,0,0,0,0.1,0
					c0.2-0.1,2.2,0,2.4,0c0,0,0.1,0,0.1,0c0-0.1-0.3-0.2-0.6-0.3c-1-0.4-2.4-1.9-3-2.5c-0.9-1-1.3-1.4-1.9-2.8
					c-0.3-0.7-0.6-1.6-0.8-1.9c0,0,0-0.1-0.1-0.1c0,0-0.1,0-0.1,0.1c-0.1,0.2-0.1,1.1-0.1,1.1S88.5,56.6,88.6,56.6z"/>
			</g>
			<g>
				<path class="st1" d="M88.5,60.4c0-0.1-0.1-0.6-0.1-0.8c0-0.1,0-0.2,0.1-0.3c0.1-0.1,0.2-0.2,0.2-0.3c0-0.1-0.2-1.5-0.3-1.6
					c0,0-0.1-0.1-0.1-0.1s-0.2,0.8-0.3,1.2c0,0.1,0,0.2,0,0.3c0,0.6,0.3,2,0.3,2S88.4,60.6,88.5,60.4z"/>
			</g>
			<g>
				<path class="st5" d="M117.2,72.3c-0.1,0-1.1,0.2-1.5,0.4c-0.2,0.1-2,0.1-2.2,0c-0.5-0.1-1.2-0.3-1.4-0.3c0,0-0.1,0-0.1,0
					c0,0,0,0,0.1,0.1c0.9,0.5,2.8,0.5,3.6,0.5c0.5,0,1.7-0.2,1.9-0.3C117.6,72.6,117.3,72.3,117.2,72.3z"/>
			</g>
			<g>
				<path class="st5" d="M116,71.2c-0.1-0.1-0.2-0.1-0.4-0.1c-2.3,0.4-3,0.3-5.1-0.5c-0.2-0.1-0.2-0.1-0.2-0.1
					c-0.1,0.1-0.1,0.1,0.2,0.2c1.3,0.7,1.7,0.9,3.2,1.3c0.3,0.1,1.8,0,2.1,0c0.2,0,0.4-0.1,0.6-0.1c0.1,0,0.1-0.2,0-0.3L116,71.2z"
					/>
			</g>
			<g>
				<path class="st5" d="M115.1,70c-0.1,0-0.4,0-0.5,0c-0.6,0.2-1.3,0.2-2,0.1c-0.6-0.1-1.6-0.4-1.8-0.4c-0.1,0-0.1,0-0.1,0
					c0,0,0,0,0.1,0.1c1.1,0.7,2.9,0.8,4,0.8c0.3,0,0.8-0.1,0.9-0.2C115.5,70.3,115.2,70.1,115.1,70z"/>
			</g>
			<g>
				<path class="st5" d="M120.2,70.2l0.5,0.5c0,0,0.6-0.4,1.2-0.8c2.5-1.8,4.6-4.2,5.3-5.7c0.6-1.2,1.4-3.1,1.6-3.6
					c0.2-0.5,0.5-1.9,0.4-2.7c-0.1-0.4-0.2-0.9-0.2-1.2c0-0.3-0.3-1.3-0.5-1.8c-0.1-0.2-0.7,0.5-1,0.4c-0.2-0.1-0.4-0.2-0.6-0.3
					c-0.2-0.1-0.2,0.1-0.1,0.4c0.1,0.2,0.2,0.4,0.3,0.6c0.5,1.2,0.1,3.3-0.3,4.5c-1,2.3-2.5,4-4.6,5.8c-1.2,1-2.9,2.4-2.9,2.4
					s0.4,0.7,0.6,0.8c0,0,0.5-0.3,1.1-0.7c0.4-0.3,1.4-1.1,1.9-1.6c0.8-0.8,1.7-1.5,1.7-1.5s0.2,0.2,0.3,0.2c0,0,0,0.1,0,0.1
					c-0.1,0.1-0.2,0.3-0.4,0.5c-0.4,0.5-1.6,1.6-2.4,2.2L120.2,70.2z"/>
			</g>
			<g>
				<path class="st5" d="M118.4,67.7l0.4,0.4c0,0,2.5-2.1,3.9-3.5c1.9-1.8,2.8-3.2,3.4-5.6c0.2-0.8,0.3-1.3,0.4-1.8
					c0-0.2-0.3-2.5-0.3-0.6c0,0.4-0.3,1.6-0.5,2.4c-0.3,0.7-0.6,1.5-0.7,1.8c-0.2,0.4-1.1,1.6-1.7,2.4c-0.3,0.4-1.5,1.5-2.4,2.3
					L118.4,67.7z"/>
			</g>
			<g>
				<path class="st5" d="M124,70.6c0.8-0.6,3-3.8,3.8-5c0.6-1,2.4-5.4,2.7-6.4c0.1-0.3,0.1-0.6,0-0.9c-0.4-1.4-0.7-2.5-0.8-3
					c-0.2-0.9-0.6-1-0.4-0.4c0.1,0.5,0.3,1.3,0.5,1.9c0.2,0.9,0.3,1.9,0.2,2.4c-0.1,0.6-1.6,4.2-2.5,5.9c-0.7,1.2-3,3.6-4.7,4.8
					c0,0,0,0-0.1,0c-0.7,0.5-1.6,1.1-1.7,1.3c0,0,0,0,0,0.1c0,0.1,0.1,0.4,0.1,0.4S122.9,71.4,124,70.6z"/>
			</g>
			<g>
				<path class="st5" d="M116,64.6c0,0.1,1.6-1.5,2.3-1.9c0.3-0.2,1.6-0.8,1.8-1.3c0.1-0.1-0.4-0.1-0.6-0.1c-0.7,0-2.2,0.4-2.3,0.4
					c-0.1,0.1-0.8,1.3-1,2c-0.1,0.2-0.1,0.3-0.1,0.4C116,64.2,115.9,64.5,116,64.6z"/>
			</g>
			<g>
				<path class="st5" d="M122.9,62.5c0.1,0.1,0.1,0.1,0.1,0.3c0,0,0,0.1,0,0.1c0.1,0,0.8-0.9,1-1.4c0.2-0.4,0.4-0.7,0.5-1
					c1.1-2.3,1.3-3.9,0.4-6.3c-0.3-0.7-0.5-0.9-1.2-1.3c-0.7-0.4-2-1-2-1s1.1,1.1,1.6,1.6c0.2,0.3,0.4,0.5,0.5,0.8
					c0.1,0.3,0.1,0.4,0.3,0.6c0.3,0.3,0.5,0.3,0.5,0.6c0,0.3,0,0.9-0.1,1.1c-0.2,0.5-0.5,1.2-0.5,1.3c0,0.2,0,0.1,0.2,0.2
					c0.2,0.1,0.2,0.5,0.2,0.6c0,0.1-0.6,1.3-0.8,1.5c0,0-0.7,0.8-0.6,0.9c0,0,0.2,0.1,0.2,0.1c0,0,0,0.1-0.1,0.2
					c-0.2,0.3-0.5,0.9-0.5,0.9S122.8,62.4,122.9,62.5z"/>
			</g>
			<g>
				<path d="M108,47.4c0.4,0.1,1.1,0.2,1.9,0.2c0.2,0,0.4,0,0.5-0.1c0,0,0.1,0,0.1,0c0.3,0,0.5,0,0.7,0c0.2,0,0.4-0.1,0.7-0.2
					c0.2-0.1,0.5-0.3,0.6-0.5c0.2-0.3,0.3-0.6,0.3-0.8c0-0.6-0.2-1.2-0.2-1.2c0,0,0.2-0.1,0.2-0.2c0.2-0.1,0.6-0.3,0.6-0.4
					c0-0.1,0-0.1,0-0.2c-0.2-0.1-0.5,0.1-0.8,0.2c-0.4,0.1-2.1,0.4-2.1,0.4s0.1-0.1,0.1-0.1c0.1-0.1,0.3-0.1,0.4-0.2
					c0.4-0.1,0.7-0.1,0.7-0.3c0-0.1-0.1-0.2-0.2-0.2c-0.1,0-0.2,0-0.4,0c-0.9,0.1-1.9,0.5-2.7,1.3c-0.4,0.4-1,1.2-1,1.2
					s0.3,0.2,0.5,0.2c0.2,0,0.5,0,0.5,0c-0.2,0.3-0.4,0.6-0.7,0.8C107.7,47.3,107.8,47.4,108,47.4z M109.7,45.8
					C109.7,45.7,109.7,45.7,109.7,45.8c0.2-0.1,0.3,0.3,0.5,0.5c0.1,0.1,0.3,0.2,0.4,0.2c0.4,0.1,0.8,0,1.1-0.3
					c0.2-0.2,0.3-0.4,0.2-0.5l0,0l-0.2,0c-0.1,0-0.3,0.1-0.5,0c-0.1,0-0.1-0.1-0.2-0.2c-0.1-0.2-0.2-0.3-0.1-0.4
					c0.4-0.1,0.7-0.2,1.1-0.3c0.1,0.2,0.2,0.6,0.2,0.8c0,0.7-0.4,1.3-1.1,1.4c-0.5,0.1-0.9-0.2-1.3-0.7
					C109.7,46.2,109.7,45.9,109.7,45.8z"/>
			</g>
			<g>
				<path d="M103.1,47.3l0.9,0.4l2.1,0.7c0.2,0.1,0.3-0.1-0.1-0.3l-1.7-0.9l-0.8-0.4c-0.2-0.1-0.2-0.1-0.2-0.1c0,0,0,0-0.1,0
					c-0.2,0-0.3,0.1-0.3,0.4C102.9,47.2,102.9,47.2,103.1,47.3z"/>
			</g>
			<g>
				<path d="M102.3,48c0.4,0.4,0.9,0.9,1.4,1.3l1.9,1.8c0.4,0.4,0.4,0,0.3-0.1l-1.7-2.1l-1.3-1.4c-0.1-0.1-0.2-0.2-0.2-0.2
					c-0.1,0-0.1-0.1-0.2-0.1c-0.1,0-0.3,0.1-0.3,0.4C102.1,47.8,102.1,47.9,102.3,48z"/>
			</g>
			<g>
				<path d="M103.6,51.2l-1-1.8c-0.3-0.4-0.5-0.7-0.8-1.1c-0.2-0.3-0.3-0.5-0.5-0.5c-0.3,0-0.4,0.2-0.4,0.2c0,0.1,0.3,0.5,0.7,1.1
					l1.8,2.2C103.7,51.6,103.8,51.5,103.6,51.2z"/>
			</g>
			<g>
				<path class="st1" d="M108.4,35.8l0.2,0.2c0,0-0.3,0.2-0.3,0.3c0,0.1,0.1,0.1,0.2,0.2c0.1,0.1,0.6,0.1,0.6,0
					c0.1-0.1,0.1-0.3,0.2-0.5c0.2-0.4,0.7-0.4,1.1-0.2c0.4,0.1,0.8,0.3,1.2,0.2c0.2,0,0.4-0.1,0.6-0.1c0.4-0.1,1.8-0.1,2.1-0.1
					c0.7,0.1,1.6,0.5,2.2,0.9c1.3,0.9,1.6,1.6,2.8,1.8c0.2,0,1.3,0.3,1.6,0.2c0,0,0.1,0,0.1,0s-0.6-0.3-1.1-0.6
					c-0.5-0.3-2-1.6-2.5-2.2c-0.3-0.4-1-2-1.2-2.2c-0.4-0.4-3.3-2.1-3.7-2.2c-0.4-0.1-1.1-0.1-1.8,0c-0.1,0-0.2,0-0.3,0.1
					c-0.1,0.1-0.2,0.2-0.4,0.2c-0.1,0-0.1,0.1-0.2,0.1c-0.2,0.1-0.3,0.1-0.5,0.1c-0.2,0.1-2.5,1.9-2.8,2c-0.7,0.3-1.1,0.3-1.4,0.9
					c-0.1,0.3-0.1,0.8,0.2,1c0.1,0.1,0.3,0.1,0.5,0.1c0.4,0.1,0.1,0,0-0.5c0-0.1,0.1-0.3,0.3-0.3c0,0,0.1,0,0.3,0.1L108.4,35.8z"/>
			</g>
			<g>
				<path d="M113.5,32.6c-1-0.5-2-0.7-2.7-0.6c-0.7,0.1-2.6,0.9-3.1,1.6c-0.2,0.3-1.5,1-1.3,1.2c0.1,0.1,1.9,0.5,2.2,0.6
					c0.3,0.1,1.1-0.3,1.4-0.3c0.1,0,0.4,0,0.7,0c1.9,0,4.4,0.4,4.9,0.7c0.2,0.1,2,1.4,2.3,1.5c0.5,0.3,1.3,0.8,1.4,0.9l-1.4-1.2
					l-1-1.1C116.1,34.7,115.9,33.7,113.5,32.6z"/>
			</g>
			<g>
				<path d="M103.7,43.6c0.2-0.2,0.6-0.6,0.7-0.6c0,0,0.1,0,0.1,0.1c0.3,0.1,1-0.3,1.1-0.4c0.1-0.1,0.2-0.3,0.3-0.4
					c0.2-0.4,0.8-0.9,1.2-1.1c0.4-0.2,0.8-0.4,0.8-0.4c0-0.1,0-0.1,0-0.2c-0.2-0.3-1.2-0.2-2.2,0.3c-0.3,0.1-0.7,0.3-1,0.5
					c-0.4,0.2-1,0.8-1.3,1.2c-0.3,0.4-1,1.3-0.8,1.6c0,0,0.1,0.1,0.1,0.1c0.1,0.1,0.2,0,0.3-0.1l0.3-0.5l0.2,0
					C103.5,43.7,103.5,43.7,103.7,43.6z"/>
			</g>
			<g>
				<path d="M104.5,38.9c-0.4,0-1,0.4-1.2,0.5c-0.5,0.3-1.7,1.3-1.8,2c0,0.1,0,0.2,0.2,0.3c0.4,0.2,0.6-0.4,1-0.7
					c0.2-0.1,0.5-0.2,0.7-0.3c0.1-0.1,0.3-0.1,0.3-0.2c0.1-0.2,0.2-0.3,0-0.4c-0.1,0-0.2-0.1-0.2-0.1c0,0,0,0,0.1-0.1
					c0.6-0.5,1.2-1,1.2-1c0,0,0,0,0,0C104.7,38.8,104.6,38.8,104.5,38.9z"/>
			</g>
			<g>
				<path d="M109,43.2c0.2-0.1,0.7-0.2,0.9-0.4c0.1-0.1,0.1-0.1,0.1-0.2c-0.1-0.5-1.1,0-1.5,0.1c-0.6,0.2-2.4,1-2.5,1.7
					c0,0.1,0,0.8,0.2,0.9c0.2,0.2,1,0.1,1.1-0.2c0.1-0.1,0.1-0.3,0.1-0.4c0.1-0.3,0.7-0.4,1-0.6c0,0,0,0,0.1-0.1
					c0.1-0.1,0.1-0.2,0.1-0.3l-0.1-0.1C108.4,43.7,108.7,43.4,109,43.2z"/>
			</g>
			<g>
				<path d="M114.9,45.8c0.1,0.1,0.1,0.1,0.1,0.2c0.2,0.3,0.7,1.3,0.8,1.5c0,0.1,0,0.2,0,0.2c-0.1,0.1-0.3-0.2-0.5-0.4
					c-0.2-0.2-0.4-0.4-0.6-0.4c-0.2-0.1-0.3,0-0.3,0.2c0,0.1,0,0.1,0.1,0.3c0.4,0.4,0.9,1,1.3,1.1c0.3,0.1,0.5-0.1,0.7-0.3
					c0.1-0.2,0.2-0.5,0.1-0.8c-0.2-0.4-0.5-1.2-0.6-1.3c-0.2-0.2-0.4-0.5-0.6-0.7C115.2,45.4,113.8,44.6,114.9,45.8z"/>
			</g>
			<g>
				<path d="M108.9,39.1c0.1,0,0.2,0.1,0.3,0.1c0.3,0.1,0.7,0.4,0.9,0.6c0.5,0.4,1,1.3,1.3,2c0.2,0.5,0.4,1.2,0.4,1.3
					c0.1,0.1,0.7,0.2,1,0.3c0.1,0,0.2,0.1,0.2,0.2c0.2,0.1,0.3,0.3,0.4,0.4c0.2,0.1,0.4,0,0.4-0.3c0-0.2-0.3-0.7-0.3-0.8
					c-0.1-0.1-0.6-0.3-0.8-0.5c-0.3-0.2-0.2-0.3-0.4-0.8c0-0.2-0.6-1-0.8-1.2c-0.3-0.4-1.7-1.5-1.9-1.6c-0.2-0.1-0.4-0.2-0.7-0.2
					C108.9,38.5,108.6,39,108.9,39.1z"/>
			</g>
			<g>
				<path d="M118.3,58.9c-0.1,0.1-0.1,0.2-0.1,0.3c0,0.1,0.3,0.1,0.4,0.1c0.2,0,0.3-0.2,0.6-0.4c0.1-0.1,0.7-0.3,1.2-0.5
					c0.3-0.1,0.9-0.4,1-0.5c0.2-0.2,0.7-0.9,0.8-1.3c0.4-0.9,0.3-2-0.1-2.7c-0.4-0.7-0.6-0.5-1.3-0.2c-0.8,0.3-1.4-0.4-2.1-0.8
					c-0.5-0.3-1.1-0.6-1.7-0.6c-1.5,0.1-1.6,0.4-2.8,0c-0.4-0.1-1.6-0.7-2.1-0.6c-0.1,0-0.3,0.2-0.3,0.3c0,0,0.2,0.2,0.3,0.3
					c0.2,0.1,0.4,0.2,0.7,0.3c0.3,0.1,1,0.6,1.4,0.8c0.5,0.4,1.1,0.8,1.8,0.8c0.3,0,1.4-0.5,1.6-0.5c0.2,0,0.4,0.1,0.6,0.2
					c0.3,0.1,1.4,0.7,1.9,0.7c0.6,0,0.6-0.1,0.8,0.4c0.2,0.8,0.2,1.7-0.5,2.5c-0.1,0.1-0.2,0.2-0.3,0.3l-1.4,1
					C118.3,58.8,118.3,58.8,118.3,58.9z"/>
			</g>
			<g>
				<path d="M105.4,56.5c-0.2,0.1-0.1,0.4,0,0.6c0.2,0.4,0.6,0.9,0.7,1.3c0.1,0.4,0.1,0.7,0.2,1.1c0.1,0.4,0.4,0.8,0.6,1.2
					c0.2,0.4,0.2,0.9,0.3,1.3c0.1,0.3,0.3,0.6,0.5,0.9c1.1,1.7,1.8,2.4,3.7,2.8c0.4,0.1,0.5,0.1,0.9-0.1c0.7-0.3,1.3-0.6,1.4-1.3
					c0.1-0.5,0-1.3-0.1-1.3c-0.1,0-0.6,0.1-0.7,0.2c-0.1,0.1-0.3,0.3-0.4,0.3c-0.8,0.4-2.4-0.1-3.1-0.6c-0.7-0.5-2.1-2.4-2.4-3.3
					c-0.5-1.4-0.2-1.9-1.4-3.2C105.7,56.5,105.5,56.5,105.4,56.5z"/>
			</g>
			<g>
				<path class="st1" d="M113.6,59c0.1,0.2,0.3,0.8,0.2,1.1c0,0.1-0.1,0.2,0,0.3c0.1,0.1,0.9,0.4,0.9,0.4s-0.3-0.6-0.3-0.9
					c0-0.3,0.3-0.6,0.6-0.6c0.2,0,1.1,0.2,1.1,0.2s-0.1-0.3-0.1-0.6c0-0.2,0.3-1.2,0.3-1.5c0-0.7-0.3-1.3-1.1-1.5
					c-0.1,0-0.2,0-0.3,0c-0.1,0-0.1,0-0.3,0.2c-0.4,0.3-1.1,0.8-1.2,0.9c-0.1,0.1-0.1,0.3-0.2,0.4c-0.1,0.1-0.9,0.5-1.3,0.9
					c-0.2,0.1-0.7,0.8-0.8,0.9c-0.2,0.5-0.2,1.1,0.3,1.4c0.1,0.1,0.6,0.2,0.7,0.1c0.3-0.1-0.1-0.3-0.3-0.5c-0.5-0.3-0.2-0.9,0.2-1.2
					c0.3-0.2,1-0.5,1-0.5S113.4,58.8,113.6,59z"/>
			</g>
			<g>
				<path d="M115.4,57c-0.3-0.2-0.6-0.2-0.9,0c-0.6,0.5-1,1.1-0.3,1.6c0.4,0.3,1.1,0.5,1.4-0.1C115.9,58,115.8,57.2,115.4,57z"/>
			</g>
			<g>
				<path class="st5" d="M115.8,69.3c0.1,0.1,3.2,3.7,3.2,3.8c0,0.4-0.1,0.6,0.6,0.6c0.8,0,1.5-0.5,2.4-1.2c0.7-0.5,0.7-1.1,0.2-1.8
					c-0.5-0.7-2.5-3.6-3.7-3.5c-0.6,0-3.2,1.5-3.3,1.6c-0.1,0-0.1,0.1-0.1,0.1c0,0,0,0.1,0,0.1C115.3,69.1,115.5,69.2,115.8,69.3z"
					/>
			</g>
			<g>
				<path d="M115.2,69.9c0.2,0.4,1.4,2,2.3,3.2c0.1,0.1,0.2,0.3,0.2,0.3c0,0,0,0.1,0,0.1c0.1,0.5,0.6,0.2,0.9,0
					c0.8-0.5,1.8-0.9,1.4-1.7c-0.2-0.4-0.4-0.7-0.6-1.1c-0.1-0.2-1.2-1.9-1.6-2.2c-0.7-0.4-2.2,0.1-2.9,0.6
					c-0.2,0.2-0.1,0.2,0.1,0.2L115.2,69.9z"/>
			</g>
			<g>
				<path class="st5" d="M117.2,69.7c0,0-0.1-0.1-0.1-0.1c-0.3-0.3-0.7,0-1,0.1c-0.2,0.1-0.2,0.2,0,0.5c0.1,0.2,0.2,0.4,0.4,0.6
					c0.1,0.2,0.7,1,1.2,1.7c0,0,0.1,0.1,0.1,0.1c0.2,0.5,0.2,0.6,0.5,0.5c0.4-0.1,0.8-0.3,0.7-0.6c0-0.2-0.6-1.2-0.9-1.3
					c-0.1,0-0.4,0.1-0.6,0.1c-0.4,0-1-0.6-0.8-1.1c0-0.1,0.1-0.1,0.1-0.2c0.1-0.1,0.1-0.1,0.2-0.2L117.2,69.7z"/>
			</g>
			<g>
				<path class="st5" d="M116,73.8c-0.1-0.3-0.6,0-1.3,0.1c-0.7,0.1-2.5,0-3-0.2c-0.3-0.1-0.6-0.2-0.8-0.2c0,0-0.1,0-0.1,0
					c0,0,0,0.1,0.1,0.1c0.4,0.3,1.7,0.6,2.2,0.7c0.6,0.1,2,0.1,2.7-0.1C116.1,74.1,116.1,73.9,116,73.8z"/>
			</g>
		</g>
	</g>
	<g>
		<path class="st6" d="M131,55.9l-13.8-25.9c0,0,3.6,13.3-3.4,28c-7.3,15.2-21.3,23.1-21.3,23.1l21.4-4.4
			C114,76.7,129.8,73.7,131,55.9z"/>
		<path d="M90.4,81.9l2-1.1c0.1-0.1,14-8,21.2-22.9c6.9-14.4,3.4-27.6,3.4-27.8l0.2-0.1l0.4-0.2l13.8,25.9l0,0.1
			c-0.6,9.3-5.3,14.5-9.1,17.3c-4.1,3-8.1,3.8-8.2,3.8L90.4,81.9z M118,32.3c0.7,4.5,1.4,14.9-3.9,25.9c-5.8,12-15.8,19.5-19.8,22.2
			l19.5-4c0,0,4-0.8,8-3.7c3.7-2.7,8.2-7.7,8.8-16.7L118,32.3z"/>
	</g>
	<g>
		<path d="M88.2,82.4C88.2,82.4,88.2,82.4,88.2,82.4c-1,0-1.8-0.2-2.6-0.5c-3.9-1.8-4.2-8.6-3.9-14c0.4-6.4,2.2-14,4.6-19.9
			c2.7-6.6,6.8-13.3,11.4-18.3c4.5-5,9-7.9,12.2-7.9c0.7,0,1.4,0.1,2,0.4c9.2,4.4,8.2,23.4,3.3,34.1C108.2,71.9,95.4,82.4,88.2,82.4
			z M109.9,22.9c-6.1,0-16.3,9.4-22.9,25.5C84.7,54.2,83,61.7,82.5,68c-0.5,7,1,11.8,3.5,12.9c0.6,0.3,1.3,0.4,2.1,0.4
			c5.9,0,19.1-10.6,25.8-25.4c2.5-5.5,3.9-12.9,3.6-19.2c-0.3-7-2.5-11.8-6.2-13.5C111,23,110.5,22.9,109.9,22.9z"/>
	</g>
	<g>
		<polygon points="113.5,58.9 128.5,68.9 113,59.7 		"/>
	</g>
	<g>
		<path class="st1" d="M117.8,60.4c0.1,0.4,0.4,0.6,0.8,0.6c0.4,0,0.6-0.4,0.6-0.7c-0.1-0.3-0.4-0.6-0.8-0.6
			C118,59.7,117.7,60.1,117.8,60.4z"/>
		<path d="M118.5,61.2c-0.4,0-0.8-0.3-0.9-0.7v0c0-0.2,0-0.4,0.2-0.6c0.1-0.2,0.4-0.3,0.6-0.3c0.5,0,0.9,0.3,1,0.7
			c0,0.2,0,0.4-0.2,0.6C119,61,118.8,61.1,118.5,61.2C118.6,61.2,118.5,61.2,118.5,61.2z M118,60.4c0,0.3,0.3,0.4,0.6,0.4
			c0.1,0,0.3-0.1,0.4-0.2c0.1-0.1,0.1-0.2,0.1-0.3c0-0.3-0.3-0.4-0.6-0.4c-0.1,0-0.3,0.1-0.4,0.2C118,60.2,118,60.3,118,60.4z"/>
	</g>
	<g>
		<path class="st1" d="M124.8,65.1c0,0.3,0.3,0.5,0.6,0.5c0.3,0,0.5-0.3,0.5-0.6c0-0.3-0.3-0.5-0.6-0.5
			C125,64.5,124.7,64.8,124.8,65.1z"/>
		<path d="M125.4,65.7c-0.4,0-0.7-0.3-0.7-0.6l0,0c0-0.2,0-0.4,0.1-0.5c0.1-0.1,0.3-0.2,0.5-0.3c0.4,0,0.7,0.2,0.8,0.6
			c0,0.2,0,0.4-0.1,0.5C125.8,65.6,125.6,65.7,125.4,65.7C125.4,65.7,125.4,65.7,125.4,65.7z M124.9,65.1c0,0.2,0.2,0.4,0.5,0.4
			c0.1,0,0.2-0.1,0.3-0.1c0.1-0.1,0.1-0.2,0.1-0.3c0-0.2-0.2-0.4-0.5-0.4c-0.1,0-0.2,0.1-0.3,0.1C124.9,64.8,124.9,65,124.9,65.1z"
			/>
	</g>
	<g>
		<polygon class="st1" points="29.6,77.4 39.4,72.7 39.4,73 29.7,77.7 		"/>
	</g>
</g>
</svg>
