<?xml version="1.0" encoding="utf-8"?>
<!-- Generator: Adobe Illustrator 19.2.1, SVG Export Plug-In . SVG Version: 6.00 Build 0)  -->
<svg version="1.1" id="Layer_1" xmlns="http://www.w3.org/2000/svg" xmlns:xlink="http://www.w3.org/1999/xlink" x="0px" y="0px"
	 viewBox="0 0 20 20" style="enable-background:new 0 0 20 20;" xml:space="preserve">
<style type="text/css">
	.st0{fill:#FFFFFF;}
</style>
<g>
	<path class="st0" d="M8.8,13.9c-3,0-5.4-2.4-5.4-5.4s2.4-5.4,5.4-5.4c3,0,5.4,2.4,5.4,5.4S11.7,13.9,8.8,13.9z M8.8,5.1
		c-1.9,0-3.4,1.5-3.4,3.4s1.5,3.4,3.4,3.4c1.9,0,3.4-1.5,3.4-3.4S10.6,5.1,8.8,5.1z"/>
</g>
<g>
	<path class="st0" d="M15.6,16.9c-0.3,0-0.5-0.1-0.7-0.3l-4-4.2c-0.4-0.4-0.4-1,0-1.4c0.4-0.4,1-0.4,1.4,0l4,4.2
		c0.4,0.4,0.4,1,0,1.4C16.1,16.8,15.9,16.9,15.6,16.9z"/>
</g>
</svg>
