<?xml version="1.0" encoding="utf-8"?>
<!-- Generator: Adobe Illustrator 19.1.0, SVG Export Plug-In . SVG Version: 6.00 Build 0)  -->
<svg version="1.1" id="Layer_1" xmlns="http://www.w3.org/2000/svg" xmlns:xlink="http://www.w3.org/1999/xlink" x="0px" y="0px"
	 viewBox="0 0 265.3 82.7" style="enable-background:new 0 0 265.3 82.7;" xml:space="preserve">
<style type="text/css">
	.st0{fill:#FFFFFF;}
	.st1{fill:#BCBCBC;}
	.st2{fill:#787778;}
	.st3{fill:#F15C22;}
	.st4{fill:#000017;}
	.st5{fill:#4E84C4;}
</style>
<g>
	<g>
		<path class="st0" d="M184.8,30.3c-0.1,4.6-0.1,9.1-0.1,13.7c0,3.4,1.2,4.7,3.7,4.7c1.8,0,3.8-0.9,3.8-4.8l0.1-13.5h5.9l-0.1,14.2
			c-0.1,5.7-3.9,8.8-9.7,8.8c-5.6,0-9.7-2.5-9.7-8.9c0-5.3,0.1-9.7,0.1-14.1H184.8z"/>
		<path class="st0" d="M205,47.7c1.4,0.4,3.6,1,5.2,1c1.8,0,3.7-0.4,3.7-2.5c0-2.1-2.6-2.3-5.2-3c-2.6-0.8-5.3-2.1-5.3-6.5
			c0-4.8,4.8-7,9.1-7c2.5,0,4.8,0.6,7.1,1.5l-1.6,4.1c-1.5-0.6-3.5-0.9-4.7-0.9c-2.8,0-3.8,1-3.8,2.4c0,0.9,0.6,1.7,3.2,2.2
			c5.7,1.3,7.3,3.6,7.3,6.7c0,5.5-4.4,7.6-9.4,7.6c-2.3,0-4.7-0.5-6.9-1.3L205,47.7z"/>
		<path class="st0" d="M225.7,30.3h5.8l-0.2,22.3h-5.5L225.7,30.3z"/>
		<path class="st0" d="M254.9,35.4c-1.3-0.8-3.3-1.2-4.6-1.2c-4.2,0-7.4,2.8-7.4,7.1c0,4,2.5,7.2,6.8,7.2c2.3,0,3.2-0.6,5-1.2
			l1.7,4.2c-1.6,0.9-4.2,1.7-7.4,1.7c-7.5,0-12.1-4.8-12.1-12c0-7,4.7-11.6,12.8-11.6c3,0,5.5,0.7,7,1.6L254.9,35.4z"/>
	</g>
	<path class="st0" d="M167.5,30.2c-2.4,0-5.1,0.2-6.4,2.8c0-0.1-1-2.8-5.6-2.8c-2.4,0-4.1,0.7-5.5,2.3c0-0.6,0-1.4,0-2.2h-5.8v22.8
		h5.8V37.9c0,0,0-0.1,0-0.9c0.5-0.8,1.7-1.3,2.7-1.3c1.2,0,2.9,0.7,2.9,2.4v15.1h5.9V37.9c0-1.6,1.9-2.2,3.1-2.2
		c1.1,0,2.8,0.7,2.8,2.4v15.1h5.9V34.9C173.3,32.2,170.4,30.2,167.5,30.2z"/>
	<g>
		<path class="st1" d="M166.3,22.9c-2.4-0.6-4.9-0.8-7.4-0.8c-2.5,0-5.1,0.3-7.5,0.8c-2.5,0.6-4.9,1.4-7.2,2.6v-3.7
			c2.2-1.3,4.5-2.4,6.9-3.1c2.4-0.7,4.9-1.1,7.4-1.1c1.2,0,2.4,0.1,3.7,0.3c1.3,0.2,2.6,0.4,3.9,0.8c1.3,0.3,2.5,0.8,3.7,1.3
			c1.2,0.5,2.3,1.1,3.3,1.8v3.8C171,24.3,168.7,23.4,166.3,22.9z"/>
	</g>
	<g>
		<path class="st2" d="M164.7,14.3c-1.9-0.4-3.9-0.7-5.9-0.7c-2,0-4,0.2-6,0.7c-2,0.4-3.9,1.1-5.7,2.1v-3c1.7-1.1,3.6-1.9,5.5-2.5
			c1.9-0.6,3.9-0.9,5.9-0.9c0.9,0,1.9,0.1,3,0.2c1,0.1,2.1,0.3,3.1,0.6c1,0.3,2,0.6,3,1c1,0.4,1.8,0.9,2.6,1.5v3
			C168.5,15.4,166.6,14.7,164.7,14.3z"/>
	</g>
	<g>
		<path class="st1" d="M173.3,58.1v3.8c-1,0.7-2.1,1.3-3.3,1.8c-1.2,0.5-2.5,1-3.7,1.3c-1.3,0.4-2.6,0.6-3.9,0.8
			c-1.3,0.2-2.6,0.3-3.7,0.3c-2.5,0-5-0.4-7.4-1.1c-2.4-0.7-4.8-1.8-6.9-3.1v-3.7c2.3,1.2,4.7,2,7.2,2.6c2.5,0.6,5,0.8,7.5,0.8
			c2.5,0,5-0.3,7.4-0.8C168.7,60.1,171,59.2,173.3,58.1z"/>
	</g>
	<g>
		<path class="st2" d="M170.3,67.2v3c-0.8,0.6-1.7,1-2.6,1.5c-1,0.4-2,0.8-3,1.1c-1,0.3-2,0.5-3.1,0.6c-1,0.1-2,0.2-3,0.2
			c-2,0-4-0.3-5.9-0.9c-1.9-0.6-3.8-1.4-5.5-2.5v-3c1.8,0.9,3.7,1.6,5.7,2c2,0.4,3.9,0.7,6,0.7c2,0,3.9-0.2,5.9-0.7
			C166.6,68.8,168.5,68.1,170.3,67.2z"/>
	</g>
</g>
<rect x="12.4" y="22.3" class="st3" width="40.6" height="40.6"/>
<rect x="53" y="22.3" class="st4" width="40.6" height="40.6"/>
<rect x="93.6" y="22.3" class="st5" width="40.6" height="40.6"/>
<path class="st0" d="M37,53V41c0-1.8-0.3-3.1-1-3.9c-0.7-0.8-1.8-1.2-3.3-1.2c-0.7,0-1.5,0.2-2.3,0.6c-0.8,0.4-1.4,0.9-1.9,1.5v15
	h-4.9V32.1h3.5l0.9,1.9c1.3-1.5,3.3-2.3,5.8-2.3c2.5,0,4.4,0.7,5.9,2.2c1.4,1.5,2.1,3.5,2.1,6.2V53H37z"/>
<path class="st0" d="M71.8,35.9c2.2,0,3.8,0.5,4.8,1.5c1,1,1.5,2.7,1.5,5.2c0,2.3-0.5,4-1.5,5c-1,1.1-2.6,1.6-4.8,1.6
	c-1.2,0-2.2-0.4-3.1-1.1V37.3C69.7,36.4,70.7,35.9,71.8,35.9z M72.9,53.4c3.2,0,5.7-0.9,7.5-2.8c1.8-1.8,2.8-4.5,2.8-7.9
	c0-7.3-3.3-11-10-11c-1.8,0-3.3,0.6-4.5,1.7v-1.4h-4.9v28.1h4.9v-7.8C70,53.1,71.4,53.4,72.9,53.4z"/>
<path class="st0" d="M119.3,36.7c-0.9-0.5-1.8-0.8-2.8-0.8c-1.1,0-2.1,0.5-3,1.5c-0.9,1-1.3,2.3-1.3,3.7V53h-4.9V32.1h4.9v2
	c1.4-1.6,3.2-2.3,5.4-2.3c1.6,0,2.9,0.3,3.8,0.8L119.3,36.7z"/>
<g>
	<path class="st0" d="M138.7,24.2c0,0.9-0.7,1.7-1.7,1.7c-0.9,0-1.7-0.7-1.7-1.7c0-0.9,0.7-1.7,1.7-1.7
		C138,22.5,138.7,23.2,138.7,24.2z M135.7,24.2c0,0.8,0.6,1.4,1.4,1.4c0.8,0,1.4-0.6,1.4-1.4c0-0.8-0.6-1.4-1.4-1.4
		C136.3,22.8,135.7,23.4,135.7,24.2z M136.7,25.1h-0.2v-1.9h0.7c0.4,0,0.6,0.2,0.6,0.5c0,0.3-0.2,0.5-0.5,0.5l0.6,0.9h-0.3l-0.5-0.9
		h-0.4V25.1z M137,24.1c0.3,0,0.6,0,0.6-0.3c0-0.3-0.2-0.3-0.5-0.3h-0.4v0.7H137z"/>
</g>
<path class="st0" d="M134.5,63H11.6V21.5h122.9V63z M12.4,62.2h121.4V22.3H12.4V62.2z"/>
</svg>
