<?xml version="1.0" encoding="utf-8"?>
<!-- Generator: Adobe Illustrator 19.1.0, SVG Export Plug-In . SVG Version: 6.00 Build 0)  -->
<svg version="1.1" id="Layer_1" xmlns="http://www.w3.org/2000/svg" xmlns:xlink="http://www.w3.org/1999/xlink" x="0px" y="0px"
	 viewBox="100 50 700 300" style="enable-background:new 100 50 700 300;" xml:space="preserve">
<style type="text/css">
	.st0{fill:#FFFFFF;}
</style>
<g>
	<g>
		<path class="st0" d="M299.7,132.9c-0.2-1,0.3-1.3,1.2-1.4c2.3-0.1,4.6-0.2,6.9-0.2c0.3,0,0.7,0.4,0.8,0.4c0.6-0.2,1.1-0.5,1.5-0.4
			c2.2,0.4,4.4,0.3,6.6,0c1.3-0.2,2.6,0.4,3.9,0.5c0.2,0,0.3,0,0.5-0.1c2.5-1,4.9-0.5,7.4,0c1.1,0.2,2.3,0.1,3.4,0.2
			c0.9,0.1,1.8,0.4,2.8,0.7c-0.2,1.9-0.5,3.8-0.6,5.7c-0.2,4.7-0.2,9.4-0.3,14.2c-0.1,4-0.2,8-0.2,12c0,3,0.2,6.1,0.2,9.1
			c0,1.4-1.2,2.6-2.7,2.7c-2.4,0.1-4.7,0.4-7.1,0.5c-1.6,0-3.3-0.4-4.9-0.4c-4.5-0.1-9.1,0-13.6-0.1s-9-0.2-13.4-0.5
			c-3.1-0.2-6.1-0.6-9.2-0.8c-1.5-0.1-3,0.1-4.4,0c-2.1-0.2-4.1-0.7-6.2-0.8c-2-0.1-3.9,0.2-5.9,0.2c-1.4,0-2.8-0.2-4.2-0.3
			c-0.1,0-0.3-0.1-0.4-0.1c-2.9,1.1-5.9-0.4-8.8,0.5c-2.9,0.9-5.9,0-8.8-0.1c-2.2,0-4.4,0.1-6.6,0.2c-0.8,0-1.6-0.3-2.3-0.3
			c-2.1,0.1-4.2,0.4-6.3,0.6c-0.5,0.1-1.1,0.1-1.7-0.1c-2.6-0.6-5.2,0.8-7.8-0.5c-0.5-0.2-1.2,0.1-1.8,0c-1.5-0.2-3-0.5-4.5-0.6
			c-2-0.1-4,0-6,1.4c-0.2-1.4-0.3-2.6-0.5-3.8c-0.9-5.1,0.1-10.3,0.1-15.4c0-4.3-0.4-8.6-0.5-12.9c0-3.6,0.1-7.1,0.3-10.7
			c0-0.6,0.5-1.3,0.8-1.9c0.1-0.2,0.6-0.5,0.6-0.4c1.3,1,2.6,0.1,3.7-0.1c2.6-0.5,5.1,0,7.7,0.2c2.2,0.1,4.5,0.2,6.7,0.2
			c3,0,5.9-0.1,8.9-0.2c1.6,0,3.1,0,4.7-0.2c0.9-0.1,1.8,0.7,2.6-0.4c0.2-0.2,0.9-0.2,1.2,0c1.7,1.1,3.3,0.2,4.9,0
			c1.6-0.2,3.3,0,5,0.1c0.2,0,0.4,0.1,0.6,0c2.3-0.6,4.6,0,6.9,0c3.1,0.1,6.1-0.2,9.2,0.1c1.7,0.1,3.4-0.1,4.9,0.2s2.9,0.3,4.3,0.1
			c0.4-0.1,0.9,0.4,1.4,0.4c0.8,0,1.6-0.1,2.4,0c1.1,0.3,2,0.4,3.1-0.1c0.5-0.3,1.4,0.1,2.1,0.3c1.5,0.3,2.9,0.6,4.4,0.8
			c1.1,0.2,2.3,0.5,3.4,0.3c1-0.1,1.9-0.7,2.9-1C299.4,131.8,299.5,132.3,299.7,132.9c-1.8,0.2-3.6,0.7-5.4,0.7c-1.7,0-2,0-2,1.8
			c0,2.9,0,5.8,0,8.8c0,3.9,0.1,7.9,0.2,11.8c0.1,2.8,0.2,5.7,0.2,8.5c0,2.7,0,5.4-0.1,8c0,1,0.5,1.4,1.4,1.5
			c1.2,0.1,2.4,0.2,3.6,0.2c3,0.1,5.9,0,8.9,0.1c2.8,0.1,5.7,0.4,8.5,0.3c2.6-0.1,5.2-0.5,7.8-0.2c2.3,0.2,4.7,0.2,7.1,0.2
			c0.5,0,1.3-0.5,1.3-0.9c0.2-1.9,0.2-3.7,0.2-5.6c0-3.6-0.1-7.1,0-10.7c0.1-3.2,0.5-6.4,0.7-9.6c0.1-2.2,0.2-4.5,0.4-6.7
			c0.1-2,0.3-3.9,0.4-5.9c0-0.9-0.4-1.5-1.3-1.6c-1.2-0.1-2.4-0.2-3.6-0.3c-1.3-0.1-2.7-0.3-4-0.3c-0.6,0-1.5-0.1-1.2,1.1
			c-0.2-0.3-0.3-0.6-0.3-0.6c-2.7,0-5.2,0-7.7,0c-2.7,0-5.3-0.2-8-0.3C304.4,133.1,302,133,299.7,132.9z M249,132
			c-0.2,0-0.7-0.2-1.2-0.2c-2.2,0-4.4-0.1-6.6,0c-4.6,0.1-9.1,0.4-13.7,0.5c-2.7,0-5.4-0.2-8.1-0.4c-1.9-0.1-3.9-0.4-5.8-0.3
			c-1.7,0-3.4,0.3-5.1,0.5c-0.2,0-0.5,0.3-0.5,0.5c-0.2,1.7-0.4,3.3-0.4,5c0,2.1,0.2,4.1,0.3,6.2c0.1,2.9,0.1,5.9,0.1,8.8
			c0,3.3-0.1,6.6-0.1,9.9c0,1.9-0.3,3.7-0.2,5.6c0.1,1.7,0.5,3.3,0.7,5c1.9-0.6,5.2-0.5,7-0.3c2.6,0.4,5.3,0.7,7.9,0.7
			c4.2,0,8.5-0.4,12.7-0.7c1.2-0.1,2.4-0.4,3.5-0.4c2.5,0.1,5,0.4,7.6,0.5c0.7,0,1.4,0,2,0c-0.1-6.9-0.2-13.7-0.3-20.5
			C248.8,145.8,248.9,139,249,132z M291.4,173.7c-0.2-7-0.3-13.8-0.5-20.5s0.8-13.5,0-20c-1.5-0.2-2.6-0.4-3.8-0.5
			c-3.1-0.2-6.2-0.4-9.3-0.5c-1.4-0.1-2.8-0.1-4.2-0.1c-0.8,0-1.6,0-2.4,0c-1,0-1.9-0.2-2.9-0.1c-1.3,0-2.6,0.3-3.9,0.3
			c-1.6-0.1-3.3-0.4-4.9-0.5c-2.2-0.1-4.5,0.3-6.7,0.1c-1.5-0.1-1.8,0.7-1.9,1.8c-0.2,1.3-0.3,2.6-0.3,3.9c0,6.2,0,12.3,0.1,18.5
			c0,2.5,0.2,5,0.1,7.5c-0.1,2.9-0.6,5.8,0.7,8.7c0.4,0.8,0.6,0.9,1.3,0.8c1.4-0.1,2.9-0.2,4.3-0.2c2.6,0,5.3,0.1,7.9,0.1
			c2.4,0,4.9,0,7.3,0c2,0,4.1,0,6.1,0.1c1.9,0.1,3.9,0.1,5.8,0.3C286.6,173.3,288.8,173.5,291.4,173.7z"/>
		<path class="st0" d="M376.4,165.9c-0.8,0-1.5,0.1-2.2,0.1c-1,0-2-0.2-2.9-0.2c-1.5,0-2-0.6-2-2.1c0-5.1,0-10.2,0-15.2
			c0-1.2-0.9-1.6-1.8-1.8c-0.7-0.2-1.6-0.3-2.3-0.1c-1.4,0.3-1,1.7-1,2.4c-0.2,3.4-0.1,6.7-0.1,10.1c0,1.6-0.1,3.3,0,4.9
			c0,1.8-0.2,2.1-2,2.1c-1.5,0-3,0-4.5,0c-0.9,0-1.6-1.3-1.3-2.4c0.2-0.8,0.3-1.7,0.4-2.6c0.2-2.5,0.5-5.1,0.4-7.6
			c0-1.6,0.6-3.4-0.6-4.8c-0.6-0.8-1.2-1.6-1.9-2.2c-0.8-0.6-2.5,0.2-2.6,1.2c-0.2,1.8-0.5,3.6-0.5,5.4c-0.1,3.6-0.1,7.2-0.2,10.8
			c0,0.7,0.2,1.3,0.3,1.8c-1.7,0-3.6-0.1-5.5,0c-1.4,0.1-1.6-0.5-1.6-1.6c0.1-2.6,0.2-5.3,0.3-7.9c0.1-2.7,0-5.4,0-8.1
			c0-2.3,0.2-4.6,0.3-6.8c0.1-1.5,0.6-1.7,2.1-1.4c1.1,0.2,2.3,0.1,3.5,0.1c0.3,0,0.5,0.1,0.8,0.1c-0.3,1.1,0.3,1.7,1.2,1.4
			c1.3-0.4,2.6-1,3.9-1.3c0.4-0.1,1,0.1,1.4,0.2c0.3,0.1,0.6,0.3,0.9,0.4c0.8,0.2,1.6,0.3,2.3,1c0.2,0.2,1.1-0.1,1.7-0.3
			c0.4-0.1,0.9-0.5,1-0.8c0.7-1.8,2.8-1,3.8-2.1c0.1-0.1,0.3-0.1,0.4,0c2.7,1.2,5.8,1.7,8.1,3.9c0.3,0.2,0.5,0.6,0.5,1
			c0.1,2.2,0.2,4.4,0.3,6.6c0,1.8,0,3.5-0.1,5.3c-0.1,2.5-0.2,4.9-0.3,7.4C376.4,163.6,376.4,164.6,376.4,165.9z"/>
		<path class="st0" d="M382.4,140.2c2.1,0.2,4,0.3,5.8,0.6c0.4,0.1,0.9,0.7,0.9,1.1c0,4.3-0.2,8.6-0.2,12.9c0,1.3,0.3,2.6,0.5,3.8
			c0.2,1.1,1.1,1.6,2.2,1.7c1.3,0.2,2.5-0.4,3.1-1.4c0.7-1.2,1.3-2.7,1.4-4.1c0.3-2.8,0.3-5.7,0.3-8.6c0-1.4,0-2.8,0-4.2
			c0-0.5,0-1.3,0.2-1.4c0.7-0.4,1.5-0.7,2.3-0.7c0.9-0.1,1.9,0.1,2.8,0.2c1.3,0.2,2,1.2,2,2.3c0.1,3.5,0.2,7-0.1,10.4
			c-0.2,2.7-0.3,5.4-1.4,8c-1.5,3.5-4.4,5.1-8.2,5c-1.4,0-2.8,0.5-4.2-0.4c-2.4-1.5-5-2.7-7.2-4.5c-0.9-0.8-1.3-2.6-1.4-3.9
			c-0.2-2.6-0.3-5.2-0.1-7.7C381.5,146.3,382,143.3,382.4,140.2z"/>
		<path class="st0" d="M465.8,140.8c-0.6,1.5-1,3.1-2,4.3c-0.6,0.7-2.3,0.9-3.3,0.7c-2.9-0.8-6,0.3-8,2.5c-1.8,1.9-2,4-1.7,6.3
			c0.3,2.9,2.3,4.7,5.2,5.2c2.1,0.3,4.1-0.2,6.2-0.6c0.4-0.1,0.7-0.2,1.2-0.3c0.4,1.3,0.9,2.6,1.3,3.8c0.3,1-0.4,2-1.6,2.3
			c-1.7,0.5-3.4,0.6-5.2,0.7c-2.4,0.2-4.6-0.4-6.7-1.3c-2.8-1.3-4.9-3.4-6.1-6.3c-0.6-1.5-1-3.1-1.2-4.6c-0.4-3.1-0.1-6.3,1.5-9.1
			c2.5-4.5,7.4-7.5,12-6.4c1.3,0.3,2.8,0.1,4.1,0.5C463,139,464.2,139.9,465.8,140.8z"/>
		<path class="st0" d="M407.6,163.6c0.7-1.3,1.3-2.4,2-3.5c0.2-0.3,0.8-0.6,1.2-0.6c1.6,0.2,3.2,0.4,4.8,0.7
			c1.5,0.3,2.5-0.2,2.8-1.4c0.4-1.5-0.4-3.3-1.7-3.7c-0.8-0.2-1.7-0.4-2.6-0.4c-2.2,0-3.7-1.2-5-2.7c-0.1-0.1-0.2-0.3-0.3-0.5
			c-0.6-2.4-0.9-4.8-0.3-7.3c1-4.3,4.2-5.2,7.9-5.7c2.4-0.3,4.6,0.2,6.7,1.4l0.1,0.1c0.8,0.5,2.4,1,2.4,1.4
			c-0.1,1.3-0.7,2.5-1.4,3.7c-0.2,0.4-1.1,0.6-1.6,0.6c-1.8-0.1-3.5-0.6-5.2-0.7c-1.5-0.1-2.6,0.8-2.6,1.8c0,1.4,0.4,2.6,2.1,2.9
			c1.8,0.3,3.7,0.8,5.3,1.7c2.4,1.2,3.9,3.2,4,6.1c0.1,3.7-2.2,6.6-5.8,7.8c-3,1-5.9,1-8.9,0.2c-0.9-0.2-2.3-0.1-2.8-1.5
			C408.8,163.8,408.3,163.8,407.6,163.6z"/>
		<path class="st0" d="M376.7,129.2c-0.1,1.4-0.2,2.9-0.4,4.5c-0.1,1-0.9,1.4-1.7,0.9c-3-2-6.3-3.4-10-3.3c-2.1,0.1-4.1-0.2-6.2,0
			c-2.7,0.2-5.2,1.1-7.7,2.3c-1.2,0.6-2.3,1.2-3.5,1.7c-1.4,0.6-2,0.3-2.2-1.2c-0.2-1.1-0.4-2.2-0.3-3.4c0.1-0.8,0.2-1.6,1.2-2.1
			c2.4-1.2,4.6-2.8,6.9-4.1c0.7-0.4,1.5-0.5,2.3-0.6c2.4-0.3,4.8-0.8,7.2-0.3c1.3,0.3,2.7,0,4,0.2c0.4,0,1.1,0.4,1.2,0.8
			c0.3,0.9,0.8,0.9,1.4,0.7c0.5-0.2,1-0.5,1.3,0.4c0.1,0.3,1,0.7,1.4,0.5c1.5-0.5,1.8,1,2.7,1.4C375.3,128,375.8,128.6,376.7,129.2z
			"/>
		<path class="st0" d="M375.7,170.7c1.2,1.6,0.8,5.2-0.9,6.1c-2,1.1-4.1,2.2-6.3,3c-2.4,0.8-4.9,1.3-7.5,1.7c-0.9,0.2-1.9,0-2.8-0.3
			c-3-1-6.3-0.8-9-2.5c-1.4-0.9-2.8-1.9-4.1-3c-1.1-1-1.1-4.4-0.1-5.5c0.5-0.6,0.9-1,1.7-0.1c2.3,2.5,5.2,3.9,8.7,4.4
			c5,0.7,9.8-0.3,14.5-1.7c1.5-0.4,2.9-0.9,4.4-1.4C374.8,171.3,375.2,171,375.7,170.7z"/>
		<path class="st0" d="M438.4,163.7c-0.9,0.1-1.5,0.3-2.1,0.3c-1.2,0.1-2.5,0.4-3.5,0c-0.6-0.2-0.9-1.6-1-2.5
			c-0.2-4.4-0.3-8.8-0.3-13.3c0-2.6,0.3-5.1,0.5-7.7c0.1-1,1.1-1.6,2.5-1.4c1,0.1,2.1,0.3,3.2,0.2c1-0.1,1.3,0.4,1.4,1.3
			c0,1.3,0.1,2.6,0.1,3.9c0,3.1,0,6.1,0,9.2c0,1.2,0.2,2.3,0.3,3.5C439.5,159.5,439.1,161.7,438.4,163.7z"/>
		<path class="st0" d="M362.2,190.5c-1.9-0.1-3.8-0.2-5.6-0.5c-0.7-0.1-1.4-0.4-2.1-0.7c-0.3-0.1-0.5-0.5-0.7-0.5
			c-1.8,0.5-2.4-1.1-3.6-1.8c-0.4-0.3-1-0.7-1-1.1c0-1.4,0.2-2.9,0.4-4.3c0-0.1,1-0.3,1.5-0.1c0.9,0.3,1.7,0.8,2.5,1.3
			c2.8,1.5,5.8,1.4,8.8,1.8c0.3,0,0.6-0.1,1-0.2c2.8-0.8,5.7-1.7,8.5-2.5c0.5-0.1,1.5-0.3,1.5-0.2c0.3,0.8,0.6,1.7,0.5,2.4
			c-0.3,1.9-1.5,3-3.3,3.9c-2.2,1.1-4.5,1.8-6.8,2.2c-0.5,0.1-1,0.1-1.5,0.2C362.2,190.5,362.2,190.5,362.2,190.5z"/>
		<path class="st0" d="M374,121.5c0,0.7,0,1.1-0.1,1.6s0,1.1-0.3,1.3c-0.3,0.2-0.9,0-1.3-0.2c-2.5-1.6-5.2-2.9-8.2-3
			c-2.7-0.1-5.5,0.2-8.2,0.5c-1.5,0.2-3,0.7-4.2,1.8c-0.5,0.5-1.7,0.7-2.4,0.5c-1.1-0.4-1.1-1.5-0.8-2.6c0.5-2.3,3.7-5.1,6-5.2
			c0.7,0,1.4-0.4,2.2-0.5c0.8-0.2,1.5-0.4,2.3-0.5c0.6-0.1,1.2,0,1.7-0.1c2.8-0.3,5.4,0.4,7.8,1.9c0.4,0.3,1.2,0.1,1.5,0.4
			c1.3,1.1,2.6,2.2,3.8,3.4C374.1,120.9,374,121.4,374,121.5z"/>
		<path class="st0" d="M305.3,141.2c2,0.1,3.8,0.2,5.6,0.4c0.2,0.8,0.3,1.4,0.4,2c0.1,0,0.3,0,0.4,0.1c0.1-0.2,0.2-0.3,0.3-0.5
			c1.7-2.2,3.7-2.7,6.2-1.5c0.1,0.1,0.2,0.1,0.4,0.2c2.7,1,2.9,2.5,1.1,4.8c-0.9,1.2-1.6,1.1-2.9,0.8c-2.6-0.6-5.5,0.3-5.4,3.9
			c0.1,4.2-0.2,8.3-0.4,12.5c-0.1,1.8-1.2,2.1-3,1.8c-3-0.5-3.3-2.1-3.1-4.7c0.2-3.3,0.1-6.7,0.1-10.1
			C305.1,147.8,305.2,144.6,305.3,141.2z"/>
		<path class="st0" d="M217.3,158.6c0-3.8-0.1-7.6,0-11.4c0-1.8,0.4-3.5,0.6-5.3c0.1-0.8,0.5-1.2,1.3-1.1c0.3,0,0.7,0.1,1,0
			c1.3-0.7,2-0.1,2.7,0.9c0.7,0.9,1.6,0.4,2.2,0c2-1.4,4.2-1.5,6.4-1.4c2.5,0.1,4,1.8,5.2,3.9c1.2,2.2,1.2,4.7,1.5,7.1
			c0.3,2.3,0.3,4.7,0.2,7c-0.1,2-0.5,4.1-0.9,6.1c-0.1,0.3-0.7,0.6-1.1,0.6c-1.4-0.1-2.7-0.3-4-0.6c-0.4-0.1-0.9-0.9-0.9-1.3
			c0-1.5,0.3-3,0.4-4.5c0.3-3.4,0.2-6.7-0.6-10.1c-0.7-3.1-3.6-2.8-5.4-1.7c-2.7,1.6-2.5,4.1-2.4,6.5c0.1,3,0.3,6,0.4,9
			c0.1,1.6-2.1,2.5-3.7,1.6c-0.2-0.1-0.3-0.3-0.4-0.4c-3.2-0.1-2.4-2.5-2.5-4.4C217.3,158.8,217.3,158.7,217.3,158.6L217.3,158.6z"
			/>
		<path class="st0" d="M261,171.2c-0.1-0.6-0.4-1.2-0.4-1.8c-0.1-5.7-0.2-11.4-0.2-17c0-3.2,0.1-6.4,0.2-9.7c0.1-1.9,2-1.6,3.1-2.1
			c0.6-0.3,2,0.3,2.4,0.9c0.6,1,1.2,0.8,1.8,0.3c2.7-2.4,10.7,0.2,12.2,3.6c1.6,3.8,2.7,7.7,1.2,11.7c-0.8,2-2,3.8-3.2,5.7
			c-0.3,0.4-0.9,0.7-1.4,0.8c-3.1,0.5-6.3,1.1-9.3-0.6c-0.7-0.4-1.2-0.2-1.1,0.7c0.1,2,0.1,4,0.3,6c0.1,1.2-1.1,1.8-2.5,1.4
			c-0.8-0.2-1.7-0.2-2.6-0.4C261.3,171,261.1,171.1,261,171.2z M266.4,155c-0.3,4.4,0.7,3.6,3.7,3.6c1.6,0,3.2-0.8,3.9-2.1
			c1.6-3,0.4-7.8-2.1-9.5c-1.2-0.8-2.3-0.6-3.3,0c-0.9,0.6-2,1.5-2.1,2.3C266.2,151.2,266.4,153.1,266.4,155z"/>
	</g>
	<g>
		<path class="st0" d="M607.8,133c0,0.3,0.1,0.5,0.1,0.7c-0.5,2.3,0.1,4.6-0.1,7c-0.2,2.3-0.3,4.6-0.4,6.9c-0.1,2.4-0.3,4.9-0.3,7.3
			c0,1.6,0.4,3.2,0.3,4.8c0,2.4,0.7,4.7,0.2,7.3c-1,0.1-1.9,0.2-2.9,0.3c-0.6,0-1.3,0-1.9,0.1c-1.8,0.3-2,0.3-3.9-0.7
			c0-0.6,0-1.2,0-1.7c-0.6-0.4-0.9,0-1.1,0.3c-1.3,2.4-3.7,2.8-6,2.9c-3.2,0.2-5.9-1.2-8.4-3.1c-1.6-1.3-2.5-2.9-3.5-4.6
			c-1-1.8-1.4-3.7-1.6-5.6c-0.2-2,0-4.1,1.1-5.9c0.3-0.4,0.4-0.9,0.6-1.4c0.2-0.8,0.6-1.4,1.2-1.9c0.8-0.6,1.3-1.4,2-2.2
			c0.9-1.1,1.3-1.2,2.8-1c0.7-1.1,1.8-1.4,3.2-1.4c1.7-0.1,3.3,0.2,4.9,0.1c1.7,0,2.6,1.4,3.7,2.3c0.4,0.3,0.7,0.7,1.2,1.3
			c0.2-0.6,0.4-0.9,0.4-1.2c0.1-1.3,0.1-2.6,0.1-3.9c0-0.7,0.1-1.4,0.2-2.1c0-0.4,0.1-0.7,0-1.1c-0.3-1.8,0-2.1,1.8-1.8
			c0-0.1,0-0.2,0-0.2c-0.6-0.3-1.3-0.5-1-1.3c0.1-0.3,0.9-0.6,1.4-0.6C603.9,132.3,605.8,132.1,607.8,133z M591.5,160.7
			c2.1-0.3,3.7,0,4.9-1.3c1.5-1.7,2.9-3.3,2.1-5.8c-0.4-1.2-0.8-2.4-1.2-3.5c-0.4-1.2-1.3-1.9-2.4-2.3c-1.1-0.4-2.3-0.5-3.4,0.3
			c-0.4,0.3-0.9,0.5-1.4,0.7c-1.2,0.5-1.9,1.3-2.4,2.6c-1.1,2.5-0.6,4.7,0.5,7C589.1,159.9,590.2,161.1,591.5,160.7z M601.6,166.1
			c0.9-0.4,1.6-0.7,2.3-1C602.8,164.4,602.7,164.4,601.6,166.1z"/>
		<path class="st0" d="M690.6,165c-0.4,0.2-0.7,0.3-1,0.3c-1.1,0.1-2.2,0.3-3.2,0.3c-1.9,0.1-3.8-0.2-5.1-1.8
			c-1.2-1.4-2.2-3-3.3-4.5c-0.6-0.8-1.1-1.6-1.8-2.4c-0.8-0.9-1.6-0.8-2.1,0.3c-0.1,0.1-0.1,0.4-0.2,0.4c-1.4,0.5-1,1.5-0.8,2.6
			c0.2,1.3,0.4,2.7,0.4,4c0.1,2-1.5,3.9-3.6,3.1c-1.1-0.4-2.3-0.9-3.6-0.6c-0.5,0.1-1-0.3-1.1-0.9c-0.1-0.2-0.1-0.4-0.1-0.6
			c-0.1-1.8-0.1-3.6-0.2-5.4c-0.1-3.1-0.1-6.1-0.2-9.2c0-1.1,0-2.2,0-3.3c0-1.2,0.2-2.5,0.1-3.7c-0.1-1.6,0-3.2,0-4.8
			c0-1.8-0.1-3.6-0.2-5.4c0-0.3,0-1,0.1-1c1.2-0.3,1.1-2,2-2.1c1.7-0.4,3.5-0.6,5.1,0.5c0.6,0.4,1,0.8,1,1.7
			c-0.5,0.4-1.6,0.3-1.5,1.6c0.6-0.2,1.1-0.3,1.8-0.6c0,1.5-0.2,3,0.1,4.3c0.3,1.5-0.1,2.9-0.1,4.3c0,1.4,0,2.9,0,4.4
			c1.1-0.8,2.1-1.6,3.2-2.5c0.1-0.1,0.1-0.2,0.2-0.2c1.8-0.9,3-2.5,4.5-3.8c0.5-0.5,1.4-0.9,2.1-0.9c2.5-0.2,5-0.2,8-0.3
			c-0.5,0.7-0.8,1.1-1.1,1.4c-0.9,0.8-1.8,1.6-2.7,2.4c-0.8,0.8-1.6,1.6-2.4,2.5c-1.1,1.2-2.1,2.4-3.2,3.6c-0.8,0.9-0.9,1.1-0.3,2.1
			c0.9,1.4,1.8,2.7,2.7,4c1.2,1.9,2.5,3.7,3.7,5.6C688.7,162,689.6,163.4,690.6,165z M685.2,140.6c-0.1,0.1-0.1,0.2-0.2,0.3
			c0.4,0.3,0.8,0.7,1.2,0.7c0.3,0,0.6-0.5,0.9-0.7c-0.1-0.1-0.1-0.2-0.2-0.3C686.4,140.6,685.8,140.6,685.2,140.6z M668.9,136.9
			c1.2-0.2,1-0.7,0.4-1.3C669.2,136,669.1,136.4,668.9,136.9z M680.2,143.7c-0.8,0.1-0.8,0.1-1,0.5c0,0.1,0.1,0.2,0.2,0.4
			C679.7,144.4,679.9,144.1,680.2,143.7z M668,133.6c0.1-0.1,0.2-0.2,0.2-0.4L668,133c-0.1,0.1-0.2,0.2-0.3,0.3
			C667.8,133.4,667.8,133.5,668,133.6z"/>
		<path class="st0" d="M524,144c0.5-0.4,0.9-0.6,1.2-0.9c1.5-1.5,3.3-2.1,5.3-2.3c1.2-0.1,2.4,0.5,3.6,0.8c0.7,0.2,1.4,0.5,2,0.8
			c0.3,0.1,0.5,0.3,0.7,0.5c1.5,2,2.5,4.2,2.8,6.8c0.2,1.9,0.7,3.9,0.8,5.8c0,1.5,0.6,2.8,0.4,4.4c-0.3,1.7,0.2,3.6,0.4,5.4
			c0.1,0.6,0.2,1.2,0.3,1.9c-2,0.5-3.8,0.6-5.7,0.4c-1.2-0.1-2.4-0.1-2.8-1.7c0-0.1-0.4-0.2-0.7-0.3c-0.2-0.1-0.5-0.2-0.8-0.3
			c0.3-0.8,0.4-1.5,0.2-2.3c-0.3-1.4,0-2.9,0-4.4c0-1.6-0.1-3.2-0.2-4.8c0-0.7,0-1.3,0.1-2c0.1-0.8,0.1-1.6-0.5-2.2
			c-0.9-0.8-2-1.5-3-2.1c-0.2-0.1-0.6,0-0.9,0.1c-0.7,0.3-1.3,0.6-1.9,1c-0.3,0.2-0.7,0.5-0.7,0.9c-0.2,1.1-0.3,2.3-0.4,3.4
			c0,0.3,0.2,0.7,0.1,0.9c-0.7,1.7,0.1,3.5,0,5.2c-0.1,2,0.2,3.9,0.2,5.9c0,0.8-0.3,1.6-0.4,2.6c-0.6-0.1-1.3-0.2-1.9-0.3
			c-1.4,0-2.7,0-4.1,0c-1.4,0-1.6-0.2-1.7-1.6c-0.1-0.5-0.2-1-0.3-1.5c0-0.7,0-1.3,0-2c0-0.4,0.2-0.7,0.1-1.1
			c-0.6-2.1-0.1-4.1-0.1-6.2c0-1.4,0.1-2.8-0.3-4.2c-0.1-0.2-0.1-0.4-0.1-0.6c0.6-2-0.4-4-0.2-6c0.1-0.4-0.1-0.8-0.1-1.2
			c-0.1-1.4,0.8-2,2.1-1.8c1,0.2,2,0.3,3,0.3c1.9-0.1,2.1,0,2.9,1.6C523.6,143.2,523.7,143.5,524,144z M539.9,166
			c-0.3-0.3-0.5-0.6-0.6-0.6c-0.3,0.1-0.6,0.3-0.8,0.4c0.1,0.2,0.3,0.6,0.4,0.6C539.2,166.4,539.5,166.2,539.9,166z M533.5,142.8
			c-0.4,0.6-0.8,0.8-0.2,1.2c0.2,0.1,0.4,0,0.8,0C533.9,143.6,533.7,143.3,533.5,142.8z M537.8,160.9c0.1,0,0.2,0,0.3-0.1
			c-0.1-0.2-0.1-0.5-0.2-0.7c-0.1,0-0.3,0.1-0.2,0.1C537.7,160.4,537.8,160.6,537.8,160.9z"/>
		<path class="st0" d="M627.4,160c0.3,0.3,0.5,0.6,0.8,0.9c0.1-0.2,0.3-0.3,0.3-0.4c0.1-1.5,0.4-1.8,1.9-1.7c1,0.1,1.8,0.4,2.5,1.1
			c0.9,1,2.3,1.5,2.6,3.1c-0.2,0.2-0.3,0.6-0.6,0.8c-1.6,0.9-3.3,1.8-5,2.7c-0.2,0.1-0.4,0.1-0.6,0.2c-1.2,0.1-2.5,0.3-3.7,0.4
			c-4.5,0.2-8.6-1.1-12-4.2c-0.2-0.2-0.4-0.5-0.6-0.7c-1.1-2.2-2.2-4.4-2.8-6.8c-0.1-0.5-0.1-1-0.1-1.5c0.2-1.8,0.7-3.6,1.6-5.1
			c0.1-0.2,0.3-0.4,0.3-0.5c0.4-2,2-3.1,3.4-4.4c2.6-2.4,5.7-3.3,9.1-3.2c0.6,0,1.3,0.1,1.9,0c2.3-0.2,4.2,0.9,6.1,1.9
			c0.4,0.2,0.9,0.7,1,1.1c0.3,1.1,1.6,1.8,1.3,3.2c0,0.2,0.1,0.4,0.2,0.6c0.9,0.7,0.5,1.9,1,2.8c0.2,0.4,0.3,1,0.4,1.5
			c0,0.1,0.2,0.3,0.1,0.4c-0.6,1.2-0.3,2.4,0.1,3.6c0.1,0.2-0.1,0.6-0.3,0.6c-0.8,0.3-1.5,0.9-2.5,0.7c-0.8-0.2-1.6-0.1-2.5-0.1
			c-0.9-0.1-1.9-0.3-2.8-0.3c-1.7,0.1-3.3,0.3-5,0.4c-0.8,0.1-1.7,0.1-2.5,0.2c-0.4,0.1-0.9,0.1-1.2,0.4c-0.5,0.5-0.1,1,0.2,1.4
			c1.3,2,2.5,2.6,4.9,2.2C625.9,161,626.5,160.4,627.4,160z M623.9,147.1c-4,3.3-4,3.3-4,5.3c2.7-0.7,5.5,0.3,8.3-0.5
			c-0.2-2.2-1.8-3.2-2.8-4.4c-0.1-0.7,0-1.4-0.2-1.6c-0.3-0.3-1-0.4-1.4-0.3c-0.7,0.1-1.5,0.3-2.2,0.5c0.1,1.2,0.1,1.2,1,1.1
			C623,147.2,623.4,147.2,623.9,147.1z M632.8,145.7c0.1-0.1,0.2-0.2,0.4-0.4c-0.5-0.5-1-1.1-1.5-1.7c-0.5-0.6-0.9-1.2-2.1-0.9
			C630.8,143.9,631.8,144.8,632.8,145.7z M619.4,162.9c-0.5-0.2-0.8-0.4-1.1-0.5c-0.1,0-0.4,0.4-0.3,0.6c0.1,0.2,0.4,0.5,0.6,0.5
			S619,163.2,619.4,162.9z M618.7,155.7c-0.4-0.2-0.8-0.4-1.1,0.1c-0.1,0.1-0.1,0.5,0,0.5c0.5,0.4,0.8,0,1.1-0.4
			C618.7,155.9,618.7,155.8,618.7,155.7z"/>
		<path class="st0" d="M555,153.8c0.2-0.5,0.4-0.9,0.5-1.4c0.4-1.1,0.7-2.2,1.1-3.2c0.4-0.9,0.4-0.9,1.7-0.9
			c-0.4-0.7-0.3-1.4,0.1-2.1c0.5-0.9,0.7-1.9,1-2.9c0.4-1.2,0.5-1.2,1.8-1.3c2.1-0.1,4.2-0.4,6.3-0.6c0.6-0.1,1.3-0.3,1.7,0.5
			c0,0.1,0,0.3-0.1,0.4c-1.3,2-2,4.1-2.7,6.3c-0.4,1.2-1,2.3-1.5,3.4c-0.4,0.9-0.7,1.8-1.1,2.7c-0.4,1.2-0.9,2.3-1.3,3.5
			c-0.5,1.5-1,2.9-1.5,4.4c-0.7,1.8-1.5,3.6-2.3,5.4c-0.1,0.2-0.3,0.5-0.3,0.7c0.4,1.1-0.4,1.7-0.9,2.5c-1.8,2.5-4.3,3-7.1,3.3
			c-0.1,0-0.2,0-0.3,0c-2.2,0.8-4.2,0-6.3-0.4c-0.6-1.3-0.4-2.5,0.2-3.7c0.2-0.5,0.5-0.9,0.6-1.4c0.1-0.8,0.6-1,1.3-0.9
			s1.4,0.2,2.2,0.3c1.7,0.3,3.2-1,2.7-2.8c-0.5-2.3-1.2-4.5-2.7-6.4c-0.6-0.9-0.7-1.6-0.5-2.7c-0.9-1.4-1.8-2.7-2.6-3.9
			c-0.4-0.7-0.3-1.1,0.7-2c-0.3-0.2-0.6-0.6-0.8-0.5c-0.8,0.1-1.1-0.4-1.3-1c-0.5-1.3-1-2.7-1.6-4c-0.2-0.5-0.5-1-0.8-1.5
			c-0.5-0.7-0.4-1.3,0.5-1.4c0.6,0,1.1,0.2,1.7,0.2c1.5,0,3.1,0,4.6,0.1c1.1,0,1.7,0.5,2.2,1.6c1.1,2.2,2.1,4.4,3,6.6
			c0.2,0.6,0.4,1.3,0.6,1.9c0.2,0.5,0.4,1,0.6,1.5C554.7,153.8,554.9,153.8,555,153.8z M548.9,148.1c0.1,0,0.3,0,0.4-0.1
			c0-0.3-0.1-0.6-0.1-0.8c-0.1,0-0.3,0-0.4,0.1C548.8,147.6,548.8,147.8,548.9,148.1z M562.2,144.4c0.1-0.5,0.2-0.8,0.2-1.1
			c0-0.1-0.2-0.1-0.4-0.2c-0.1,0.3-0.2,0.5-0.2,0.8C561.9,144,562,144.1,562.2,144.4z M565.3,143c-0.1,0.3-0.2,0.5-0.2,0.6
			s0.2,0.3,0.3,0.3c0.2-0.1,0.4-0.2,0.4-0.3C565.8,143.4,565.6,143.3,565.3,143z"/>
		<path class="st0" d="M660,144.1c-0.6,1.2-1.1,2.4-1.7,3.5c-0.2,0.4-0.8,0.8-1.2,0.8c-1.3,0.1-2.2-0.7-3.2-1.4
			c-0.1-0.1,0-0.4,0-0.9c-0.9,0.4-1.6,0.5-2.4,0.1c-1-0.5-3.2,0.7-3.4,1.8c-0.1,0.3,0,0.7,0.2,0.9c0.4,0.4,0.8,0.8,1.3,1.1
			c1.4,0.6,2.9,1.2,4.4,1.6c2.3,0.7,4.5,1.7,5.9,3.8c0.5,0.8,0.6,1.8,0.9,2.8c0.1,0.2-0.1,0.4,0,0.6c0.6,3-1.2,4.6-3.4,6.1
			c-1.3,0.9-2.7,1.6-4.3,1.8c-0.8,0.1-1.5,0.1-2.3,0.2c-1.9,0.3-3.7,0-5.5-0.2s-3.4-0.9-5.1-1.3c-1.2-0.3-1.2-0.8-0.7-1.9
			c0.5-1.2,1-2.4,1.4-3.6c0.4-1.2,0.7-1.3,1.8-0.9c1.6,0.6,3.1,1.3,4.7,2c0.5,0.2,1.1,0.4,1.6,0.3c1.3-0.2,1.7-0.6,1.8-1.6
			c0.1-1.2-0.4-2.3-1.4-2.7c-1.2-0.5-2.5-0.8-3.6-1.4c-1.9-1.1-4-1.9-5.4-3.9c-0.7-1-0.9-1.9-0.5-3.1c0.3-0.9,0.5-1.9,0.8-2.8
			c0.2-0.5,0.4-1,0.7-1.4c2.1-2.7,4.8-4.2,8.3-4.1c2.9,0.1,5.5,1,8.2,1.8c0.3,0.1,0.6,0.5,0.9,0.8
			C659.3,143.1,659.6,143.5,660,144.1z M652.9,165.6c-0.9-1-1.3-1-2,0.2C651.7,166,652.3,166.1,652.9,165.6z M653,163.3
			c-0.2-0.1-0.4-0.2-0.4-0.2c-0.1,0-0.3,0.2-0.3,0.3s0.1,0.2,0.2,0.3C652.6,163.6,652.7,163.5,653,163.3z"/>
		<path class="st0" d="M498.4,167.2c-1,0.3-1.7,0.6-2.4,0.8c-0.9,0.2-2,0.5-2.9,0.3c-1.1-0.3-2.4-0.2-3.4-1
			c-0.2-0.2-0.5-0.4-0.7-0.3c-1.5,0.4-2.3-0.6-3-1.5c-0.9-1-1.6-2.3-1.5-3.7c0.2-2.6-0.6-5.2-0.7-7.8c-0.1-1.4-0.2-2.8-0.2-4.2
			c0-0.8-0.2-1.3-1.1-1.6c-1.5-0.5-1.5-0.6-1.5-2.1c0-1.2,0.1-2.5-0.5-3.7c-0.4-0.8,0.2-1.4,1.1-1.7c0.6-0.2,1.4-0.2,1.7-0.6
			c0.3-0.4,0.1-1.2,0.1-1.8c0-1.1,0-2.2,0-3.3c0.8-0.3,1.7-0.7,2.7-0.9c0.7-0.1,1.4,0.1,2.1,0.2c3.5,0.5,2.9,0.3,3.2,3.7
			c0.1,1.1,0.1,2.2,0.1,3.4c1.1,0.3,1.9,0.5,2.8,0.1c2.1-0.9,3,0.6,3.1,2.2c0,0.8-0.1,1.7,0.1,2.6c0.3,1.2-0.7,2-2,1.9
			c-0.7-0.1-1.4-0.2-2.2-0.2c-0.9,0-1.3,0.3-1.2,1.2c0.3,2.3,0.4,4.6,0.8,6.8c0.3,1.6,1,3.1,1.5,4.6c0.1,0.2,0.5,0.4,0.7,0.4
			c0.6,0,1.2-0.1,1.8-0.3c0.8-0.2,1.4-0.1,1.4,0.7C498.6,163.3,498.8,165.3,498.4,167.2z"/>
		<path class="st0" d="M510.8,166.8c-2,0.2-4,0.5-5.9,0.6c-1.4,0.1-1.5-0.1-1.6-1.4c-0.1-2.5-0.4-5-0.5-7.5
			c-0.2-3.9-0.2-7.7-0.4-11.6c0-1,0-2.1,0-3.1c0-0.8,0.2-1.5,0.8-2.2c1.7,1.1,3.5,0.6,5.2,0.3c1.2-0.2,1.5-0.1,1.5,1.2
			c0,1.7-0.2,3.3-0.1,5c0.2,2.3,0.3,4.6,0.2,6.9c-0.1,2.8,0.5,5.6,0.3,8.4C510.3,164.5,510.6,165.5,510.8,166.8z"/>
		<path class="st0" d="M509.8,138.5c-0.9,0.2-1.7,0.4-2.6,0.5c-1.2,0.1-2.5,0.1-3.8,0.1c-1.5,0-2-0.5-1.7-2c0-0.2,0.2-0.6,0-0.7
			c-0.7-1-0.1-2-0.3-3.1c-0.2-0.9,0.7-1.7,1.6-1.6c1.4,0,2.9,0.1,4.3,0.1c0.6,0,0.8,0.2,1.2,0.7
			C509.7,134.2,509.7,136.2,509.8,138.5z"/>
	</g>
	<g>
		<path class="st0" d="M183.6,124.2c-1.1-1.4-2.3-2.3-3.6-3.1c-1.8-1.1-3.3-2.7-4.7-4.3c-0.7-0.8-1.4-1.3-2.3-1.7
			c-0.3-0.2-0.7-0.4-1-0.6c-0.1-0.1-0.1-0.5-0.1-0.8c0-0.1,0.3-0.3,0.5-0.3s0.5,0.1,0.7,0.3c1.5,1.1,3.2,1.7,4.5,3.3
			c0.7,0.8,1.5,1.4,2.4,2.1c1.2,0.9,2.5,1.7,3.7,2.6C184.4,122.3,184.4,122.9,183.6,124.2z"/>
		<path class="st0" d="M625.8,309c-5.4-2.7-8.2-7.6-11.5-12.3c0.5-0.2,0.9-0.4,1.4-0.6c0.8,1.7,1.5,3.5,3,4.6c0.5,0.3,1,0.7,1.4,1
			c0.3,0.2,0.7,0.5,0.7,0.7c0.1,1.7,1.5,2.2,2.4,3.1c0.8,0.7,1.6,1.4,2.3,2.2C625.7,308,625.7,308.3,625.8,309z"/>
		<path class="st0" d="M565.1,298.2c0.6-1.1,1.2-0.6,1.6,0c1,1.5,2.3,2.9,2.9,4.6c0.7,1.8,2.3,2.6,3.1,4.2c0.4,0.7,1,1.3,1.5,1.9
			c-1.1,0.6-1.9,0.5-2.7-0.5c-1.1-1.4-2.4-2.8-3.1-4.5C567.5,301.9,566.4,300,565.1,298.2z"/>
		<path class="st0" d="M168.6,180c0.5-0.4,1-1,1.6-1.3c2.6-1.2,5.3-1.8,8.1-2c0.4,0,0.8,0.1,1.1,0.3c0.2,0.1,0.5,0.6,0.4,0.9
			c-0.1,0.3-0.5,0.8-0.7,0.8c-1.3-0.4-2.3,0.6-3.5,0.7c-2.3,0.2-4.5,0.7-6.8,1.1C168.8,180.3,168.7,180.1,168.6,180z"/>
		<path class="st0" d="M554.7,312.9c-0.8,1.3-1.1,1.4-1.6,0.4c-0.9-1.4-1.8-2.8-2.2-4.6c-0.4-1.6-1.2-3.1-1.9-4.6
			c-0.6-1.4-0.4-2.8,0.1-4.2c0,1.4,1.6,2.1,1.3,3.8c-0.1,1.1,0.8,2.3,1.3,3.4c0.6,1.5,1.3,2.9,2,4.3
			C553.9,312.1,554.3,312.4,554.7,312.9z"/>
		<path class="st0" d="M577.9,81c0.8,3.5-1.8,13.5-4.1,15.8c-0.6-1.2,0.3-2.1,0.5-3.1c0.2-1.5,0.8-2.9,1.2-4.4c0-0.1,0-0.3,0.1-0.4
			c1.4-2.1,1.5-4.5,1.6-6.9c0-0.2,0.1-0.4,0.2-0.6C577.5,81.3,577.6,81.2,577.9,81z"/>
		<path class="st0" d="M217.7,99.8c-0.5-1.1-1-2.1-1.5-3.1c-0.1-0.2-0.1-0.5-0.3-0.5c-1.9-1.1-1.9-3.5-3-5.1c-0.7-1-0.6-1.1,0.6-1.9
			c0.7,1.3,1.3,2.6,2,3.9c0.8,1.3,1.8,2.5,2.6,3.8C218.7,97.9,218.9,98.8,217.7,99.8z"/>
		<path class="st0" d="M239.4,96.1c-0.5-0.4-0.9-0.5-1-0.8c-0.8-2.3-1.6-4.5-2.3-6.8c-0.3-0.9-0.4-1.8-0.5-2.7
			c0-0.4,0.3-0.9,0.7-1.3C237.5,88.3,239.6,91.7,239.4,96.1z"/>
		<path class="st0" d="M649,307.8c-1.8-0.6-3.4-1.5-4.5-3.3c-0.9-1.5-2-2.9-3-4.3s-1.9-2.8-2.8-4.2c1.2-0.1,2.7,1.2,3.3,2.7
			c1.1,3,3,5.3,5.3,7.1C648,306.4,648.8,306.7,649,307.8z"/>
		<path class="st0" d="M649.3,102.9c0.5-1.5,1.1-2.9,1.6-4.4c0.8-2.1,1.6-4.1,2.3-6.2c0.2-0.6,0.3-1.2,1-1c0.6,0.2,0.6,0.8,0.5,1.4
			c-0.8,2.6-1.6,5.2-3.1,7.4c-0.7,1-1.3,2-2,3C649.5,103,649.4,103,649.3,102.9z"/>
		<path class="st0" d="M528,309.7c-0.4-1.4-0.7-2.8-1.2-4.2c-0.7-2-1.3-4-2.7-5.6c-0.7-0.7-0.4-1.3,1-2.1c0.8,1.4,1.6,2.8,2.1,4.4
			c0.2,0.6,0.2,1.3,0.3,2c0,0.2,0,0.5,0.1,0.6c1.8,1.3,0.7,3.2,1,4.8C528.4,309.6,528.2,309.7,528,309.7z"/>
		<path class="st0" d="M694,103.7c-0.6,4.5-4.8,10.9-7.2,10.8c0.1-0.2,0.1-0.4,0.2-0.6c2.4-2.1,3.6-5,4.8-8
			C692.3,104.6,692.9,104,694,103.7z"/>
		<path class="st0" d="M170.3,149.7c2.1,0.3,4.2,0.5,6.3,0.8c0.7,0.1,1.2,0.4,1.1,1.4c-0.1,0.9-0.9,1.7-1.6,1.4
			C174,152.4,171.8,152.1,170.3,149.7z"/>
		<path class="st0" d="M588.6,296.2c1.1,1.2,2.1,2.3,3,3.5c0.4,0.5,0.6,1.1,0.8,1.7c0.4,1.4,1.1,2.4,2.4,3c1.1,0.5,1,0.6,0,1.8
			c-1.9-1.9-4-3.6-5.1-6.3c-0.3-0.8-0.9-1.5-1.4-2.2C588.1,297.1,587.9,296.6,588.6,296.2z"/>
		<path class="st0" d="M184.9,209.5c-0.2,1.6-0.9,2-1.6,2.3c-1.1,0.4-2.3,0.8-3.5,1.1c-1.4,0.5-2.9,0.9-4.6,1.5
			c1-2.1,2.9-2.4,4.5-3.1C181.3,210.6,183,210.1,184.9,209.5z"/>
		<path class="st0" d="M459.9,312.1c-1.4-1.9-1.7-3.8-1.8-5.6c-0.1-1.6-0.8-3.4,0.6-4.8C459.8,303.1,460.3,307.8,459.9,312.1z"/>
		<path class="st0" d="M509.2,309.7c-0.5-1.1-1-2.2-1.4-3.3c-0.7-1.8-1.4-3.6-1.9-5.5c-0.2-0.8-0.4-1.7,1-2c0.2,0.7,0.4,1.5,0.6,2.3
			c0.2,0.6,0.2,1.3,0.4,1.8c0.8,1.6,0.8,3.6,1.8,5.1C510.1,308.6,510,309.2,509.2,309.7z"/>
		<path class="st0" d="M702,124c1.2-1.6,2.4-3.1,3.7-4.7c0.9-1.1,2-2.2,3-3.2c0.2-0.2,0.7-0.2,1.5-0.4c-2.3,3.3-4.4,6.1-7,8.4
			c-0.2,0.2-0.7,0.2-1,0.2C702.1,124.3,702.1,124.2,702,124z"/>
		<path class="st0" d="M663,293.8c0.5,1,1,2.1,1.6,3.1c1.6,2.7,2.9,5.8,5.1,8.1c0.7,0.7,1,1.9,1.5,3
			C668.2,306.4,663.3,297,663,293.8z"/>
		<path class="st0" d="M480.1,302.5c0.1-0.2,0.3-0.6,0.6-0.7c0.3,0,0.7,0.3,0.8,0.6c0.2,0.3,0.1,0.8,0.2,1.2c0.5,1.9,1,3.8,2,5.5
			c0.2,0.3,0.3,1,0.1,1.2c-0.4,0.5-0.7,0.2-1.1-0.2C481.2,308.1,480.1,305.1,480.1,302.5z"/>
		<path class="st0" d="M246.8,296.1c-1.3,2.9-3.1,5.2-5.3,7.5c-0.5-0.9-0.1-1.6,0.2-2.2c1.1-1.8,2.3-3.5,3.4-5.3
			C245.6,295.3,246.1,295.2,246.8,296.1z"/>
		<path class="st0" d="M337.6,304.3c0,0.4,0.2,0.9,0.1,1.1c-0.5,1-0.4,2-0.5,3c-0.3,2-0.9,3.9-1.4,5.8c-0.1,0.2-0.6,0.5-0.7,0.4
			c-0.3-0.2-0.6-0.7-0.6-1c0.1-1.1,0.3-2.2,0.7-3.2c0.6-1.5,1.4-2.9,1.4-4.7c0-0.5,0.4-1,0.6-1.5
			C337.3,304.4,337.4,304.3,337.6,304.3z"/>
		<path class="st0" d="M358.1,315.3c0.4-2,0.9-4,1.2-6c0.1-0.5-0.1-1,0-1.5c0.2-0.8,0.5-1.6,1.4-1.9c1,1.1,0.5,2.5,0.1,3.4
			C359.9,311.3,360.3,313.9,358.1,315.3z"/>
		<path class="st0" d="M629.3,87.6c-0.8,4.2-1.9,8.2-4.1,11.9c-0.2-1.9,0.6-3.4,1.1-5.1c0.5-1.9,1.1-3.8,1.7-5.7
			c0.2-0.5,0.5-0.9,0.7-1.4C628.9,87.5,629.1,87.5,629.3,87.6z"/>
		<path class="st0" d="M609.4,84.8c-0.5,3.8-2.1,8.5-4.3,12.7c0.2-2.4,0.3-4.3,1.4-6c0.4-0.6,0.6-1.4,0.8-2.1
			C607.8,87.7,608.5,86.1,609.4,84.8z"/>
		<path class="st0" d="M724.4,203.7c0.1,0,0.1-0.1,0.2-0.1c2.2,0.7,4.3,1.4,6.5,2.1c0.2,0.1,0.5,0.6,0.4,0.8
			c-0.1,0.3-0.5,0.7-0.8,0.7c-0.5,0.1-1.1,0.1-1.5-0.1c-1.7-0.9-3.3-1.9-5-2.9C724.3,204,724.4,203.8,724.4,203.7z"/>
		<path class="st0" d="M724,180.7c0.1-0.2,0-0.4,0.1-0.5c0.1-0.2,0.3-0.4,0.4-0.4c2.8-0.7,5-2.9,7.4-4.6c0.1,0.1,0.2,0.2,0.3,0.3
			c-0.1,0.4-0.2,1-0.4,1.2c-1.3,1.1-2.7,2.1-4,3.2C726.7,180.7,725.5,181.1,724,180.7z"/>
		<path class="st0" d="M674.7,98.6c-1.2,3.1-2.4,6-4.7,8.3c0.1-0.8,0-1.8,0.5-2.3c1.1-1.5,1.5-3.2,2.1-4.9
			C673,98.7,673.4,98,674.7,98.6z"/>
		<path class="st0" d="M721.7,154.3c2.3-3.7,4.7-7.4,7-11.1c0.1,0.1,0.3,0.2,0.4,0.3c-1.5,4.3-4.5,7.6-6.9,11.3
			C722.1,154.6,721.9,154.5,721.7,154.3z"/>
		<path class="st0" d="M502.7,88.1c0.5,3,0,9.5-0.9,11.1c-0.6-1-0.3-2-0.2-3c0-0.3,0.4-0.8,0.3-0.9c-0.9-1.8,0.4-3.7-0.1-5.5
			c-0.1-0.5,0.2-1.2,0.4-1.8C502.4,88,502.5,88,502.7,88.1z"/>
		<path class="st0" d="M526.9,88.1c0.1,0.6,0.1,0.9,0.1,1.2c-0.1,1.5-0.2,3.1-0.2,4.6c-0.1,1.5,0.1,3.1-0.9,4.4
			C524.7,95.7,525.1,91,526.9,88.1z"/>
		<path class="st0" d="M550.4,84.7c-0.2,4-0.3,8-1.6,12.1c-0.4-1.2-0.4-1.2,0.4-2.4c-1.4-1.3-0.8-2.8,0-4.1c0.5-0.8,0.6-1.4,0.3-2.3
			C549,86.7,549.8,85.7,550.4,84.7z"/>
		<path class="st0" d="M457.7,95.8c-0.6-2.4-0.5-8.4,0.2-10C458.9,87.8,458.8,93.6,457.7,95.8z"/>
		<path class="st0" d="M409.8,311.5c-0.4-0.1-0.6-0.1-0.6-0.2c-0.1-1.5-1.3-2.6-1.1-4.2c0.1-0.5-0.1-1.1-0.2-1.7
			c0-1,0.3-1.6,1.4-1.5C410.3,306.3,409.9,308.8,409.8,311.5z"/>
		<path class="st0" d="M275.8,312.4c-0.5-2.3,0.8-3.9,2.1-5.5c-0.2-1.9-0.2-1.9,1.4-3.6c0.3,1.9-0.4,3.4-1,4.9s-1.4,2.9-2,4.4
			C276.1,312.6,276,312.5,275.8,312.4z"/>
		<path class="st0" d="M715.6,259.2c1.4,0.5,2.7,1,4.1,1.6c0.6,0.3,1.1,0.9,1.5,1.5s0.3,1.4-0.4,1.8c-1.8-1.5-3.6-3.1-5.3-4.6
			C715.5,259.5,715.6,259.3,715.6,259.2z"/>
		<path class="st0" d="M721.8,123.5c-2,4.7-4.3,9.2-7.5,13c2.2-4,4.4-8.1,6.6-12.1C721.1,124,721.5,123.8,721.8,123.5z"/>
		<path class="st0" d="M480.1,84.2c-0.5,4.6-0.4,9.1-1.4,13.5c-0.1,0-0.3,0-0.4-0.1c0.1-0.5,0.1-1,0.2-1.5c0.2-1.1,0.5-2.2-0.1-3.3
			c-0.2-0.3-0.2-0.8-0.1-1.2c0.4-2.4,0.9-4.8,1.4-7.2C479.7,84.4,479.8,84.3,480.1,84.2z"/>
		<path class="st0" d="M388.2,312.1c-0.6-0.2-0.9-0.3-1.4-0.4c0.3-2.6,0.5-5.2,0.8-8.1c0.4,0.6,0.8,0.9,0.8,1.2
			C388.4,307.1,388.3,309.5,388.2,312.1z"/>
		<path class="st0" d="M401.3,85.6c0.9,0.2,1,0.9,1.2,1.7c0.6,2.5,0.5,5-0.4,7.9c-0.3-0.6-0.6-0.9-0.6-1.1c0.6-1.4-0.2-3,0.3-4.4
			c0.2-0.5-0.3-1.3-0.6-1.9C401,87,400.8,86.3,401.3,85.6z"/>
		<path class="st0" d="M218.7,283.5c-2,2-3.8,3.7-5.9,5.7c0.1-0.7,0.1-1.1,0.3-1.3c0.9-1.3,1.8-2.5,2.7-3.8
			C216.5,283.1,217.5,283.4,218.7,283.5z"/>
		<path class="st0" d="M198.1,271.8c2-2.1,3.9-3.5,5.5-3.8c0.4,0.9,0.1,1.4-0.6,1.8c-1.5,0.8-3,1.7-4.4,2.6
			C198.5,272.4,198.3,272.1,198.1,271.8z"/>
		<path class="st0" d="M435.4,95.4c-0.1-1-0.1-1.8-0.2-2.6c-0.2-1.4-0.4-2.9-0.7-4.3c-0.2-0.9-0.4-1.8,0.7-2.3
			C436.5,89,436.7,93.9,435.4,95.4z"/>
		<path class="st0" d="M262.3,86.6c1.2,2.3,2.7,4.5,2.3,7.6c-1-0.2-1.2-1-1.4-1.8c-0.2-1.1-0.5-2.2-0.9-3.2
			C261.9,88.4,261.7,87.6,262.3,86.6z"/>
		<path class="st0" d="M346.1,96c-1.1-1.2-0.9-2.7-0.7-4c0.2-1.5-1.1-3.2,0.5-4.6C346.6,88.6,346.7,92.8,346.1,96z"/>
		<path class="st0" d="M429.1,303c0.4-0.4,0.6-0.6,1.1-1.1c1.2,2.3,0.7,4.6,0.9,6.9c-1.7-1-2-1.4-1.5-2.6
			C430,305.1,429.7,304.2,429.1,303z"/>
		<path class="st0" d="M686.6,292.1c1.7,1.7,3.9,2.6,4.9,5.1c-0.8,0.7-1.4,0.2-1.9-0.4c-0.7-0.7-1.3-1.5-2-2.2
			C686.9,294,686.6,293.2,686.6,292.1z"/>
		<path class="st0" d="M372.3,103.1c-1.6-2.7-1.8-7.1-0.6-10.2c0.6,0.8,0.2,1.6,0.2,2.4s0,1.7,0,2.5c0.1,0.8,0.2,1.7,0.3,2.5
			C372.3,101,372.3,101.9,372.3,103.1z"/>
		<path class="st0" d="M704.3,275.8c1.5,1.3,3,2.7,4.6,4c-0.3,0.9-0.5,1.1-1.4,0.7c-1.9-0.9-2.4-2.9-3.5-4.3
			C704.1,276.1,704.2,276,704.3,275.8z"/>
		<path class="st0" d="M728,238.5c-0.3,0-0.6,0.2-0.8,0.1c-1.9-0.9-3.4-2.4-4.9-3.9c2.4,0.3,4.1,1.8,5.9,3.2
			C728.1,238.1,728,238.3,728,238.5z"/>
		<path class="st0" d="M321.7,88.2c0.4-0.7,0.7-1.3,1.3-2.2c0.5,2.6,1.6,4.6,1.4,7.2c-0.9-0.4-1.4-1.2-1.2-1.7
			C323.5,89.9,322.6,89.2,321.7,88.2z"/>
		<path class="st0" d="M293.8,91.5c-0.9-1.9-1.4-3.9-0.8-6.4c1.2,1.6,1,3.5,1.6,5.1c0.1,0.4-0.2,0.9-0.3,1.4
			C294.1,91.6,294,91.6,293.8,91.5z"/>
		<path class="st0" d="M192.9,100.9c-0.4-0.4-0.7-0.9-1.1-1.1c-0.5-0.2-1-0.2-1.1-0.9c-0.1-1-1.1-2-0.4-3.2c0.6,0.6,1.1,1.2,1.7,1.7
			C193,98.4,193.5,99.5,192.9,100.9L192.9,100.9z"/>
		<path class="st0" d="M186.5,239c-0.4-1.5,0.4-2.3,1.2-2.9c0.9-0.7,1.8-1.6,3.2-1c-0.3,1.3-1.2,1.5-2.1,2
			C188,237.5,187.3,238.3,186.5,239z"/>
		<path class="st0" d="M304.6,312.5c-0.6,1.2-1.1,2.4-1.7,3.6c-0.1,0.2-0.7,0.2-1,0.3C301.7,314.2,302.5,312.8,304.6,312.5z"/>
		<path class="st0" d="M192.9,100.9c0.3-0.4,0.6-0.9,0.8-1.2c1.6,0.8,0.6,1.5,0.3,2.2C193.6,101.5,193.2,101.2,192.9,100.9
			L192.9,100.9z"/>
		<path class="st0" d="M346,99.1c-0.1-0.9-0.2-1.7-0.3-2.6c0.2,0,0.3,0,0.5-0.1c0.6,0.8,0.2,1.7,0.3,2.6
			C346.3,99.1,346.1,99.1,346,99.1z"/>
		<path class="st0" d="M293.7,95.2c0.9,0.5,1.4,1.1,0.8,2.4C294.2,96.7,293.9,95.9,293.7,95.2z"/>
		<path class="st0" d="M301.5,319.4c-0.9-1-0.4-1.3,0.3-1.6C301.7,318.2,301.6,318.7,301.5,319.4z"/>
		<path class="st0" d="M323.9,95.7c-0.1-0.5-0.2-1-0.3-1.6c0.3,0.1,0.4,0.1,0.5,0.2C324.2,94.7,324.8,95.2,323.9,95.7z"/>
		<path class="st0" d="M435.8,96.6c-0.1,0.2-0.2,0.4-0.3,0.5c-0.1-0.1-0.3-0.2-0.4-0.3c0-0.2,0.1-0.3,0.2-0.5
			C435.4,96.4,435.6,96.4,435.8,96.6z"/>
		<path class="st0" d="M597.1,307c-0.2,0.1-0.5,0.2-0.7,0.3c-0.1,0-0.4-0.2-0.4-0.3c0-0.2,0.1-0.5,0.3-0.7c0.1-0.1,0.4,0.2,0.5,0.3
			C597,306.7,597,306.8,597.1,307z"/>
	</g>
	<g>
		<path class="st0" d="M357.6,222c-1.8-0.4-3.4-0.8-5-1.1c-1.3-0.2-2.1-1.1-2.4-2.2c-0.8-3.3-0.9-6.7-1-10c0-0.8,0.1-1.6,0-2.3
			c0-1,0.3-1.8,1.4-2.1c0.7-0.2,1.5-0.4,2.2-0.5c4.3-1,8.7-0.4,13.1-0.5c1.5,0,2.9-0.3,4.4-0.4c1.7-0.1,3.1,0.1,4.3,1.6
			c0.9,1.2,2.3,2.1,3.3,3.2c0.7,0.8,1.3,1.8,2,2.6c2.2,2.9,4.4,5.7,6.7,8.6c3,4,6.1,7.9,9.1,11.9c0.9,1.2,2,2.3,3.5,3.3
			c0.1-1.2,0.2-2.2,0.4-3.1c0.2-1,0.2-1.8-0.1-2.8c-0.4-1-0.1-2.3-0.2-3.4c-0.1-1.5-0.3-2.9-0.5-4.4c-0.1-0.9-0.7-1.1-1.5-1.3
			c-1.1-0.2-2.1-0.4-3.2-0.6c-0.9-0.2-1.4-0.8-1.5-1.7c-0.2-1.5-0.5-2.9-0.7-4.4c-0.1-0.5-0.1-1-0.1-1.5c0-2.1,0-4.2,0-6.5
			c1-0.2,1.9-0.5,2.9-0.7c2.6-0.4,5.2-0.7,7.9-1c0.3,0,0.5-0.1,0.8,0c3,0.8,5.9,0.2,8.9,0.2c3,0.1,6-0.8,9-0.2
			c1.3,0.3,2.7,0.4,3.9,1c0.7,0.3,1.3,1.2,1.4,1.9c0.2,1.8,0.5,3.7,0,5.6c-0.3,1.3-0.1,2.8-0.1,4.3c0,2.3-0.3,2.7-2.6,2.9
			c-1,0.1-1.9,0.2-2.9,0.3c-1.7,0.2-2.4,0.9-2.2,2.6c0.4,2.7,0.2,5.3,0.2,8c0,1.6,0.3,3.2,0.4,4.8c0.1,3.4,0,6.7,0.1,10.1
			c0,2.3,0,4.5,0.2,6.8c0.1,1.9,0.4,3.7,0.5,5.6c0,1.4-0.2,2.9-0.3,4.3c0,0.5,0.1,1,0.1,1.5c0.1,1,0.1,2.1,0.3,3.1
			c0.5,3.2-2.2,4.8-5.1,4.8c-2.8,0-5.7-0.1-8.5-0.1c-3.2,0-5.2-1.8-6.7-4.5c-0.7-1.2-1.7-2.3-2.5-3.4c-1-1.3-2.2-2.3-2.8-4
			c-0.3-0.8-1.2-1.3-1.8-2c-2.1-2.6-4.1-5.4-5.5-8.4c-0.6-1.1-1.5-2.1-2.2-3.2c-1.3-1.9-2.5-3.9-3.8-5.9c-0.9-1.4-1.6-3.2-3.7-3.7
			c-0.1,0.7-0.3,1.4-0.3,2c0.1,1.9,0.5,3.7,0.6,5.6c0,2.2-0.3,4.4-0.3,6.6c0,1.5,0.1,2.9,0.2,4.5c1.1,0.1,1.9,0.1,2.7,0.2
			c2,0.1,2.9,0.8,2.9,2.8c0.1,3.6,0.1,7.1,0.2,10.7c0,1.7-0.9,2.4-2.6,2.5c-1.4,0.1-2.8,0.2-4.2,0.4c-1.2,0.1-2.4,0-3.6,0
			c-5.3,0.1-10.6-0.4-15.9,0.4c-2,0.3-3.8-0.7-5.6-1.3c-0.4-3.1-0.9-6.1-1.1-9.1c-0.1-1.4,0.1-2.9,0.9-4.3c0.5-0.8,1-1.3,2-1.2
			c1.4,0.1,2.7-0.3,4-0.7c0.9-0.3,1.3-0.8,1.3-1.7c0-2.1,0-4.1-0.2-6.2c-0.1-1.9-0.7-3.7-0.7-5.5c-0.1-4.4,0.1-8.8,0.1-13.2
			C358,225.5,357.7,223.8,357.6,222z M378.1,211.5c0,0.7,0.3,1.1,1.1,1C379.2,211.6,378.7,211.5,378.1,211.5c0-0.4,0.1-0.8,0.1-1.4
			c-0.5-0.5-1.1-0.9-1.7-1.5C376.5,210.4,376.5,210.4,378.1,211.5z M395.5,253.4c-1.1-0.9-2-1.6-2.9-2.4c0.4-1.5-1-2.4-1.5-3.7
			c-0.4,0.3-0.7,0.5-1,0.6c-0.7-0.9-0.5-2.5-2.5-2.2c0.9,1.7,1.7,3.2,2.6,4.6c0.9,1.5,1.9,2.9,3,4.3c1,1.3,2.1,2.5,3.4,3.9
			c-0.2-1.5-0.2-2.7-1.7-3.2c-0.3-0.1-0.5-0.7-0.7-1C394.6,254.1,394.9,253.8,395.5,253.4z M400.8,254.8c-0.1-0.6,0-1.2-0.2-1.4
			c-0.8-1-0.7-2.1-0.5-3.3c0.1-1-0.1-2-0.4-3c-0.1-0.5-0.7-0.7-1.4-0.2c0.7,1,1.4,1.9,1.1,3.4s-1.2,2.3-2.7,3.2
			C398.3,254,399.5,254.3,400.8,254.8z M369.6,226.4c0.1,0,0.2,0,0.3,0c0.1-1.3,0.3-2.6,0.3-3.9c0-0.3-0.6-0.9-1-1
			c-0.6-0.2-1.3,0-2.2,0c0.4,0.8,0.6,1.9,0.9,1.9c1.4,0,1.1,0.9,1.2,1.7C369.2,225.5,369.4,226,369.6,226.4z M391.1,229.3
			c1.4-0.1,1.6,1,1.9,1.8c0.3,0.9,0.8,1.4,1.9,1.3c0-2.4-1.9-3.2-3.1-4.7C391.5,228.3,391.3,228.7,391.1,229.3z M398.1,248.1
			c-0.8-0.8-1.8-0.3-2.7-0.3c-0.2,0-0.5,0.1-0.6,0.3s-0.1,0.5-0.1,0.6c0.7,0.1,1.4,0.3,2.2,0.4c-0.4,0.5-0.6,0.9-0.9,1.4
			c0.7,0.3,1.2,0.6,1.7,0.8C397.8,250.1,397.9,249.1,398.1,248.1z M394.9,217.4c0.1-0.7,0.1-1.2,0.3-1.6c0.2-0.4,0.7-0.5,1.1-0.8
			c-1.1-0.7-1.1-0.7-2.5,1.6C394.1,216.8,394.5,217,394.9,217.4z M404,268.6c0.5-2.2-1.5-2.1-2.3-2.9
			C401.6,267.3,402.9,267.7,404,268.6z M397.4,236.2c0.3-0.3,0.5-0.5,0.5-0.6c-0.2-0.5-0.3-1-0.6-1.3c-0.5-0.4-1.1-0.7-1.7-1
			c-0.1,0.1-0.2,0.3-0.3,0.4C396,234.6,396.7,235.4,397.4,236.2z M367.9,241.2c-1.3,1.4-1.3,1.6,0.1,2.9
			C368,243.1,368.7,242.1,367.9,241.2z M368.4,211.9c0.8-2.3,0.7-2.5-1.4-3C367.4,210,367.8,210.8,368.4,211.9z M361.6,211.1
			c0.7,0.4,1.3,0.3,1.5-0.7c0.2-1.1-0.1-1.5-1-1.6C362,209.5,361.8,210.2,361.6,211.1z M379.7,256.3c1,0.1,1.9,0.2,2.8,0.4
			c0.3-0.8-0.2-1-0.8-1.2C381,255.4,380.1,255.2,379.7,256.3z M374.7,207.3c0-0.1-0.1-0.2-0.1-0.3c-0.5,0.2-1.1,0.3-1.5,0.6
			c-0.9,0.5-0.6,1.1,0.1,1.7C373.8,208.6,374.2,208,374.7,207.3z M389.7,224.4c-0.7,1.5-0.7,1.5,1.3,2.4
			C390.5,225.8,390.1,225.2,389.7,224.4z M374.5,229.5c0.3,0.7,0.4,1.4,1.3,1.1c0.2-0.1,0.5-0.7,0.4-0.9
			C375.8,228.8,375.2,229.2,374.5,229.5z M352.6,206.2c-1.7,0.3-1.8,0.6-1.1,2.4C351.9,207.7,352.2,207,352.6,206.2z M369.1,206.5
			c0.4-0.9,0.7-1.2,0.7-1.5c0-0.2-0.5-0.5-0.7-0.5c-0.3,0.1-0.7,0.4-0.7,0.7C368.4,205.6,368.7,205.9,369.1,206.5z M364.4,267.3
			c0.2-1.5,0.2-1.5-1-1.4C363.6,266.4,364,266.9,364.4,267.3z M387.6,223.3c0.6-1.2,0-1.6-0.8-2.2
			C387.1,222,387.3,222.5,387.6,223.3z M366.7,267.7c0,0.2,0,0.5,0,0.7c0.4,0,0.8,0.1,1.3,0.1c0.1,0,0.1-0.5,0.1-0.8
			C367.6,267.7,367.2,267.7,366.7,267.7z M370.4,266.9c0.4-1,0.4-1-0.4-1.9C370.1,265.8,370.2,266.4,370.4,266.9z M355.4,208.5
			c0.7,0.1,1.2,0.1,1.6,0.1c0,0,0.2-0.5,0.1-0.6C356.5,207.4,356.1,207.6,355.4,208.5z M385.8,243.9c0.1-0.1,0.3-0.2,0.4-0.3
			c-0.4-0.5-0.7-1-1.1-1.5c-0.1,0.1-0.2,0.2-0.3,0.2C385.1,242.9,385.5,243.4,385.8,243.9z M370.2,212.8c-0.1,0.1-0.1,0.3-0.2,0.4
			c0.3,0.2,0.6,0.3,0.9,0.5c0.1-0.2,0.2-0.5,0.2-0.5C370.8,213,370.5,212.9,370.2,212.8z M405.8,241.7c-0.2,0.2-0.4,0.4-0.5,0.6
			c-0.1,0.1,0.1,0.3,0.1,0.5c0.2-0.2,0.5-0.3,0.7-0.5C406.1,242.3,405.9,242,405.8,241.7z M395,208.5c-0.2-0.2-0.4-0.3-0.6-0.4
			c-0.1,0-0.3,0.3-0.3,0.3c0.1,0.2,0.3,0.3,0.4,0.4S394.7,208.7,395,208.5z M374.3,267.6c0.1,0,0.2-0.1,0.3-0.1
			c-0.1-0.3-0.1-0.6-0.2-0.9c-0.2,0-0.3,0.1-0.5,0.1C374,267,374.1,267.3,374.3,267.6z M352.7,268c0.1,0,0.2,0.1,0.3,0.1
			c0.1-0.3,0.3-0.6,0.4-0.9c-0.2-0.1-0.3-0.1-0.5-0.2C352.9,267.4,352.8,267.7,352.7,268z M417.6,267.5c-0.3-0.2-0.5-0.5-0.7-0.5
			s-0.4,0.3-0.5,0.4c0.2,0.2,0.3,0.4,0.5,0.4C417,267.9,417.2,267.7,417.6,267.5z"/>
		<path class="st0" d="M341,255.8c-0.8,1-1.4,1.8-1.9,2.7c-1,1.5-1.8,3.1-2.8,4.6c-0.6,0.9-1.5,0.5-2.5,0.2c0.4,1.9-0.6,2.6-1.9,2.9
			c-1.5,0.3-2.8,0.9-4,1.8c-0.6,0.5-1.4,0.8-2.3,0.7c-0.8-0.1-1.8,0.2-2.6,0.5c-2.2,0.8-4.4,1.3-6.7,1.7c-1.7,0.3-3.3,0.8-5,1.1
			c-2.3,0.4-4.4,0.3-6.6-0.1c-2-0.3-3.9-0.6-5.9-0.9c-0.4-0.1-1,0-1.3-0.1c-1.7-0.8-3.4-1.6-5.1-2.4c-0.4-0.2-0.9-0.3-1.4-0.5
			c-0.7-0.2-1.5-0.3-2-0.7c-1.9-1.5-4.2-2.6-6.1-4.2c-0.8-0.6-1.4-1.3-1.9-2.3c-0.7-1.4-2.1-2.4-3.1-3.6c-0.6-0.8-1.2-1.6-1.7-2.5
			c-0.9-1.4-1.8-2.8-2.6-4.3c-0.5-0.8-0.9-1.8-1-2.7c-0.5-3.3-1-6.7-1.2-10c-0.1-2.2-0.1-4.4,0.7-6.5c0.8-2.2,1.2-4.4,1.9-6.6
			c0.6-1.9,1-3.9,2.1-5.6c0.8-1.3,1.3-3.1,3-3.9c0.4-0.2,0.5-0.9,0.7-1.3c0.5-0.9,0.9-1.7,2.1-2.1c1.6-0.5,3.1-1.4,4.3-2.8
			c0.3-0.4,0.8-0.6,1.2-0.9c0.4-0.3,1.1-0.4,1.3-0.8c0.7-1.2,1.8-1.6,2.9-2.1c0.9-0.4,1.6-1,2.8-0.9c1.1,0.1,2.2-0.7,3.3-1.1
			c1.6-0.7,3.2-0.9,4.9-1c1.6,0,3.2-0.4,4.8-0.3c2.5,0,5.1,0,7.5,0.5c2.6,0.6,5.4,0.7,7.7,2.2c3,0.2,5,2.3,7.3,3.7
			c2,1.2,3.4,3.3,5.1,5c1.3,1.3,2.8,2.5,4.1,3.8c0.5,0.5,0.9,1,1.2,1.7c1,2.2,2,4.3,2.9,6.5c0.4,0.9,0.7,1.9,1,2.9
			c0.3,0.9,0.5,1.9,0.8,2.8c0.1,0.2,0.2,0.6,0.2,0.7c-1,2.1-0.1,4.1,0.4,6c0.4,1.6,0.2,3.1-0.1,4.5c-0.9,4.1-1.9,8.2-4.1,11.8
			C340.5,254.8,340.6,254.9,341,255.8z M285,253.1c0.1-0.8-0.3-1.2-1.1-1.2C284.3,252.2,284.7,252.6,285,253.1
			c1.2,1.1,2.4,2.2,3.6,3.3c0.1,0.6,0.1,1.3,1.3,1c-0.6-0.4-1-0.7-1.4-1c-0.5-1.4-1.7-2.3-2.7-3.3C285.7,253,285.3,253.1,285,253.1z
			 M326,234.7c-0.1,0-0.2,0-0.3,0c0-0.6,0-1.3,0-1.9c-0.2-2.2-0.4-4.4-1.7-6.3c-0.9-1.3-1.6-2.6-3.2-3.3c-0.5-0.2-0.8-0.6-1.2-0.9
			c-0.7-0.5-1.4-1.1-2.3-1.5c-3.7-1.6-7.4-2.9-11.4-1.6c-0.4,0.1-0.9,0.1-1.4,0.1c-2.7,0.1-4.6,1.4-6.3,3.4c-0.8,1-1.9,1.7-2.8,2.6
			c-0.6,0.6-1.3,1.1-1.7,1.8c-1.1,2-2.5,4-2,6.5c0.1,0.6,0,1.3-0.1,1.9c-0.6,4.3,0.6,8.2,2.6,11.9c1.6,3,4.6,4.6,7.8,5.5
			c0.4,0.1,0.8,0,1.1,0.2c1.5,1.1,3.1,1.3,5,1.2c2.1-0.1,4.2-0.2,6.3-0.3c1.6-0.1,3-0.8,4.2-1.6c3-1.8,4.7-4.8,5.6-8
			C325.4,241.3,325.5,238,326,234.7z M284.5,254.6c-0.7-1.4-0.9-1.5-2-1.4C283.1,254,283.1,255.2,284.5,254.6z M277.8,233.3
			c-0.3,0.4-0.8,0.8-0.7,0.9c0.1,0.3,0.5,0.5,0.8,0.8c0.2-0.3,0.6-0.5,0.6-0.8C278.4,234,278.1,233.7,277.8,233.3z M313.2,207.1
			c-0.6-0.1-1.2-0.2-2-0.4C311.8,208.3,312.5,207.9,313.2,207.1z M283.2,261c0.4,0.8,0.6,1.4,1.5,1.3C285,260.9,284,261.2,283.2,261
			z M291.9,212.7c0.2-0.1,0.3-0.1,0.5-0.2c-0.2-0.5-0.5-0.9-0.7-1.4C291.5,211.8,291.3,212.4,291.9,212.7z M291.4,249.7
			c0.3-0.8,0.1-1.3-0.8-1.3C290.9,248.8,291.2,249.2,291.4,249.7z M339.2,225.2c0.2-0.1,0.3-0.2,0.5-0.3c-0.3-0.5-0.7-1-1-1.6
			c-0.1,0.1-0.3,0.2-0.4,0.2C338.6,224.1,338.9,224.6,339.2,225.2z M277.8,228.9c-0.1,0-0.2,0-0.3,0c0,0.4,0,0.8,0,1.2
			c0.1,0,0.2,0,0.3,0C277.8,229.7,277.8,229.3,277.8,228.9z M298,218c1.1,0.3,1.5,0,1.4-0.9C299,217.3,298.6,217.6,298,218z
			 M336.4,220.2c0.1-0.3,0.3-0.5,0.3-0.7s-0.3-0.3-0.4-0.5c-0.2,0.2-0.4,0.4-0.6,0.6C335.9,219.8,336.1,219.9,336.4,220.2z
			 M339.9,252.2c-0.3-0.2-0.5-0.5-0.5-0.4c-0.2,0.1-0.3,0.3-0.5,0.5c0.1,0.1,0.3,0.3,0.4,0.3C339.4,252.5,339.6,252.3,339.9,252.2z
			 M279.6,253.6c-0.1-0.1-0.2-0.1-0.3-0.2c-0.2,0.3-0.4,0.5-0.6,0.8c0.1,0.1,0.4,0.2,0.4,0.2C279.4,254.2,279.5,253.9,279.6,253.6z
			 M293.2,218.3c-0.2,0-0.3,0-0.5,0c0,0.4,0,0.8,0,1.2c0.1,0,0.3,0,0.4,0C293.2,219.1,293.2,218.7,293.2,218.3z"/>
		<path class="st0" d="M578.2,268.7c0.6-0.5,0.9-0.7,1.3-1c-0.9-1.4-2.2-1.7-3.6-2.1c-0.7-0.2-1.5-0.5-2.2-0.7
			c-0.9-0.3-1.8-0.8-2.7-1.1c-2.1-0.8-3-2.7-3.2-4.7c-0.6-4.4-0.4-8.8,0-13.2c0.1-0.9,0.4-1.7,1.4-1.9c1.4-0.2,2.8-0.4,4.2-0.6
			c0.4-0.1,0.8,0.1,1.1,0c1.5-0.8,3-0.3,4.6-0.1c0.6,0.1,1.1,0,1.7,0c1.8-0.2,2.9,0.9,2.5,2.6c-0.4,1.7,0.2,3.2,0.6,4.7
			c0.5,1.9,2.3,2.3,4,2.7c0.8,0.2,1.8,0.3,2.5,0c1.9-0.7,3.8-0.2,5.7-0.4c2.6-0.3,4.9-1.2,6.7-3.1c0.7-0.7,0.7-2,1-3
			c-1.2-0.8-2.1-0.4-2.6,0.3c-1.5-0.7-2.9-1.2-4.2-1.8c-1.1-0.5-2.2-1.1-3.5-0.5c-1.3-0.8-2.8,0.1-4.3-0.5s-3.4-0.4-5.3-0.5
			c0.6-0.9,1.2-1.2,2.1-1.1c0.7,0.1,1.4,0.2,2.1,0.2c0.5,0,1-0.1,1.5-0.2c0-0.2,0-0.3,0.1-0.5c-0.7-0.3-1.5-0.8-2.2-0.9
			c-2.7-0.2-5.1-1.5-7.5-2.4c-1.7-0.7-3.3-1.8-5.1-2.4c-1.6-0.6-2.5-1.8-3.4-3c-2.6-3.5-3.7-7.4-3.8-11.7c0-1.3,0.4-2.7,0.6-4
			c0.1-0.7,0.3-1.4,0.4-2.1c0.1-1.2,0.5-2.2,1.6-3c0.3-0.2,0.6-0.5,0.8-0.8c1.8-3.5,5-5.5,8-7.7c1.6-1.2,3.3-2.1,5.2-2.6
			c2.1-0.5,4.4-0.5,6.4-1.4c2.4-1,5-0.7,7.4-1.1c3.4-0.6,6.9-0.3,10.1,0.7c1.9,0.6,3.7,1.7,5.6,2.7c1.4,0.7,2.7,1.6,4,2.5
			c1.7,1.2,2.8,2.7,2.8,4.9c0,2.5,0.2,5.1,0,7.6c-0.1,1.4-0.8,2.7-1.6,3.9c-0.7,1.1-2.2,1.2-3.4,1c-2.5-0.4-5-0.4-7.5,0.5
			c-1,0.3-3.9-0.7-4.3-1.5c-0.2-0.5-0.2-1.1-0.2-1.7c-0.1-1-0.3-2-1.6-2.2c-0.2,0.2-0.5,0.4-0.6,0.7c-0.6,1.2-1.6,1.4-2.8,1.1
			c-1.5-0.4-2.9,0.1-4.3,0.5c-1,0.3-2.1,0-3.2-0.1c0,0.4,0,0.9,0,1.5c-0.6-0.1-1.1-0.2-1.7-0.3c0-0.7,0.1-1.3,0.1-2
			c-1.7-0.5-2.3,0-3.3,2.4c0.7,2,2.7,2,4.2,2.7c1,0.5,2.1,0.9,3.4,0.5c0.3-0.1,0.6,0,1,0.1c2.7,0.4,5.4,0.8,8.1,1.4
			c1.8,0.4,3.5,1,5.2,1.6c3,1,5.7,2.7,8.3,4.4c1.5,1,3.1,1.8,4,3.5c0.4,0.8,1.2,1.3,1.7,2c1.1,1.4,2.1,2.9,1.9,4.8
			c1.4,1.8,0.7,4,1.1,6c0.1,0.5-0.2,1.1-0.4,1.6c-0.1,0.4-0.4,0.8-0.4,1.2c0,2-0.9,3.8-1.7,5.6c-0.4,0.7-1,1.3-1.5,2
			c-0.3,0.4-0.5,0.8-0.7,1.3c2.1-1.8,4.3-3.4,5.7-5.8c1.5-2.5,0.8-5.5,1.7-8.4c0.7,0.8,1.2,1.4,1.7,1.9c-0.2,1.4-0.2,2.6-0.5,3.9
			c-0.4,1.9-0.8,3.6-2.4,5.1c-1.7,1.6-2.9,3.8-4.2,5.8c-0.8,1.2-1.5,2.2-3,2.6c-0.8,0.2-1.5,1-2.3,1.4c-1.4,0.8-2.4,2.3-4.2,2.3
			c-1.9,0-3.2,1.6-5,1.8c-2.2,0.2-4.3,0.5-6.5,0.7c-1.2,0.1-2.4,0.2-3.6,0.3c-3.6,0.3-7.2-0.6-10.8-1
			C584.2,270.3,581.4,269.4,578.2,268.7z M589.9,269.5c0.3,0.1,0.5,0.3,0.7,0.4c1.5,0.3,3,0.5,4.5,0.6c4.8,0.1,9.4-0.4,14-1.8
			c2.3-0.7,4.5-1.6,6.4-3.1c0.7-0.5,1.5-1,2.3-1.5c1.1-0.7,2.1-1.3,2-3.1c-0.5,0.1-1.1,0.1-1.2,0.4c-0.4,1-1.3,1.4-2.2,1.8
			c-0.8,0.4-1.7,0.7-2.3,1.3c-0.8,0.8-1.4,1.8-2.7,0.9c-0.1-0.1-0.3,0-0.4,0.1c-0.7,1-1.8,1-2.9,1.3c-1.7,0.4-3.3,1.3-5,1.4
			c-2.2,0.1-4.3,0.9-6.5,1.1c-1.2,0.1-2.5,0.6-3.9,0C592.1,268.9,590.8,268.4,589.9,269.5z M595.1,267.5c0-0.1,0-0.2,0-0.4
			c-1.4-0.1-2.8-0.1-4.1-0.3c-2.7-0.5-5.4-1.1-8.2-0.9c-0.3,0-0.6,0.1-0.9,0.2c1.7,0.5,3.4,0.7,5.1,0.9c0.9,0.1,1.9,0.8,2.8,0.6
			c1.2-0.2,2.3,0,3.4,0.1C593.7,267.8,594.4,267.6,595.1,267.5z M594.9,202.4c-1.1,0.2-1.6,0.7-1.9,1.5c0.6,0.1,1,0.2,1.6,0.3
			c0.3,1.4,0.6,2.9,0.9,4.2c1.1-1.2,1.2-1.9,0.4-3.3c-0.2-0.3-0.2-0.7-0.4-1.1C595.3,203.5,595.1,203,594.9,202.4z M581.2,205.2
			c-1.2,0.1-3,1.5-3.9,2.9c1,1.1,2.1,0.3,2.8,0.2C580.5,207.1,580.8,206.3,581.2,205.2z M590.5,218.7c1-0.4,1.9-1,3-1.3
			c1-0.3,2-0.3,3.2-0.5c-0.3-0.4-0.4-0.7-0.6-0.7c-0.7-0.1-1.6-0.3-2.2-0.1C592.6,216.6,590.8,216.6,590.5,218.7z M596.9,201.5
			c1.6,0.3,2.9,0.1,4.3-0.7c-2-1.2-3.7,0-5.6,0.1c0.3,0.8,0.5,1.3,0.7,2C596.5,202.3,596.7,202,596.9,201.5z M609.8,264.2
			c1.9,0.3,2.9-1.7,4.6-1.9c0.3,0,0.5-0.6,1-1.2C612.7,261.1,611.7,263.4,609.8,264.2z M589,269.5c-2-1.6-4-1.3-5.9-1
			C584.9,269,586.6,269.8,589,269.5z M591.6,240.7c0-0.2,0.1-0.3,0.1-0.5c-2.1-1.5-2.1-1.5-3.2-0.3
			C589.6,240.3,590.6,240.5,591.6,240.7z M569.9,247.2c0.8-0.3,1.7-0.1,1.5-1.2c-0.1-0.3-0.7-0.8-0.9-0.7
			C569.4,245.4,569.5,246.1,569.9,247.2z M614.3,246.7c0-0.1-0.1-0.3-0.1-0.3c-0.8,0.1-1.8,0-2.5,0.4c-0.6,0.3-0.5,1,0,1.1
			C612.7,247.5,613.4,247.1,614.3,246.7z M584,253.2c-1-1.5-1.3-1.7-2.5-1.3c0.3,0.3,0.8,0.6,1,1C583,253.6,583.5,253.5,584,253.2z
			 M575.1,210.6c-0.5,0.3-0.9,0.5-1.3,0.8c0.8,0.4,1.4,0.8,2.1,1.2C576.6,211.4,575.3,211.3,575.1,210.6z M570.9,250.8
			c-0.6-0.6-1.1-1-1.6-1.5c-0.1,0.1-0.2,0.1-0.3,0.2c0.3,0.8,0.6,1.5,0.9,2.5C570.3,251.5,570.6,251.2,570.9,250.8z M598.1,263.6
			c0,0.1,0.1,0.3,0.1,0.4c0.9-0.2,1.8-0.4,2.7-0.5c0-0.2-0.1-0.4-0.1-0.6C599.7,262.5,598.9,263.1,598.1,263.6z M596.6,208.3
			c-0.2,1-0.2,1,0.9,2.2C597.7,209.4,597.7,209.4,596.6,208.3z M621.5,247c0.4,0.2,0.7,0.4,1.3,0.7c0.2-0.8,0.3-1.3,0.5-1.9
			c-0.1,0-0.2-0.1-0.3-0.1C622.5,246,622,246.4,621.5,247z M570.2,221.9c-0.1,0-0.3,0-0.4-0.1c-0.2,0.7-0.3,1.4-0.5,2
			c0.2,0,0.3,0.1,0.5,0.1C570.4,223.4,570.4,222.7,570.2,221.9z M601.5,205c1-1.1,0.9-1.1-0.7-1.8
			C600.5,204.1,601.1,204.5,601.5,205z M617.6,208.5c0.8-0.8,0.9-1.3,0.4-1.9c-0.1-0.1-0.5,0-1,0
			C617.2,207.3,617.4,207.8,617.6,208.5z M600.4,266.2c-1-0.1-1.6-0.2-2.3,0.7C599,266.7,599.7,267.1,600.4,266.2z M588.8,208
			c-1,1.3-1,1.3,0.3,1.5C589,209.1,588.9,208.6,588.8,208z M618.2,259.3c-1-0.2-1-0.2-1.6,0.6C617.2,259.7,617.7,259.5,618.2,259.3z
			 M614.8,205.7c0.1-0.2,0.1-0.3,0.2-0.5c-0.4-0.1-0.8-0.3-1.2-0.4c-0.1,0.2-0.2,0.5-0.2,0.5C614.1,205.4,614.5,205.6,614.8,205.7z
			 M589.4,206.2c0.1,0.1,0.2,0.2,0.3,0.4c0.3-0.3,0.7-0.5,1-0.8c0,0-0.1-0.2-0.2-0.5C590.1,205.6,589.8,205.9,589.4,206.2z
			 M580.6,262.2c0.1-0.1,0.3-0.2,0.4-0.3c-0.3-0.3-0.7-0.7-1.2-1.2C579.7,261.7,579.9,262.1,580.6,262.2z M581,250.1
			c-0.4-0.2-0.6-0.5-0.9-0.5c-0.1,0-0.3,0.3-0.5,0.5c0.2,0.2,0.4,0.4,0.7,0.5C580.4,250.6,580.6,250.4,581,250.1z M585.8,204.3
			c-0.6-0.9-1-0.7-1.4,0.2C585,204.4,585.4,204.4,585.8,204.3z M574.7,258.4c0.1,0.1,0.1,0.3,0.2,0.4c0.3-0.1,0.6-0.2,0.8-0.4
			c0,0-0.1-0.3-0.2-0.5C575.2,258.1,575,258.2,574.7,258.4z M622.3,241.5c-0.3-0.1-0.5-0.4-0.7-0.3c-0.1,0-0.2,0.3-0.3,0.5
			c0.2,0.1,0.4,0.2,0.7,0.3C622,242,622.2,241.7,622.3,241.5z M609.8,237.7c0-0.2,0-0.4-0.1-0.6c-0.2-0.1-0.5-0.2-0.7-0.2
			s-0.5,0.3-0.5,0.4c0.1,0.2,0.3,0.5,0.5,0.6S609.5,237.8,609.8,237.7z M592.8,214.1c0.3,0.2,0.5,0.5,0.6,0.4
			c0.2-0.1,0.4-0.3,0.6-0.5c-0.2-0.2-0.3-0.4-0.5-0.5C593.3,213.6,593.1,213.9,592.8,214.1z M581.9,245.8c-0.3-0.1-0.5-0.3-0.7-0.3
			c-0.1,0-0.3,0.4-0.2,0.4c0.1,0.2,0.3,0.3,0.6,0.4C581.5,246.3,581.7,246,581.9,245.8z M601.8,262.7c0,0.1,0.1,0.3,0.1,0.4
			c0.3-0.1,0.6-0.2,0.9-0.3c0-0.1-0.1-0.3-0.1-0.3C602.4,262.6,602.1,262.7,601.8,262.7z M580,247.8c-0.3-0.3-0.5-0.4-0.7-0.5
			c-0.1,0-0.3,0.3-0.3,0.3c0.1,0.2,0.2,0.4,0.4,0.5C579.5,248.1,579.7,247.9,580,247.8z"/>
		<path class="st0" d="M528.7,222c0.2,1.2,0.5,2.5,0.6,3.7c0.2,1.6,0.9,2.3,2.5,2.1c2.3-0.2,4.7-0.6,7-0.7c1-0.1,2,0.3,2.7,0.5
			c0.3,1,0.5,1.8,0.7,2.6c0.1,0.2,0.2,0.5,0.1,0.7c-0.5,1.9-0.1,3.7,0.2,5.6c0.3,1.9-0.1,3.6-1.1,5.2c-0.4,0.6-1.3,1.2-2,1.4
			c-1.2,0.3-2.5,0.1-3.8,0.2c-1.6,0-3.2,0.3-4.9-0.3c-2-0.8-4,1.5-3.6,3.7c0.2,0.9,0.1,1.8,0.1,2.7c0,0.6,0,1.2,0,1.9
			c5,0.7,9.8,0.4,14.6,0c1-0.1,1.7-0.9,1.9-1.9c0.1-0.9,0.3-1.8,0.4-2.7c0.2-1.4,1.2-2.3,2.5-2.6c1.9-0.5,3.7-1.2,5.7-0.4
			c0.4,0.2,1,0,1.5,0.1c2.4,0,4.3,1.7,4.5,4.1c0.1,0.9,0,1.8,0.1,2.7c0.1,1.6,0.6,3.2,0.3,4.7c-0.3,1.8,0,3.5,0.2,5.3
			c0.2,1.4,0.2,2.9,0.3,4.3c0.1,1.8-0.9,2.7-2.7,2.7c-1.4,0-2.8,0.1-4.2,0.1c-1.9,0-3.8,0-5.7,0.1c-0.4,0-0.8,0-1.1,0.2
			c-1.5,1-3.3,0.1-4.9,0.7c-0.2,0.1-0.6-0.1-0.9-0.2c-1-0.3-1.9-0.3-2.8,0.4c-0.9,0.7-1.8,0.5-2.8,0.2c-1.4-0.3-2.9-0.4-4.4-0.6
			c-0.8,1.1-1.8-0.3-2.6,0.1c-0.9,0.4-1.8,0.5-2.8,0.3c-1.5-0.3-3-0.8-4.5,0.2c-2.7-0.9-5.5-0.1-8.2-0.3c-1.8-0.2-3.6-0.1-5.4-0.3
			c-1.5-0.2-3-0.7-4.5-1.1c-0.9-0.2-1.2-0.8-1.2-1.7c-0.1-2.7-0.5-5.4-0.7-8.1c0-0.7,0.1-1.4,0.3-2.1c0.5-1.7,0.5-1.6,2.3-1.5
			c1.1,0.1,2.3,0,3.4-0.2c0.7-0.1,1.3-0.8,1.1-1.6c-0.6-2.8,0.1-5.6-0.1-8.4c-0.1-2.1-0.2-4.3-0.2-6.4c-0.1-5.7-0.2-11.4-0.3-17.1
			c0-0.5,0-1.1-0.2-1.5c-0.3-0.7-0.9-1.1-1.8-1.2c-3.2-0.4-3.6-0.9-3-4.1c0.1-0.4,0-0.8,0-1.2c0.1-0.3,0.2-0.6,0.4-0.8
			c0.9-0.7,0.8-0.6,0.4-1.5c-0.5-1.1-0.7-2.3-1-3.5c0.8,0,1.4,0.2,1.8,0c0.5-0.2,0.7-0.8,1.1-1.3c-1.3-0.5-1.3-0.5-2.8,0.3
			c0-0.6-0.3-1.3,0-1.6c0.4-0.5,1-1,1.6-1.2c0.7-0.2,1.5-0.2,2.1,0c3.5,0.9,6.9,0.2,10.4-0.1c3.6-0.3,7.2-0.6,10.7-0.3
			c0.1,0,0.3,0,0.4,0c3.4,1,6.6-0.1,9.9-0.5c2.7-0.3,5.4-0.3,8.1-0.3c1.3,0,2.6,0,3.9,0.2c1.4,0.2,2.8,0.5,4.2,0.7
			c0.2,0,0.5,0.3,0.7,0.2c0.7-0.2,1.5-0.5,1.9,0.3c0.4,0.7,0.8,1.5,0.9,2.3c0.2,1.7,0.2,3.5,0.3,5.2c0,0.8,0.1,1.5,0.2,2.3
			c0.1,0.8,0.2,1.5,0.2,2.3c-0.1,1.7-0.2,3.3,0.2,5c0.6,2.1-1.1,3.8-3.4,3.4c-1.4-0.2-2.6,0.2-3.8,0.4c-2,0.3-4,1-6-0.3
			c-0.9-0.6-1.5-1.1-1.1-2.4c0.2-0.8,0-1.7,0-2.7c-1.4-0.2-3-0.8-4.4-0.7c-3.2,0.3-6.4-0.5-9.5,0.5c-0.5,0.2-1.3,0.1-1.6,0.4
			c-0.5,0.6-0.9,1.5-1,2.3c-0.2,0.9-0.1,1.8-0.1,2.7c0,1,0.2,2,0.4,3c0.2,0.8,0.5,1,1.1,1c0.8-0.1,1-0.7,0.9-1.4
			c-0.1-0.3-0.3-0.6-0.4-0.9C528.1,223.8,527.9,222.8,528.7,222L528.7,222z M538.3,229.3c1.8,1.3,0.9,3,1.3,4.5
			c0.6-1.1,1.1-2.3,0.3-3.3c-0.5-0.7-0.1-1.1,0.2-1.7c-0.4,0-0.6,0-0.8,0C539,228.8,538.8,229,538.3,229.3z M549,246.6
			c-0.9-0.3-1.6-0.5-2.2,0.3c-0.6,0.9-0.2,1.6,0.3,2.6C547.8,248.5,548.3,247.6,549,246.6z M541.9,258.4c0.1-0.4,0.2-0.9,0.4-1.7
			c-0.9,0.8-1.6,1.4-2.3,2c0,0.1,0.1,0.2,0.1,0.2C540.7,258.7,541.3,258.6,541.9,258.4z M524.5,219.5c0.5-0.6,0.8-1,1.2-1.6
			c-0.8-0.2-1.3-0.3-2.1-0.4C523.9,218.2,524.1,218.7,524.5,219.5z M524.4,241.3c0.2,1.2-0.3,2,0.5,2.7
			C526,242.9,526,242.9,524.4,241.3z M503.3,215.5c-0.2-1-0.3-1.8-0.5-2.5C502.4,213.8,501.5,214.7,503.3,215.5z M508.2,205.4
			c-0.8-0.7-1.1-0.7-2.8,0.2C506.3,205.5,507.2,205.5,508.2,205.4z M547.5,210.4c-0.7,0.3-1.2,0.5-1.8,0.7
			C546.8,212.1,547.1,211.5,547.5,210.4z M557.2,265c-0.5,0.1-1.1,0.2-1.6,0.3C556.2,266,556.8,266.2,557.2,265z M554.3,206.3
			c-0.1,0-0.3,0.1-0.4,0.1c0.1,0.6,0.3,1.2,0.4,1.9c0.2,0,0.3-0.1,0.5-0.1C554.6,207.5,554.4,206.9,554.3,206.3z M540.6,261.2
			c-0.1-0.1-0.2-0.3-0.3-0.4c-0.3,0.2-0.5,0.3-0.8,0.5c0.1,0.1,0.3,0.4,0.3,0.4C540.1,261.5,540.4,261.3,540.6,261.2z M542.1,261.4
			c-0.2-0.2-0.3-0.4-0.4-0.4c-0.1,0-0.4,0.3-0.3,0.3c0.1,0.2,0.3,0.3,0.4,0.5C541.8,261.7,541.9,261.6,542.1,261.4z M506.6,213.4
			c0.1,0.1,0.1,0.1,0.2,0.2c0.1-0.1,0.3-0.2,0.4-0.3c0.1-0.2,0.1-0.4,0.2-0.7c-0.1,0-0.2-0.1-0.2-0.1
			C506.9,212.8,506.8,213.1,506.6,213.4z"/>
		<path class="st0" d="M672,232.9c1.6-4.6,0.7-9.4,0.7-14.2c1-0.2,1.5,0.4,1.7,1.1c0.3,1.1,0.2,2.3,0.3,3.4c0,0.2-0.2,0.5-0.1,0.8
			c0.9,2.8,0.1,5.6,0.2,8.4c0,1.6,0.3,3.2,0.5,4.8c0,0.2,0.2,0.4,0.1,0.6c-0.9,2.1,0.4,4.2,0.1,6.3c-0.1,0.8,0.2,1.7,0.4,2.5
			c0.3,1,0.3,2-0.2,3.1c-0.7-0.2-1.3-0.4-1.8-0.6c-0.3-2.3-0.7-4.6-1-6.8c-0.5-0.4-1.1-0.3-1.2,0.4c-0.3,1.4-0.4,2.8-0.6,4.3
			c-0.1,0.8,0,1.5,0.7,2.1c0.1,0.1,0.2,0.2,0.2,0.3c0.5,2.3,2.2,2.1,3.9,2.1c2.2-0.1,2.5,0.2,2.7,2.2c0.2,2.1,0.4,4.1-0.5,6.1
			c-0.2,0.4-0.1,0.9-0.2,1.3c-0.1,0.9-0.3,1.8-0.4,2.7c-0.2,1.6-0.9,2.6-2.6,2.8c-0.3,0-0.5,0.3-1.1,0.5c0.5,0.3,0.8,0.7,1.2,0.8
			c1.1,0.2,2.1,0.3,3.5,0.5c1.6-0.7,2.4-2,2.2-4.1c-0.2-1.7,0-3.5,0-5.2c0.8-0.1,2.2,0.6,2.1,1.3c-0.1,1.2,0.4,2.4-0.2,3.6
			c-0.4,0.8-0.4,1.9-0.4,2.8c0,2-1.5,3.3-3.5,2.8c-1-0.2-2.1-0.2-3.2-0.1c-1.4,0.1-2.7,0.4-4.1,0.5c-2.7,0.1-5.3,0.4-7.9,0.7
			c-3.1,0.3-6.2,0-9.2,0.8c-0.5,0.1-1,0.1-1.6,0c-0.9-0.1-1.8-0.4-2.7-0.3c-0.8,0-1.6,0.3-2.6,0.5c0.5-1.3,1.5-1.6,2.4-1.7
			c3-0.2,6.1-0.2,9.1-0.5c3.7-0.4,7.4-0.9,11.2-1.4c0.1,0,0.2-0.1,0.4-0.3c-1.1-0.4-2-0.6-3.1-0.4c-0.8,0.2-1.8-0.3-2.7-0.2
			c-2.7,0-5.3,0.2-8,0.3c-3.9,0-7.8,0.1-11.7,0c-2-0.1-2.8-0.8-3.1-2.8c-0.4-2.5-0.8-5.1-0.8-7.7c0-4.4,0.5-4.7,5.1-5.3
			c0.9-0.1,1.7-0.2,2.3-0.9c0.2-0.2,0.4-0.4,0.4-0.6c-0.1-1,0.4-2.1,0.3-3c-0.5-3,0.2-6,0.3-8.9c0-1.9-0.1-3.9,0-5.8
			c0.1-2.3,0.3-4.5,0.4-6.8c0.1-1.3,0.2-2.6,0.2-3.9c0-1.2,0-2.5,0-3.8c-2.2-0.6-4.2-0.4-6.2,0.3c-0.2,2.3,0.1,4.3-0.5,6.3
			c-0.5,1.6-0.8,2.1-2.6,2.1c-1.6,0-3.2-0.1-4.8-0.2c-1.4-0.1-2.8-0.2-4.2,0.3c-0.8,0.2-1.6,0.2-2.5,0.1c-1.2-0.1-2.1-1.5-2.1-2.9
			c0.2-4.6,0.4-9.2,0.6-13.9c0.1-1.5,0.1-3,0.2-4.4c0.1-1.7,0.4-3.3,1.4-4.8c0.8-1.2,1.7-1.9,3.2-1.9c1.8,0,3.6,0.2,5.4,0.2
			c0.9,0,1.8,0.1,2.6,0.1c3.1-0.1,6.2-0.2,9.3-0.2c1.8-0.1,3.6-0.2,5.4-0.2c2.6,0,5.2,0.3,7.8,0.3c2,0,4.1-0.2,6.1-0.2
			c0.9,0,1.9,0.2,2.8,0.3c2.8,0.2,5.6,0.3,8.4,0.4c1.3,0,2.7-0.2,4-0.1c1.9,0.1,3.8-0.1,5.7,0.6c1.5,0.5,1.7,0.5,1.8,2
			c0.1,2.8,0.1,5.7,0.2,8.5c0,1.5,0.2,3,0.2,4.5c0,1.9-0.1,3.7-0.2,5.6c0,0.5,0,0.9,0.1,1.4c0.3,2.1-0.6,3.3-2.6,3.6
			c-0.4,0.1-0.9,0.2-1.2,0.5c-0.5,0.3-0.9,0.8-1.4,1c-0.7,0.4-1.4,0.6-2.1,0.9c-0.2-0.1-0.4-0.2-0.4-0.2c-0.6-2.5-2.9-2.5-4.7-2.8
			c-2.6-0.4-2.4-0.5-2.9-3c-0.4-2.2-1-4.3-0.8-6.5c0-0.3-0.2-0.6-0.4-1.1c-1,0-2-0.2-3,0c-1.7,0.3-2.6,1.5-2.6,3.4
			c0,1.7-0.1,3.5-0.1,5.2c0,2.4,0.1,4.9,0.3,7.3c0.1,0.9,0.5,1.8,0.8,2.7C671.6,232.9,671.8,232.9,672,232.9z M672,233.7
			c-0.2,0-0.4,0-0.5,0.1c-1.1,0.8-1.1,4.3-0.1,5.1c0.4,0.4,1.1,0.2,1.2-0.3c0.1-0.3,0.1-0.6,0-0.9
			C672.4,236.4,672.2,235.1,672,233.7z M690.9,219.5c-0.1,0-0.2,0-0.4,0c-0.4,0.7-0.9,1.4-1.1,2.2c-0.1,0.4,0.3,1,0.6,1.4
			c0.1,0.2,0.8,0.2,0.8,0.1c0.2-0.4,0.5-0.9,0.4-1.3C691.3,221.1,691.1,220.3,690.9,219.5z M654,251.8c-0.9-0.5-1.8-1-2.7-1.5
			c-0.1,0.6-0.2,1.1-0.3,1.6C652,252.2,653,253.1,654,251.8z M676,263.7c-1.2,0.5-2.4,1-3.8,1.7C675.3,265.7,675.5,265.6,676,263.7z
			 M643,258.3c1.5-0.8,1.5-0.8,0.3-2C643.3,257.1,643.2,257.7,643,258.3z M671.9,241.5c0.3-0.4,0.5-0.7,0.6-1
			c-0.2-0.1-0.5-0.4-0.5-0.3c-0.2,0.1-0.4,0.4-0.5,0.6C671.4,240.9,671.6,241.1,671.9,241.5z M659.1,259.8c0.9,0.1,1.3-0.1,1.3-1.1
			C659.9,259.1,659.6,259.4,659.1,259.8z M651.2,249.3c0.9-0.6,0.8-1,0-1.5C651.2,248.4,651.2,248.8,651.2,249.3z M666.6,229.1
			c0.2,0,0.3,0,0.5,0c0-0.4,0-0.7,0-1.1c-0.1,0-0.2,0-0.3,0C666.6,228.4,666.6,228.7,666.6,229.1z M677.4,255.2
			c-0.2,0.3-0.5,0.5-0.4,0.7c0,0.2,0.3,0.4,0.5,0.4s0.5-0.3,0.5-0.4C677.9,255.7,677.6,255.5,677.4,255.2z M651.1,236.5
			c0.1,0,0.2,0.1,0.3,0.1c0.1-0.3,0.2-0.5,0.2-0.8c0,0-0.2-0.1-0.3-0.1C651.3,236,651.2,236.2,651.1,236.5z M647.9,265.9
			c0-0.1-0.1-0.2-0.1-0.4c-0.3,0.1-0.5,0.2-0.8,0.3c0,0.1,0.1,0.3,0.1,0.3C647.3,266,647.6,265.9,647.9,265.9z M673.1,267.6
			c-0.5-0.1-0.7-0.2-0.8-0.2c-0.2,0-0.3,0.2-0.5,0.2c0.1,0.1,0.2,0.4,0.3,0.4C672.2,268.1,672.4,268,673.1,267.6z"/>
		<path class="st0" d="M258,249.9c2.9,1.9,6.8,6.4,11,12.8c-0.5,0.5-1.1,1-2,1.8c0.8,0,1.3,0.2,1.6,0.1c0.9-0.7,1.4-0.2,1.9,0.6
			c-0.1,0.1-0.2,0.4-0.3,0.4c-2.2,0.8-3.8,2.5-5.3,4c-2,2-4.4,3-6.6,4.5c-1.6,1.1-3.7,1.5-5.6,1.8c-2.6,0.5-5.3,0.4-7.9,0.9
			c-2.8,0.5-5.5,0.1-8.2-0.6c-1.9-0.5-3.9-1-5.8-1.6c-1.4-0.4-2.7-1.2-3.6-2.4c0.3,0.1,0.7,0,1,0.2c2.8,1.7,6.1,2.2,9.2,3
			c2.4,0.7,4.9,0.7,7.5,0.2c2.6-0.6,5.4-0.8,8-1.2c1.9-0.3,3.6-1,5.2-2c1.9-1.3,3.8-2.5,5.6-3.8c0.6-0.4,1-1,1.5-1.7
			c-2,0.4-3.7,2.1-6,1.6c-2.7,1.4-5.7,2.6-9,2.3c-0.3,0-0.5,0-0.8,0c-3.6,1.4-7.2,0.4-10.8,0.6c-0.3,0-0.6,0.1-0.9,0.1
			c-1.1,0-2.2,0.1-3.2-0.2c-2.2-0.6-4.5-0.9-6.7-1.4c-0.5-0.1-1-0.3-1.5-0.5c-1-0.4-2-0.9-3.1-1.2c-1.2-0.3-2.4-0.5-3.2-1.5
			c-0.2-0.2-0.6-0.2-0.9-0.3c-1.7-0.4-3.2-1.2-4.2-2.8c-0.9-1.5-2.2-2.8-3.4-4.1c-0.9-1-1.6-2-2-3.3c-0.6-1.8-1.7-3.4-2.2-5.1
			c-0.8-2.8-1.6-5.7-1.3-8.8c0.2-2,0-4.1,0-6.2c0.1-1.9,0.1-3.9,0.4-5.8c0.4-2.5,1.5-4.8,2.9-6.9c2-3.1,4.2-6.2,6.7-9.1
			c1.7-1.9,3.9-3.4,5.9-5c3.3-2.6,7.3-3.7,11.2-5.1c1.2-0.4,2.5-0.4,3.8-0.6c1.4-0.1,2.8-0.1,4.2-0.3c3.1-0.4,6,0.7,9,1.3
			c1.3,0.3,2.5,0.9,3.8,1.4c0.1,0,0.2,0.2,0.3,0.2c1.9-0.1,3.4,0.9,5.1,1.6c1.6,0.7,3.3,1.5,4.9,2.3c1.7,0.8,1.9,2.6,2.2,4.1
			c0.3,1.8,0.2,3.7,0.3,5.6c0.1,2.4,0.2,4.8,0.2,7.2c0,0.8-0.2,1.5-0.4,2.3c-0.1,0.7-0.6,1.1-1.4,1.2c-3.2,0.2-6.2,1.5-9.4,1.4
			c-1.4,0-2.8,0.2-4.2,0.2c-1.8,0-2.7-1-2.7-2.8c0-0.6-0.1-1.3-0.1-1.9c-0.1-0.9-0.2-1.8-0.3-2.7c-0.1-0.7-0.2-1.5-0.2-2.2
			c-3.4,0.3-6.6,0.4-9.8,0.8c-1.1,0.1-2.2,0.7-3.1,1.4c-2.4,1.9-4.4,4.3-5.7,7c-1.7,3.4-2.4,7-1.3,10.7c0.3,1,1,1.8,1.6,2.7
			c0.3,0.5,0.7,0.9,1.1,1.3c-0.5,0.8-1.1,0.8-1.6,0.3s-0.9-1.1-1.3-1.7c-0.5-0.6-1-1.3-1.7-1.8c0,1.9,1.1,3.2,2.3,4.4
			c2.8,2.7,6.3,4.2,9.7,6c0.4,0.2,1,0.3,1.5,0.4c0.6,0.1,1.2,0.1,1.7,0.3c3.1,1.6,6.1,0.7,8.9-0.5C253,252.7,255.4,251.2,258,249.9z
			 M233,224.1c-0.1-0.1-0.2-0.2-0.4-0.3c-4.1,2.5-6,6.5-7.2,11c-0.6,2.4-0.7,4.9,0.5,7.3c0.4-2.2-0.7-4.5,0.2-6.6
			c0.8-2.1,1.5-4.3,2.7-6.2C229.9,227.4,231.6,225.8,233,224.1z M264.7,223.7c0.1,0,0.3,0.1,0.4,0.1c0.3-1.1,0.5-2.3-0.7-3.7
			C264.5,221.6,264.6,222.7,264.7,223.7z M264.1,228.9c1.3-1,1.3-1.2,0.6-2.4C264.5,227.3,264.3,227.9,264.1,228.9z M223.9,245
			c0.1,1,0.1,1.5,0.1,2.1c0.6-0.2,0.9-0.6,1-1C225,245.9,224.5,245.6,223.9,245z M246.9,206.9c0.5,0.5,0.9,1,1.5,1.7
			C248.4,207.1,248.4,207.1,246.9,206.9z M213.3,241.8c-0.1-0.9-0.1-1.3-0.2-2.1C212.3,240.5,212.3,240.9,213.3,241.8z M233.6,268.7
			c0,0.1,0,0.3,0,0.4c0.4,0.1,0.8,0.2,1.2,0.3c0-0.1,0.1-0.2,0.1-0.4c-0.2-0.1-0.4-0.3-0.6-0.4C234.1,268.5,233.8,268.6,233.6,268.7
			z M236.7,206.7c-0.1-0.2-0.1-0.4-0.2-0.6c-0.4,0.2-0.8,0.3-1.1,0.5c0.1,0.1,0.1,0.3,0.2,0.4C236,206.9,236.4,206.8,236.7,206.7z
			 M251.1,230c0.2-0.1,0.3-0.2,0.5-0.3c-0.2-0.3-0.4-0.6-0.6-0.9c-0.2,0.2-0.4,0.3-0.6,0.5C250.7,229.5,250.9,229.7,251.1,230z
			 M236.4,219.4c0.1,0.1,0.2,0.3,0.3,0.4c0.3-0.2,0.5-0.3,0.8-0.6c0,0-0.2-0.3-0.2-0.4C237,219.1,236.7,219.3,236.4,219.4z
			 M248.4,221.2c-0.3-0.1-0.5-0.3-0.7-0.3c-0.1,0-0.2,0.3-0.3,0.5c0.2,0.1,0.4,0.2,0.6,0.3C248.1,221.7,248.2,221.4,248.4,221.2z
			 M226.1,247.7c-0.2-0.1-0.3-0.3-0.4-0.4c-0.1,0.2-0.2,0.3-0.3,0.5c0,0.1,0.2,0.2,0.4,0.3C225.9,248,226,247.8,226.1,247.7z
			 M215.1,247.3c-0.1,0.1-0.2,0.1-0.3,0.2c0.1,0.3,0.3,0.6,0.4,0.9c0.1-0.1,0.2-0.1,0.4-0.2C215.4,247.9,215.3,247.6,215.1,247.3z"
			/>
		<path class="st0" d="M461.4,202.1c0.3-0.3,0.6-0.7,1.1-1.2c3.1,0.4,6.4,0.8,9.6,1.2c0.6,0.1,1.3,0,1.9,0c0.5,0,1.1,0.1,1.6,0.2
			c0.2,0,0.5,0.2,0.7,0.1c2.2-0.4,4.2,0.3,6.3,0.7c1.2,0.2,2.4,0.2,3.6,0.1c1.7-0.1,3.5-0.3,5.2-0.3c1.5,0,2.5,1.3,2.5,2.8
			c0,1.4,0.2,2.8,0.4,4.2c0.1,1.4,0.3,2.8,0.3,4.3c0,3.7-0.1,7.4-0.1,11.1c0,1-0.3,1.5-1.2,1.7c-0.9,0.2-1.9,0.3-2.8,0.4
			c-0.2,0-0.4-0.1-0.6,0c-2.5,1.3-5.1,0.3-7.6,0.4c-0.6,0-1.2,0.2-2.1,0.4c-0.5-2.4-2.4-4-2.7-6.4c-0.1-1-0.9-1.7-2-2
			s-1.6,0.2-1.6,1.3c0,2.5,0.1,5.1-0.3,7.6c-0.2,1.5,0,2.9,0.2,4.2c0.7,4,0.4,8,0.2,12c-0.1,1.1-0.1,2.1-0.2,3.2
			c-0.1,1.1-0.2,2.2-0.3,3.3c-0.1,1.3,0.3,1.8,1.7,1.9c1.3,0.1,2.7,0.3,4,0.6c0.7,0.1,1.3,0.4,1.3,1.4c-0.1,1.6-0.2,3.2-0.2,4.8
			c0,1.1,0.1,2.3,0.1,3.4c0,1.3-0.1,2.7-0.2,4c-0.1,0.8-1.2,1.5-1.9,0.9c-0.6-0.4-0.9-0.2-1.4-0.2c-3.3,0.2-6.6,0.4-10,0.5
			c-1.2,0-2.4-0.4-3.6-0.3c-2.2,0.1-4.4,0.5-6.6,0.8c-2.5,0.3-5,0.6-7.5,0.3c-1.5-0.2-2.2-1.1-2-2.6c0.2-1.1,0.1-2.3,0.2-3.4
			c0.1-2.2,0.2-4.4,0.4-6.5c0.1-0.8,0.2-1.7,0.3-2.8c0.9-0.2,1.9-0.3,2.8-0.5c0.7-0.1,1.4-0.2,2-0.5c0.9-0.4,1.4-1,1.3-2.1
			c-0.1-1.3,0.2-2.6,0.7-3.9c0.3-0.9,0.2-2.1-0.2-3c-0.4-0.8-0.4-1.4,0-2.1c0.1-0.2,0.1-0.5,0.2-0.7c0.1-2.9,0.4-5.8,0.4-8.7
			c0-2.7-0.2-5.4-0.3-8.1c0-0.3-0.1-0.5,0-0.8c0.5-1.6-0.3-2.8-1.2-3.8c-0.8,0.2-1.5,0.4-2.3,0.5c-1.3,0.2-1.9,0.8-2.2,2.4
			c-0.2,1.1-0.4,2.3-0.6,3.4c-0.5,2.8-2,4-4.8,4.1c-2.3,0.1-4.7,0.2-7,0.3c-0.8,0-1.6,0-2.3,0c-2.5-0.2-2.7-1.1-2.8-3.3
			c-0.1-2.6-0.2-5.1-0.4-7.7c-0.1-1.6-0.2-3.2-0.4-4.8c0-0.5-0.3-0.9-0.8-1.4c-0.1,0.3-0.2,0.7-0.2,1c0,1.5,0.1,3.1,0,4.6
			c-0.1,1.1-0.3,2.2-1.8,2.4c-1.5,0.3-3,0.7-4.5,1.1c-0.2,0.1-0.6,0.1-0.8,0c-0.3-0.1-0.4-0.4-0.7-0.6c0.2-0.2,0.4-0.5,0.6-0.6
			c1.1-0.4,2.2-0.7,3.3-1c1.1-0.3,1.4-1.2,1.5-2.1c0.2-1.8,0.2-3.6,0.2-5.4c0.1-1.9,0.1-2,2.4-2c0-0.8,0.1-1.6,0.1-2.4
			c0-0.4,0-0.8,0.1-1.1c0.3-2.1,1.5-3.1,3.6-3.4c3.2-0.5,6.3-1,9.5-0.9c1.9,0.1,3.9-0.1,5.8-0.2c0.7,0,1.4,0.1,2.1,0.1
			c2.6-0.2,5.3-0.4,7.9-0.6C460,201.9,460.6,202,461.4,202.1z M464.5,203.4c0,0.2,0,0.3,0.1,0.5c2,0.3,4.1,1.3,6.2,0.2
			c-1.2-0.3-2.4-0.6-3.6-0.7C466.3,203.3,465.4,203.4,464.5,203.4z M464.7,262.9c0.2,0,0.3,0,0.5,0c0-1.1,0-2.3,0-3.4
			c0-0.1-0.3-0.2-0.5-0.4C463.9,260.5,464.3,261.7,464.7,262.9z M480.4,213.1c0.6,0.7,1.1,1.4,1.9,2.2
			C482.3,212.8,482.2,212.7,480.4,213.1z M472,240.4c-0.2,1-0.3,1.7-0.4,2.4C473.1,242.6,473.1,242.6,472,240.4z M492.5,221.4
			c-0.1,0.9-1.1,1.7,0.2,2.9C492.6,223.1,493.4,222.3,492.5,221.4z M478.5,208.8c0.1,1.4,1.2,1.3,1.7,1.9c0.4-0.3,0.7-0.4,1.1-0.6
			c-0.1-0.1-0.1-0.3-0.2-0.4C480.3,209.4,479.5,209.1,478.5,208.8z M480.8,224.6c-0.1,0.1-0.2,0.2-0.3,0.4c0.2,1,0.9,1.3,2.1,1
			C481.9,225.4,481.4,225,480.8,224.6z M454.6,268c0.5-0.1,1-0.2,1.6-0.3C455.5,266.6,455.5,266.6,454.6,268z M466.2,216.8
			c-1.3,0.9-1.3,1.2,0,1.9C466.2,218,466.2,217.5,466.2,216.8z M442.5,215.1c0.2-1,0.2-1.7-0.9-1.8
			C441.2,214.2,441.2,214.8,442.5,215.1z M449,204c-0.1,0.2-0.1,0.4-0.2,0.6c0.5,0.2,0.9,0.4,1.4,0.5l0.2-0.5
			C449.9,204.4,449.4,204.2,449,204z M478.4,256.2c1.1-1.1,1.1-1.1-0.1-2.1C478.3,254.8,478.3,255.3,478.4,256.2z M456.5,259.4
			c-1.4,0.2-1.1,0.8-0.5,1.5C456.2,260.4,456.4,259.9,456.5,259.4z M434.6,229.1c-0.4-0.7-0.6-1.2-0.9-1.8
			C432.9,228.5,433.5,228.7,434.6,229.1z M433.2,206.1c-0.1-0.2-0.3-0.3-0.4-0.5c-0.3,0.2-0.6,0.4-0.8,0.7c0.1,0.2,0.3,0.4,0.4,0.6
			C432.6,206.5,432.9,206.3,433.2,206.1z M476.8,205.7c0.1-0.2,0.2-0.3,0.4-0.5c-0.4-0.2-0.7-0.4-1.1-0.6c-0.1,0.1-0.2,0.3-0.3,0.4
			C476.1,205.3,476.4,205.5,476.8,205.7z M443.4,222.8c-0.1-0.1-0.2-0.1-0.4-0.2c-0.4,0.4-1,0.6-0.4,1.8
			C442.9,223.7,443.1,223.2,443.4,222.8z M470.7,227.4c1.1,0.2,1.1-0.4,1.1-1.4C471.4,226.6,471.1,227,470.7,227.4z M452.5,265.2
			c-0.2-0.1-0.3-0.2-0.5-0.3c-0.2,0.3-0.3,0.6-0.5,1c0,0,0.2,0.2,0.3,0.2C452.1,265.8,452.3,265.5,452.5,265.2z M477.3,208.4
			c-0.3,0.3-0.6,0.6-0.5,0.7c0.2,0.2,0.4,0.4,0.6,0.5c0.1,0,0.4-0.2,0.4-0.3C477.7,209,477.5,208.7,477.3,208.4z M484.2,208.5
			c0.3,0.2,0.5,0.5,0.7,0.5s0.3-0.3,0.5-0.5c-0.2-0.1-0.3-0.4-0.5-0.4S484.5,208.3,484.2,208.5z M460.6,260.4
			c0.1-0.1,0.2-0.2,0.3-0.2c-0.2-0.3-0.5-0.5-0.7-0.8c-0.1,0.1-0.2,0.2-0.3,0.3C460.1,259.9,460.3,260.2,460.6,260.4z M433.2,225.4
			c0.1,0,0.2,0.1,0.3,0.1c0.1-0.3,0.2-0.7,0.3-1c-0.1,0-0.2-0.1-0.4-0.1C433.4,224.8,433.3,225.1,433.2,225.4z M484.1,213.3
			c0.2,0,0.3,0,0.5-0.1c-0.1-0.3-0.2-0.6-0.3-0.9c-0.1,0-0.2,0-0.3,0C484.1,212.7,484.1,213,484.1,213.3z M459.1,249.4
			c0.1,0.1,0.2,0.2,0.4,0.4c0.3-0.3,0.5-0.5,0.8-0.8c-0.1-0.1-0.2-0.2-0.3-0.3C459.7,248.9,459.4,249.2,459.1,249.4z M482.5,221.2
			c-0.2,0.3-0.3,0.5-0.3,0.6c0.2,0.2,0.4,0.3,0.6,0.4c0.1-0.1,0.2-0.2,0.2-0.3C482.8,221.7,482.7,221.5,482.5,221.2z"/>
		<path class="st0" d="M296.5,272.4c0.3,0,0.7,0,1,0c3.5,0.5,7,1.2,10.6,1.4c2.5,0.2,5-0.3,7.5-0.4c0.4,0,0.8-0.1,1.2-0.1
			c2.6,0.3,5-0.7,7.4-1.4c3-0.9,5.9-2,8.7-3.1c1.2-0.5,2.3-1.1,3.3-2c1.7-1.5,3.5-3,4.8-4.8c1.8-2.4,3.8-4.8,4.7-7.8
			c0.7-2.2,1.3-4.6,1.3-7c0-1,0.2-1.9,0.4-2.9c0.4-2.1,0.6-4.1,0.2-6.2c-0.6-3.6-0.8-7.2-2.2-10.6c-0.5-1.3-1-2.6-1.5-4.2
			c1.1,0.5,2.3,2.1,2.7,3.3c0.6,1.9,1.3,3.8,1.9,5.7c0.1,0.3,0.2,0.6,0.2,0.9c0.2,2,0.5,4.1,0.6,6.1c0.1,1.2,0.1,2.4,0.1,3.7
			c-0.1,1.6-0.3,3.2-0.5,4.8c-0.2,1.9-0.5,3.8-1.2,5.6c-0.1,0.2-0.3,0.5-0.3,0.7c0.2,2.3-1.4,3.6-2.4,5.4c-1.6,2.7-3.8,4.9-5.7,7.3
			c-1.2,1.5-2.7,2.7-4.4,3.4c-2.3,1.1-4.6,2.1-7.1,2.6c-3.4,0.8-6.8,2-10.4,1.9c-3-0.1-5.9,0.3-8.9,0.4c-0.4,0-0.9-0.1-1.3-0.1
			c-2.9-0.4-5.7-0.8-8.6-1.3c-0.7-0.1-1.4-0.7-2.1-1.1C296.4,272.6,296.5,272.5,296.5,272.4z"/>
		<path class="st0" d="M506.4,270c0.5,0,1,0,1.5,0.1c3.3,0.8,6.7,0.4,10.1,0.4c3.7,0.1,7.4,0,11.1-0.4c3.1-0.3,6.2,0.4,9.3,0.1
			c2.4-0.3,4.8-0.4,7.1-0.4c4.1-0.1,8.1-0.1,12.2-0.1c1.9,0,2.9-0.8,3.2-2.6c0.1-0.4,0.1-0.9,0.1-1.4c0-3.7,0-7.4,0.1-11.1
			c0-1.3,0.2-2.7,0.4-4.1c0.8-0.1,1.2,0.3,1.3,1c0.5,3.1,0.4,6.3,0,9.4c-0.1,0.9,0.9,1.9-0.2,2.7c0.6,1.5,0.2,3.1-0.1,4.6
			c-0.2,0.8-0.6,1.6-0.9,2.4c-0.4,0-1-0.2-1.4,0c-1.9,1-4,0.7-6,0.7c-2.1,0-4.1,0.2-6.2,0.2c-0.7,0-1.4-0.3-2-0.2
			c-1,0.2-2.2-0.5-3,0.6c-0.1,0.1-0.6,0.2-0.7,0.1c-1.1-0.7-2.2-0.4-3.2-0.1c-1.7,0.5-3.3-0.1-5-0.1c-3.3-0.1-6.5,0.1-9.8,0.4
			c-0.6,0.1-1.3-0.2-1.9-0.2c-2.6,0-5.3-0.1-7.9,0.1c-2.4,0.2-4.8-0.3-7.1-0.8C506.7,271.4,506.2,270.9,506.4,270z"/>
		<path class="st0" d="M423.1,223c0,1.7,0,3.3,0,5c0,1.6,0.2,3.2,0.2,4.8s0.1,3.2,0,4.9c-0.2,4.2-0.5,8.3-0.7,12.5
			c-0.1,2,0.2,4,0.3,6c0.1,1.3,0,2.6,0.1,3.9c0,1.2,0.2,2.4,0.2,3.7c0,2.3,0.4,4.5-0.6,6.7c-0.8,1.5-1.7,2.5-3.6,2.4
			c-2.7-0.2-5.4-0.2-8.1-0.2c-0.8,0-1.1-0.5-1-1.1c0.1-0.3,0.8-0.7,1.1-0.7c2.1,0.2,4.2,0.5,6.3,0.7c1.4,0.2,2.6-0.7,3.5-1.9
			c1-1.5,0.9-3.1,0.9-4.6s-0.3-3.1-0.4-4.6c-0.1-1.1,0-2.3,0-3.5c0-2-0.1-4-0.1-6c0-1.7,0.2-3.5,0.2-5.2c-0.2-4.8,0.8-9.6-0.1-14.3
			c0-0.3,0-0.5,0-0.8c0-2.1,0-4.1-0.1-6.2C421.1,223.1,421.2,223,423.1,223z"/>
		<path class="st0" d="M680,229.1c0.7-0.2,1.1-0.4,1.6-0.4c2.4,0,4.7,0.1,7.1,0c0.8,0,1.6-0.3,2.4-0.5c0.5-0.1,1-0.3,1.5-0.3
			c1.5-0.1,2-0.6,2-2c0-3.4,0-6.9,0.1-10.3c0-2.9,0.1-5.7,0.2-8.6c0-0.3,0.1-0.6,0.3-1.2c0.9,0.5,1.7,1,2.6,1.4
			c-0.2,2.6-0.4,5.3-0.5,7.9c-0.1,1.7,0,3.5,0.1,5.2c0.1,1.2,0.1,2.4-0.4,3.6c-0.2,0.5,0.1,1.2,0.2,2c-0.2,0.7-0.5,1.6-0.9,2.7
			c-2,0.9-4.4,1.3-6.8,1.6c-1.3,0.1-2.6,0.3-3.9,0.3c-1.5,0-3-0.3-4.4-0.5C680.8,230,680.5,229.5,680,229.1z"/>
		<path class="st0" d="M484.4,261.8c0.4,1.1,0.9,2.1,1,3.1c0.1,0.8-0.1,1.7-0.3,2.4c-0.1,0.5-0.6,1-0.9,1.5c0.3,0.6,0.5,1.1,0.9,1.8
			c-0.5,0.4-1,1.1-1.6,1.3c-2.3,0.6-4.6,0.9-7,0.8c-2.6-0.1-5.1-0.2-7.6-0.5c-3.3-0.4-6.4,0.8-9.5,1.3c-2.3,0.3-3.6,1-5.1,0.1
			c0.4-0.7,0.8-1,1.6-1.1c2.2-0.3,4.3-0.7,6.4-1.2c3-0.7,6-0.8,9-0.5c2.8,0.2,5.5,0.3,8.3,0.4c0.6,0,1.2,0,1.7-0.2
			c0.6-0.3,1.4-0.8,1.5-1.3c0.2-1.6,1-3,0.7-4.7c-0.1-0.7-0.1-1.5,0.1-2.2C483.7,262.3,484.2,262.1,484.4,261.8z"/>
		<path class="st0" d="M610.7,226.2c1.1-1.1,1.9-1.3,3.1-0.7c0.3,0.2,0.8,0.6,1,0.5c2-0.8,3.6,0.5,5.4,0.9c0.2-0.1,0.3-0.2,0.5-0.3
			c2.3-1.1,1.9-3.3,2-5.3c0-0.4-0.2-0.8-0.1-1.2c0.7-2.5,0.6-5,0.2-7.5c0-0.2,0.1-0.5,0.2-0.8c1.2,0.4,1.8,1,2,2.2
			c0.8,3.4,0.1,6.7-0.1,10c-0.1,1-0.2,1.9-0.3,2.9c0,0.8-0.3,1.3-1.1,1.2c-2.1-0.1-4.3-0.1-6.4-0.2c-1.4-0.1-2.8-0.2-4.2-0.2
			C611.6,227.5,611.6,227.5,610.7,226.2z"/>
		<path class="st0" d="M498.3,230.6c-2,1.5-4.5,1.6-6.7,2c-2.7,0.4-5.4,0.2-8.1-0.3c1.5-0.4,2.8-1.2,4.6-0.7c1.4,0.4,3-0.1,4.5-0.4
			c1-0.2,1.9-0.7,2.9-0.9c1.1-0.2,1.3-1,1.3-1.8c-0.1-2.8-0.2-5.7-0.3-8.5c-0.1-2.1,0-4.1-0.1-6.2c0-1.1-0.3-2.3-0.4-3.4
			c1.7-0.6,1.6-0.6,1.9,0.9c0.7,3.9,0.5,7.8,0.2,11.7c0,0.2-0.1,0.4,0,0.6c1.3,1.7,0.4,3.5,0.2,5.2
			C498.2,229.2,498.3,229.8,498.3,230.6z"/>
		<path class="st0" d="M356.9,272.8c1.8,0.7,3.2,0.3,4.6-0.2c0.5-0.2,1,0,1.5-0.1c1-0.1,1.9-0.2,2.9-0.2c0.5,0,1,0,1.5,0
			c0.7,0,1.4,0.2,2.1,0.1c2.9-0.5,5.8-0.6,8.7,0.1c1.8,0.4,3.5,0.6,5.3,0.3c0.5-0.1,1-0.2,1.4-0.3c1.5-0.5,1.9-1.6,2.1-3.1
			c0.3-2.2,0.1-4.5,0.3-6.7c0-0.4,0.1-0.7,0.6-1.1c0.2,0.4,0.5,0.8,0.5,1.3c0.1,2.5,0.1,4.9,0.1,7.4c0,0.3-0.1,0.7-0.3,0.9
			c-1.1,1.3-2,2.8-4.1,2.7c-1.3-0.1-2.7-0.2-4-0.2s-2.6-0.1-3.8-0.1c-2.6,0-5.3,0.3-7.9,0.1c-2.3-0.1-4.6,0.3-6.9,0.5
			c-1,0.1-2.1,0.1-3.1,0.1C357.6,274.3,357.1,274,356.9,272.8z"/>
		<path class="st0" d="M545.4,233.3c0.2,1.1,1.1,1.7,0.4,2.8c-0.4,0.6-0.4,1.5-0.6,2.6c0.6,1,0.4,2.2-0.5,3.4
			c-0.8,1.2-1.1,2.7-2.3,3.7c-1.6,1.3-3.5,1.3-5.3,1.2c-1.6-0.1-3.1-0.5-4.6-0.6c-1.8-0.2-2.1,0.1-2.4,1.9c0,0.2-0.1,0.4-0.2,0.5
			c0,0.1-0.1,0.1-0.3,0.4c-0.3-0.3-1-0.6-1-0.8c0.2-1.1,0.4-2.5,1.1-3.2c0.6-0.6,2.1-0.7,3.1-0.6c2.5,0.3,5,0.5,7.5,0
			c0.9-0.1,1.3-0.5,1.5-1.2c0.2-0.9,0.8-1.4,1.4-2c0.6-0.7,0.8-1.7,1-2.6c0.3-1.6,0.4-3.2,0.6-4.7
			C544.7,233.8,545,233.7,545.4,233.3z"/>
		<path class="st0" d="M549.7,227.2c0.9-0.5,1.6-1,2.4-1.4c0.1-0.1,0.4-0.1,0.6,0c1.2,0.3,4.2,0.2,5-0.2c0.3-0.2,0.6-0.5,0.8-0.8
			c0.6-1.4,1.2-2.8,1.7-4.2c0.4-1,0.4-2.1,0.2-3.2c-0.3-1.4-0.7-2.9-0.8-4.3c-0.2-1.6,0-3.3,0.9-5c0.6,0.5,1,0.8,1.3,1
			c-0.1,1.3-0.1,2.4-0.3,3.4c-0.4,1.8,0.7,3.3,0.7,5c0,1.5,0.2,3-1.1,4.2c-0.3,0.3-0.3,0.9-0.2,1.4c0.3,1.6,0.3,1.6-1,2.5
			c-1.9,1.3-3.1,1.6-5.4,1.6c-0.4,0-0.9,0.1-1.3,0.3C551.9,228.1,550.9,228,549.7,227.2z"/>
		<path class="st0" d="M268.5,216c0.1,0.3,0.4,0.6,0.4,0.8c-0.2,3.3,0.8,6.4,0.9,9.6c0,1.5,0.1,3.1,0.1,4.6c0,0.9-0.5,1.4-1.3,2
			c-1.9,1.4-4.2,1.7-6.4,2.1c-2,0.4-4,0-6.3-0.6c1.2-1,2.4-1,3.5-1c2.3,0,4.6,0,6.8-0.9c2-0.8,2.4-1.4,2.2-3.5
			c-0.2-2.6-0.3-5.2-0.5-7.8c-0.1-1.3-0.3-2.7-0.4-4c0-0.5,0.2-1,0.4-1.5C268.2,216,268.3,216,268.5,216z"/>
		<path class="st0" d="M631.5,229.4c1.1-0.8,2-0.7,3-0.4c0.3,0.1,0.7,0.3,1,0.2c1.7-0.2,3.4-0.6,5.2-0.8c0.7-0.1,1.5,0.1,2.3,0.2
			c1.6,0.3,2.4-0.2,2.6-1.8c0.3-1.8,0.4-3.7,0.7-5.6c1.5-0.4,1.6-0.4,1.7,1.1c0.2,1.8,0.2,3.6,0.3,5.5c0,0.4-1.3,2.1-1.8,2.2
			c-1.3,0.1-2.7,0.4-4,0.2c-2.7-0.5-5.2-0.1-7.8,0.3C633.6,230.6,632.7,230,631.5,229.4z"/>
		<path class="st0" d="M448.9,231.7c1-1.3,1.5-2.5,1.5-4c-0.1-1.4,0-2.8,0-4.2c1.5-0.2,2.1,0.1,2,1.5c-0.1,2.1-0.3,4.1-0.6,6.2
			c-0.1,0.9-1,1.7-1.9,2c-2.5,0.6-5,0.5-7.5,0.6c-1.5,0-2.9-0.7-4.2-1.4c0-0.1,0.1-0.3,0.1-0.4c1.2,0.1,2.3,0.2,3.5,0.2
			c1.2,0.1,2.3,0.1,3.5,0.1C446.4,232.1,447.7,231.9,448.9,231.7z"/>
		<path class="st0" d="M528.8,222c0.3-0.5,0.5-1,0.8-1.6c0.5-1.1,1.9-1.7,2.8-1.1c1.5,1.1,3.2,1.1,4.9,1.2c1,0.1,2,0.3,2.9,1.2
			c-0.5,1.2-1.5,1.2-2.4,0.9c-2.4-0.6-4.8-1.2-7.2-1.8C529.9,221.3,529.3,221.7,528.8,222C528.7,222,528.8,222,528.8,222z"/>
		<path class="st0" d="M380.5,243.5c0,1.4,0,2.5,0,3.6C379.4,244.6,379.4,244.4,380.5,243.5z"/>
		<path class="st0" d="M379.9,251.1c-0.5-0.9-0.7-1.6,0.2-2.8C380.2,249.5,381.2,250.2,379.9,251.1z"/>
		<path class="st0" d="M476.8,225.2c-0.2-0.1-0.3-0.2-0.5-0.3c0.2-0.1,0.3-0.3,0.5-0.4c0,0,0.3,0.2,0.3,0.3
			C477.1,224.9,477,225,476.8,225.2z"/>
		<path class="st0" d="M476.1,221.5c0,0.5,0,0.8,0,1.3C475.4,222.2,475.3,221.9,476.1,221.5z"/>
		<path class="st0" d="M295.3,244.8c-0.7-0.5-1.4-0.6-1.5-1c-0.6-1.8-1.2-3.6-0.7-5.6c0.3-1,0.1-2,0.3-3.1c0.1-0.8,0.3-1.5,0.5-2.2
			c0.1-0.2,0.3-0.5,0.3-0.7c0.2-2.2,1.8-3.6,3-5.3c1.2-1.6,3.2-2.1,4.9-2.9c0.8-0.4,1.5-0.7,2.2-1.1c3.2-1.7,6.6-2.4,10.3-1.6
			c0.2,0,0.3,0.2,0.7,0.4c-0.4,0.3-0.6,0.6-0.9,0.6c-0.5,0.1-1,0-1.6,0.1c-2.3,0.1-4.6,0.3-6.7,1.5c-1.2,0.7-2.5,1.3-3.8,1.8
			c-2.1,0.9-3.9,2.3-4.9,4.2c-1.1,1.9-2,4.1-2,6.4c0,0.5-0.1,1-0.2,1.5c-0.4,1.8-0.5,3.6,0,5.3C295.3,243.6,295.3,244,295.3,244.8z"
			/>
	</g>
</g>
</svg>
