<?xml version="1.0" encoding="utf-8"?>
<!-- Generator: Adobe Illustrator 19.1.0, SVG Export Plug-In . SVG Version: 6.00 Build 0)  -->
<svg version="1.1" xmlns="http://www.w3.org/2000/svg" xmlns:xlink="http://www.w3.org/1999/xlink" x="0px" y="0px"
	 viewBox="0 0 600 100" style="enable-background:new 0 0 600 100;" xml:space="preserve">
<style type="text/css">
	.st0{display:none;}
	.st1{display:inline;}
	.st2{fill:#FFFFFF;}
</style>
<g id="bg" class="st0">
	<rect x="-822.3" y="-119.2" class="st1" width="1563.2" height="1698.2"/>
</g>
<g id="logos">
	<g>
		<path class="st2" d="M320.7,33c0,0.2,0.1,0.4,0,0.6c-0.4,1.9,0.1,3.8-0.1,5.7c-0.2,1.9-0.2,3.8-0.3,5.6c-0.1,2-0.2,4-0.3,6
			c0,1.3,0.3,2.6,0.3,3.9c0,1.9,0.6,3.9,0.1,6c-0.8,0.1-1.6,0.2-2.4,0.2c-0.5,0-1,0-1.5,0.1c-1.5,0.2-1.6,0.2-3.2-0.6
			c0-0.5,0-1,0-1.4c-0.5-0.3-0.7,0-0.9,0.3c-1.1,2-3,2.3-4.9,2.4c-2.6,0.2-4.8-1-6.9-2.6c-1.3-1-2.1-2.4-2.9-3.8
			c-0.8-1.5-1.2-3-1.4-4.6c-0.2-1.7,0-3.4,0.9-4.9c0.2-0.4,0.3-0.8,0.5-1.2c0.2-0.6,0.5-1.1,1-1.6c0.6-0.5,1.1-1.2,1.6-1.8
			c0.8-0.9,1-1,2.3-0.9c0.6-0.9,1.5-1.1,2.6-1.2c1.4-0.1,2.7,0.2,4.1,0.1c1.4,0,2.1,1.2,3.1,1.9c0.3,0.3,0.6,0.6,1,1
			c0.2-0.5,0.3-0.7,0.3-1c0.1-1.1,0.1-2.1,0.1-3.2c0-0.6,0.1-1.2,0.1-1.8c0-0.3,0.1-0.6,0-0.9c-0.3-1.5,0-1.7,1.5-1.5
			c0-0.1,0-0.2,0-0.2c-0.5-0.2-1.1-0.4-0.9-1c0.1-0.3,0.8-0.5,1.2-0.5C317.4,32.4,319,32.3,320.7,33z M307.3,55.8c1.8-0.2,3,0,4-1.1
			c1.2-1.4,2.4-2.7,1.8-4.7c-0.3-1-0.6-1.9-1-2.9c-0.3-0.9-1.1-1.5-2-1.9c-0.9-0.4-1.9-0.4-2.8,0.2c-0.3,0.3-0.7,0.4-1.1,0.6
			c-0.9,0.4-1.5,1.1-2,2.1c-0.9,2.1-0.5,3.9,0.4,5.7C305.3,55.1,306.2,56.1,307.3,55.8z M315.6,60.2c0.7-0.3,1.3-0.5,1.9-0.8
			C316.5,58.8,316.5,58.8,315.6,60.2z"/>
		<path class="st2" d="M388.7,59.3c-0.4,0.1-0.6,0.2-0.8,0.3c-0.9,0.1-1.8,0.2-2.7,0.3c-1.6,0.1-3.1-0.2-4.2-1.5
			c-1-1.2-1.8-2.5-2.7-3.7c-0.5-0.7-0.9-1.3-1.5-1.9c-0.7-0.7-1.3-0.6-1.8,0.3c-0.1,0.1-0.1,0.3-0.2,0.3c-1.2,0.4-0.8,1.3-0.7,2.1
			c0.2,1.1,0.3,2.2,0.3,3.3c0.1,1.7-1.3,3.2-3,2.6c-0.9-0.3-1.9-0.8-3-0.5c-0.4,0.1-0.8-0.3-0.9-0.7c0-0.2-0.1-0.3-0.1-0.5
			c-0.1-1.5-0.1-3-0.1-4.5c-0.1-2.5-0.1-5-0.2-7.5c0-0.9,0-1.8,0-2.7c0-1,0.2-2,0.1-3c-0.1-1.3,0-2.6,0-3.9c0-1.5-0.1-3-0.1-4.5
			c0-0.3,0-0.8,0.1-0.8c1-0.2,0.9-1.6,1.6-1.8c1.4-0.3,2.9-0.5,4.2,0.4c0.5,0.3,0.9,0.7,0.8,1.4c-0.4,0.3-1.3,0.3-1.3,1.3
			c0.5-0.2,0.9-0.3,1.5-0.5c0,1.3-0.2,2.4,0.1,3.5c0.3,1.2-0.1,2.4-0.1,3.6c0,1.2,0,2.4,0,3.6c0.9-0.7,1.8-1.3,2.7-2
			c0.1-0.1,0.1-0.1,0.2-0.2c1.5-0.7,2.5-2,3.7-3.1c0.4-0.4,1.1-0.7,1.7-0.8c2.1-0.2,4.1-0.2,6.6-0.3c-0.4,0.6-0.6,0.9-0.9,1.2
			c-0.7,0.7-1.5,1.3-2.2,2c-0.7,0.6-1.3,1.3-2,2c-0.9,1-1.8,2-2.7,2.9c-0.7,0.7-0.7,0.9-0.2,1.8c0.7,1.1,1.5,2.2,2.2,3.3
			c1,1.5,2,3.1,3,4.6C387.1,56.8,387.8,58,388.7,59.3z M384.3,39.3c0,0.1-0.1,0.2-0.1,0.3c0.3,0.2,0.6,0.6,1,0.6
			c0.2,0,0.5-0.4,0.7-0.6c0-0.1-0.1-0.2-0.1-0.2C385.2,39.3,384.7,39.3,384.3,39.3z M370.8,36.2c1-0.2,0.8-0.6,0.3-1.1
			C371.1,35.5,371,35.8,370.8,36.2z M380.1,41.8c-0.7,0.1-0.7,0.1-0.8,0.4c0,0,0.1,0.1,0.2,0.4C379.7,42.3,379.9,42.1,380.1,41.8z
			 M370.1,33.5c0.1-0.1,0.1-0.2,0.1-0.3c0,0-0.2-0.1-0.2-0.1c-0.1,0.1-0.1,0.2-0.2,0.3C369.9,33.4,370,33.4,370.1,33.5z"/>
		<path class="st2" d="M251.8,42c0.4-0.3,0.8-0.5,1-0.8c1.2-1.2,2.7-1.7,4.3-1.9c1-0.1,2,0.4,3,0.6c0.6,0.2,1.1,0.4,1.7,0.7
			c0.2,0.1,0.5,0.3,0.6,0.4c1.3,1.7,2.1,3.5,2.3,5.6c0.1,1.6,0.6,3.2,0.6,4.8c0,1.2,0.5,2.3,0.3,3.6c-0.2,1.4,0.2,3,0.4,4.4
			c0.1,0.5,0.1,1,0.2,1.6c-1.6,0.4-3.1,0.5-4.7,0.3c-1-0.1-2-0.1-2.3-1.4c0-0.1-0.4-0.2-0.6-0.2c-0.2-0.1-0.4-0.2-0.6-0.3
			c0.3-0.7,0.3-1.2,0.1-1.9c-0.2-1.2,0-2.4,0-3.6c0-1.3-0.1-2.6-0.2-3.9c0-0.5,0-1.1,0.1-1.6c0.1-0.7,0.1-1.4-0.4-1.8
			c-0.8-0.7-1.6-1.2-2.5-1.8c-0.2-0.1-0.5,0-0.7,0.1c-0.5,0.2-1.1,0.5-1.6,0.8c-0.3,0.2-0.5,0.4-0.6,0.7c-0.2,0.9-0.3,1.8-0.4,2.8
			c0,0.2,0.2,0.5,0.1,0.8c-0.6,1.4,0.1,2.8,0,4.3c-0.1,1.6,0.2,3.2,0.2,4.8c0,0.7-0.2,1.3-0.4,2.1c-0.5-0.1-1-0.2-1.6-0.2
			c-1.1,0-2.2,0-3.3,0c-1.2,0-1.3-0.1-1.4-1.3c0-0.4-0.2-0.8-0.2-1.3c0-0.5,0-1.1,0-1.6c0-0.3,0.1-0.6,0.1-0.9
			c-0.5-1.7-0.1-3.4-0.1-5.1c0-1.2,0.1-2.3-0.2-3.4c0-0.2-0.1-0.4-0.1-0.5c0.5-1.7-0.4-3.3-0.1-4.9c0-0.3,0-0.7-0.1-1
			c-0.1-1.1,0.6-1.7,1.7-1.5c0.8,0.2,1.7,0.3,2.5,0.2c1.5-0.1,1.7,0,2.4,1.4C251.5,41.4,251.6,41.6,251.8,42z M264.9,60.1
			c-0.3-0.2-0.4-0.5-0.5-0.5c-0.2,0-0.5,0.2-0.7,0.3c0.1,0.2,0.2,0.5,0.4,0.5C264.3,60.5,264.5,60.3,264.9,60.1z M259.6,41
			c-0.3,0.5-0.7,0.7-0.2,1c0.1,0.1,0.4,0,0.6,0C259.9,41.7,259.8,41.5,259.6,41z M263.2,55.9c0.1,0,0.2,0,0.2-0.1
			c-0.1-0.2-0.1-0.4-0.2-0.6c-0.1,0-0.2,0.1-0.2,0.1C263.1,55.5,263.1,55.7,263.2,55.9z"/>
		<path class="st2" d="M336.7,55.2c0.2,0.3,0.4,0.5,0.6,0.7c0.1-0.1,0.2-0.2,0.2-0.3c0.1-1.2,0.3-1.5,1.5-1.4
			c0.8,0.1,1.5,0.3,2.1,0.9c0.8,0.8,1.9,1.3,2.2,2.5c-0.2,0.2-0.3,0.5-0.5,0.6c-1.3,0.8-2.7,1.5-4.1,2.2c-0.1,0.1-0.3,0.1-0.5,0.1
			c-1,0.1-2,0.3-3,0.3c-3.7,0.1-7.1-0.9-9.9-3.4c-0.2-0.2-0.3-0.4-0.5-0.6c-0.9-1.8-1.8-3.6-2.3-5.5c-0.1-0.4-0.1-0.9-0.1-1.3
			c0.1-1.5,0.5-2.9,1.3-4.2c0.1-0.1,0.2-0.3,0.2-0.5c0.4-1.6,1.6-2.6,2.8-3.6c2.1-1.9,4.7-2.7,7.5-2.6c0.5,0,1,0,1.5,0
			c1.9-0.2,3.5,0.8,5,1.6c0.4,0.2,0.8,0.6,0.9,0.9c0.2,0.9,1.3,1.5,1.1,2.6c0,0.1,0.1,0.4,0.2,0.5c0.7,0.6,0.4,1.6,0.8,2.3
			c0.2,0.4,0.2,0.8,0.3,1.2c0,0.1,0.2,0.3,0.1,0.4c-0.5,1-0.2,2,0.1,3c0,0.1-0.1,0.5-0.2,0.5c-0.7,0.2-1.2,0.8-2,0.5
			c-0.6-0.2-1.3-0.1-2-0.1c-0.8-0.1-1.5-0.2-2.3-0.2c-1.4,0.1-2.7,0.2-4.1,0.3c-0.7,0.1-1.4,0.1-2,0.2c-0.3,0-0.8,0.1-1,0.3
			c-0.4,0.4-0.1,0.8,0.2,1.1c1.1,1.6,2.1,2.1,4,1.8C335.5,56,336.1,55.5,336.7,55.2z M333.8,44.6c-3.3,2.7-3.3,2.7-3.3,4.4
			c2.2-0.5,4.5,0.3,6.8-0.4c-0.1-1.8-1.5-2.6-2.3-3.6c-0.1-0.6,0-1.1-0.2-1.3c-0.3-0.2-0.8-0.3-1.2-0.3c-0.6,0.1-1.2,0.3-1.8,0.4
			c0.1,1,0.1,1,0.8,0.9C333.1,44.7,333.5,44.7,333.8,44.6z M341.2,43.4c0.1-0.1,0.2-0.2,0.3-0.3c-0.4-0.5-0.8-0.9-1.2-1.4
			c-0.4-0.5-0.7-1-1.7-0.7C339.5,42,340.4,42.7,341.2,43.4z M330.2,57.6c-0.4-0.2-0.6-0.3-0.9-0.4c-0.1,0-0.3,0.3-0.3,0.5
			c0.1,0.2,0.3,0.4,0.5,0.4C329.7,58.1,329.8,57.8,330.2,57.6z M329.6,51.6c-0.3-0.2-0.7-0.3-0.9,0.1c-0.1,0.1-0.1,0.4,0,0.4
			c0.4,0.3,0.7,0,0.9-0.3C329.6,51.8,329.6,51.7,329.6,51.6z"/>
		<path class="st2" d="M277.3,50.1c0.1-0.4,0.3-0.8,0.4-1.2c0.3-0.9,0.6-1.8,0.9-2.7c0.3-0.7,0.3-0.7,1.4-0.8
			c-0.3-0.6-0.2-1.2,0.1-1.8c0.4-0.7,0.6-1.6,0.9-2.3c0.3-1,0.5-1,1.4-1.1c1.7-0.1,3.5-0.3,5.2-0.5c0.5-0.1,1-0.2,1.4,0.4
			c0,0.1,0,0.2-0.1,0.3c-1,1.6-1.7,3.4-2.2,5.2c-0.3,1-0.8,1.9-1.2,2.8c-0.3,0.7-0.6,1.5-0.9,2.2c-0.4,1-0.7,1.9-1.1,2.9
			c-0.4,1.2-0.8,2.4-1.3,3.6c-0.6,1.5-1.2,3-1.9,4.5c-0.1,0.2-0.3,0.4-0.2,0.5c0.4,0.9-0.3,1.4-0.7,2c-1.4,2-3.6,2.5-5.8,2.7
			c-0.1,0-0.2,0-0.3,0c-1.8,0.6-3.4,0-5.2-0.4c-0.5-1.1-0.4-2.1,0.1-3.1c0.2-0.4,0.4-0.8,0.5-1.2c0.1-0.7,0.5-0.8,1.1-0.8
			c0.6,0.1,1.2,0.2,1.8,0.3c1.4,0.3,2.6-0.9,2.3-2.3c-0.4-1.9-1-3.7-2.2-5.2c-0.5-0.7-0.6-1.3-0.4-2.2c-0.8-1.2-1.5-2.2-2.2-3.2
			c-0.4-0.6-0.2-0.9,0.6-1.7c-0.2-0.2-0.5-0.5-0.7-0.4c-0.7,0.1-0.9-0.3-1.1-0.8c-0.4-1.1-0.8-2.2-1.3-3.3c-0.2-0.4-0.4-0.8-0.7-1.2
			c-0.4-0.6-0.3-1.1,0.4-1.1c0.5,0,0.9,0.1,1.4,0.1c1.3,0,2.5,0,3.8,0.1c0.9,0,1.4,0.4,1.8,1.3c0.9,1.8,1.8,3.6,2.5,5.4
			c0.2,0.5,0.3,1.1,0.5,1.6c0.1,0.4,0.3,0.8,0.5,1.2C277.1,50.1,277.2,50.1,277.3,50.1z M272.2,45.4c0.1,0,0.2,0,0.3-0.1
			c0-0.2-0.1-0.5-0.1-0.7c-0.1,0-0.2,0-0.3,0.1C272.2,45,272.2,45.2,272.2,45.4z M283.2,42.4c0.1-0.4,0.2-0.7,0.2-0.9
			c0,0-0.2-0.1-0.4-0.2c-0.1,0.2-0.1,0.4-0.1,0.6C282.9,42,283,42.1,283.2,42.4z M285.8,41.2c-0.1,0.3-0.2,0.4-0.2,0.5
			c0,0.1,0.2,0.2,0.2,0.2c0.1-0.1,0.3-0.2,0.3-0.3C286.1,41.6,286,41.5,285.8,41.2z"/>
		<path class="st2" d="M363.5,42.1c-0.5,1-0.9,2-1.4,2.9c-0.2,0.3-0.6,0.6-1,0.7c-1,0.1-1.8-0.6-2.6-1.1c-0.1,0,0-0.4,0-0.7
			c-0.7,0.3-1.3,0.4-2,0.1c-0.9-0.4-2.6,0.6-2.8,1.5c-0.1,0.2,0,0.5,0.2,0.7c0.3,0.3,0.7,0.7,1.1,0.9c1.2,0.5,2.4,1,3.6,1.4
			c1.9,0.6,3.7,1.4,4.9,3.1c0.4,0.6,0.5,1.5,0.7,2.3c0,0.2-0.1,0.3,0,0.5c0.5,2.4-1,3.8-2.8,5c-1.1,0.7-2.2,1.3-3.5,1.5
			c-0.6,0.1-1.3,0.1-1.9,0.2c-1.5,0.2-3,0-4.5-0.2c-1.5-0.2-2.8-0.7-4.2-1.1c-1-0.3-1-0.6-0.6-1.5c0.4-1,0.8-2,1.1-3
			c0.3-1,0.5-1.1,1.5-0.7c1.3,0.5,2.6,1.1,3.9,1.6c0.4,0.2,0.9,0.3,1.3,0.3c1-0.2,1.4-0.5,1.5-1.3c0.1-1-0.3-1.9-1.2-2.2
			c-1-0.4-2.1-0.6-3-1.2c-1.6-0.9-3.3-1.6-4.4-3.2c-0.5-0.8-0.7-1.6-0.4-2.5c0.3-0.7,0.4-1.5,0.7-2.3c0.1-0.4,0.3-0.8,0.6-1.1
			c1.7-2.2,3.9-3.4,6.8-3.4c2.4,0.1,4.5,0.9,6.7,1.5c0.3,0.1,0.5,0.4,0.7,0.6C362.9,41.3,363.2,41.6,363.5,42.1z M357.7,59.7
			c-0.7-0.8-1.1-0.8-1.6,0.1C356.7,60.1,357.2,60.2,357.7,59.7z M357.7,57.9c-0.2-0.1-0.3-0.2-0.4-0.2c-0.1,0-0.2,0.2-0.2,0.3
			c0,0.1,0.1,0.2,0.2,0.3C357.4,58.2,357.5,58.1,357.7,57.9z"/>
		<path class="st2" d="M230.8,61.1c-0.8,0.3-1.4,0.5-2,0.7c-0.8,0.2-1.6,0.4-2.3,0.2c-0.9-0.2-2-0.1-2.8-0.8
			c-0.2-0.1-0.4-0.3-0.5-0.3c-1.2,0.3-1.9-0.5-2.5-1.2c-0.7-0.8-1.3-1.9-1.2-3c0.2-2.2-0.5-4.2-0.6-6.4c-0.1-1.1-0.2-2.3-0.2-3.5
			c0-0.7-0.2-1.1-0.9-1.3c-1.2-0.4-1.3-0.5-1.2-1.7c0-1,0.1-2-0.4-3c-0.3-0.7,0.1-1.2,0.9-1.4c0.5-0.1,1.1-0.1,1.4-0.5
			c0.2-0.3,0.1-1,0.1-1.5c0-0.9,0-1.8,0-2.7c0.7-0.2,1.4-0.6,2.2-0.7c0.6-0.1,1.2,0.1,1.8,0.2c2.9,0.4,2.4,0.3,2.6,3
			c0.1,0.9,0.1,1.8,0.1,2.8c0.9,0.2,1.5,0.4,2.3,0.1c1.7-0.7,2.5,0.5,2.5,1.8c0,0.7-0.1,1.4,0,2.1c0.2,1-0.5,1.7-1.6,1.5
			c-0.6-0.1-1.2-0.1-1.8-0.2c-0.8,0-1,0.2-1,1c0.2,1.9,0.3,3.8,0.7,5.6c0.2,1.3,0.8,2.5,1.3,3.8c0.1,0.2,0.4,0.4,0.6,0.3
			c0.5,0,1-0.1,1.5-0.2c0.7-0.2,1.1,0,1.1,0.6C231,57.9,231.1,59.5,230.8,61.1z"/>
		<path class="st2" d="M241,60.8c-1.7,0.2-3.3,0.4-4.9,0.5c-1.1,0.1-1.2-0.1-1.3-1.2c-0.1-2-0.4-4.1-0.4-6.1
			c-0.1-3.2-0.2-6.4-0.3-9.5c0-0.9,0-1.7,0-2.6c0-0.6,0.1-1.3,0.6-1.8c1.4,0.9,2.9,0.5,4.3,0.3c1-0.1,1.2-0.1,1.2,1
			c0,1.4-0.2,2.7-0.1,4.1c0.2,1.9,0.3,3.8,0.2,5.7c-0.1,2.3,0.4,4.6,0.2,6.9C240.5,58.9,240.8,59.7,241,60.8z"/>
		<path class="st2" d="M240.2,37.5c-0.7,0.1-1.4,0.3-2.1,0.4c-1,0.1-2.1,0-3.1,0.1c-1.2,0-1.6-0.4-1.4-1.6c0-0.2,0.1-0.5,0-0.6
			c-0.6-0.8-0.1-1.7-0.3-2.5c-0.1-0.7,0.6-1.4,1.3-1.3c1.2,0,2.4,0.1,3.6,0.1c0.5,0,0.7,0.1,1,0.6C240.1,34,240,35.6,240.2,37.5z"/>
	</g>
	<g>
		<path class="st2" d="M402.2,34.4c-0.4-0.3-0.8-0.5-1.3-0.7c-0.6-0.2-1.2-0.6-1.7-0.9c-0.2-0.2-0.5-0.3-0.8-0.4
			c-0.1,0-0.3-0.1-0.3-0.1c0,0,0-0.1,0-0.2c0,0,0.1-0.1,0.2-0.1c0.1,0,0.2,0,0.3,0.1c0.5,0.2,1.1,0.4,1.6,0.7
			c0.2,0.2,0.5,0.3,0.8,0.4c0.4,0.2,0.9,0.4,1.3,0.6C402.5,33.9,402.5,34.1,402.2,34.4z"/>
		<path class="st2" d="M558,72.5c-1.9-0.6-2.9-1.6-4.1-2.7c0.2,0,0.3-0.1,0.5-0.1c0.3,0.4,0.5,0.8,1.1,1c0.2,0.1,0.3,0.1,0.5,0.2
			c0.1,0,0.2,0.1,0.2,0.2c0.1,0.4,0.5,0.5,0.9,0.7c0.3,0.2,0.6,0.3,0.8,0.5C557.9,72.3,557.9,72.4,558,72.5z"/>
		<path class="st2" d="M536.7,70.5c0.2-0.3,0.4-0.1,0.5,0c0.4,0.3,0.8,0.6,1.1,1c0.3,0.4,0.8,0.6,1.1,0.9c0.1,0.2,0.3,0.3,0.5,0.4
			c-0.4,0.1-0.7,0.1-0.9-0.1c-0.4-0.3-0.8-0.6-1.1-1C537.5,71.3,537.1,70.9,536.7,70.5z"/>
		<path class="st2" d="M397.2,46.9c0.2-0.1,0.3-0.2,0.5-0.3c0.9-0.3,1.9-0.4,2.8-0.5c0.1,0,0.3,0,0.4,0c0.1,0,0.2,0.1,0.1,0.2
			c0,0.1-0.2,0.2-0.2,0.2c-0.4-0.1-0.8,0.1-1.2,0.2C398.9,46.8,398.1,46.9,397.2,46.9C397.3,47,397.3,46.9,397.2,46.9z"/>
		<path class="st2" d="M533.1,73.9c-0.3,0.3-0.4,0.3-0.6,0.1c-0.3-0.3-0.6-0.6-0.8-1c-0.2-0.3-0.4-0.7-0.7-1c-0.2-0.3-0.2-0.6,0-0.9
			c0,0.3,0.6,0.5,0.5,0.8c0,0.2,0.3,0.5,0.5,0.8c0.2,0.3,0.5,0.6,0.7,0.9C532.8,73.7,532.9,73.8,533.1,73.9z"/>
		<path class="st2" d="M540.2,22.1c0.3,0.8-0.6,3-1.4,3.5c-0.2-0.3,0.1-0.5,0.2-0.7c0.1-0.3,0.3-0.7,0.4-1c0,0,0-0.1,0-0.1
			c0.5-0.5,0.5-1,0.5-1.6c0,0,0-0.1,0.1-0.1C540.1,22.2,540.1,22.1,540.2,22.1z"/>
		<path class="st2" d="M414.1,28.7c-0.2-0.2-0.4-0.5-0.5-0.7c0,0-0.1-0.1-0.1-0.1c-0.7-0.2-0.7-0.8-1.1-1.1
			c-0.2-0.2-0.2-0.2,0.2-0.4c0.2,0.3,0.5,0.6,0.7,0.9c0.3,0.3,0.6,0.6,0.9,0.8C414.4,28.3,414.5,28.5,414.1,28.7z"/>
		<path class="st2" d="M421.7,27.8c-0.2-0.1-0.3-0.1-0.3-0.2c-0.3-0.5-0.6-1-0.8-1.5c-0.1-0.2-0.2-0.4-0.2-0.6
			c0-0.1,0.1-0.2,0.2-0.3C421,26,421.7,26.8,421.7,27.8z"/>
		<path class="st2" d="M566.1,72.1c-0.6-0.1-1.2-0.3-1.6-0.7c-0.3-0.3-0.7-0.6-1.1-0.9c-0.3-0.3-0.7-0.6-1-0.9c0.4,0,1,0.2,1.2,0.6
			c0.4,0.7,1.1,1.2,1.9,1.5C565.7,71.8,566,71.9,566.1,72.1z"/>
		<path class="st2" d="M565.3,26.5c0.2-0.3,0.4-0.7,0.5-1c0.3-0.5,0.5-0.9,0.8-1.4c0.1-0.1,0.1-0.3,0.3-0.2c0.2,0,0.2,0.2,0.2,0.3
			c-0.3,0.6-0.5,1.2-1,1.7c-0.2,0.2-0.5,0.4-0.7,0.7C565.4,26.5,565.4,26.5,565.3,26.5z"/>
		<path class="st2" d="M523.7,73.3c-0.1-0.3-0.3-0.6-0.4-0.9c-0.2-0.4-0.5-0.9-1-1.2c-0.2-0.1-0.1-0.3,0.3-0.5
			c0.3,0.3,0.6,0.6,0.7,1c0.1,0.1,0.1,0.3,0.1,0.4c0,0,0,0.1,0,0.1c0.6,0.3,0.2,0.7,0.4,1.1C523.8,73.3,523.8,73.3,523.7,73.3z"/>
		<path class="st2" d="M581,26.4c-0.2,1-1.6,2.5-2.5,2.4c0,0,0-0.1,0.1-0.1c0.8-0.5,1.2-1.1,1.6-1.8C580.4,26.6,580.6,26.4,581,26.4
			z"/>
		<path class="st2" d="M397.7,40.1c0.7,0,1.5,0.1,2.2,0.1c0.2,0,0.4,0.1,0.4,0.3c0,0.2-0.3,0.4-0.6,0.3
			C399,40.7,398.2,40.7,397.7,40.1z"/>
		<path class="st2" d="M544.9,69.9c0.4,0.3,0.7,0.5,1.1,0.8c0.1,0.1,0.2,0.2,0.3,0.4c0.2,0.3,0.4,0.5,0.9,0.7c0.4,0.1,0.4,0.1,0,0.4
			c-0.7-0.4-1.4-0.8-1.8-1.4c-0.1-0.2-0.3-0.3-0.5-0.5C544.7,70.1,544.6,70,544.9,69.9z"/>
		<path class="st2" d="M403.1,53.3c-0.1,0.4-0.3,0.5-0.6,0.5c-0.4,0.1-0.8,0.2-1.2,0.3c-0.5,0.1-1,0.2-1.6,0.4
			c0.4-0.5,1-0.6,1.5-0.7C401.8,53.6,402.4,53.5,403.1,53.3z"/>
		<path class="st2" d="M499.9,74.3c-0.5-0.4-0.6-0.8-0.7-1.2c0-0.3-0.3-0.7,0.2-1.1C499.8,72.3,500,73.4,499.9,74.3z"/>
		<path class="st2" d="M517.1,73.5c-0.2-0.2-0.4-0.5-0.5-0.7c-0.2-0.4-0.5-0.8-0.7-1.2c-0.1-0.2-0.1-0.4,0.4-0.4
			c0.1,0.2,0.2,0.3,0.2,0.5c0.1,0.1,0.1,0.3,0.2,0.4c0.3,0.4,0.3,0.8,0.7,1.1C517.4,73.2,517.4,73.3,517.1,73.5z"/>
		<path class="st2" d="M583.9,30.8c0.4-0.4,0.8-0.7,1.3-1.1c0.3-0.3,0.7-0.5,1-0.7c0.1-0.1,0.2,0,0.5-0.1c-0.8,0.7-1.5,1.4-2.4,1.9
			C584.2,30.9,584.1,30.9,583.9,30.8C583.9,30.9,583.9,30.9,583.9,30.8z"/>
		<path class="st2" d="M570.9,68.9c0.2,0.2,0.4,0.5,0.6,0.7c0.6,0.6,1,1.3,1.8,1.8c0.2,0.2,0.4,0.4,0.6,0.7
			C572.8,71.7,571.1,69.6,570.9,68.9z"/>
		<path class="st2" d="M506.9,72c0,0,0.1-0.1,0.2-0.2c0.1,0,0.2,0.1,0.3,0.1c0.1,0.1,0.1,0.2,0.1,0.3c0.2,0.4,0.4,0.8,0.7,1.2
			c0.1,0.1,0.1,0.2,0,0.3c-0.1,0.1-0.3,0-0.4,0C507.3,73.3,506.9,72.6,506.9,72z"/>
		<path class="st2" d="M425.1,72.2c-0.4,0.7-1.1,1.2-1.8,1.7c-0.2-0.2-0.1-0.4,0.1-0.5c0.4-0.4,0.8-0.8,1.2-1.2
			C424.7,72,424.9,72,425.1,72.2z"/>
		<path class="st2" d="M457,73.4c0,0.1,0.1,0.2,0,0.3c-0.2,0.2-0.1,0.4-0.2,0.7c-0.1,0.4-0.3,0.9-0.5,1.3c0,0-0.2,0.1-0.3,0.1
			c-0.1,0-0.2-0.1-0.2-0.2c0-0.2,0.1-0.5,0.2-0.7c0.2-0.3,0.5-0.7,0.5-1.1c0-0.1,0.1-0.2,0.2-0.3C456.8,73.4,456.9,73.4,457,73.4z"
			/>
		<path class="st2" d="M464.2,75.7c0.1-0.5,0.3-0.9,0.4-1.4c0-0.1,0-0.2,0-0.3c0.1-0.2,0.2-0.4,0.5-0.4c0.3,0.2,0.2,0.6,0,0.8
			C464.8,74.8,465,75.4,464.2,75.7z"/>
		<path class="st2" d="M558.2,23.2c-0.3,0.9-0.6,1.8-1.4,2.7c-0.1-0.4,0.2-0.8,0.4-1.1c0.2-0.4,0.4-0.9,0.6-1.3
			c0.1-0.1,0.2-0.2,0.2-0.3C558.1,23.2,558.2,23.2,558.2,23.2z"/>
		<path class="st2" d="M551.3,22.7c-0.2,0.9-0.7,1.9-1.4,2.8c0-0.5,0.1-1,0.5-1.3c0.1-0.1,0.2-0.3,0.3-0.5
			C550.7,23.4,550.9,23,551.3,22.7z"/>
		<path class="st2" d="M592.1,48.4C592.1,48.4,592.1,48.4,592.1,48.4c0.8,0.1,1.6,0.3,2.3,0.4c0.1,0,0.2,0.1,0.1,0.2
			c0,0.1-0.2,0.1-0.3,0.2c-0.2,0-0.4,0-0.5,0c-0.6-0.2-1.2-0.4-1.8-0.6C592,48.5,592.1,48.4,592.1,48.4z"/>
		<path class="st2" d="M591.8,43.3c0-0.1,0-0.1,0-0.1c0,0,0.1-0.1,0.1-0.1c1-0.2,1.7-0.7,2.6-1.1c0,0,0.1,0,0.1,0.1
			c0,0.1-0.1,0.2-0.1,0.3c-0.5,0.3-0.9,0.5-1.4,0.7C592.8,43.3,592.3,43.4,591.8,43.3z"/>
		<path class="st2" d="M574.2,25.3c-0.4,0.7-0.8,1.3-1.6,1.9c0-0.2,0-0.4,0.2-0.5c0.4-0.3,0.5-0.7,0.7-1.1
			C573.6,25.4,573.8,25.2,574.2,25.3z"/>
		<path class="st2" d="M590.9,37.4c0.8-0.8,1.6-1.7,2.4-2.5c0,0,0.1,0,0.1,0.1c-0.5,1-1.5,1.7-2.4,2.6
			C591.1,37.5,591,37.5,590.9,37.4z"/>
		<path class="st2" d="M513.9,24.2c0.2,0.7,0.1,2.1-0.3,2.5c-0.2-0.2-0.1-0.4-0.1-0.7c0-0.1,0.1-0.2,0.1-0.2c-0.3-0.4,0.1-0.8,0-1.2
			c-0.1-0.1,0.1-0.3,0.1-0.4C513.8,24.2,513.8,24.2,513.9,24.2z"/>
		<path class="st2" d="M522.4,24c0,0.1,0.1,0.2,0.1,0.3c0,0.3,0,0.7-0.1,1c0,0.3,0,0.7-0.3,1C521.6,25.7,521.8,24.7,522.4,24z"/>
		<path class="st2" d="M530.6,23.1c-0.1,0.9-0.1,1.8-0.5,2.7c-0.1-0.3-0.1-0.3,0.1-0.5c-0.5-0.3-0.3-0.6,0-0.9
			c0.2-0.2,0.2-0.3,0.1-0.5C530.1,23.6,530.4,23.3,530.6,23.1z"/>
		<path class="st2" d="M498.1,26.2c-0.2-0.5-0.2-1.9,0-2.2C498.5,24.4,498.5,25.7,498.1,26.2z"/>
		<path class="st2" d="M482.3,74.5c-0.1,0-0.2,0-0.2,0c0-0.3-0.5-0.6-0.4-0.9c0-0.1,0-0.2-0.1-0.4c0-0.2,0.1-0.4,0.5-0.4
			C482.5,73.4,482.3,73.9,482.3,74.5z"/>
		<path class="st2" d="M435.4,75.6c-0.2-0.5,0.2-0.9,0.7-1.2c-0.1-0.4-0.1-0.4,0.5-0.8c0.1,0.4-0.1,0.8-0.3,1.1
			c-0.2,0.3-0.5,0.7-0.7,1C435.5,75.7,435.4,75.7,435.4,75.6z"/>
		<path class="st2" d="M589.2,60.8c0.5,0.1,1,0.2,1.4,0.3c0.2,0.1,0.4,0.2,0.5,0.3c0.1,0.1,0.1,0.3-0.1,0.4
			C590.4,61.6,589.8,61.2,589.2,60.8C589.2,60.9,589.2,60.9,589.2,60.8z"/>
		<path class="st2" d="M590.8,30.6c-0.7,1.1-1.5,2.1-2.6,2.9c0.8-0.9,1.5-1.8,2.3-2.7C590.6,30.7,590.7,30.6,590.8,30.6z"/>
		<path class="st2" d="M505.9,23.5c-0.2,1-0.1,2-0.4,3c-0.1,0-0.1,0-0.2,0c0-0.1,0-0.2,0.1-0.3c0.1-0.2,0.2-0.5,0-0.7
			c-0.1-0.1-0.1-0.2,0-0.3c0.1-0.5,0.3-1.1,0.5-1.6C505.8,23.5,505.9,23.5,505.9,23.5z"/>
		<path class="st2" d="M474.7,74.8c-0.2,0-0.3-0.1-0.5-0.1c0.1-0.6,0.2-1.2,0.3-1.8c0.2,0.1,0.3,0.2,0.3,0.3
			C474.8,73.7,474.7,74.2,474.7,74.8z"/>
		<path class="st2" d="M478.3,24.3c0.3,0,0.4,0.2,0.4,0.4c0.2,0.6,0.2,1.1-0.1,1.8c-0.1-0.1-0.2-0.2-0.2-0.2c0.2-0.3-0.1-0.7,0.1-1
			c0.1-0.1-0.1-0.3-0.2-0.4C478.2,24.6,478.2,24.5,478.3,24.3z"/>
		<path class="st2" d="M415.2,69.6c-0.7,0.4-1.3,0.9-2,1.3c0-0.1,0-0.2,0.1-0.3c0.3-0.3,0.6-0.6,0.9-0.9
			C414.4,69.5,414.8,69.6,415.2,69.6z"/>
		<path class="st2" d="M407.9,67.1c0.7-0.5,1.3-0.8,1.9-0.9c0.1,0.2,0,0.3-0.2,0.4c-0.5,0.2-1,0.4-1.5,0.6
			C408.1,67.3,408,67.2,407.9,67.1z"/>
		<path class="st2" d="M490.3,26.3c0-0.2,0-0.4-0.1-0.6c-0.1-0.3-0.2-0.6-0.3-0.9c-0.1-0.2-0.1-0.4,0.2-0.5
			C490.7,24.8,490.8,25.9,490.3,26.3z"/>
		<path class="st2" d="M429.6,25.5c0.4,0.5,1,1,0.8,1.7c-0.4,0-0.4-0.2-0.5-0.4c-0.1-0.2-0.2-0.5-0.3-0.7
			C429.5,25.9,429.4,25.7,429.6,25.5z"/>
		<path class="st2" d="M459.1,27c-0.4-0.3-0.3-0.6-0.3-0.9c0.1-0.3-0.4-0.7,0.1-1C459.2,25.3,459.2,26.3,459.1,27z"/>
		<path class="st2" d="M489,72.5c0.1-0.1,0.2-0.1,0.4-0.2c0.4,0.5,0.3,1,0.3,1.5c-0.6-0.2-0.7-0.3-0.6-0.6
			C489.4,73,489.2,72.8,489,72.5z"/>
		<path class="st2" d="M579.2,68.3c0.6,0.4,1.4,0.6,1.7,1.1c-0.3,0.2-0.5,0-0.7-0.1c-0.2-0.1-0.5-0.3-0.7-0.5
			C579.3,68.8,579.2,68.6,579.2,68.3z"/>
		<path class="st2" d="M468.3,28.4c-0.6-0.6-0.7-1.6-0.3-2.3c0.2,0.2,0.1,0.4,0.1,0.5c0,0.2,0,0.4,0,0.6c0,0.2,0.1,0.4,0.1,0.6
			C468.3,27.9,468.3,28.1,468.3,28.4z"/>
		<path class="st2" d="M585.3,64.6c0.5,0.3,1.1,0.6,1.6,0.9c-0.1,0.2-0.2,0.2-0.5,0.2c-0.7-0.2-0.8-0.6-1.3-0.9
			C585.3,64.7,585.3,64.6,585.3,64.6z"/>
		<path class="st2" d="M593.5,56.1c-0.1,0-0.2,0-0.3,0c-0.7-0.2-1.2-0.5-1.7-0.8c0.8,0,1.5,0.4,2.1,0.7
			C593.5,56,593.5,56.1,593.5,56.1z"/>
		<path class="st2" d="M450.5,25.4c0.1-0.2,0.3-0.3,0.4-0.5c0.2,0.6,0.6,1,0.5,1.6c-0.3-0.1-0.5-0.3-0.4-0.4
			C451.1,25.8,450.8,25.7,450.5,25.4z"/>
		<path class="st2" d="M440.7,26.4c-0.3-0.4-0.5-0.9-0.3-1.4c0.4,0.3,0.4,0.8,0.6,1.1c0.1,0.1-0.1,0.2-0.1,0.3
			C440.8,26.4,440.8,26.4,440.7,26.4z"/>
		<path class="st2" d="M405.4,29.1c-0.1-0.1-0.2-0.2-0.4-0.2c-0.2,0-0.4,0-0.4-0.2c0-0.2-0.4-0.4-0.1-0.7c0.2,0.1,0.4,0.3,0.6,0.4
			C405.4,28.6,405.6,28.8,405.4,29.1L405.4,29.1z"/>
		<path class="st2" d="M403.7,59.9c-0.1-0.3,0.1-0.5,0.4-0.7c0.3-0.2,0.6-0.4,1.1-0.2c-0.1,0.3-0.4,0.3-0.7,0.5
			C404.2,59.6,404,59.7,403.7,59.9z"/>
		<path class="st2" d="M445.4,75.5c-0.2,0.3-0.4,0.6-0.6,0.8c0,0.1-0.2,0-0.4,0.1C444.4,75.9,444.7,75.6,445.4,75.5z"/>
		<path class="st2" d="M405.4,29.1c0.1-0.1,0.2-0.2,0.3-0.3c0.6,0.2,0.2,0.3,0.1,0.5C405.6,29.3,405.5,29.2,405.4,29.1
			C405.4,29.1,405.4,29.1,405.4,29.1z"/>
		<path class="st2" d="M459,27.7c0-0.2-0.1-0.4-0.1-0.6c0.1,0,0.1,0,0.2,0c0.2,0.2,0.1,0.4,0.1,0.6C459.1,27.7,459.1,27.7,459,27.7z
			"/>
		<path class="st2" d="M440.7,27.2c0.3,0.1,0.5,0.2,0.3,0.5C440.9,27.5,440.8,27.3,440.7,27.2z"/>
		<path class="st2" d="M444.4,77c-0.3-0.2-0.1-0.3,0.1-0.4C444.5,76.8,444.4,76.9,444.4,77z"/>
		<path class="st2" d="M451.3,27.1c0-0.1-0.1-0.2-0.1-0.3c0.1,0,0.1,0,0.2,0C451.4,26.9,451.6,27,451.3,27.1z"/>
		<path class="st2" d="M490.5,26.5c0,0-0.1,0.1-0.1,0.1c0,0-0.1,0-0.1-0.1c0,0,0-0.1,0.1-0.1C490.4,26.5,490.4,26.5,490.5,26.5z"/>
		<path class="st2" d="M547.9,72.3c-0.1,0-0.2,0.1-0.2,0.1c0,0-0.1,0-0.1-0.1c0-0.1,0-0.1,0.1-0.1C547.7,72.1,547.8,72.1,547.9,72.3
			C547.9,72.2,547.9,72.2,547.9,72.3z"/>
	</g>
	<g>
		<path class="st2" d="M463.1,42.6c-0.6-0.1-1.2-0.3-1.8-0.4c-0.5-0.1-0.7-0.4-0.8-0.8c-0.3-1.2-0.3-2.4-0.3-3.6c0-0.3,0-0.6,0-0.8
			c0-0.4,0.1-0.6,0.5-0.7c0.3-0.1,0.5-0.1,0.8-0.2c1.6-0.3,3.1-0.2,4.7-0.2c0.5,0,1-0.1,1.6-0.1c0.6,0,1.1,0,1.5,0.6
			c0.3,0.4,0.8,0.7,1.2,1.1c0.3,0.3,0.5,0.6,0.7,0.9c0.8,1,1.6,2,2.4,3.1c1.1,1.4,2.2,2.8,3.3,4.3c0.3,0.4,0.7,0.8,1.3,1.2
			c0-0.4,0.1-0.8,0.1-1.1c0.1-0.3,0.1-0.6,0-1c-0.1-0.4,0-0.8-0.1-1.2c0-0.5-0.1-1.1-0.2-1.6c0-0.3-0.3-0.4-0.5-0.5
			c-0.4-0.1-0.8-0.1-1.1-0.2c-0.3-0.1-0.5-0.3-0.6-0.6c-0.1-0.5-0.2-1.1-0.3-1.6c0-0.2,0-0.4,0-0.6c0-0.8,0-1.5,0-2.3
			c0.3-0.1,0.7-0.2,1-0.2c0.9-0.1,1.9-0.2,2.8-0.4c0.1,0,0.2,0,0.3,0c1.1,0.3,2.1,0.1,3.2,0.1c1.1,0,2.1-0.3,3.2-0.1
			c0.5,0.1,1,0.2,1.4,0.3c0.2,0.1,0.5,0.4,0.5,0.7c0.1,0.7,0.2,1.3,0,2c-0.1,0.5,0,1,0,1.5c0,0.8-0.1,1-0.9,1c-0.3,0-0.7,0.1-1,0.1
			c-0.6,0.1-0.9,0.3-0.8,0.9c0.1,1,0.1,1.9,0.1,2.8c0,0.6,0.1,1.1,0.1,1.7c0,1.2,0,2.4,0,3.6c0,0.8,0,1.6,0.1,2.4
			c0,0.7,0.1,1.3,0.2,2c0,0.5-0.1,1-0.1,1.6c0,0.2,0,0.4,0,0.6c0,0.4,0,0.7,0.1,1.1c0.2,1.2-0.8,1.7-1.8,1.7c-1,0-2,0-3,0
			c-1.2,0-1.9-0.7-2.4-1.6c-0.3-0.4-0.6-0.8-0.9-1.2c-0.3-0.5-0.8-0.8-1-1.4c-0.1-0.3-0.4-0.5-0.6-0.7c-0.8-0.9-1.4-1.9-2-3
			c-0.2-0.4-0.5-0.8-0.8-1.1c-0.5-0.7-0.9-1.4-1.3-2.1c-0.3-0.5-0.6-1.1-1.3-1.3c0,0.3-0.1,0.5-0.1,0.7c0.1,0.7,0.2,1.3,0.2,2
			c0,0.8-0.1,1.6-0.1,2.4c0,0.5,0,1,0.1,1.6c0.4,0,0.7,0,1,0.1c0.7,0,1,0.3,1,1c0,1.3,0.1,2.5,0.1,3.8c0,0.6-0.3,0.9-0.9,0.9
			c-0.5,0-1,0.1-1.5,0.1c-0.4,0-0.9,0-1.3,0c-1.9,0-3.8-0.2-5.7,0.2c-0.7,0.1-1.3-0.2-2-0.5c-0.1-1.1-0.3-2.2-0.4-3.3
			c0-0.5,0-1.1,0.3-1.5c0.2-0.3,0.4-0.5,0.7-0.4c0.5,0,1-0.1,1.4-0.3c0.3-0.1,0.5-0.3,0.5-0.6c0-0.7,0-1.5-0.1-2.2
			c-0.1-0.7-0.2-1.3-0.3-2c0-1.6,0-3.2,0-4.7C463.2,43.8,463.1,43.2,463.1,42.6z M470.4,38.8c0,0.2,0.1,0.4,0.4,0.3
			C470.8,38.8,470.6,38.8,470.4,38.8c0-0.1,0-0.3,0-0.5c-0.2-0.2-0.4-0.3-0.6-0.5C469.8,38.4,469.8,38.4,470.4,38.8z M476.6,53.8
			c-0.4-0.3-0.7-0.6-1-0.9c0.1-0.5-0.3-0.9-0.5-1.3c-0.2,0.1-0.3,0.2-0.4,0.2c-0.2-0.3-0.2-0.9-0.9-0.8c0.3,0.6,0.6,1.1,0.9,1.7
			c0.3,0.5,0.7,1.1,1.1,1.5c0.4,0.5,0.8,0.9,1.2,1.4c-0.1-0.5-0.1-1-0.6-1.1c-0.1,0-0.2-0.2-0.2-0.4C476.3,54,476.4,53.9,476.6,53.8
			z M478.5,54.3c0-0.2,0-0.4-0.1-0.5c-0.3-0.4-0.2-0.8-0.2-1.2c0-0.3,0-0.7-0.1-1.1c0-0.2-0.2-0.3-0.5-0.1c0.2,0.4,0.5,0.7,0.4,1.2
			c-0.1,0.5-0.4,0.8-1,1.1C477.6,54,478,54.1,478.5,54.3z M467.4,44.2c0,0,0.1,0,0.1,0c0-0.5,0.1-0.9,0.1-1.4c0-0.1-0.2-0.3-0.3-0.4
			c-0.2-0.1-0.5,0-0.8,0c0.1,0.3,0.2,0.7,0.3,0.7c0.5,0,0.4,0.3,0.4,0.6C467.2,43.8,467.3,44,467.4,44.2z M475,45.2
			c0.5,0,0.6,0.3,0.7,0.7c0.1,0.3,0.3,0.5,0.7,0.5c0-0.8-0.7-1.2-1.1-1.7C475.2,44.8,475.1,45,475,45.2z M477.6,51.9
			c-0.3-0.3-0.6-0.1-1-0.1c-0.1,0-0.2,0.1-0.2,0.1c0,0.1,0,0.2-0.1,0.2c0.3,0.1,0.5,0.1,0.8,0.2c-0.1,0.2-0.2,0.3-0.3,0.5
			c0.2,0.1,0.4,0.2,0.6,0.3C477.4,52.6,477.5,52.3,477.6,51.9z M476.4,40.9c0-0.2,0-0.4,0.1-0.6c0.1-0.1,0.2-0.2,0.4-0.3
			c-0.4-0.2-0.4-0.2-0.9,0.6C476.1,40.7,476.2,40.8,476.4,40.9z M479.7,59.3c0.2-0.8-0.5-0.7-0.8-1.1
			C478.8,58.8,479.3,58.9,479.7,59.3z M477.3,47.7c0.1-0.1,0.2-0.2,0.2-0.2c-0.1-0.2-0.1-0.4-0.2-0.5c-0.2-0.2-0.4-0.2-0.6-0.4
			c0,0.1-0.1,0.1-0.1,0.2C476.8,47.1,477,47.4,477.3,47.7z M466.7,49.4c-0.5,0.5-0.5,0.6,0,1C466.8,50.1,467,49.8,466.7,49.4z
			 M466.9,39c0.3-0.8,0.2-0.9-0.5-1.1C466.6,38.3,466.7,38.5,466.9,39z M464.5,38.7c0.2,0.1,0.5,0.1,0.5-0.2c0.1-0.4,0-0.5-0.3-0.6
			C464.6,38.1,464.6,38.3,464.5,38.7z M471,54.8c0.4,0,0.7,0.1,1,0.1c0.1-0.3-0.1-0.4-0.3-0.4C471.4,54.5,471.1,54.4,471,54.8z
			 M469.2,37.3c0,0,0-0.1,0-0.1c-0.2,0.1-0.4,0.1-0.5,0.2c-0.3,0.2-0.2,0.4,0.1,0.6C468.8,37.8,469,37.5,469.2,37.3z M474.5,43.4
			c-0.3,0.5-0.3,0.5,0.5,0.9C474.8,43.9,474.7,43.7,474.5,43.4z M469.1,45.2c0.1,0.2,0.1,0.5,0.5,0.4c0.1,0,0.2-0.2,0.1-0.3
			C469.6,45,469.4,45.1,469.1,45.2z M461.3,36.9c-0.6,0.1-0.6,0.2-0.4,0.9C461,37.4,461.1,37.2,461.3,36.9z M467.2,37
			c0.2-0.3,0.3-0.4,0.3-0.5c0-0.1-0.2-0.2-0.2-0.2c-0.1,0-0.2,0.2-0.2,0.3C466.9,36.7,467,36.8,467.2,37z M465.5,58.8
			c0.1-0.6,0.1-0.6-0.4-0.5C465.2,58.4,465.4,58.6,465.5,58.8z M473.8,43c0.2-0.4,0-0.6-0.3-0.8C473.6,42.6,473.7,42.8,473.8,43z
			 M466.3,58.9c0,0.1,0,0.2,0,0.3c0.1,0,0.3,0,0.4,0c0,0,0-0.2,0-0.3C466.6,58.9,466.5,58.9,466.3,58.9z M467.6,58.6
			c0.1-0.4,0.1-0.4-0.2-0.7C467.5,58.2,467.6,58.4,467.6,58.6z M462.3,37.7c0.3,0,0.4,0,0.6,0c0,0,0.1-0.2,0-0.2
			C462.7,37.3,462.5,37.4,462.3,37.7z M473.1,50.4c0,0,0.1-0.1,0.1-0.1c-0.1-0.2-0.3-0.4-0.4-0.5c0,0-0.1,0.1-0.1,0.1
			C472.9,50,473,50.2,473.1,50.4z M467.6,39.3c0,0.1,0,0.1-0.1,0.2c0.1,0.1,0.2,0.1,0.3,0.2c0-0.1,0.1-0.2,0.1-0.2
			C467.8,39.4,467.7,39.3,467.6,39.3z M480.3,49.6c-0.1,0.1-0.2,0.1-0.2,0.2c0,0,0,0.1,0,0.2c0.1-0.1,0.2-0.1,0.2-0.2
			C480.4,49.8,480.4,49.7,480.3,49.6z M476.4,37.7c-0.1-0.1-0.1-0.1-0.2-0.1c0,0-0.1,0.1-0.1,0.1c0,0.1,0.1,0.1,0.2,0.2
			C476.3,37.9,476.4,37.8,476.4,37.7z M469,58.9c0,0,0.1,0,0.1,0c0-0.1,0-0.2-0.1-0.3c-0.1,0-0.1,0-0.2,0
			C468.9,58.7,469,58.8,469,58.9z M461.3,59c0,0,0.1,0,0.1,0c0-0.1,0.1-0.2,0.1-0.3c-0.1,0-0.1,0-0.2-0.1
			C461.4,58.8,461.3,58.9,461.3,59z M484.5,58.8c-0.1-0.1-0.2-0.2-0.3-0.2c-0.1,0-0.1,0.1-0.2,0.1c0.1,0.1,0.1,0.2,0.2,0.2
			C484.3,59,484.4,58.9,484.5,58.8z"/>
		<path class="st2" d="M457.1,54.6c-0.3,0.4-0.5,0.6-0.7,0.9c-0.3,0.5-0.7,1.1-1,1.6c-0.2,0.3-0.5,0.2-0.9,0.1
			c0.2,0.7-0.2,0.9-0.7,1c-0.5,0.1-1,0.3-1.4,0.7c-0.2,0.2-0.5,0.3-0.8,0.2c-0.3,0-0.6,0.1-0.9,0.2c-0.8,0.3-1.6,0.5-2.4,0.6
			c-0.6,0.1-1.2,0.3-1.8,0.4c-0.8,0.1-1.6,0.1-2.4,0c-0.7-0.1-1.4-0.2-2.1-0.3c-0.2,0-0.3,0-0.5-0.1c-0.6-0.3-1.2-0.6-1.8-0.9
			c-0.2-0.1-0.3-0.1-0.5-0.2c-0.2-0.1-0.5-0.1-0.7-0.2c-0.7-0.6-1.5-0.9-2.2-1.5c-0.3-0.2-0.5-0.5-0.7-0.8c-0.3-0.5-0.7-0.9-1.1-1.3
			c-0.2-0.3-0.4-0.6-0.6-0.9c-0.3-0.5-0.6-1-0.9-1.5c-0.2-0.3-0.3-0.6-0.4-1c-0.2-1.2-0.3-2.4-0.4-3.6c0-0.8,0-1.6,0.3-2.3
			c0.3-0.8,0.4-1.6,0.7-2.4c0.2-0.7,0.4-1.4,0.7-2c0.3-0.5,0.5-1.1,1.1-1.4c0.1-0.1,0.2-0.3,0.3-0.5c0.2-0.3,0.3-0.6,0.8-0.7
			c0.6-0.2,1.1-0.5,1.5-1c0.1-0.1,0.3-0.2,0.4-0.3c0.2-0.1,0.4-0.2,0.5-0.3c0.2-0.4,0.6-0.6,1-0.8c0.3-0.1,0.6-0.3,1-0.3
			c0.4,0,0.8-0.2,1.2-0.4c0.6-0.2,1.1-0.3,1.7-0.3c0.6,0,1.2-0.1,1.7-0.1c0.9,0,1.8,0,2.7,0.2c0.9,0.2,1.9,0.2,2.8,0.8
			c1.1,0.1,1.8,0.8,2.6,1.3c0.7,0.4,1.2,1.2,1.8,1.8c0.5,0.5,1,0.9,1.5,1.3c0.2,0.2,0.3,0.4,0.4,0.6c0.4,0.8,0.7,1.6,1,2.3
			c0.1,0.3,0.3,0.7,0.4,1c0.1,0.3,0.2,0.7,0.3,1c0,0.1,0.1,0.2,0.1,0.3c-0.4,0.7,0,1.5,0.1,2.2c0.2,0.6,0.1,1.1,0,1.6
			c-0.3,1.5-0.7,2.9-1.5,4.2C456.9,54.3,457,54.3,457.1,54.6z M437.1,53.7c0-0.3-0.1-0.4-0.4-0.4C436.9,53.4,437,53.5,437.1,53.7
			c0.4,0.4,0.9,0.8,1.3,1.2c0,0.2,0,0.5,0.5,0.4c-0.2-0.2-0.4-0.3-0.5-0.4c-0.2-0.5-0.6-0.8-1-1.2C437.4,53.7,437.2,53.7,437.1,53.7
			z M451.8,47.1C451.7,47.1,451.7,47.1,451.8,47.1c-0.1-0.2-0.1-0.5-0.1-0.7c-0.1-0.8-0.1-1.6-0.6-2.2c-0.3-0.5-0.6-0.9-1.1-1.2
			c-0.2-0.1-0.3-0.2-0.4-0.3c-0.3-0.2-0.5-0.4-0.8-0.5c-1.3-0.6-2.6-1-4.1-0.6c-0.2,0-0.3,0-0.5,0c-1,0-1.7,0.5-2.2,1.2
			c-0.3,0.4-0.7,0.6-1,0.9c-0.2,0.2-0.5,0.4-0.6,0.6c-0.4,0.7-0.9,1.4-0.7,2.3c0,0.2,0,0.5,0,0.7c-0.2,1.5,0.2,2.9,0.9,4.3
			c0.6,1.1,1.6,1.6,2.8,2c0.1,0,0.3,0,0.4,0.1c0.5,0.4,1.1,0.4,1.8,0.4c0.8,0,1.5-0.1,2.3-0.1c0.6,0,1.1-0.3,1.5-0.6
			c1.1-0.7,1.7-1.7,2-2.8C451.5,49.5,451.6,48.3,451.8,47.1z M436.9,54.2c-0.3-0.5-0.3-0.5-0.7-0.5C436.4,54,436.4,54.5,436.9,54.2z
			 M434.5,46.6c-0.1,0.1-0.3,0.3-0.3,0.3c0,0.1,0.2,0.2,0.3,0.3c0.1-0.1,0.2-0.2,0.2-0.3C434.7,46.9,434.6,46.8,434.5,46.6z
			 M447.2,37.2c-0.2,0-0.4-0.1-0.7-0.1C446.7,37.7,446.9,37.5,447.2,37.2z M436.4,56.5c0.1,0.3,0.2,0.5,0.5,0.5
			C437.1,56.5,436.8,56.6,436.4,56.5z M439.6,39.3c0.1,0,0.1,0,0.2-0.1c-0.1-0.2-0.2-0.3-0.2-0.5C439.4,38.9,439.3,39.1,439.6,39.3z
			 M439.4,52.5c0.1-0.3,0-0.5-0.3-0.5C439.2,52.1,439.3,52.3,439.4,52.5z M456.5,43.7c0.1,0,0.1-0.1,0.2-0.1
			c-0.1-0.2-0.2-0.4-0.4-0.6c0,0-0.1,0.1-0.1,0.1C456.3,43.3,456.4,43.5,456.5,43.7z M434.5,45C434.5,45,434.5,45,434.5,45
			c-0.1,0.2-0.1,0.3-0.1,0.4c0,0,0.1,0,0.1,0C434.5,45.3,434.5,45.2,434.5,45z M441.7,41.1c0.4,0.1,0.5,0,0.5-0.3
			C442.1,40.9,442,41,441.7,41.1z M455.5,41.9c0-0.1,0.1-0.2,0.1-0.3c0-0.1-0.1-0.1-0.2-0.2c-0.1,0.1-0.1,0.1-0.2,0.2
			C455.3,41.8,455.4,41.8,455.5,41.9z M456.7,53.4c-0.1-0.1-0.2-0.2-0.2-0.2c-0.1,0-0.1,0.1-0.2,0.2c0,0,0.1,0.1,0.1,0.1
			C456.6,53.5,456.6,53.4,456.7,53.4z M435.2,53.9c0,0-0.1,0-0.1-0.1c-0.1,0.1-0.1,0.2-0.2,0.3c0.1,0,0.1,0.1,0.2,0.1
			C435.1,54.1,435.1,54,435.2,53.9z M440,41.2c-0.1,0-0.1,0-0.2,0c0,0.1,0,0.3,0,0.4c0,0,0.1,0,0.1,0C440,41.5,440,41.4,440,41.2z"
			/>
		<path class="st2" d="M542,59.3c0.2-0.2,0.3-0.3,0.5-0.4c-0.3-0.5-0.8-0.6-1.3-0.8c-0.3-0.1-0.5-0.2-0.8-0.3
			c-0.3-0.1-0.6-0.3-1-0.4c-0.8-0.3-1.1-1-1.2-1.7c-0.2-1.6-0.2-3.1,0-4.7c0-0.3,0.1-0.6,0.5-0.7c0.5-0.1,1-0.2,1.5-0.2
			c0.1,0,0.3,0,0.4,0c0.5-0.3,1.1-0.1,1.6,0c0.2,0,0.4,0,0.6,0c0.6-0.1,1.1,0.3,0.9,0.9c-0.1,0.6,0.1,1.2,0.2,1.7
			c0.2,0.7,0.8,0.8,1.4,1c0.3,0.1,0.6,0.1,0.9,0c0.7-0.3,1.4-0.1,2-0.1c0.9-0.1,1.8-0.4,2.4-1.1c0.2-0.3,0.3-0.7,0.4-1.1
			c-0.4-0.3-0.7-0.2-0.9,0.1c-0.6-0.2-1-0.4-1.5-0.6c-0.4-0.2-0.8-0.4-1.2-0.2c-0.5-0.3-1,0-1.5-0.2c-0.5-0.2-1.2-0.1-1.9-0.2
			c0.2-0.3,0.4-0.4,0.8-0.4c0.2,0,0.5,0.1,0.8,0.1c0.2,0,0.4,0,0.5-0.1c0-0.1,0-0.1,0-0.2c-0.3-0.1-0.5-0.3-0.8-0.3
			c-1-0.1-1.8-0.5-2.7-0.9c-0.6-0.2-1.2-0.6-1.8-0.9c-0.6-0.2-0.9-0.6-1.2-1.1c-0.9-1.2-1.3-2.7-1.4-4.2c0-0.5,0.1-1,0.2-1.4
			c0-0.3,0.1-0.5,0.1-0.8c0-0.4,0.2-0.8,0.6-1.1c0.1-0.1,0.2-0.2,0.3-0.3c0.7-1.2,1.8-2,2.9-2.8c0.6-0.4,1.2-0.8,1.8-0.9
			c0.8-0.2,1.6-0.2,2.3-0.5c0.9-0.4,1.8-0.2,2.6-0.4c1.2-0.2,2.5-0.1,3.6,0.3c0.7,0.2,1.3,0.6,2,1c0.5,0.3,1,0.6,1.4,0.9
			c0.6,0.4,1,1,1,1.7c0,0.9,0.1,1.8,0,2.7c0,0.5-0.3,1-0.6,1.4c-0.3,0.4-0.8,0.4-1.2,0.3c-0.9-0.1-1.8-0.1-2.7,0.2
			c-0.4,0.1-1.4-0.2-1.6-0.5c-0.1-0.2-0.1-0.4-0.1-0.6c0-0.4-0.1-0.7-0.6-0.8c-0.1,0.1-0.2,0.2-0.2,0.3c-0.2,0.4-0.6,0.5-1,0.4
			c-0.5-0.1-1,0-1.5,0.2c-0.3,0.1-0.7,0-1.2,0c0,0.1,0,0.3,0,0.5c-0.2,0-0.4-0.1-0.6-0.1c0-0.2,0-0.5,0-0.7c-0.6-0.2-0.8,0-1.2,0.9
			c0.2,0.7,1,0.7,1.5,1c0.4,0.2,0.8,0.3,1.2,0.2c0.1,0,0.2,0,0.3,0c1,0.2,1.9,0.3,2.9,0.5c0.6,0.1,1.2,0.4,1.8,0.6
			c1.1,0.4,2,1,3,1.6c0.5,0.3,1.1,0.7,1.4,1.3c0.1,0.3,0.4,0.5,0.6,0.7c0.4,0.5,0.8,1,0.7,1.7c0.5,0.6,0.3,1.4,0.4,2.1
			c0,0.2-0.1,0.4-0.1,0.6c0,0.1-0.1,0.3-0.1,0.4c0,0.7-0.3,1.4-0.6,2c-0.1,0.3-0.4,0.5-0.5,0.7c-0.1,0.1-0.2,0.3-0.2,0.5
			c0.7-0.6,1.5-1.2,2-2.1c0.5-0.9,0.3-2,0.6-3c0.2,0.3,0.4,0.5,0.6,0.7c-0.1,0.5-0.1,0.9-0.2,1.4c-0.1,0.7-0.3,1.3-0.9,1.8
			c-0.6,0.6-1,1.4-1.5,2.1c-0.3,0.4-0.5,0.8-1.1,0.9c-0.3,0.1-0.5,0.4-0.8,0.5c-0.5,0.3-0.9,0.8-1.5,0.8c-0.7,0-1.1,0.6-1.8,0.6
			c-0.8,0.1-1.6,0.2-2.3,0.3c-0.4,0-0.9,0.1-1.3,0.1c-1.3,0.1-2.6-0.2-3.9-0.4C544.1,59.9,543.1,59.5,542,59.3z M546.2,59.6
			c0.1,0.1,0.2,0.1,0.2,0.1c0.5,0.1,1.1,0.2,1.6,0.2c1.7,0,3.4-0.2,5-0.7c0.8-0.3,1.6-0.6,2.3-1.1c0.3-0.2,0.5-0.4,0.8-0.5
			c0.4-0.2,0.8-0.5,0.7-1.1c-0.2,0-0.4,0-0.4,0.1c-0.2,0.4-0.5,0.5-0.8,0.7c-0.3,0.2-0.6,0.2-0.8,0.5c-0.3,0.3-0.5,0.6-1,0.3
			c0,0-0.1,0-0.1,0c-0.3,0.4-0.7,0.4-1,0.5c-0.6,0.1-1.2,0.5-1.8,0.5c-0.8,0-1.5,0.3-2.3,0.4c-0.4,0-0.9,0.2-1.4,0
			C547,59.4,546.5,59.2,546.2,59.6z M548,58.8c0,0,0-0.1,0-0.1c-0.5,0-1,0-1.5-0.1c-1-0.2-1.9-0.4-2.9-0.3c-0.1,0-0.2,0-0.3,0.1
			c0.6,0.2,1.2,0.2,1.8,0.3c0.3,0.1,0.7,0.3,1,0.2c0.4-0.1,0.8,0,1.2,0C547.5,59,547.8,58.9,548,58.8z M548,35.6
			c-0.4,0.1-0.6,0.3-0.7,0.5c0.2,0,0.4,0.1,0.6,0.1c0.1,0.5,0.2,1,0.3,1.5c0.4-0.4,0.4-0.7,0.1-1.2c-0.1-0.1-0.1-0.3-0.1-0.4
			C548.1,36,548,35.8,548,35.6z M543,36.6c-0.4,0-1.1,0.5-1.4,1c0.4,0.4,0.7,0.1,1,0.1C542.8,37.3,542.9,36.9,543,36.6z M546.4,41.4
			c0.4-0.2,0.7-0.4,1.1-0.5c0.4-0.1,0.7-0.1,1.2-0.2c-0.1-0.1-0.1-0.3-0.2-0.3c-0.3,0-0.6-0.1-0.8,0
			C547.1,40.6,546.5,40.6,546.4,41.4z M548.7,35.2c0.6,0.1,1.1,0,1.5-0.3c-0.7-0.4-1.3,0-2,0c0.1,0.3,0.2,0.5,0.3,0.7
			C548.5,35.5,548.6,35.4,548.7,35.2z M553.3,57.7c0.7,0.1,1-0.6,1.6-0.7c0.1,0,0.2-0.2,0.4-0.4C554.3,56.6,554,57.4,553.3,57.7z
			 M545.8,59.5c-0.7-0.6-1.4-0.5-2.1-0.4C544.4,59.4,545,59.7,545.8,59.5z M546.8,49.3c0-0.1,0-0.1,0-0.2c-0.7-0.5-0.8-0.5-1.1-0.1
			C546.1,49.1,546.4,49.2,546.8,49.3z M539,51.6c0.3-0.1,0.6,0,0.5-0.4c0-0.1-0.2-0.3-0.3-0.3C538.8,50.9,538.9,51.2,539,51.6z
			 M554.9,51.4c0,0,0-0.1,0-0.1c-0.3,0-0.6,0-0.9,0.1c-0.2,0.1-0.2,0.3,0,0.4C554.3,51.7,554.6,51.5,554.9,51.4z M544.1,53.7
			c-0.3-0.5-0.5-0.6-0.9-0.5c0.1,0.1,0.3,0.2,0.4,0.4C543.7,53.9,543.9,53.8,544.1,53.7z M540.9,38.5c-0.2,0.1-0.3,0.2-0.5,0.3
			c0.3,0.2,0.5,0.3,0.7,0.4C541.4,38.8,541,38.7,540.9,38.5z M539.4,52.9c-0.2-0.2-0.4-0.4-0.6-0.5c0,0-0.1,0-0.1,0.1
			c0.1,0.3,0.2,0.5,0.3,0.9C539.2,53.1,539.3,53,539.4,52.9z M549.1,57.5c0,0,0,0.1,0,0.1c0.3-0.1,0.7-0.1,1-0.2c0-0.1,0-0.1,0-0.2
			C549.7,57.1,549.4,57.3,549.1,57.5z M548.6,37.7c-0.1,0.4-0.1,0.4,0.3,0.8C549,38.1,549,38.1,548.6,37.7z M557.5,51.5
			c0.1,0.1,0.3,0.1,0.4,0.2c0.1-0.3,0.1-0.5,0.2-0.7c0,0-0.1,0-0.1,0C557.8,51.2,557.7,51.3,557.5,51.5z M539.1,42.5
			c-0.1,0-0.1,0-0.2,0c-0.1,0.2-0.1,0.5-0.2,0.7c0.1,0,0.1,0,0.2,0C539.2,43.1,539.2,42.8,539.1,42.5z M550.3,36.5
			c0.3-0.4,0.3-0.4-0.2-0.7C550,36.2,550.2,36.3,550.3,36.5z M556.1,37.7c0.3-0.3,0.3-0.5,0.1-0.7c-0.1,0-0.2,0-0.4,0
			C555.9,37.3,556,37.5,556.1,37.7z M549.9,58.4c-0.4,0-0.6-0.1-0.8,0.3C549.4,58.6,549.7,58.7,549.9,58.4z M545.8,37.6
			c-0.4,0.5-0.4,0.5,0.1,0.6C545.8,37.9,545.8,37.8,545.8,37.6z M556.3,55.9c-0.4-0.1-0.4-0.1-0.6,0.2C555.9,56,556.1,56,556.3,55.9
			z M555.1,36.7c0-0.1,0-0.1,0.1-0.2c-0.1-0.1-0.3-0.1-0.4-0.2c0,0.1-0.1,0.2-0.1,0.2C554.8,36.6,554.9,36.7,555.1,36.7z M546,36.9
			c0,0,0.1,0.1,0.1,0.1c0.1-0.1,0.2-0.2,0.4-0.3c0,0,0-0.1-0.1-0.2C546.2,36.7,546.1,36.8,546,36.9z M542.8,56.9
			c0,0,0.1-0.1,0.1-0.1c-0.1-0.1-0.2-0.2-0.4-0.4C542.5,56.8,542.6,56.9,542.8,56.9z M543,52.6c-0.1-0.1-0.2-0.2-0.3-0.2
			c0,0-0.1,0.1-0.2,0.2c0.1,0.1,0.1,0.1,0.2,0.2C542.8,52.8,542.9,52.7,543,52.6z M544.7,36.2c-0.2-0.3-0.4-0.2-0.5,0.1
			C544.4,36.3,544.6,36.3,544.7,36.2z M540.7,55.6c0,0.1,0,0.1,0.1,0.2c0.1,0,0.2-0.1,0.3-0.1c0,0,0-0.1-0.1-0.2
			C540.9,55.5,540.8,55.5,540.7,55.6z M557.8,49.5c-0.1-0.1-0.2-0.1-0.2-0.1c-0.1,0-0.1,0.1-0.1,0.2c0.1,0,0.2,0.1,0.2,0.1
			C557.7,49.7,557.7,49.6,557.8,49.5z M553.3,48.2c0-0.1,0-0.2,0-0.2c-0.1,0-0.2-0.1-0.2-0.1c-0.1,0-0.2,0.1-0.2,0.1
			c0,0.1,0.1,0.2,0.2,0.2C553.1,48.3,553.2,48.2,553.3,48.2z M547.2,39.7c0.1,0.1,0.2,0.2,0.2,0.2c0.1,0,0.1-0.1,0.2-0.2
			c-0.1-0.1-0.1-0.2-0.2-0.2C547.4,39.6,547.3,39.7,547.2,39.7z M543.3,51.1c-0.1,0-0.2-0.1-0.3-0.1c0,0-0.1,0.1-0.1,0.1
			c0.1,0.1,0.1,0.1,0.2,0.1C543.2,51.2,543.2,51.2,543.3,51.1z M550.4,57.1c0,0.1,0,0.1,0,0.2c0.1,0,0.2-0.1,0.3-0.1
			c0,0,0-0.1,0-0.1C550.6,57.1,550.5,57.1,550.4,57.1z M542.6,51.8c-0.1-0.1-0.2-0.1-0.2-0.2c0,0-0.1,0.1-0.1,0.1
			c0,0.1,0.1,0.1,0.2,0.2C542.5,51.9,542.5,51.8,542.6,51.8z"/>
		<path class="st2" d="M524.3,42.6c0.1,0.4,0.2,0.9,0.2,1.3c0.1,0.6,0.3,0.8,0.9,0.8c0.8-0.1,1.7-0.2,2.5-0.3c0.3,0,0.7,0.1,1,0.2
			c0.1,0.4,0.2,0.6,0.3,0.9c0,0.1,0.1,0.2,0,0.3c-0.2,0.7,0,1.3,0.1,2c0.1,0.7,0,1.3-0.4,1.8c-0.1,0.2-0.5,0.4-0.7,0.5
			c-0.4,0.1-0.9,0.1-1.4,0.1c-0.6,0-1.1,0.1-1.8-0.1c-0.7-0.3-1.4,0.5-1.3,1.3c0.1,0.3,0,0.6,0,1c0,0.2,0,0.4,0,0.7
			c1.8,0.2,3.5,0.2,5.2,0c0.4,0,0.6-0.3,0.7-0.7c0-0.3,0.1-0.6,0.1-1c0.1-0.5,0.4-0.8,0.9-0.9c0.7-0.2,1.3-0.4,2-0.1
			c0.2,0.1,0.4,0,0.5,0c0.9,0,1.5,0.6,1.6,1.5c0,0.3,0,0.6,0,1c0,0.6,0.2,1.2,0.1,1.7c-0.1,0.7,0,1.3,0.1,1.9c0.1,0.5,0.1,1,0.1,1.5
			c0,0.7-0.3,1-1,1c-0.5,0-1,0-1.5,0c-0.7,0-1.4,0-2,0c-0.1,0-0.3,0-0.4,0.1c-0.5,0.3-1.2,0-1.7,0.3c-0.1,0-0.2,0-0.3-0.1
			c-0.4-0.1-0.7-0.1-1,0.1c-0.3,0.2-0.6,0.2-1,0.1c-0.5-0.1-1-0.2-1.6-0.2c-0.3,0.4-0.6-0.1-0.9,0c-0.3,0.2-0.6,0.2-1,0.1
			c-0.5-0.1-1.1-0.3-1.6,0.1c-1-0.3-2,0-2.9-0.1c-0.6-0.1-1.3,0-1.9-0.1c-0.5-0.1-1.1-0.3-1.6-0.4c-0.3-0.1-0.4-0.3-0.4-0.6
			c-0.1-1-0.2-1.9-0.2-2.9c0-0.2,0-0.5,0.1-0.7c0.2-0.6,0.2-0.6,0.8-0.5c0.4,0,0.8,0,1.2-0.1c0.3,0,0.5-0.3,0.4-0.6c-0.2-1,0-2,0-3
			c0-0.8-0.1-1.5-0.1-2.3c0-2-0.1-4.1-0.1-6.1c0-0.2,0-0.4-0.1-0.5c-0.1-0.3-0.3-0.4-0.6-0.4c-1.2-0.1-1.3-0.3-1.1-1.5
			c0-0.1,0-0.3,0-0.4c0-0.1,0.1-0.2,0.1-0.3c0.3-0.3,0.3-0.2,0.2-0.5c-0.2-0.4-0.2-0.8-0.4-1.3c0.3,0,0.5,0.1,0.7,0
			c0.2-0.1,0.3-0.3,0.4-0.5c-0.5-0.2-0.5-0.2-1,0.1c0-0.2-0.1-0.5,0-0.6c0.1-0.2,0.4-0.4,0.6-0.4c0.2-0.1,0.5-0.1,0.8,0
			c1.2,0.3,2.5,0.1,3.7,0c1.3-0.1,2.6-0.2,3.8-0.1c0,0,0.1,0,0.1,0c1.2,0.4,2.4,0,3.5-0.2c1-0.1,1.9-0.1,2.9-0.1
			c0.5,0,0.9,0,1.4,0.1c0.5,0.1,1,0.2,1.5,0.3c0.1,0,0.2,0.1,0.3,0.1c0.3-0.1,0.5-0.2,0.7,0.1c0.1,0.3,0.3,0.5,0.3,0.8
			c0.1,0.6,0.1,1.2,0.1,1.9c0,0.3,0,0.6,0.1,0.8c0,0.3,0.1,0.6,0.1,0.8c0,0.6-0.1,1.2,0.1,1.8c0.2,0.8-0.4,1.3-1.2,1.2
			c-0.5-0.1-0.9,0.1-1.4,0.1c-0.7,0.1-1.4,0.3-2.1-0.1c-0.3-0.2-0.5-0.4-0.4-0.8c0.1-0.3,0-0.6,0-1c-0.5-0.1-1.1-0.3-1.6-0.2
			c-1.1,0.1-2.3-0.2-3.4,0.2c-0.2,0.1-0.5,0-0.6,0.1c-0.2,0.2-0.3,0.5-0.4,0.8c-0.1,0.3,0,0.6,0,1c0,0.4,0.1,0.7,0.1,1.1
			c0.1,0.3,0.2,0.4,0.4,0.3c0.3,0,0.4-0.3,0.3-0.5c0-0.1-0.1-0.2-0.1-0.3C524.1,43.2,524,42.9,524.3,42.6L524.3,42.6z M527.7,45.2
			c0.6,0.5,0.3,1.1,0.5,1.6c0.2-0.4,0.4-0.8,0.1-1.2c-0.2-0.3,0-0.4,0.1-0.6c-0.1,0-0.2,0-0.3,0C528,45,527.9,45.1,527.7,45.2z
			 M531.5,51.4c-0.3-0.1-0.6-0.2-0.8,0.1c-0.2,0.3-0.1,0.6,0.1,0.9C531.1,52,531.3,51.7,531.5,51.4z M529,55.6
			c0-0.2,0.1-0.3,0.1-0.6c-0.3,0.3-0.6,0.5-0.8,0.7c0,0,0,0.1,0,0.1C528.6,55.7,528.8,55.7,529,55.6z M522.8,41.7
			c0.2-0.2,0.3-0.4,0.4-0.6c-0.3-0.1-0.5-0.1-0.7-0.1C522.6,41.2,522.6,41.4,522.8,41.7z M522.7,49.5c0.1,0.4-0.1,0.7,0.2,1
			C523.3,50,523.3,50,522.7,49.5z M515.2,40.2c-0.1-0.4-0.1-0.6-0.2-0.9C514.9,39.6,514.5,39.9,515.2,40.2z M516.9,36.6
			c-0.3-0.3-0.4-0.2-1,0.1C516.3,36.7,516.6,36.6,516.9,36.6z M531,38.4c-0.3,0.1-0.4,0.2-0.6,0.3C530.7,39,530.8,38.8,531,38.4z
			 M534.4,57.9c-0.2,0-0.4,0.1-0.6,0.1C534.1,58.3,534.3,58.4,534.4,57.9z M533.4,37c-0.1,0-0.1,0-0.2,0c0,0.2,0.1,0.4,0.1,0.7
			c0.1,0,0.1,0,0.2,0C533.5,37.4,533.5,37.2,533.4,37z M528.5,56.6c0,0-0.1-0.1-0.1-0.1c-0.1,0.1-0.2,0.1-0.3,0.2
			c0,0.1,0.1,0.2,0.1,0.1C528.4,56.7,528.4,56.6,528.5,56.6z M529.1,56.7c-0.1-0.1-0.1-0.1-0.2-0.1c0,0-0.1,0.1-0.1,0.1
			c0,0.1,0.1,0.1,0.2,0.2C529,56.8,529,56.7,529.1,56.7z M516.4,39.5C516.4,39.5,516.4,39.6,516.4,39.5c0.1,0,0.2,0,0.2,0
			c0-0.1,0-0.2,0.1-0.2c0,0-0.1,0-0.1,0C516.5,39.3,516.4,39.4,516.4,39.5z"/>
		<path class="st2" d="M575.5,46.5c0.6-1.6,0.2-3.4,0.3-5.1c0.3-0.1,0.6,0.2,0.6,0.4c0.1,0.4,0.1,0.8,0.1,1.2c0,0.1-0.1,0.2,0,0.3
			c0.3,1,0,2,0.1,3c0,0.6,0.1,1.1,0.2,1.7c0,0.1,0.1,0.2,0,0.2c-0.3,0.8,0.1,1.5,0,2.3c0,0.3,0.1,0.6,0.1,0.9
			c0.1,0.4,0.1,0.7-0.1,1.1c-0.2-0.1-0.5-0.1-0.6-0.2c-0.1-0.8-0.2-1.6-0.3-2.4c-0.2-0.1-0.4-0.1-0.4,0.1c-0.1,0.5-0.1,1-0.2,1.5
			c0,0.3,0,0.6,0.2,0.8c0,0,0.1,0.1,0.1,0.1c0.2,0.8,0.8,0.8,1.4,0.7c0.8,0,0.9,0.1,1,0.8c0.1,0.7,0.1,1.5-0.2,2.2
			c-0.1,0.1,0,0.3-0.1,0.5c0,0.3-0.1,0.6-0.1,1c-0.1,0.6-0.3,0.9-0.9,1c-0.1,0-0.2,0.1-0.4,0.2c0.2,0.1,0.3,0.2,0.4,0.3
			c0.4,0.1,0.8,0.1,1.2,0.2c0.6-0.2,0.9-0.7,0.8-1.5c-0.1-0.6,0-1.2,0-1.9c0.3,0,0.8,0.2,0.8,0.5c0,0.4,0.2,0.9-0.1,1.3
			c-0.1,0.3-0.1,0.7-0.1,1c0,0.7-0.5,1.2-1.3,1c-0.4-0.1-0.8-0.1-1.2,0c-0.5,0-1,0.2-1.4,0.2c-1,0-1.9,0.2-2.8,0.2
			c-1.1,0.1-2.2,0-3.3,0.3c-0.2,0-0.4,0-0.6,0c-0.3,0-0.6-0.1-1-0.1c-0.3,0-0.6,0.1-0.9,0.2c0.2-0.4,0.5-0.6,0.9-0.6
			c1.1-0.1,2.2-0.1,3.3-0.2c1.3-0.1,2.7-0.3,4-0.5c0,0,0.1-0.1,0.2-0.1c-0.4-0.1-0.7-0.2-1.1-0.1c-0.3,0.1-0.6-0.1-1-0.1
			c-0.9,0-1.9,0.1-2.8,0.1c-1.4,0-2.8,0-4.2,0c-0.7,0-1-0.3-1.1-1c-0.1-0.9-0.3-1.8-0.3-2.8c0-1.6,0.2-1.7,1.8-1.9
			c0.3,0,0.6-0.1,0.8-0.3c0.1-0.1,0.1-0.2,0.1-0.2c0-0.4,0.1-0.7,0.1-1.1c-0.2-1.1,0.1-2.1,0.1-3.2c0-0.7,0-1.4,0-2.1
			c0-0.8,0.1-1.6,0.2-2.4c0-0.5,0.1-0.9,0.1-1.4c0-0.4,0-0.9,0-1.4c-0.8-0.2-1.5-0.2-2.2,0.1c-0.1,0.8,0,1.5-0.2,2.3
			c-0.2,0.6-0.3,0.7-0.9,0.8c-0.6,0-1.1,0-1.7-0.1c-0.5,0-1-0.1-1.5,0.1c-0.3,0.1-0.6,0.1-0.9,0c-0.4,0-0.8-0.5-0.7-1
			c0.1-1.7,0.1-3.3,0.2-5c0-0.5,0-1.1,0.1-1.6c0-0.6,0.1-1.2,0.5-1.7c0.3-0.4,0.6-0.7,1.1-0.7c0.6,0,1.3,0.1,1.9,0.1
			c0.3,0,0.6,0,0.9,0c1.1,0,2.2-0.1,3.3-0.1c0.6,0,1.3-0.1,1.9-0.1c0.9,0,1.9,0.1,2.8,0.1c0.7,0,1.4-0.1,2.2-0.1
			c0.3,0,0.7,0.1,1,0.1c1,0.1,2,0.1,3,0.1c0.5,0,1-0.1,1.4,0c0.7,0,1.4,0,2,0.2c0.5,0.2,0.6,0.2,0.6,0.7c0,1,0,2,0.1,3.1
			c0,0.5,0.1,1.1,0.1,1.6c0,0.7,0,1.3-0.1,2c0,0.2,0,0.3,0,0.5c0.1,0.8-0.2,1.2-0.9,1.3c-0.2,0-0.3,0.1-0.4,0.2
			c-0.2,0.1-0.3,0.3-0.5,0.4c-0.2,0.1-0.5,0.2-0.7,0.3c-0.1,0-0.1-0.1-0.1-0.1c-0.2-0.9-1-0.9-1.7-1c-0.9-0.1-0.9-0.2-1-1.1
			c-0.1-0.8-0.4-1.5-0.3-2.3c0-0.1-0.1-0.2-0.1-0.4c-0.3,0-0.7-0.1-1.1,0c-0.6,0.1-0.9,0.6-0.9,1.2c0,0.6-0.1,1.2,0,1.9
			c0,0.9,0,1.7,0.1,2.6c0,0.3,0.2,0.7,0.3,1C575.4,46.5,575.5,46.5,575.5,46.5z M575.5,46.8c-0.1,0-0.1,0-0.2,0
			c-0.4,0.3-0.4,1.5,0,1.8c0.2,0.1,0.4,0.1,0.4-0.1c0-0.1,0-0.2,0-0.3C575.7,47.7,575.6,47.2,575.5,46.8z M582.3,41.7
			c0,0-0.1,0-0.1,0c-0.1,0.3-0.3,0.5-0.4,0.8c0,0.2,0.1,0.4,0.2,0.5c0,0.1,0.3,0.1,0.3,0c0.1-0.1,0.2-0.3,0.2-0.5
			C582.4,42.2,582.3,42,582.3,41.7z M569.1,53.2c-0.3-0.2-0.6-0.4-1-0.6c0,0.2-0.1,0.4-0.1,0.6C568.4,53.4,568.7,53.7,569.1,53.2z
			 M577,57.5c-0.4,0.2-0.9,0.4-1.4,0.6C576.7,58.2,576.8,58.2,577,57.5z M565.2,55.6c0.5-0.3,0.5-0.3,0.1-0.7
			C565.3,55.1,565.2,55.3,565.2,55.6z M575.5,49.5c0.1-0.2,0.2-0.3,0.2-0.4c-0.1,0-0.2-0.1-0.2-0.1c-0.1,0.1-0.2,0.1-0.2,0.2
			C575.3,49.3,575.4,49.4,575.5,49.5z M570.9,56.1c0.3,0,0.5,0,0.5-0.4C571.2,55.8,571.1,55.9,570.9,56.1z M568.1,52.3
			c0.3-0.2,0.3-0.3,0-0.5C568.1,52,568.1,52.1,568.1,52.3z M573.6,45.1c0.1,0,0.1,0,0.2,0c0-0.1,0-0.3,0-0.4c0,0-0.1,0-0.1,0
			C573.6,44.8,573.6,45,573.6,45.1z M577.4,54.4c-0.1,0.1-0.2,0.2-0.2,0.2c0,0.1,0.1,0.2,0.2,0.2c0.1,0,0.2-0.1,0.2-0.2
			C577.6,54.6,577.5,54.6,577.4,54.4z M568.1,47.8c0,0,0.1,0,0.1,0c0-0.1,0.1-0.2,0.1-0.3c0,0-0.1,0-0.1,0
			C568.1,47.6,568.1,47.7,568.1,47.8z M566.9,58.3c0,0,0-0.1,0-0.1c-0.1,0-0.2,0.1-0.3,0.1c0,0,0,0.1,0,0.1
			C566.7,58.3,566.8,58.3,566.9,58.3z M575.9,58.9c-0.2,0-0.2-0.1-0.3-0.1c-0.1,0-0.1,0.1-0.2,0.1c0,0.1,0.1,0.1,0.1,0.1
			C575.6,59.1,575.7,59,575.9,58.9z"/>
		<path class="st2" d="M427.4,52.5c1.1,0.7,2.4,2.3,3.9,4.6c-0.2,0.2-0.4,0.4-0.7,0.7c0.3,0,0.5,0.1,0.6,0c0.3-0.2,0.5-0.1,0.7,0.2
			c0,0.1-0.1,0.1-0.1,0.2c-0.8,0.3-1.4,0.9-1.9,1.4c-0.7,0.7-1.6,1.1-2.4,1.6c-0.6,0.4-1.3,0.5-2,0.6c-0.9,0.2-1.9,0.1-2.8,0.3
			c-1,0.2-2,0-2.9-0.2c-0.7-0.2-1.4-0.4-2.1-0.6c-0.5-0.2-0.9-0.4-1.3-0.9c0.1,0,0.3,0,0.4,0.1c1,0.6,2.2,0.8,3.3,1.1
			c0.9,0.2,1.8,0.3,2.7,0.1c0.9-0.2,1.9-0.3,2.9-0.4c0.7-0.1,1.3-0.3,1.9-0.7c0.7-0.5,1.3-0.9,2-1.4c0.2-0.1,0.4-0.4,0.5-0.6
			c-0.7,0.2-1.3,0.7-2.2,0.6c-1,0.5-2,0.9-3.2,0.8c-0.1,0-0.2,0-0.3,0c-1.3,0.5-2.6,0.1-3.9,0.2c-0.1,0-0.2,0-0.3,0
			c-0.4,0-0.8,0-1.2-0.1c-0.8-0.2-1.6-0.3-2.4-0.5c-0.2,0-0.3-0.1-0.5-0.2c-0.4-0.1-0.7-0.3-1.1-0.4c-0.4-0.1-0.8-0.2-1.2-0.5
			c-0.1-0.1-0.2-0.1-0.3-0.1c-0.6-0.2-1.1-0.4-1.5-1c-0.3-0.5-0.8-1-1.2-1.5c-0.3-0.4-0.6-0.7-0.7-1.2c-0.2-0.6-0.6-1.2-0.8-1.8
			c-0.3-1-0.6-2-0.5-3.1c0.1-0.7,0-1.5,0-2.2c0-0.7,0-1.4,0.1-2.1c0.1-0.9,0.5-1.7,1-2.5c0.7-1.1,1.5-2.2,2.4-3.2
			c0.6-0.7,1.4-1.2,2.1-1.8c1.2-0.9,2.6-1.3,4-1.8c0.4-0.2,0.9-0.1,1.4-0.2c0.5-0.1,1-0.1,1.5-0.1c1.1-0.2,2.2,0.2,3.2,0.5
			c0.5,0.1,0.9,0.3,1.4,0.5c0,0,0.1,0.1,0.1,0.1c0.7-0.1,1.2,0.3,1.8,0.6c0.6,0.3,1.2,0.5,1.7,0.8c0.6,0.3,0.7,0.9,0.8,1.5
			c0.1,0.7,0.1,1.3,0.1,2c0,0.9,0.1,1.7,0.1,2.6c0,0.3-0.1,0.5-0.1,0.8c0,0.3-0.2,0.4-0.5,0.4c-1.1,0.1-2.2,0.5-3.4,0.5
			c-0.5,0-1,0.1-1.5,0.1c-0.6,0-1-0.4-1-1c0-0.2,0-0.5-0.1-0.7c0-0.3-0.1-0.6-0.1-1c0-0.3-0.1-0.5-0.1-0.8c-1.2,0.1-2.4,0.2-3.5,0.3
			c-0.4,0-0.8,0.2-1.1,0.5c-0.9,0.7-1.6,1.5-2,2.5c-0.6,1.2-0.9,2.5-0.5,3.8c0.1,0.3,0.4,0.6,0.6,0.9c0.1,0.2,0.3,0.3,0.4,0.5
			c-0.2,0.3-0.4,0.3-0.6,0.1c-0.2-0.2-0.3-0.4-0.5-0.6c-0.2-0.2-0.4-0.5-0.6-0.6c0,0.7,0.4,1.1,0.8,1.6c1,1,2.3,1.5,3.5,2.1
			c0.2,0.1,0.4,0.1,0.5,0.1c0.2,0,0.4,0,0.6,0.1c1.1,0.6,2.2,0.2,3.2-0.2C425.6,53.6,426.5,53,427.4,52.5z M418.5,43.3
			c0,0-0.1-0.1-0.1-0.1c-1.5,0.9-2.2,2.3-2.6,3.9c-0.2,0.9-0.2,1.8,0.2,2.6c0.2-0.8-0.2-1.6,0.1-2.4c0.3-0.8,0.5-1.5,1-2.2
			C417.4,44.5,418,43.9,418.5,43.3z M429.8,43.2c0,0,0.1,0,0.1,0c0.1-0.4,0.2-0.8-0.2-1.3C429.8,42.4,429.8,42.8,429.8,43.2z
			 M429.6,45c0.5-0.3,0.5-0.4,0.2-0.8C429.8,44.5,429.7,44.7,429.6,45z M415.2,50.8c0,0.4,0,0.6,0,0.7c0.2-0.1,0.3-0.2,0.3-0.3
			C415.6,51.1,415.4,51,415.2,50.8z M423.4,37.2c0.2,0.2,0.3,0.4,0.5,0.6C424,37.2,424,37.2,423.4,37.2z M411.4,49.7
			c0-0.3,0-0.5-0.1-0.7C411.1,49.2,411.1,49.3,411.4,49.7z M418.7,59.3c0,0,0,0.1,0,0.1c0.1,0,0.3,0.1,0.4,0.1c0,0,0-0.1,0-0.1
			c-0.1,0-0.1-0.1-0.2-0.1C418.9,59.2,418.8,59.3,418.7,59.3z M419.8,37.1c0-0.1,0-0.1-0.1-0.2c-0.1,0.1-0.3,0.1-0.4,0.2
			c0,0.1,0,0.1,0.1,0.2C419.5,37.2,419.7,37.1,419.8,37.1z M425,45.4c0.1,0,0.1-0.1,0.2-0.1c-0.1-0.1-0.1-0.2-0.2-0.3
			c-0.1,0.1-0.1,0.1-0.2,0.2C424.8,45.2,424.9,45.3,425,45.4z M419.7,41.7c0,0.1,0.1,0.1,0.1,0.2c0.1-0.1,0.2-0.1,0.3-0.2
			c0,0-0.1-0.1-0.1-0.2C419.9,41.5,419.8,41.6,419.7,41.7z M424,42.3c-0.1-0.1-0.2-0.1-0.3-0.1c0,0-0.1,0.1-0.1,0.2
			c0.1,0,0.1,0.1,0.2,0.1C423.9,42.5,423.9,42.4,424,42.3z M416,51.7c-0.1-0.1-0.1-0.1-0.1-0.1c0,0.1-0.1,0.1-0.1,0.2
			c0,0,0.1,0.1,0.1,0.1C416,51.9,416,51.8,416,51.7z M412.1,51.6c0,0-0.1,0-0.1,0.1c0.1,0.1,0.1,0.2,0.2,0.3c0,0,0.1,0,0.1-0.1
			C412.2,51.8,412.1,51.7,412.1,51.6z"/>
		<path class="st2" d="M500.2,35.4c0.1-0.1,0.2-0.2,0.4-0.4c1.1,0.1,2.3,0.3,3.4,0.4c0.2,0,0.5,0,0.7,0c0.2,0,0.4,0,0.6,0.1
			c0.1,0,0.2,0.1,0.3,0c0.8-0.1,1.5,0.1,2.2,0.3c0.4,0.1,0.9,0.1,1.3,0c0.6,0,1.2-0.1,1.9-0.1c0.5,0,0.9,0.5,0.9,1
			c0,0.5,0.1,1,0.1,1.5c0,0.5,0.1,1,0.1,1.5c0,1.3-0.1,2.6,0,4c0,0.4-0.1,0.5-0.4,0.6c-0.3,0.1-0.7,0.1-1,0.1c-0.1,0-0.2,0-0.2,0
			c-0.9,0.5-1.8,0.1-2.7,0.1c-0.2,0-0.4,0.1-0.7,0.1c-0.2-0.8-0.9-1.4-1-2.3c0-0.4-0.3-0.6-0.7-0.7c-0.4-0.1-0.6,0.1-0.6,0.5
			c0,0.9,0,1.8-0.1,2.7c-0.1,0.5,0,1,0.1,1.5c0.2,1.4,0.1,2.9,0.1,4.3c0,0.4,0,0.8-0.1,1.1c0,0.4-0.1,0.8-0.1,1.2
			c0,0.5,0.1,0.6,0.6,0.7c0.5,0.1,1,0.1,1.4,0.2c0.2,0,0.5,0.2,0.5,0.5c0,0.6-0.1,1.1-0.1,1.7c0,0.4,0,0.8,0,1.2c0,0.5,0,1-0.1,1.4
			c0,0.3-0.4,0.5-0.7,0.3c-0.2-0.1-0.3-0.1-0.5-0.1c-1.2,0.1-2.4,0.1-3.6,0.2c-0.4,0-0.9-0.1-1.3-0.1c-0.8,0.1-1.6,0.2-2.3,0.3
			c-0.9,0.1-1.8,0.2-2.7,0.1c-0.5-0.1-0.8-0.4-0.7-0.9c0.1-0.4,0-0.8,0.1-1.2c0-0.8,0.1-1.6,0.1-2.3c0-0.3,0.1-0.6,0.1-1
			c0.3-0.1,0.7-0.1,1-0.2c0.2-0.1,0.5-0.1,0.7-0.2c0.3-0.1,0.5-0.4,0.5-0.8c0-0.5,0.1-0.9,0.2-1.4c0.1-0.3,0.1-0.8-0.1-1.1
			c-0.1-0.3-0.1-0.5,0-0.8c0-0.1,0.1-0.2,0.1-0.3c0.1-1,0.1-2.1,0.1-3.1c0-1-0.1-1.9-0.1-2.9c0-0.1,0-0.2,0-0.3
			c0.2-0.6-0.1-1-0.4-1.4c-0.3,0.1-0.5,0.1-0.8,0.2c-0.5,0.1-0.7,0.3-0.8,0.8c-0.1,0.4-0.1,0.8-0.2,1.2c-0.2,1-0.7,1.4-1.7,1.5
			c-0.8,0-1.7,0.1-2.5,0.1c-0.3,0-0.6,0-0.8,0c-0.9-0.1-1-0.4-1-1.2c0-0.9-0.1-1.8-0.1-2.8c0-0.6-0.1-1.1-0.1-1.7
			c0-0.2-0.1-0.3-0.3-0.5c0,0.1-0.1,0.2-0.1,0.4c0,0.6,0,1.1,0,1.7c0,0.4-0.1,0.8-0.6,0.9c-0.5,0.1-1.1,0.3-1.6,0.4
			c-0.1,0-0.2,0-0.3,0c-0.1,0-0.2-0.1-0.2-0.2c0.1-0.1,0.1-0.2,0.2-0.2c0.4-0.1,0.8-0.2,1.2-0.4c0.4-0.1,0.5-0.4,0.5-0.7
			c0.1-0.6,0.1-1.3,0.1-1.9c0-0.7,0.1-0.7,0.9-0.7c0-0.3,0-0.6,0-0.9c0-0.1,0-0.3,0-0.4c0.1-0.7,0.6-1.1,1.3-1.2
			c1.1-0.2,2.3-0.4,3.4-0.3c0.7,0,1.4-0.1,2.1-0.1c0.2,0,0.5,0,0.7,0c0.9-0.1,1.9-0.1,2.8-0.2C499.7,35.4,499.9,35.4,500.2,35.4z
			 M501.3,35.9c0,0.1,0,0.1,0,0.2c0.7,0.1,1.5,0.5,2.2,0.1c-0.4-0.1-0.8-0.2-1.3-0.2C502,35.9,501.6,35.9,501.3,35.9z M501.4,57.2
			c0.1,0,0.1,0,0.2,0c0-0.4,0-0.8,0-1.2c0,0-0.1-0.1-0.2-0.1C501.1,56.3,501.2,56.8,501.4,57.2z M507,39.4c0.2,0.3,0.4,0.5,0.7,0.8
			C507.7,39.3,507.6,39.2,507,39.4z M504,49.1c-0.1,0.4-0.1,0.6-0.1,0.8C504.4,49.9,504.4,49.9,504,49.1z M511.3,42.3
			c0,0.3-0.4,0.6,0.1,1C511.4,43,511.7,42.7,511.3,42.3z M506.3,37.8c0.1,0.5,0.4,0.5,0.6,0.7c0.2-0.1,0.3-0.2,0.4-0.2
			c0,0,0-0.1-0.1-0.1C506.9,38.1,506.7,38,506.3,37.8z M507.2,43.5c0,0-0.1,0.1-0.1,0.1c0.1,0.4,0.3,0.5,0.8,0.3
			C507.5,43.8,507.3,43.6,507.2,43.5z M497.8,59c0.2,0,0.4-0.1,0.6-0.1C498.1,58.5,498.1,58.5,497.8,59z M501.9,40.7
			c-0.5,0.3-0.5,0.4,0,0.7C501.9,41.1,501.9,40.9,501.9,40.7z M493.4,40.1c0.1-0.4,0.1-0.6-0.3-0.7C493,39.8,493,40,493.4,40.1z
			 M495.8,36.1c0,0.1-0.1,0.1-0.1,0.2c0.2,0.1,0.3,0.1,0.5,0.2c0,0,0.1-0.2,0.1-0.2C496.1,36.3,495.9,36.2,495.8,36.1z M506.3,54.8
			c0.4-0.4,0.4-0.4,0-0.7C506.2,54.3,506.2,54.5,506.3,54.8z M498.5,55.9c-0.5,0.1-0.4,0.3-0.2,0.5
			C498.3,56.3,498.4,56.1,498.5,55.9z M490.6,45.1c-0.1-0.3-0.2-0.4-0.3-0.6C490,44.9,490.2,45,490.6,45.1z M490.1,36.9
			c-0.1-0.1-0.1-0.1-0.2-0.2c-0.1,0.1-0.2,0.2-0.3,0.2c0.1,0.1,0.1,0.1,0.2,0.2C489.9,37,490,37,490.1,36.9z M505.7,36.8
			c0-0.1,0.1-0.1,0.1-0.2c-0.1-0.1-0.3-0.2-0.4-0.2c0,0.1-0.1,0.1-0.1,0.2C505.4,36.6,505.6,36.7,505.7,36.8z M493.7,42.8
			c0,0-0.1,0-0.1-0.1c-0.1,0.1-0.4,0.2-0.2,0.6C493.6,43.2,493.7,43,493.7,42.8z M503.5,44.5c0.4,0.1,0.4-0.1,0.4-0.5
			C503.8,44.2,503.7,44.3,503.5,44.5z M497,58c-0.1,0-0.1-0.1-0.2-0.1c-0.1,0.1-0.1,0.2-0.2,0.4c0,0,0.1,0.1,0.1,0.1
			C496.9,58.2,496.9,58.1,497,58z M505.9,37.7c-0.1,0.1-0.2,0.2-0.2,0.2c0.1,0.1,0.1,0.1,0.2,0.2c0,0,0.1-0.1,0.1-0.1
			C506,37.9,506,37.8,505.9,37.7z M508.3,37.7c0.1,0.1,0.2,0.2,0.2,0.2c0.1,0,0.1-0.1,0.2-0.2c-0.1,0-0.1-0.1-0.2-0.1
			C508.5,37.6,508.5,37.7,508.3,37.7z M499.9,56.3C499.9,56.3,500,56.3,499.9,56.3c0-0.2-0.1-0.3-0.2-0.4c0,0-0.1,0.1-0.1,0.1
			C499.7,56.1,499.8,56.2,499.9,56.3z M490.1,43.8c0,0,0.1,0,0.1,0c0-0.1,0.1-0.2,0.1-0.4c0,0-0.1,0-0.1,0
			C490.2,43.6,490.2,43.7,490.1,43.8z M508.3,39.4c0.1,0,0.1,0,0.2,0c0-0.1-0.1-0.2-0.1-0.3c0,0-0.1,0-0.1,0
			C508.3,39.2,508.3,39.3,508.3,39.4z M499.4,52.4c0,0,0.1,0.1,0.1,0.1c0.1-0.1,0.2-0.2,0.3-0.3c0,0-0.1-0.1-0.1-0.1
			C499.6,52.2,499.5,52.3,499.4,52.4z M507.7,42.3c-0.1,0.1-0.1,0.2-0.1,0.2c0.1,0.1,0.1,0.1,0.2,0.1c0,0,0.1-0.1,0.1-0.1
			C507.9,42.4,507.8,42.4,507.7,42.3z"/>
		<path class="st2" d="M441.2,60.6c0.1,0,0.2,0,0.4,0c1.3,0.2,2.5,0.4,3.8,0.5c0.9,0.1,1.8-0.1,2.7-0.2c0.1,0,0.3-0.1,0.4,0
			c0.9,0.1,1.8-0.2,2.6-0.5c1.1-0.3,2.1-0.7,3.1-1.1c0.4-0.2,0.8-0.4,1.2-0.7c0.6-0.5,1.2-1.1,1.7-1.7c0.6-0.9,1.3-1.7,1.7-2.8
			c0.3-0.8,0.5-1.6,0.5-2.5c0-0.3,0.1-0.7,0.1-1c0.1-0.7,0.2-1.5,0.1-2.2c-0.2-1.3-0.3-2.6-0.8-3.8c-0.2-0.5-0.3-0.9-0.6-1.5
			c0.4,0.2,0.8,0.7,1,1.2c0.2,0.7,0.5,1.4,0.7,2c0,0.1,0.1,0.2,0.1,0.3c0.1,0.7,0.2,1.5,0.2,2.2c0,0.4,0,0.9,0,1.3
			c0,0.6-0.1,1.1-0.2,1.7c-0.1,0.7-0.2,1.4-0.4,2c0,0.1-0.1,0.2-0.1,0.3c0.1,0.8-0.5,1.3-0.9,1.9c-0.6,1-1.3,1.8-2,2.6
			c-0.4,0.5-1,0.9-1.6,1.2c-0.8,0.4-1.7,0.7-2.5,0.9c-1.2,0.3-2.4,0.7-3.7,0.7c-1.1,0-2.1,0.1-3.2,0.2c-0.2,0-0.3,0-0.5,0
			c-1-0.2-2-0.3-3.1-0.5c-0.3,0-0.5-0.3-0.7-0.4C441.2,60.7,441.2,60.6,441.2,60.6z"/>
		<path class="st2" d="M516.3,59.8c0.2,0,0.4,0,0.5,0c1.2,0.3,2.4,0.1,3.6,0.2c1.3,0,2.6,0,4-0.1c1.1-0.1,2.2,0.2,3.3,0
			c0.8-0.1,1.7-0.1,2.6-0.2c1.5,0,2.9,0,4.4,0c0.7,0,1-0.3,1.1-0.9c0-0.2,0-0.3,0-0.5c0-1.3,0-2.6,0-4c0-0.5,0.1-1,0.1-1.5
			c0.3,0,0.4,0.1,0.5,0.4c0.2,1.1,0.1,2.3,0,3.4c0,0.3,0.3,0.7-0.1,1c0.2,0.5,0.1,1.1,0,1.6c-0.1,0.3-0.2,0.6-0.3,0.9
			c-0.2,0-0.4-0.1-0.5,0c-0.7,0.4-1.4,0.3-2.2,0.3c-0.7,0-1.5,0.1-2.2,0.1c-0.2,0-0.5-0.1-0.7-0.1c-0.4,0.1-0.8-0.2-1.1,0.2
			c0,0-0.2,0.1-0.3,0c-0.4-0.2-0.8-0.1-1.1,0c-0.6,0.2-1.2,0-1.8,0c-1.2,0-2.3,0-3.5,0.1c-0.2,0-0.5-0.1-0.7-0.1c-0.9,0-1.9,0-2.8,0
			c-0.9,0.1-1.7-0.1-2.5-0.3C516.4,60.2,516.2,60.1,516.3,59.8z"/>
		<path class="st2" d="M486.5,42.9c0,0.6,0,1.2,0,1.8c0,0.6,0.1,1.2,0.1,1.7c0,0.6,0,1.2,0,1.7c-0.1,1.5-0.2,3-0.2,4.5
			c0,0.7,0.1,1.4,0.1,2.1c0,0.5,0,0.9,0,1.4c0,0.4,0.1,0.9,0.1,1.3c0,0.8,0.2,1.6-0.2,2.4c-0.3,0.6-0.6,0.9-1.3,0.8
			c-1-0.1-1.9-0.1-2.9-0.1c-0.3,0-0.4-0.2-0.4-0.4c0-0.1,0.3-0.3,0.4-0.3c0.8,0.1,1.5,0.2,2.3,0.3c0.5,0.1,0.9-0.3,1.2-0.7
			c0.4-0.5,0.3-1.1,0.3-1.7c0-0.5-0.1-1.1-0.1-1.6c0-0.4,0-0.8,0-1.2c0-0.7,0-1.4,0-2.1c0-0.6,0.1-1.2,0.1-1.9
			c-0.1-1.7,0.3-3.4,0-5.1c0-0.1,0-0.2,0-0.3c0-0.7,0-1.5,0-2.2C485.8,43,485.8,42.9,486.5,42.9z"/>
		<path class="st2" d="M578.4,45.1c0.3-0.1,0.4-0.1,0.6-0.1c0.8,0,1.7,0,2.5,0c0.3,0,0.6-0.1,0.9-0.2c0.2,0,0.4-0.1,0.5-0.1
			c0.5,0,0.7-0.2,0.7-0.7c0-1.2,0-2.5,0-3.7c0-1,0-2,0.1-3.1c0-0.1,0-0.2,0.1-0.4c0.3,0.2,0.6,0.3,0.9,0.5c-0.1,0.9-0.1,1.9-0.2,2.8
			c0,0.6,0,1.2,0,1.9c0,0.4,0.1,0.9-0.1,1.3c-0.1,0.2,0,0.4,0.1,0.7c-0.1,0.2-0.2,0.6-0.3,1c-0.7,0.3-1.6,0.5-2.4,0.6
			c-0.5,0-0.9,0.1-1.4,0.1c-0.5,0-1.1-0.1-1.6-0.2C578.7,45.4,578.6,45.3,578.4,45.1z"/>
		<path class="st2" d="M508.4,56.8c0.1,0.4,0.3,0.7,0.4,1.1c0,0.3,0,0.6-0.1,0.9c-0.1,0.2-0.2,0.4-0.3,0.6c0.1,0.2,0.2,0.4,0.3,0.6
			c-0.2,0.2-0.4,0.4-0.6,0.4c-0.8,0.2-1.6,0.3-2.5,0.3c-0.9,0-1.8-0.1-2.7-0.2c-1.2-0.1-2.3,0.3-3.4,0.5c-0.8,0.1-1.3,0.4-1.8,0
			c0.1-0.2,0.3-0.4,0.6-0.4c0.8-0.1,1.5-0.2,2.3-0.4c1.1-0.3,2.1-0.3,3.2-0.2c1,0.1,2,0.1,3,0.2c0.2,0,0.4,0,0.6-0.1
			c0.2-0.1,0.5-0.3,0.5-0.5c0.1-0.6,0.3-1.1,0.2-1.7c0-0.3,0-0.5,0-0.8C508.2,57,508.3,56.9,508.4,56.8z"/>
		<path class="st2" d="M553.6,44.1c0.4-0.4,0.7-0.5,1.1-0.3c0.1,0.1,0.3,0.2,0.4,0.2c0.7-0.3,1.3,0.2,1.9,0.3c0.1,0,0.1-0.1,0.2-0.1
			c0.8-0.4,0.7-1.2,0.7-1.9c0-0.1-0.1-0.3,0-0.4c0.3-0.9,0.2-1.8,0.1-2.7c0-0.1,0-0.2,0.1-0.3c0.4,0.1,0.6,0.4,0.7,0.8
			c0.3,1.2,0,2.4-0.1,3.6c0,0.3-0.1,0.7-0.1,1c0,0.3-0.1,0.4-0.4,0.4c-0.8,0-1.5,0-2.3-0.1c-0.5,0-1-0.1-1.5-0.1
			C553.9,44.5,553.9,44.5,553.6,44.1z"/>
		<path class="st2" d="M513.4,45.6c-0.7,0.5-1.6,0.6-2.4,0.7c-1,0.2-1.9,0.1-2.9-0.1c0.5-0.2,1-0.4,1.6-0.3c0.5,0.1,1.1-0.1,1.6-0.1
			c0.4-0.1,0.7-0.3,1-0.3c0.4-0.1,0.5-0.4,0.5-0.7c0-1-0.1-2-0.1-3.1c0-0.7,0-1.5,0-2.2c0-0.4-0.1-0.8-0.1-1.2
			c0.6-0.2,0.6-0.2,0.7,0.3c0.3,1.4,0.2,2.8,0.1,4.2c0,0.1,0,0.2,0,0.2c0.5,0.6,0.1,1.2,0.1,1.9C513.3,45.1,513.4,45.3,513.4,45.6z"
			/>
		<path class="st2" d="M462.8,60.7c0.6,0.3,1.1,0.1,1.6-0.1c0.2-0.1,0.4,0,0.6,0c0.3,0,0.7-0.1,1-0.1c0.2,0,0.4,0,0.5,0
			c0.3,0,0.5,0.1,0.8,0c1-0.2,2.1-0.2,3.1,0c0.6,0.1,1.3,0.2,1.9,0.1c0.2,0,0.3-0.1,0.5-0.1c0.6-0.2,0.7-0.6,0.8-1.1
			c0.1-0.8,0-1.6,0.1-2.4c0-0.1,0-0.3,0.2-0.4c0.1,0.2,0.2,0.3,0.2,0.5c0,0.9,0,1.8,0,2.6c0,0.1,0,0.2-0.1,0.3c-0.4,0.5-0.7,1-1.5,1
			c-0.5,0-1-0.1-1.4-0.1c-0.5,0-0.9,0-1.4,0c-0.9,0-1.9,0.1-2.8,0.1c-0.8,0-1.6,0.1-2.5,0.2c-0.4,0-0.7,0-1.1,0
			C463.1,61.3,462.9,61.2,462.8,60.7z"/>
		<path class="st2" d="M530.3,46.6c0.1,0.4,0.4,0.6,0.1,1c-0.1,0.2-0.1,0.5-0.2,0.9c0.2,0.3,0.1,0.8-0.2,1.2c-0.3,0.4-0.4,1-0.8,1.3
			c-0.6,0.5-1.2,0.4-1.9,0.4c-0.6,0-1.1-0.2-1.7-0.2c-0.6-0.1-0.8,0-0.9,0.7c0,0.1,0,0.1-0.1,0.2c0,0,0,0-0.1,0.1
			c-0.1-0.1-0.4-0.2-0.3-0.3c0.1-0.4,0.1-0.9,0.4-1.1c0.2-0.2,0.7-0.3,1.1-0.2c0.9,0.1,1.8,0.2,2.7,0c0.3-0.1,0.5-0.2,0.5-0.4
			c0.1-0.3,0.3-0.5,0.5-0.7c0.2-0.2,0.3-0.6,0.4-0.9c0.1-0.6,0.1-1.1,0.2-1.7C530,46.8,530.1,46.7,530.3,46.6z"/>
		<path class="st2" d="M531.8,44.4c0.3-0.2,0.6-0.4,0.9-0.5c0.1,0,0.1,0,0.2,0c0.4,0.1,1.5,0.1,1.8-0.1c0.1-0.1,0.2-0.2,0.3-0.3
			c0.2-0.5,0.4-1,0.6-1.5c0.1-0.4,0.1-0.8,0.1-1.1c-0.1-0.5-0.2-1-0.3-1.6c-0.1-0.6,0-1.2,0.3-1.8c0.2,0.2,0.4,0.3,0.5,0.4
			c0,0.5,0,0.8-0.1,1.2c-0.1,0.6,0.3,1.2,0.2,1.8c0,0.5,0.1,1.1-0.4,1.5c-0.1,0.1-0.1,0.3-0.1,0.5c0.1,0.6,0.1,0.6-0.4,0.9
			c-0.7,0.5-1.1,0.6-1.9,0.6c-0.2,0-0.3,0-0.5,0.1C532.6,44.7,532.2,44.7,531.8,44.4z"/>
		<path class="st2" d="M431.2,40.4c0,0.1,0.1,0.2,0.1,0.3c-0.1,1.2,0.3,2.3,0.3,3.4c0,0.6,0,1.1,0,1.7c0,0.3-0.2,0.5-0.5,0.7
			c-0.7,0.5-1.5,0.6-2.3,0.8c-0.7,0.1-1.4,0-2.3-0.2c0.4-0.4,0.8-0.4,1.2-0.3c0.8,0,1.7,0,2.4-0.3c0.7-0.3,0.9-0.5,0.8-1.2
			c-0.1-0.9-0.1-1.9-0.2-2.8c0-0.5-0.1-1-0.1-1.4c0-0.2,0.1-0.4,0.1-0.5C431.1,40.4,431.1,40.4,431.2,40.4z"/>
		<path class="st2" d="M561.1,45.2c0.4-0.3,0.7-0.2,1.1-0.2c0.1,0,0.2,0.1,0.4,0.1c0.6-0.1,1.2-0.2,1.8-0.3c0.3,0,0.5,0,0.8,0.1
			c0.6,0.1,0.9-0.1,0.9-0.6c0.1-0.7,0.2-1.3,0.2-2c0.5-0.1,0.6-0.1,0.6,0.4c0.1,0.6,0.1,1.3,0.1,2c0,0.1-0.5,0.8-0.6,0.8
			c-0.5,0-1,0.1-1.4,0.1c-1-0.2-1.9,0-2.8,0.1C561.8,45.6,561.5,45.4,561.1,45.2z"/>
		<path class="st2" d="M495.7,46.1c0.3-0.5,0.6-0.9,0.5-1.4c0-0.5,0-1,0-1.5c0.6-0.1,0.7,0,0.7,0.6c0,0.7-0.1,1.5-0.2,2.2
			c0,0.3-0.4,0.6-0.7,0.7c-0.9,0.2-1.8,0.2-2.7,0.2c-0.5,0-1-0.3-1.5-0.5c0-0.1,0-0.1,0-0.2c0.4,0,0.8,0.1,1.2,0.1
			c0.4,0,0.8,0,1.2,0C494.8,46.2,495.3,46.1,495.7,46.1z"/>
		<path class="st2" d="M524.3,42.6c0.1-0.2,0.2-0.4,0.3-0.6c0.2-0.4,0.7-0.6,1-0.4c0.5,0.4,1.2,0.4,1.8,0.4c0.4,0,0.7,0.1,1,0.4
			c-0.2,0.4-0.5,0.4-0.9,0.3c-0.9-0.2-1.7-0.4-2.6-0.6C524.7,42.3,524.5,42.4,524.3,42.6C524.3,42.6,524.3,42.6,524.3,42.6z"/>
		<path class="st2" d="M471.3,50.3c0,0.5,0,0.9,0,1.3C470.9,50.7,470.9,50.6,471.3,50.3z"/>
		<path class="st2" d="M471,53c-0.2-0.3-0.3-0.6,0.1-1C471.2,52.4,471.5,52.7,471,53z"/>
		<path class="st2" d="M505.7,43.7c-0.1,0-0.1-0.1-0.2-0.1c0.1-0.1,0.1-0.1,0.2-0.2c0,0,0.1,0.1,0.1,0.1
			C505.8,43.6,505.8,43.7,505.7,43.7z"/>
		<path class="st2" d="M505.4,42.4c0,0.2,0,0.3,0,0.5C505.2,42.7,505.2,42.5,505.4,42.4z"/>
		<path class="st2" d="M440.8,50.7c-0.3-0.2-0.5-0.2-0.5-0.4c-0.2-0.6-0.4-1.3-0.2-2c0.1-0.3,0-0.7,0.1-1.1c0-0.3,0.1-0.5,0.2-0.8
			c0-0.1,0.1-0.2,0.1-0.2c0.1-0.8,0.6-1.3,1.1-1.9c0.4-0.6,1.1-0.7,1.7-1c0.3-0.1,0.5-0.3,0.8-0.4c1.2-0.6,2.4-0.9,3.7-0.6
			c0.1,0,0.1,0.1,0.2,0.1c-0.1,0.1-0.2,0.2-0.3,0.2c-0.2,0-0.4,0-0.6,0c-0.8,0-1.7,0.1-2.4,0.6c-0.4,0.3-0.9,0.5-1.4,0.7
			c-0.8,0.3-1.4,0.8-1.8,1.5c-0.4,0.7-0.7,1.5-0.7,2.3c0,0.2,0,0.4-0.1,0.5c-0.1,0.6-0.2,1.3,0,1.9
			C440.8,50.3,440.8,50.4,440.8,50.7z"/>
	</g>
	<g>
		<path class="st2" d="M77.1,35.4c-0.1-0.7,0.2-1,0.9-1c1.8,0,3.5-0.2,5.3-0.2c0.3,0,0.5,0.3,0.6,0.3c0.5-0.1,0.8-0.4,1.2-0.3
			c1.7,0.3,3.4,0.2,5.1,0c1-0.1,2,0.3,3,0.4c0.1,0,0.3,0,0.4-0.1c1.9-0.8,3.8-0.4,5.6,0c0.9,0.2,1.8,0,2.6,0.2
			c0.7,0.1,1.4,0.3,2.2,0.5c-0.1,1.5-0.4,2.9-0.4,4.4c-0.1,3.6-0.2,7.2-0.2,10.9c-0.1,3.1-0.1,6.2-0.1,9.2c0,2.3,0.1,4.7,0.2,7
			c0,1.1-0.9,2-2.1,2.1c-1.8,0.1-3.6,0.3-5.4,0.4c-1.3,0-2.5-0.3-3.8-0.3c-3.5-0.1-7,0-10.4-0.1c-3.4-0.1-6.9-0.2-10.3-0.4
			c-2.3-0.1-4.7-0.5-7-0.6c-1.1-0.1-2.3,0.1-3.4,0c-1.6-0.1-3.2-0.5-4.7-0.6c-1.5-0.1-3,0.2-4.5,0.2c-1.1,0-2.2-0.2-3.2-0.3
			c-0.1,0-0.2-0.1-0.3,0c-2.2,0.8-4.5-0.3-6.8,0.4c-2.2,0.7-4.5,0-6.8,0c-1.7,0-3.4,0.1-5.1,0.1c-0.6,0-1.2-0.3-1.8-0.2
			c-1.6,0.1-3.2,0.3-4.8,0.5c-0.4,0-0.9,0.1-1.3,0c-2-0.5-4,0.6-6-0.4c-0.4-0.2-0.9,0.1-1.4,0C13.3,67.3,12.1,67,11,67
			c-1.5-0.1-3.1,0-4.6,1.1c-0.1-1-0.2-2-0.4-2.9c-0.7-3.9,0.1-7.9,0.1-11.8c0-3.3-0.3-6.6-0.4-9.9c0-2.7,0.1-5.5,0.2-8.2
			c0-0.5,0.4-1,0.6-1.5c0.1-0.2,0.4-0.4,0.5-0.3c1,0.8,2,0,2.8-0.1c2-0.3,3.9,0,5.9,0.1c1.7,0.1,3.4,0.2,5.1,0.2
			c2.3,0,4.6-0.1,6.8-0.1c1.2,0,2.4,0,3.6-0.1c0.7-0.1,1.4,0.5,2-0.3c0.1-0.2,0.7-0.1,0.9,0c1.3,0.8,2.5,0.1,3.8,0
			c1.3-0.1,2.6,0,3.8,0c0.1,0,0.3,0.1,0.4,0c1.8-0.5,3.5,0,5.3,0c2.3,0.1,4.7-0.1,7,0c1.3,0.1,2.6-0.1,3.8,0.1
			c1.2,0.2,2.2,0.2,3.3,0.1c0.3,0,0.7,0.3,1.1,0.3c0.6,0,1.2-0.1,1.8,0c0.8,0.2,1.5,0.3,2.4-0.1c0.4-0.2,1.1,0.1,1.6,0.2
			c1.1,0.2,2.2,0.5,3.3,0.6c0.9,0.1,1.8,0.3,2.6,0.3c0.7-0.1,1.5-0.5,2.2-0.8C76.9,34.6,77,35,77.1,35.4c-1.4,0.2-2.7,0.5-4.1,0.5
			c-1.3,0-1.5,0-1.5,1.4c0,2.2,0,4.5,0,6.7c0,3,0.1,6,0.2,9.1c0,2.2,0.1,4.4,0.2,6.5c0,2.1,0,4.1-0.1,6.2c0,0.8,0.4,1.1,1.1,1.2
			c0.9,0.1,1.8,0.2,2.8,0.2c2.3,0,4.5,0,6.8,0.1c2.2,0.1,4.4,0.3,6.5,0.3c2-0.1,4-0.4,6-0.2c1.8,0.2,3.6,0.2,5.4,0.1
			c0.4,0,1-0.4,1-0.7c0.1-1.4,0.2-2.9,0.2-4.3c0-2.7-0.1-5.5,0-8.2c0.1-2.5,0.4-4.9,0.5-7.4c0.1-1.7,0.2-3.4,0.3-5.1
			c0.1-1.5,0.2-3,0.3-4.5c0-0.7-0.3-1.1-1-1.2c-0.9-0.1-1.9-0.2-2.8-0.2c-1-0.1-2-0.2-3.1-0.3c-0.4,0-1.2-0.1-0.9,0.8
			c-0.1-0.2-0.3-0.4-0.3-0.5c-2,0-4,0-5.9,0c-2,0-4.1-0.1-6.1-0.2C80.8,35.6,79,35.5,77.1,35.4z M38.3,34.8c-0.2,0-0.5-0.1-0.9-0.1
			c-1.7,0-3.4,0-5.1,0c-3.5,0.1-7,0.3-10.5,0.4c-2.1,0-4.1-0.2-6.2-0.3c-1.5-0.1-3-0.3-4.4-0.3c-1.3,0-2.6,0.2-3.9,0.3
			c-0.2,0-0.4,0.3-0.4,0.4c-0.1,1.3-0.3,2.5-0.3,3.8c0,1.6,0.2,3.2,0.2,4.8c0.1,2.3,0.1,4.5,0.1,6.8c0,2.5,0,5.1-0.1,7.6
			c0,1.4-0.2,2.9-0.1,4.3C6.7,63.8,7,65,7.2,66.3c1.4-0.4,4-0.4,5.4-0.2c2,0.3,4.1,0.6,6.1,0.5c3.3,0,6.5-0.3,9.8-0.5
			c0.9-0.1,1.8-0.3,2.7-0.3c1.9,0.1,3.9,0.3,5.8,0.4c0.5,0,1.1,0,1.5,0c-0.1-5.3-0.2-10.5-0.2-15.7C38.2,45.4,38.2,40.2,38.3,34.8z
			 M70.8,66.8c-0.1-5.4-0.2-10.6-0.4-15.7c-0.2-5.2,0.6-10.4,0-15.4c-1.1-0.2-2-0.3-2.9-0.4c-2.4-0.2-4.7-0.3-7.1-0.4
			c-1.1-0.1-2.1-0.1-3.2-0.1c-0.6,0-1.2,0-1.9,0c-0.7,0-1.5-0.1-2.2-0.1c-1,0-2,0.2-3,0.2c-1.3,0-2.5-0.3-3.8-0.4
			c-1.7,0-3.4,0.2-5.1,0.1c-1.2-0.1-1.4,0.6-1.5,1.4c-0.1,1-0.2,2-0.2,3c0,4.7,0,9.4,0.1,14.2c0,1.9,0.1,3.8,0.1,5.7
			c0,2.2-0.5,4.5,0.5,6.7c0.3,0.6,0.5,0.7,1,0.6c1.1-0.1,2.2-0.2,3.3-0.2c2,0,4.1,0.1,6.1,0.1c1.9,0,3.7,0,5.6,0
			c1.6,0,3.1,0,4.7,0.1c1.5,0,3,0.1,4.5,0.2C67.1,66.4,68.8,66.6,70.8,66.8z"/>
		<path class="st2" d="M137.6,60.8c-0.6,0-1.2,0.1-1.7,0.1c-0.8,0-1.5-0.2-2.3-0.2c-1.2,0-1.5-0.5-1.5-1.6c0-3.9,0-7.8,0-11.7
			c0-0.9-0.7-1.2-1.4-1.4c-0.6-0.2-1.2-0.2-1.8-0.1c-1.1,0.2-0.7,1.3-0.8,1.9c-0.1,2.6-0.1,5.2-0.1,7.7c0,1.2,0,2.5,0,3.7
			c0,1.4-0.2,1.6-1.5,1.6c-1.2,0-2.3,0-3.5,0c-0.7,0-1.2-1-1-1.8c0.2-0.6,0.3-1.3,0.3-2c0.1-1.9,0.3-3.9,0.3-5.9
			c0-1.2,0.5-2.6-0.5-3.7c-0.5-0.6-0.9-1.2-1.5-1.7c-0.6-0.5-1.9,0.2-2,1c-0.2,1.4-0.4,2.8-0.4,4.2c-0.1,2.8-0.1,5.5-0.1,8.3
			c0,0.5,0.2,1,0.3,1.4c-1.3,0-2.8-0.1-4.2,0c-1,0.1-1.2-0.4-1.2-1.3c0.1-2,0.2-4.1,0.2-6.1c0-2.1,0-4.1,0-6.2
			c0-1.8,0.1-3.5,0.2-5.2c0.1-1.1,0.5-1.3,1.6-1.1c0.9,0.2,1.8,0.1,2.7,0.1c0.2,0,0.4,0,0.6,0.1c-0.2,0.9,0.2,1.3,0.9,1
			c1-0.3,2-0.7,3-1c0.3-0.1,0.7,0.1,1.1,0.2c0.2,0.1,0.4,0.2,0.7,0.3c0.6,0.2,1.3,0.2,1.8,0.8c0.2,0.2,0.9,0,1.3-0.2
			c0.3-0.1,0.7-0.4,0.8-0.6c0.5-1.4,2.1-0.8,2.9-1.6c0.1-0.1,0.2-0.1,0.3,0c2.1,0.9,4.5,1.3,6.2,3c0.2,0.2,0.4,0.5,0.4,0.7
			c0.1,1.7,0.2,3.4,0.2,5.1c0,1.4,0,2.7-0.1,4.1c-0.1,1.9-0.2,3.8-0.3,5.6C137.6,59,137.6,59.8,137.6,60.8z"/>
		<path class="st2" d="M142.2,41.1c1.6,0.1,3,0.2,4.5,0.4c0.3,0,0.7,0.5,0.7,0.8c0,3.3-0.1,6.6-0.1,9.9c0,1,0.2,2,0.4,2.9
			c0.2,0.8,0.8,1.2,1.7,1.3c1,0.1,2-0.3,2.4-1.1c0.6-0.9,1-2.1,1.1-3.2c0.2-2.2,0.2-4.4,0.3-6.6c0-1.1,0-2.2,0-3.3
			c0-0.4,0-1,0.2-1.1c0.5-0.3,1.2-0.5,1.8-0.6c0.7-0.1,1.4,0.1,2.1,0.2c1,0.2,1.5,0.9,1.5,1.8c0.1,2.7,0.1,5.4-0.1,8
			c-0.2,2-0.3,4.1-1.1,6.1c-1.2,2.7-3.3,3.9-6.3,3.8c-1.1,0-2.2,0.4-3.2-0.3c-1.8-1.2-3.8-2.1-5.5-3.4c-0.7-0.6-1-2-1.1-3
			c-0.2-2-0.2-4-0.1-5.9C141.5,45.7,141.9,43.5,142.2,41.1z"/>
		<path class="st2" d="M206.2,41.5c-0.5,1.1-0.8,2.4-1.5,3.3c-0.5,0.5-1.7,0.7-2.5,0.5c-2.2-0.6-4.6,0.2-6.1,1.9
			c-1.3,1.5-1.5,3.1-1.3,4.9c0.3,2.2,1.8,3.6,4,4c1.6,0.3,3.2-0.1,4.7-0.5c0.3-0.1,0.5-0.1,0.9-0.2c0.3,1,0.7,2,1,2.9
			c0.2,0.8-0.3,1.5-1.3,1.8c-1.3,0.4-2.6,0.5-4,0.6c-1.9,0.1-3.5-0.3-5.1-1c-2.2-1-3.8-2.6-4.6-4.9c-0.4-1.1-0.7-2.4-0.9-3.6
			c-0.3-2.4-0.1-4.8,1.1-7c1.9-3.5,5.7-5.8,9.2-4.9c1,0.3,2.2,0.1,3.2,0.4C204,40.1,204.9,40.8,206.2,41.5z"/>
		<path class="st2" d="M161.5,59c0.5-1,1-1.8,1.5-2.7c0.2-0.3,0.6-0.5,0.9-0.5c1.2,0.1,2.5,0.3,3.7,0.5c1.2,0.2,1.9-0.1,2.2-1.1
			c0.3-1.2-0.3-2.6-1.3-2.8c-0.7-0.2-1.3-0.3-2-0.3c-1.7,0-2.8-0.9-3.8-2.1c-0.1-0.1-0.2-0.2-0.2-0.4c-0.5-1.8-0.7-3.7-0.2-5.6
			c0.7-3.3,3.3-4,6.1-4.4c1.8-0.3,3.5,0.1,5.1,1.1c0,0,0.1,0,0.1,0.1c0.7,0.4,1.9,0.8,1.8,1.1c-0.1,1-0.6,1.9-1,2.8
			c-0.2,0.3-0.8,0.5-1.3,0.4c-1.3-0.1-2.7-0.4-4-0.5c-1.2-0.1-2,0.6-2,1.4c0,1,0.3,2,1.6,2.2c1.4,0.2,2.8,0.6,4.1,1.3
			c1.8,0.9,3,2.5,3,4.7c0.1,2.8-1.7,5.1-4.4,6c-2.3,0.8-4.6,0.8-6.8,0.2c-0.7-0.2-1.8-0.1-2.1-1.2C162.4,59.2,162,59.2,161.5,59z"/>
		<path class="st2" d="M137.8,32.7c-0.1,1-0.2,2.2-0.3,3.4c-0.1,0.8-0.7,1-1.3,0.7c-2.3-1.5-4.8-2.6-7.7-2.5c-1.6,0-3.2-0.1-4.7,0
			c-2.1,0.1-4,0.9-5.9,1.8c-0.9,0.4-1.8,0.9-2.7,1.3c-1.1,0.5-1.5,0.2-1.7-0.9c-0.1-0.9-0.3-1.7-0.2-2.6c0.1-0.6,0.1-1.2,0.9-1.6
			c1.8-0.9,3.5-2.1,5.3-3.2c0.5-0.3,1.2-0.4,1.8-0.4c1.8-0.2,3.7-0.6,5.5-0.2c1,0.2,2,0,3,0.1c0.3,0,0.8,0.3,0.9,0.6
			c0.2,0.7,0.6,0.7,1.1,0.5c0.4-0.2,0.8-0.4,1,0.3c0.1,0.2,0.8,0.5,1.1,0.4c1.1-0.4,1.4,0.8,2.1,1.1
			C136.7,31.7,137.2,32.1,137.8,32.7z"/>
		<path class="st2" d="M137,64.4c1,1.2,0.6,4-0.7,4.7c-1.5,0.9-3.1,1.7-4.8,2.3c-1.8,0.6-3.8,1-5.7,1.3c-0.7,0.1-1.5,0-2.1-0.2
			c-2.3-0.8-4.8-0.6-6.9-1.9c-1.1-0.7-2.2-1.5-3.1-2.3c-0.8-0.8-0.8-3.4-0.1-4.2c0.4-0.5,0.7-0.8,1.3-0.1c1.8,1.9,4,3,6.7,3.4
			c1.4,0.2,2.8,0.2,4.1,0.1c2.4-0.2,4.7-0.7,7-1.4c1.1-0.3,2.2-0.7,3.3-1.1C136.4,64.9,136.7,64.7,137,64.4z"/>
		<path class="st2" d="M185.2,59.1c-0.7,0.1-1.1,0.2-1.6,0.2c-0.9,0-1.9,0.3-2.7,0c-0.4-0.2-0.7-1.3-0.7-1.9
			c-0.2-3.4-0.3-6.8-0.3-10.2c0-2,0.2-3.9,0.4-5.9c0.1-0.8,0.9-1.2,1.9-1.1c0.8,0.1,1.6,0.2,2.4,0.2c0.8-0.1,1,0.3,1,1
			c0,1,0.1,2,0.1,3c0,2.4,0,4.7,0,7.1c0,0.9,0.2,1.8,0.2,2.7C186,55.8,185.7,57.6,185.2,59.1z"/>
		<path class="st2" d="M126.7,79.7c-1.4-0.1-2.9-0.2-4.3-0.4c-0.5-0.1-1.1-0.3-1.6-0.5c-0.2-0.1-0.4-0.4-0.5-0.3
			c-1.4,0.4-1.9-0.9-2.7-1.4c-0.3-0.2-0.8-0.5-0.8-0.8c0-1.1,0.1-2.2,0.3-3.3c0-0.1,0.8-0.2,1.1-0.1c0.7,0.2,1.3,0.6,1.9,1
			c2.1,1.1,4.5,1.1,6.8,1.4c0.2,0,0.5-0.1,0.7-0.1c2.2-0.6,4.4-1.3,6.5-1.9c0.4-0.1,1.1-0.2,1.1-0.2c0.2,0.6,0.5,1.3,0.4,1.9
			c-0.2,1.5-1.2,2.3-2.5,3c-1.7,0.8-3.4,1.4-5.2,1.7C127.5,79.5,127.1,79.5,126.7,79.7C126.7,79.6,126.7,79.6,126.7,79.7z"/>
		<path class="st2" d="M135.8,26.7c0,0.5,0,0.9-0.1,1.2c0,0.3,0,0.8-0.2,1c-0.2,0.1-0.7,0-1-0.2c-1.9-1.2-4-2.2-6.3-2.3
			c-2.1,0-4.2,0.2-6.3,0.4c-1.2,0.1-2.3,0.5-3.2,1.4c-0.4,0.4-1.3,0.6-1.8,0.4c-0.8-0.3-0.8-1.1-0.6-2c0.4-1.7,2.8-3.9,4.6-4
			c0.6,0,1.1-0.3,1.7-0.4c0.6-0.1,1.2-0.3,1.7-0.4c0.4-0.1,0.9,0,1.3-0.1c2.2-0.2,4.1,0.3,6,1.5c0.3,0.2,0.9,0.1,1.2,0.3
			c1,0.8,2,1.7,2.9,2.6C135.8,26.3,135.8,26.6,135.8,26.7z"/>
		<path class="st2" d="M81.5,41.9c1.5,0.1,2.9,0.2,4.3,0.3c0.1,0.6,0.2,1,0.3,1.5c0.1,0,0.2,0,0.3,0.1c0.1-0.1,0.1-0.3,0.2-0.4
			c1.3-1.7,2.8-2.1,4.7-1.2c0.1,0,0.2,0.1,0.3,0.1c2,0.8,2.2,1.9,0.8,3.7c-0.7,0.9-1.2,0.9-2.2,0.6c-2-0.5-4.2,0.2-4.1,3
			c0.1,3.2-0.2,6.4-0.3,9.6c0,1.4-0.9,1.6-2.3,1.4C81.3,60.2,81,59,81.1,57c0.2-2.6,0.1-5.1,0.1-7.7C81.3,46.9,81.4,44.4,81.5,41.9z
			"/>
		<path class="st2" d="M14,55.1c0-2.9-0.1-5.8,0-8.7c0-1.4,0.3-2.7,0.5-4.1c0.1-0.6,0.4-0.9,1-0.8c0.2,0,0.5,0.1,0.8,0
			c1-0.5,1.5-0.1,2.1,0.7c0.5,0.7,1.2,0.3,1.7,0c1.5-1.1,3.2-1.2,4.9-1.1c1.9,0.1,3.1,1.3,4,3c1,1.7,0.9,3.6,1.1,5.4
			c0.2,1.8,0.2,3.6,0.2,5.4c-0.1,1.6-0.4,3.1-0.7,4.6c0,0.2-0.6,0.5-0.8,0.4c-1-0.1-2.1-0.2-3.1-0.5c-0.3-0.1-0.7-0.7-0.7-1
			c0-1.2,0.2-2.3,0.3-3.5c0.2-2.6,0.1-5.2-0.4-7.7c-0.5-2.4-2.7-2.1-4.1-1.3c-2.1,1.2-1.9,3.1-1.8,5c0,2.3,0.2,4.6,0.3,6.9
			c0,1.3-1.6,2-2.9,1.2c-0.1-0.1-0.2-0.3-0.3-0.3c-2.4-0.1-1.9-1.9-1.9-3.4C14,55.4,14,55.2,14,55.1C14,55.1,14,55.1,14,55.1z"/>
		<path class="st2" d="M47.5,64.8c-0.1-0.5-0.3-0.9-0.3-1.4c-0.1-4.4-0.1-8.7-0.1-13.1c0-2.5,0-4.9,0.1-7.4c0.1-1.5,1.5-1.2,2.4-1.6
			c0.4-0.2,1.5,0.2,1.8,0.7c0.5,0.8,0.9,0.6,1.4,0.2c2.1-1.8,8.2,0.1,9.3,2.8c1.2,2.9,2.1,5.9,0.9,9c-0.6,1.5-1.6,2.9-2.4,4.3
			c-0.2,0.3-0.7,0.6-1.1,0.6c-2.4,0.4-4.8,0.9-7.1-0.4c-0.6-0.3-0.9-0.1-0.9,0.6c0.1,1.5,0.1,3.1,0.2,4.6c0.1,0.9-0.8,1.4-1.9,1
			c-0.6-0.2-1.3-0.2-2-0.3C47.7,64.7,47.6,64.8,47.5,64.8z M51.7,52.4c-0.2,3.4,0.5,2.7,2.9,2.7c1.3,0,2.4-0.6,3-1.6
			c1.2-2.3,0.3-6-1.6-7.3c-0.9-0.6-1.8-0.5-2.5,0c-0.7,0.5-1.5,1.1-1.6,1.8C51.5,49.5,51.7,51,51.7,52.4z"/>
	</g>
</g>
</svg>
