<?xml version="1.0" encoding="utf-8"?>
<!-- Generator: Adobe Illustrator 19.1.0, SVG Export Plug-In . SVG Version: 6.00 Build 0)  -->
<svg version="1.1" id="Layer_1" xmlns="http://www.w3.org/2000/svg" xmlns:xlink="http://www.w3.org/1999/xlink" x="0px" y="0px"
	 viewBox="224 -150 1100 700" style="enable-background:new 224 -150 1100 700;" xml:space="preserve">
<style type="text/css">
	.st0{fill:#FFFFFF;}
	.st1{fill:none;}
</style>
<g id="Layer_1_1_">
</g>
<g id="Layer_2">
	<g>
		<g id="dog">
			<path class="st0" d="M783.5,55.5c0.4-0.7,0.9-1.5,1.3-2.2l-4.2,2.2c0.7,0,1.3,0,2,0C782.9,55.5,783.2,55.5,783.5,55.5z"/>
			<path class="st0" d="M1120.3,352.1L1120.3,352.1L1120.3,352.1c-0.2-2.3-0.4-4.8-0.8-7.3c-1.1-7.3-3.1-12.5-4.6-15.6
				c-0.7-1.4-1.3-2.5-1.9-3.4c-0.4,0.4-1,0.7-1.6,0.7c-0.3,0-0.5,0-0.5-0.1l-0.6-0.1l-0.1-0.6c-0.5-4-2.5-7.1-4.1-8.9l0.3,2.8
				l-1.9-2.3c-1.1-1.3-2.3-2.6-3.4-3.6c0.3,1,0.7,3,0.7,3s-0.3-0.4-0.6-0.8c-1-1-1.9-1.9-2.3-2.2c-4.4-3.8-7.8-5.5-9.4-5.5
				c-0.2,0-0.4,0-0.5,0.1c-0.1,0.1-0.2,0.1-0.2,0.1c0.3,0.4,1.3,1.2,2.2,1.9c3.2,2.4,9,6.9,13.4,15.6c0.1,0.1,0.1,0.2,0.2,0.3
				c0.9,1.7,2.1,7.6,2.5,9.5c0.1,0.3,0.2,0.6,0.3,1l0,0c0.5,2,1,4,1.3,5.6c0,0,0,0,0,0.1c0.7,2.3,1.3,5.1,1.5,8.3l0,0l0,0
				c0.1,1.3,0.1,2.8,0.1,4.2l0,0l0,0c-0.1,1.6-0.2,2.9-0.3,4.1c-0.1,0.6-0.1,1.1-0.2,1.6l0,0l0,0c-0.9,4.5-2.9,7.9-6.1,10
				c-2.8,1.9-6.4,2.8-10.9,2.8c-2.2,0-4.7-0.2-7.3-0.7l-4.7,0.3c3.2,3.5,6.7,8.6,7,14.3c1.3,0.1,2.5,0.1,3.7,0.1
				c13.4,0,22-4.7,25.8-13.9c0.9-2.3,1.7-4.6,2.2-7.1l0,0l0,0c0.1-0.3,0.2-0.9,0.4-2l0,0l0,0
				C1120.7,360.3,1120.8,356.2,1120.3,352.1z"/>
			<path class="st0" d="M913.7,199.3c-0.2,0.2-0.5,0.3-0.7,0.5v0.1C913.3,199.7,913.5,199.5,913.7,199.3z"/>
			<path class="st0" d="M939.6,335.7L939.6,335.7L939.6,335.7L939.6,335.7z"/>
			<path class="st0" d="M964.7,443c-0.2,0.1-0.4,0.1-0.6,0.3C964.3,443.1,964.5,443,964.7,443z"/>
			<path class="st0" d="M1087.4,388.1c0.2,0,0.4,0,0.6,0l0,0C1087.8,388.1,1087.6,388.1,1087.4,388.1z"/>
			<path class="st0" d="M1085.1,387.9c0-0.3,0-0.6-0.1-0.9c-0.7-5.2-5.1-9.9-8.4-12.8c-0.3-0.3-0.6-0.5-0.9-0.8s-0.6-0.5-0.9-0.7
				c-0.3-0.2-0.5-0.4-0.8-0.6c-0.8-0.6-1.3-0.9-1.3-0.9c-0.3-0.2-0.7-1.1-1.2-2.4c0,0,0,0,0.1-0.1h-0.1l-0.4-1.1
				c0.1,0,0.1,0,0.2,0.1l-0.2-0.1c-0.1-0.4-0.3-0.9-0.4-1.3c-0.2-0.5-0.3-1-0.5-1.5c-1.1-3.8-2.1-7.9-1.4-7.7
				c1.1,0.3,1.8,1.4,1.5,2.5c-0.1,0.7,0.7,2.4,1.7,4c0.3,0.4,0.5,0.8,0.8,1.2c0.5-1.2,0.9-2.7,1.1-4.7c0.8-8-1.4-22.6-1.1-32.8
				c0.2-6.4,0.4-13.7-0.2-20.5c0-0.5-0.1-1.1-0.2-1.6c0.3-0.4,0.7-0.6,1-0.7h0.1c0.5-0.1,0.9,0.2,0.9,0.2s-0.3-3.6-1.4-4.5v-0.1
				c0.1-0.2,0.3-0.4,0.8-0.7c0.2-0.1,0.3-0.2,0.6-0.3c-0.3-0.1-0.5-0.2-0.8-0.5c-0.3-0.3-0.6-0.6-1-0.9l0,0
				c-0.1-0.1-0.2-0.2-0.3-0.3c-0.9-0.8-1.6-1.4-1.6-1.4l1-0.7l0.4-0.3l0.3-0.2l-0.4-0.3l-0.6-0.4l-1.7-1.2c0,0,0-0.1-0.1-0.1
				l1.3-0.1h0.3l-0.5-0.4l-2.1-1.7c-0.2-0.4-0.4-0.7-0.7-1.1l1.6,0.4l0.9,0.2h0.1l0.7,0.2l-0.8-0.5l-0.2-0.1l-1.3-0.8l-0.3-0.2
				c-0.6-0.4-1.3-0.7-1.9-1.1c-0.2-0.1-0.5-0.3-0.7-0.4c-0.5-0.5-0.9-0.9-1.4-1.3c-0.2-0.1-0.3-0.3-0.4-0.4l0,0c0.5,0,1.3,0.1,2,0.2
				c0.1,0,0.2,0,0.3,0h0.1l1.1,0.2l0.7,0.1l0,0l0,0l-2.1-1.6l-0.5-0.4l-1.6-1.1l0.5-0.4l0.5-0.4c0,0-0.3,0-0.9-0.2
				c-0.3-0.1-0.6-0.2-0.9-0.4c-0.5-0.2-1.1-0.6-1.9-1c-1.4-2.8-3.2-6.4-5-10.1c-0.3-0.7-0.6-1.4-0.9-2.1c-1.8-4-3.4-8-4.2-11.1
				c-1-3.7-8.7-15.2-14-25.6c-0.2-0.4-0.4-0.8-0.6-1.2l0,0c-1.8-3.5-6.2-11.2-11.4-20c-0.2-0.4-0.5-0.8-0.7-1.2
				c-10.6-17.8-24.1-39.9-26.5-43.8c-2-3.2-5.2-6.5-8.8-9.7c-0.6-0.1-1.1-0.3-1.7-1.2c-0.2-0.2-0.3-0.4-0.5-0.7
				c-0.8-0.7-1.7-1.4-2.5-2l0.1-0.2l0.1-0.1l0.3-0.4l0,0h-0.1l-1-0.2l-0.4-0.1c0,0,0-0.1,0.1-0.2s0.1-0.2,0.3-0.4
				c0.2-0.2,0.6-0.4,1.1-0.5c0.3,0,0.6,0,1.1,0.1c-0.4-0.3-1.1-0.6-2-0.8c-0.7-0.1-1.4-0.3-2.2-0.3c-0.2,0-0.4,0-0.6-0.1
				c-0.4,0-0.7-0.1-1.1-0.1c0,0,0,0-0.1,0c-0.6-0.4-1.2-0.7-1.8-1.1c0-0.1,0.1-0.1,0.1-0.2c0.1-0.1,0.2-0.3,0.4-0.5
				c-0.2,0.1-0.7,0-1.3-0.2c-0.3-0.1-0.6-0.1-1-0.2c-0.4-0.4-0.8-0.8-1.1-1.3c-4.2-3-8.2-5.7-11.3-8c-6.4-4.7-12.4-8.4-21-11.4
				c0,0.4-0.1,0.8-0.1,1.2c-0.1,1.4-0.3,2.9-0.5,4.3c-0.1,0.6-0.2,1.2-0.3,1.8l0.2,0.3l-0.3,0.5c-0.1,0.6-0.2,1.2-0.3,1.8
				c-0.2,1-0.4,2-0.5,2.9c-0.2,1-0.4,2.1-0.7,3.1c-3.2,30.6-14.6,48.7-27.2,59.6l0.4,1.2l0.8,2.3c0,0,3.1,2.6,7.6,0.4
				c-0.2,1.2-4.8,3.1-5.2,3.3c-1.7,0.8-3.6,1.8-4.4,1.8c-0.2,0-0.4-0.1-0.6-0.1c-1-0.1-7.8,2.3-7.8,2.3s3,0.4,5,0.5
				c1.9,0.1,3.1,0,4.4-0.5c2.6-0.8,6.7-3,8.4-0.4c-4.3,0.6-2.6,3.7-2.6,3.7s-5.3,2,0.8,3.8c-5.2,2.4-15.4,3.4-15.4,3.4
				s2.6,1.5,3.9,2.1c0.4,0.2,0.7,0.2,1.1,0.3c0.5,0,3,0.6,8.4-2.8c-1.2,3.2-9,7.2-9,7.2s2.7,1.1,3.1,1.7c0.2,0.4-0.7,1.2-0.8,2.2
				c-0.1,0.8,0.4,2.7,0.5,2.7c0.7,0.4,1.7-0.5,1.7-1.3c0-0.6-0.3-1.9-0.3-1.9s0.8-0.1,1.1-0.3c0.5-0.5-0.9-1.9,0.4-1.8
				c0.8,0,0.3,7.1,0,9.6c0,0.6-0.1,0.9-0.1,0.9c1.4,2.9,3.2,6.1,1,7.6c-0.8,0.5,2.4,4.7,2.5,7.8c0,0.7-0.1,1.4-0.4,1.9
				c-0.9,1.4-2.1-0.8-3.2-3.6c-1.4-3.5-2.6-7.9-3-8.2c-0.4-0.3-0.3-3.3-0.8-5.3c-0.2-0.8-0.4-1.5-0.9-1.6c-1.7-0.6-2.4-1.9-3.7-1.5
				c-1,0.3-1.9,1.7-2.9,2c-0.8,0.3-2.4-0.3-2.6-1.2c-0.1-0.6,0.4-1.7,0-2.2c-0.2-0.3-0.8-0.5-1.2-0.7c-0.6-0.3-0.9-0.9-1.4-1.1
				c-0.6-0.3-1.4-0.2-2.2,0.1c-0.5,0.2-5.1-1.1-8.3,1.1c0.5-2.1,0.8-1.6,0.8-2s-1.4-0.9-2.4-1.5c-0.3-0.2-0.6-0.4-0.9-0.7
				c-0.3-0.4-3-0.9-4.5-0.5c0,0-0.2-3.4-4-2.1c0.5-1.9,4.5-1.9,4.3-2.6l-3.7-0.5l4.7-1.4c0,0,1.6-3.1-5-2.2c3.1-2.8,5.7-3.2,5.7-3.2
				l-0.3-1.1l-6.3,1.9c-0.2,0.1-0.4,0.1-0.6,0.2c-0.9,0.3-1.2,0.3-1.9,0.4l0,0l0,0c-0.4,0-0.8,0-1.1,0c-0.1,0-0.2,0-0.3,0
				c-0.3-0.1-0.7-0.1-0.9-0.3c0.1,0.7,0.2,1.4,0.3,2.3c0.1,0.5,0.2,1,0.2,1.5c-0.2,1.3-0.4,2.5-0.5,2.7c0.5-0.1,0.8-0.2,1-0.2
				c0.1,0.5,0.2,0.9,0.3,1.4c-0.2,0.5-0.4,1.2-0.6,1.8c-0.2,0.6-0.3,1.1-0.5,1.7c-0.2,0.8-0.3,1.5-0.4,2.1c-0.4-1.1-0.6-2.1-0.8-3.2
				c-0.1,0.2-0.1,0.4-0.2,0.7c-0.2-0.7-0.4-1.3-0.5-2c-0.1-0.5-0.3-1-0.4-1.6c-1.7-7.2-2.3-15-1.9-19c0.1-0.6,0.2-1.1,0.3-1.5
				c0.1-0.5,0.3-0.9,0.5-1.1c0-0.2,0-0.3,0-0.3c-0.4,0.1-0.9,0.2-1.3,0.2c-0.2,0.4-0.4,0.9-0.5,1.5c-0.1,0.5-0.2,1-0.2,1.5
				c-0.3,2.8,0,6.5,0.2,8.9c0.6,5.4,1.7,10.9,3.2,15.4c-0.5,1.9-1,4-0.7,4.9c0.3-1.6,1.1-2.1,1.6-2.2c0,0.1,0,0.1,0.1,0.2
				c0.1,0.2,0.2,0.4,0.2,0.6c0.1,0.2,0.2,0.4,0.2,0.7c3.4,10.8,0,31.4-0.4,33.8c-0.7,4.1,0.5,17.5,1.1,24c0.1,1.5,0.3,2.9,0.3,3.2
				c0,0.5,0,1.8,0,3.9c0,6.9,0,21.2-1.2,35.1c-1.8,21.3-5.2,29.3-7.8,32.3c-0.2,0.2-0.4,0.5-0.5,0.8l0,0c-1.6,3.6-4.4,8-6,8.8
				c-2.5,1.2-6.1,3.9-10.3,7.1l-0.4,0.3c-2.8,2.1-5.3,4-7.7,5.7c-0.5,0.2-1.4,0.7-2.6,1.3c-3.6,2-9.4,5.9-11.3,11.6
				c0,0.1-0.1,0.3-0.1,0.4c-0.3,1.3,0.3,2.7,1.5,3.4l-0.7,1.2c-0.2,0.4-0.4,0.9-0.4,1.4c0,0.4,0,0.8,0.2,1.2c0.3,0.9,1,1.6,1.9,1.9
				c0.5,0.2,5,2,9.8,2c1.4,0,2.8-0.2,4-0.5c1.3-0.4,2.7-0.7,4.1-0.9c0.1,0.2,0.2,0.3,0.3,0.5c0.6,0.9,1.5,1.4,2.6,1.5
				c0.1,0,0.3,0,0.9,0c3.1,0,10.7-0.5,15.5-5.1c0.3-0.3,0.5-0.5,0.8-0.7h3.4c0.4,0.1,0.7,0.2,1.1,0.2c0.4,0,0.8-0.1,1.1-0.2
				c0.1,0,0.2,0,0.2-0.1c1.4-0.6,2.2-2,1.9-3.4l-0.3-2c0.1-0.1,0.2-0.3,0.3-0.5c1.5-2.3,5.2-7.8,6.9-9.7c0.5-0.6,1.1-1.4,1.7-2.3
				c2.3-3.5,4.7-8.6,4.8-12c0.3-0.3,1.4-1.1,5.4-2.6l0,0c0.7-0.3,1.3-0.9,2-1.7c0.8-0.8,1.7-1.9,2.9-2.6c0.5-0.3,0.8-0.9,0.8-1.4
				c-0.1-1-1-1.7-1.8-2.2c0.8-3.2,1.2-9.1,1.6-15.3c0.3-4.5,0.6-9.2,1.1-12.9c0.6-4.9,2.7-12.7,5.2-21c0.8,0.7,1.4,1.5,1.4,1.5
				l-0.9-3.1c0.1-0.4,0.2-0.8,0.4-1.2l1.4-0.2l-0.2-2.4h1.2l-0.6-3.3c0.2-0.6,0.3-1.1,0.5-1.7c0.8,0,1.8-0.2,1.8-0.2
				c-0.5-0.2-1-0.7-1.3-1.3c0.1-0.4,0.2-0.8,0.3-1.1c0.6-1.8,1.1-3.6,1.6-5.3l0.4-0.1c-0.1,0-0.2-0.1-0.3-0.2c0.9-3,1.8-5.8,2.5-8.4
				c7,17.9,16.1,30.3,22.6,37.6c3.5,3.9,7.2,7.4,10.8,10.3c0.8,0.6,1.6,1.2,2.3,1.8c0.7,0.5,1.4,1,2.2,1.5c0.1,2.4,0.1,4.9,0,7.5
				c-0.7,0.2-1.5,0.3-2.2,0.5c-0.8,0.2-1.5,0.5-2.2,0.8c-9.8,3.9-14.2,12.6-14.2,18.4c0,1.5,0.6,2.8,1.8,3.9
				c1.7,1.5,5.1,2.5,9.9,2.8c0.7,0,1.4,0.1,2.1,0.1c0.7,0,1.4,0,2.2,0c-0.5,4.7-1,9.2-1.6,13.5c-0.3,2.1-0.6,4.1-1,6
				c-0.4,2.2-1,4.2-1.6,6c-0.8,2.3-1.7,4.3-2.5,6c-1,2.1-1.9,3.7-2.3,4.9c-0.2,0.4-0.3,0.8-0.4,1.1c-0.1,0.2-0.1,0.3-0.1,0.4
				c-0.1,0.7-0.4,1.6-0.8,2.6c-0.2,0.6-0.5,1.3-0.8,2c-2.9,6.6-8.7,16.6-11.9,18.5c-2,1.4-1,13.4-0.1,16.3c0.7,0.1,2.3-0.3,3.6-0.7
				l-1.8-1.5c5.2,0.3,3.9-7.1,7.5-8.9c-2.1,1.3-2.8,6.4-3.3,9.8c1.6-0.4,2.9-0.8,4-0.8c2.8,0,3.6,2.6,3.9,4c2.9-0.9,7.6-0.5,10.5,0
				c0.8-1.7,2.3-3.1,4.5-3.1c1.2,0,3.9-1.4,5.8-3.3c0.8-0.7,1.5-1.5,1.9-2.3c0.1-0.2,0.2-0.3,0.2-0.5c1-2.9,1.5-9,1.6-11.2
				c0-0.3,0.1-0.5,0.2-0.8c0-0.1,3.1-6.5,1.2-12.8c-0.3-0.9-0.5-1.8-0.6-2.7c-0.1-0.7-0.2-1.3-0.3-2c-0.1-1-0.1-2-0.1-3
				c0-2,0.1-4.1,0.3-6c0.3-2.3,0.7-4.4,1.1-6c0.4-1.3,0.7-2.3,1.1-2.9c0.7-1.1,1.9-1.9,3-2.6c1.9-1.2,2.5-1.8,2.4-2.8
				c-0.1-0.9-0.4-2.2-0.7-3.7c-0.1-0.4-0.2-0.8-0.3-1.3c-1-4.3-2.3-10.1-2.4-15.4c0.7-0.2,1.4-0.4,2.1-0.5c0.7-0.2,1.4-0.4,2.1-0.5
				c10.9-2.7,20.5-4.8,22.3-4.8c4.7,0.7,5.6,1.7,5.6,2.2c0.7,5.4,8.2,10.7,15.2,10.7c2.9,0,9.2,0.1,18.6,0.4c0.4,0,0.7,0,0.8,0
				l9.5,0.5l0,0h0.3c1.4-0.1,2.8-0.1,4.1-0.2c0.7,0,1.4-0.1,2.1-0.2c0.7-0.1,1.5-0.1,2.2-0.2c0.3,2.4,0.6,4.7-6.5,6.1
				c-0.2,0-0.4,0.1-0.6,0.1s-0.4,0.1-0.5,0.2c-0.9,0.3-2,0.8-2.9,1c-3.1,0.5-7.2,1-11.2,1.9h-0.6c-0.8,0.2-1.5,0.4-2.3,0.7
				c-5.2,1.7-10.1,4.5-12.5,9c-0.4,0.8-0.8,1.6-1.2,2.3h-0.3c-0.2,0.6-0.3,1.2-0.5,1.8c-0.3,1.4-0.6,2.9-0.7,4.2
				c-0.3,2.3-0.3,4.4-0.4,6c0,0.5-0.1,1-0.2,1.4c0,0,2.7,0,4.5,0.3c1.6-0.2,2.7-0.4,4.3-1.7l0,0c1.2-1,1.3-2.9,2.7-3.9
				c-0.6,1.2-1.2,2.6-1.7,3.9c-0.3,0.8-0.7,1.5-1.1,2c-0.3,0.4-0.5,0.7-0.8,1c-0.7,0.7-1.4,1.3-2.1,2h-0.1c-0.1,0.1-0.1,0.2-0.2,0.3
				c-0.2,0.4-0.4,0.8-0.5,1.2c1.4,0.1,4-0.1,5.5-0.2c1.8-0.1,3-0.2,3.9-0.2c0.6-0.3,1.2-0.7,1.7-1.1c0.6-0.6,1.2-1.3,1.7-2
				c0.7-1,1.3-2.1,1.9-3c1.1-1.7,2.4-3,4.5-2.8c-1,1.1-1.9,1.9-2.6,2.8c-0.9,1-1.5,1.9-1.9,3c-0.2,0.6-0.4,1.3-0.6,2
				c-0.2,0.9-0.3,1.9-0.3,3.1c0.1,0.2,0.3,0.4,0.4,0.5c4.4-1.1,8.5-2.7,9.1-3.5c0,0,0.1-0.1,0.1-0.2c0.2-0.2,0.3-0.4,0.6-0.7
				c0.3-0.4,0.7-0.8,1-1.3c0.7-0.9,1.4-2,2.1-3c1.3-2,2.7-4,4-6c1.5-2.2,3.1-4.3,4.6-6s3.1-2.9,4.6-3.3c0.8-0.2,1.7-0.5,2.7-0.7
				c6.1-1.6,19-2.1,23.9-7.9c0.8-0.9,1.4-2,1.7-3.3C1085,389.8,1085.1,388.9,1085.1,387.9c0.3,0,0.5,0,0.8,0.1l0,0
				C1085.6,388,1085.3,388,1085.1,387.9z M1055.8,286c0.6,0.4,2.7,2,3.1,2.1c-0.5,0.3-0.7,0.5-0.7,0.7c0,0.1,0,0.1-0.1,0.2
				c0.1,0,0.2,0.1,0.3,0.2c0.7,0.3,2.1,0.9,3.1,1.5c0.6,0.4,1.1,0.7,1.2,1.1c-0.4-0.2-0.6-0.3-0.9-0.3c-0.7-0.1-0.9,0.4-0.9,0.4
				l0.9,0.5l-1,0.8l-0.4,0.3l0.6,0.4l0.8,0.5l-0.5,0.4c0.2,0.7,0.5,1.3,0.9,1.9c0.8,1.3,2.7,2.1,3.2,3.6c-2.5-1.9-5.5-4.7-7-7.5
				c-1-1.8-1.9-3.9-3.1-5.6c-0.9-1.2-4.4-3-4.4-3.7V283C1052.7,283.4,1054.3,284.5,1055.8,286z M988.4,246.4
				c2.3,5.1,4.2,9.7,5.3,15.2c0.9,4.7,0.9,10.9,0,15.6c-0.8,4.5-4,22.4-4.9,15.5c-0.9-6.8,2.1-8.1,2.8-12.1
				c0.8-4.6,0.9-9.7,0.4-14.4c-0.9-9.4-7.4-17-7.2-26.7c0,0,0.7-14.3,2-7.7C988.2,238.5,986.4,241.7,988.4,246.4z M972.4,307.6
				C972.4,307.6,972.4,307.7,972.4,307.6c-0.3,0.9-0.6,1.8-0.9,2.6c-0.4,1.2-0.9,2.3-1.2,3.5c-0.2,0.7-0.4,1.4-0.5,2.2
				c-0.3,2-0.1,3.8-0.9,5.6c-0.7,1.6-1.8,9.8-2.1,11.6c-0.1,0.6-0.3-0.1-0.6-1.2c-0.3-1.4-0.6-3.5-0.8-5c0-0.8,0.1-1.6,0.2-2.4
				c0.4-1.5,1.2-2.8,1.4-4.2c0.1-0.7-0.1-1.5-0.1-2.2c0-0.1,0-0.1,0-0.2c0-1.4,0.1-2,0.5-3.4c0.1-0.4,0.2-0.8,0.3-1.2
				c0.5-2,0.7-3.9,1.1-5.8c0.6-2.6,1.6-5.3,2.3-7.9c0.6-2.4,0.3-4.1,0-6.5c-0.4-3.3-3-4.7-1.5-9.6s1.4,3,1.8,4.6
				c0.6,2.2,1,4.5,1.4,6.8C973.3,298.6,973.5,304,972.4,307.6z M957.1,152.8c-0.3,1.7-0.9,3.3-0.9,5.1c0,1.2,0.3,2.3-0.1,3.4
				c-0.3,1-1.1,1.9-1.1,3c0,1,1.3,0.5,0.4,2.8c-0.9,2.3-0.9-2-1-3.1c-0.1-1.2,0.5-2.2,0.5-3.4c0-0.5-0.2-0.9-0.3-1.4
				c-0.1-0.8-0.1-1.2,0-2c0.2-1.5,0.1-2.9,0.2-4.3c0.1-1.1,0.3-2.2,0.5-3.3c0.1-0.5,0.2-1,0.2-1.6c0.2-1.5-0.2-2.5-0.6-3.9
				c-0.5-2-1-2.1-0.2-3s1,2.6,1.4,4c0.5,1.8,1,4.3,1,6.3C957.2,151.9,957.2,152.3,957.1,152.8z M970.7,146.5
				c-0.1,0.1-0.1,0.2-0.2,0.3c-0.4,0.7-0.4,1-0.4,1.3c0.5,0.1,1.3,0.2,2.2,0.4c1,0.2,2,0.4,2.8,0.6c-1.9,0.7-0.3,1.6-0.3,1.6
				l1.3,0.2l-0.6,0.9l-0.8,1.3c0,0,1.3-0.7,2.2,0.6c-1.1-0.1-1.4,1.7-1.5,3c1.2,2.5,1.6,4.9,0.9,6c-0.9,1.6-2.5-4.2-6.1-10.5
				c-1.9-3.3-5.6-6.7-7.4-9.3c-0.5-0.6,2.3,0.2,3.8,1.7c0.2,0.2,0.4,0.5,0.6,0.7c1,0.3,2.3,0.8,3.1,0.9
				C970.4,146.5,970.6,146.5,970.7,146.5z M947.9,131.9c0.2-0.1,0.9,0.5,1.1,0.9c0.1,0.1,0.1,0.3,0.2,0.5c0.7,2.2-0.1,7-0.1,8.7
				c0,0.3,0,0.6,0,0.9c0,4.7,1,4.9,2.5,10.5c0.6,2.2,0.1,5.1-0.4,7.5c-0.8,3.4-2.3,6.4-0.7,9.3l-0.1,0.9c0,0,0.5,4.2-3.1,5.8
				c-3.7,1.6-5.8,0.3-3.5-1.7c2.2-2,3.3-7.1,3.3-7.1c-0.4-2,0.3-6.9,0.5-8.4c0.1-1,0.2-2,0-2.7c-0.1-0.7-2.5-4.7-2.9-5.9
				c-0.8-2.7-0.1-5.4,0.9-8c0.2-0.7,0.5-1.8,0.8-2.9c0.3-1.4,0.6-2.8,0.7-3.5c0.1-1,0.1-2.1,0.4-3c0.1-0.2,0.2-0.5,0.3-0.8
				C947.6,132.3,947.8,132,947.9,131.9z M887.9,330.1c0-1.3,0.1-1.8,0.5-3.1c0.7-2.2,0.9-4.3,1.4-6.5c0.6-2.4,1.6-4.8,2.3-7.2
				c0.6-2.2,0.3-3.8,0-6c-0.4-3.1-3-4.3-1.5-8.8s1.5,2.7,1.9,4.2c0.5,2,1,4.1,1.3,6.2c0.5,3.5,0.7,8.4-0.4,11.8
				c-0.9,2.6-2.2,4.8-2.6,7.5c-0.3,1.8-0.1,3.5-0.9,5.2c-0.7,1.5-1.8,8.9-2.1,10.6c-0.2,1.4-1.5-5.1-1.4-6.8c0.1-1.9,1.4-3.3,1.7-5
				C888.2,331.5,887.9,330.7,887.9,330.1z M946.6,343.4c-0.8-0.6-1.6-1.2-2.4-1.9c-11.3-9.3-24.7-26.1-33.4-50.1
				c-0.9,3.3-2.1,7.1-3.3,11.3c-0.1,0.5-0.3,0.9-0.4,1.4c-0.5,1.5-0.9,3-1.4,4.5c-1.3,4.2-2.7,8.6-3.9,12.8
				c-2.5,8.6-4.7,16.5-5.3,21.6c-1.2,9.4-1.3,24.5-2.8,29c1,0.5,2.6,1.5,1.8,2c-2.4,1.4-3.8,3.9-4.7,4.2c-1.5,0.6-6.2,2.4-6.2,3.5
				c0,3.4-2.7,8.9-5.1,12.3c-0.4,0.6-0.8,1.1-1.2,1.5c-1.9,2.1-6,8.3-7.4,10.5c0,0.1-0.1,0.1-0.1,0.2l0.4,2.5
				c0.1,0.9-0.4,1.8-1.2,2.2c-0.9,0.4-1.9,0.2-2.5-0.5c0,0-0.4-0.4-1-0.4c-1-0.1-2.2,0.6-3.5,1.9c-0.1,0.1-0.2,0.1-0.2,0.2
				c-4.6,4.2-12,4.6-14.4,4.6c-0.5,0-0.8,0-0.8,0c-0.7,0-1.3-0.4-1.7-0.9c-0.2-0.3-0.3-0.7-0.3-1.1c-1.5,0.2-3.4,0.5-5.4,1.1
				c-5.5,1.6-12.6-1.3-12.9-1.5c-0.6-0.2-1-0.7-1.2-1.2c-0.1-0.3-0.1-0.6-0.1-0.8c0-0.3,0.1-0.6,0.3-0.8l1.3-2.2l-0.8-0.4
				c-1-0.5-1.4-1.5-1.1-2.5l0,0c2.3-6.6,10.3-10.8,12.8-12c0.2-0.1,0.4-0.2,0.6-0.3c2.5-1.8,5.2-3.8,7.8-5.8c4.3-3.2,7.9-6,10.4-7.2
				c2.1-1,5.1-6.1,6.6-9.3c0.1-0.2,0.2-0.4,0.3-0.5c10.5-12.2,9-68.6,9.2-72.1c0-1.2-2.2-22-1.4-27c1.3-7.8,3.3-24.7,0.4-34.2
				c-0.2-0.5-0.3-1-0.5-1.4c-0.1-0.3-0.3-0.7-0.4-1c0-0.1,0-0.2,0.1-0.3c0.2-0.6,0.4-0.9,0.7-1.2c0.3-0.3,0.7-0.4,0.9-0.4l0.1,0.4
				l-0.2,1l0.5-0.1l0,0l0.6-0.2l0.3-0.1l0.4-0.1c0.2,0.3,0.4,0.6,0.6,0.8l-0.2,1.3v0.3h0.1l1.1-0.3l0.1,0.1c0.3,1.1,0.6,2.2,0.8,3.5
				c0.2,0.9,0.3,1.9,0.4,2.8c1.2,10.1-0.3,23-1.5,29.8c-0.9,5.4-1.3,25.8-1.4,26.4c0,2,4.5,60.3-7.2,74.5c-0.6,1.2-2.6,5.5-5.2,8.5
				c-1,1.1,4.7,0.1,3.6,0.6c-0.6,0.3-8.2,2.8-9,3.3c-2.1,1.4-6.2,2.4-9,4.5c-1.6,1.2-3.3,2.5-4.9,3.7c-1.1,0.8-2.2,1.6-3.2,2.3
				c-0.1,0.1-0.3,0.2-0.4,0.2c-2.2,0.9-8,4-10.5,8.2l2.2,1.3l0.3,0.2c0.5,0.3,0.9,0.7,1.1,1.2c0.2,0.5,0.1,1.1-0.2,1.6l-0.7,1.2
				c0.7-0.7,1.3-1.4,2.2-1.9c0.6-0.4,1.3-0.6,2.3-0.7c0.1-0.6,0.2-1.1,0.4-1.7c0.7-2,2.1-3.7,3.7-4.5c-1.2,1.5-2,2.9-2.7,4.5
				c-0.6,1.4-1.1,3-1.4,4.7c-0.1,0.4-0.2,0.8-0.3,1.2c0.8,0,1.7,0,2.4-0.1c0.7-0.5,1.3-1.1,1.8-1.7c0.8-0.8,1.7-1.4,3.3-1.5
				c0.1-0.9,0.4-1.8,0.7-2.6c0.8-1.6,2-3,3.3-3.6c-1,1.2-1.7,2.4-2.3,3.6c-0.5,1.1-0.9,2.2-1.2,3.3c-0.1,0.4-0.2,0.8-0.3,1.2
				c2.9-0.5,5-0.5,5.1-0.5c0.6,0,1.1,0.2,1.5,0.6l0,0c0.1-0.4,0.2-0.8,0.4-1.2c0.6-1.3,1.7-2.4,2.8-3.5c0.7-0.7,1.4-1.3,1.9-1.8
				c-0.1,0.6-0.3,1.3-0.5,1.8c-0.7,1.8-2,3.3-2.9,5c-0.2,0.3-0.4,0.7-0.5,1c0,0.1-0.1,0.2-0.1,0.3c0.6-0.1,1.2-0.2,1.9-0.3
				c2.5-0.5,5.2-1.4,7-3.1c1.5-1.5,3.1-2.5,4.7-2.9c0.6-0.2,1.2-0.2,1.9-0.2c0-0.4,0.1-0.8,0.3-1.2c0.2-0.3,4.6-7.1,7.3-10.6
				c0.3-0.4,0.7-0.8,0.9-1.2c2.2-2.6,5.2-8.6,5.2-11.1c0-3.9,11.7-14.3,11.1-30.3c-0.1-3,0.7-6,1-8.8c0.6-5.1,3.3-14.4,5.6-25.9
				c0-0.7-0.1-2.4-0.3-4.8c-0.6-7.6-2-22-4.8-32.8c-2-7.7-0.5-5.1-5.3-18.3c-2.1-5.8-2.6-8.9-2.6-10.5c0-0.1,0-0.1,0-0.2
				s0-0.1,0-0.2c-0.1,0-0.1,0.1-0.1,0.1c-0.2-0.5-0.4-1-0.5-1.4c0-0.1-0.1-0.2-0.1-0.3l-0.8-0.4c0.7,0.2,1.8,0.3,2.5,0.2
				c0.2,0,0.3,0.1,0.5,0.1c2.4,0.5,4.4,1.5,6.3,2.6c-0.5,0.5,0,1.8,2.6,4.9c0.3,0.4,1.9,1.6,3.4,2.8c1.2,1.2,3.7,4,5.1,6.4
				c0.4,0.8,0.8,1.5,0.9,2.1c0.1,0.4,0.1,0.8,0,1.1l0.9-0.5l1.2-0.7l0.6-0.3c0,0,0.6,0.5,1.2,1.3c0.3,0.4,0.6,0.9,0.9,1.4
				c0.2,0.4,0.3,0.8,0.4,1.2c0.1,0.6,0.1,1.3-0.1,2c0,0,0,0,0,0.1c0,0,2.7-0.2,2.3-2.1l0.8,0.9l0.8,0.9l0,0l-0.1,0.1
				c0.1,0,0.2,0.1,0.4,0.1l1.4,1.5l0.6-0.8l0.2-0.3l1.1,1l0.6,0.5l0.1-0.1l1.4-1.7l0.5,0.5l1.6,1.5c0,0-0.4-2.4,0.7-3.3l-0.1-0.4
				c0.3-0.2,0.6-0.4,0.9-0.6c0.4-0.3,0.9-0.6,1.3-0.6c0,0,0.1,0.4,0.2,1c0,0.4,0.1,1,0,1.6c0,0,0.5-0.6,1-1.4c0.3-0.6,0.6-1.3,0.7-2
				l0.7,2.3l0.1,0.2c0,0,0-0.1,0.1-0.1c0.3-0.5,1.2-2.4,1.1-4l1.5,0.7l0.4-2.5c0,0,0.9,2.8,0.9,3c0,0.1,0.3-0.2,0.6-1.1
				c0.7,1.8,1.3,3.6,1.8,5.2c0.6,1.9,1,3.5,1.2,4.8c0.1,0.6,0.1,1,0.1,1.5c0,5.9,1.5,10.2,2.4,15.2c0.8,5.1,1.7,22,2,23.1
				c0,0.1,0.1,0.5,0.3,1.1c0.5,1.6,1.5,4.6,2,6.2c0.4,1.1,0.6,1.5,0.4,0.5c0-0.1,0-0.2-0.1-0.3l0,0v-0.1c-0.3-1.5-0.6-3-0.9-4.4
				c0-0.1,0-0.2-0.1-0.3c-0.1-0.4-0.1-0.7-0.2-1.1c-0.1-0.3-0.1-0.7-0.2-1c0-0.1-0.1-0.3-0.1-0.4c-0.1-0.7-0.2-1.3-0.3-1.9
				c0-0.1,0-0.2-0.1-0.4c-0.1-0.6-0.2-1.1-0.2-1.6c0-0.1,0-0.3,0-0.4c-0.1-0.6-0.1-1.1-0.1-1.7c0-0.2,0-0.3,0-0.4c0-0.5,0-1.1,0-1.6
				c0-0.1,0-0.2,0-0.3c0-0.5,0-1.1,0.1-1.6c0.7-6.5-0.6-17.5-2.2-28.1c-0.3-2.1-0.6-4.1-1-6.2c-0.6-3.9-1.2-7.6-1.8-10.9
				c0-0.2-0.1-0.4-0.1-0.6c-0.6-3.7-1.1-6.8-1.2-8.9c-0.4-4.1-0.4-8.1,0-8.1c1-0.2,2.1,4.2,2.6,6.2c0.1,0.4,0.2,0.7,0.2,0.9
				c0.1,0.3,0.2,0.7,0.3,1.2c0.3,1,0.8,2.8,1.4,5.3c0.6,2.3,1.3,5.2,2,8.5c0.3,1.5,0.7,3.2,1,4.9c2.2,11.3,4.2,25.4,3,36.5
				c-0.5,4.9,1,11.3,2.5,18.8c0,0.1,0.1,0.3,0.1,0.4c0.1,0.6,0.3,1.2,0.4,1.9c0.1,0.5,0.2,1.1,0.3,1.6c0.8,4,1.5,8.2,1.9,12.7
				c0,0.5,0.1,1,0.1,1.5C948.1,344.5,947.3,344,946.6,343.4z M944.3,379.3c-0.7,0-1.4-0.1-2.1-0.1c-3.9-0.3-7.5-1-9.3-2.5
				c-0.9-0.8-1.4-1.8-1.4-3c0-5.3,4.1-13.3,12.9-17c0.7-0.3,1.5-0.6,2.2-0.8s1.4-0.4,2.2-0.6c0,0.4-0.1,0.8-0.1,1.2
				c0,0.3-0.1,0.6-0.1,1c0,0.2,0,0.4-0.1,0.6c-0.5,4.4-1,9.3-1.4,14c-0.2,1.8-0.3,3.5-0.5,5.3c0,0.3-0.1,0.6-0.1,0.9
				c0,0.4-0.1,0.8-0.1,1.2C945.7,379.3,945,379.3,944.3,379.3z M937.3,455.5c5.1,0.3,3.9-7.1,7.5-8.9c-2.7,1.6-3,9.4-3.8,12
				L937.3,455.5z M947.9,455.2l-3.6-3.1c5.1,0.3,3.8-7.1,7.4-8.9C949,444.9,948.7,452.6,947.9,455.2z M965.6,396.5
				c-0.8,1.7-1.7-0.4-3.8,3.4c-0.8,1.5-1.4,3.6-1.9,6.1c-0.3,1.8-0.6,3.9-0.8,6c-0.2,2-0.2,4-0.3,6c0,0.5,0,1.1,0,1.6s0,1,0,1.4
				c0,0.8-0.1,1.5-0.2,2c-0.5,3.4-1.9,2-1.9,2s0-0.8-0.1-2c0-0.6,0-1.3-0.1-2c0-0.9-0.1-1.9-0.1-3c-0.1-2-0.1-4.2-0.2-6
				c0-1.3,0-2.5,0-3.3c0-0.9,0.2-1.8,0.5-2.7c1.2-3.3,4.2-6.7,4.9-10.3c0.1-0.5,0.1-1.1,0.2-1.6c0.2-4.6-1.5-10.8,1.1-10.1
				c0,0,0.2,0.6,0.4,1.4c0.6,2.1,1.7,6,2.1,8.6C965.8,395.2,965.8,396.1,965.6,396.5z M1049.2,383.7c-0.7,0.1-1.4,0.1-2.1,0.2
				c-1.4,0.1-2.8,0.2-4,0.2h-0.2l-9.5-0.5c-0.1,0-14.4-0.5-19.5-0.5c-6.3,0-13.5-4.9-14.1-9.6c-0.2-1.6-2.3-2.7-6.7-3.3
				c-1.7-0.1-11.7,2.2-22.3,4.8c-0.7,0.2-1.5,0.4-2.2,0.5c-0.7,0.2-1.5,0.4-2.2,0.5c0-0.4,0-0.8,0.1-1.2c0-0.3,0.1-0.6,0.1-0.9
				c0.5-4.6,2.1-12.3,4.1-21.4c0.1-0.3,0.1-0.6,0.2-1c0.1-0.4,0.2-0.9,0.3-1.3c0.1-0.3,0.1-0.5,0.2-0.8c0.1-0.4,0.2-0.8,0.3-1.2
				c0.2-0.7,0.3-1.3,0.5-2c0.6-2.7,1.3-5.5,1.9-8.4c0.3-1.2,0.5-2.4,0.8-3.6c0.5-2.3,0.9-4.6,1.1-6.9c0.2-1.7,0.3-3.4,0.4-5.1
				c0.2,0.1,0.4,0.2,0.5,0.4c0.8,0.6,1.5,1.2,1.5,1.2l-1.1-3c0-0.2,0.1-0.3,0.1-0.5h3.3l-1.6-2.2h1.3l-1-4.4c0.4,0.4,1,0.6,1.7,0.8
				c1.4,0.3,2.9,0.2,2.9,0.2c-1-0.3-1.9-1.2-2.6-2.3c-0.7-1-1.3-2.2-1.7-3.1c-0.3-0.8-0.5-1.3-0.5-1.3l0.8-0.1l2.2-0.3l1.2-0.2
				c-0.3-0.1-0.7-0.3-1-0.6c-0.5-0.5-0.9-1.1-1.4-1.9c-0.1-0.2-0.2-0.4-0.3-0.6s-0.2-0.3-0.2-0.5c-0.2-0.4-0.3-0.7-0.5-1.1
				c-0.5-1.2-0.9-2.3-1.2-3.2c1.1-17.9-0.8-48.7-2.3-52.3c-0.8-2.1-1.6-3.8-1.5-5.6c0.5-6.8,2.4-14.9,4.3-20c1.9-5,3.7-7.2,4.4-2.9
				c0.1,0.8,0.1,1.6,0.1,2.3c-0.1,4.1-2.2,6.8-3.6,10.5c-1,2.6-1.6,5.7-0.9,10.2c0.2,1,1.1,2.2,1.2,4.1c0.3,5.8,1.6,13.7,1.3,29.1
				c0,2.3,0.2,4.9,0.4,7.7c0.5,5.5,1.3,11.8,0.8,18.9c0,0.4-0.1,0.9-0.1,1.3c2.1-0.9,4.4-1.6,7.1-2.3c4.9-1.3,8.2-0.2,10.4,2.1
				c-0.2,0.4-0.4,0.7-0.5,1.2c-0.3,0.9-0.6,2-0.7,3.3c-0.4,8.4,1,22.3,1,26.7c0,1,1.3,5,2.5,7.6c0.5,1.1,0.9,1.9,1.2,2.2
				c0.5,0.4,0.5-0.7-0.2-4.5c-0.4-1.8-0.7-3.6-1-5.4c-0.1-0.7-0.2-1.4-0.3-2.1c-1-7.3-1.2-14.3,0.7-18.4c0.1-0.1,0.1-0.2,0.1-0.4
				l0,0l0,0c0.4-1.1,0.3-2.2,0.2-3.2l0,0l0,0l-0.8-0.5l-0.7-0.4l0.5-0.2l1-0.4h0.1l-0.1-0.1l-1.1-1.2l0.7-0.2l0.3-0.1
				c0,0-0.1-0.4-0.5-0.5c-0.3-0.1-0.7-0.1-1.2,0.1c0.2-0.2,0.5-0.4,1-0.6c0.3-0.1,0.7-0.3,1.1-0.4c0.1,0,0.2-0.1,0.2-0.1
				c0.6-0.2,1.1-0.3,1.6-0.4s0.9-0.2,1.1-0.3c0-0.2,0-0.3-0.3-0.6c-0.1-0.1-0.2-0.2-0.3-0.4c0.2,0,0.9-0.3,1.7-0.6
				c4.5-2.8,12.5-1.9,20.2,1.7c1.6,0.8,3.2,1.6,4.8,2.6c1.3,0.8,1.3,1.6-0.5,1l2.8,1.8c0.6,1.4-1,2.2-1,2.2
				c-0.4-2.3-2.4-3.9-3.4-4.6c-0.3-0.2-0.5-0.3-0.5-0.3s0,0,0,0.1c0,0.9-0.8,1.7-0.8,1.7c-0.4-1.4-2.5-2.9-3.1-3.3
				c-10.1-3.5-18.7-1-18.5,5.5c0.1,1.6-0.1,3.3-0.2,5.2c-0.8,16.3-1.9,38.5,17.1,49.9c7,4.2,12.4,6.5,16.5,8
				c0.4,0.2,0.8,0.4,1.3,0.7c-0.4-0.2-0.8-0.4-1.2-0.7c1.5,0.5,2.7,0.9,3.9,1.3c0.7,0.2,1.3,0.4,1.9,0.6c0.9,0.4,1.8,0.8,2.7,1.3
				l0.1,0.1c0.1,0.1,0.4,0.5,0.8,1.2c0,0,0,0-0.1,0l0,0h0.1c0.2,0.3,0.3,0.7,0.5,1.1c0.1,0.3,0.3,0.7,0.4,1.1
				c0.1,0.3,0.2,0.7,0.2,1.1c0.1,0.3,0.1,0.6,0.1,0.9c0,0.2,0,0.4,0,0.6c0,0.2,0,0.4,0,0.6C1050.6,383.6,1049.9,383.6,1049.2,383.7z
				 M1013.2,334.9c0.3,1.7,1.8,5.1,0.3,6.5c-0.8-0.8-1.3-1.6-1.7-2.6c-0.1-0.2-0.2-0.5-0.3-0.8c-0.1-0.2-0.1-0.5-0.2-0.7l-0.8-0.1
				l0.5-0.9c0,0-0.9-0.5-1.6,0.9c-0.1-0.7,0.8-2.2,1.5-3.3c0-0.6,0-1.2,0.1-1.8c0-0.2,0-0.3,0-0.5c0-0.4,0.1-0.9,0.1-1.3
				c0.5-5.2-2-16.9,2.8-20.7h1.1c0.3-0.3,0.9-0.5,1.3-0.7c0.3,1.7-0.7,1.4-1.4,2.4c-0.9,1.2-1.3,2.4-1.6,4.1
				c-0.1,0.6-0.1,1.1-0.2,1.7c-0.2,2.4-0.1,5-0.2,7.4C1012.8,327.9,1012.6,331.6,1013.2,334.9z M1077.5,392.6
				c-0.5,0.6-0.9,1-1.5,1.4c-0.3,0.2-0.6,0.4-1,0.5c-1.1,0.4-2.2,0.6-3.3,1c-1.4,0.6-1.2,3.5-4,1.7c-2-1.2,1.8-2.4,4.6-3.3
				c1.2-0.4,2.2-0.7,2.5-0.9c0.9-0.9,1.6-1.4,2.6-2.1c1.3-1,1.3-2.5,1.7-3.8l0,0c0.1-0.3,0.2-0.6,0.3-0.9c0,0,0-0.1,0.1-0.1
				c0.6-1.3-0.2-3.5,1.5-3.6c1.6-0.1,0.4,2.5,0.1,4c0,0.1,0,0.3-0.1,0.4c0,0.2-0.1,0.4-0.1,0.5h-0.1h0.1
				C1080.4,389.5,1078.9,391,1077.5,392.6z"/>
			<path class="st0" d="M886,253.1c0-0.1,0.1-0.1,0.1-0.2c0,0,0,0,0-0.1L886,253.1z"/>
			<path class="st0" d="M869.7,223.6c0,0.2-0.1,0.4-0.1,0.8c0,0.2,0.1,0.4,0.1,0.6C869.7,224.5,869.7,224.1,869.7,223.6L869.7,223.6
				z"/>
			<path class="st0" d="M821.6,186.1c3.9-9,8.8-17.9,13.5-25.4c-2.1-1.1-5-2.8-7.7-4.2c-6.3-3.1-10.2-3.1-14.5-6.5
				c-1.5-1.2-3.5-3-3.5-3s1.6,2.9,2.4,4.7c0.4,1,0.7,2.2,0.3,3c-0.3,0.5-0.8,0.7-0.9,1.1c-0.1,0.3,1.2,2.6,1.7,4
				c0.5,1.5-0.4,4.6-1.5,5.6c-1.7,1.5-6.7,1.1-9.2,0.6c-0.5-0.1-0.9-0.2-1.3-0.3c-0.6-0.3-0.7-0.3-1.3-0.8c-3.3-2.2-8.3-5.5-10-6.3
				c-1.2-0.6-9-2.5-12.9-4.1c-6.1-2.5-8-5.3-9-12c-0.5-4-0.8-16.8,0.3-20.8c0.4-1.5,2-5,3.7-6.7c0.7-0.7,1.3-1,1.8-1.5
				c0.3-0.4,1.1-4.5,1.6-7.5s5.6-15.8,8.1-19.7c0.8-1.2,3.3-4,4.8-5.4c3.9-3.5,14.2-11.1,16.9-13.6c2.7-2.6,6.5-7.1,9.7-10.5
				c0.8-0.9,1.6-1.7,2.3-2.4c2.3-2.1,5-4.2,8-6.4c0.8-0.6,1.8-1.3,2.8-1.9c2.2-1.4,4.5-2.8,5.3-3.1c0.9-0.3,2-0.7,2.3-1.1
				c0.4-0.4,0.7-1.3,1.1-2.3c0.7-1.5,2-3.1,2.9-3.6c1-0.6,3.5-1,4.9-1.7c0.8-0.4,2.4-1.9,3.7-3c3.1-2.6,12.4-7,15.9-7.2
				c5.5-0.3,12.4,3.8,17.8,7.1c2.2,1.3,4.4,2.7,5.9,3.9c0.1,0.1,0.2,0.2,0.3,0.3C886,22.7,882.3,12.3,877,4.9
				c-3.5-4.8-7.6-8.5-12.4-10.8c-1.9-0.9-4-1.3-6.3-1.3c-16.9,0-41.8,18.2-64,50.9c-1.6,2.3-3.2,4.7-4.7,7.2c-1,1.5-1.9,3.1-2.9,4.7
				c-6.8,11.4-13.3,24.3-19,38.4c-7.6,18.7-13.6,42.1-16.4,63.8c-0.6,4.7-1.1,9.3-1.4,13.7c-2,27.9,3.9,46.6,14,51.3
				c2.4,1.1,5.2,1.7,8.4,1.7c10.5,0,26.8-8.4,44-23.1C817.5,196.5,819.4,191.3,821.6,186.1z"/>
			<path class="st0" d="M881.9,50c-0.3-0.2-7.5-3-7.8-2.4c-0.2,0.2,0.3,1.4,0.3,2.2c0,0.5-0.2,0.8-0.5,1.2c-0.6,0.8-1.9,1.9-2.8,2.7
				c-0.5,0.5-1,0.9-1,1c-0.2,0.6,0.6,3.9,1.3,5c0.4,0.6,6.2,4.5,9,7.1c0.5,0.4,1.1,1.1,1.7,1.9c1.8,2.4,4,6.1,5.3,8.8
				c0.3-2.4,0.6-4.7,0.8-7.1c0.4-4.1,0.7-8.2,0.8-12.2c0-0.9,0-1.7,0-2.6c-0.2-0.1-0.3-0.2-0.5-0.4C886.2,53.6,883.4,50.9,881.9,50z
				"/>
			<path class="st0" d="M863.2,100.6L863.2,100.6l-2.6-0.5l-1.7,0.9l-2.2-0.9c0.3,0.2,0.5,0.4,0.6,0.5c1.1,0.7,4.4,1.5,6.1,1.4
				c0.1,0,0.2,0,0.3-0.1l0,0c0.1,0,0.1-0.1,0.2-0.1L863.2,100.6L863.2,100.6z"/>
			<path class="st0" d="M875.7,121c0.6-1.4,1.2-2.9,1.8-4.4c0.2-0.4,0.3-0.8,0.5-1.2c-1.1-0.6-2.1-1.4-3.1-2.2
				c-1.2-1-4.2-2.9-5.4-3.3c-0.9-0.4-1.8-0.6-2.6-1.2c-0.5-0.3-1.2-1-1.3-1.2c0-0.2,0.7-0.9,1.2-1c2.1-0.7,6.7,1.7,8.4,2.3
				c2.3,0.8,3.6,0.9,4.9,0.8c0.8-2.3,1.5-4.7,2.2-7.1c-0.3,0-0.6,0-0.9,0.1c-0.5,0.1-1.1,0.2-1.6,0.4c-0.3,0.1-0.6,0.1-0.9,0.3
				c-0.4,0.2-0.5,0.2-1.3,0.2c-3,0.1-7.8,0.2-9.8,0.4l0,0c0,0-0.9,0.2-1.9,0.5l-0.1,0.1v-0.1c-0.3,0.1-0.6,0.2-0.9,0.2l0,0
				c-2.4,0.7-4.9,1.4-5.2,1.4c-0.4-0.1-0.9-0.3-1.2-0.9c-0.3-0.5-0.2-1.3-0.5-1.8c-0.4-0.9-2.5-1.4-3.4-2c-0.7-0.5-0.9-1.1-0.4-1.9
				c0.2-0.4,0.6-0.4,1-0.3l-0.4-1.4l0,0l0,0l-5.4-4.1l-1.6-0.9v-1.1l-3.6-2.5l0,0l0,0l-2.1-0.3l-2.5-0.7l-0.4-0.7l1.5-6.4l2.9-4.1
				c0,0-0.2-1.2,0.7-3.2c0.9-2.1,4.2-4.8,4.2-4.8s1.5-0.6,1.6-0.7c0.1,0,1.6-0.2,1.6-0.2l1.4,0.3l1.9-0.7l-0.7-0.3l-1.1-0.1
				l-1.6-0.1l-1.2-0.9c0,0-0.5-0.4,0-0.5s1.4-1.4,1.5-1.4s3.6,0,3.6,0l8.5,0.1h3.3c0,0,1.5,0.8,2.5,1.3c0.4,0.2,0.8,0.4,0.8,0.5
				c0.3,0.3,0.5,2,0.8,2c0.2,0,1.7,0.7,1.7,0.7l0.9,0.5l0.4,0.9l0.5,1.2c0,0,0.2,1,0.3,1.3c0,0,0,0,0,0.1s0.1,0.4,0.1,0.5v0.1
				l-0.5,1.9l-1.1,2.2c0,0,0.1,3.5,0.1,3.7v0.1c0,0.4,0.1,2,0.1,2l-0.1,0.3l-0.8,2.2l-1.6,1.3l-2.1,4.2l-1.7,2.6l-1.8,2.2l-0.2,1.4
				c0.3,0.2,0.5,0.3,0.7,0.4c4.4,2.2,8.1,1.3,15.3,1.6c0.6,0,1.1,0.1,1.7,0.2c0.5-1.9,1-3.9,1.4-5.9c-0.6,0.7-1.6,1.2-2.7,0.9
				c-1.4-0.3-3.7-2.8-5.2-4.4c-0.5-0.6-0.6-0.7-0.6-1.1c0.1-0.9,0.3-1.1,1.1-0.8c0.8,0.3,1.6,0.8,2.5,1.7c0.7,0.7,1.7,1.7,2,1.5
				c0.1-0.1,0.1-0.5,0-0.9c-0.2-1-2-4.8-3-6c-0.2-0.2-0.4-0.5-0.6-0.7c-4.4-4.9,1.1-1.8,1.7-1.2c0.8,0.9,1.8,1.9,2.5,2.9
				c0.4,0.5,1.8,3.4,2.5,5.2c0.1,0.2,0.1,0.5,0.2,0.7c0.6-2.6,1.1-5.2,1.5-7.9c-1.6-1.7-4.3-4.3-5.7-5.1c-2.2-1.2-3.1-1.1-4-3.1
				c-0.7-1.5-0.9-3.6-1.6-5.4c-0.4-1.1-1.1-2.4-1.9-3.5c-0.8-1.2-1.8-2.3-2.8-3.1c-2.5-2-3.2-2-4.8-4.2c-2.1-2.8-3.9-6.3-6.6-8.1
				c-0.6-0.4-1.2-0.7-1.8-0.9c-0.9-0.3-4.1-0.5-7.1-0.8c-0.8-0.1-1.7-0.2-2.4-0.2c-0.8-0.1-2.3-0.4-3.8-0.8c-1.5-0.4-2.9-0.8-3.3-1
				c-0.8-0.4-1.4-0.8-2.1-0.9c-0.2,0-0.6,0-1,0.1c-0.7,0.2-1.4,0.4-2.1,0.6c-8.5,2.4-13.4,5.9-17.3,10.1c-2.7,2.8-4.9,6-7.6,9.3
				l-0.2,0.2l0.1,0.3l1.6-1.4c0.6-0.5,0.7-0.6,0.8-0.6c0.5-0.1,1.3,0.3,1.3,0.5c0.2,0.6-1.6,2.5-1.8,2.7c-0.6,0.7-1.3,1.6-1.7,1.8
				c-0.1,0-0.2,0-0.3,0.1c-0.5,0.2-3.3,2.8-3.3,2.8s1.5-0.4,2.5-0.8s1.5-0.7,2-1.2c1.1-0.9,2.6-2.9,4-2c0.3,0.2,0.5,0.4,0.3,0.8
				c-0.2,0.5-0.8,1.5-0.8,1.5s0.9,0.1,1.3,0.2c0.4,0.1,0.5,0.2,0.6,0.6c0.1,0.2,0,0.3-0.6,0.8l-6.7,5c0,0,1.6,0.1,2.4,0.1
				c0.2,0,0.4,0,0.6-0.1c0.3-0.1,0.3-0.2,0.9-0.7l2.5-2.5l0.7,0.7c0.3,0.3,0.3,0.5-0.1,1.1c-0.3,0.6-0.6,1.1-1.3,1.7
				c-0.8,0.8-2,1.7-2,1.7s1.5-0.1,1.8,0.1c0.2,0.1,0,0.7,0.1,1.2c0.1,0.4,0.8,1.2,0.9,1.2c0.4,0,0.7-0.6,0.5-1
				c-0.2-0.3-0.6-0.8-0.6-0.8s0.4-0.2,0.4-0.4c0.2-0.3-0.9-0.7-0.2-0.9c0.5-0.2,2.5,1.3,2.5,1.3c1.3,1,2.9,2.2,2.2,3.3
				c-0.3,0.5-0.6,0.8-1.1,0.6c-0.5-0.1-0.9-0.6-1.4-0.7c-0.4-0.1-1.7,0.7-2.5,0.8c-0.9,0.1-1.6-0.4-2.1,0.1
				c-0.4,0.4-0.5,1.2-0.9,1.6c-0.3,0.3-1.2,0.4-1.5,0c-0.2-0.2-0.2-0.9-0.5-1c-0.2-0.1-0.5,0-0.8-0.1c-0.4,0-0.7-0.2-0.9-0.2
				c-0.4,0-0.7,0.2-1.1,0.5c-0.2,0.2-2.7,3.2-3.8,2.3c-0.1-0.1-0.1-0.2-0.1-0.3c0-0.3,0.2-0.7,0.1-0.8c-0.1-0.2-0.9-0.1-1.5-0.2
				c-0.2,0-0.4-0.1-0.6-0.1c-0.3-0.1-0.4-0.1-0.9,0.4l-2.6,2.2c-0.6,0.5-0.7,0.6-1.1,0.5c-1-0.1-1-0.2-0.7-1.1
				c0.2-0.4,0.4-1,0.6-1.4c0.4-0.6,0.4-0.7,0.2-1l-0.6-0.6l2-1.7c0,0-1.7,0.4-2.3,0.4c-0.3,0-0.4,0-0.7-0.3
				c-0.2-0.2-0.5-0.5-0.5-0.5l2.6-2.2l-0.4-0.4l-2.6,2.2c-0.6,0.5-0.7,0.6-1.1,0.8c-0.7,0.4-1.6,0.5-2,0.1c-0.2-0.2-0.1-0.4,0-0.8
				c0.4-0.8,1.5-2.3,1.5-2.3s-1.5,0.6-2.5,1.1c-5.2,2.6-8.4,11.2-10,16.1c-0.2,0.7-2.6,8-2.4,9.9c0.1,1.2,0.8,2.8,0.8,3.7
				c0,0.9-0.4,1.9-0.2,2.2c0.2,0.2,0.6,0.3,0.9,0.8c0.4,0.6,0.7,1.9,0.7,1.9s0.4-2.8,0.9-4.1c0.3-0.8,0.7-1.3,0.7-1.9
				c0.1-1.2-0.3-1.4,0.2-2.2c0.2-0.4,0.5-0.8,0.7-1.2c0.2-0.7,0.1-1.5,0.2-2.1c0.1-0.7,0.6-1.8,1.4-1.9c0.5-0.1,1.4,0,1.4,0
				s-0.2,1.4-0.6,2.2c-0.4,0.7-1,0.9-1.1,1.3s0.2,1.3,0.2,2c0,0.5-0.8,1.7-1.2,2.8c-0.5,1.2-0.6,5.1,0,6.8c0.2,0.7,0.6,1.6,0.6,1.6
				s0.3-1.8,0.7-3.3c0.6-2,2.6-5.5,2.7-6.3c0.1-1.5,0-2.8,1.4-3.4c0.3-0.1,1.1,0,1.3,0.2c0.1,0.2-0.8,2.4-1.2,2.9
				c-0.2,0.3-0.4,0.5-0.4,0.7s0.1,0.3,0.1,0.5c0,0.3-0.4,1.3-0.7,1.5c-0.2,0.1-0.4,0.1-0.5,0.3c-0.2,0.2,0.2,1.1,0.3,1.8
				c0.1,0.6-0.3,1.6-0.6,2.4c-0.2,0.7-0.3,1.7-0.2,2.6c0.1,0.8,0.4,1.9,0.4,1.9s0.1-0.2,0.2-0.4c0.4-0.6,0.5-2.4,0.9-3.3
				c0.3-0.7,1.3-1.6,1.5-1.6s0.7,0.5,0.8,0.9c0.1,0.3,0.1,0.6-0.1,1.2c-0.2,0.9-0.6,2.4-0.6,2.4s1-0.4,1.7-0.5c0.8-0.1,1,0.4,1,1.1
				c0,0.8-0.3,1.5-0.2,2.4c0.3,2.3,2.3,4.2,1.9,5.5c-0.1,0.3-0.3,0.5-0.6,0.5c-0.5,0-1.4-0.5-1.4-0.5s-0.5,1.9-0.4,2.6
				c0,0.2,0.2,0.4,0.6,0.5c0.6,0.1,1.7,0.4,2,0.3c0.6-0.2,1.9-1.4,1.9-1.4l3.3,3.9c0.5,0.6,0.6,0.7,1.2,1.3c1.3,1.3,1.6,1.3,2.9,1.8
				c0.4,0.2,1,0.2,1.2,0.1s0.4-0.3,0.4-0.3s-0.2-0.1-0.6-0.1c0.2,0.4-1.5,0.1-1.5,0.1l-1.8-1.4l-0.5-0.9c0,0-0.6-1.5-0.6-1.7
				c0.1-0.2-1.7-0.6-1.9-0.9c-0.3-0.3-1.7-3.5-1.7-3.5l0.2-4.9c-1.5-2.3-4.6-7.9-4.9-8.8c-0.2-1-0.3-1.9-0.3-3c0-1.2,2.4-2.2,2.5-1
				c0,0.5,0.1,1,0.2,1.4c0.2,1.2,1.3,3.3,2,4.4c0.2,0.4,0.5,0.8,0.8,1.2l0.1-1.1c0,0,0.2-3.5,0.2-3.6s1.4-0.9,1.5-1.4s0.5,0,0.5,0
				l0.9,1.2v1.6v1.1l0.3,0.7l0.8-1.8l-0.2-1.4c0,0,0.2-1.5,0.3-1.6c0-0.1,0.8-1.6,0.8-1.6s2.9-3.2,5-3.9c0.7-0.3,1.3-0.4,1.8-0.5
				c0.9-1.2,1.9-2.2,2.8-2.3c0.3-0.1,1.2,0,2.1,0.1l0.8-0.5l6.5-1.2l0.7,0.5l0.5,2.5l0.2,2.2l0,0l2.3,3.7h0.7
				c0.1-0.1,0.2-0.3,0.3-0.4c0,0,0.4,0.4,0.6,0.9c0,0.2,0.1,0.4,0.1,0.6l0.3,0.6l3.8,5.6l1.8,0.7l1.3,4l-1,1.7l0.4,2.6l0,0l4.4,2.2
				l-0.6,1.9l-1.5,0.8l-1.4-0.1l-2.3-1.2l-1.5-1.7l-1.8,0.2l-2.3,1.6l-2.7,1.5l-4.3,1.9l-1.4,1.5l-2,1.7c0,0-2.9-0.1-3-0.1
				s-1.6-0.6-2.6-1c-0.2,0.1-0.5,0.1-0.8,0.1c-0.1,0-0.3-0.1-0.5-0.2l-1.7,0.8c0,0,1.1,0.2,1.9,0.3c0.6,0.1,1,0.2,1.4,0.4
				c0.6,0.3,0.7,0.3,1.5,0.4l13.8,0.9c0.8,0.1,0.9,0.1,1.6,0c0.5-0.1,0.9-0.3,1.3-0.5c1.1-0.5,2.1-0.9,2.4-1.2c0.4-0.6,0.6-2,1-2.5
				c0.7-0.8,1.9-1.8,1.9-1.8s0.5,0.5,0.8,0.8c0.3,0.4,0.3,0.8,0.2,1.1c-0.2,1-0.6,2.2-0.7,3.6c-0.2,3.3,1.4,8.9,3.5,11
				c0.5,0.5,1.1,1,1.8,1.3c0.3,0.1,0.6,0.2,0.9,0.4c0.7,0.3,1.5,0.5,2.1,0.8c2.3,1.1,6.5,5.4,8.2,7.1c0.6,0.5,0.6,0.6,0.6,0.8
				c0.1,0.8-1,1.8-1.4,2c-0.5,0.3-2,0.8-2.5,0.8c-0.8,0-2.6-0.6-2.3,0.4c0.1,0.3,0.3,0.5,0.5,0.7c0.7,0.6,1.5,1.3,2.6,2
				c1.9-2.5,3.8-5.2,5.7-7.8c-1.7-1.6-3.2-3.7-4.9-6.5c-0.8-1.2-1.4-2.4-1.8-3.7c-0.4-1.3-0.6-2.6-1-3.9c-0.1-0.4-0.2-0.8-0.4-1.1
				c-0.7-1.7-1.9-3.5-2.4-5c-0.4-1.4-0.4-2.8-0.9-4.2c-0.5-1.3-2.1-3.5-2.8-5c-0.4-0.9-0.8-2.2-0.1-2.6c0.3-0.2,1-0.1,1.2,0
				c5,5.2,3.8,6.9,5.7,12.6c0.3,0.9,0.8,2,1.5,3.1c2.2,3.8,5.9,8.4,8.1,9.9c0.4,0.3,0.9,0.6,1.5,0.8c1.7-2.5,3.3-5.1,4.8-7.8
				c-1.2-0.8-2.4-1.8-2.8-2.2c-1.1-1.2-1.9-2.5-3-3.7s-2.2-2.1-3.1-3c-0.9-0.9-1.5-1.8-1.8-3.1c-0.3-1.5-0.7-4-1-4.3
				c-0.1-0.1-0.2-0.2-0.4-0.3c-0.8-0.4-2.4-0.4-3.4-0.9c-0.4-0.2-1.9-1.8-2.4-2.6c-3-4.7-1.3-4.6,1.8-1c0.7,0.8,1.5,1.7,1.9,2
				c0.4,0.2,2.6,0,3,0.2c0.6,0.4,3,3.3,3,3.3s-0.3-2.2-0.1-2.7c0.1-0.3,0.3-0.4,0.4-0.6c0.2-0.2,0.4-0.4,0.5-0.5
				c0.2,0,0.9,1.2,1.7,1.8c0.5,0.4,2.7,0.8,4.8,1c1.3,0.1,2.4,0.2,3,0.3c0.3,0,0.6,0,1-0.3c0.6-0.4,1.5-1.2,1.5-1.2l-0.9-1
				c-0.4-0.5-0.5-0.5-0.7-0.9c0,0,0,0,0-0.1c-0.6-1-0.5-1.7,0.4-2.3c0.3-0.2,0.5-0.2,1.1,0.2l0.6,0.3l2.4,1.4c0,0-0.8-1.6-1.1-2.4
				c-0.1-0.2-0.1-0.3-0.1-0.4c0-0.4,0.3-1.3,0.6-1.5c0.2-0.1,0.5-0.1,0.9,0c0.3,0.1,0.5,0.2,0.8,0.3c0.7,0.3,1.4,0.6,2,0.7
				C874,121.5,874.8,121.3,875.7,121z M811.4,91.8l-1.9,1.3l0.2,0.7c0.1,0.3,0,0.4-0.5,0.9c-0.9,0.8-2.5,2.4-2.4,2.6
				c0,0.1,0.2,0.2,0.3,0.3c0.5,1-1.2,4-1.5,4.3c-0.5,0.5-1.1,0.8-1.7,1.2c-1.4,0.9-3.7,3.1-4.4,4.8c-0.6,1.6-1.4,3.1-1.6,3.1
				c-0.2,0-0.4,0-0.6-0.1c-1.2-0.6-0.6-4.9,1.1-8.8c0.6-1.3,1.3-2.7,2-3.9c0.9-1.5,3.2-4,4.6-5.2c1.5-1.2,5.2-4.2,6.5-3.1
				c0.2,0.1,0.3,0.3,0.5,0.5C812.1,90.8,811.9,91.5,811.4,91.8z M831.9,55.4c0.8-0.5,3.4-2,4.9-2.1c0.3,0,0.6,0,0.8,0l0.2,0.2
				c0.1,0.1-2.4,2.2-4.8,4c-0.3,0.2-0.4,0.3-0.4,0.4c0.1,0.1,0.4,0.1,0.7,0.3c0.4,0.2,0.5,0.5,0.4,0.8s-0.2,0.6-0.5,0.9
				c-0.3,0.4-0.8,0.7-1.4,1c-0.9,0.4-2.1,0.6-2.8,1c-1.7,1.2-2.4,3.6-3.9,2.7c-0.6-0.4-0.8-0.8-0.7-1.2c0.3-1.6,1.9-3.5,3.6-5.1
				C829.6,57,831,55.9,831.9,55.4z M832.6,105.7l-7.1-8.8c-1.5-2.3-2.6-4.1-2.6-4.3c0-0.2,0.6-0.8,1.7-0.9c0.7-0.1,1.2,0.6,2,1.8
				c1,1.4,2,2.8,3,4.3l3.9,7.2C834.1,106.2,833.5,106.7,832.6,105.7z M840.8,104.7l-7.5-7c-1.8-1.8-3.9-3.8-5.4-5.3
				c-0.6-0.5-0.6-0.6-0.6-0.9c-0.1-1.1,0.6-1.8,1.2-1.7c0.2,0,0.5,0.1,0.7,0.2c0.3,0.2,0.4,0.2,0.9,0.8l5.2,5.4l6.8,8.2
				C842.3,104.8,842.5,106.2,840.8,104.7z M843,94l-8.1-2.8l-3.6-1.7c-0.7-0.3-0.8-0.4-0.8-0.7c-0.1-1.2,0.5-1.7,1.1-1.7h0.3
				c0.1,0,0.2,0.1,0.9,0.4l3.2,1.6l6.8,3.7C844.2,93.5,843.9,94.3,843,94z"/>
			<path class="st0" d="M808.2,152.4l-4.6-8c-0.4-0.7-0.4-0.8-0.4-1.1c0.1-1-0.3-1-0.9-0.8c-1.9,0.5-1.9,0.9-3.7,0.5
				c-2.5-0.6-5.1-2.1-6.5-4c-0.7-1-1.1-2.2-1.8-3.3c-1.1-1.8-3.1-3.6-4-5.3c-0.8-1.3-1.2-2.8-2-4c-1.7-2.6-3.1-3-4-5.5
				c-0.5-1.5-0.7-3.6-1.2-4.7c-0.3-0.6-1.7-2.2-2-2.3c-1.3-0.1-1,4.8-0.7,6.7c0.6,3.8,4.9,12,6.2,14.1c1,1.4,6.3,7.1,9.8,10.5
				c2.1,2,2.4,2.2,4,2.2c1.1,0,5,1,5.9,1.4C804.2,149.6,808.2,152.4,808.2,152.4z"/>
			<path class="st0" d="M785.7,150.6c-0.9-0.3-3.1-1.8-3.6-1.9c-0.3,0-1.4,0.9-1.6,1.4c-0.8,1.5-0.8,2.1,1.1,2.8
				c4.9,1.8,6.3,0.6,10,2.8c2.9,1.8,9.2,6,10,6.2c0.3,0.1,0.7,0.1,0.7,0.1s-2.7-2.2-4.6-3.3c-1.3-0.8-2.2-1-3.3-1.9
				c-0.6-0.5-1.1-1.2-1.7-1.6c-0.9-0.6-3.4-1.3-3.8-1.6c-0.3-0.3-0.6-1.5-0.5-1.7c0.1-0.1,0.2-0.1,0.3-0.2c0.8-0.2,8.8,0.1,9.4-0.1
				c0.1,0,0.2-0.1,0.2-0.2c0-0.2-1.3-0.6-2.3-1c-3.9-1.6-9.6-7.5-11.9-9.9c-3.6-3.8-5.2-5.4-7.4-10.9c-1.1-2.7-2.3-6.2-3-7.4
				c-0.1-0.2-0.2-0.3-0.3-0.3c-0.2-0.1-0.4,0.1-0.5,0.4c-0.3,0.6-0.4,4.3-0.4,4.3s0.8-0.2,1.2-0.1c0.3,0,0.4,0.3,0.5,0.5
				c1,3.3,4.6,11.7,7.6,14.7c2.1,2.2,7.3,6,7.4,6.4c0.1,0.3,0.1,1.4-0.4,1.4c-0.6,0-1.8-0.9-2-0.4c-0.1,0.3,0.1,1,0.1,1.3
				C786.7,150.7,786.2,150.7,785.7,150.6z"/>
			<path class="st0" d="M774.2,136c0.2-0.4-0.8-6-1.3-6.5c-0.2-0.2-0.4-0.3-0.4-0.3s-0.8,3.2-1,4.7c-0.1,0.6-0.1,0.9-0.1,1.4
				c0.1,2.2,1,8,1,8s0.6-1,0.8-1.8c0.1-0.5-0.3-2.2-0.4-3.2c0-0.4,0.1-0.8,0.4-1.2C773.6,136.7,774.1,136.5,774.2,136z"/>
			<path class="st0" d="M868.3,27.2c-1.6-0.4-4.5-0.3-7-0.1c-0.5,0-0.9,0.1-1.3,0.2c-0.5,0.2-1,0.6-1.5,0.9
				c-0.3,0.2-0.6,0.3-0.8,0.4c-0.7,0.2-1.3,0.3-1.9,0.5c-0.9,0.3-9.8,7.4-11.1,7.9c-2.9,1.3-4.3,1-5.4,3.5c-0.5,1-0.4,3.1,0.8,3.8
				c0.4,0.2,1.3,0.4,1.8,0.5c1.6,0.4,0.4,0,0.1-1.9c-0.1-0.4,0.4-1.1,1.2-1.2c0.2,0,0.3,0,1.1,0.2l8.1,2.3l0.8,0.8
				c0,0-1.2,0.8-1.3,1.1s0.4,0.5,0.7,0.7c0.5,0.2,2.3,0.3,2.5,0.1c0.3-0.3,0.3-1.2,0.6-1.8c0.8-1.4,2.9-1.4,4.5-1
				c1.7,0.5,3.2,1,4.7,0.9c0.7-0.1,1.5-0.2,2.3-0.4c1.8-0.3,7.3-0.5,8.5-0.3c2.8,0.3,6.4,1.9,8.7,3.5c2,1.4,3.4,2.6,4.6,3.7
				c0-0.6,0-1.2,0-1.8c-2.1-1.4-7.5-5-8.3-5.5c-2.2-1.5-12.1-2.9-19.5-2.9c-1.2,0-2.2,0-2.6-0.1c-1.1-0.2-4.4,1.5-5.4,1.2
				c-1.3-0.4-8.4-2.2-8.7-2.5c-0.7-0.8,4.4-3.5,5.3-4.8c1.8-2.5,9.5-5.6,12.2-6.2c2.7-0.5,6.7,0.4,10.8,2.3
				c9.2,4.4,10.2,8.4,13.2,13.5l3.1,3.3c0-0.1,0-0.1,0-0.2c0-0.7-0.1-1.5-0.1-2.2c-0.3-0.4-0.6-0.7-0.9-1c-1.1-1.5-4.1-7.9-4.9-8.8
				C881.6,34.2,870.1,27.7,868.3,27.2z"/>
			<path class="st0" d="M866.7,135.9c0.6-0.4,1.6-0.9,2.4-1.3c1.3-2.4,2.5-4.9,3.7-7.4c-0.3,0.2-0.5,0.4-0.6,0.6
				c-0.4,0.5-0.6,1.1-0.9,1.5c-0.4,0.5-3.4,2.1-5.3,3.4c-0.7,0.5-2.8,3-3.1,3.6c-0.8,2.2-0.7,4.4,1.3,5.5c0.2,0.1,0.4,0.2,0.8,0.3
				c0.3-0.5,0.6-1,0.8-1.5l0,0C864,139.4,864.9,137.1,866.7,135.9z"/>
			<path class="st0" d="M866.8,206.3l3-0.6l1.2-0.2l3.1-0.6l0,0h0.1c0.1,0,0.2,0,0.3-0.1c0.2-0.1,0.6-0.1,1.1-0.3
				c1-0.2,2.4-0.6,4.2-1.2c0.6-0.2,1.2-0.4,1.8-0.6c3.4-1.2,7.6-2.8,12.3-5.3c9.9-5.1,21.7-13.4,30.9-26.6l-2.1-1.2l-1.6-1l-2-1.2
				l-3.3-1.9l-2.1-1.2l-0.9-0.5l-1.1-0.6l-1.1-0.6l-0.9-0.6l-2.7-1.6l-1.8-1.1l-14.3-8.4l-2.5-1.5l-2.5-1.5l-8.9-5.2l-3.7-2.2
				l-1-0.6c-1.3,2.4-2.6,4.7-3.9,7c-1.5,2.6-3,5.1-4.6,7.6c-1.5,2.3-2.9,4.6-4.5,6.8c-1.7,2.6-3.5,5-5.3,7.5
				c-1.9,2.6-3.9,5.2-5.9,7.7c-4.3,5.4-8.7,10.4-13.2,15c-6.8,7-13.7,13.2-20.4,18.4c-5.4,4.1-10.7,7.6-15.8,10.5l15.9-3.3l4.6-1
				l45.4-9.4L866.8,206.3z"/>
			<path class="st0" d="M887.1,104c-0.5,1.7-1,3.3-1.5,5c-0.3,1.1-0.7,2.2-1.1,3.3c-0.4,1.2-0.8,2.5-1.3,3.7c-0.6,1.8-1.3,3.5-2,5.2
				c-0.3,0.8-0.7,1.7-1.1,2.5c-0.3,0.7-0.6,1.3-0.9,2c-0.2,0.5-0.5,1.1-0.8,1.6c-1.1,2.3-2.2,4.6-3.3,6.9c-0.4,0.8-0.9,1.7-1.3,2.5
				l2.2,1.5l12,7.9l0.5,0.3l4.5,2.9l13.2,8.7l1.7,1.1l2.6,1.7l1,0.6l1,0.7l1,0.7l0.8,0.5l1.8,1.2l3.2,2.1l2,1.3l1.4,1l2.1,1.4
				c1.1-1.6,2.1-3.2,3.1-4.8c3.7-6.3,6.9-13.5,9.1-21.9c0.1-0.5,0.3-1.1,0.4-1.6c0-0.1,0-0.2,0.1-0.2l0,0c0.1-0.6,0.3-1.2,0.4-1.8
				c0.5-2.4,1-4.8,1.4-7.3v-0.1c0.1-0.7,0.2-1.4,0.3-2.2c0-0.3,0.1-0.7,0.1-1c0.1-1.1,0.2-2.2,0.3-3.4c0-0.4,0.1-0.8,0.1-1.2
				c0-0.2,0-0.5,0.1-0.7l-0.9-1.8l-0.8-1.6l-2.1-3.9l-5.3-10l-14.2-26.7l-8.4-15.7l-16.6-31.1c1.3,7.8,1.8,16.1,1.7,24.6
				c0,0.1,0,0.2,0,0.3c0,0.5,0,1,0,1.5c-0.1,4.1-0.4,8.1-0.7,12.2c-0.5,4.7-1.1,9.5-1.9,14.1c-0.2,1.3-0.5,2.6-0.7,3.8
				c-0.8,3.9-1.6,7.7-2.6,11.5C887.6,102.2,887.4,103.1,887.1,104z M889,140.2l0.7-1.2c0.5-0.5,1.3-0.9,2.1-1c0.1,0,0.2,0,0.4,0
				c0.9,0,1.7,0.3,2.3,0.8c0.1,0.1,0.2,0.2,0.3,0.3c0.5,0.5,0.8,1.1,0.9,1.8c0,0.1,0,0.3,0,0.4c0,1.6-1.3,3-3,3.2
				c-0.1,0-0.2,0-0.4,0c-0.9,0-1.7-0.3-2.3-0.8c-0.3-0.2-0.6-0.6-0.8-0.9c-0.2-0.4-0.4-0.7-0.4-1.2c0-0.1,0-0.3,0-0.4
				C888.8,140.8,888.8,140.5,889,140.2z M919.5,162.6c-1.3,0-2.4-0.9-2.8-2.1c0-0.1-0.1-0.2-0.1-0.3c0-0.1,0-0.2,0-0.4
				c0-0.3,0.1-0.6,0.1-0.8c0.3-1,1.2-1.7,2.3-1.9l0,0c0.1,0,0.2,0,0.3,0c0.4,0,0.8,0.1,1.2,0.3c0.9,0.4,1.5,1.2,1.6,2.2
				c0,0.1,0,0.3,0,0.4c0,1.4-1.1,2.6-2.5,2.7C919.7,162.6,919.6,162.6,919.5,162.6z"/>
			<g>
				<path class="st0" d="M890.2,141.4c0.1,0.5,0.3,0.9,0.7,1.2c0.4,0.3,0.9,0.5,1.4,0.5h0.2c1.1-0.1,1.8-0.9,1.8-1.8v-0.2
					c-0.1-0.4-0.3-0.9-0.7-1.2c-0.1-0.1-0.3-0.2-0.4-0.2c-0.9,0.3-1.7,0.6-2.1,0.6c-0.2,0-0.4,0-0.6,0c-0.2,0.3-0.3,0.6-0.3,0.9
					L890.2,141.4z"/>
				<path class="st0" d="M893.2,139.7c-0.3-0.2-0.6-0.2-1-0.2H892c-0.7,0.1-1.2,0.4-1.5,0.9c0.2,0,0.4,0,0.6,0
					C891.4,140.2,892.2,140,893.2,139.7z"/>
				<path class="st0" d="M889,140.2"/>
				<path class="st0" d="M889.7,139"/>
				<path class="st0" d="M917.8,160c0.1,0.8,0.8,1.4,1.7,1.4h0.2c0.8-0.1,1.4-0.8,1.4-1.5v-0.2c-0.1-0.8-0.8-1.4-1.6-1.4
					c-0.6,0.5-1.1,0.9-1.6,1.3c0,0.1,0,0.1,0,0.2L917.8,160z"/>
				<path class="st0" d="M919.5,158.2C919.4,158.2,919.4,158.2,919.5,158.2h-0.3c-0.8,0.1-1.3,0.6-1.4,1.3
					C918.4,159.1,918.9,158.7,919.5,158.2z"/>
				<path class="st0" d="M822.9,104.3c-0.2-0.7-0.4-1.3-0.7-1.4c-0.3-0.2-2.6,0.1-4,0.5c-1.3,0.3-2.1,0.5-3,0.9
					c0.6,0.1,1,0.2,1.2,0.4c0.8,0.8,0.3,3.8-0.7,4.4c-0.4,0.2-1,0.3-1.5,0.5c-1.1,0.6-1.6,2.9-2.5,4.1l-0.2,0.3
					c-0.3,0.4-0.9,0.5-1.1,0.3l-0.6-0.5c0,0-1.3,1.1-2,2.1c-0.5,0.8-0.9,2.9-1.4,3.7c-0.2,0.4-0.5,0.5-0.9,0.4
					c-1.8-0.5-0.2-4.4,0.3-5.8c0.5-1.5,1.9-4.7,3.5-7.1c-0.4,0-0.8,0-1.3,0.1c-1.5,0.4-4.2,2.9-5,4.3c-1.1,1.8-0.2,2.8-1.3,6.1
					c-0.1,0.2-0.1,0.3-0.2,0.3c-0.3,0-0.7-1.4-0.7-1.6c0-0.9,0.2-2.3,0-2.6c-0.3-0.5-0.8-0.9-0.8-0.9s-0.6,0.5-1.2,1
					c-0.1,0.1-0.4,2.4-0.6,5.2c1.6,2.1,4.1,4.2,6.2,5.3c2.1,1.1,4.7,2.3,4.9,2.7c0.3,0.6,0.3,3.3,0.7,4.7c0.1,0.4,0.3,0.8,0.5,1.2
					c0.4,0.8,1.1,1.5,1.3,2.2c0.1,0.4-0.1,0.9-0.4,1.3c1,0.1,2.5,0.3,3.5,0.4c0.8,0.1,0.9,0.1,1.1,0.1c0.1,0,0.3-0.1,0.4-0.1
					c0.5-0.2,1-0.4,1.4-0.6c0.8-0.5,1.4-1.3,2.3-1.9c1-0.7,5.5-2.5,6.3-3.1c1.4-1.1,1.9-1.8,4-2.1c1.3-0.2,1.1,0.6,2.5,1.9
					c0.7,0.7,2.1,1.2,2.8,1c0.4-0.1,1.8-1.3,1.8-1.5c0.1-0.7-1.2-0.9-2.2-1.5c-0.4-0.3-0.9-0.8-1.2-1.3l0,0l0,0
					c-0.5-0.8-0.9-1.8-0.7-2.5c0.2-0.8,0.9-1.6,1-2.1c0-0.3-0.7-2.6-1.1-3.1c-0.4-0.5-1.3-0.9-2-1.4c-0.6-0.4-1.4-1.4-1.8-2.2
					c-0.6-1.2-1.5-2.9-2-3.6c0.3,1.7,0.5,4.2,0.5,6.6c0,0.7-0.1,1.7-0.3,1.9c-0.1,0.1-0.2,0.2-0.2,0.4c0,1.1-0.1,2-0.2,2.8
					c-0.1,0.7-0.4,1.8-0.7,2.6c-0.3,0.7-1.3,1.9-2.1,2.4c-1,0.7-2.2,1.2-3,1.3c-2.3,0.1-5-0.7-4.8-0.7c-0.1,0.1-0.6,0.7-0.8,1
					c-0.6,0.8-1.4,2.3-1.6,2.3c-0.2,0.1-0.5,0-0.6-0.2c-0.5-0.6,0.3-2.1,0.7-3.3c0.5-1.5,1.5-8.3,1.5-8.3s-0.2,0.2-0.4,0.4
					c-0.4,0.5-0.5,1.1-0.6,1.6c-0.2,1.4-0.6,2.8-1.3,2.9c-0.1,0-0.3-0.1-0.4-0.2c0.2,1.1,0.5,1.6,0.5,1.7c-0.1,0.3-0.3,0.5-0.8,0.5
					c-0.2,0-0.3-0.1-0.3-0.3c-0.9-2.7,0.1-7.7,2-10.2c0.1-0.2,0.3-0.3,0.4-0.5c0.2-0.2,0.4-0.5,0.7-0.7c0.6-1,1.4-2,2.3-2.9
					c1.5-1.5,4.9-4,4.9-4s0.8,1.3,0.9,2c0.1,0.7-0.2,2-0.2,2c1-0.5,1.8-1.2,2.6-2.1c-0.2-0.1-0.3-0.2-0.4-0.3
					c-0.3-0.3-1.7-2.5-2.3-3.7l0,0l0,0c-0.1-0.2-0.2-0.4-0.2-0.5C823,106.2,823.1,105.2,822.9,104.3z"/>
				<path class="st0" d="M814,120.5c-0.2,0.7-0.4,1.3-0.5,1.9C813.6,121.8,813.7,121.1,814,120.5z"/>
				<path class="st0" d="M807.4,135c-0.4-0.6-0.9-2.7-1.4-3.7c-0.5-1.2-1.3-1.2-3.2-2.1c-0.7-0.3-3.7-3.1-4.5-4.2
					c-0.1-0.1-0.2-0.2-0.3-0.4c-0.1,2-0.1,3.6-0.1,4c0.3,1.3,0.9,2.9,1.3,3.4c0.4,0.4,1.4,1.1,1.8,1.1c0.1,0,0.3,0,0.4,0
					c0.4,0,0.3,0.4,0.3,1.3c0,1.3,1.2,2.5,2.3,2.9c0.4,0.1,1,0.3,1.5,0.4l0,0c-0.1-0.1,0.6,0.1,0.6,0.1l1.9-0.4c0,0,0.8-0.5,1.6-0.8
					C808.7,136.1,807.5,135,807.4,135z"/>
				<path class="st0" d="M824.1,120c-0.2,0.3-0.4,0.7-0.6,1c0.2,0.4,0.4,0.8,0.5,1.2c0.3,1.5,0,3.3-1,4.4c-0.7,0.8-1.7,1-2.1,1h-0.1
					l0.2-0.9c0.1-0.6,0.2-1.3,0-2c-0.1-0.2-0.2-0.3-0.3-0.4c-0.5,0.4-1,0.7-1.6,1c-0.4,0.2-0.9,0.4-1.4,0.6c-0.1,0.6-0.2,1.3-0.3,2
					c0.7,0.2,2.3,0.8,3.1,0.8c2.8,0,5.2-1.6,5.5-4.5C826,122.6,825.4,121.2,824.1,120z"/>
				<path class="st0" d="M822.8,119.1c-0.5-0.2-1.5-0.5-1.9-0.4c-0.2,0.1-0.3,0.2-0.3,0.3c0,0.2,1.2,0.6,2,1.1
					c0.1-0.2,0.1-0.5,0.1-0.7C822.8,119.3,822.8,119.2,822.8,119.1z"/>
				<path class="st0" d="M819.2,123.5L819.2,123.5l-0.1,0.1L819.2,123.5z"/>
				<path class="st0" d="M826.5,111.3h-0.7c0.1,0.1,0.3,0.2,0.4,0.3C826.3,111.5,826.4,111.4,826.5,111.3z"/>
				<path class="st0" d="M818.2,103.3c1.4-0.3,3.7-0.6,4-0.5c0.3,0.2,0.6,0.7,0.7,1.4c0.2,0.9,0.1,1.9,0.3,2.7
					c0,0.1,0.1,0.3,0.2,0.5l-0.2-2.2l-0.5-2.5l-0.7-0.5l-6.5,1.2l-0.8,0.5c0.1,0,0.2,0,0.4,0.1C816.2,103.7,817,103.6,818.2,103.3z"
					/>
				<path class="st0" d="M798.9,113.7c0.5-0.5,1.2-1,1.2-1s0.6,0.5,0.8,0.9c0.2,0.3,0,1.7,0,2.6c0,0.2,0.4,1.6,0.7,1.6
					c0.1,0,0.2-0.2,0.2-0.3c1.1-3.2,0.3-4.3,1.3-6.1c0.8-1.4,3.5-3.9,5-4.3c0.4-0.1,0.8-0.1,1.3-0.1c0.2-0.2,0.3-0.5,0.5-0.7
					c-0.5,0.1-1.1,0.2-1.8,0.5c-2.1,0.8-5,3.9-5,3.9s-0.7,1.5-0.8,1.6c0,0.1-0.3,1.6-0.3,1.6l0.2,1.4l-0.8,1.8l-0.3-0.7v-1.1v-1.6
					l-0.9-1.2c0,0-0.4-0.5-0.5,0s-1.5,1.3-1.5,1.4s-0.2,3.6-0.2,3.6l-0.1,1.1c0.1,0.1,0.2,0.2,0.2,0.3
					C798.6,116.2,798.8,113.9,798.9,113.7z"/>
				<path class="st0" d="M801.8,134.3c0-0.9,0.1-1.3-0.3-1.3c-0.1,0-0.3,0-0.4,0c-0.4,0-1.4-0.7-1.8-1.1c-0.4-0.5-1-2.1-1.3-3.4
					c-0.1-0.3,0-1.9,0.1-4c0-0.1-0.1-0.1-0.1-0.2l-0.2,4.9c0,0,1.4,3.2,1.7,3.5s2,0.6,1.9,0.9c-0.1,0.2,0.6,1.7,0.6,1.7l0.5,0.9
					l1.8,1.4c0,0,1.7,0.3,1.5-0.1c-0.5-0.1-1.1-0.3-1.5-0.4C802.9,136.8,801.8,135.6,801.8,134.3z"/>
				<path class="st0" d="M835.3,128.7c1,0.6,2.2,0.9,2.2,1.5c0,0.3-1.4,1.4-1.8,1.5c-0.7,0.2-2-0.4-2.8-1c-1.4-1.3-1.2-2-2.5-1.9
					c-2.1,0.3-2.6,1-4,2.1c-0.8,0.7-5.4,2.4-6.3,3.1c-0.8,0.6-1.4,1.4-2.3,1.9c-0.4,0.2-0.9,0.4-1.4,0.6c-0.1,0.1-0.3,0.1-0.4,0.1
					c-0.2,0-0.3,0-1.1-0.1c-1-0.1-2.5-0.3-3.5-0.4c-0.1,0.1-0.3,0.2-0.4,0.3c0.9,0.4,2.4,1,2.6,1c0.2,0,3,0.1,3,0.1l2-1.7l1.4-1.5
					l4.3-1.9l2.7-1.5l2.3-1.6l1.8-0.2l1.5,1.7l2.3,1.2l1.4,0.1l1.5-0.8l0.6-1.9l-4.4-2.2C834.5,128,834.9,128.4,835.3,128.7z"/>
				<path class="st0" d="M829.5,116.1c0.4,0.9,1.2,1.8,1.8,2.2c0.7,0.5,1.7,0.9,2,1.4c0.3,0.4,1.1,2.7,1.1,3.1
					c-0.1,0.6-0.8,1.4-1,2.1s0.2,1.7,0.7,2.5l-0.4-2.6l1-1.7l-1.3-4l-1.8-0.7l-3.8-5.6l-0.3-0.6c0,0.1,0,0.1,0,0.2
					C828,113.2,828.9,114.9,829.5,116.1z"/>
				<path class="st0" d="M823.5,107.5c0.6,1.2,2,3.4,2.3,3.7L823.5,107.5z"/>
				<path class="st0" d="M809.7,136.5c-0.8,0.3-1.6,0.8-1.6,0.8L809.7,136.5L809.7,136.5z"/>
				<path class="st0" d="M813.1,124.2c0.1-0.6,0.2-1.2,0.4-1.8c0.1-0.6,0.3-1.2,0.5-1.9c0.5-1.4,1.1-2.7,1.9-4
					c-0.3,0.2-0.5,0.5-0.7,0.7c-0.1,0.2-0.3,0.3-0.4,0.5c-1.9,2.6-3,7.6-2,10.2c0.1,0.2,0.2,0.3,0.3,0.3c0.5,0,0.7-0.2,0.8-0.5
					c0,0-0.3-0.6-0.5-1.7c-0.1-0.1-0.2-0.3-0.3-0.4C812.9,125.3,813,124.7,813.1,124.2z"/>
				<path class="st0" d="M823.5,121c0.2-0.3,0.4-0.7,0.6-1c-0.3-0.3-0.7-0.6-1.2-0.9c0,0-0.1,0-0.1-0.1c0,0.1,0,0.3,0,0.4
					c0,0.2-0.1,0.4-0.1,0.7c0.2,0.1,0.3,0.2,0.4,0.3C823.2,120.6,823.3,120.8,823.5,121z"/>
				<path class="st0" d="M820.5,124.2c-0.2-0.1-0.4-0.3-0.6-0.4c-0.3-0.1-0.5-0.3-0.7-0.4h-0.1v-0.1c-0.3-0.1-0.6-0.2-0.9-0.1
					c-0.3,0.9-0.5,1.7-0.7,2.5c0.4-0.2,0.9-0.4,1.4-0.6C819.5,125,820,124.6,820.5,124.2z"/>
				<path class="st0" d="M864.2,101.5c-0.1-0.1-0.2-0.3-0.4-0.4c0,0.1,0.1,0.2,0.1,0.2c0.1,0.2,0.1,0.4,0,0.5l0,0
					c0.1,0,0.1-0.1,0.2-0.1C864.1,101.6,864.2,101.5,864.2,101.5z"/>
				<path class="st0" d="M856.7,100.1c-0.2-0.1-0.3-0.2-0.5-0.4c-0.3-0.1-0.5-0.3-0.7-0.4l-0.1-0.1c-0.2-0.1-0.3-0.2-0.5-0.2
					l0.1,0.4L856.7,100.1z"/>
				<path class="st0" d="M865.6,104.4L865.6,104.4L865.6,104.4L865.6,104.4z"/>
				<path class="st0" d="M854.5,97.6l0.4,1.4c0.2,0,0.3,0.1,0.5,0.2C855.1,98.9,854.8,98.2,854.5,97.6z"/>
				<path class="st0" d="M860.7,100.1l2.5,0.5c-0.8-0.6-1.8-1-2.4-0.8c-0.8,0.2-1.6,0.8-2.2,0.9c-0.2,0-1.5-0.5-2.3-0.8
					c0.2,0.1,0.3,0.3,0.5,0.4l2.2,0.9L860.7,100.1z"/>
				<path class="st0" d="M863.2,100.6l0.7,1.2c0.1-0.1,0.1-0.3,0-0.5c0-0.1-0.1-0.1-0.1-0.2C863.6,100.9,863.4,100.7,863.2,100.6z"
					/>
				<path class="st0" d="M852.2,95.4c-1.3-0.8-3.4-1.9-3.8-2.4c-0.4-0.5-0.5-1-0.9-1.5v1.1l1.6,0.9l5.4,4.1
					c-0.1-0.1-0.1-0.2-0.2-0.3C853.9,96.7,853,95.9,852.2,95.4z"/>
				<path class="st0" d="M851.5,64.2c-0.1,0-1,1.3-1.5,1.4s0,0.5,0,0.5l1.2,0.9l1.6,0.1l1.1,0.1l0.7,0.3l-1.9,0.7l-1.4-0.3
					c0,0-1.5,0.1-1.6,0.2c-0.1,0-1.6,0.7-1.6,0.7s-3.3,2.7-4.2,4.8c-0.9,2.1-0.7,3.2-0.7,3.2l-2.9,4.1l-1.5,6.4l0.4,0.7l2.5,0.7
					l2.1,0.3c-0.2-0.1-0.4-0.2-0.5-0.3c-0.8-0.3-1.8-0.2-2.7-0.5c-0.7-0.2-1.2-0.5-1.4-0.8s0.3-2.5,0.7-3.9c0.5-1.7,0.7-2.6,1.8-4.2
					c0.8-1.1,2-2.5,2.2-3.1c0.2-0.8,0.1-1.7,0.4-2.5c0.5-1.5,3.1-4,4.5-4.8c1.9-1,2.8-0.1,6.1-1c0.2,0,0.3-0.1,0.4-0.2
					c0-0.3-1.3-0.7-1.5-0.8c-0.9-0.1-2.3,0.1-2.6-0.2c-0.4-0.3-0.9-0.9-0.9-0.9s0.5-0.6,1.1-1.1c0.3-0.2,9.1-0.4,13-0.3
					c-0.2-0.1-0.5-0.1-0.7-0.2l-8.5-0.1C855.2,64.2,851.7,64.2,851.5,64.2z"/>
				<path class="st0" d="M869.5,66c0.4,0.4,1,1.5,1,1.9c0,0.1,0,0.3,0,0.4c0,0.4,0.4,0.3,1.3,0.4c0.9,0,1.7,0.7,2.3,1.5l-0.4-0.9
					l-0.9-0.5c0,0-1.4-0.7-1.7-0.7c-0.2,0-0.5-1.7-0.8-2c-0.1-0.1-0.4-0.3-0.8-0.5c-0.4-0.1-0.9-0.2-1.3-0.3
					C868.8,65.5,869.3,65.8,869.5,66z"/>
				<path class="st0" d="M873.4,81v-0.1c0-0.2-0.1-3.7-0.1-3.7C873.2,77.7,873.3,79.5,873.4,81z"/>
				<path class="st0" d="M874.9,72.6L874.9,72.6c0,0.2,0.1,0.4,0.1,0.5C874.9,73,874.9,72.7,874.9,72.6z"/>
				<path class="st0" d="M874.4,75.1c0,0-0.8,1.1-1.1,2.2L874.4,75.1z"/>
				<path class="st0" d="M843.9,88.9l3.6,2.5C847.2,91.1,845.1,89.6,843.9,88.9z"/>
				<path class="st0" d="M872.7,84.8c-0.5,0.8-1.4,1.4-2,2.2c-0.8,0.9-2.8,5.4-3.5,6.2c-1.2,1.3-1.9,1.8-2.3,3.9v0.1
					c0.1,0.1,0.3,0.2,0.4,0.2l0.2-1.4l1.8-2.2l1.7-2.6l2.1-4.2l1.6-1.3l0.8-2.2v0.1C873.1,83.9,872.9,84.4,872.7,84.8z"/>
				<path class="st0" d="M866.2,64.5c0.7,0.2,1.4,0.5,2,0.7c0.4,0.1,0.9,0.2,1.3,0.3c-1-0.6-2.5-1.3-2.5-1.3h-3.3
					c0.2,0.1,0.5,0.1,0.7,0.2C865.3,64.4,866,64.4,866.2,64.5z"/>
				<path class="st0" d="M856.5,80.4c5.2-1.9,8.1-0.1,8.2-0.1c0.3-0.1,0.5-0.3,0.5-0.7c0-0.2-0.1-0.3-0.3-0.3
					c-2.6-1.1-7.7-0.3-10.3,1.5c-0.2,0.1-0.4,0.3-0.5,0.4c-0.9,0.7-2,2.1-2.3,2.9c-0.4,1.1-0.7,2.6-0.8,2.6l0.2-0.2
					c0.1-0.2,0.2-0.5,0.4-0.9c0.4-1.1,0.9-2,1.6-2.6C854.3,81.5,855.4,80.8,856.5,80.4z"/>
				<path class="st0" d="M861.9,85.3c0.6-1.1,1.3-2.6,1.3-2.6c-1.9-0.4-3.6-0.2-5.4,0.3l-0.1,0.3c-0.2,0.2-0.2,0.6-0.2,1
					c0,0.6,0.7,1.2,1.2,1.2c0.4,0,0.8,0,1.1,0h0.4l-0.1,0.5v0.2c-0.2,0.8-1.5,2-2.7,2.5c-0.5,0.2-1,0.3-1.4,0.3
					c-3,0.1-3.3-2.7-3.3-2.8l-0.1-0.1l-0.3,0.4c-0.2,0.4-0.4,1.1-0.3,1.7c0,0.8,0.2,1.4,0.5,1.9l0.4,0.6c0.7,0.3,2.5,0.1,3.6-0.4
					C858.4,89.1,860.6,87.6,861.9,85.3z"/>
			</g>
		</g>
		<g>
			<g id="type">
				<g>
					<path class="st1" d="M585,56.4c0.2-2-1.5-6.2-5-12.5L559.6,6.7c-2.4-4.3-4.1-7-5.1-8.1c-1-1-2.2-1.5-3.7-1.5
						c-1.5,0.1-3.8,1-7,2.7l34.5,63C582.6,60.5,584.8,58.4,585,56.4z"/>
					<path class="st1" d="M824.5-55c-5.2,20.5-8.7,35.6-10.4,45.2l11.4,1C824.8-21.3,824.5-36.7,824.5-55z"/>
					<path class="st1" d="M642.9-5c1.7-0.6,2.7-1.3,3-2.2c0.2-0.9-0.2-3-1.4-6.4c-0.6-1.8-1.2-3-1.9-3.6c-0.6-0.6-1.3-0.9-2-0.8
						c-0.7,0-2,0.3-3.8,0.9l4.3,12.7C641.9-4.6,642.5-4.8,642.9-5z"/>
					<path class="st1" d="M649.6,20.5c2.5-0.9,4-1.8,4.5-2.6s0.3-2.4-0.4-4.7l-1.8-5.3c-0.8-2.4-1.6-3.8-2.4-4.1
						c-0.8-0.3-2.5,0-5.2,0.8L649.6,20.5z"/>
					<path class="st1" d="M1213.3,211.6c-20.2,6.3-34.9,11.2-43.9,14.7l5.1,10.2C1184.7,229.5,1197.7,221.2,1213.3,211.6z"/>
					<path class="st0" d="M655.7,29.4c7.2-2.4,11.8-4.4,13.8-5.8c2.1-1.5,3.3-3.3,3.8-5.5c0.4-2.2,0-5.3-1.3-9.1l-1.8-5.3
						c-1.3-3.7-2.9-6.2-5-7.5s-5.3-1.6-9.7-1c3.4-2,5.6-3.8,6.4-5.5c0.8-1.7,0.6-4.3-0.5-7.6c-1.7-4.9-3.8-8.2-6.3-9.8
						s-5.4-2.3-8.5-2.1c-3.1,0.3-7.5,1.3-13.1,3.2l-17.7,6l19.4,57.1L655.7,29.4z M649.4,3.8c0.8,0.3,1.6,1.7,2.4,4.1l1.8,5.3
						c0.8,2.3,0.9,3.9,0.4,4.7s-2,1.7-4.5,2.6l-5.4-16C646.9,3.7,648.6,3.5,649.4,3.8z M640.7-18c0.7,0,1.4,0.3,2,0.8
						c0.6,0.6,1.3,1.8,1.9,3.6c1.2,3.4,1.6,5.5,1.4,6.4s-1.2,1.6-3,2.2c-0.4,0.1-1,0.4-1.8,0.6l-4.3-12.7
						C638.7-17.6,640-17.9,640.7-18z"/>
					<path class="st0" d="M684.5,20.7l16.9-4l-5-21.3l4.6-40.6l-16.8,3.9c-0.2,9.7-0.1,17.8,0.3,24.3c-1.3-3.9-4.5-11.3-9.9-22.1
						l-16.8,3.9l21.6,34.5L684.5,20.7z"/>
					<polygon class="st0" points="362.5,277.3 342.6,271.5 336.9,291.1 317,285.3 323.4,263.3 302.4,257.1 286.7,311 391.6,341.6 
						400.9,309.8 356.8,297 					"/>
					<path class="st0" d="M388.3,279.1c3.7,1.2,7.7,1.3,12.1,0.2c4.4-1.1,8.8-3.8,13.3-8.1c4.5-4.3,8.4-9.9,11.7-16.7
						c3-6.2,4.8-12,5.3-17.3c0.6-5.3-0.1-10.2-1.9-14.5s-4.1-7.5-6.9-9.5c-2.7-2-7.8-4.8-15.3-8.4L340.8,173l-14.4,29.8l72.5,35
						c4.9,2.4,7.9,4.1,8.9,5.3c1.1,1.2,1.1,2.7,0.2,4.6c-0.8,1.7-1.9,2.5-3.4,2.4c-1.5,0-4.3-1.1-8.6-3.2l-73.8-35.6l-14.4,29.8
						l58.2,28.1C377.2,274.6,384.6,277.9,388.3,279.1z"/>
					<polygon class="st0" points="475.4,170.9 457.6,158.1 443.5,177.9 424,164 436,147.1 419.1,135 407,151.9 390.2,139.8 
						403,121.8 385.3,109.1 353.1,154 442,217.6 					"/>
					<polygon class="st0" points="513.2,131.6 512.6,130.8 497.5,116.4 483.6,131 420.2,70.8 397.4,94.9 476.6,170.1 					"/>
					<polygon class="st0" points="513.2,131.6 513.3,131.7 558.2,95.9 544.6,78.8 525.6,94 510.6,75.2 526.8,62.3 513.9,46 
						497.7,58.9 484.8,42.7 502.1,28.9 488.4,11.8 445.2,46.2 512.6,130.8 513.3,131.5 					"/>
					<polygon class="st0" points="513.3,131.5 512.6,130.8 513.2,131.6 					"/>
					<path class="st0" d="M595,75c6.9-3.8,12-7,15.1-9.5c3.1-2.5,5.4-5.3,6.8-8.2c1.4-2.9,1.8-6.1,1.2-9.5s-3.3-9.4-8-18L591.7-3.8
						c-5-9.1-8.6-15-11-17.7c-2.3-2.7-5.5-4.7-9.5-5.8s-8.7-0.9-14.3,0.7c-5.5,1.6-15.3,6.3-29.4,13.9L505.8-0.8L558.3,95L595,75z
						 M550.9-3c1.5-0.1,2.7,0.4,3.7,1.5c1,1,2.7,3.7,5.1,8.1l20.4,37.2c3.5,6.4,5.2,10.6,5,12.5c-0.2,2-2.4,4.1-6.5,6.4l-34.5-63
						C547.1-2,549.4-2.9,550.9-3z"/>
					<polygon class="st0" points="779.3,26.9 779.2,26.2 774.9,25.8 778.1,12.9 777.5,5.1 757.4,6.7 750.4,-80.4 717.4,-77.7 
						726.2,31.2 					"/>
					<polygon class="st0" points="779.2,26.2 778.1,12.9 774.9,25.8 					"/>
					<g>
						<path class="st0" d="M811,18.5l1.7-9l6.6,0.6C832.2-2.1,844.6-9.6,854.6-11l-5.5-66.2l-47.7-4.2L778.1,13l1.1,13.3l23.4,2.1
							c2.4-2.9,4.8-5.8,7.2-8.5C810.2,19.4,810.6,18.9,811,18.5z M824.5-55c0.1,18.3,0.4,33.7,1,46.2l-11.4-1
							C815.8-19.4,819.2-34.5,824.5-55z"/>
						<path class="st0" d="M950.8-37.6c-0.6-5.1-3.5-10.1-8.7-15.2c-5.2-5-12.5-8.9-21.8-11.6c-9.5-2.7-17.7-3-24.8-0.9
							s-11.9,5.2-14.4,9.4c-2.6,4.2-5.3,11.3-8.1,21.3l-7.1,24.7c0.1,0.1,0.3,0.1,0.4,0.2c5.8,2.8,10.6,7.1,14.5,12.5
							c1.5,2,2.8,4.3,4,6.6c2.1,4.2,3.9,8.9,5.2,13.8l10.7,20.2c2.2-0.9,4.2-2.1,6.1-3.8l0.8,8.4l20,5.7l16.1-56.4l-37.3-10.7
							l-4.6,16l6.4,1.8l-3.6,12.5c-1.4,4.9-2.8,8.1-4.1,9.5s-3.1,1.8-5.5,1.2c-2.1-0.6-3.3-1.8-3.6-3.4c-0.3-1.7,0.3-4.9,1.6-9.6
							l14.4-50.4c1.5-5.4,2.8-8.6,3.9-9.7c1.1-1.1,2.6-1.4,4.6-0.8c2.3,0.6,3.5,1.8,3.7,3.5s-0.6,5.5-2.3,11.6l-2.7,9.5l31.8,9.1
							l1.3-4.5C950.4-25.7,951.4-32.5,950.8-37.6z"/>
					</g>
					<path class="st0" d="M940.4,37.2c-1.3,3.7-1.5,7.7-0.5,12.1s3.5,8.9,7.7,13.5c4.2,4.6,9.6,8.6,16.4,12.1
						c6.1,3.2,11.8,5.1,17.1,5.8c5.3,0.7,10.2,0.2,14.6-1.5c4.4-1.7,7.6-3.9,9.7-6.6c2.1-2.7,5.1-7.7,8.9-15.1l33.6-64.8l-29.4-15.2
						l-37,71.5c-2.5,4.8-4.4,7.8-5.6,8.8c-1.2,1-2.7,1-4.6,0.1c-1.6-0.8-2.4-2-2.3-3.5c0.1-1.5,1.2-4.3,3.4-8.5l37.7-72.8
						l-29.4-15.2L951,15.3C945.2,26.2,941.7,33.5,940.4,37.2z"/>
					<polygon class="st0" points="1021.9,109 1053,70.2 1035.4,119.8 1058,137.9 1126.4,52.7 1104.8,35.4 1074,73.7 1090.3,23.7 
						1068.7,6.4 1000.3,91.6 					"/>
					
						<rect x="1057.3" y="100.9" transform="matrix(0.7333 -0.6799 0.6799 0.7333 216.6945 787.3322)" class="st0" width="109.3" height="33.1"/>
					<polygon class="st0" points="1166.5,131 1095.2,181.5 1114.4,208.6 1185.7,158 1197,174 1214.9,161.4 1173,102.3 1155.2,115 
											"/>
					<path class="st0" d="M1133.7,242.2l18.5-7l5.3,10.6l-16.8,10.3l15.1,30.3l89.5-65.6l-21.3-42.9l-105.4,33.5L1133.7,242.2z
						 M1213.3,211.6c-15.6,9.6-28.5,17.9-38.9,24.9l-5.1-10.2C1178.4,222.8,1193,217.8,1213.3,211.6z"/>
					<path class="st0" d="M1270.2,284.7c-2.2-7.6-5.1-13.7-8.7-18.5c-3.6-4.7-7.6-7.8-12.1-9.1c-4.4-1.3-10.6-0.8-18.7,1.5
						c-5.6,1.6-9.9,3.8-13,6.5s-5.3,5.7-6.6,8.8c-1.3,3.2-3.1,9.3-5.3,18.5c-2.2,9.2-3.9,15.1-5.3,17.6c-1.3,2.5-5.1,4.7-11.3,6.4
						c-2.8,0.8-5.1,0.9-6.8,0.3c-1.7-0.6-2.9-2-3.5-4.1c-0.6-2.1-0.5-3.8,0.4-4.9c0.9-1.2,3.3-2.3,7.2-3.4l12.8-3.7L1191,271l-6.9,2
						c-7.9,2.3-13.7,4.9-17.4,8s-6.1,8-7.2,14.9c-1,6.8-0.3,14.5,2.1,23c2.2,7.8,5.4,14.2,9.5,19.4c4.1,5.2,8.2,8.3,12.3,9.3
						s9.9,0.5,17.4-1.7c10.3-3,17.2-6.9,20.8-11.9c3.6-5,6.9-15.6,10.1-31.9c1.1-5.7,2.4-9.3,3.8-10.8c1.5-1.6,3.9-2.9,7.4-3.9
						c2.7-0.8,4.9-0.9,6.5-0.3s2.7,1.9,3.3,3.8c0.5,1.8,0.4,3.2-0.4,4.2s-3,2.1-6.6,3.1l-7.8,2.2l8.5,29.6l4.2-1.2
						c8.3-2.4,14-5,16.9-7.9s4.7-7.6,5.3-14.1C1273.5,300.3,1272.6,292.9,1270.2,284.7z"/>
				</g>
				<g>
					<path class="st0" d="M966.6,412c-0.2,1.9-0.4,3.9-0.4,6h40.7c0.3-1.6,0.8-3.6,1.5-6H966.6z"/>
					<path class="st0" d="M1049.3,418h96.8l6-6h-96.6C1053.8,413.3,1051.7,415.4,1049.3,418z"/>
					<path class="st0" d="M934.7,415.3c0.3-0.8,0.8-2,1.3-3.4h-66c-0.4,0.1-0.7,0.2-1.1,0.2c-0.4,0-0.8-0.1-1.1-0.2h-3.4
						c-0.2,0.2-0.5,0.4-0.8,0.7c-4.8,4.6-12.4,5.1-15.5,5.1c-0.6,0-0.8,0-0.9,0c-1-0.1-2-0.6-2.6-1.5c-0.1-0.1-0.2-0.3-0.3-0.5
						c-1.4,0.2-2.8,0.5-4.1,0.9c-1.2,0.3-2.5,0.5-4,0.5c-4.7,0-9.3-1.8-9.8-2c-0.9-0.4-1.6-1.1-1.9-1.9c-0.1-0.4-0.2-0.8-0.2-1.2
						H708l-19.9,6h245.8c0-0.1,0-0.2,0.1-0.3C934,417.1,934.2,416.5,934.7,415.3z"/>
					<path class="st0" d="M1141.1,422.9l2-2h-96.5c-0.5,0.6-1.1,1.3-1.7,2H1141.1z"/>
					<path class="st0" d="M933.1,420.9H678l-6.6,2h260.7c0.3-0.4,0.5-0.8,0.7-1.2C932.9,421.5,933,421.2,933.1,420.9z"/>
					<path class="st0" d="M1006.5,420.9h-40.1c0.1,0.7,0.2,1.4,0.3,2h40.2c-0.3-0.4-0.5-0.9-0.5-1.4
						C1006.4,421.5,1006.4,421.3,1006.5,420.9z"/>
					<path class="st0" d="M791.2,43.6c-2.8-0.1-5.7-0.1-8.5-0.1c-207.4,0-375.5,162.3-375.5,362.4H494v-12h-74.6
						c3.1-89,40.5-172.3,106.1-235.7C593.7,92.4,684.3,55.9,780.7,55.4l4.2-2.2C786.9,50.1,789,46.8,791.2,43.6z"/>
					<path class="st0" d="M940.4,394h-59.6c-0.6,0.9-1.2,1.7-1.7,2.3c-1.7,1.9-5.3,7.4-6.9,9.7H938c0.6-2,1.1-4.3,1.6-6.8
						C939.8,397.6,940.1,395.8,940.4,394z"/>
					<path class="st0" d="M921.1,81.8c43.9,17.4,84.1,43.2,118.7,76.6c65.6,63.3,103,146.6,106.1,235.7h-59.2
						c-2.6,6-8.7,9.6-14.8,12h86.2c0-156-102.2-289-245.4-340.1L921.1,81.8z"/>
					<path class="st0" d="M835.5,394h-90.1c0.1,2.3,0.1,4.2,0.1,5.1c0.1,4-3.5,5.9-5.3,6.3c-0.2,0.1-0.7,0.2-1.4,0.5H824
						c0-0.1,0.1-0.3,0.1-0.4C826.1,399.9,831.9,396,835.5,394z"/>
					<path class="st0" d="M974.1,397.3c0.1,1,2.4,2.7,2.4,2.7s-5.3,3.1-6.6,3.9c-0.7,0.5-1.5,0.9-1.7,1.3c-0.1,0.1-0.2,0.4-0.3,0.7
						h42.9c0.5-1.1,1-2.2,1.6-3.3c2.2-4.1,6.1-6.8,10.5-8.7h-49.4C973.8,395.3,974,396.4,974.1,397.3z"/>
					<polygon class="st0" points="493.9,412 413.1,412 419.1,418 500.7,418 493.9,412.4 					"/>
					<polygon class="st0" points="422.1,420.9 424.1,422.9 506.8,422.9 504.3,420.9 					"/>
				</g>
			</g>
			<g id="amp">
				<path class="st0" d="M600.9,196.1c1.4-0.1,2.5-0.1,3.1-0.2c0.2-0.9,0.5-2.5-0.2-3.4c-0.3-0.6-1-0.9-1.9-0.9
					c-4.5-0.2-24.7-1.2-24.9-1.2c-0.1,0-3.1,0.1-3.6,4c0,0,0,0,0,0.1L600.9,196.1z"/>
				<path class="st0" d="M676.6,200.5c2-0.2,3.7-0.4,4.6-0.6c-0.2-0.7-1-1.7-3.3-2c-3.7-0.5-12.9-1.7-15.1-1.9
					c-0.2,0.5-0.6,1.7-0.5,3.7L676.6,200.5z"/>
				<polygon class="st0" points="558,237.3 558,237.3 548.3,206.6 546.8,201.7 721.4,211.1 734.9,240.5 742.4,240.6 725.4,204.6 
					536.2,193.8 546.8,237.1 				"/>
				<path class="st0" d="M705.7,239.6l-10-25.2l-89.3-3.9l9.9,27.4L705.7,239.6z M695.7,227.2c0.1,0,0.2,0,0.4,0.1
					c0.5,0.1,0.6,0.3,0.5,0.5s-0.4,0.2-0.8,0c-0.2-0.1-0.4-0.2-0.5-0.3C695.4,227.5,695.5,227.4,695.7,227.2z M688,219.4
					c1.7,0,3.4,0.4,4.9,1.2c-0.7-0.2-1.4-0.4-2.2-0.4c-0.7,0-1.3,0.2-1.8,0.4c-0.1-0.1-0.2-0.1-0.3-0.1c-0.2,0-0.3,0.1-0.4,0.2
					c0-0.2,0.1-0.5,0.5-0.6c0.1,0,0.1,0,0.2,0v-0.2c-0.1,0-0.2,0-0.2,0c-0.2,0.1-0.4,0.2-0.5,0.3c-0.1,0.2-0.2,0.4-0.1,0.7
					c0,0.1,0.1,0.1,0.1,0.2c-1,0.8-1.5,2-1.1,3.3c0.5,2.3,3.1,4.1,5.8,4c0.9,0,1.6-0.3,2.2-0.7c0.1,0.2,0.3,0.3,0.6,0.4
					c0.6,0.1,0.9,0.1,1.1-0.2c0.1-0.3-0.1-0.6-0.6-0.8c-0.1,0-0.2,0-0.3,0c0.1-0.1,0.2-0.3,0.3-0.5l1,0.1v-0.2l-0.1-0.4h-0.2
					l0.1,0.3l-0.8-0.1c0.3-0.7,0.4-1.4,0.2-2.2c-0.1-0.5-0.4-1.1-0.7-1.5c1,1,1.7,2.2,2,3.5c0.9,3.9-1.9,7.1-6.4,7.2
					c-4.4,0.1-8.8-2.9-9.8-6.7C680.7,222.8,683.5,219.5,688,219.4z M688.3,221C688.3,220.9,688.3,220.9,688.3,221
					c0-0.2,0.2-0.3,0.3-0.3s0.1,0,0.2,0C688.6,220.8,688.5,220.9,688.3,221z M666,217.5c2.6-0.1,5.1,0.7,7.2,2
					c-1.2-0.8-2.7-1.2-4.1-1.2c-0.8,0-1.5,0.2-2.1,0.4c-0.1-0.1-0.3-0.1-0.5-0.1s-0.4,0.1-0.4,0.2c0-0.3,0.1-0.5,0.5-0.6
					c0.1,0,0.1,0,0.2,0V218c-0.1,0-0.1,0-0.2,0c-0.3,0-0.5,0.1-0.6,0.3c-0.1,0.2-0.2,0.4-0.1,0.8c0,0.1,0.1,0.2,0.1,0.3
					c-1.1,0.8-1.6,2.1-1.2,3.5c0.7,2.4,3.6,4.4,6.6,4.3c1.1,0,2.1-0.3,2.8-0.8c0.1,0.1,0.3,0.2,0.6,0.3c0.6,0.2,1.1,0.1,1.3-0.2
					c0.2-0.4-0.1-0.7-0.7-0.8c-0.1,0-0.2-0.1-0.3-0.1c0.1-0.2,0.3-0.3,0.4-0.5l1.2,0.1l0.1-0.2l-0.2-0.4l-0.2,0.1l0.1,0.3l-0.9-0.1
					c0.3-0.7,0.4-1.4,0.2-2.3c-0.3-1.2-1.2-2.2-2.3-3c1.9,1.3,3.4,3.1,3.9,5.1c1.1,4.2-2.1,7.7-7.3,7.8c-5.1,0.2-10.1-3.1-11.3-7.3
					C657.7,221.1,661,217.6,666,217.5z M674.9,225.8c0.1,0,0.2,0,0.4,0.1c0.6,0.1,0.8,0.3,0.7,0.5s-0.5,0.2-1,0.1
					c-0.3-0.1-0.5-0.1-0.6-0.2C674.6,226.1,674.7,226,674.9,225.8z M666.1,219.1C666,219.1,666,219.1,666.1,219.1
					c0-0.2,0.2-0.3,0.3-0.3s0.2,0,0.3,0.1C666.5,219,666.3,219.1,666.1,219.1C666.1,219.2,666.1,219.2,666.1,219.1z M644,216.7
					c5.2-0.1,10.3,3.2,11.4,7.4c1.1,4.2-2.2,7.8-7.4,8c-5.2,0.1-10.3-3.2-11.4-7.4C635.5,220.4,638.9,216.8,644,216.7z M622.2,216
					c5.4-0.1,10.7,3.3,11.8,7.7c1.2,4.4-2.3,8-7.6,8.2c-5.4,0.1-10.7-3.3-11.8-7.7C613.4,219.8,616.9,216.1,622.2,216z"/>
				<path class="st0" d="M550.3,208.1l9.1,28.8l55.5,1l-10-27.5L550.3,208.1z M601.7,223.9c0.2,0,0.4,0,0.7,0.1
					c0.6,0.1,0.8,0.4,0.7,0.6c-0.1,0.2-0.6,0.2-1.1,0.1s-0.7-0.3-0.7-0.5C601.4,224.1,601.5,224,601.7,223.9z M563.3,225.7
					c-2.5-0.3-4.8-2.6-5-5.1s1.6-4.2,4.1-3.9c2.5,0.3,4.7,2.6,4.9,5.1C567.7,224.3,565.8,226.1,563.3,225.7z M575.8,226.3
					c-2.5-0.2-4.9-2.4-5.3-4.8c-0.4-2.5,1.3-4.4,3.8-4.2c2.5,0.2,4.9,2.4,5.3,4.8C580.1,224.7,578.4,226.5,575.8,226.3z M596.6,231
					c-5.7,0.1-11.2-3.5-12.4-8.1s2.4-8.5,8-8.6c2.3-0.1,4.5,0.5,6.5,1.5c-1-0.4-2-0.5-3-0.5c-1.1,0-2.1,0.3-2.8,0.7
					c-0.1,0-0.2,0-0.3,0c-0.3,0-0.4,0.1-0.5,0.3c-0.1-0.3,0.1-0.7,0.6-0.7c0.1,0,0.1,0,0.2,0v-0.2c0,0-0.1,0-0.2,0
					c-0.3,0.1-0.5,0.2-0.6,0.3c-0.2,0.2-0.3,0.5-0.2,0.8c0,0.1,0.1,0.2,0.1,0.2c-1,0.9-1.4,2.2-1,3.7c0.7,2.7,4,4.8,7.3,4.7
					c1,0,2-0.3,2.7-0.7c0.1,0.2,0.3,0.4,0.9,0.6c0.7,0.2,1.2,0.1,1.4-0.3c0.2-0.4-0.1-0.7-0.8-0.9c-0.2,0-0.3-0.1-0.5-0.1
					c0.2-0.2,0.3-0.4,0.5-0.6l1.4,0.1V223l-0.2-0.4h-0.3l0.1,0.4l-1-0.1c0.5-0.8,0.7-1.8,0.4-2.9c-0.2-0.7-0.5-1.3-1-1.9
					c1.3,1.2,2.2,2.7,2.7,4.3C605.9,227,602.2,230.8,596.6,231z M592.1,216.5C592.1,216.4,592.1,216.4,592.1,216.5
					c0-0.2,0.2-0.3,0.4-0.3l0,0C592.4,216.2,592.3,216.3,592.1,216.5z"/>
				<path class="st0" d="M728,240l-10.6-24.6l-20.3-0.9l10,25.1L728,240z M711.6,222.5c2,0.3,3.8,2.1,3.9,4c0.2,2-1.2,3.3-3.2,3.1
					c-2-0.3-3.7-2.1-4-4C708.3,223.7,709.7,222.3,711.6,222.5z"/>
				<path class="st0" d="M743.7,380.4c-0.3,0.2-0.7,0.6-1.2,0.9c-1.6,1-4.2,2.1-8.4,1.8c-0.1,0.1-0.5,0.7-0.3,3
					c0,0.7,0.1,1.4,0.1,2.1c0.2,2.7,0.4,5.1-0.9,7.3c-1.5,2.6-9.4,3-11.4,3.1c-0.4,0.2-2.1,1.2-1.5,4.3c0.5,2.3,1.2,4,2.2,4.9
					c0.9,0.8,2,1.2,3.3,1c1.5-0.1,10.6-3.3,14.1-4.5c0.2-0.1,4.4-1.1,4.3-5C744.1,396.3,743.8,383.7,743.7,380.4z"/>
				<polygon class="st0" points="595.5,229.8 595.2,228.1 594.9,228.1 595.2,230 595.5,230 596,229.8 595.9,229.6 				"/>
				<path class="st0" d="M590.4,226.8l0.9,0.5h-0.2c-0.7,0-1.1,0.1-1.3,0.4c-0.2,0.2-0.1,0.5,0.3,0.8c0.2,0.1,0.5,0.1,0.7,0.1v-0.2
					c-0.1,0-0.4,0-0.5-0.1c-0.3-0.2-0.3-0.4-0.2-0.5c0.1-0.2,0.6-0.3,1.4-0.3h0.3l0.1-0.1l-1.3-0.7L590.4,226.8z"/>
				<path class="st0" d="M587.4,223.9c-0.3,0.1-0.4,0.3-0.3,0.5c-0.2-0.2-0.5-0.3-0.7-0.2c-0.3,0-0.4,0.3-0.2,0.6
					c0.1,0.2,0.3,0.4,0.4,0.4l0.2-0.1c-0.1,0-0.2-0.1-0.3-0.3c-0.1-0.2,0-0.3,0.1-0.4c0.2-0.1,0.5,0.1,0.6,0.3l0.1,0.2h0.2l-0.1-0.1
					c-0.1-0.2-0.1-0.5,0.2-0.6c0.2,0,0.4,0,0.6,0.3c0.1,0.2,0.1,0.4,0.1,0.4h0.2c0-0.1,0-0.3-0.1-0.5
					C588.1,224,587.7,223.8,587.4,223.9z"/>
				<path class="st0" d="M586.8,221.5l0.1-0.8l0.7,0.2v-0.2l-0.7-0.1v-0.2l-0.2-0.1v0.3l-1.4-0.4l-0.1,0.3l1.4,1.2L586.8,221.5z
					 M585.6,220.4c0.1,0,0.2,0,0.3,0l0.8,0.2l-0.1,0.6l-0.7-0.6C585.8,220.5,585.7,220.4,585.6,220.4z"/>
				<path class="st0" d="M588.5,217.3c-0.2,0-0.3,0.1-0.4,0.1c-0.1,0-0.1,0.1-0.2,0.1l-0.4-0.4l0.6-0.4l-0.2-0.2l-0.7,0.5l0.7,0.8
					c0.1-0.1,0.1-0.1,0.2-0.2c0.4-0.2,0.6-0.2,0.9,0c0.2,0.2,0.2,0.4,0,0.6c-0.1,0.1-0.3,0.2-0.4,0.2l0.2,0.2c0.1,0,0.3-0.1,0.5-0.2
					c0.4-0.3,0.4-0.7,0-0.9C589,217.3,588.7,217.3,588.5,217.3z"/>
				<polygon class="st0" points="601.6,227.9 599.9,226.7 599.7,226.8 601.7,228.2 601.8,228 601.9,227.6 601.7,227.5 				"/>
				<polygon class="st0" points="600.5,228.9 599,227.4 598.8,227.6 600.5,229.3 600.7,229.1 600.8,228.7 600.6,228.6 				"/>
				<path class="st0" d="M627.3,226.2c2-0.1,3.5-0.9,4.2-2.1l2,0.2l0.1-0.2l-0.2-0.4h-0.2l0.1,0.3l-1.7-0.1c0.4-0.7,0.4-1.6,0.2-2.5
					c0.1-0.1,0.1-0.4-0.1-0.6c-0.1-0.1-0.1-0.1-0.2-0.2c-1-2.2-3.8-3.8-6.7-3.8c-0.7,0-1.4,0.2-2,0.4c-0.1,0-0.2,0-0.3,0
					c-0.2,0-0.4,0.1-0.5,0.2c0-0.3,0.1-0.6,0.6-0.7c0.1,0,0.2,0,0.2,0v-0.2c-0.1,0-0.1,0-0.2,0c-0.3,0-0.5,0.1-0.6,0.3
					c-0.1,0.2-0.2,0.5-0.1,0.9l0,0c-1.3,0.9-1.9,2.3-1.5,3.9C621,224.3,624.1,226.3,627.3,226.2z"/>
				<path class="st0" d="M649,226.6c1.2,0,2.2-0.4,3-0.9c0,0.2,0.3,0.5,0.8,0.6c0.6,0.1,1.2,0.1,1.3-0.3c0.2-0.3,0-0.7-0.7-0.9
					c-0.3-0.1-0.6-0.1-0.8,0c0.1-0.2,0.3-0.3,0.4-0.5l1.7,0.1v-0.2l-0.2-0.4h-0.2l0.1,0.3l-1.3-0.1c0.3-0.7,0.4-1.5,0.2-2.4
					c-0.7-2.5-3.7-4.5-6.7-4.4c-0.8,0-1.4,0.2-2,0.4c-0.1-0.1-0.3-0.1-0.4-0.1c-0.2,0-0.3,0.1-0.4,0.2c0-0.3,0.1-0.6,0.5-0.7
					c0.1,0,0.2,0,0.2,0v-0.2c0,0-0.1,0-0.2,0.1c-0.3,0-0.5,0.1-0.6,0.3c-0.2,0.2-0.2,0.4-0.1,0.8c0,0.1,0.1,0.1,0.1,0.2
					c-1.2,0.9-1.7,2.2-1.4,3.7C643,224.8,646,226.7,649,226.6z M653.3,225.4c0.6,0.2,0.8,0.4,0.7,0.6s-0.5,0.2-1,0.1
					s-0.8-0.3-0.7-0.5C652.4,225.3,652.7,225.2,653.3,225.4z M643.9,218.3c0-0.1,0.1-0.2,0.3-0.2c0.1,0,0.1,0,0.1,0
					C644.2,218.2,644,218.3,643.9,218.3C643.8,218.4,643.8,218.4,643.9,218.3z"/>
				<path class="st0" d="M562.5,217.4c-2.2-0.3-3.8,1.2-3.5,3.3c0.2,2.1,2.2,4.1,4.3,4.4c2.1,0.3,3.7-1.2,3.5-3.4
					C566.6,219.6,564.6,217.6,562.5,217.4z M563.1,223c-1.2-0.1-2.2-1.3-2.3-2.5c-0.1-1.2,0.8-2.1,1.9-2c1.2,0.2,2.2,1.3,2.3,2.5
					C565.2,222.3,564.3,223.2,563.1,223z"/>
				<path class="st0" d="M712.3,229.2c1.6,0.2,2.9-0.9,2.7-2.7c-0.1-1.7-1.6-3.2-3.3-3.5c-1.7-0.2-2.9,1-2.7,2.7
					C709.1,227.4,710.6,228.9,712.3,229.2z M711.9,224c0.9,0.1,1.7,1,1.9,2c0,1-0.6,1.7-1.5,1.5c-0.9-0.1-1.7-1-1.8-2
					C710.3,224.6,711,223.9,711.9,224z"/>
				<path class="st0" d="M574.5,218c-2.1-0.1-3.6,1.4-3.3,3.6c0.3,2.1,2.4,4,4.6,4.2c2.1,0.2,3.6-1.4,3.3-3.6
					C578.7,220,576.6,218.2,574.5,218z M575.5,223.7c-1.2-0.1-2.3-1.2-2.4-2.4c-0.2-1.2,0.6-2.2,1.8-2.1c1.2,0.1,2.3,1.2,2.4,2.4
					C577.5,222.8,576.7,223.8,575.5,223.7z"/>
				<path class="st0" d="M716.4,275.7c2.5,2.5,4.5,4.6,6,6.2V275c-1.5-1.5-3.6-3.5-6.2-5.8C716.3,271.3,716.4,273.5,716.4,275.7z"/>
				<path class="st0" d="M716.3,267.8c2.5,2.3,4.6,4.3,6.2,5.8v-6.9c-1.6-1.4-3.9-3.2-6.4-5.1C716.1,263.4,716.2,265.5,716.3,267.8z
					"/>
				<path class="st0" d="M563.9,245.5L564,394v12v6v6v3v2v14.3l53.3-14.3l7.4-2l11.1-3l22.3-6l22.3-6l44.5-12l4.9-1.3l2.3-147.5
					L563.9,245.5z M638.1,394.1c0.9,0.5,1.8,1,2.6,1.5c0.2,0,0.2,0.3,0.1,0.4c-0.1,0.1-0.2,0.2-0.3,0.2s-0.1,0-0.2,0
					c-0.7-0.4-1.4-0.8-2.1-1.2l0.3,2.6c0,0.2-0.1,0.4-0.3,0.4l0,0c-0.2,0-0.4-0.1-0.4-0.3l-0.3-3.1c-0.3-0.2-0.6-0.4-0.9-0.5
					c-1.8-1-3.6-2.1-5.5-3.2c0,1.2,0.1,2.5,0.1,3.2l0,0c0,0.9,0.2,3,0.3,3.9c0.1,0,0.2,0.1,0.3,0.1c0.2,0.1,0.3,0.3,0.2,0.5
					s-0.2,0.2-0.4,0.2h-0.1c0,0.3-0.1,0.5-0.2,0.5l-0.1,0.1l0,0l0,0c-0.2,0-0.4-0.1-0.4-0.3c0,0,0-0.2-0.1-0.6
					c-2.2-1-4.4-2.1-6.5-3.2c0.1,1.5,0.2,3,0.2,3.8c0.1,1,0,1.6-0.1,1.7c0,0.1-0.1,0.2-0.2,0.2l0,0l0,0c-0.2,0-0.4-0.1-0.4-0.4
					c0,0-0.3-2.9-0.4-5.8c-0.5-0.2-0.9-0.5-1.3-0.7c-1.7-0.9-3.4-1.8-5-2.7c0,0.9,0.1,1.8,0.1,2.7c0.1,1.4,0.1,2.7,0.2,3.9
					c1.9,1,3.8,1.9,5.6,2.7c0.2,0.1,0.3,0.4,0.2,0.6c-0.1,0.2-0.3,0.3-0.4,0.3s-0.1,0-0.2,0c-1.7-0.6-3.4-1.2-5.1-2
					c0,0.1,0,0.3,0,0.4c0.1,1.4,0.1,2.3,0,2.4c0,0.1-0.1,0.2-0.3,0.3l0,0l0,0c-0.3,0-0.5-0.2-0.5-0.4c0,0-0.1-1.2-0.2-3
					c-2.1-0.9-4.2-2-6.4-3.1c0.1,1.8,0.2,3.5,0.3,4.7c0,0.3,0,0.6,0.1,0.9c1.2,0.6,2.4,1.1,3.5,1.6c0.3,0.1,0.4,0.4,0.3,0.7
					c-0.1,0.2-0.3,0.3-0.5,0.3c-0.1,0-0.1,0-0.2,0c-1-0.4-2-0.8-3-1.3c0,0.5,0,0.8,0,0.8c0,0.2-0.1,0.3-0.3,0.3l0,0l0,0
					c-0.3,0-0.5-0.2-0.5-0.5c0,0,0-0.4-0.1-1.1c-2.1-0.9-4.2-2-6.3-3.2c0,0.8,0.1,1.5,0.1,2.2c0.1,2,0.2,3.3,0.2,3.6
					c0.5,0.2,1,0.4,1.5,0.7c0.2,0.1,0.3,0.2,0.3,0.4c0,0.1,0,0.2,0,0.4c-0.1,0.2-0.3,0.4-0.5,0.4c-0.1,0-0.1,0-0.2,0
					c-0.5-0.2-1-0.5-1.5-0.7c-2.2-1-4.4-2.1-6.7-3.4c0.1,1.6,0.2,2.8,0.2,3.4c0,0.3,0,0.5,0,0.5c0,0.2-0.2,0.5-0.5,0.5l0,0l0,0
					c-0.3,0-0.6-0.2-0.6-0.6c0,0,0-0.2,0-0.4c-0.1-0.7-0.2-2.1-0.3-4c-2.1-1.1-4.2-2.4-6.2-3.6c0.1,1.7,0.2,3.2,0.3,4.5
					c0,0.8,0.1,1.5,0.1,2.1c0.7,0.4,1.4,0.7,2,1c1.6,0.8,3.1,1.5,4.6,2.1c0.3,0.1,0.5,0.5,0.3,0.8c-0.1,0.2-0.3,0.4-0.6,0.4
					c-0.1,0-0.2,0-0.2,0c-1.9-0.9-4-2-6.1-3.1c0.1,1,0.1,1.7,0.1,1.7c0,0.3-0.2,0.5-0.5,0.6l0,0l0,0c-0.3,0-0.6-0.3-0.6-0.6
					c0,0-0.1-0.7-0.2-1.9c0-0.2,0-0.3,0-0.5c-2.1-1.1-4.2-2.3-6.1-3.4c0,0.5,0.1,1.1,0.1,1.5c0.1,0.9,0.1,1.7,0.1,2.4
					c0.1,1.3,0.1,2.2,0.2,2.8c1.5,0.7,3.1,1.3,4.5,1.9c0.4,0.1,0.6,0.5,0.4,0.9c-0.1,0.2-0.3,0.4-0.5,0.4h-0.2h-0.1
					c-1.6-0.5-3.2-1.2-4.8-2c-0.1,0-0.1-0.1-0.2-0.1c-2.3-1.1-4.5-2.2-6.3-3.2c0.2,2.6,0.3,4.1,0.3,4.1c0,0.4-0.2,0.7-0.7,0.8l0,0
					c-0.4,0-0.7-0.3-0.7-0.7c0,0-0.2-1.9-0.4-4.8c0-0.1,0-0.1,0-0.2c-1.6-0.9-2.6-1.6-2.8-1.6c-0.2-0.2-0.4-0.6-0.2-1
					c0.2-0.3,0.7-0.4,1-0.2c0,0,0.7,0.5,1.9,1.1c-0.1-2.1-0.3-4.6-0.4-7.3c-1.3-0.8-2.1-1.3-2.2-1.4c-0.2-0.2-0.4-0.6-0.2-0.9
					c0.2-0.3,0.6-0.4,0.9-0.2c0,0,0.5,0.3,1.4,0.9c0-0.4,0-0.9-0.1-1.3c-0.1-1.9-0.2-3.9-0.2-6c-1-0.7-1.6-1.1-1.7-1.2
					c-0.2-0.1-0.3-0.5-0.1-0.8s0.6-0.3,0.8-0.2c0,0,0.4,0.3,1,0.7c-0.1-2.3-0.1-4.7-0.2-7.2c0-0.1,0-0.1,0-0.2c-0.8-0.6-1.3-1-1.4-1
					c-0.2-0.1-0.3-0.5-0.1-0.7c0.1-0.2,0.5-0.3,0.7-0.2c0,0,0.3,0.2,0.7,0.5c0-2.4,0-4.9,0-7.4c-0.7-0.6-1.1-0.9-1.2-1
					c-0.2-0.1-0.2-0.4-0.1-0.6c0.1-0.2,0.4-0.3,0.7-0.1c0,0,0.3,0.2,0.6,0.5c0-2.5,0-5.1,0.1-7.5c-0.7-0.5-1.1-0.9-1.1-0.9
					c-0.1-0.1-0.2-0.3-0.1-0.5c0.1-0.2,0.4-0.3,0.6-0.1c0,0,0.3,0.2,0.7,0.5c0-2.8,0.1-5.4,0.2-7.7c-0.7-0.5-1.2-0.8-1.2-0.8
					c-0.1-0.1-0.2-0.3,0-0.5c0.1-0.2,0.3-0.2,0.5-0.1c0,0,0.3,0.2,0.8,0.5c0.1-5.3,0.3-8.9,0.3-9c0-0.4,0.3-0.7,0.7-0.7
					c0.4,0,0.7,0.4,0.7,0.8c0,0.1-0.2,4.1-0.3,9.9c1.4,0.9,3.4,2.3,5.8,4c0-1,0-1.9,0.1-2.7c0.1-3.5,0.2-5.7,0.2-5.8
					c0.1-0.3,0.3-0.6,0.7-0.6c0.3,0,0.6,0.3,0.6,0.7c0,0.1-0.1,3.8-0.3,9.2c1.8,1.2,3.8,2.5,5.9,4c0-1,0-1.9,0.1-2.7
					c0.1-3,0.2-5,0.2-5.1c0-0.3,0.3-0.5,0.6-0.5c0.3,0,0.6,0.3,0.6,0.6c0,0.1-0.1,3.6-0.2,8.5c1.9,1.3,3.9,2.6,6,4
					c0-1,0-1.9,0.1-2.7c0.1-2.6,0.2-4.4,0.2-4.4c0-0.3,0.3-0.5,0.6-0.4c0.3,0,0.5,0.3,0.5,0.6c0,0.1-0.1,3.2-0.2,7.7
					c1.9,1.3,4,2.6,6,3.9c0-1,0-1.8,0.1-2.6c0-2.2,0.2-3.7,0.2-3.7c0.1-0.2,0.3-0.4,0.5-0.3c0.2,0,0.4,0.3,0.4,0.5
					c0,0.1-0.1,2.9-0.1,6.8c2,1.3,4,2.6,6.1,3.9c0-0.9,0-1.7,0-2.4c0-1.8,0.1-3,0.3-3.1c0.1-0.2,0.2-0.3,0.5-0.3
					c0.2,0,0.4,0.2,0.4,0.5c0,0,0,2.6-0.1,5.9c2,1.3,4.1,2.6,6.1,3.9c0-0.8,0-1.6,0-2.1c0-1.4,0.1-2.3,0.3-2.4
					c0.1-0.1,0.2-0.2,0.4-0.2c0.2,0,0.3,0.2,0.3,0.4c0,0,0,2.2,0,4.9c2.1,1.3,4.2,2.6,6.2,3.9c0-0.7,0-1.4,0-1.8
					c0-1,0.1-1.7,0.3-1.7c0.1-0.1,0.2-0.2,0.4-0.1c0.1,0,0.2,0.2,0.3,0.4c0,0,0,1.7,0.1,3.8c2.1,1.3,4.2,2.6,6.3,3.8
					c0-0.6,0-1.1,0-1.3c0-0.6,0.1-1,0.3-1c0.1-0.1,0.2-0.1,0.3,0c0.1,0.1,0.2,0.2,0.2,0.3c0,0,0.1,1.2,0.1,2.6
					c2.2,1.3,4.3,2.5,6.4,3.7l-0.1-0.7c0-0.1,0.1-0.3,0.3-0.4c0.2,0,0.4,0.1,0.4,0.3L638.1,394.1L638.1,394.1z M726.1,260.7
					c-0.1,0.1-0.2,0.1-0.3,0.1s-0.2,0-0.2,0s-1-0.6-2.5-1.5c0.1,2,0.2,4.4,0.3,7.1c1.4,1.2,2.2,1.9,2.2,2c0.2,0.1,0.2,0.4,0.1,0.6
					c-0.1,0.1-0.2,0.1-0.3,0.1s-0.2,0-0.3-0.1c0,0-0.6-0.6-1.7-1.5c0.1,2.3,0.1,4.7,0.2,7.3c1.1,1.1,1.7,1.7,1.7,1.8
					c0.2,0.2,0.2,0.5,0.1,0.7c-0.1,0.1-0.2,0.2-0.4,0.2c-0.1,0-0.3-0.1-0.3-0.1s-0.4-0.4-1.1-1.1c0,2.3,0.1,4.7,0.1,7.1
					c0.8,0.9,1.3,1.4,1.3,1.5c0.2,0.2,0.2,0.6,0,0.8c-0.1,0.1-0.3,0.2-0.4,0.2c-0.2,0-0.3-0.1-0.4-0.2c0,0-0.2-0.2-0.5-0.6
					c0,2.4,0,4.7-0.1,6.7c0.7,0.8,1.1,1.2,1.1,1.3c0.2,0.2,0.2,0.7,0,0.9c-0.1,0.1-0.3,0.2-0.5,0.2s-0.4-0.1-0.5-0.2
					c0,0-0.1-0.1-0.2-0.3c-0.1,2.4-0.1,4.4-0.2,6.3c0.7,0.8,1.1,1.3,1.1,1.3c0.2,0.3,0.2,0.8-0.1,1c-0.1,0.1-0.3,0.2-0.5,0.2
					s-0.4-0.1-0.5-0.3c0,0-0.1-0.1-0.1-0.2c-0.3,4.7-0.6,7.1-0.6,7.2c0,0.2-0.1,0.3-0.3,0.3h-0.1c-0.2,0-0.3-0.2-0.3-0.3
					c0,0,0.2-1.4,0.4-3.9V301c-1.2-1.4-3.3-3.9-6.3-7.2c-0.3,5.3-0.7,8-0.7,8c0,0.2-0.2,0.3-0.3,0.2c0,0-0.1,0-0.1-0.1
					c-0.2,0-0.3-0.2-0.3-0.3c0,0,0.2-1.7,0.4-5v-4c-1.8-2-3.9-4.3-6.2-6.7c0,0.4,0,0.7,0,1.1c-0.2,4.8-0.6,7.2-0.8,7.3
					c-0.1,0.1-0.2,0.2-0.4,0.1c0,0,0,0,0-0.1c-0.1,0-0.2-0.1-0.2-0.2c0,0,0.3-2.3,0.5-6.4V285c-2-2-4.1-4.1-6.3-6.3
					c0,0.9-0.1,1.6-0.1,2.3c-0.2,3.9-0.5,5.9-0.7,5.9c-0.1,0.1-0.3,0.1-0.5,0c0,0,0,0,0-0.1c-0.1,0-0.2-0.1-0.2-0.2
					c0,0,0.4-3.3,0.5-8.9c-2-2-4.1-3.9-6.3-5.9c0,1.2-0.1,2.3-0.1,3.1c-0.1,3-0.5,4.6-0.7,4.6c-0.2,0.1-0.4,0-0.5-0.2v-0.1
					c-0.1,0-0.1-0.1-0.1-0.1s0.3-3.2,0.4-8.3c-2-1.8-4.1-3.6-6.2-5.4c0,1.3,0,2.6-0.1,3.4c-0.1,2.1-0.4,3.3-0.7,3.3
					c-0.2,0.1-0.5-0.1-0.6-0.3v-0.1c-0.1,0-0.1-0.1-0.1-0.1s0.3-3.1,0.3-7.2c-2-1.7-4.1-3.3-6.1-4.8c0,0.9,0,2.6,0,3.1
					c0,1.3-0.3,2-0.7,2c-0.3,0-0.6-0.1-0.7-0.4c0,0,0-0.1,0-0.2l0,0c0,0,0.2-2.6,0.2-4.9c0-0.2,0-0.4,0-0.6c-2-1.5-4-2.9-6-4.2v2.1
					c0,0.4-0.3,0.7-0.7,0.7s-0.8-0.3-0.8-0.7v-3c-1-0.6-2-1.2-3-1.8c-0.3-0.2-0.4-0.6-0.2-0.9c0.1-0.4,0.6-0.5,0.9-0.3
					c0.8,0.5,1.7,1,2.5,1.5c0.1-0.2,0.4-0.3,0.6-0.3c0.4,0,0.7,0.3,0.7,0.7v0.4c2,1.3,4,2.6,6,4.1c0-1.4-0.1-2.9-0.1-3.7
					c-0.6-0.4-1.2-0.8-1.9-1.1c-0.3-0.2-0.4-0.5-0.2-0.8s0.5-0.4,0.8-0.3c0.6,0.3,1.1,0.7,1.7,1c0.1,0,0.2,0,0.3,0s0.3,0.1,0.4,0.4
					c2.1,1.3,4.2,2.7,6.3,4.2c-0.1-2.2-0.1-3.8-0.1-3.8l0,0c-0.2-0.1-0.5-0.3-0.7-0.4s-0.3-0.5-0.2-0.7c0.1-0.3,0.5-0.4,0.7-0.2
					c2.5,1.4,5.1,3,7.6,4.7c-0.1-1.9-0.1-3.1-0.1-3.2c0-0.2,0.1-0.4,0.3-0.4c0,0,0,0,0.1,0c-0.1-0.1-0.1-0.3,0-0.5
					c0.1-0.3,0.4-0.4,0.7-0.2c2.1,1.1,4.3,2.4,6.5,3.8c-0.1-1.5-0.1-2.4-0.1-2.5c0-0.2,0.1-0.4,0.3-0.4c0.2-0.1,0.3,0,0.4,0.1
					c0.1,0,0.3,1.4,0.4,3.5c2.2,1.5,4.4,3.1,6.5,4.8c-0.1-2-0.1-3.6-0.2-4.9c-1.9-1.2-3.9-2.3-5.8-3.2c-0.2-0.1-0.3-0.3-0.2-0.5
					s0.4-0.3,0.6-0.2c1.8,0.8,3.6,1.8,5.4,2.9c-0.1-1.1-0.1-1.7-0.1-1.7c0-0.2,0.1-0.4,0.3-0.4c0.2-0.1,0.3,0,0.4,0.2
					c0.1,0,0.2,1,0.3,2.5c2.3,1.4,4.6,3,6.6,4.5c-0.1-2.1-0.2-3.8-0.2-4.9c-1.5-0.7-3.1-1.4-4.6-2c-0.1-0.1-0.2-0.2-0.2-0.4
					c0.1-0.2,0.3-0.3,0.5-0.2c1.4,0.5,2.8,1.1,4.2,1.8c0-0.6,0-0.9,0-0.9c0-0.2,0.1-0.4,0.3-0.4s0.3,0.1,0.4,0.3
					c0,0,0.1,0.5,0.1,1.4c2.5,1.2,4.9,2.6,6.7,3.6c-0.1-2.9-0.2-4.7-0.2-4.8c0-0.2,0.1-0.4,0.3-0.4s0.3,0.1,0.4,0.3
					c0,0.1,0.1,2,0.3,5.2c1.7,1,2.8,1.7,2.8,1.7C726.1,260.4,726.2,260.6,726.1,260.7z"/>
				<path class="st0" d="M601.7,396.9c0-0.9-0.1-1.9-0.1-2.9s-0.1-1.9-0.1-2.9c-2.1-1.3-4.1-2.5-6.1-3.8l0.1,4.6
					c0,0.5,0,0.9,0.1,1.4c0.4,0.3,0.9,0.5,1.3,0.8C598.4,395,600,396,601.7,396.9z"/>
				<path class="st0" d="M579.9,394c0-0.4,0-0.7,0-1.1c-2.3-1.5-4.2-2.8-5.8-3.8l0.1,4.9v2.3c1.5,1,3.6,2.3,6,3.7
					C580.1,398.2,580,396.1,579.9,394z"/>
				<path class="st0" d="M580.3,401.3c-2.3-1.3-4.4-2.6-6-3.6c0.1,2.8,0.3,5.2,0.4,7.3c0.6,0.3,1.2,0.7,1.8,1
					c1.3,0.7,2.7,1.4,4.2,2.2c0-0.6-0.1-1.3-0.2-2.2C580.5,404.7,580.4,403.1,580.3,401.3z"/>
				<path class="st0" d="M595.5,394.9c0.1,2.4,0.2,4.5,0.3,6.3c2.1,1.2,4.2,2.3,6.3,3.2c-0.1-0.9-0.2-3.1-0.4-5.9
					C599.7,397.4,597.6,396.2,595.5,394.9z"/>
				<path class="st0" d="M608.5,376.8c-2.1-1.3-4.1-2.6-6.1-3.9c0,2.6,0,5.7,0,8.7c2,1.3,4.1,2.6,6.1,3.9
					C608.5,382.6,608.4,379.4,608.5,376.8z"/>
				<path class="st0" d="M716.4,277.3c0,1.1,0,2.1,0,3.2s0,2.2,0,3.2c2.5,2.6,4.6,4.9,6,6.5v-6.7C721.1,282,719,279.9,716.4,277.3z"
					/>
				<path class="st0" d="M716.2,291.6c2.6,2.9,4.7,5.3,6.2,7v-6.5c-1.3-1.4-3.3-3.7-6-6.5C716.4,287.8,716.3,289.8,716.2,291.6z"/>
				<path class="st0" d="M615.7,381.4c-2.1-1.3-4.1-2.6-6.1-3.9c0,2.7,0,5.8,0,8.6c2.1,1.3,4.2,2.5,6.2,3.7
					C615.7,387.4,615.7,384,615.7,381.4z"/>
				<path class="st0" d="M701.8,269.4c2.2,2,4.2,3.9,6.2,5.8v-5.9c-2-1.8-4.1-3.6-6.3-5.5C701.7,265.7,701.8,267.6,701.8,269.4z"/>
				<path class="st0" d="M615.8,390.7c-2.1-1.2-4.2-2.4-6.2-3.6c0,0.5,0,0.9,0,1.4c0,1.7,0.1,3.6,0.2,5.4c0.1,0,0.1,0.1,0.2,0.1
					c2.1,1.2,4.2,2.3,6.2,3.4c-0.1-1-0.1-2.2-0.2-3.4C615.9,392.9,615.8,391.8,615.8,390.7z"/>
				<path class="st0" d="M701.8,272c0,1.6,0,3.1,0,4.6c2.2,2.1,4.3,4.2,6.2,6.2V277c-2-1.9-4-3.9-6.2-5.8
					C701.8,271.5,701.8,271.7,701.8,272z"/>
				<path class="st0" d="M709,268.7c2.2,2,4.3,4,6.2,5.8v-6.3c-1.9-1.7-4.1-3.5-6.4-5.4C708.9,264.7,709,266.6,709,268.7z"/>
				<path class="st0" d="M601.3,372.2c-2.1-1.3-4.1-2.7-6-3.9c0,2.6-0.1,5.6-0.1,8.6c2,1.3,4,2.7,6.1,4
					C601.2,377.8,601.2,374.7,601.3,372.2z"/>
				<path class="st0" d="M630.3,393.4c0-0.6-0.1-1.9-0.1-3.1c-2.1-1.2-4.2-2.5-6.3-3.8c0,2,0.1,4.1,0.1,5.7c0,0.5,0,1.2,0.1,1.8
					c0,0.1,0,0.2,0,0.3c2.2,1.2,4.4,2.2,6.5,3.2c-0.1-1.1-0.2-2.5-0.2-3.5C630.3,393.8,630.3,393.6,630.3,393.4z"/>
				<path class="st0" d="M709.1,278.1c0,2.1-0.1,4-0.1,5.7c2.3,2.3,4.3,4.5,6.2,6.6v-6.1C713.4,282.4,711.3,280.3,709.1,278.1z"/>
				<path class="st0" d="M709.1,276.2v0.1c2.2,2.2,4.3,4.2,6.1,6.1v-6.3c-1.9-1.8-3.9-3.8-6.2-5.8
					C709.1,272.3,709.1,274.3,709.1,276.2z"/>
				<path class="st0" d="M708.6,256.4c0.1,0.9,0.1,2,0.1,3.1c0,0.6,0,1.3,0.1,2c2.3,1.8,4.4,3.7,6.4,5.4v-5.6c0-0.1,0-0.2,0-0.3
					C713.2,259.4,710.9,257.9,708.6,256.4z"/>
				<path class="st0" d="M715.8,255.3c0.1,1.3,0.2,3,0.3,5.2c2.5,1.9,4.8,3.8,6.5,5.2v-5.8c0-0.3,0-0.6,0-0.9
					C720.7,257.9,718.3,256.5,715.8,255.3z"/>
				<path class="st0" d="M579.6,357.8c-2.4-1.6-4.4-3-5.8-4c0,1.9-0.1,3.9-0.1,6v1.8c1.4,1,3.3,2.5,5.8,4.2
					C579.5,363,579.6,360.2,579.6,357.8z"/>
				<path class="st0" d="M579.6,384.5c-2.2-1.6-4.2-3-5.6-4l0.1,7.2c1.4,1,3.4,2.3,5.7,3.8C579.7,389.2,579.6,386.9,579.6,384.5z"/>
				<path class="st0" d="M622.9,385.9c-2.1-1.3-4.1-2.6-6.2-3.9c0,2.7,0,5.8,0.1,8.3c0,0,0,0,0,0.1c2.1,1.2,4.3,2.4,6.3,3.5
					c0-0.8-0.1-1.5-0.1-2.2C623,390.2,622.9,387.8,622.9,385.9z"/>
				<path class="st0" d="M594.1,386.4c-2-1.4-4-2.7-5.9-4l0.1,6.3c1.9,1.2,3.9,2.5,6,3.8C594.2,390.5,594.1,388.5,594.1,386.4z"/>
				<path class="st0" d="M687.1,258.9c0,1.6,0,3.3,0,4.5c2.1,1.7,4.2,3.5,6.2,5.3c0-0.4,0-0.8,0-1.2c0-1.2,0-2.5,0-3.8
					C691.3,262.1,689.2,260.5,687.1,258.9z"/>
				<path class="st0" d="M579.5,367.1c-2.4-1.8-4.3-3.2-5.8-4.3l0.1,7.6c1.4,1,3.3,2.4,5.6,4C579.4,371.9,579.5,369.4,579.5,367.1z"
					/>
				<path class="st0" d="M594,367.4c-2.1-1.4-4.1-2.7-6-4c0,2.4-0.1,5.1-0.1,8v0.5c1.9,1.3,3.9,2.7,6,4.1C594,373,594,370,594,367.4
					z"/>
				<path class="st0" d="M594,394c-2-1.2-3.9-2.4-5.7-3.6l0.1,3.3c0,0.1,0,0.2,0,0.3c0,1,0.1,2,0.1,3c2,1.2,4.1,2.4,6.2,3.6
					c-0.1-1.8-0.2-4-0.3-6.3C594.2,394.1,594.1,394.1,594,394z"/>
				<path class="st0" d="M579.5,381.1c0-1.6,0-3.3-0.1-5.1c-2.3-1.7-4.2-3.2-5.6-4.3l0.1,7.3c1.4,1,3.3,2.3,5.6,3.9
					C579.5,382.3,579.5,381.7,579.5,381.1z"/>
				<path class="st0" d="M594,377.2c-2.1-1.4-4.1-2.8-5.9-4.1l0.1,7.2c1.9,1.3,3.8,2.6,5.9,3.9C594,382,594,379.6,594,377.2z"/>
				<path class="st0" d="M693.1,257.3c-2.1-1.5-4.2-2.9-6.3-4.1c0.1,0.5,0.1,1.2,0.2,2c0,0.5,0,1.3,0.1,2.2c2.1,1.5,4.2,3.2,6.2,4.8
					C693.2,260.4,693.2,258.7,693.1,257.3z"/>
				<path class="st0" d="M601.3,386.4c0-1.4,0-2.9-0.1-4.4c-2.1-1.3-4.1-2.7-6.1-3.9l0.1,7.1c2,1.3,4,2.6,6,3.8
					C601.3,388.1,601.3,387.2,601.3,386.4z"/>
				<path class="st0" d="M679.7,253.8c0,0.7,0,2.5,0.1,3.9c2.1,1.5,4.1,3.1,6.1,4.8c0-1.4,0-3-0.1-4.4
					C683.8,256.5,681.8,255.1,679.7,253.8z"/>
				<path class="st0" d="M606.4,394c-1.3-0.7-2.6-1.5-3.9-2.2c0,0.8,0.1,1.5,0.1,2.2c0.1,1.2,0.1,2.4,0.2,3.5
					c2.1,1.2,4.3,2.3,6.3,3.4c-0.1-1.5-0.2-3.4-0.3-5.6C608,394.9,607.2,394.4,606.4,394z"/>
				<path class="st0" d="M701.5,257.3c0,0.2,0,0.5,0,0.8c0,1.2,0.1,2.6,0.1,4.3c2.2,1.8,4.3,3.6,6.4,5.4v-4.5c0-0.4,0-0.8,0-1.1
					C705.9,260.5,703.7,258.8,701.5,257.3z"/>
				<path class="st0" d="M694.3,258.1c0,1.4,0.1,3.1,0.1,4.9c2.2,1.8,4.3,3.6,6.3,5.5V267c0-1.4-0.1-2.7-0.1-4
					C698.6,261.4,696.4,259.7,694.3,258.1z"/>
				<path class="st0" d="M694.4,267.7c0,0.7,0,1.3,0,2c2.2,2,4.3,3.9,6.3,5.9v-5.4c-2-1.8-4.2-3.7-6.3-5.5
					C694.4,265.8,694.4,266.8,694.4,267.7z"/>
				<path class="st0" d="M586.7,372.2c-2.1-1.5-4.1-2.9-5.8-4.2l0.1,7.3c1.7,1.2,3.7,2.6,5.7,4C586.7,377,586.7,374.6,586.7,372.2z"
					/>
				<path class="st0" d="M586.8,362.6c-2.1-1.4-4.1-2.8-5.9-4c0,2.1-0.1,4.4-0.1,6.8v1.3c1.8,1.3,3.7,2.7,5.9,4.2
					C586.7,368,586.8,365.1,586.8,362.6z"/>
				<path class="st0" d="M608.5,388.1c0-0.5,0-1.1,0-1.7c-2.1-1.3-4.2-2.5-6.1-3.8c0,1.4,0,2.7,0,4c0,1,0,2,0.1,2.9
					c2.1,1.3,4.2,2.5,6.2,3.7C608.6,391.6,608.5,389.8,608.5,388.1z"/>
				<path class="st0" d="M581.5,394c-0.1-0.1-0.2-0.1-0.3-0.2v0.2v1.2c0.1,2,0.2,3.9,0.3,5.6c1.9,1.1,4,2.3,6.1,3.5
					c-0.1-1.8-0.3-4-0.4-6.7C585.3,396.4,583.3,395.1,581.5,394z"/>
				<path class="st0" d="M587.2,396.2c0-0.7-0.1-1.4-0.1-2.2c-0.1-1.5-0.1-3-0.2-4.5c-2.1-1.4-4-2.7-5.8-3.9l0.1,6.8
					c0.8,0.5,1.6,1.1,2.5,1.6C584.9,394.7,586,395.4,587.2,396.2z"/>
				<path class="st0" d="M700.4,256.6c-2.2-1.5-4.4-2.8-6.6-4c0.2,0.6,0.3,2.1,0.4,4c0,0,0,0,0,0.1c2.2,1.5,4.3,3.2,6.4,4.8
					C700.6,259.6,700.5,258,700.4,256.6z"/>
				<path class="st0" d="M586.8,382.9c0-0.5,0-1,0-1.5c-2.1-1.5-4-2.9-5.7-4.2l0.1,6.7c1.8,1.2,3.7,2.5,5.8,3.8
					C586.8,386.2,586.8,384.5,586.8,382.9z"/>
				<path class="st0" d="M730.8,395.4l1.6-0.5l2.2-152.9l-26.6-0.4h-1.5l-89.4-1.4h-1.4l-56.7-0.9V394v12v6v6v3v2v20.4l73.1-20.4
					l7.2-2l10.7-3l21.5-6l21.5-6l26.5-7.4l7.8-2.2L730.8,395.4z M686.5,406l-21.8,6l-21.8,6l-10.9,3l-7.3,2L562,440.2l-0.8,0.2
					v-17.5v-2v-3v-6v-6v-12l-0.1-150.6v-0.7l172.1,1.2v1.3l-2,148.4l-1.2,0.3L686.5,406z"/>
				<path class="st0" d="M564.7,453.1c-0.3-1.4-0.7-3.2-0.7-5.3c0-2.2-1.1-3.3-3.3-3.3c-0.8,0-1.4,0.1-1.4,0.1
					c-2.3,0.7-4.6,1.1-6.8,1.1c-4.2,0-6.4-1.5-6.6-1.6l-0.3-0.2l-0.5-0.4l-0.3-0.2l-9-7.7l-0.1,10.3l4.6,4.3l1.3,1.2
					c0.1,0.1,3,3.3,8.3,6.6c1.3,0.8,2.9,1.3,4.7,1.3c3.4,0,6.8-1.5,8.8-2.4c0.4-0.1,0.7-0.3,0.9-0.4c0.6-0.2,0.8-0.7,0.7-1.7
					C565,454.4,564.9,453.9,564.7,453.1z"/>
				<polygon class="st0" points="625.4,230.6 625.3,230.6 625.1,229 624.8,229 625.1,230.8 625.3,230.8 625.8,230.6 625.7,230.4 
									"/>
				<path class="st0" d="M620.1,229.3c0.2,0.1,0.5,0.1,0.7,0.1v-0.1c-0.2,0-0.3-0.1-0.5-0.1c-0.3-0.2-0.3-0.4-0.2-0.5
					c0.2-0.2,0.6-0.3,1.3-0.3l0.3-0.1l0.1-0.1l-1.3-0.7l-0.2,0.1l0.9,0.5h-0.3c-0.7,0-1.1,0.1-1.3,0.4
					C619.7,228.8,619.7,229.1,620.1,229.3z"/>
				<path class="st0" d="M616.9,226.1c0,0-0.2-0.1-0.3-0.3c-0.1-0.2,0-0.3,0.1-0.4c0.2-0.1,0.5,0.1,0.6,0.3l0.1,0.1h0.2v-0.1
					c-0.2-0.3-0.2-0.5,0.1-0.6c0.1,0,0.5,0,0.6,0.3c0.1,0.2,0.1,0.3,0.1,0.4h0.2c0-0.1,0-0.3-0.1-0.5c-0.3-0.4-0.7-0.5-1-0.4
					c-0.3,0-0.3,0.3-0.3,0.5c-0.2-0.2-0.4-0.3-0.7-0.2c-0.2,0.1-0.4,0.3-0.2,0.7c0.1,0.1,0.2,0.3,0.4,0.4L616.9,226.1z"/>
				<polygon class="st0" points="617,222.6 617.1,221.8 617.8,222 617.8,221.7 617.2,221.6 617.2,221.3 617,221.3 616.9,221.5 
					615.5,221.2 615.5,221.5 616.8,222.5 				"/>
				<path class="st0" d="M618.3,218.9c0.3-0.2,0.6-0.2,0.8,0c0.2,0.2,0.2,0.4,0,0.6c-0.1,0.1-0.3,0.1-0.5,0.1l0.2,0.2
					c0.1,0,0.3,0,0.5-0.2c0.3-0.2,0.3-0.6-0.1-0.9c-0.2-0.2-0.4-0.2-0.6-0.2s-0.3,0.1-0.4,0.2c0,0-0.1,0-0.1,0.1l-0.4-0.4l0.6-0.4
					l-0.2-0.2l-0.7,0.5l0.7,0.8C618.2,219.1,618.2,219,618.3,218.9z"/>
				<polygon class="st0" points="631.3,228.8 629.7,227.6 629.5,227.7 631.3,229.1 631.5,228.9 631.5,228.5 631.3,228.4 				"/>
				<polygon class="st0" points="630.2,229.8 628.8,228.3 628.6,228.5 630.2,230.1 630.4,230 630.5,229.6 630.3,229.4 				"/>
				<path class="st0" d="M632.1,224.8c-0.7-0.2-1.2-0.1-1.4,0.3c-0.2,0.3,0,0.7,0.8,0.8c0.7,0.2,1.2,0.1,1.4-0.3
					C633.1,225.3,632.8,225,632.1,224.8z M632.7,225.6c-0.1,0.2-0.5,0.2-1,0.1s-0.8-0.4-0.7-0.6s0.5-0.2,1-0.1
					C632.6,225.1,632.8,225.4,632.7,225.6z"/>
				<polygon class="st0" points="646.9,230.7 646.7,229.2 646.4,229.2 646.7,230.9 646.9,230.9 647.4,230.8 647.3,230.6 				"/>
				<path class="st0" d="M641.9,229.6c0.2,0.1,0.5,0.1,0.7,0.1v-0.1c-0.2,0-0.3-0.1-0.5-0.1c-0.2-0.2-0.2-0.3-0.2-0.5
					c0.2-0.2,0.5-0.3,1.3-0.3h0.3l0.1-0.1l-1.2-0.7l-0.1,0.1l0.9,0.5H643c-0.6,0.1-1,0.1-1.2,0.4C641.5,229,641.5,229.3,641.9,229.6
					z"/>
				<path class="st0" d="M639.4,225.3c-0.3,0.1-0.3,0.3-0.3,0.5c-0.2-0.2-0.4-0.2-0.6-0.2s-0.4,0.3-0.2,0.6c0.1,0.2,0.3,0.3,0.4,0.4
					l0.2-0.1c-0.2,0-0.3-0.2-0.3-0.3c-0.1-0.2,0-0.3,0.1-0.4c0.2-0.1,0.5,0.1,0.5,0.3l0.1,0.1h0.2l-0.1-0.1
					c-0.1-0.2-0.1-0.4,0.1-0.5c0.1-0.1,0.4,0,0.6,0.3c0.1,0.1,0.1,0.3,0.1,0.4h0.2c0-0.1,0-0.3-0.1-0.5
					C640.1,225.3,639.7,225.2,639.4,225.3z"/>
				<path class="st0" d="M638.9,223.1l0.1-0.8l0.6,0.1v-0.2l-0.6-0.1v-0.2h-0.2v0.2l-1.3-0.3l-0.1,0.2l1.2,1.1L638.9,223.1z
					 M638,222.2c-0.1-0.1-0.1-0.1-0.3-0.2c0.1,0,0.2,0,0.3,0.1l0.7,0.2l-0.1,0.6l0,0L638,222.2z"/>
				<path class="st0" d="M640.2,219.5c0.3-0.2,0.5-0.2,0.8,0c0.2,0.2,0.1,0.4,0,0.6c-0.1,0.1-0.3,0.1-0.4,0.1l0.2,0.2
					c0.1,0,0.3,0,0.4-0.2c0.3-0.2,0.3-0.6,0-0.9c-0.2-0.1-0.4-0.2-0.6-0.2c-0.2,0.1-0.3,0.1-0.4,0.2l-0.1,0.1l-0.4-0.4l0.6-0.4
					l-0.2-0.1l-0.7,0.5l0.7,0.7C640,219.6,640.1,219.6,640.2,219.5z"/>
				<polygon class="st0" points="652.6,229 651.1,227.9 650.9,228 652.7,229.3 652.8,229.2 652.9,228.8 652.7,228.6 				"/>
				<polygon class="st0" points="651.6,229.9 650.3,228.6 650.1,228.7 651.6,230.3 651.8,230.2 651.9,229.7 651.7,229.6 				"/>
				<polygon class="st0" points="669.1,231.3 669.5,231.1 669.4,230.9 669.1,231 668.9,229.6 668.6,229.6 668.9,231.3 				"/>
				<path class="st0" d="M664.3,229.9c0.2,0.1,0.4,0.1,0.6,0.1v-0.2c-0.2,0-0.3,0-0.5-0.1c-0.2-0.1-0.2-0.3-0.2-0.4
					c0.2-0.2,0.5-0.3,1.2-0.3h0.3l0.1-0.1l-1.2-0.7l-0.1,0.1l0.8,0.5h-0.2c-0.6,0.1-1,0.1-1.2,0.4
					C663.8,229.4,663.8,229.7,664.3,229.9z"/>
				<path class="st0" d="M661.9,225.8c-0.3,0-0.3,0.3-0.3,0.5c-0.2-0.2-0.4-0.2-0.6-0.2s-0.4,0.2-0.2,0.6c0.1,0.2,0.3,0.3,0.4,0.4
					l0.2-0.1c-0.1-0.1-0.3-0.2-0.4-0.3c-0.1-0.2,0-0.3,0.2-0.4s0.4,0.1,0.5,0.3l0.1,0.1h0.2l-0.1-0.1c-0.1-0.2-0.1-0.4,0.1-0.5
					c0.2-0.1,0.4,0,0.6,0.3c0.1,0.1,0.1,0.3,0.1,0.4h0.2c0-0.1,0-0.3-0.1-0.4C662.6,225.8,662.2,225.7,661.9,225.8z"/>
				<path class="st0" d="M661.4,223.7l0.1-0.8l0.6,0.1v-0.2l-0.6-0.1v-0.2h-0.2v0.2l-1.4-0.3v0.3l1.2,1H661.4z M660.2,222.6
					c0.1,0,0.2,0,0.3,0.1l0.7,0.1l-0.1,0.5l-0.7-0.6C660.4,222.7,660.4,222.7,660.2,222.6z"/>
				<path class="st0" d="M662.6,220.2c0.2-0.2,0.5-0.2,0.7,0c0.2,0.2,0.2,0.4,0,0.5c-0.2,0.1-0.3,0.1-0.4,0.1l0.1,0.2
					c0.1,0,0.3-0.1,0.5-0.2c0.3-0.2,0.3-0.6,0-0.8c-0.2-0.2-0.4-0.2-0.6-0.2c-0.1,0-0.3,0-0.4,0.1c-0.1,0-0.1,0-0.1,0.1l-0.4-0.4
					l0.6-0.4l-0.2-0.2l-0.7,0.5l0.7,0.7C662.4,220.4,662.4,220.3,662.6,220.2z"/>
				<polygon class="st0" points="674.8,229.6 674.9,229.1 674.7,229 674.6,229.4 673.1,228.3 673,228.4 674.7,229.7 				"/>
				<polygon class="st0" points="673.8,230.5 673.9,230.1 673.7,230 673.6,230.3 673.6,230.3 672.4,229 672.2,229.1 673.6,230.6 
									"/>
				<polygon class="st0" points="690.8,232.4 691.2,232.2 691.2,232.1 690.8,232.2 690.7,230.8 690.4,230.8 690.6,232.4 				"/>
				<path class="st0" d="M686.8,231.1c0.2,0.1,0.4,0.1,0.6,0.1v-0.1c-0.1,0-0.3,0-0.4-0.1c-0.3-0.1-0.3-0.3-0.2-0.4
					c0.1-0.2,0.4-0.2,1.1-0.3h0.2l0.1-0.1l-1-0.7l-0.1,0.2l0.7,0.4l0,0h-0.2c-0.5,0-0.8,0.1-1,0.3
					C686.4,230.6,686.4,230.9,686.8,231.1z"/>
				<path class="st0" d="M684.7,227.2c-0.2,0-0.3,0.2-0.2,0.4c-0.2-0.1-0.4-0.2-0.5-0.1c-0.2,0.1-0.3,0.2-0.1,0.5
					c0.1,0.2,0.2,0.3,0.3,0.4l0.1-0.1c-0.1,0-0.2-0.1-0.3-0.3c-0.1-0.2-0.1-0.3,0.1-0.3c0.2-0.1,0.4,0.1,0.5,0.2v0.1h0.2l-0.1-0.1
					c-0.1-0.2-0.1-0.4,0.1-0.5c0.1-0.1,0.4,0,0.5,0.2s0.1,0.3,0.1,0.4h0.2c0-0.1,0-0.3-0.1-0.4C685.3,227.3,685,227.2,684.7,227.2z"
					/>
				<path class="st0" d="M684.3,225.2l0.1-0.7l0.5,0.1v-0.2l-0.5-0.1v-0.2h-0.1v0.2l-1.1-0.3l-0.1,0.2l1,1H684.3z M683.4,224.2
					c0.1,0,0.2,0,0.3,0l0.6,0.2l-0.1,0.5l0,0l-0.5-0.5C683.5,224.4,683.5,224.3,683.4,224.2z"/>
				<path class="st0" d="M685.3,222c0.2-0.2,0.5-0.2,0.6,0c0.2,0.1,0.2,0.4,0,0.5c-0.1,0.1-0.2,0.1-0.3,0.1l0.1,0.2
					c0.1,0,0.3-0.1,0.4-0.2c0.2-0.2,0.2-0.6,0-0.8c-0.2-0.2-0.4-0.2-0.5-0.2s-0.2,0.1-0.3,0.2c-0.1,0-0.1,0-0.1,0l-0.3-0.3l0.5-0.4
					l-0.1-0.1l-0.6,0.5l0.6,0.7C685.2,222.1,685.3,222,685.3,222z"/>
				<polygon class="st0" points="695.6,230.7 695.7,230.4 695.5,230.3 695.5,230.6 694.2,229.6 694.1,229.7 695.5,230.9 				"/>
				<polygon class="st0" points="694.8,231.7 694.9,231.3 694.7,231.2 694.7,231.5 693.6,230.2 693.4,230.4 694.7,231.8 				"/>
				<polygon class="st0" points="494.7,212 509.8,204.8 533.4,193.6 533.4,192.9 533.4,192.1 494.4,211.1 				"/>
				<path class="st0" d="M508.2,422.9l-2.4-2l-3.6-3l-7.1-6l0,0v-6v-12V220.6l0,0l0,0c0-0.1-0.1-0.2-0.2-0.2l-0.1-0.1l0,0l0,0
					c-0.2,0-0.3,0.1-0.3,0.3L493.9,394v12v6v0.4l6.8,5.5l3.7,3l2.4,2l23.3,19c0.1,0,0.1,0.1,0.2,0.1l0,0c0.1,0,0.1,0,0.2-0.1l0,0
					c0.1-0.1,0.1-0.1,0.1-0.2c0-0.1,0-0.2-0.1-0.2L508.2,422.9z"/>
				<path class="st0" d="M608.1,194.3c0.9-0.2,12.5-3.7,26.4-4s25.4,7.5,25.9,6c0.5-1.6-10.4-6.2-23-7.9
					c-12.6-1.7-29.9,2.1-30.8,2.4c-1.4,0.5-1.6,1.8-1.2,2.4C605.7,193.9,607.1,194.5,608.1,194.3z"/>
			</g>
		</g>
	</g>
</g>
</svg>
